<?xml version="1.0" standalone="no"?>
<!DOCTYPE svg PUBLIC "-//W3C//DTD SVG 1.1//EN" "http://www.w3.org/Graphics/SVG/1.1/DTD/svg11.dtd" >
<svg>
<metadata>
Created by FontForge 20120731 at Wed Dec 20 03:53:00 2017
 By www
Copyright \(c\) 2013 Parachute, www.parachute.gr.  All rights reserved.
</metadata>
<defs>
<font id="PFBagueSansPro-Bold" horiz-adv-x="410" >
  <font-face 
    font-family="PF Bague Sans Pro"
    font-weight="700"
    font-stretch="normal"
    units-per-em="1000"
    panose-1="2 0 8 3 0 0 0 2 0 3"
    ascent="800"
    descent="-200"
    x-height="445"
    cap-height="660"
    bbox="-480 -307 1724 937"
    underline-thickness="70"
    underline-position="-50"
    unicode-range="U+0020-FB06"
  />
<missing-glyph horiz-adv-x="455" 
d="M448 0h-443v699h443v-699zM357 58l-131 233l-131 -233h262zM357 639h-262l131 -233zM389 575l-127 -226l127 -227v453zM63 122l128 227l-128 226v-453z" />
    <glyph glyph-name="fj" unicode="fj" horiz-adv-x="537" 
d="M263 -231l-23 56l-20 49c96 7 126 46 126 145v325h-134v-344h-133v344h-74v89l74 13v85c0 129 78 207 218 207c60 0 111 -9 153 -27v-111c-43 22 -88 33 -133 33c-70 0 -105 -36 -105 -109v-79h269v-405c0 -168 -73 -258 -218 -271z" />
    <glyph glyph-name="ffj" unicode="ffj" horiz-adv-x="819" 
d="M625 345h-134v-345h-134v344h-145v-344h-133v344h-74v89l74 13v65c0 128 74 209 207 209c49 0 95 -9 136 -27c36 30 87 45 154 45c63 0 114 -9 153 -27v-111c-43 22 -87 33 -132 33c-71 0 -106 -36 -106 -109v-78h269v-419c0 -161 -73 -246 -218 -257l-43 105
c53 3 87 17 102 44c16 26 24 71 24 136v290zM357 446v85c0 27 3 51 10 71c-26 9 -47 14 -64 14c-61 0 -91 -34 -91 -103v-67h145z" />
    <glyph glyph-name="f_t" unicode="ft" horiz-adv-x="639" 
d="M353 446l116 145h22v-146h119v-101h-119v-176c0 -49 19 -73 58 -73c23 0 49 8 76 24v-99c-33 -21 -72 -31 -117 -31c-107 0 -151 57 -151 181v174h-145v-344h-133v344h-74v89l74 13v48c0 151 58 232 202 232c31 0 63 -4 97 -13v-105c-25 9 -50 14 -75 14
c-61 0 -91 -35 -91 -105v-71h141z" />
    <glyph glyph-name="ff" unicode="ff" horiz-adv-x="621" 
d="M5 433l74 13v68c0 127 75 205 208 205c55 0 104 -11 147 -33c31 26 75 39 134 39c29 0 59 -4 91 -13v-105c-23 9 -47 14 -73 14c-61 0 -92 -35 -92 -105v-70h128v-102h-128v-344h-134v344h-148v-344h-133v344h-74v89zM212 446h148v73c0 31 4 58 11 82
c-23 9 -50 13 -79 13c-53 0 -80 -43 -80 -102v-66z" />
    <glyph glyph-name="fi" unicode="fi" horiz-adv-x="536" 
d="M482 446v-446h-136v345h-133v-345h-134v345h-74v89l74 12v86c0 136 76 207 219 207c60 0 111 -9 153 -28v-110c-43 21 -88 32 -133 32c-70 0 -105 -36 -105 -108v-79h269z" />
    <glyph glyph-name="fl" unicode="fl" horiz-adv-x="546" 
d="M212 445h97v-101h-97v-344h-133v344h-74v89l74 13v83c0 129 75 207 212 207c67 0 133 -8 199 -23v-713h-135v623c-13 4 -28 6 -43 6c-67 0 -100 -36 -100 -107v-77z" />
    <glyph glyph-name="ffi" unicode="ffi" horiz-adv-x="822" 
d="M491 524v-78c31 0 76 0 137 -1h137v-445h-136v344h-138v-344h-134v344h-145v-344h-133v344h-74v89l74 13v70c0 127 74 204 207 204c49 0 95 -9 136 -27c37 29 93 44 167 44c54 0 101 -9 140 -26v-111c-43 22 -87 33 -132 33c-71 0 -106 -36 -106 -109zM212 446h145v85
c0 27 3 51 10 71c-26 9 -47 14 -64 14c-61 0 -91 -34 -91 -103v-67z" />
    <glyph glyph-name="ffl" unicode="ffl" horiz-adv-x="827" 
d="M489 445h97v-101h-97v-344h-134v344h-143v-344h-133v344h-74v89l74 13v44c0 153 69 230 207 230c49 0 94 -9 136 -28c37 29 86 44 148 44c76 0 143 -8 201 -23v-713h-135v623c-13 4 -27 6 -44 6c-69 0 -103 -36 -103 -107v-77zM212 446h143v83c0 29 4 54 11 74
c-21 9 -41 13 -62 13c-61 0 -92 -34 -92 -103v-67z" />
    <glyph glyph-name="longs_t" unicode="&#x17f;t" horiz-adv-x="632" 
d="M212 517v-517h-133v344h-74v89l74 13v78c0 125 71 202 204 202c43 0 83 -8 120 -24v-105c-34 17 -67 25 -99 25c-61 0 -92 -35 -92 -105zM364 447l97 144h22v-146h119v-100h-119v-177c0 -48 17 -69 58 -69c23 0 49 8 76 24v-103c-33 -21 -72 -31 -117 -31
c-101 0 -151 52 -151 156v200h-69v75z" />
    <glyph glyph-name=".notdef" horiz-adv-x="455" 
d="M448 0h-443v699h443v-699zM357 58l-131 233l-131 -233h262zM357 639h-262l131 -233zM389 575l-127 -226l127 -227v453zM63 122l128 227l-128 226v-453z" />
    <glyph glyph-name="NULL" horiz-adv-x="0" 
 />
    <glyph glyph-name="CR" horiz-adv-x="333" 
 />
    <glyph glyph-name="space" unicode=" " horiz-adv-x="240" 
 />
    <glyph glyph-name="exclam" unicode="!" horiz-adv-x="317" 
d="M227 692l-13 -505h-110l-15 505h138zM230 59c0 -37 -32 -69 -71 -69c-40 0 -73 32 -73 69c0 40 33 73 73 73c39 0 71 -33 71 -73z" />
    <glyph glyph-name="quotedbl" unicode="&#x22;" horiz-adv-x="354" 
d="M155 683v-236h-99v236h99zM298 683v-236h-99v236h99z" />
    <glyph glyph-name="numbersign" unicode="#" horiz-adv-x="556" 
d="M358 457l37 170h77l-18 -84c-8 -38 -14 -67 -19 -86h86v-66h-100l-28 -123h92v-67h-106l-44 -201h-78c22 97 37 164 44 201h-112l-43 -201h-79l45 201h-79v67h93c12 55 21 96 28 123h-88v66h102l38 170h77l-37 -170h112zM343 391h-112l-27 -123h113c12 55 21 96 26 123z
" />
    <glyph glyph-name="dollar" unicode="$" horiz-adv-x="572" 
d="M330 -106h-79v104c-72 5 -132 22 -181 52v120c29 -21 64 -38 105 -51c42 -13 77 -20 106 -20c69 0 106 32 106 80c0 66 -78 92 -154 130c-77 36 -154 81 -154 179c0 91 64 159 172 172v110h79v-109c54 -5 103 -17 147 -38v-112c-55 36 -114 54 -176 54
c-63 0 -95 -25 -95 -76c0 -36 49 -66 110 -93c88 -36 204 -95 202 -208c0 -96 -67 -174 -188 -189v-105z" />
    <glyph glyph-name="percent" unicode="%" horiz-adv-x="797" 
d="M591 684h84l-478 -711h-84zM205 682c51 0 91 -16 122 -47s47 -70 47 -116s-16 -85 -48 -117c-31 -31 -72 -47 -121 -47c-104 0 -170 68 -170 164c0 46 16 85 47 116c32 31 73 47 123 47zM206 597c-43 0 -73 -35 -73 -78c0 -48 28 -81 73 -81c43 0 72 36 72 81
c0 44 -31 78 -72 78zM591 316c51 0 91 -16 122 -47s47 -70 47 -116s-16 -85 -48 -116c-31 -31 -72 -47 -121 -47c-104 0 -170 67 -170 162c0 46 16 85 47 116c32 32 73 48 123 48zM592 232c-41 0 -72 -36 -72 -79c0 -48 27 -81 72 -81c44 0 73 34 73 81c0 44 -30 79 -73 79z
" />
    <glyph glyph-name="ampersand" unicode="&#x26;" horiz-adv-x="713" 
d="M711 7l-92 -70c-54 30 -106 63 -155 99c-57 -40 -121 -60 -192 -60c-139 0 -220 67 -220 182c0 35 11 71 34 108s56 66 99 87c-19 45 -29 85 -29 120c0 119 80 194 212 194c59 0 111 -12 158 -37c-1 -22 -4 -56 -8 -101c-51 23 -96 35 -135 35c-64 0 -98 -35 -98 -94
c0 -83 67 -188 182 -291c38 49 68 117 91 203l91 -58c-25 -86 -59 -157 -102 -212c49 -39 104 -74 164 -105zM288 73c33 0 64 10 92 30c-60 53 -107 106 -141 159c-37 -19 -62 -56 -62 -91c0 -61 46 -98 111 -98z" />
    <glyph glyph-name="quotesingle" unicode="'" horiz-adv-x="219" 
d="M159 683v-236h-99v236h99z" />
    <glyph glyph-name="parenleft" unicode="(" horiz-adv-x="314" 
d="M227 735l75 -30c-84 -129 -126 -264 -126 -405s42 -274 126 -401l-76 -36c-53 61 -93 131 -122 208c-29 78 -43 154 -43 229c0 152 61 312 166 435z" />
    <glyph glyph-name="parenright" unicode=")" horiz-adv-x="314" 
d="M20 705l75 30c105 -123 167 -283 167 -435c0 -75 -15 -151 -44 -229c-29 -77 -69 -147 -122 -208l-75 36c84 128 126 262 126 401s-42 274 -127 405z" />
    <glyph glyph-name="asterisk" unicode="*" horiz-adv-x="452" 
d="M283 517l99 -39l-44 -78l-84 67l14 -109h-87l13 108l-85 -67l-45 78c45 17 79 30 102 38l-102 41l44 78l84 -68l-7 54l-6 54h89l-15 -107l85 66l44 -77z" />
    <glyph glyph-name="plus" unicode="+" horiz-adv-x="572" 
d="M489 252h-162v-167h-84v167h-163v81h163v164h84v-164h162v-81z" />
    <glyph glyph-name="comma" unicode="," horiz-adv-x="239" 
d="M45 61c0 41 32 73 72 73c43 0 72 -31 72 -75c0 -29 -11 -64 -32 -107s-44 -81 -69 -113l-53 7l49 152c-26 11 -39 32 -39 63z" />
    <glyph glyph-name="hyphen" unicode="-" horiz-adv-x="374" 
d="M320 201h-267v89h267v-89z" />
    <glyph glyph-name="period" unicode="." horiz-adv-x="243" 
d="M190 61c0 -37 -33 -71 -70 -71c-40 0 -72 32 -72 71c0 41 32 73 72 73c39 0 70 -32 70 -73z" />
    <glyph glyph-name="slash" unicode="/" horiz-adv-x="343" 
d="M365 683l-285 -773h-96l282 773h99z" />
    <glyph glyph-name="zero" unicode="0" horiz-adv-x="572" 
d="M286 672c99 0 171 -43 207 -114c37 -69 52 -143 52 -228c0 -84 -17 -159 -54 -228c-37 -68 -110 -112 -207 -112s-169 41 -206 108c-37 68 -53 143 -53 232c0 85 16 160 53 229s111 113 208 113zM286 563c-83 0 -124 -77 -124 -232s41 -233 124 -233c81 0 122 78 122 233
s-41 232 -122 232z" />
    <glyph glyph-name="one" unicode="1" horiz-adv-x="572" 
d="M377 667h19v-667h-141v472l-154 -68v125z" />
    <glyph glyph-name="two" unicode="2" horiz-adv-x="572" 
d="M520 0h-460l-18 13c3 80 21 142 57 190c37 48 72 76 132 115l23 15l24 16c8 5 35 24 43 32c9 8 29 25 36 36c12 19 23 39 23 64c0 57 -43 88 -100 88c-59 0 -99 -42 -99 -103c0 -13 2 -29 7 -48l-124 22c-3 16 -5 32 -5 47c0 55 22 101 67 136s99 53 160 53
c65 0 120 -17 164 -50s66 -81 66 -142c0 -72 -48 -139 -144 -202l-45 -29c-25 -15 -41 -26 -50 -33l-37 -32c-32 -28 -45 -55 -52 -88h332v-100z" />
    <glyph glyph-name="three" unicode="3" horiz-adv-x="572" 
d="M159 330l-14 19l162 207l-1 2v2h-252v99h453v-19l-180 -219c119 -27 177 -100 177 -207c0 -65 -24 -119 -73 -161c-49 -41 -111 -62 -186 -62c-81 0 -151 17 -210 51v120c52 -45 115 -67 188 -67c95 0 152 51 152 124c0 80 -68 118 -155 118c-19 0 -39 -2 -61 -7z" />
    <glyph glyph-name="four" unicode="4" horiz-adv-x="572" 
d="M350 338l69 109h64v-199h70v-99h-70v-149h-133v149h-345v16l300 495h144l-256 -412h157v90z" />
    <glyph glyph-name="five" unicode="5" horiz-adv-x="572" 
d="M293 427c66 0 121 -19 166 -56s68 -89 68 -157c0 -66 -24 -120 -73 -161s-111 -62 -187 -62c-78 0 -147 17 -208 51v121c41 -40 116 -68 187 -68c92 0 152 49 152 122c0 77 -61 116 -148 116c-53 0 -103 -12 -149 -35l-18 9l45 353h369v-99h-271c-5 -33 -11 -82 -19 -147
c24 9 53 13 86 13z" />
    <glyph glyph-name="six" unicode="6" horiz-adv-x="572" 
d="M87 378l173 281h146l-162 -255c0 -1 1 -3 2 -4c22 10 48 15 79 15c63 0 113 -20 152 -59s58 -89 58 -148c0 -65 -23 -117 -69 -158c-46 -40 -106 -60 -179 -60c-75 0 -136 19 -182 58s-69 93 -69 162c0 57 17 113 51 168zM287 326c-68 0 -118 -47 -118 -114
s45 -115 118 -115c71 0 117 48 117 115c0 65 -46 114 -117 114z" />
    <glyph glyph-name="seven" unicode="7" horiz-adv-x="572" 
d="M524 642l-286 -642h-139l250 559h-288v100h463v-17z" />
    <glyph glyph-name="eight" unicode="8" horiz-adv-x="572" 
d="M387 475c0 53 -41 91 -98 91c-56 0 -97 -39 -97 -91s41 -89 98 -89c56 0 97 38 97 89zM288 310c-69 0 -116 -45 -116 -106s45 -108 116 -108s116 47 116 108s-44 106 -116 106zM431 355v-4c69 -32 104 -86 104 -161c0 -60 -23 -108 -68 -145s-104 -55 -179 -55
c-153 0 -250 77 -250 197c0 68 38 131 102 159l1 4c-52 28 -78 73 -78 136c0 55 21 100 64 134c43 35 97 52 161 52c65 0 118 -17 159 -52c42 -34 63 -78 63 -133c0 -53 -30 -107 -79 -132z" />
    <glyph glyph-name="nine" unicode="9" horiz-adv-x="572" 
d="M311 0h-146l163 257c-2 2 -3 3 -3 4c-23 -10 -49 -15 -79 -15c-62 0 -112 19 -151 58c-38 39 -57 89 -57 148c0 65 23 118 68 158c46 41 106 61 180 61c75 0 135 -20 180 -59c46 -39 69 -93 69 -161c0 -52 -17 -108 -51 -167c-40 -71 -98 -165 -173 -284zM285 336
c68 0 117 45 117 112c0 68 -44 116 -116 116c-71 0 -117 -49 -117 -116c0 -64 47 -112 116 -112z" />
    <glyph glyph-name="colon" unicode=":" horiz-adv-x="257" 
d="M197 61c0 -37 -32 -70 -71 -70s-72 33 -72 70c0 40 33 72 72 72s71 -32 71 -72zM176 394c28 -28 28 -72 0 -100s-72 -28 -100 0s-28 72 0 100s72 28 100 0z" />
    <glyph glyph-name="semicolon" unicode=";" horiz-adv-x="263" 
d="M181 394c28 -28 28 -72 0 -100s-72 -28 -100 0s-28 72 0 100s72 28 100 0zM55 61c0 41 32 73 72 73c43 0 72 -31 72 -75c0 -29 -11 -64 -32 -107s-44 -81 -69 -113l-53 7l49 152c-26 11 -39 32 -39 63z" />
    <glyph glyph-name="less" unicode="&#x3c;" horiz-adv-x="572" 
d="M236 290l256 -141v-101l-412 233v16l412 235v-104z" />
    <glyph glyph-name="equal" unicode="=" horiz-adv-x="572" 
d="M489 249v-79h-407v79h407zM489 421v-79h-407v79h407z" />
    <glyph glyph-name="greater" unicode="&#x3e;" horiz-adv-x="572" 
d="M492 281l-412 -233v101l255 142l-255 137v104l412 -235v-16z" />
    <glyph glyph-name="question" unicode="?" horiz-adv-x="522" 
d="M319 496c0 48 -39 83 -104 83c-51 0 -105 -15 -161 -45v120c60 25 121 38 182 38c71 0 127 -17 168 -52c41 -34 62 -77 62 -130s-32 -106 -72 -143c-59 -53 -133 -104 -133 -150c0 -11 3 -20 9 -29l-109 -21c-12 25 -18 46 -18 64c-1 113 177 167 176 265zM295 57
c0 -39 -31 -70 -70 -70c-44 0 -72 30 -72 70s31 71 72 71c40 0 70 -31 70 -71z" />
    <glyph glyph-name="at" unicode="@" horiz-adv-x="921" 
d="M512 283v20h-46c-55 0 -83 -18 -83 -54c0 -27 20 -44 52 -44c51 0 77 31 77 78zM394 131c-79 0 -121 47 -121 104c0 83 71 122 174 122h64v11c0 41 -27 62 -80 62c-37 0 -75 -10 -112 -31v85c39 19 86 28 139 28c109 0 164 -52 164 -156v-92c0 -44 10 -64 46 -64
c53 0 87 55 87 134c0 77 -25 139 -75 187c-50 49 -117 73 -202 73c-92 0 -167 -28 -226 -85s-88 -128 -88 -214c0 -87 27 -157 80 -211s126 -81 218 -81c75 0 145 21 210 62v-90c-59 -37 -129 -56 -211 -56c-119 0 -214 35 -284 105s-105 160 -105 269s39 200 116 274
c78 75 174 112 289 112c111 0 200 -32 268 -96c68 -63 102 -144 102 -242c0 -61 -17 -114 -52 -157c-34 -43 -82 -65 -143 -65c-65 0 -105 32 -116 73c-1 1 -2 1 -4 1c-33 -41 -79 -62 -138 -62z" />
    <glyph glyph-name="A" unicode="A" horiz-adv-x="662" 
d="M653 0h-151l-45 104h-253l-46 -104h-148l313 672h22zM334 389h-4l-81 -183h164z" />
    <glyph glyph-name="B" unicode="B" horiz-adv-x="639" 
d="M479 360v-4c77 -28 115 -93 115 -162c0 -55 -20 -101 -59 -138s-89 -56 -150 -56h-317v661h294c57 0 104 -15 139 -46c36 -30 54 -70 54 -119c0 -52 -27 -105 -76 -136zM451 206c0 55 -42 88 -110 88h-128v-179h135c76 0 103 43 103 91zM329 549h-116v-149h111
c47 0 91 18 91 73c0 45 -31 76 -86 76z" />
    <glyph glyph-name="C" unicode="C" horiz-adv-x="622" 
d="M589 153l1 -126c-53 -26 -117 -39 -192 -39c-111 0 -197 32 -260 95c-62 63 -93 145 -93 244c0 97 33 179 98 246c66 67 152 100 259 100c68 0 124 -9 167 -27v-125c-46 21 -95 31 -146 31c-64 0 -118 -20 -162 -60c-43 -39 -65 -94 -65 -165c0 -136 84 -218 219 -218
c59 0 117 15 174 44z" />
    <glyph glyph-name="D" unicode="D" horiz-adv-x="697" 
d="M505 332c0 131 -65 213 -192 213h-98v-430h104c113 0 186 76 186 217zM323 0h-256v660h242c109 0 193 -31 252 -92c60 -61 90 -139 90 -236c0 -96 -29 -175 -86 -238s-138 -94 -242 -94z" />
    <glyph glyph-name="E" unicode="E" horiz-adv-x="569" 
d="M216 115h317v-115h-466v660h447v-115h-298v-146h267v-111h-267v-173z" />
    <glyph glyph-name="F" unicode="F" horiz-adv-x="535" 
d="M216 265v-265h-149v660h452v-115h-303v-169h265v-111h-265z" />
    <glyph glyph-name="G" unicode="G" horiz-adv-x="680" 
d="M44 325c0 99 33 181 99 248c67 67 154 101 263 101c75 0 137 -12 188 -36v-129c-53 28 -111 42 -176 42s-118 -21 -160 -62c-41 -41 -62 -96 -62 -166c0 -63 17 -115 52 -156c35 -40 87 -60 154 -60c33 0 62 5 89 15v218h132v-313c-61 -25 -138 -38 -233 -38
c-110 0 -195 31 -256 93c-60 62 -90 143 -90 243z" />
    <glyph glyph-name="H" unicode="H" horiz-adv-x="694" 
d="M626 660v-660h-149v285h-261v-285h-149v660h149v-259h261v259h149z" />
    <glyph glyph-name="I" unicode="I" horiz-adv-x="295" 
d="M221 660v-660h-149v660h149z" />
    <glyph glyph-name="J" unicode="J" horiz-adv-x="497" 
d="M148 108c96 0 130 55 130 158v394h151v-381c0 -65 -6 -113 -27 -166c-30 -74 -98 -125 -230 -125c-61 0 -113 11 -158 34v125c46 -26 91 -39 134 -39z" />
    <glyph glyph-name="K" unicode="K" horiz-adv-x="645" 
d="M67 660h150v-303l240 303h162l-259 -318l277 -342h-172l-248 327v-327h-150v660z" />
    <glyph glyph-name="L" unicode="L" horiz-adv-x="532" 
d="M67 0v660h149v-545h305v-115h-454z" />
    <glyph glyph-name="M" unicode="M" horiz-adv-x="815" 
d="M599 323l-180 -201h-22l-184 201c-1 -1 -2 -1 -3 -1v-322h-143v671h22l319 -369l318 369h21v-671h-144v322c-1 1 -2 1 -4 1z" />
    <glyph glyph-name="N" unicode="N" horiz-adv-x="721" 
d="M215 381v-381h-148v673h22c47 -46 116 -110 207 -193c91 -82 160 -145 205 -189h4v369h148v-671h-21l-414 392h-3z" />
    <glyph glyph-name="O" unicode="O" horiz-adv-x="799" 
d="M399 -11c-108 0 -194 32 -259 96c-64 65 -96 146 -96 245c0 96 34 177 101 243c68 66 153 99 255 99c103 0 188 -33 254 -99c66 -65 99 -146 99 -243s-33 -179 -100 -244c-66 -65 -151 -97 -254 -97zM401 549c-61 0 -110 -21 -149 -63s-58 -94 -58 -156
c0 -64 19 -117 56 -159c38 -42 88 -63 151 -63c61 0 111 21 148 64c38 43 57 95 57 158c0 62 -19 114 -57 156c-37 42 -87 63 -148 63z" />
    <glyph glyph-name="P" unicode="P" horiz-adv-x="590" 
d="M216 0h-150v659h253c80 0 142 -22 185 -65s65 -95 65 -156c0 -65 -23 -118 -68 -161s-103 -64 -175 -64h-110v-213zM294 548h-79v-224h78c91 0 127 51 127 111c0 63 -43 113 -126 113z" />
    <glyph glyph-name="Q" unicode="Q" horiz-adv-x="804" 
d="M403 549c-61 0 -110 -21 -149 -63s-58 -94 -58 -156c0 -64 19 -117 56 -159c38 -42 88 -63 151 -63c61 0 111 21 149 63c38 43 57 96 57 159c0 62 -19 114 -57 156s-88 63 -149 63zM402 672c103 0 188 -33 254 -99c66 -65 99 -146 99 -243c0 -69 -18 -132 -54 -187
s-85 -96 -147 -121c-1 -1 -1 -2 -1 -3l200 -49l-46 -119l-386 146c-85 15 -152 53 -201 114s-73 135 -73 221c0 96 34 177 101 242s152 98 254 98z" />
    <glyph glyph-name="R" unicode="R" horiz-adv-x="634" 
d="M66 659h267c68 0 126 -19 173 -58c48 -38 72 -91 72 -158c0 -76 -43 -159 -132 -200l174 -243h-170l-174 269v14c104 12 155 74 155 139c0 76 -49 124 -126 124h-90v-546h-149v659z" />
    <glyph glyph-name="S" unicode="S" horiz-adv-x="538" 
d="M32 41v136c29 -22 64 -39 103 -52c40 -13 75 -19 106 -19c68 0 115 24 115 73c0 45 -50 81 -111 108c-88 39 -206 89 -204 204c0 55 21 100 62 133c42 33 96 50 163 50c71 0 136 -14 197 -42v-128c-23 15 -52 28 -85 38s-62 15 -88 15c-59 0 -100 -21 -100 -65
c0 -48 80 -67 157 -107c27 -14 53 -29 76 -45c47 -31 82 -89 82 -158c0 -56 -21 -102 -64 -139c-42 -37 -102 -55 -181 -55c-92 0 -168 18 -228 53z" />
    <glyph glyph-name="T" unicode="T" horiz-adv-x="559" 
d="M546 661v-115h-192v-546h-149v546h-193v115h534z" />
    <glyph glyph-name="U" unicode="U" horiz-adv-x="701" 
d="M485 255v405h148v-398c0 -81 -24 -147 -73 -198c-49 -50 -119 -75 -210 -75c-187 0 -283 105 -283 270v401h149v-400c0 -83 47 -149 135 -149c87 0 134 63 134 144z" />
    <glyph glyph-name="V" unicode="V" horiz-adv-x="641" 
d="M632 659l-297 -671h-23l-305 671h159l154 -365h4l152 365h156z" />
    <glyph glyph-name="W" unicode="W" horiz-adv-x="960" 
d="M654 -12l-175 391h-4l-171 -391h-22l-275 671h164l138 -331h4l155 339h21l160 -339h4l135 331h163l-275 -671h-22z" />
    <glyph glyph-name="X" unicode="X" horiz-adv-x="671" 
d="M662 0h-161l-166 317l-168 -317h-160l196 341l-183 318h160l155 -296l154 296h161l-185 -318z" />
    <glyph glyph-name="Y" unicode="Y" horiz-adv-x="611" 
d="M168 660l142 -278h4l130 278h159l-220 -399v-261h-149v261l-227 399h161z" />
    <glyph glyph-name="Z" unicode="Z" horiz-adv-x="577" 
d="M58 660h498v-16l-314 -530h305v-114h-530v15l317 530h-276v115z" />
    <glyph glyph-name="bracketleft" unicode="[" horiz-adv-x="289" 
d="M257 -128h-194v855h194v-84h-80v-692h80v-79z" />
    <glyph glyph-name="backslash" unicode="\" horiz-adv-x="343" 
d="M81 683l284 -773h-98l-283 773h97z" />
    <glyph glyph-name="bracketright" unicode="]" horiz-adv-x="289" 
d="M36 727h193v-855h-193v79h79v692h-79v84z" />
    <glyph glyph-name="asciicircum" unicode="^" horiz-adv-x="505" 
d="M260 650l218 -330h-102l-126 197l-128 -197h-101l218 330h21z" />
    <glyph glyph-name="underscore" unicode="_" horiz-adv-x="496" 
d="M493 -139h-491v70h491v-70z" />
    <glyph glyph-name="grave" unicode="`" horiz-adv-x="507" 
d="M209 695l118 -179h-77l-138 136z" />
    <glyph glyph-name="a" unicode="a" horiz-adv-x="520" 
d="M350 0l-10 52h-3c-35 -42 -88 -63 -157 -63c-97 0 -147 56 -147 127c0 91 69 156 208 156h87v9c0 54 -34 81 -102 81c-45 0 -91 -13 -138 -38v101c50 23 107 34 171 34c135 0 203 -64 203 -192v-267h-112zM163 136c0 -35 29 -55 70 -55c60 0 95 43 95 98v17h-70
c-63 0 -95 -20 -95 -60z" />
    <glyph glyph-name="b" unicode="b" horiz-adv-x="583" 
d="M181 711v-308h3c33 37 80 55 140 55c67 0 121 -22 162 -65s62 -100 62 -169c0 -68 -21 -124 -64 -169c-43 -44 -99 -66 -169 -66c-56 0 -120 20 -153 64h-4l-14 -53h-94v711h131zM188 223c0 -77 44 -127 113 -127s117 54 117 127c0 71 -47 127 -116 127
c-71 0 -114 -56 -114 -127z" />
    <glyph glyph-name="c" unicode="c" horiz-adv-x="440" 
d="M280 459c45 0 84 -7 117 -20v-110c-27 16 -59 24 -95 24c-76 0 -131 -50 -131 -131c0 -79 49 -127 128 -127c41 0 79 10 114 31v-107c-37 -20 -85 -30 -146 -30c-73 0 -130 21 -171 64s-61 98 -61 165c0 71 23 129 68 174c46 45 105 67 177 67z" />
    <glyph glyph-name="d" unicode="d" horiz-adv-x="585" 
d="M280 351c-68 0 -114 -56 -114 -129c0 -76 44 -126 116 -126c67 0 116 56 116 128s-45 127 -118 127zM397 412l5 3v147c1 66 1 115 1 148h130v-355c1 -157 1 -276 1 -355h-102l-18 52c-37 -43 -102 -63 -159 -63c-69 0 -123 21 -162 62c-39 42 -59 97 -59 165
c0 71 21 129 64 174s97 68 163 68c56 0 101 -15 136 -46z" />
    <glyph glyph-name="e" unicode="e" horiz-adv-x="522" 
d="M265 460c137 0 221 -90 221 -233v-30h-317c7 -70 52 -105 134 -105c55 0 108 17 161 52v-107c-49 -32 -108 -48 -175 -48c-82 0 -145 22 -189 66c-43 44 -65 101 -65 170c0 67 21 122 64 167s98 68 166 68zM270 363c-48 0 -85 -33 -97 -82h189c-12 55 -43 82 -92 82z" />
    <glyph glyph-name="f" unicode="f" horiz-adv-x="348" 
d="M378 713v-104c-25 9 -50 14 -74 14c-61 0 -91 -35 -91 -106v-71h127v-101h-127v-345h-134v345h-74v87l74 14v74c0 132 71 207 203 207c32 0 64 -5 96 -14z" />
    <glyph glyph-name="g" unicode="g" horiz-adv-x="519" 
d="M33 -95c0 49 23 88 69 118l-27 5c-36 7 -55 28 -55 53v6l83 83c-31 27 -46 65 -46 115s19 91 56 124s84 50 140 50c24 0 52 -5 84 -14h159v-62c-16 -2 -39 -6 -70 -11c20 -28 30 -58 30 -89c0 -45 -17 -83 -52 -114s-81 -47 -139 -47c-35 0 -65 6 -92 17l-23 -38l217 -24
c87 -11 124 -46 124 -119c0 -35 -18 -75 -55 -114c-37 -40 -108 -69 -196 -69c-71 0 -124 13 -157 39s-50 56 -50 91zM241 -123c37 0 65 9 85 26s30 37 30 58s-17 34 -50 37l-129 14c-19 -21 -29 -43 -29 -66c0 -39 33 -69 93 -69zM339 291c0 47 -35 82 -80 82
c-47 0 -79 -37 -79 -82c0 -51 30 -84 79 -84s80 36 80 84z" />
    <glyph glyph-name="h" unicode="h" horiz-adv-x="552" 
d="M494 283v-283h-135v256c0 56 -27 94 -75 94c-56 0 -97 -41 -97 -121v-229h-136v711h131v-319h1c1 -1 1 -1 2 -1c35 43 83 64 144 64c105 0 165 -64 165 -172z" />
    <glyph glyph-name="i" unicode="i" horiz-adv-x="264" 
d="M200 446v-446h-137v446h137zM134 519c-44 0 -75 34 -75 75s36 74 75 74c43 0 74 -33 74 -74s-31 -75 -74 -75z" />
    <glyph glyph-name="j" unicode="j" horiz-adv-x="255" 
d="M202 594c0 -41 -31 -75 -74 -75c-44 0 -75 33 -75 74s35 74 75 74c43 0 74 -33 74 -73zM-21 -224c-5 13 -12 31 -22 54c-11 23 -18 40 -22 51c96 7 125 46 125 145v419h135v-428c0 -163 -87 -233 -216 -241z" />
    <glyph glyph-name="k" unicode="k" horiz-adv-x="528" 
d="M361 445h148l-185 -212l198 -233h-154l-177 217v-217h-139v711h139v-466z" />
    <glyph glyph-name="l" unicode="l" horiz-adv-x="250" 
d="M194 711v-711h-136v711h136z" />
    <glyph glyph-name="m" unicode="m" horiz-adv-x="833" 
d="M163 445l17 -54l4 -3c37 47 85 70 145 70c67 0 113 -29 137 -86c35 58 84 87 147 87c117 0 162 -66 162 -201v-258h-135v262c0 52 -25 88 -70 88c-49 0 -86 -36 -86 -121v-229h-135v258c0 57 -25 92 -70 92c-51 0 -87 -41 -87 -118v-232h-135v445h106z" />
    <glyph glyph-name="n" unicode="n" horiz-adv-x="557" 
d="M499 283v-283h-135v255c0 55 -29 95 -74 95c-57 0 -98 -41 -98 -121v-229h-135v445h105c3 -8 6 -20 9 -35s5 -24 6 -26h4c39 48 92 72 159 72c103 0 159 -65 159 -173z" />
    <glyph glyph-name="o" unicode="o" horiz-adv-x="568" 
d="M285 459c75 0 135 -22 180 -67c45 -44 68 -100 68 -168s-23 -124 -69 -168s-106 -66 -179 -66c-77 0 -138 22 -183 65c-45 44 -67 100 -67 169c0 67 23 123 70 168s107 67 180 67zM286 351c-69 0 -116 -54 -116 -125c0 -76 44 -128 116 -128s117 55 117 128
c0 71 -46 125 -117 125z" />
    <glyph glyph-name="p" unicode="p" horiz-adv-x="590" 
d="M308 96c71 0 114 55 114 128c0 76 -43 126 -115 126c-67 0 -116 -56 -116 -128s45 -126 117 -126zM186 37l-2 -1v-252h-133v662h105l16 -60h4c35 47 95 72 154 72c141 0 225 -93 225 -230c0 -70 -21 -127 -64 -171c-42 -44 -96 -66 -163 -66c-59 0 -106 16 -140 47z" />
    <glyph glyph-name="q" unicode="q" horiz-adv-x="586" 
d="M403 -216v260h-1l-2 1c-35 -37 -82 -55 -143 -55c-68 0 -122 21 -163 63c-40 42 -60 98 -60 167s21 126 64 171s99 68 169 68c64 0 115 -22 154 -65h4l14 52h95v-662h-131zM395 223c0 39 -10 69 -31 92s-48 35 -83 35s-63 -12 -84 -36s-32 -54 -32 -91
c0 -73 46 -127 115 -127c71 0 115 56 115 127z" />
    <glyph glyph-name="r" unicode="r" horiz-adv-x="378" 
d="M157 445l17 -71h5c27 53 77 83 133 83c21 0 41 -3 58 -10v-123c-22 10 -45 15 -68 15c-65 0 -110 -54 -110 -142v-197h-135v445h100z" />
    <glyph glyph-name="s" unicode="s" horiz-adv-x="399" 
d="M22 28v114c44 -33 109 -55 153 -55s66 12 66 36c0 65 -208 70 -208 204c0 80 68 131 168 131c49 0 98 -10 147 -31v-107c-44 25 -86 37 -127 37c-37 0 -56 -11 -56 -33c-1 -50 207 -54 206 -198c0 -77 -64 -136 -181 -136c-66 0 -122 13 -168 38z" />
    <glyph glyph-name="t" unicode="t" horiz-adv-x="369" 
d="M101 447l97 144h22v-146h119v-100h-119v-177c0 -48 17 -69 58 -69c23 0 49 8 76 24v-103c-33 -21 -72 -31 -117 -31c-101 0 -151 52 -151 156v200h-69v75z" />
    <glyph glyph-name="u" unicode="u" horiz-adv-x="549" 
d="M57 169v277h135v-258c0 -52 28 -92 73 -92c56 0 91 41 91 122v227h135v-445h-108l-16 61h-4c-35 -45 -83 -68 -143 -68c-109 0 -163 59 -163 176z" />
    <glyph glyph-name="v" unicode="v" horiz-adv-x="524" 
d="M513 445l-240 -453h-24l-240 453h146l49 -98l57 -122h4c3 8 19 42 46 101l54 119h148z" />
    <glyph glyph-name="w" unicode="w" horiz-adv-x="753" 
d="M245 234l121 220h20l128 -220h4l96 211h136l-209 -453h-23l-142 256l-138 -256h-24l-210 453h139l98 -211h4z" />
    <glyph glyph-name="x" unicode="x" horiz-adv-x="514" 
d="M367 0l-110 209l-110 -209h-139l129 229l-122 216h138l104 -196l104 196h138l-122 -216l129 -229h-139z" />
    <glyph glyph-name="y" unicode="y" horiz-adv-x="492" 
d="M140 446l101 -284h6l104 284h134l-283 -662h-131l109 244l-177 418h137z" />
    <glyph glyph-name="z" unicode="z" horiz-adv-x="441" 
d="M43 445h380v-12l-222 -333h212v-100h-401v12l222 332h-191v101z" />
    <glyph glyph-name="braceleft" unicode="{" horiz-adv-x="349" 
d="M165 325v-5c45 -15 67 -58 67 -130v-170c0 -44 12 -68 52 -68h27v-81h-67c-55 0 -91 21 -107 58s-19 66 -19 113v152c0 69 -21 108 -64 117v17c43 10 64 45 64 105v117c0 35 1 58 10 93c15 48 44 85 113 85h70v-83h-23c-44 0 -56 -26 -56 -70v-145
c0 -59 -22 -94 -67 -105z" />
    <glyph glyph-name="bar" unicode="|" horiz-adv-x="330" 
d="M215 -144h-100v888h100v-888z" />
    <glyph glyph-name="braceright" unicode="}" horiz-adv-x="349" 
d="M188 320v5c-45 12 -68 47 -68 105v145c0 44 -11 70 -55 70h-24v83h70c83 0 124 -51 124 -153v-141c0 -59 21 -94 64 -104v-18c-43 -9 -64 -49 -64 -118v-159c0 -45 -4 -75 -20 -110s-53 -54 -106 -54h-68v81h28c40 0 51 24 51 68v170c0 71 23 115 68 130z" />
    <glyph glyph-name="asciitilde" unicode="~" horiz-adv-x="546" 
d="M383 228c-28 0 -66 9 -114 26s-80 26 -97 26c-31 0 -58 -18 -79 -55l-68 44c31 73 77 110 139 110c23 0 58 -9 105 -27s80 -27 99 -27c35 0 63 21 85 64l68 -47c-29 -76 -75 -114 -138 -114z" />
    <glyph glyph-name="uni00A0" unicode="&#xa0;" horiz-adv-x="240" 
 />
    <glyph glyph-name="exclamdown" unicode="&#xa1;" horiz-adv-x="317" 
d="M89 -243l15 503h110l13 -503h-138zM230 389c0 -40 -32 -72 -71 -72c-40 0 -73 32 -73 72c0 39 33 70 73 70c39 0 71 -33 71 -70z" />
    <glyph glyph-name="cent" unicode="&#xa2;" horiz-adv-x="556" 
d="M357 -31h-79v111c-121 16 -189 105 -189 226c0 61 17 112 52 154c35 43 80 70 137 81v112h79v-107c33 -2 65 -9 94 -20v-109c-28 15 -62 23 -101 23c-76 0 -130 -50 -130 -131c0 -77 49 -126 128 -126c45 0 85 10 119 30v-106c-27 -15 -63 -24 -110 -29v-109z" />
    <glyph glyph-name="sterling" unicode="&#xa3;" horiz-adv-x="572" 
d="M503 641v-112c-43 19 -81 28 -114 28c-64 0 -107 -34 -107 -114l-1 -66h152v-81h-155c-3 -89 -18 -154 -47 -195h284v-101h-459v15c53 67 82 160 87 281h-66v81h68l2 71c5 168 120 222 218 222c49 0 95 -10 138 -29z" />
    <glyph glyph-name="currency" unicode="&#xa4;" horiz-adv-x="572" 
d="M85 289c0 35 10 70 30 105l-57 58l64 64l56 -58c33 21 69 31 106 31c39 0 74 -11 107 -32l56 57l64 -63l-27 -28l-30 -30c19 -32 29 -67 29 -104c0 -36 -10 -71 -30 -104l59 -56l-65 -65l-57 56c-68 -40 -144 -40 -212 0l-55 -56l-64 65l56 55c-20 30 -30 65 -30 105z
M283 179c61 0 111 49 111 110c0 31 -11 57 -32 78c-21 22 -48 33 -79 33c-30 0 -56 -11 -78 -33c-21 -21 -32 -47 -32 -78s11 -57 32 -78c22 -21 48 -32 78 -32z" />
    <glyph glyph-name="yen" unicode="&#xa5;" horiz-adv-x="572" 
d="M528 314v-52h-471v52h138l-171 346h157l111 -288h3l109 288h153l-174 -346h145zM57 165v52h471v-52h-165v-165h-148v165h-158z" />
    <glyph glyph-name="brokenbar" unicode="&#xa6;" horiz-adv-x="329" 
d="M215 745v-360h-99v360h99zM116 -145v408h99v-408h-99z" />
    <glyph glyph-name="section" unicode="&#xa7;" horiz-adv-x="577" 
d="M508 306c0 -47 -28 -96 -76 -120c42 -29 63 -65 63 -108c0 -50 -21 -89 -63 -117c-42 -29 -94 -43 -156 -43c-75 0 -137 14 -188 41v114c21 -16 50 -30 85 -42c35 -11 67 -17 94 -17c52 0 94 18 94 58c0 37 -45 67 -101 91c-81 33 -188 80 -186 181c0 50 24 88 73 114
c-32 30 -48 64 -48 101c0 92 75 154 207 154c53 0 105 -10 156 -31v-103c-47 23 -96 34 -147 34c-52 0 -92 -17 -92 -50c0 -32 28 -50 76 -71c60 -21 95 -36 140 -67c45 -29 69 -70 69 -119zM385 300c0 23 -16 43 -35 57c-11 9 -39 24 -51 29l-30 13l-28 13
c-31 -16 -46 -36 -46 -61c0 -23 7 -40 30 -56l30 -19c9 -5 23 -11 42 -20s33 -15 42 -20c31 19 46 41 46 64z" />
    <glyph glyph-name="dieresis" unicode="&#xa8;" horiz-adv-x="532" 
d="M174 536c-37 0 -63 28 -63 63c0 36 30 62 63 62c36 0 62 -27 62 -62s-26 -63 -62 -63zM360 536c-37 0 -62 28 -62 63c0 36 29 62 62 62c36 0 62 -27 62 -62s-26 -63 -62 -63z" />
    <glyph glyph-name="copyright" unicode="&#xa9;" horiz-adv-x="862" 
d="M430 -29c-108 0 -197 36 -267 108s-105 162 -105 270c0 107 36 197 109 268c73 72 161 108 266 108c102 0 189 -36 261 -109c72 -72 108 -161 108 -267c0 -107 -36 -196 -109 -269c-72 -73 -160 -109 -263 -109zM432 657c-85 0 -157 -30 -215 -90s-87 -133 -87 -218
c0 -86 28 -159 85 -220c57 -60 129 -90 215 -90c85 0 156 30 213 90c57 61 85 134 85 220c0 85 -29 157 -86 217c-57 61 -127 91 -210 91zM574 222l1 -84c-33 -17 -75 -25 -126 -25c-75 0 -134 21 -176 63c-41 43 -62 98 -62 166c0 66 22 122 66 167c45 45 103 68 175 68
c42 0 79 -6 110 -18v-84c-29 13 -61 20 -96 20c-87 0 -152 -56 -152 -153c0 -91 61 -148 148 -148c41 0 79 9 112 28z" />
    <glyph glyph-name="ordfeminine" unicode="&#xaa;" horiz-adv-x="362" 
d="M326 298h-77l-11 35c-24 -28 -60 -42 -109 -42c-69 0 -107 40 -107 89c0 65 61 97 152 97h50v10c0 29 -21 43 -62 43c-33 0 -67 -9 -102 -26v76c37 15 78 23 122 23c96 0 144 -43 144 -129v-176zM225 417v13h-37c-39 0 -68 -13 -68 -41c0 -21 16 -32 49 -32
c35 0 56 25 56 60z" />
    <glyph glyph-name="guillemotleft" unicode="&#xab;" horiz-adv-x="488" 
d="M285 399l-135 -190l135 -196h-124l-128 188v10l129 188h123zM465 399l-135 -190l135 -196h-124l-128 188v10l130 188h122z" />
    <glyph glyph-name="logicalnot" unicode="&#xac;" horiz-adv-x="572" 
d="M81 333h409v-247h-85v166h-324v81z" />
    <glyph glyph-name="sfthyphen" unicode="&#xad;" horiz-adv-x="374" 
d="M320 201h-267v89h267v-89z" />
    <glyph glyph-name="registered" unicode="&#xae;" horiz-adv-x="599" 
d="M359 422l72 -106h-75l-72 121v9c43 5 65 21 65 50c0 27 -19 42 -48 42h-35v-222h-67v275h113c57 0 105 -34 105 -91c0 -35 -19 -61 -58 -78zM300 198c-74 0 -134 24 -179 71s-67 107 -67 180c0 70 24 129 71 177c48 48 106 72 175 72s128 -24 175 -72
c48 -47 72 -106 72 -177s-24 -130 -72 -179c-48 -48 -106 -72 -175 -72zM496 449c0 55 -19 103 -56 142s-84 59 -140 59c-55 0 -102 -20 -140 -59s-57 -87 -57 -142c0 -57 18 -106 55 -145s84 -58 142 -58c56 0 103 20 140 59s56 87 56 144z" />
    <glyph glyph-name="overscore" unicode="&#xaf;" horiz-adv-x="527" 
d="M415 544h-309v84h309v-84z" />
    <glyph glyph-name="degree" unicode="&#xb0;" horiz-adv-x="382" 
d="M192 417c-76 0 -124 52 -124 121c0 34 12 63 36 86c25 24 54 36 88 36c35 0 64 -12 88 -36c24 -23 36 -52 36 -86c0 -33 -12 -62 -36 -86c-24 -23 -53 -35 -88 -35zM192 604c-36 0 -65 -30 -65 -66c0 -37 26 -67 65 -67s67 30 67 67c0 36 -28 66 -67 66z" />
    <glyph glyph-name="plusminus" unicode="&#xb1;" horiz-adv-x="572" 
d="M80 0v80h409v-80h-409zM489 273h-162v-150h-84v150h-163v81h163v148h84v-148h162v-81z" />
    <glyph glyph-name="twosuperior" unicode="&#xb2;" horiz-adv-x="366" 
d="M122 625l-86 15c-3 9 -4 19 -4 32c0 33 15 61 44 82c29 22 64 33 104 33c84 0 148 -43 148 -116c0 -49 -40 -89 -81 -112s-92 -60 -108 -99h191v-71h-305c-1 4 -6 13 -7 16c1 48 16 86 45 117s48 45 89 70c17 11 30 18 37 23c15 9 39 34 39 54c0 28 -21 42 -52 42
c-32 0 -59 -24 -59 -57c0 -6 2 -16 5 -29z" />
    <glyph glyph-name="threesuperior" unicode="&#xb3;" horiz-adv-x="366" 
d="M113 584l-11 13l92 112h-154v73h294v-15l-110 -130c68 -11 109 -57 109 -118c0 -77 -70 -133 -167 -133c-54 0 -100 11 -137 32v89c39 -31 81 -46 126 -46c51 0 81 27 81 63c0 41 -33 65 -81 65c-13 0 -27 -2 -42 -5z" />
    <glyph glyph-name="acute" unicode="&#xb4;" horiz-adv-x="507" 
d="M408 652l-138 -136h-77l119 179z" />
    <glyph glyph-name="mu" unicode="&#xb5;" horiz-adv-x="549" 
d="M57 -216v661h135v-264c0 -44 30 -85 71 -85c56 0 92 42 92 118v231h136v-445h-109l-15 61h-5c-31 -39 -75 -59 -131 -59c-17 0 -30 3 -39 10v-228h-135z" />
    <glyph glyph-name="mu" unicode="&#x3bc;" horiz-adv-x="549" 
d="M57 -216v661h135v-264c0 -44 30 -85 71 -85c56 0 92 42 92 118v231h136v-445h-109l-15 61h-5c-31 -39 -75 -59 -131 -59c-17 0 -30 3 -39 10v-228h-135z" />
    <glyph glyph-name="paragraph" unicode="&#xb6;" horiz-adv-x="573" 
d="M338 679v-410h-79c-60 0 -110 20 -150 59c-39 40 -59 89 -59 147c0 57 20 105 60 144c40 40 90 60 149 60h79zM301 -194c-6 13 -20 48 -43 103c95 5 125 45 125 144v626h129v-635c0 -160 -84 -230 -211 -238z" />
    <glyph glyph-name="middot" unicode="&#xb7;" horiz-adv-x="257" 
d="M197 251c0 -39 -32 -71 -71 -71s-72 32 -72 71c0 40 32 71 72 71c39 0 71 -31 71 -71z" />
    <glyph glyph-name="cedilla" unicode="&#xb8;" horiz-adv-x="438" 
d="M349 -141c0 -53 -45 -102 -134 -102c-29 0 -58 5 -87 16v62c27 -12 54 -18 81 -18c33 0 57 17 57 42c0 24 -24 37 -53 37c-11 0 -23 -2 -35 -7c-3 1 -15 11 -19 15l69 133c25 -6 41 -10 49 -13l-42 -75c76 -4 114 -42 114 -90z" />
    <glyph glyph-name="onesuperior" unicode="&#xb9;" horiz-adv-x="338" 
d="M225 785h16v-396h-99v272c-9 -5 -25 -12 -46 -21s-37 -17 -48 -22v85z" />
    <glyph glyph-name="ordmasculine" unicode="&#xba;" horiz-adv-x="388" 
d="M194 605c51 0 93 -15 124 -45c32 -29 48 -67 48 -112s-16 -82 -48 -111s-73 -44 -124 -44c-107 0 -174 64 -174 155c0 45 16 82 49 112s74 45 125 45zM194 525c-41 0 -70 -34 -70 -75c0 -47 25 -78 70 -78c44 0 72 33 72 78c0 43 -28 75 -72 75z" />
    <glyph glyph-name="guillemotright" unicode="&#xbb;" horiz-adv-x="488" 
d="M152 13h-124l135 196l-135 190h122l130 -188v-10zM332 13h-124l135 196l-135 190h123l129 -188v-10z" />
    <glyph glyph-name="onequarter" unicode="&#xbc;" horiz-adv-x="823" 
d="M418 98l180 290h95l-151 -236h82v34l48 75h48v-109h45v-71h-45v-81h-95v81h-207v17zM597 684h84l-477 -711h-84zM244 695h16v-396h-99v272c-9 -5 -25 -12 -46 -21s-37 -17 -48 -22v85z" />
    <glyph glyph-name="onehalf" unicode="&#xbd;" horiz-adv-x="823" 
d="M568 234l-86 15c-3 9 -4 19 -4 32c0 33 15 61 44 82c29 22 64 33 104 33c84 0 148 -43 148 -116c0 -49 -40 -89 -81 -112s-92 -60 -108 -99h191v-71h-305c-1 4 -6 13 -7 16c1 48 16 86 45 117s48 45 89 70c17 11 30 18 37 23c15 9 39 34 39 54c0 28 -21 42 -52 42
c-32 0 -59 -24 -59 -57c0 -6 2 -16 5 -29zM572 684h84l-477 -711h-84zM225 695h16v-396h-99v272c-9 -5 -25 -12 -46 -21s-37 -17 -48 -22v85z" />
    <glyph glyph-name="threequarters" unicode="&#xbe;" horiz-adv-x="823" 
d="M439 98l180 290h95l-151 -236h82v34l48 75h48v-109h45v-71h-45v-81h-95v81h-207v17zM144 491l-11 13l92 112h-154v73h294v-15l-110 -130c68 -11 109 -57 109 -118c0 -77 -70 -133 -167 -133c-54 0 -100 11 -137 32v89c39 -31 81 -46 126 -46c51 0 81 27 81 63
c0 41 -33 65 -81 65c-13 0 -27 -2 -42 -5zM631 684h84l-477 -711h-84z" />
    <glyph glyph-name="questiondown" unicode="&#xbf;" horiz-adv-x="522" 
d="M208 -49c0 -49 41 -84 105 -84c53 0 106 15 161 46v-121c-60 -25 -121 -38 -182 -38c-72 0 -128 17 -169 52c-41 34 -61 78 -61 131c0 142 205 212 205 292c0 10 -3 20 -9 30l109 20c12 -24 18 -45 18 -64c0 -113 -177 -165 -177 -264zM233 389c0 39 31 70 70 70
c44 0 72 -30 72 -70s-31 -71 -72 -71c-40 0 -70 31 -70 71z" />
    <glyph glyph-name="Agrave" unicode="&#xc0;" horiz-adv-x="662" 
d="M653 0h-151l-45 104h-253l-46 -104h-148l313 672h22zM334 389h-4l-81 -183h164zM245 890l133 -172h-85l-150 128z" />
    <glyph glyph-name="Aacute" unicode="&#xc1;" horiz-adv-x="662" 
d="M653 0h-151l-45 104h-253l-46 -104h-148l313 672h22zM334 389h-4l-81 -183h164zM515 846l-150 -128h-86l133 172z" />
    <glyph glyph-name="Acircumflex" unicode="&#xc2;" horiz-adv-x="662" 
d="M653 0h-151l-45 104h-253l-46 -104h-148l313 672h22zM334 389h-4l-81 -183h164zM349 880l159 -165h-109l-63 69l-68 -69h-105l165 165h21z" />
    <glyph glyph-name="Atilde" unicode="&#xc3;" horiz-adv-x="662" 
d="M653 0h-151l-45 104h-253l-46 -104h-148l313 672h22zM334 389h-4l-81 -183h164zM454 875l37 -55c-21 -55 -51 -83 -91 -83c-17 0 -41 8 -71 25s-51 25 -62 25c-20 0 -39 -18 -56 -55l-41 55c19 47 54 84 95 84c16 0 39 -9 68 -26c30 -17 51 -26 64 -26c19 0 38 19 57 56z
" />
    <glyph glyph-name="Adieresis" unicode="&#xc4;" horiz-adv-x="662" 
d="M653 0h-151l-45 104h-253l-46 -104h-148l313 672h22zM334 389h-4l-81 -183h164zM303 794c0 -36 -27 -64 -63 -64c-37 0 -63 27 -63 62c0 37 30 64 63 64c36 0 63 -29 63 -62zM489 794c0 -36 -26 -64 -62 -64c-37 0 -62 27 -62 62c0 37 29 64 62 64c36 0 62 -29 62 -62z
" />
    <glyph glyph-name="Aring" unicode="&#xc5;" horiz-adv-x="662" 
d="M653 0h-151l-45 104h-253l-46 -104h-148l309 663c-60 5 -102 51 -102 110c0 65 51 117 116 117c68 0 119 -52 119 -117c0 -57 -43 -103 -103 -110zM334 389h-4l-81 -183h164zM333 825c-25 0 -46 -24 -46 -52c0 -25 19 -46 46 -46c28 0 48 21 48 46c0 29 -20 52 -48 52z
" />
    <glyph glyph-name="AE" unicode="&#xc6;" horiz-adv-x="945" 
d="M910 115v-115h-454v113h-219l-87 -113h-158l508 660h391v-115h-298v-146h266v-111h-266v-173h317zM459 410h-4l-161 -209h165v209z" />
    <glyph glyph-name="Ccedilla" unicode="&#xc7;" horiz-adv-x="622" 
d="M479 -151c0 -53 -45 -102 -134 -102c-29 0 -58 5 -87 16v62c27 -12 54 -18 81 -18c33 0 57 17 57 42c0 24 -24 37 -53 37c-12 0 -24 -2 -35 -7c-3 1 -15 11 -19 15l50 98c-93 11 -166 47 -217 108s-77 137 -77 227c0 97 33 179 98 246c66 67 152 100 259 100
c68 0 124 -9 167 -27v-125c-46 21 -95 31 -146 31c-64 0 -118 -20 -162 -60c-43 -39 -65 -94 -65 -165c0 -136 84 -218 219 -218c59 0 117 15 174 44l1 -126c-53 -26 -117 -39 -192 -39h-6l-27 -49c76 -4 114 -42 114 -90z" />
    <glyph glyph-name="Egrave" unicode="&#xc8;" horiz-adv-x="569" 
d="M216 115h317v-115h-466v660h447v-115h-298v-146h267v-111h-267v-173zM248 890l133 -172h-85l-150 128z" />
    <glyph glyph-name="Eacute" unicode="&#xc9;" horiz-adv-x="569" 
d="M216 115h317v-115h-466v660h447v-115h-298v-146h267v-111h-267v-173zM448 846l-150 -128h-86l133 172z" />
    <glyph glyph-name="Ecircumflex" unicode="&#xca;" horiz-adv-x="569" 
d="M216 115h317v-115h-466v660h447v-115h-298v-146h267v-111h-267v-173zM307 882l159 -165h-109l-63 69l-68 -69h-105l165 165h21z" />
    <glyph glyph-name="Edieresis" unicode="&#xcb;" horiz-adv-x="569" 
d="M258 794c0 -36 -27 -64 -63 -64c-37 0 -63 27 -63 62c0 37 30 64 63 64c36 0 63 -29 63 -62zM444 794c0 -36 -26 -64 -62 -64c-37 0 -62 27 -62 62c0 37 29 64 62 64c36 0 62 -29 62 -62zM216 115h317v-115h-466v660h447v-115h-298v-146h267v-111h-267v-173z" />
    <glyph glyph-name="Igrave" unicode="&#xcc;" horiz-adv-x="295" 
d="M221 660v-660h-149v660h149zM80 890l133 -172h-85l-150 128z" />
    <glyph glyph-name="Iacute" unicode="&#xcd;" horiz-adv-x="295" 
d="M221 660v-660h-149v660h149zM327 846l-150 -128h-86l133 172z" />
    <glyph glyph-name="Icircumflex" unicode="&#xce;" horiz-adv-x="295" 
d="M162 882l159 -165h-109l-63 69l-68 -69h-105l165 165h21zM221 660v-660h-149v660h149z" />
    <glyph glyph-name="Idieresis" unicode="&#xcf;" horiz-adv-x="295" 
d="M221 660v-660h-149v660h149zM118 794c0 -36 -27 -64 -63 -64c-37 0 -63 27 -63 62c0 37 30 64 63 64c36 0 63 -29 63 -62zM304 794c0 -36 -26 -64 -62 -64c-37 0 -62 27 -62 62c0 37 29 64 62 64c36 0 62 -29 62 -62z" />
    <glyph glyph-name="Eth" unicode="&#xd0;" horiz-adv-x="697" 
d="M323 0h-256v299h-54v76h54v285h242c109 0 193 -31 252 -92c60 -61 90 -139 90 -236c0 -96 -29 -175 -86 -238s-138 -94 -242 -94zM505 332c0 142 -73 213 -220 213h-70v-170h147v-76h-147v-184h72c148 0 218 70 218 217z" />
    <glyph glyph-name="Ntilde" unicode="&#xd1;" horiz-adv-x="721" 
d="M215 381v-381h-148v673h22c47 -46 116 -110 207 -193c91 -82 160 -145 205 -189h4v369h148v-671h-21l-414 392h-3zM483 870l37 -55c-21 -55 -51 -83 -91 -83c-17 0 -41 8 -71 25s-51 25 -62 25c-20 0 -39 -18 -56 -55l-41 55c19 47 54 84 95 84c16 0 39 -9 68 -26
c30 -17 51 -26 64 -26c19 0 38 19 57 56z" />
    <glyph glyph-name="Ograve" unicode="&#xd2;" horiz-adv-x="799" 
d="M399 -11c-108 0 -194 32 -259 96c-64 65 -96 146 -96 245c0 96 34 177 101 243c68 66 153 99 255 99c103 0 188 -33 254 -99c66 -65 99 -146 99 -243s-33 -179 -100 -244c-66 -65 -151 -97 -254 -97zM401 549c-61 0 -110 -21 -149 -63s-58 -94 -58 -156
c0 -64 19 -117 56 -159c38 -42 88 -63 151 -63c61 0 111 21 148 64c38 43 57 95 57 158c0 62 -19 114 -57 156c-37 42 -87 63 -148 63zM334 890l133 -172h-85l-150 128z" />
    <glyph glyph-name="Oacute" unicode="&#xd3;" horiz-adv-x="799" 
d="M399 -11c-108 0 -194 32 -259 96c-64 65 -96 146 -96 245c0 96 34 177 101 243c68 66 153 99 255 99c103 0 188 -33 254 -99c66 -65 99 -146 99 -243s-33 -179 -100 -244c-66 -65 -151 -97 -254 -97zM401 549c-61 0 -110 -21 -149 -63s-58 -94 -58 -156
c0 -64 19 -117 56 -159c38 -42 88 -63 151 -63c61 0 111 21 148 64c38 43 57 95 57 158c0 62 -19 114 -57 156c-37 42 -87 63 -148 63zM583 846l-150 -128h-86l133 172z" />
    <glyph glyph-name="Ocircumflex" unicode="&#xd4;" horiz-adv-x="799" 
d="M399 -11c-108 0 -194 32 -259 96c-64 65 -96 146 -96 245c0 96 34 177 101 243c68 66 153 99 255 99c103 0 188 -33 254 -99c66 -65 99 -146 99 -243s-33 -179 -100 -244c-66 -65 -151 -97 -254 -97zM401 549c-61 0 -110 -21 -149 -63s-58 -94 -58 -156
c0 -64 19 -117 56 -159c38 -42 88 -63 151 -63c61 0 111 21 148 64c38 43 57 95 57 158c0 62 -19 114 -57 156c-37 42 -87 63 -148 63zM423 882l159 -165h-109l-63 69l-68 -69h-105l165 165h21z" />
    <glyph glyph-name="Otilde" unicode="&#xd5;" horiz-adv-x="799" 
d="M399 -11c-108 0 -194 32 -259 96c-64 65 -96 146 -96 245c0 96 34 177 101 243c68 66 153 99 255 99c103 0 188 -33 254 -99c66 -65 99 -146 99 -243s-33 -179 -100 -244c-66 -65 -151 -97 -254 -97zM401 549c-61 0 -110 -21 -149 -63s-58 -94 -58 -156
c0 -64 19 -117 56 -159c38 -42 88 -63 151 -63c61 0 111 21 148 64c38 43 57 95 57 158c0 62 -19 114 -57 156c-37 42 -87 63 -148 63zM526 875l37 -55c-21 -55 -51 -83 -91 -83c-17 0 -41 8 -71 25s-51 25 -62 25c-20 0 -39 -18 -56 -55l-41 55c19 47 54 84 95 84
c16 0 39 -9 68 -26c30 -17 51 -26 64 -26c19 0 38 19 57 56z" />
    <glyph glyph-name="Odieresis" unicode="&#xd6;" horiz-adv-x="799" 
d="M399 -11c-108 0 -194 32 -259 96c-64 65 -96 146 -96 245c0 96 34 177 101 243c68 66 153 99 255 99c103 0 188 -33 254 -99c66 -65 99 -146 99 -243s-33 -179 -100 -244c-66 -65 -151 -97 -254 -97zM401 549c-61 0 -110 -21 -149 -63s-58 -94 -58 -156
c0 -64 19 -117 56 -159c38 -42 88 -63 151 -63c61 0 111 21 148 64c38 43 57 95 57 158c0 62 -19 114 -57 156c-37 42 -87 63 -148 63zM367 794c0 -36 -27 -64 -63 -64c-37 0 -63 27 -63 62c0 37 30 64 63 64c36 0 63 -29 63 -62zM553 794c0 -36 -26 -64 -62 -64
c-37 0 -62 27 -62 62c0 37 29 64 62 64c36 0 62 -29 62 -62z" />
    <glyph glyph-name="multiply" unicode="&#xd7;" horiz-adv-x="572" 
d="M402 115l-115 116l-118 -118l-58 59l117 117l-115 116l57 57l115 -115l115 115l59 -59l-114 -116l114 -114z" />
    <glyph glyph-name="Oslash" unicode="&#xd8;" horiz-adv-x="799" 
d="M399 -12c-76 0 -142 17 -197 51l-31 -39h-62l53 66c-78 65 -117 153 -117 265c0 96 34 177 101 243c68 66 153 99 254 99c77 0 144 -19 203 -58l36 46h60l-59 -74c75 -66 113 -151 113 -256c0 -97 -33 -179 -100 -245c-66 -65 -151 -98 -254 -98zM191 331
c0 -65 19 -118 56 -159l275 344c-34 25 -74 37 -120 37c-62 0 -113 -21 -152 -64c-39 -42 -59 -95 -59 -158zM402 105c62 0 112 22 150 65c39 43 58 97 58 161c0 58 -18 108 -54 151l-274 -343c35 -23 75 -34 120 -34z" />
    <glyph glyph-name="Ugrave" unicode="&#xd9;" horiz-adv-x="701" 
d="M485 255v405h148v-398c0 -81 -24 -147 -73 -198c-49 -50 -119 -75 -210 -75c-187 0 -283 105 -283 270v401h149v-400c0 -83 47 -149 135 -149c87 0 134 63 134 144zM293 890l133 -172h-85l-150 128z" />
    <glyph glyph-name="Uacute" unicode="&#xda;" horiz-adv-x="701" 
d="M485 255v405h148v-398c0 -81 -24 -147 -73 -198c-49 -50 -119 -75 -210 -75c-187 0 -283 105 -283 270v401h149v-400c0 -83 47 -149 135 -149c87 0 134 63 134 144zM522 846l-150 -128h-86l133 172z" />
    <glyph glyph-name="Ucircumflex" unicode="&#xdb;" horiz-adv-x="701" 
d="M485 255v405h148v-398c0 -81 -24 -147 -73 -198c-49 -50 -119 -75 -210 -75c-187 0 -283 105 -283 270v401h149v-400c0 -83 47 -149 135 -149c87 0 134 63 134 144zM367 880l162 -164h-111l-64 69l-70 -69h-107l169 164h21z" />
    <glyph glyph-name="Udieresis" unicode="&#xdc;" horiz-adv-x="701" 
d="M321 794c0 -36 -27 -64 -63 -64c-37 0 -63 27 -63 62c0 37 30 64 63 64c36 0 63 -29 63 -62zM507 794c0 -36 -26 -64 -62 -64c-37 0 -62 27 -62 62c0 37 29 64 62 64c36 0 62 -29 62 -62zM485 255v405h148v-398c0 -81 -24 -147 -73 -198c-49 -50 -119 -75 -210 -75
c-187 0 -283 105 -283 270v401h149v-400c0 -83 47 -149 135 -149c87 0 134 63 134 144z" />
    <glyph glyph-name="Yacute" unicode="&#xdd;" horiz-adv-x="611" 
d="M168 660l142 -278h4l130 278h159l-220 -399v-261h-149v261l-227 399h161zM480 843l-150 -128h-86l133 172z" />
    <glyph glyph-name="Thorn" unicode="&#xde;" horiz-adv-x="590" 
d="M570 357c0 -53 -20 -103 -59 -148s-97 -67 -174 -67h-121v-142h-148v661h148v-91h116c75 0 133 -21 175 -62s63 -91 63 -151zM423 353c0 56 -35 105 -111 105h-96v-207h96c69 0 111 43 111 102z" />
    <glyph glyph-name="germandbls" unicode="&#xdf;" horiz-adv-x="594" 
d="M193 511v-511h-135v490c0 70 21 127 62 170c41 44 99 66 172 66c65 0 117 -17 156 -51c39 -33 59 -77 59 -130c0 -10 -1 -21 -4 -34c-5 -24 -29 -69 -66 -90v-5c76 -27 121 -104 121 -196c0 -62 -19 -116 -57 -162c-37 -45 -91 -68 -162 -68c-19 0 -44 4 -73 11v104
c16 -4 31 -6 44 -6c75 0 116 57 116 133c0 87 -47 130 -140 130v91c61 1 94 39 94 87c0 25 -9 45 -28 61s-39 24 -60 24c-73 0 -99 -54 -99 -114z" />
    <glyph glyph-name="agrave" unicode="&#xe0;" horiz-adv-x="520" 
d="M350 0l-10 52h-3c-35 -42 -88 -63 -157 -63c-97 0 -147 56 -147 127c0 91 69 156 208 156h87v9c0 54 -34 81 -102 81c-45 0 -91 -13 -138 -38v101c50 23 107 34 171 34c135 0 203 -64 203 -192v-267h-112zM163 136c0 -35 29 -55 70 -55c60 0 95 43 95 98v17h-70
c-63 0 -95 -20 -95 -60zM213 695l118 -179h-77l-138 136z" />
    <glyph glyph-name="aacute" unicode="&#xe1;" horiz-adv-x="520" 
d="M350 0l-10 52h-3c-35 -42 -88 -63 -157 -63c-97 0 -147 56 -147 127c0 91 69 156 208 156h87v9c0 54 -34 81 -102 81c-45 0 -91 -13 -138 -38v101c50 23 107 34 171 34c135 0 203 -64 203 -192v-267h-112zM163 136c0 -35 29 -55 70 -55c60 0 95 43 95 98v17h-70
c-63 0 -95 -20 -95 -60zM412 652l-138 -136h-77l119 179z" />
    <glyph glyph-name="acircumflex" unicode="&#xe2;" horiz-adv-x="520" 
d="M350 0l-10 52h-3c-35 -42 -88 -63 -157 -63c-97 0 -147 56 -147 127c0 91 69 156 208 156h87v9c0 54 -34 81 -102 81c-45 0 -91 -13 -138 -38v101c50 23 107 34 171 34c135 0 203 -64 203 -192v-267h-112zM163 136c0 -35 29 -55 70 -55c60 0 95 43 95 98v17h-70
c-63 0 -95 -20 -95 -60zM281 690l153 -174h-105l-61 74l-66 -74h-100l158 174h21z" />
    <glyph glyph-name="atilde" unicode="&#xe3;" horiz-adv-x="520" 
d="M350 0l-10 52h-3c-35 -42 -88 -63 -157 -63c-97 0 -147 56 -147 127c0 91 69 156 208 156h87v9c0 54 -34 81 -102 81c-45 0 -91 -13 -138 -38v101c50 23 107 34 171 34c135 0 203 -64 203 -192v-267h-112zM163 136c0 -35 29 -55 70 -55c60 0 95 43 95 98v17h-70
c-63 0 -95 -20 -95 -60zM385 666l37 -55c-21 -55 -51 -83 -91 -83c-17 0 -41 8 -71 25s-51 25 -62 25c-20 0 -39 -18 -56 -55l-41 55c19 47 54 84 95 84c16 0 39 -9 68 -26c30 -17 51 -26 64 -26c19 0 38 19 57 56z" />
    <glyph glyph-name="adieresis" unicode="&#xe4;" horiz-adv-x="520" 
d="M350 0l-10 52h-3c-35 -42 -88 -63 -157 -63c-97 0 -147 56 -147 127c0 91 69 156 208 156h87v9c0 54 -34 81 -102 81c-45 0 -91 -13 -138 -38v101c50 23 107 34 171 34c135 0 203 -64 203 -192v-267h-112zM163 136c0 -35 29 -55 70 -55c60 0 95 43 95 98v17h-70
c-63 0 -95 -20 -95 -60zM175 536c-37 0 -63 28 -63 63c0 36 30 62 63 62c36 0 62 -27 62 -62s-26 -63 -62 -63zM361 536c-37 0 -62 28 -62 63c0 36 29 62 62 62c36 0 62 -27 62 -62s-26 -63 -62 -63z" />
    <glyph glyph-name="aring" unicode="&#xe5;" horiz-adv-x="520" 
d="M350 0l-10 52h-3c-35 -42 -88 -63 -157 -63c-97 0 -147 56 -147 127c0 91 69 156 208 156h87v9c0 54 -34 81 -102 81c-45 0 -91 -13 -138 -38v101c50 23 107 34 171 34c135 0 203 -64 203 -192v-267h-112zM163 136c0 -35 29 -55 70 -55c60 0 95 43 95 98v17h-70
c-63 0 -95 -20 -95 -60zM266 509c-68 0 -116 48 -116 111c0 65 51 117 116 117c68 0 119 -52 119 -117c0 -63 -52 -111 -119 -111zM266 672c-25 0 -46 -24 -46 -52c0 -25 19 -46 46 -46c28 0 48 21 48 46c0 29 -20 52 -48 52z" />
    <glyph glyph-name="ae" unicode="&#xe6;" horiz-adv-x="814" 
d="M558 461c139 0 223 -86 223 -229v-31h-318c4 -80 59 -117 135 -117c57 0 111 17 160 50v-97c-49 -32 -107 -48 -175 -48c-92 0 -157 29 -195 88c-42 -60 -106 -90 -193 -90c-107 0 -170 56 -170 129c0 96 77 153 190 154l107 1v10c0 54 -34 81 -102 81
c-46 0 -93 -13 -141 -38v101c51 23 109 35 172 35c73 0 125 -22 155 -66c41 45 92 67 152 67zM157 137c0 -39 28 -60 72 -60c60 0 95 47 95 112v10h-61c-64 0 -106 -13 -106 -62zM564 363c-57 0 -95 -34 -99 -93h194c-5 62 -36 93 -95 93z" />
    <glyph glyph-name="ccedilla" unicode="&#xe7;" horiz-adv-x="440" 
d="M354 -141c0 -53 -45 -102 -134 -102c-29 0 -58 5 -87 16v62c27 -12 54 -18 81 -18c33 0 57 17 57 42c0 24 -24 37 -53 37c-12 0 -24 -2 -35 -7c-3 1 -15 11 -19 15l46 91c-112 20 -175 107 -175 223c0 71 23 129 68 174c46 45 105 67 177 67c45 0 84 -7 117 -20v-110
c-27 16 -59 24 -95 24c-76 0 -131 -50 -131 -131c0 -79 49 -127 128 -127c41 0 79 10 114 31v-107c-37 -20 -85 -30 -146 -30h-5l-22 -40c76 -4 114 -42 114 -90z" />
    <glyph glyph-name="egrave" unicode="&#xe8;" horiz-adv-x="522" 
d="M265 460c137 0 221 -90 221 -233v-30h-317c7 -70 52 -105 134 -105c55 0 108 17 161 52v-107c-49 -32 -108 -48 -175 -48c-82 0 -145 22 -189 66c-43 44 -65 101 -65 170c0 67 21 122 64 167s98 68 166 68zM270 363c-48 0 -85 -33 -97 -82h189c-12 55 -43 82 -92 82z
M220 695l118 -179h-77l-138 136z" />
    <glyph glyph-name="eacute" unicode="&#xe9;" horiz-adv-x="522" 
d="M265 460c137 0 221 -90 221 -233v-30h-317c7 -70 52 -105 134 -105c55 0 108 17 161 52v-107c-49 -32 -108 -48 -175 -48c-82 0 -145 22 -189 66c-43 44 -65 101 -65 170c0 67 21 122 64 167s98 68 166 68zM270 363c-48 0 -85 -33 -97 -82h189c-12 55 -43 82 -92 82z
M412 652l-138 -136h-77l119 179z" />
    <glyph glyph-name="ecircumflex" unicode="&#xea;" horiz-adv-x="522" 
d="M265 460c137 0 221 -90 221 -233v-30h-317c7 -70 52 -105 134 -105c55 0 108 17 161 52v-107c-49 -32 -108 -48 -175 -48c-82 0 -145 22 -189 66c-43 44 -65 101 -65 170c0 67 21 122 64 167s98 68 166 68zM270 363c-48 0 -85 -33 -97 -82h189c-12 55 -43 82 -92 82z
M285 690l153 -174h-105l-61 74l-66 -74h-100l158 174h21z" />
    <glyph glyph-name="edieresis" unicode="&#xeb;" horiz-adv-x="522" 
d="M265 460c137 0 221 -90 221 -233v-30h-317c7 -70 52 -105 134 -105c55 0 108 17 161 52v-107c-49 -32 -108 -48 -175 -48c-82 0 -145 22 -189 66c-43 44 -65 101 -65 170c0 67 21 122 64 167s98 68 166 68zM270 363c-48 0 -85 -33 -97 -82h189c-12 55 -43 82 -92 82z
M176 536c-37 0 -63 28 -63 63c0 36 30 62 63 62c36 0 62 -27 62 -62s-26 -63 -62 -63zM362 536c-37 0 -62 28 -62 63c0 36 29 62 62 62c36 0 62 -27 62 -62s-26 -63 -62 -63z" />
    <glyph glyph-name="igrave" unicode="&#xec;" horiz-adv-x="264" 
d="M200 446v-446h-137v446h137zM72 695l118 -179h-77l-138 136z" />
    <glyph glyph-name="iacute" unicode="&#xed;" horiz-adv-x="264" 
d="M200 446v-446h-137v446h137zM288 652l-138 -136h-77l119 179z" />
    <glyph glyph-name="icircumflex" unicode="&#xee;" horiz-adv-x="264" 
d="M148 690l153 -174h-105l-61 74l-66 -74h-100l158 174h21zM200 446v-446h-137v446h137z" />
    <glyph glyph-name="idieresis" unicode="&#xef;" horiz-adv-x="264" 
d="M43 536c-37 0 -63 28 -63 63c0 36 30 62 63 62c36 0 62 -27 62 -62s-26 -63 -62 -63zM229 536c-37 0 -62 28 -62 63c0 36 29 62 62 62c36 0 62 -27 62 -62s-26 -63 -62 -63zM200 446v-446h-137v446h137z" />
    <glyph glyph-name="eth" unicode="&#xf0;" horiz-adv-x="568" 
d="M203 487v66l47 32c-35 30 -77 59 -125 86l95 54c47 -26 86 -53 119 -80l94 63v-70l-49 -32c96 -96 151 -222 151 -346c0 -130 -69 -270 -250 -270c-78 0 -139 21 -184 64c-44 43 -66 98 -66 166c0 65 22 119 67 164s101 68 169 68c56 0 96 -13 119 -40l4 2
c-12 33 -45 77 -100 132zM285 343c-68 0 -115 -53 -115 -122c0 -73 43 -124 115 -124c71 0 115 56 115 125s-46 121 -115 121z" />
    <glyph glyph-name="ntilde" unicode="&#xf1;" horiz-adv-x="559" 
d="M500 283v-283h-135v255c0 55 -29 95 -74 95c-57 0 -98 -41 -98 -121v-229h-135v445h105c3 -8 6 -20 9 -35s5 -24 6 -26h4c39 48 92 72 159 72c103 0 159 -65 159 -173zM390 667l37 -55c-21 -55 -51 -83 -91 -83c-17 0 -41 8 -71 25s-51 25 -62 25c-20 0 -39 -18 -56 -55
l-41 55c19 47 54 84 95 84c16 0 39 -9 68 -26c30 -17 51 -26 64 -26c19 0 38 19 57 56z" />
    <glyph glyph-name="ograve" unicode="&#xf2;" horiz-adv-x="568" 
d="M285 459c75 0 135 -22 180 -67c45 -44 68 -100 68 -168s-23 -124 -69 -168s-106 -66 -179 -66c-77 0 -138 22 -183 65c-45 44 -67 100 -67 169c0 67 23 123 70 168s107 67 180 67zM286 351c-69 0 -116 -54 -116 -125c0 -76 44 -128 116 -128s117 55 117 128
c0 71 -46 125 -117 125zM229 695l118 -179h-77l-138 136z" />
    <glyph glyph-name="oacute" unicode="&#xf3;" horiz-adv-x="568" 
d="M285 459c75 0 135 -22 180 -67c45 -44 68 -100 68 -168s-23 -124 -69 -168s-106 -66 -179 -66c-77 0 -138 22 -183 65c-45 44 -67 100 -67 169c0 67 23 123 70 168s107 67 180 67zM286 351c-69 0 -116 -54 -116 -125c0 -76 44 -128 116 -128s117 55 117 128
c0 71 -46 125 -117 125zM443 652l-138 -136h-77l119 179z" />
    <glyph glyph-name="ocircumflex" unicode="&#xf4;" horiz-adv-x="568" 
d="M285 459c75 0 135 -22 180 -67c45 -44 68 -100 68 -168s-23 -124 -69 -168s-106 -66 -179 -66c-77 0 -138 22 -183 65c-45 44 -67 100 -67 169c0 67 23 123 70 168s107 67 180 67zM286 351c-69 0 -116 -54 -116 -125c0 -76 44 -128 116 -128s117 55 117 128
c0 71 -46 125 -117 125zM300 690l153 -174h-105l-61 74l-66 -74h-100l158 174h21z" />
    <glyph glyph-name="otilde" unicode="&#xf5;" horiz-adv-x="568" 
d="M285 459c75 0 135 -22 180 -67c45 -44 68 -100 68 -168s-23 -124 -69 -168s-106 -66 -179 -66c-77 0 -138 22 -183 65c-45 44 -67 100 -67 169c0 67 23 123 70 168s107 67 180 67zM286 351c-69 0 -116 -54 -116 -125c0 -76 44 -128 116 -128s117 55 117 128
c0 71 -46 125 -117 125zM408 665l37 -55c-21 -55 -51 -83 -91 -83c-17 0 -41 8 -71 25s-51 25 -62 25c-20 0 -39 -18 -56 -55l-41 55c19 47 54 84 95 84c16 0 39 -9 68 -26c30 -17 51 -26 64 -26c19 0 38 19 57 56z" />
    <glyph glyph-name="odieresis" unicode="&#xf6;" horiz-adv-x="568" 
d="M285 459c75 0 135 -22 180 -67c45 -44 68 -100 68 -168s-23 -124 -69 -168s-106 -66 -179 -66c-77 0 -138 22 -183 65c-45 44 -67 100 -67 169c0 67 23 123 70 168s107 67 180 67zM286 351c-69 0 -116 -54 -116 -125c0 -76 44 -128 116 -128s117 55 117 128
c0 71 -46 125 -117 125zM190 536c-37 0 -63 28 -63 63c0 36 30 62 63 62c36 0 62 -27 62 -62s-26 -63 -62 -63zM376 536c-37 0 -62 28 -62 63c0 36 29 62 62 62c36 0 62 -27 62 -62s-26 -63 -62 -63z" />
    <glyph glyph-name="divide" unicode="&#xf7;" horiz-adv-x="572" 
d="M355 451c0 -37 -32 -68 -69 -68s-68 31 -68 68c0 39 31 69 68 69s69 -30 69 -69zM490 336v-82h-410v82h410zM286 71c-37 0 -68 31 -68 68c0 39 31 68 68 68c39 0 69 -31 69 -68s-30 -68 -69 -68z" />
    <glyph glyph-name="oslash" unicode="&#xf8;" horiz-adv-x="568" 
d="M285 459c57 0 106 -14 147 -41l25 27h53l-47 -53c47 -43 70 -99 70 -168c0 -68 -23 -124 -69 -168s-106 -66 -179 -66c-55 0 -103 12 -142 36l-23 -26h-55l45 50c-50 43 -75 101 -75 174c0 67 23 123 70 168s107 67 180 67zM287 357c-72 0 -121 -58 -121 -131
c0 -33 8 -61 23 -84l170 191c-21 16 -45 24 -72 24zM407 226c0 28 -7 53 -21 76l-170 -191c20 -13 44 -19 71 -19c72 0 120 57 120 134z" />
    <glyph glyph-name="ugrave" unicode="&#xf9;" horiz-adv-x="550" 
d="M57 169v277h135v-258c0 -52 28 -92 73 -92c56 0 91 41 91 122v227h135v-445h-108l-16 61h-4c-35 -45 -83 -68 -143 -68c-109 0 -163 59 -163 176zM219 695l118 -179h-77l-138 136z" />
    <glyph glyph-name="uacute" unicode="&#xfa;" horiz-adv-x="550" 
d="M57 169v277h135v-258c0 -52 28 -92 73 -92c56 0 91 41 91 122v227h135v-445h-108l-16 61h-4c-35 -45 -83 -68 -143 -68c-109 0 -163 59 -163 176zM429 652l-138 -136h-77l119 179z" />
    <glyph glyph-name="ucircumflex" unicode="&#xfb;" horiz-adv-x="550" 
d="M57 169v277h135v-258c0 -52 28 -92 73 -92c56 0 91 41 91 122v227h135v-445h-108l-16 61h-4c-35 -45 -83 -68 -143 -68c-109 0 -163 59 -163 176zM288 690l153 -174h-105l-61 74l-66 -74h-100l158 174h21z" />
    <glyph glyph-name="udieresis" unicode="&#xfc;" horiz-adv-x="550" 
d="M57 169v277h135v-258c0 -52 28 -92 73 -92c56 0 91 41 91 122v227h135v-445h-108l-16 61h-4c-35 -45 -83 -68 -143 -68c-109 0 -163 59 -163 176zM180 536c-37 0 -63 28 -63 63c0 36 30 62 63 62c36 0 62 -27 62 -62s-26 -63 -62 -63zM366 536c-37 0 -62 28 -62 63
c0 36 29 62 62 62c36 0 62 -27 62 -62s-26 -63 -62 -63z" />
    <glyph glyph-name="yacute" unicode="&#xfd;" horiz-adv-x="492" 
d="M140 446l101 -284h6l104 284h134l-283 -662h-131l109 244l-177 418h137zM411 651l-138 -136h-77l119 179z" />
    <glyph glyph-name="thorn" unicode="&#xfe;" horiz-adv-x="593" 
d="M191 44l-5 -4v-256h-134v927h134v-317c3 -1 4 -2 5 -2c35 42 84 63 148 63c71 0 125 -22 163 -66c39 -43 58 -98 58 -165c0 -69 -22 -125 -66 -168c-43 -43 -97 -65 -162 -65c-62 0 -109 18 -141 53zM310 94c68 0 116 55 116 128c0 76 -44 128 -116 128
c-69 0 -116 -56 -116 -129c0 -72 47 -127 116 -127z" />
    <glyph glyph-name="ydieresis" unicode="&#xff;" horiz-adv-x="492" 
d="M140 446l101 -284h6l104 284h134l-283 -662h-131l109 244l-177 418h137zM156 531c-37 0 -63 28 -63 63c0 36 30 62 63 62c36 0 62 -27 62 -62s-26 -63 -62 -63zM342 531c-37 0 -62 28 -62 63c0 36 29 62 62 62c36 0 62 -27 62 -62s-26 -63 -62 -63z" />
    <glyph glyph-name="Amacron" unicode="&#x100;" horiz-adv-x="662" 
d="M653 0h-151l-45 104h-253l-46 -104h-148l313 672h22zM334 389h-4l-81 -183h164zM490 744h-317v86h317v-86z" />
    <glyph glyph-name="amacron" unicode="&#x101;" horiz-adv-x="520" 
d="M350 0l-10 52h-3c-35 -42 -88 -63 -157 -63c-97 0 -147 56 -147 127c0 91 69 156 208 156h87v9c0 54 -34 81 -102 81c-45 0 -91 -13 -138 -38v101c50 23 107 34 171 34c135 0 203 -64 203 -192v-267h-112zM163 136c0 -35 29 -55 70 -55c60 0 95 43 95 98v17h-70
c-63 0 -95 -20 -95 -60zM415 544h-309v84h309v-84z" />
    <glyph glyph-name="Abreve" unicode="&#x102;" horiz-adv-x="662" 
d="M653 0h-151l-45 104h-253l-46 -104h-148l313 672h22zM334 389h-4l-81 -183h164zM334 712c-48 0 -85 15 -112 46c-26 31 -40 69 -41 113h69c3 -55 37 -88 86 -88c48 0 77 37 84 88h68c-3 -43 -17 -81 -43 -112c-25 -31 -62 -47 -111 -47z" />
    <glyph glyph-name="abreve" unicode="&#x103;" horiz-adv-x="520" 
d="M350 0l-10 52h-3c-35 -42 -88 -63 -157 -63c-97 0 -147 56 -147 127c0 91 69 156 208 156h87v9c0 54 -34 81 -102 81c-45 0 -91 -13 -138 -38v101c50 23 107 34 171 34c135 0 203 -64 203 -192v-267h-112zM163 136c0 -35 29 -55 70 -55c60 0 95 43 95 98v17h-70
c-63 0 -95 -20 -95 -60zM262 516c-96 0 -149 70 -153 161h69c3 -56 37 -88 86 -88c48 0 77 36 84 88h68c-3 -44 -17 -82 -43 -114c-25 -31 -62 -47 -111 -47z" />
    <glyph glyph-name="Aogonek" unicode="&#x104;" horiz-adv-x="662" 
d="M345 672l308 -672h-109c-44 -43 -66 -82 -66 -117c0 -33 19 -49 58 -49c30 0 63 10 99 30l-2 -61c-39 -23 -84 -35 -134 -35c-69 0 -107 30 -107 85c0 45 32 110 104 161l-39 90h-253l-46 -104h-148l313 672h22zM334 389h-4l-81 -183h164z" />
    <glyph glyph-name="aogonek" unicode="&#x105;" horiz-adv-x="520" 
d="M347 15l-7 37h-3c-35 -42 -88 -63 -157 -63c-97 0 -147 56 -147 127c0 91 69 156 208 156h87v9c0 54 -34 81 -102 81c-45 0 -91 -13 -138 -38v101c50 23 107 34 171 34c135 0 203 -64 203 -192v-267h-69c-45 -42 -68 -81 -68 -118c0 -33 19 -49 58 -49c30 0 63 10 99 30
l-2 -61c-39 -23 -84 -35 -134 -35c-69 0 -107 30 -107 85c0 45 33 112 108 163zM163 136c0 -35 29 -55 70 -55c60 0 95 43 95 98v17h-70c-63 0 -95 -20 -95 -60z" />
    <glyph glyph-name="Cacute" unicode="&#x106;" horiz-adv-x="622" 
d="M589 153l1 -126c-53 -26 -117 -39 -192 -39c-111 0 -197 32 -260 95c-62 63 -93 145 -93 244c0 97 33 179 98 246c66 67 152 100 259 100c68 0 124 -9 167 -27v-125c-46 21 -95 31 -146 31c-64 0 -118 -20 -162 -60c-43 -39 -65 -94 -65 -165c0 -136 84 -218 219 -218
c59 0 117 15 174 44zM532 846l-150 -128h-86l133 172z" />
    <glyph glyph-name="cacute" unicode="&#x107;" horiz-adv-x="440" 
d="M280 459c45 0 84 -7 117 -20v-110c-27 16 -59 24 -95 24c-76 0 -131 -50 -131 -131c0 -79 49 -127 128 -127c41 0 79 10 114 31v-107c-37 -20 -85 -30 -146 -30c-73 0 -130 21 -171 64s-61 98 -61 165c0 71 23 129 68 174c46 45 105 67 177 67zM398 652l-138 -136h-77
l119 179z" />
    <glyph glyph-name="Ccircumflex" unicode="&#x108;" horiz-adv-x="622" 
d="M589 153l1 -126c-53 -26 -117 -39 -192 -39c-111 0 -197 32 -260 95c-62 63 -93 145 -93 244c0 97 33 179 98 246c66 67 152 100 259 100c68 0 124 -9 167 -27v-125c-46 21 -95 31 -146 31c-64 0 -118 -20 -162 -60c-43 -39 -65 -94 -65 -165c0 -136 84 -218 219 -218
c59 0 117 15 174 44zM395 886l159 -165h-109l-63 69l-68 -69h-105l165 165h21z" />
    <glyph glyph-name="ccircumflex" unicode="&#x109;" horiz-adv-x="440" 
d="M280 459c45 0 84 -7 117 -20v-110c-27 16 -59 24 -95 24c-76 0 -131 -50 -131 -131c0 -79 49 -127 128 -127c41 0 79 10 114 31v-107c-37 -20 -85 -30 -146 -30c-73 0 -130 21 -171 64s-61 98 -61 165c0 71 23 129 68 174c46 45 105 67 177 67zM266 690l153 -174h-105
l-61 74l-66 -74h-100l158 174h21z" />
    <glyph glyph-name="Cdotaccent" unicode="&#x10a;" horiz-adv-x="622" 
d="M589 153l1 -126c-53 -26 -117 -39 -192 -39c-111 0 -197 32 -260 95c-62 63 -93 145 -93 244c0 97 33 179 98 246c66 67 152 100 259 100c68 0 124 -9 167 -27v-125c-46 21 -95 31 -146 31c-64 0 -118 -20 -162 -60c-43 -39 -65 -94 -65 -165c0 -136 84 -218 219 -218
c59 0 117 15 174 44zM457 807c0 -41 -31 -76 -74 -76c-44 0 -75 34 -75 74c0 43 35 75 75 75c43 0 74 -33 74 -73z" />
    <glyph glyph-name="cdotaccent" unicode="&#x10b;" horiz-adv-x="440" 
d="M280 459c45 0 84 -7 117 -20v-110c-27 16 -59 24 -95 24c-76 0 -131 -50 -131 -131c0 -79 49 -127 128 -127c41 0 79 10 114 31v-107c-37 -20 -85 -30 -146 -30c-73 0 -130 21 -171 64s-61 98 -61 165c0 71 23 129 68 174c46 45 105 67 177 67zM341 599
c0 -41 -31 -76 -74 -76c-44 0 -75 34 -75 74c0 43 35 75 75 75c43 0 74 -33 74 -73z" />
    <glyph glyph-name="Ccaron" unicode="&#x10c;" horiz-adv-x="622" 
d="M589 153l1 -126c-53 -26 -117 -39 -192 -39c-111 0 -197 32 -260 95c-62 63 -93 145 -93 244c0 97 33 179 98 246c66 67 152 100 259 100c68 0 124 -9 167 -27v-125c-46 21 -95 31 -146 31c-64 0 -118 -20 -162 -60c-43 -39 -65 -94 -65 -165c0 -136 84 -218 219 -218
c59 0 117 15 174 44zM380 811l63 71h108l-159 -164h-21l-164 164h105z" />
    <glyph glyph-name="ccaron" unicode="&#x10d;" horiz-adv-x="440" 
d="M280 459c45 0 84 -7 117 -20v-110c-27 16 -59 24 -95 24c-76 0 -131 -50 -131 -131c0 -79 49 -127 128 -127c41 0 79 10 114 31v-107c-37 -20 -85 -30 -146 -30c-73 0 -130 21 -171 64s-61 98 -61 165c0 71 23 129 68 174c46 45 105 67 177 67zM259 612l62 73h105
l-153 -174h-21l-158 174h100z" />
    <glyph glyph-name="Dcaron" unicode="&#x10e;" horiz-adv-x="697" 
d="M505 332c0 131 -65 213 -192 213h-98v-430h104c113 0 186 76 186 217zM323 0h-256v660h242c109 0 193 -31 252 -92c60 -61 90 -139 90 -236c0 -96 -29 -175 -86 -238s-138 -94 -242 -94zM301 807l63 71h108l-159 -164h-21l-164 164h105z" />
    <glyph glyph-name="dcaron" unicode="&#x10f;" horiz-adv-x="710" 
d="M285 351c-68 0 -114 -56 -114 -129c0 -76 44 -126 116 -126c67 0 116 56 116 128s-45 127 -118 127zM402 412l5 3v147c1 66 1 115 1 148h130v-355c1 -157 1 -276 1 -355h-102l-18 52c-37 -43 -102 -63 -159 -63c-69 0 -123 21 -162 62c-39 42 -59 97 -59 165
c0 71 21 129 64 174s97 68 163 68c56 0 101 -15 136 -46zM592 652c0 37 29 67 65 67c40 0 66 -30 66 -71c0 -25 -9 -56 -28 -92c-18 -36 -38 -68 -59 -95l-48 8l46 122c-28 11 -42 31 -42 61z" />
    <glyph glyph-name="Dcroat" unicode="&#x110;" horiz-adv-x="697" 
d="M323 0h-256v299h-54v76h54v285h242c109 0 193 -31 252 -92c60 -61 90 -139 90 -236c0 -96 -29 -175 -86 -238s-138 -94 -242 -94zM505 332c0 142 -73 213 -220 213h-70v-170h147v-76h-147v-184h72c148 0 218 70 218 217z" />
    <glyph glyph-name="dslash" unicode="&#x111;" horiz-adv-x="589" 
d="M400 412l5 3v132h-169v63h170v100h130v-100h53v-63h-53v-274c1 -121 1 -212 1 -273h-102l-18 52c-37 -43 -102 -63 -159 -63c-69 0 -123 21 -162 62c-39 42 -59 97 -59 165c0 71 21 129 64 174s97 68 163 68c56 0 101 -15 136 -46zM283 351c-68 0 -114 -56 -114 -129
c0 -76 44 -126 116 -126c67 0 116 56 116 128s-45 127 -118 127z" />
    <glyph glyph-name="Emacron" unicode="&#x112;" horiz-adv-x="569" 
d="M216 115h317v-115h-466v660h447v-115h-298v-146h267v-111h-267v-173zM458 746h-317v86h317v-86z" />
    <glyph glyph-name="emacron" unicode="&#x113;" horiz-adv-x="522" 
d="M265 460c137 0 221 -90 221 -233v-30h-317c7 -70 52 -105 134 -105c55 0 108 17 161 52v-107c-49 -32 -108 -48 -175 -48c-82 0 -145 22 -189 66c-43 44 -65 101 -65 170c0 67 21 122 64 167s98 68 166 68zM270 363c-48 0 -85 -33 -97 -82h189c-12 55 -43 82 -92 82z
M424 544h-309v84h309v-84z" />
    <glyph glyph-name="Ebreve" unicode="&#x114;" horiz-adv-x="569" 
d="M300 712c-48 0 -85 15 -112 46c-26 31 -40 69 -41 113h69c3 -55 37 -88 86 -88c48 0 77 37 84 88h68c-3 -43 -17 -81 -43 -112c-25 -31 -62 -47 -111 -47zM216 115h317v-115h-466v660h447v-115h-298v-146h267v-111h-267v-173z" />
    <glyph glyph-name="ebreve" unicode="&#x115;" horiz-adv-x="522" 
d="M265 460c137 0 221 -90 221 -233v-30h-317c7 -70 52 -105 134 -105c55 0 108 17 161 52v-107c-49 -32 -108 -48 -175 -48c-82 0 -145 22 -189 66c-43 44 -65 101 -65 170c0 67 21 122 64 167s98 68 166 68zM270 363c-48 0 -85 -33 -97 -82h189c-12 55 -43 82 -92 82z
M271 516c-96 0 -149 70 -153 161h69c3 -56 37 -88 86 -88c48 0 77 36 84 88h68c-3 -44 -17 -82 -43 -114c-25 -31 -62 -47 -111 -47z" />
    <glyph glyph-name="Edotaccent" unicode="&#x116;" horiz-adv-x="569" 
d="M216 115h317v-115h-466v660h447v-115h-298v-146h267v-111h-267v-173zM377 802c0 -41 -31 -76 -74 -76c-44 0 -75 34 -75 74c0 43 35 75 75 75c43 0 74 -33 74 -73z" />
    <glyph glyph-name="edotaccent" unicode="&#x117;" horiz-adv-x="522" 
d="M265 460c137 0 221 -90 221 -233v-30h-317c7 -70 52 -105 134 -105c55 0 108 17 161 52v-107c-49 -32 -108 -48 -175 -48c-82 0 -145 22 -189 66c-43 44 -65 101 -65 170c0 67 21 122 64 167s98 68 166 68zM270 363c-48 0 -85 -33 -97 -82h189c-12 55 -43 82 -92 82z
M344 598c0 -41 -31 -76 -74 -76c-44 0 -75 34 -75 74c0 43 35 75 75 75c43 0 74 -33 74 -73z" />
    <glyph glyph-name="Eogonek" unicode="&#x118;" horiz-adv-x="569" 
d="M216 115h317v-115h-79c-49 -44 -74 -85 -74 -124c0 -33 19 -49 58 -49c30 0 63 10 99 30l-2 -61c-39 -23 -84 -35 -134 -35c-69 0 -107 30 -107 85c0 43 30 105 94 154h-321v660h447v-115h-298v-146h267v-111h-267v-173z" />
    <glyph glyph-name="eogonek" unicode="&#x119;" horiz-adv-x="522" 
d="M265 460c137 0 221 -90 221 -233v-30h-317c7 -70 52 -105 134 -105c55 0 108 17 161 52v-107c-23 -15 -49 -27 -76 -35c-45 -41 -67 -80 -67 -117c0 -33 19 -49 58 -49c30 0 63 10 99 30l-2 -61c-39 -23 -84 -35 -134 -35c-69 0 -107 30 -107 85c0 46 23 91 70 135
c-4 0 -12 -1 -16 -1c-82 0 -145 22 -189 66c-43 44 -65 101 -65 170c0 67 21 122 64 167s98 68 166 68zM270 363c-48 0 -85 -33 -97 -82h189c-12 55 -43 82 -92 82z" />
    <glyph glyph-name="Ecaron" unicode="&#x11a;" horiz-adv-x="569" 
d="M216 115h317v-115h-466v660h447v-115h-298v-146h267v-111h-267v-173zM298 807l63 71h108l-159 -164h-21l-164 164h105z" />
    <glyph glyph-name="ecaron" unicode="&#x11b;" horiz-adv-x="522" 
d="M265 460c137 0 221 -90 221 -233v-30h-317c7 -70 52 -105 134 -105c55 0 108 17 161 52v-107c-49 -32 -108 -48 -175 -48c-82 0 -145 22 -189 66c-43 44 -65 101 -65 170c0 67 21 122 64 167s98 68 166 68zM270 363c-48 0 -85 -33 -97 -82h189c-12 55 -43 82 -92 82z
M264 610l62 73h105l-153 -174h-21l-158 174h100z" />
    <glyph glyph-name="Gcircumflex" unicode="&#x11c;" horiz-adv-x="680" 
d="M44 325c0 99 33 181 99 248c67 67 154 101 263 101c75 0 137 -12 188 -36v-129c-53 28 -111 42 -176 42s-118 -21 -160 -62c-41 -41 -62 -96 -62 -166c0 -63 17 -115 52 -156c35 -40 87 -60 154 -60c33 0 62 5 89 15v218h132v-313c-61 -25 -138 -38 -233 -38
c-110 0 -195 31 -256 93c-60 62 -90 143 -90 243zM414 884l159 -165h-109l-63 69l-68 -69h-105l165 165h21z" />
    <glyph glyph-name="gcircumflex" unicode="&#x11d;" horiz-adv-x="519" 
d="M33 -95c0 49 23 88 69 118l-27 5c-36 7 -55 28 -55 53v6l83 83c-31 27 -46 65 -46 115s19 91 56 124s84 50 140 50c24 0 52 -5 84 -14h159v-62c-16 -2 -39 -6 -70 -11c20 -28 30 -58 30 -89c0 -45 -17 -83 -52 -114s-81 -47 -139 -47c-35 0 -65 6 -92 17l-23 -38l217 -24
c87 -11 124 -46 124 -119c0 -35 -18 -75 -55 -114c-37 -40 -108 -69 -196 -69c-71 0 -124 13 -157 39s-50 56 -50 91zM278 690l153 -174h-105l-61 74l-66 -74h-100l158 174h21zM241 -123c37 0 65 9 85 26s30 37 30 58s-17 34 -50 37l-129 14c-19 -21 -29 -43 -29 -66
c0 -39 33 -69 93 -69zM339 291c0 47 -35 82 -80 82c-47 0 -79 -37 -79 -82c0 -51 30 -84 79 -84s80 36 80 84z" />
    <glyph glyph-name="Gbreve" unicode="&#x11e;" horiz-adv-x="680" 
d="M44 325c0 99 33 181 99 248c67 67 154 101 263 101c75 0 137 -12 188 -36v-129c-53 28 -111 42 -176 42s-118 -21 -160 -62c-41 -41 -62 -96 -62 -166c0 -63 17 -115 52 -156c35 -40 87 -60 154 -60c33 0 62 5 89 15v218h132v-313c-61 -25 -138 -38 -233 -38
c-110 0 -195 31 -256 93c-60 62 -90 143 -90 243zM401 712c-48 0 -85 15 -112 46c-26 31 -40 69 -41 113h69c3 -55 37 -88 86 -88c48 0 77 37 84 88h68c-3 -43 -17 -81 -43 -112c-25 -31 -62 -47 -111 -47z" />
    <glyph glyph-name="gbreve" unicode="&#x11f;" horiz-adv-x="519" 
d="M33 -95c0 49 23 88 69 118l-27 5c-36 7 -55 28 -55 53v6l83 83c-31 27 -46 65 -46 115s19 91 56 124s84 50 140 50c24 0 52 -5 84 -14h159v-62c-16 -2 -39 -6 -70 -11c20 -28 30 -58 30 -89c0 -45 -17 -83 -52 -114s-81 -47 -139 -47c-35 0 -65 6 -92 17l-23 -38l217 -24
c87 -11 124 -46 124 -119c0 -35 -18 -75 -55 -114c-37 -40 -108 -69 -196 -69c-71 0 -124 13 -157 39s-50 56 -50 91zM265 516c-96 0 -149 70 -153 161h69c3 -56 37 -88 86 -88c48 0 77 36 84 88h68c-3 -44 -17 -82 -43 -114c-25 -31 -62 -47 -111 -47zM241 -123
c37 0 65 9 85 26s30 37 30 58s-17 34 -50 37l-129 14c-19 -21 -29 -43 -29 -66c0 -39 33 -69 93 -69zM339 291c0 47 -35 82 -80 82c-47 0 -79 -37 -79 -82c0 -51 30 -84 79 -84s80 36 80 84z" />
    <glyph glyph-name="Gdotaccent" unicode="&#x120;" horiz-adv-x="680" 
d="M44 325c0 99 33 181 99 248c67 67 154 101 263 101c75 0 137 -12 188 -36v-129c-53 28 -111 42 -176 42s-118 -21 -160 -62c-41 -41 -62 -96 -62 -166c0 -63 17 -115 52 -156c35 -40 87 -60 154 -60c33 0 62 5 89 15v218h132v-313c-61 -25 -138 -38 -233 -38
c-110 0 -195 31 -256 93c-60 62 -90 143 -90 243zM476 807c0 -41 -31 -76 -74 -76c-44 0 -75 34 -75 74c0 43 35 75 75 75c43 0 74 -33 74 -73z" />
    <glyph glyph-name="gdotaccent" unicode="&#x121;" horiz-adv-x="519" 
d="M33 -95c0 49 23 88 69 118l-27 5c-36 7 -55 28 -55 53v6l83 83c-31 27 -46 65 -46 115s19 91 56 124s84 50 140 50c24 0 52 -5 84 -14h159v-62c-16 -2 -39 -6 -70 -11c20 -28 30 -58 30 -89c0 -45 -17 -83 -52 -114s-81 -47 -139 -47c-35 0 -65 6 -92 17l-23 -38l217 -24
c87 -11 124 -46 124 -119c0 -35 -18 -75 -55 -114c-37 -40 -108 -69 -196 -69c-71 0 -124 13 -157 39s-50 56 -50 91zM241 -123c37 0 65 9 85 26s30 37 30 58s-17 34 -50 37l-129 14c-19 -21 -29 -43 -29 -66c0 -39 33 -69 93 -69zM339 291c0 47 -35 82 -80 82
c-47 0 -79 -37 -79 -82c0 -51 30 -84 79 -84s80 36 80 84zM338 598c0 -41 -31 -76 -74 -76c-44 0 -75 34 -75 74c0 43 35 75 75 75c43 0 74 -33 74 -73z" />
    <glyph glyph-name="Gcommaaccent" unicode="&#x122;" horiz-adv-x="680" 
d="M44 325c0 99 33 181 99 248c67 67 154 101 263 101c75 0 137 -12 188 -36v-129c-53 28 -111 42 -176 42s-118 -21 -160 -62c-41 -41 -62 -96 -62 -166c0 -63 17 -115 52 -156c35 -40 87 -60 154 -60c33 0 62 5 89 15v218h132v-313c-61 -25 -138 -38 -233 -38
c-110 0 -195 31 -256 93c-60 62 -90 143 -90 243zM326 -116c0 37 29 67 65 67c40 0 66 -30 66 -71c0 -25 -9 -56 -28 -92c-18 -36 -38 -68 -59 -95l-48 8l46 122c-28 11 -42 31 -42 61z" />
    <glyph glyph-name="gcommaaccent" unicode="&#x123;" horiz-adv-x="519" 
d="M33 -95c0 49 23 88 69 118l-27 5c-36 7 -55 28 -55 53v6l83 83c-31 27 -46 65 -46 115s19 91 56 124s84 50 140 50c24 0 52 -5 84 -14h159v-62c-16 -2 -39 -6 -70 -11c20 -28 30 -58 30 -89c0 -45 -17 -83 -52 -114s-81 -47 -139 -47c-35 0 -65 6 -92 17l-23 -38l217 -24
c87 -11 124 -46 124 -119c0 -35 -18 -75 -55 -114c-37 -40 -108 -69 -196 -69c-71 0 -124 13 -157 39s-50 56 -50 91zM323 585c0 -37 -29 -67 -65 -67c-40 0 -66 30 -66 71c0 25 9 56 27 92c19 36 39 68 60 95l48 -8l-46 -122c28 -11 42 -31 42 -61zM241 -123
c37 0 65 9 85 26s30 37 30 58s-17 34 -50 37l-129 14c-19 -21 -29 -43 -29 -66c0 -39 33 -69 93 -69zM339 291c0 47 -35 82 -80 82c-47 0 -79 -37 -79 -82c0 -51 30 -84 79 -84s80 36 80 84z" />
    <glyph glyph-name="Hcircumflex" unicode="&#x124;" horiz-adv-x="694" 
d="M626 660v-660h-149v285h-261v-285h-149v660h149v-259h261v259h149zM361 882l159 -165h-109l-63 69l-68 -69h-105l165 165h21z" />
    <glyph glyph-name="hcircumflex" unicode="&#x125;" horiz-adv-x="554" 
d="M493 283v-283h-135v256c0 56 -27 94 -75 94c-56 0 -97 -41 -97 -121v-229h-136v711h131v-319h1l2 -1c35 43 83 64 144 64c105 0 165 -64 165 -172zM129 910l159 -165h-109l-63 69l-68 -69h-105l165 165h21z" />
    <glyph glyph-name="Hbar" unicode="&#x126;" horiz-adv-x="694" 
d="M67 507h-45v66h45v87h149v-87h261v87h149v-87h42v-66h-42v-507h-149v285h-261v-285h-149v507zM216 507v-106h261v106h-261z" />
    <glyph glyph-name="hbar" unicode="&#x127;" horiz-adv-x="552" 
d="M494 283v-283h-135v256c0 51 -31 94 -75 94c-56 0 -97 -41 -97 -121v-229h-136v547h-45v63h45v101h131v-101h168v-63h-168v-155h1c1 -1 1 -1 2 -1c38 45 86 67 144 67c105 0 165 -64 165 -175z" />
    <glyph glyph-name="Itilde" unicode="&#x128;" horiz-adv-x="295" 
d="M276 868l37 -55c-21 -55 -51 -83 -91 -83c-17 0 -41 8 -71 25s-51 25 -62 25c-20 0 -39 -18 -56 -55l-41 55c19 47 54 84 95 84c16 0 39 -9 68 -26c30 -17 51 -26 64 -26c19 0 38 19 57 56zM221 660v-660h-149v660h149z" />
    <glyph glyph-name="itilde" unicode="&#x129;" horiz-adv-x="264" 
d="M256 666l37 -55c-21 -55 -51 -83 -91 -83c-17 0 -41 8 -71 25s-51 25 -62 25c-20 0 -39 -18 -56 -55l-41 55c19 47 54 84 95 84c16 0 39 -9 68 -26c30 -17 51 -26 64 -26c19 0 38 19 57 56zM200 446v-446h-137v446h137z" />
    <glyph glyph-name="Imacron" unicode="&#x12a;" horiz-adv-x="295" 
d="M308 744h-317v86h317v-86zM221 660v-660h-149v660h149z" />
    <glyph glyph-name="imacron" unicode="&#x12b;" horiz-adv-x="264" 
d="M200 446v-446h-137v446h137zM286 544h-309v84h309v-84z" />
    <glyph glyph-name="Ibreve" unicode="&#x12c;" horiz-adv-x="320" 
d="M161 713c-48 0 -85 15 -112 46c-26 31 -40 69 -41 113h69c3 -55 37 -88 86 -88c48 0 77 37 84 88h68c-3 -43 -17 -81 -43 -112c-25 -31 -62 -47 -111 -47zM233 660v-660h-149v660h149z" />
    <glyph glyph-name="ibreve" unicode="&#x12d;" horiz-adv-x="264" 
d="M134 517c-96 0 -149 70 -153 161h69c3 -56 37 -88 86 -88c48 0 77 36 84 88h68c-3 -44 -17 -82 -43 -114c-25 -31 -62 -47 -111 -47zM200 446v-446h-137v446h137z" />
    <glyph glyph-name="Iogonek" unicode="&#x12e;" horiz-adv-x="295" 
d="M221 660v-660h-51c-48 -43 -72 -84 -72 -122c0 -33 19 -49 58 -49c30 0 63 10 99 30l-2 -61c-39 -23 -84 -35 -134 -35c-69 0 -107 30 -107 85c0 43 28 103 92 152h-32v660h149z" />
    <glyph glyph-name="iogonek" unicode="&#x12f;" horiz-adv-x="264" 
d="M200 446v-446h-49c-48 -43 -72 -84 -72 -122c0 -33 19 -49 58 -49c30 0 63 10 99 30l-2 -61c-39 -23 -84 -35 -134 -35c-69 0 -107 30 -107 85c0 43 28 103 92 152h-22v446h137zM134 519c-44 0 -75 34 -75 75s36 74 75 74c43 0 74 -33 74 -74s-31 -75 -74 -75z" />
    <glyph glyph-name="Idot" unicode="&#x130;" horiz-adv-x="295" 
d="M224 802c0 -41 -31 -76 -74 -76c-44 0 -75 34 -75 74c0 43 35 75 75 75c43 0 74 -33 74 -73zM221 660v-660h-149v660h149z" />
    <glyph glyph-name="dotlessi" unicode="&#x131;" horiz-adv-x="264" 
d="M200 446v-446h-137v446h137z" />
    <glyph glyph-name="IJ" unicode="&#x132;" horiz-adv-x="753" 
d="M402 108c96 0 130 55 130 158v394h151v-381c0 -65 -6 -113 -27 -166c-30 -74 -98 -125 -230 -125c-61 0 -113 11 -158 34v125c46 -26 91 -39 134 -39zM217 660v-660h-149v660h149z" />
    <glyph glyph-name="ij" unicode="&#x133;" horiz-adv-x="494" 
d="M442 594c0 -41 -31 -75 -74 -75c-44 0 -75 33 -75 74s35 74 75 74c43 0 74 -33 74 -73zM219 -224c-5 13 -12 31 -23 54l-21 51c96 7 125 46 125 145v419h135v-428c0 -163 -87 -233 -216 -241zM196 446v-446h-137v446h137zM130 519c-44 0 -75 34 -75 75s36 74 75 74
c43 0 74 -33 74 -74s-31 -75 -74 -75z" />
    <glyph glyph-name="Jcircumflex" unicode="&#x134;" horiz-adv-x="497" 
d="M148 109c96 0 130 55 130 158v394h151v-381c0 -65 -6 -113 -27 -166c-30 -74 -98 -125 -230 -125c-61 0 -113 11 -158 34v125c46 -26 91 -39 134 -39zM369 882l159 -165h-109l-63 69l-68 -69h-105l165 165h21z" />
    <glyph glyph-name="jcircumflex" unicode="&#x135;" horiz-adv-x="255" 
d="M-21 -231l-43 104c93 5 124 51 124 146v426h134v-397c0 -97 -19 -166 -57 -209c-37 -43 -90 -66 -158 -70zM139 690l153 -174h-105l-61 74l-66 -74h-100l158 174h21z" />
    <glyph glyph-name="Kcommaaccent" unicode="&#x136;" horiz-adv-x="645" 
d="M67 660h150v-303l240 303h162l-259 -318l277 -342h-172l-248 327v-327h-150v660zM246 -99c0 37 29 67 65 67c40 0 66 -30 66 -71c0 -25 -9 -56 -28 -92c-18 -36 -38 -68 -59 -95l-48 8l46 122c-28 11 -42 31 -42 61z" />
    <glyph glyph-name="kcommaaccent" unicode="&#x137;" horiz-adv-x="528" 
d="M361 445h148l-185 -212l198 -233h-154l-177 217v-217h-139v711h139v-466zM191 -108c0 37 29 67 65 67c40 0 66 -30 66 -71c0 -25 -9 -56 -28 -92c-18 -36 -38 -68 -59 -95l-48 8l46 122c-28 11 -42 31 -42 61z" />
    <glyph glyph-name="kgreenlandic" unicode="&#x138;" horiz-adv-x="528" 
d="M357 445h148l-185 -212l198 -233h-154l-177 217v-217h-139v445h139v-200z" />
    <glyph glyph-name="Lacute" unicode="&#x139;" horiz-adv-x="532" 
d="M67 0v660h149v-545h305v-115h-454zM315 846l-150 -128h-86l133 172z" />
    <glyph glyph-name="lacute" unicode="&#x13a;" horiz-adv-x="252" 
d="M304 881l-150 -128h-86l133 172zM194 711v-711h-136v711h136z" />
    <glyph glyph-name="Lcommaaccent" unicode="&#x13b;" horiz-adv-x="532" 
d="M229 -110c0 37 29 67 65 67c40 0 66 -30 66 -71c0 -25 -9 -56 -28 -92c-18 -36 -38 -68 -59 -95l-48 8l46 122c-28 11 -42 31 -42 61zM67 0v660h149v-545h305v-115h-454z" />
    <glyph glyph-name="lcommaaccent" unicode="&#x13c;" horiz-adv-x="252" 
d="M62 -110c0 37 29 67 65 67c40 0 66 -30 66 -71c0 -25 -9 -56 -28 -92c-18 -36 -38 -68 -59 -95l-48 8l46 122c-28 11 -42 31 -42 61zM194 711v-711h-136v711h136z" />
    <glyph glyph-name="Lcaron" unicode="&#x13d;" horiz-adv-x="532" 
d="M353 604c0 37 29 67 65 67c40 0 66 -30 66 -71c0 -25 -9 -56 -28 -92c-18 -36 -38 -68 -59 -95l-48 8l46 122c-28 11 -42 31 -42 61zM67 0v660h149v-545h305v-115h-454z" />
    <glyph glyph-name="lcaron" unicode="&#x13e;" horiz-adv-x="374" 
d="M256 653c0 37 29 67 65 67c40 0 66 -30 66 -71c0 -25 -9 -56 -28 -92c-18 -36 -38 -68 -59 -95l-48 8l46 122c-28 11 -42 31 -42 61zM206 711v-711h-136v711h136z" />
    <glyph glyph-name="Ldot" unicode="&#x13f;" horiz-adv-x="532" 
d="M470 349c0 -41 -31 -76 -74 -76c-44 0 -75 34 -75 74c0 43 35 75 75 75c43 0 74 -33 74 -73zM67 0v660h149v-545h305v-115h-454z" />
    <glyph glyph-name="ldot" unicode="&#x140;" horiz-adv-x="388" 
d="M393 357c0 -41 -31 -76 -74 -76c-44 0 -75 34 -75 74c0 43 35 75 75 75c43 0 74 -33 74 -73zM206 711v-711h-136v711h136z" />
    <glyph glyph-name="Lslash" unicode="&#x141;" horiz-adv-x="532" 
d="M68 239l-70 -32v66c41 20 65 31 70 33v354h148v-298l135 65v-70l-135 -63v-179h305v-115h-453v239z" />
    <glyph glyph-name="lslash" unicode="&#x142;" horiz-adv-x="252" 
d="M194 314v-314h-137v265c-7 -3 -18 -9 -35 -16c-16 -7 -28 -13 -36 -18v67l38 19c17 8 28 13 33 16v378h137v-327l78 37v-70l-43 -20c-18 -9 -30 -14 -35 -17z" />
    <glyph glyph-name="Nacute" unicode="&#x143;" horiz-adv-x="721" 
d="M215 381v-381h-148v673h22c47 -46 116 -110 207 -193c91 -82 160 -145 205 -189h4v369h148v-671h-21l-414 392h-3zM506 844l-150 -128h-86l133 172z" />
    <glyph glyph-name="nacute" unicode="&#x144;" horiz-adv-x="559" 
d="M500 283v-283h-135v255c0 55 -29 95 -74 95c-57 0 -98 -41 -98 -121v-229h-135v445h105c3 -8 6 -20 9 -35s5 -24 6 -26h4c39 48 92 72 159 72c103 0 159 -65 159 -173zM397 652l-138 -136h-77l119 179z" />
    <glyph glyph-name="Ncommaaccent" unicode="&#x145;" horiz-adv-x="721" 
d="M215 381v-381h-148v673h22c47 -46 116 -110 207 -193c91 -82 160 -145 205 -189h4v369h148v-671h-21l-414 392h-3zM308 -100c0 37 29 67 65 67c40 0 66 -30 66 -71c0 -25 -9 -56 -28 -92c-18 -36 -38 -68 -59 -95l-48 8l46 122c-28 11 -42 31 -42 61z" />
    <glyph glyph-name="ncommaaccent" unicode="&#x146;" horiz-adv-x="559" 
d="M500 283v-283h-135v255c0 55 -29 95 -74 95c-57 0 -98 -41 -98 -121v-229h-135v445h105c3 -8 6 -20 9 -35s5 -24 6 -26h4c39 48 92 72 159 72c103 0 159 -65 159 -173zM214 -106c0 37 29 67 65 67c40 0 66 -30 66 -71c0 -25 -9 -56 -28 -92c-18 -36 -38 -68 -59 -95
l-48 8l46 122c-28 11 -42 31 -42 61z" />
    <glyph glyph-name="Ncaron" unicode="&#x147;" horiz-adv-x="721" 
d="M215 381v-381h-148v673h22c47 -46 116 -110 207 -193c91 -82 160 -145 205 -189h4v369h148v-671h-21l-414 392h-3zM358 807l63 71h108l-159 -164h-21l-164 164h105z" />
    <glyph glyph-name="ncaron" unicode="&#x148;" horiz-adv-x="559" 
d="M500 283v-283h-135v255c0 55 -29 95 -74 95c-57 0 -98 -41 -98 -121v-229h-135v445h105c3 -8 6 -20 9 -35s5 -24 6 -26h4c39 48 92 72 159 72c103 0 159 -65 159 -173zM261 610l62 73h105l-153 -174h-21l-158 174h100z" />
    <glyph glyph-name="napostrophe" unicode="&#x149;" horiz-adv-x="610" 
d="M550 283v-283h-135v255c0 55 -29 95 -74 95c-57 0 -98 -41 -98 -121v-229h-135v445h105c3 -8 6 -20 9 -35s5 -24 6 -26h4c39 48 92 72 159 72c103 0 159 -65 159 -173zM2 650c0 37 29 67 65 67c40 0 66 -30 66 -71c0 -25 -9 -56 -28 -92c-18 -36 -38 -68 -59 -95l-48 8
l46 122c-28 11 -42 31 -42 61z" />
    <glyph glyph-name="Eng" unicode="&#x14a;" horiz-adv-x="721" 
d="M215 407v-407h-148v677h22l412 -415h4v398h148v-604c0 -203 -77 -282 -222 -290l-47 105c93 5 126 55 126 150v68l-292 318h-3z" />
    <glyph glyph-name="eng" unicode="&#x14b;" horiz-adv-x="559" 
d="M501 283v-246c0 -185 -80 -260 -217 -268l-42 102c93 5 122 50 122 146v140c1 49 1 80 1 94c0 56 -30 99 -74 99c-57 0 -98 -41 -98 -121v-229h-136v445h110l14 -61h4c39 48 91 72 156 72c104 0 160 -65 160 -173z" />
    <glyph glyph-name="Omacron" unicode="&#x14c;" horiz-adv-x="799" 
d="M399 -11c-108 0 -194 32 -259 96c-64 65 -96 146 -96 245c0 96 34 177 101 243c68 66 153 99 255 99c103 0 188 -33 254 -99c66 -65 99 -146 99 -243s-33 -179 -100 -244c-66 -65 -151 -97 -254 -97zM401 549c-61 0 -110 -21 -149 -63s-58 -94 -58 -156
c0 -64 19 -117 56 -159c38 -42 88 -63 151 -63c61 0 111 21 148 64c38 43 57 95 57 158c0 62 -19 114 -57 156c-37 42 -87 63 -148 63zM554 747h-317v86h317v-86z" />
    <glyph glyph-name="omacron" unicode="&#x14d;" horiz-adv-x="568" 
d="M285 459c75 0 135 -22 180 -67c45 -44 68 -100 68 -168s-23 -124 -69 -168s-106 -66 -179 -66c-77 0 -138 22 -183 65c-45 44 -67 100 -67 169c0 67 23 123 70 168s107 67 180 67zM286 351c-69 0 -116 -54 -116 -125c0 -76 44 -128 116 -128s117 55 117 128
c0 71 -46 125 -117 125zM440 544h-309v84h309v-84z" />
    <glyph glyph-name="Obreve" unicode="&#x14e;" horiz-adv-x="799" 
d="M399 -11c-108 0 -194 32 -259 96c-64 65 -96 146 -96 245c0 96 34 177 101 243c68 66 153 99 255 99c103 0 188 -33 254 -99c66 -65 99 -146 99 -243s-33 -179 -100 -244c-66 -65 -151 -97 -254 -97zM401 549c-61 0 -110 -21 -149 -63s-58 -94 -58 -156
c0 -64 19 -117 56 -159c38 -42 88 -63 151 -63c61 0 111 21 148 64c38 43 57 95 57 158c0 62 -19 114 -57 156c-37 42 -87 63 -148 63zM400 712c-48 0 -85 15 -112 46c-26 31 -40 69 -41 113h69c3 -55 37 -88 86 -88c48 0 77 37 84 88h68c-3 -43 -17 -81 -43 -112
c-25 -31 -62 -47 -111 -47z" />
    <glyph glyph-name="obreve" unicode="&#x14f;" horiz-adv-x="568" 
d="M285 459c75 0 135 -22 180 -67c45 -44 68 -100 68 -168s-23 -124 -69 -168s-106 -66 -179 -66c-77 0 -138 22 -183 65c-45 44 -67 100 -67 169c0 67 23 123 70 168s107 67 180 67zM286 351c-69 0 -116 -54 -116 -125c0 -76 44 -128 116 -128s117 55 117 128
c0 71 -46 125 -117 125zM286 516c-96 0 -149 70 -153 161h69c3 -56 37 -88 86 -88c48 0 77 36 84 88h68c-3 -44 -17 -82 -43 -114c-25 -31 -62 -47 -111 -47z" />
    <glyph glyph-name="Ohungarumlaut" unicode="&#x150;" horiz-adv-x="799" 
d="M399 -11c-108 0 -194 32 -259 96c-64 65 -96 146 -96 245c0 96 34 177 101 243c68 66 153 99 255 99c103 0 188 -33 254 -99c66 -65 99 -146 99 -243s-33 -179 -100 -244c-66 -65 -151 -97 -254 -97zM401 549c-61 0 -110 -21 -149 -63s-58 -94 -58 -156
c0 -64 19 -117 56 -159c38 -42 88 -63 151 -63c61 0 111 21 148 64c38 43 57 95 57 158c0 62 -19 114 -57 156c-37 42 -87 63 -148 63zM640 846l-149 -128h-86l133 172zM495 846l-149 -128h-86l133 172z" />
    <glyph glyph-name="ohungarumlaut" unicode="&#x151;" horiz-adv-x="568" 
d="M285 459c75 0 135 -22 180 -67c45 -44 68 -100 68 -168s-23 -124 -69 -168s-106 -66 -179 -66c-77 0 -138 22 -183 65c-45 44 -67 100 -67 169c0 67 23 123 70 168s107 67 180 67zM286 351c-69 0 -116 -54 -116 -125c0 -76 44 -128 116 -128s117 55 117 128
c0 71 -46 125 -117 125zM508 661l-138 -136h-76l118 180zM368 661l-139 -136h-76l118 180z" />
    <glyph glyph-name="OE" unicode="&#x152;" horiz-adv-x="971" 
d="M618 114h317v-114h-437c-31 -7 -65 -11 -100 -11c-109 0 -196 32 -259 96s-95 146 -95 246c0 97 33 179 100 245s152 99 255 99c41 0 78 -5 112 -15h405v-115h-298v-146h266v-111h-266v-174zM400 108c26 0 49 4 69 12v420c-24 8 -47 12 -69 12c-63 0 -113 -21 -151 -63
c-37 -42 -56 -95 -56 -158c0 -65 19 -119 56 -161c37 -41 88 -62 151 -62z" />
    <glyph glyph-name="oe" unicode="&#x153;" horiz-adv-x="886" 
d="M283 459c76 0 143 -32 180 -84c36 53 99 86 168 86s123 -21 162 -64c40 -42 60 -99 60 -170v-27h-317c5 -76 59 -110 134 -110c58 0 112 17 161 50v-103c-49 -32 -108 -48 -175 -48c-87 0 -151 28 -192 85c-39 -53 -109 -84 -185 -84c-77 0 -137 22 -181 65
c-43 44 -65 100 -65 169c0 67 23 123 70 168s107 67 180 67zM284 351c-69 0 -116 -54 -116 -125c0 -76 44 -128 116 -128c71 0 116 55 116 128c0 71 -45 125 -116 125zM637 363c-48 0 -85 -33 -97 -82h189c-12 55 -43 82 -92 82z" />
    <glyph glyph-name="Racute" unicode="&#x154;" horiz-adv-x="634" 
d="M66 659h267c68 0 126 -19 173 -58c48 -38 72 -91 72 -158c0 -76 -43 -159 -132 -200l174 -243h-170l-174 269v14c104 12 155 74 155 139c0 76 -49 124 -126 124h-90v-546h-149v659zM445 846l-150 -128h-86l133 172z" />
    <glyph glyph-name="racute" unicode="&#x155;" horiz-adv-x="378" 
d="M157 445l17 -71h5c27 53 77 83 133 83c21 0 41 -3 58 -10v-123c-22 10 -45 15 -68 15c-65 0 -110 -54 -110 -142v-197h-135v445h100zM304 652l-138 -136h-77l119 179z" />
    <glyph glyph-name="Rcommaaccent" unicode="&#x156;" horiz-adv-x="634" 
d="M66 659h267c68 0 126 -19 173 -58c48 -38 72 -91 72 -158c0 -76 -43 -159 -132 -200l174 -243h-170l-174 269v14c104 12 155 74 155 139c0 76 -49 124 -126 124h-90v-546h-149v659zM244 -98c0 37 29 67 65 67c40 0 66 -30 66 -71c0 -25 -9 -56 -28 -92
c-18 -36 -38 -68 -59 -95l-48 8l46 122c-28 11 -42 31 -42 61z" />
    <glyph glyph-name="rcommaaccent" unicode="&#x157;" horiz-adv-x="378" 
d="M157 445l17 -71h5c27 53 77 83 133 83c21 0 41 -3 58 -10v-123c-22 10 -45 15 -68 15c-65 0 -110 -54 -110 -142v-197h-135v445h100zM58 -109c0 37 29 67 65 67c40 0 66 -30 66 -71c0 -25 -9 -56 -28 -92c-18 -36 -38 -68 -59 -95l-48 8l46 122c-28 11 -42 31 -42 61z
" />
    <glyph glyph-name="Rcaron" unicode="&#x158;" horiz-adv-x="634" 
d="M66 659h267c68 0 126 -19 173 -58c48 -38 72 -91 72 -158c0 -76 -43 -159 -132 -200l174 -243h-170l-174 269v14c104 12 155 74 155 139c0 76 -49 124 -126 124h-90v-546h-149v659zM294 807l63 71h108l-159 -164h-21l-164 164h105z" />
    <glyph glyph-name="rcaron" unicode="&#x159;" horiz-adv-x="378" 
d="M157 445l17 -71h5c27 53 77 83 133 83c21 0 41 -3 58 -10v-123c-22 10 -45 15 -68 15c-65 0 -110 -54 -110 -142v-197h-135v445h100zM177 610l62 73h105l-153 -174h-21l-158 174h100z" />
    <glyph glyph-name="Sacute" unicode="&#x15a;" horiz-adv-x="538" 
d="M32 41v136c29 -22 64 -39 103 -52c40 -13 75 -19 106 -19c68 0 115 24 115 73c0 45 -50 81 -111 108c-88 39 -206 89 -204 204c0 55 21 100 62 133c42 33 96 50 163 50c71 0 136 -14 197 -42v-128c-23 15 -52 28 -85 38s-62 15 -88 15c-59 0 -100 -21 -100 -65
c0 -48 80 -67 157 -107c27 -14 53 -29 76 -45c47 -31 82 -89 82 -158c0 -56 -21 -102 -64 -139c-42 -37 -102 -55 -181 -55c-92 0 -168 18 -228 53zM417 846l-150 -128h-86l133 172z" />
    <glyph glyph-name="sacute" unicode="&#x15b;" horiz-adv-x="399" 
d="M22 28v114c44 -33 109 -55 153 -55s66 12 66 36c0 65 -208 70 -208 204c0 80 68 131 168 131c49 0 98 -10 147 -31v-107c-44 25 -86 37 -127 37c-37 0 -56 -11 -56 -33c-1 -50 207 -54 206 -198c0 -77 -64 -136 -181 -136c-66 0 -122 13 -168 38zM335 652l-138 -136h-77
l119 179z" />
    <glyph glyph-name="Scircumflex" unicode="&#x15c;" horiz-adv-x="538" 
d="M32 41v136c29 -22 64 -39 103 -52c40 -13 75 -19 106 -19c68 0 115 24 115 73c0 45 -50 81 -111 108c-88 39 -206 89 -204 204c0 55 21 100 62 133c42 33 96 50 163 50c71 0 136 -14 197 -42v-128c-23 15 -52 28 -85 38s-62 15 -88 15c-59 0 -100 -21 -100 -65
c0 -48 80 -67 157 -107c27 -14 53 -29 76 -45c47 -31 82 -89 82 -158c0 -56 -21 -102 -64 -139c-42 -37 -102 -55 -181 -55c-92 0 -168 18 -228 53zM288 883l159 -165h-109l-63 69l-68 -69h-105l165 165h21z" />
    <glyph glyph-name="scircumflex" unicode="&#x15d;" horiz-adv-x="399" 
d="M22 28v114c44 -33 109 -55 153 -55s66 12 66 36c0 65 -208 70 -208 204c0 80 68 131 168 131c49 0 98 -10 147 -31v-107c-44 25 -86 37 -127 37c-37 0 -56 -11 -56 -33c-1 -50 207 -54 206 -198c0 -77 -64 -136 -181 -136c-66 0 -122 13 -168 38zM213 690l153 -174h-105
l-61 74l-66 -74h-100l158 174h21z" />
    <glyph glyph-name="Scedilla" unicode="&#x15e;" horiz-adv-x="538" 
d="M371 -143c0 -53 -45 -102 -134 -102c-29 0 -58 5 -87 16v62c27 -12 54 -18 81 -18c33 0 57 17 57 42c0 24 -24 37 -53 37c-11 0 -23 -2 -35 -7c-3 1 -15 11 -19 15l44 87c-79 5 -143 23 -193 52v136c29 -22 64 -39 103 -52c40 -13 75 -19 106 -19c68 0 115 24 115 73
c0 45 -50 81 -111 108c-88 39 -206 89 -204 204c0 55 21 100 62 133c42 33 96 50 163 50c71 0 136 -14 197 -42v-128c-23 15 -52 28 -85 38s-62 15 -88 15c-59 0 -100 -21 -100 -65c0 -48 80 -67 157 -107c27 -14 53 -29 76 -45c47 -31 82 -89 82 -158
c0 -107 -80 -186 -225 -193l-23 -42c76 -4 114 -42 114 -90z" />
    <glyph glyph-name="scedilla" unicode="&#x15f;" horiz-adv-x="399" 
d="M295 -141c0 -53 -45 -102 -134 -102c-29 0 -58 5 -87 16v62c27 -12 54 -18 81 -18c33 0 57 17 57 42c0 24 -24 37 -53 37c-11 0 -23 -2 -35 -7c-3 1 -15 11 -19 15l45 88c-51 5 -93 17 -128 36v114c44 -33 109 -55 153 -55s66 12 66 36c0 65 -208 70 -208 204
c0 80 68 131 168 131c49 0 98 -10 147 -31v-107c-44 25 -86 37 -127 37c-37 0 -56 -11 -56 -33c-1 -50 207 -54 206 -198c0 -73 -59 -131 -167 -135l-23 -42c76 -4 114 -42 114 -90z" />
    <glyph glyph-name="Scaron" unicode="&#x160;" horiz-adv-x="538" 
d="M32 41v136c29 -22 64 -39 103 -52c40 -13 75 -19 106 -19c68 0 115 24 115 73c0 45 -50 81 -111 108c-88 39 -206 89 -204 204c0 55 21 100 62 133c42 33 96 50 163 50c71 0 136 -14 197 -42v-128c-23 15 -52 28 -85 38s-62 15 -88 15c-59 0 -100 -21 -100 -65
c0 -48 80 -67 157 -107c27 -14 53 -29 76 -45c47 -31 82 -89 82 -158c0 -56 -21 -102 -64 -139c-42 -37 -102 -55 -181 -55c-92 0 -168 18 -228 53zM261 807l63 71h108l-159 -164h-21l-164 164h105z" />
    <glyph glyph-name="scaron" unicode="&#x161;" horiz-adv-x="399" 
d="M22 28v114c44 -33 109 -55 153 -55s66 12 66 36c0 65 -208 70 -208 204c0 80 68 131 168 131c49 0 98 -10 147 -31v-107c-44 25 -86 37 -127 37c-37 0 -56 -11 -56 -33c-1 -50 207 -54 206 -198c0 -77 -64 -136 -181 -136c-66 0 -122 13 -168 38zM196 610l62 73h105
l-153 -174h-21l-158 174h100z" />
    <glyph glyph-name="Tcommaaccent" unicode="&#x162;" horiz-adv-x="559" 
d="M388 -141c0 -53 -45 -102 -134 -102c-29 0 -58 5 -87 16v62c27 -12 54 -18 81 -18c33 0 57 17 57 42c0 24 -24 37 -53 37c-11 0 -23 -2 -35 -7c-3 1 -15 11 -19 15c19 38 35 70 49 96h-42v546h-193v115h534v-115h-192v-546h-52l-28 -51c76 -4 114 -42 114 -90z" />
    <glyph glyph-name="tcommaaccent" unicode="&#x163;" horiz-adv-x="369" 
d="M292 -141c0 -53 -45 -102 -134 -102c-29 0 -58 5 -87 16v62c27 -12 54 -18 81 -18c33 0 57 17 57 42c0 24 -24 37 -53 37c-12 0 -24 -2 -35 -7c-3 1 -15 11 -19 15c23 45 40 79 52 101c-45 23 -68 69 -68 140v200h-69v75l84 27l97 144h22v-146h119v-100h-119v-177
c0 -48 17 -69 58 -69c23 0 49 8 76 24v-103c-33 -21 -72 -31 -117 -31c-13 0 -24 1 -35 3l-24 -43c76 -4 114 -42 114 -90z" />
    <glyph glyph-name="Tcaron" unicode="&#x164;" horiz-adv-x="559" 
d="M546 661v-115h-192v-546h-149v546h-193v115h534zM282 807l63 71h108l-159 -164h-21l-164 164h105z" />
    <glyph glyph-name="tcaron" unicode="&#x165;" horiz-adv-x="419" 
d="M95 447l97 144h22v-146h119v-100h-119v-177c0 -48 17 -69 58 -69c23 0 49 8 76 24v-103c-33 -21 -72 -31 -117 -31c-101 0 -151 52 -151 156v200h-69v75zM291 683c0 37 29 67 65 67c40 0 66 -30 66 -71c0 -25 -9 -56 -28 -92c-18 -36 -38 -68 -59 -95l-48 8l46 122
c-28 11 -42 31 -42 61z" />
    <glyph glyph-name="Tbar" unicode="&#x166;" horiz-adv-x="559" 
d="M546 661v-115h-192v-174h143v-67h-143v-305h-149v305h-143v67h143v174h-192v115h533z" />
    <glyph glyph-name="tbar" unicode="&#x167;" horiz-adv-x="371" 
d="M100 461l98 130h22v-146h119v-100h-119v-59h102v-58h-102c0 -9 1 -33 1 -44c0 -9 2 -30 3 -39c8 -29 17 -50 54 -50c23 0 49 8 76 24v-99c-33 -21 -72 -31 -117 -31c-107 0 -151 57 -151 181v58h-60v58h60v59h-69v75z" />
    <glyph glyph-name="Utilde" unicode="&#x168;" horiz-adv-x="701" 
d="M476 867l37 -55c-21 -55 -51 -83 -91 -83c-17 0 -41 8 -71 25s-51 25 -62 25c-20 0 -39 -18 -56 -55l-41 55c19 47 54 84 95 84c16 0 39 -9 68 -26c30 -17 51 -26 64 -26c19 0 38 19 57 56zM485 255v405h148v-398c0 -81 -24 -147 -73 -198c-49 -50 -119 -75 -210 -75
c-187 0 -283 105 -283 270v401h149v-400c0 -83 47 -149 135 -149c87 0 134 63 134 144z" />
    <glyph glyph-name="utilde" unicode="&#x169;" horiz-adv-x="550" 
d="M57 169v277h135v-258c0 -52 28 -92 73 -92c56 0 91 41 91 122v227h135v-445h-108l-16 61h-4c-35 -45 -83 -68 -143 -68c-109 0 -163 59 -163 176zM399 665l37 -55c-21 -55 -51 -83 -91 -83c-17 0 -41 8 -71 25s-51 25 -62 25c-20 0 -39 -18 -56 -55l-41 55
c19 47 54 84 95 84c16 0 39 -9 68 -26c30 -17 51 -26 64 -26c19 0 38 19 57 56z" />
    <glyph glyph-name="Umacron" unicode="&#x16a;" horiz-adv-x="701" 
d="M485 255v405h148v-398c0 -81 -24 -147 -73 -198c-49 -50 -119 -75 -210 -75c-187 0 -283 105 -283 270v401h149v-400c0 -83 47 -149 135 -149c87 0 134 63 134 144zM511 743h-317v86h317v-86z" />
    <glyph glyph-name="umacron" unicode="&#x16b;" horiz-adv-x="550" 
d="M57 169v277h135v-258c0 -52 28 -92 73 -92c56 0 91 41 91 122v227h135v-445h-108l-16 61h-4c-35 -45 -83 -68 -143 -68c-109 0 -163 59 -163 176zM432 544h-309v84h309v-84z" />
    <glyph glyph-name="Ubreve" unicode="&#x16c;" horiz-adv-x="701" 
d="M485 255v405h148v-398c0 -81 -24 -147 -73 -198c-49 -50 -119 -75 -210 -75c-187 0 -283 105 -283 270v401h149v-400c0 -83 47 -149 135 -149c87 0 134 63 134 144zM354 702c-96 0 -149 70 -153 161h70c1 -56 36 -88 85 -88c48 0 77 36 84 88h68c-2 -43 -16 -81 -42 -113
s-63 -48 -112 -48z" />
    <glyph glyph-name="ubreve" unicode="&#x16d;" horiz-adv-x="550" 
d="M57 169v277h135v-258c0 -52 28 -92 73 -92c56 0 91 41 91 122v227h135v-445h-108l-16 61h-4c-35 -45 -83 -68 -143 -68c-109 0 -163 59 -163 176zM273 512c-96 0 -149 70 -153 161h69c3 -56 37 -88 86 -88c48 0 77 36 84 88h68c-3 -44 -17 -82 -43 -114
c-25 -31 -62 -47 -111 -47z" />
    <glyph glyph-name="Uring" unicode="&#x16e;" horiz-adv-x="701" 
d="M352 709c-68 0 -116 48 -116 111c0 65 51 117 116 117c68 0 119 -52 119 -117c0 -63 -52 -111 -119 -111zM352 872c-25 0 -46 -24 -46 -52c0 -25 19 -46 46 -46c28 0 48 21 48 46c0 29 -20 52 -48 52zM485 255v405h148v-398c0 -81 -24 -147 -73 -198
c-49 -50 -119 -75 -210 -75c-187 0 -283 105 -283 270v401h149v-400c0 -83 47 -149 135 -149c87 0 134 63 134 144z" />
    <glyph glyph-name="uring" unicode="&#x16f;" horiz-adv-x="550" 
d="M276 505c-68 0 -116 48 -116 111c0 65 51 117 116 117c68 0 119 -52 119 -117c0 -63 -52 -111 -119 -111zM276 668c-25 0 -46 -24 -46 -52c0 -25 19 -46 46 -46c28 0 48 21 48 46c0 29 -20 52 -48 52zM57 169v277h135v-258c0 -52 28 -92 73 -92c56 0 91 41 91 122v227
h135v-445h-108l-16 61h-4c-35 -45 -83 -68 -143 -68c-109 0 -163 59 -163 176z" />
    <glyph glyph-name="Uhungarumlaut" unicode="&#x170;" horiz-adv-x="701" 
d="M485 255v405h148v-398c0 -81 -24 -147 -73 -198c-49 -50 -119 -75 -210 -75c-187 0 -283 105 -283 270v401h149v-400c0 -83 47 -149 135 -149c87 0 134 63 134 144zM584 846l-149 -128h-86l133 172zM439 846l-149 -128h-86l133 172z" />
    <glyph glyph-name="uhungarumlaut" unicode="&#x171;" horiz-adv-x="550" 
d="M57 169v277h135v-258c0 -52 28 -92 73 -92c56 0 91 41 91 122v227h135v-445h-108l-16 61h-4c-35 -45 -83 -68 -143 -68c-109 0 -163 59 -163 176zM485 661l-138 -136h-76l118 180zM345 661l-139 -136h-76l118 180z" />
    <glyph glyph-name="Uogonek" unicode="&#x172;" horiz-adv-x="701" 
d="M485 255v405h148v-398c0 -151 -86 -256 -245 -271c-45 -42 -68 -82 -68 -119c0 -33 19 -49 58 -49c30 0 63 10 99 30l-2 -61c-39 -23 -84 -35 -134 -35c-69 0 -107 30 -107 85c0 41 27 100 87 148c-168 11 -254 113 -254 269v401h149v-400c0 -83 47 -149 135 -149
c87 0 134 63 134 144z" />
    <glyph glyph-name="uogonek" unicode="&#x173;" horiz-adv-x="550" 
d="M57 169v277h135v-258c0 -52 28 -92 73 -92c56 0 91 41 91 122v227h135v-445h-66c-41 -37 -67 -82 -67 -117c0 -33 19 -49 58 -49c30 0 63 10 99 31l-3 -62c-39 -23 -84 -35 -134 -35c-69 0 -107 31 -107 86c0 45 32 112 108 161l-12 46h-4c-35 -46 -85 -69 -148 -69
c-105 0 -158 59 -158 177z" />
    <glyph glyph-name="Wcircumflex" unicode="&#x174;" horiz-adv-x="960" 
d="M654 -12l-175 391h-4l-171 -391h-22l-275 671h164l138 -331h4l155 339h21l160 -339h4l135 331h163l-275 -671h-22zM493 882l159 -165h-109l-63 69l-68 -69h-105l165 165h21z" />
    <glyph glyph-name="wcircumflex" unicode="&#x175;" horiz-adv-x="753" 
d="M245 234l121 220h20l128 -220h4l96 211h136l-209 -453h-23l-142 256l-138 -256h-24l-210 453h139l98 -211h4zM389 690l153 -174h-105l-61 74l-66 -74h-100l158 174h21z" />
    <glyph glyph-name="Ycircumflex" unicode="&#x176;" horiz-adv-x="611" 
d="M168 660l142 -278h4l130 278h159l-220 -399v-261h-149v261l-227 399h161zM326 882l159 -165h-109l-63 69l-68 -69h-105l165 165h21z" />
    <glyph glyph-name="ycircumflex" unicode="&#x177;" horiz-adv-x="492" 
d="M140 446l101 -284h6l104 284h134l-283 -662h-131l109 244l-177 418h137zM262 690l153 -174h-105l-61 74l-66 -74h-100l158 174h21z" />
    <glyph glyph-name="Ydieresis" unicode="&#x178;" horiz-adv-x="611" 
d="M282 786c0 -36 -27 -64 -63 -64c-37 0 -63 27 -63 62c0 37 30 64 63 64c36 0 63 -29 63 -62zM468 786c0 -36 -26 -64 -62 -64c-37 0 -62 27 -62 62c0 37 29 64 62 64c36 0 62 -29 62 -62zM168 660l142 -278h4l130 278h159l-220 -399v-261h-149v261l-227 399h161z" />
    <glyph glyph-name="Zacute" unicode="&#x179;" horiz-adv-x="577" 
d="M58 660h498v-16l-314 -530h305v-114h-530v15l317 530h-276v115zM467 846l-150 -128h-86l133 172z" />
    <glyph glyph-name="zacute" unicode="&#x17a;" horiz-adv-x="441" 
d="M43 445h380v-12l-222 -333h212v-100h-401v12l222 332h-191v101zM382 652l-138 -136h-77l119 179z" />
    <glyph glyph-name="Zdotaccent" unicode="&#x17b;" horiz-adv-x="577" 
d="M58 660h498v-16l-314 -530h305v-114h-530v15l317 530h-276v115zM388 803c0 -41 -31 -76 -74 -76c-44 0 -75 34 -75 74c0 43 35 75 75 75c43 0 74 -33 74 -73z" />
    <glyph glyph-name="zdotaccent" unicode="&#x17c;" horiz-adv-x="441" 
d="M43 445h380v-12l-222 -333h212v-100h-401v12l222 332h-191v101zM308 596c0 -41 -31 -76 -74 -76c-44 0 -75 34 -75 74c0 43 35 75 75 75c43 0 74 -33 74 -73z" />
    <glyph glyph-name="Zcaron" unicode="&#x17d;" horiz-adv-x="577" 
d="M58 660h498v-16l-314 -530h305v-114h-530v15l317 530h-276v115zM311 807l63 71h108l-159 -164h-21l-164 164h105z" />
    <glyph glyph-name="zcaron" unicode="&#x17e;" horiz-adv-x="441" 
d="M43 445h380v-12l-222 -333h212v-100h-401v12l222 332h-191v101zM231 610l62 73h105l-153 -174h-21l-158 174h100z" />
    <glyph glyph-name="longs" unicode="&#x17f;" horiz-adv-x="290" 
d="M378 713v-104c-25 9 -50 14 -74 14c-61 0 -91 -35 -91 -106v-517h-134v345h-74v87l74 14v74c0 132 71 207 203 207c32 0 64 -5 96 -14z" />
    <glyph glyph-name="florin" unicode="&#x192;" horiz-adv-x="572" 
d="M221 312h-80v91h90l8 73c13 132 73 198 180 198c34 0 68 -5 102 -16v-109c-23 7 -44 10 -63 10c-48 0 -75 -27 -83 -91l-7 -65h104v-91h-113l-17 -159c-10 -91 -30 -156 -59 -194c-29 -39 -73 -58 -132 -58c-34 0 -69 7 -104 20v115c28 -11 51 -16 70 -16
c29 0 50 12 61 36s21 71 29 140z" />
    <glyph glyph-name="AEacute" unicode="&#x1fc;" horiz-adv-x="945" 
d="M910 115v-115h-454v113h-219l-87 -113h-158l508 660h391v-115h-298v-146h266v-111h-266v-173h317zM459 410h-4l-161 -209h165v209zM759 846l-150 -128h-86l133 172z" />
    <glyph glyph-name="aeacute" unicode="&#x1fd;" horiz-adv-x="814" 
d="M558 461c139 0 223 -86 223 -229v-31h-318c4 -80 59 -117 135 -117c57 0 111 17 160 50v-97c-49 -32 -107 -48 -175 -48c-92 0 -157 29 -195 88c-42 -60 -106 -90 -193 -90c-107 0 -170 56 -170 129c0 96 77 153 190 154l107 1v10c0 54 -34 81 -102 81
c-46 0 -93 -13 -141 -38v101c51 23 109 35 172 35c73 0 125 -22 155 -66c41 45 92 67 152 67zM157 137c0 -39 28 -60 72 -60c60 0 95 47 95 112v10h-61c-64 0 -106 -13 -106 -62zM579 652l-138 -136h-77l119 179zM564 363c-57 0 -95 -34 -99 -93h194c-5 62 -36 93 -95 93z
" />
    <glyph glyph-name="Oslashacute" unicode="&#x1fe;" horiz-adv-x="799" 
d="M399 -12c-76 0 -142 17 -197 51l-31 -39h-62l53 66c-78 65 -117 153 -117 265c0 96 34 177 101 243c68 66 153 99 254 99c77 0 144 -19 203 -58l36 46h60l-59 -74c75 -66 113 -151 113 -256c0 -97 -33 -179 -100 -245c-66 -65 -151 -98 -254 -98zM191 331
c0 -65 19 -118 56 -159l275 344c-34 25 -74 37 -120 37c-62 0 -113 -21 -152 -64c-39 -42 -59 -95 -59 -158zM402 105c62 0 112 22 150 65c39 43 58 97 58 161c0 58 -18 108 -54 151l-274 -343c35 -23 75 -34 120 -34zM587 848l-150 -128h-86l133 172z" />
    <glyph glyph-name="oslashacute" unicode="&#x1ff;" horiz-adv-x="568" 
d="M285 459c57 0 106 -14 147 -41l25 27h53l-47 -53c47 -43 70 -99 70 -168c0 -68 -23 -124 -69 -168s-106 -66 -179 -66c-55 0 -103 12 -142 36l-23 -26h-55l45 50c-50 43 -75 101 -75 174c0 67 23 123 70 168s107 67 180 67zM287 357c-72 0 -121 -58 -121 -131
c0 -33 8 -61 23 -84l170 191c-21 16 -45 24 -72 24zM407 226c0 28 -7 53 -21 76l-170 -191c20 -13 44 -19 71 -19c72 0 120 57 120 134zM449 652l-138 -136h-77l119 179z" />
    <glyph glyph-name="Scommaaccent" unicode="&#x218;" horiz-adv-x="538" 
d="M32 41v136c29 -22 64 -39 103 -52c40 -13 75 -19 106 -19c68 0 115 24 115 73c0 45 -50 81 -111 108c-88 39 -206 89 -204 204c0 55 21 100 62 133c42 33 96 50 163 50c71 0 136 -14 197 -42v-128c-23 15 -52 28 -85 38s-62 15 -88 15c-59 0 -100 -21 -100 -65
c0 -48 80 -67 157 -107c27 -14 53 -29 76 -45c47 -31 82 -89 82 -158c0 -56 -21 -102 -64 -139c-42 -37 -102 -55 -181 -55c-92 0 -168 18 -228 53zM184 -110c0 37 29 67 65 67c40 0 66 -30 66 -71c0 -25 -9 -56 -28 -92c-18 -36 -38 -68 -59 -95l-48 8l46 122
c-28 11 -42 31 -42 61z" />
    <glyph glyph-name="scommaaccent" unicode="&#x219;" horiz-adv-x="399" 
d="M22 28v114c44 -33 109 -55 153 -55s66 12 66 36c0 65 -208 70 -208 204c0 80 68 131 168 131c49 0 98 -10 147 -31v-107c-44 25 -86 37 -127 37c-37 0 -56 -11 -56 -33c-1 -50 207 -54 206 -198c0 -77 -64 -136 -181 -136c-66 0 -122 13 -168 38zM126 -110
c0 37 29 67 65 67c40 0 66 -30 66 -71c0 -25 -9 -56 -28 -92c-18 -36 -38 -68 -59 -95l-48 8l46 122c-28 11 -42 31 -42 61z" />
    <glyph glyph-name="uni021A" unicode="&#x21a;" horiz-adv-x="559" 
d="M546 661v-115h-192v-546h-149v546h-193v115h534zM210 -108c0 37 29 67 65 67c40 0 66 -30 66 -71c0 -25 -9 -56 -28 -92c-18 -36 -38 -68 -59 -95l-48 8l46 122c-28 11 -42 31 -42 61z" />
    <glyph glyph-name="uni021B" unicode="&#x21b;" horiz-adv-x="369" 
d="M101 447l97 144h22v-146h119v-100h-119v-177c0 -48 17 -69 58 -69c23 0 49 8 76 24v-103c-33 -21 -72 -31 -117 -31c-101 0 -151 52 -151 156v200h-69v75zM105 -110c0 37 29 67 65 67c40 0 66 -30 66 -71c0 -25 -9 -56 -28 -92c-18 -36 -38 -68 -59 -95l-48 8l46 122
c-28 11 -42 31 -42 61z" />
    <glyph glyph-name="schwa" unicode="&#x259;" horiz-adv-x="532" 
d="M265 -11c-137 0 -222 92 -222 233c0 10 0 17 1 22h317c-4 81 -53 122 -132 122c-55 0 -109 -17 -160 -50v95c50 33 112 49 186 49c161 0 240 -96 240 -236c0 -67 -21 -123 -64 -168s-98 -67 -166 -67zM360 190h-195c5 -64 39 -103 95 -103s95 43 100 103z" />
    <glyph glyph-name="primemod" unicode="&#x2b9;" horiz-adv-x="256" 
d="M239 602l-145 -264h-74l125 308z" />
    <glyph glyph-name="circumflex" unicode="&#x2c6;" horiz-adv-x="507" 
d="M266 690l153 -174h-105l-61 74l-66 -74h-100l158 174h21z" />
    <glyph glyph-name="caron" unicode="&#x2c7;" horiz-adv-x="507" 
d="M253 610l62 73h105l-153 -174h-21l-158 174h100z" />
    <glyph glyph-name="breve" unicode="&#x2d8;" horiz-adv-x="527" 
d="M260 516c-96 0 -149 70 -153 161h69c3 -56 37 -88 86 -88c48 0 77 36 84 88h68c-3 -44 -17 -82 -43 -114c-25 -31 -62 -47 -111 -47z" />
    <glyph glyph-name="dotaccent" unicode="&#x2d9;" horiz-adv-x="505" 
d="M350 596c0 -41 -31 -76 -74 -76c-44 0 -75 34 -75 74c0 43 35 75 75 75c43 0 74 -33 74 -73z" />
    <glyph glyph-name="ring" unicode="&#x2da;" horiz-adv-x="511" 
d="M261 509c-68 0 -116 48 -116 111c0 65 51 117 116 117c68 0 119 -52 119 -117c0 -63 -52 -111 -119 -111zM261 672c-25 0 -46 -24 -46 -52c0 -25 19 -46 46 -46c28 0 48 21 48 46c0 29 -20 52 -48 52z" />
    <glyph glyph-name="ogonek" unicode="&#x2db;" horiz-adv-x="530" 
d="M379 44l21 -24c-52 -41 -90 -97 -90 -137c0 -33 19 -49 58 -49c30 0 63 10 99 30l-2 -61c-39 -23 -84 -35 -134 -35c-69 0 -107 30 -107 85c0 28 12 60 37 97c25 36 64 67 118 94z" />
    <glyph glyph-name="tilde" unicode="&#x2dc;" horiz-adv-x="507" 
d="M381 665l37 -55c-21 -55 -51 -83 -91 -83c-17 0 -41 8 -71 25s-51 25 -62 25c-20 0 -39 -18 -56 -55l-41 55c19 47 54 84 95 84c16 0 39 -9 68 -26c30 -17 51 -26 64 -26c19 0 38 19 57 56z" />
    <glyph glyph-name="hungarumlaut" unicode="&#x2dd;" horiz-adv-x="507" 
d="M467 661l-138 -136h-76l118 180zM327 661l-139 -136h-76l118 180z" />
    <glyph glyph-name="tonos" unicode="&#x384;" horiz-adv-x="507" 
d="M408 661l-138 -136h-77l119 180z" />
    <glyph glyph-name="dieresistonos" unicode="&#x385;" horiz-adv-x="532" 
d="M134 536c-37 0 -63 28 -63 63c0 36 30 62 63 62c36 0 62 -27 62 -62s-26 -63 -62 -63zM430 536c-37 0 -62 28 -62 63c0 36 29 62 62 62c36 0 62 -27 62 -62s-26 -63 -62 -63zM388 661l-138 -136h-77l119 180z" />
    <glyph glyph-name="Alphatonos" unicode="&#x386;" horiz-adv-x="662" 
d="M653 0h-151l-45 104h-253l-46 -104h-148l313 672h22zM334 389h-4l-81 -183h164zM197 646l-138 -136h-77l119 180z" />
    <glyph glyph-name="anoteleia" unicode="&#x387;" horiz-adv-x="257" 
d="M197 339c0 -39 -32 -71 -71 -71s-72 32 -72 71c0 40 33 72 72 72s71 -32 71 -72z" />
    <glyph glyph-name="Epsilontonos" unicode="&#x388;" horiz-adv-x="569" 
d="M216 115h317v-115h-466v660h447v-115h-298v-146h267v-111h-267v-173zM29 646l-138 -136h-77l119 180z" />
    <glyph glyph-name="Etatonos" unicode="&#x389;" horiz-adv-x="694" 
d="M626 660v-660h-149v285h-261v-285h-149v660h149v-259h261v259h149zM28 646l-138 -136h-77l119 180z" />
    <glyph glyph-name="Iotatonos" unicode="&#x38a;" horiz-adv-x="295" 
d="M221 660v-660h-149v660h149zM38 646l-138 -136h-77l119 180z" />
    <glyph glyph-name="Omicrontonos" unicode="&#x38c;" horiz-adv-x="799" 
d="M399 -11c-108 0 -194 32 -259 96c-64 65 -96 146 -96 245c0 96 34 177 101 243c68 66 153 99 255 99c103 0 188 -33 254 -99c66 -65 99 -146 99 -243s-33 -179 -100 -244c-66 -65 -151 -97 -254 -97zM401 549c-61 0 -110 -21 -149 -63s-58 -94 -58 -156
c0 -64 19 -117 56 -159c38 -42 88 -63 151 -63c61 0 111 21 148 64c38 43 57 95 57 158c0 62 -19 114 -57 156c-37 42 -87 63 -148 63zM83 646l-138 -136h-77l119 180z" />
    <glyph glyph-name="Upsilontonos" unicode="&#x38e;" horiz-adv-x="611" 
d="M168 660l142 -278h4l130 278h159l-220 -399v-261h-149v261l-227 399h161zM-7 646l-138 -136h-77l119 180z" />
    <glyph glyph-name="Omegatonos" unicode="&#x38f;" horiz-adv-x="795" 
d="M399 550c-63 0 -114 -22 -151 -67s-55 -100 -55 -167c0 -57 13 -114 38 -172c26 -58 60 -100 102 -126v-18h-301v114h98c1 1 2 3 2 4c-56 63 -84 138 -84 227c0 95 33 173 98 235s150 93 253 93c102 0 185 -31 250 -93c65 -61 97 -138 97 -230c0 -88 -28 -165 -85 -232
c1 -1 1 -2 1 -4h97v-114h-301v18c45 25 81 66 106 123s38 115 38 173c0 66 -18 122 -54 167c-35 46 -85 69 -149 69zM74 645l-138 -136h-77l119 180z" />
    <glyph glyph-name="iotadieresistonos" unicode="&#x390;" horiz-adv-x="259" 
d="M-9 536c-37 0 -63 28 -63 63c0 36 30 62 63 62c36 0 62 -27 62 -62s-26 -63 -62 -63zM287 536c-37 0 -62 28 -62 63c0 36 29 62 62 62c36 0 62 -27 62 -62s-26 -63 -62 -63zM245 661l-138 -136h-77l119 180zM198 446v-446h-137v446h137z" />
    <glyph glyph-name="Alpha" unicode="&#x391;" horiz-adv-x="662" 
d="M653 0h-151l-45 104h-253l-46 -104h-148l313 672h22zM334 389h-4l-81 -183h164z" />
    <glyph glyph-name="Beta" unicode="&#x392;" horiz-adv-x="639" 
d="M479 360v-4c77 -28 115 -93 115 -162c0 -55 -20 -101 -59 -138s-89 -56 -150 -56h-317v661h294c57 0 104 -15 139 -46c36 -30 54 -70 54 -119c0 -52 -27 -105 -76 -136zM451 206c0 55 -42 88 -110 88h-128v-179h135c76 0 103 43 103 91zM329 549h-116v-149h111
c47 0 91 18 91 73c0 45 -31 76 -86 76z" />
    <glyph glyph-name="Gamma" unicode="&#x393;" horiz-adv-x="535" 
d="M519 545h-303v-545h-149v660h452v-115z" />
    <glyph glyph-name="increment" unicode="&#x394;" horiz-adv-x="676" 
d="M329 672h21l314 -672h-652zM335 428h-2l-140 -313h284z" />
    <glyph glyph-name="increment" unicode="&#x2206;" horiz-adv-x="676" 
d="M329 672h21l314 -672h-652zM335 428h-2l-140 -313h284z" />
    <glyph glyph-name="Epsilon" unicode="&#x395;" horiz-adv-x="569" 
d="M216 115h317v-115h-466v660h447v-115h-298v-146h267v-111h-267v-173z" />
    <glyph glyph-name="Zeta" unicode="&#x396;" horiz-adv-x="577" 
d="M58 660h498v-16l-314 -530h305v-114h-530v15l317 530h-276v115z" />
    <glyph glyph-name="Eta" unicode="&#x397;" horiz-adv-x="694" 
d="M626 660v-660h-149v285h-261v-285h-149v660h149v-259h261v259h149z" />
    <glyph glyph-name="Theta" unicode="&#x398;" horiz-adv-x="799" 
d="M399 -12c-107 0 -193 32 -258 97s-97 146 -97 245c0 97 34 178 101 244c68 67 153 100 255 100c103 0 188 -33 254 -99c67 -66 100 -148 100 -245s-33 -179 -100 -244s-152 -98 -255 -98zM194 330c0 -64 19 -117 56 -160c38 -42 88 -63 151 -63c62 0 112 21 149 64
c38 43 57 96 57 159s-19 115 -57 157s-88 63 -149 63s-111 -21 -150 -63c-38 -42 -57 -94 -57 -157zM537 282h-275v112h275v-112z" />
    <glyph glyph-name="Iota" unicode="&#x399;" horiz-adv-x="295" 
d="M221 660v-660h-149v660h149z" />
    <glyph glyph-name="Kappa" unicode="&#x39a;" horiz-adv-x="645" 
d="M67 660h150v-303l240 303h162l-259 -318l277 -342h-172l-248 327v-327h-150v660z" />
    <glyph glyph-name="Lambda" unicode="&#x39b;" horiz-adv-x="662" 
d="M653 0h-151l-170 391h-4l-173 -391h-145l313 671h22z" />
    <glyph glyph-name="Mu" unicode="&#x39c;" horiz-adv-x="815" 
d="M599 323l-180 -201h-22l-184 201c-1 -1 -2 -1 -3 -1v-322h-143v671h22l319 -369l318 369h21v-671h-144v322c-1 1 -2 1 -4 1z" />
    <glyph glyph-name="Nu" unicode="&#x39d;" horiz-adv-x="721" 
d="M215 381v-381h-148v673h22c47 -46 116 -110 207 -193c91 -82 160 -145 205 -189h4v369h148v-671h-21l-414 392h-3z" />
    <glyph glyph-name="Xi" unicode="&#x39e;" horiz-adv-x="610" 
d="M564 661v-116h-519v116h519zM35 0v117h540v-117h-540zM100 289v112h417v-112h-417z" />
    <glyph glyph-name="Omicron" unicode="&#x39f;" horiz-adv-x="799" 
d="M399 -11c-108 0 -194 32 -259 96c-64 65 -96 146 -96 245c0 96 34 177 101 243c68 66 153 99 255 99c103 0 188 -33 254 -99c66 -65 99 -146 99 -243s-33 -179 -100 -244c-66 -65 -151 -97 -254 -97zM401 549c-61 0 -110 -21 -149 -63s-58 -94 -58 -156
c0 -64 19 -117 56 -159c38 -42 88 -63 151 -63c61 0 111 21 148 64c38 43 57 95 57 158c0 62 -19 114 -57 156c-37 42 -87 63 -148 63z" />
    <glyph glyph-name="Pi" unicode="&#x3a0;" horiz-adv-x="698" 
d="M629 660v-660h-149v545h-264v-545h-149v660h562z" />
    <glyph glyph-name="Rho" unicode="&#x3a1;" horiz-adv-x="590" 
d="M216 0h-150v659h253c80 0 142 -22 185 -65s65 -95 65 -156c0 -65 -23 -118 -68 -161s-103 -64 -175 -64h-110v-213zM294 548h-79v-224h78c91 0 127 51 127 111c0 63 -43 113 -126 113z" />
    <glyph glyph-name="Sigma" unicode="&#x3a3;" horiz-adv-x="586" 
d="M253 545l124 -196l-137 -235h333v-114h-556v15l195 331l-185 298v16h528v-115h-302z" />
    <glyph glyph-name="Tau" unicode="&#x3a4;" horiz-adv-x="559" 
d="M546 661v-115h-192v-546h-149v546h-193v115h534z" />
    <glyph glyph-name="Upsilon" unicode="&#x3a5;" horiz-adv-x="611" 
d="M168 660l142 -278h4l130 278h159l-220 -399v-261h-149v261l-227 399h161z" />
    <glyph glyph-name="Phi" unicode="&#x3a6;" horiz-adv-x="884" 
d="M841 341c0 -76 -29 -139 -88 -190c-58 -51 -137 -80 -238 -89v-62h-146v62c-101 5 -181 32 -240 83s-88 116 -88 196c0 77 31 141 92 192c62 52 141 80 236 85v42h147v-42c95 -5 173 -33 234 -86c61 -52 91 -116 91 -191zM699 341c0 46 -17 85 -52 118
c-34 33 -78 51 -133 54v-345c112 7 185 77 185 173zM369 168v345c-111 -9 -184 -80 -184 -173c0 -92 68 -160 184 -172z" />
    <glyph glyph-name="Chi" unicode="&#x3a7;" horiz-adv-x="671" 
d="M662 0h-161l-166 317l-168 -317h-160l196 341l-183 318h160l155 -296l154 296h161l-185 -318z" />
    <glyph glyph-name="Psi" unicode="&#x3a8;" horiz-adv-x="825" 
d="M486 175v-175h-149v175c-92 5 -162 32 -210 83s-72 118 -72 199v203h149v-206c0 -38 11 -72 34 -103c23 -30 56 -47 99 -51v360h149v-360c87 7 134 69 134 149v211h149v-200c0 -81 -25 -147 -74 -199c-49 -51 -118 -80 -209 -86z" />
    <glyph glyph-name="Omega" unicode="&#x3a9;" horiz-adv-x="795" 
d="M399 550c-63 0 -114 -22 -151 -67s-55 -100 -55 -167c0 -57 13 -114 38 -172c26 -58 60 -100 102 -126v-18h-301v114h98c1 1 2 3 2 4c-56 63 -84 138 -84 227c0 95 33 173 98 235s150 93 253 93c102 0 185 -31 250 -93c65 -61 97 -138 97 -230c0 -88 -28 -165 -85 -232
c1 -1 1 -2 1 -4h97v-114h-301v18c45 25 81 66 106 123s38 115 38 173c0 66 -18 122 -54 167c-35 46 -85 69 -149 69z" />
    <glyph glyph-name="Iotadieresis" unicode="&#x3aa;" horiz-adv-x="295" 
d="M221 660v-660h-149v660h149zM118 794c0 -36 -27 -64 -63 -64c-37 0 -63 27 -63 62c0 37 30 64 63 64c36 0 63 -29 63 -62zM304 794c0 -36 -26 -64 -62 -64c-37 0 -62 27 -62 62c0 37 29 64 62 64c36 0 62 -29 62 -62z" />
    <glyph glyph-name="Upsilondieresis" unicode="&#x3ab;" horiz-adv-x="611" 
d="M282 782c0 -36 -27 -64 -63 -64c-37 0 -63 27 -63 62c0 37 30 64 63 64c36 0 63 -29 63 -62zM468 782c0 -36 -26 -64 -62 -64c-37 0 -62 27 -62 62c0 37 29 64 62 64c36 0 62 -29 62 -62zM168 660l142 -278h4l130 278h159l-220 -399v-261h-149v261l-227 399h161z" />
    <glyph glyph-name="alphatonos" unicode="&#x3ac;" horiz-adv-x="595" 
d="M170 224c0 -76 44 -128 116 -128c71 0 116 55 116 128c0 72 -47 125 -116 125s-116 -54 -116 -125zM269 457c69 0 122 -22 159 -67l20 56h89v-446h-103l-12 56c-1 0 -3 1 -4 1c-40 -43 -93 -65 -158 -65c-141 0 -225 86 -225 226c0 67 21 124 64 170s100 69 170 69z
M429 661l-138 -136h-77l119 180z" />
    <glyph glyph-name="epsilontonos" unicode="&#x3ad;" horiz-adv-x="421" 
d="M222 -10c-128 0 -192 53 -192 128c0 45 27 92 82 116v4c-48 16 -73 52 -73 91c0 76 69 131 188 131c51 0 100 -9 149 -28v-108c-34 21 -76 32 -127 32c-45 0 -79 -15 -79 -44c0 -19 15 -28 44 -28h71v-94h-43c-51 0 -75 -21 -75 -50c0 -27 28 -47 88 -47
c51 0 98 15 141 45v-109c-49 -26 -107 -39 -174 -39zM360 661l-138 -136h-77l119 180z" />
    <glyph glyph-name="etatonos" unicode="&#x3ae;" horiz-adv-x="559" 
d="M499 283v-283h-135v255c0 55 -29 95 -74 95c-57 0 -98 -41 -98 -121v-229h-135v445h105c3 -8 6 -20 9 -35s5 -24 6 -26h4c39 48 92 72 159 72c103 0 159 -65 159 -173zM404 661l-138 -136h-77l119 180z" />
    <glyph glyph-name="iotatonos" unicode="&#x3af;" horiz-adv-x="259" 
d="M198 446v-446h-137v446h137zM287 661l-138 -136h-77l119 180z" />
    <glyph glyph-name="upsilondieresistonos" unicode="&#x3b0;" horiz-adv-x="548" 
d="M134 536c-37 0 -63 28 -63 63c0 36 30 62 63 62c36 0 62 -27 62 -62s-26 -63 -62 -63zM430 536c-37 0 -62 28 -62 63c0 36 29 62 62 62c36 0 62 -27 62 -62s-26 -63 -62 -63zM388 661l-138 -136h-77l119 180zM356 201v244h137v-228c0 -79 -22 -136 -65 -173
c-43 -36 -97 -54 -160 -54c-135 0 -213 73 -213 201v254h134v-252c0 -55 27 -97 83 -97s84 35 84 105z" />
    <glyph glyph-name="alpha" unicode="&#x3b1;" horiz-adv-x="595" 
d="M170 224c0 -76 44 -128 116 -128c71 0 116 55 116 128c0 72 -47 125 -116 125s-116 -54 -116 -125zM269 457c69 0 122 -22 159 -67l20 56h89v-446h-103l-12 56c-1 0 -3 1 -4 1c-40 -43 -93 -65 -158 -65c-141 0 -225 86 -225 226c0 67 21 124 64 170s100 69 170 69z" />
    <glyph glyph-name="beta" unicode="&#x3b2;" horiz-adv-x="583" 
d="M183 42v-253h-137v642c0 163 60 294 239 294c64 0 115 -17 153 -50c39 -33 58 -76 58 -127c0 -48 -22 -103 -79 -130v-5c84 -29 130 -106 130 -193c0 -66 -21 -121 -63 -165c-41 -43 -93 -65 -156 -65c-58 0 -105 18 -140 53c-3 0 -4 0 -5 -1zM295 94
c71 0 116 56 116 135c0 91 -64 129 -148 129v84c71 4 103 40 103 89c0 44 -41 84 -85 84c-67 0 -100 -45 -100 -136v-253c0 -73 39 -132 114 -132z" />
    <glyph glyph-name="gamma" unicode="&#x3b3;" horiz-adv-x="509" 
d="M196 317l58 -158h5l49 138l55 148h138l-175 -437v-112c1 -50 1 -88 1 -113h-138l2 225l-185 437h144z" />
    <glyph glyph-name="delta" unicode="&#x3b4;" horiz-adv-x="570" 
d="M403 232c0 75 -40 125 -120 148c-72 -13 -113 -79 -113 -148c0 -77 41 -135 117 -135c35 0 63 13 84 40s32 58 32 95zM298 725c68 0 123 -12 166 -36v-109c-48 27 -99 40 -153 40c-53 0 -85 -20 -85 -53c0 -48 78 -62 154 -106c27 -15 51 -31 74 -48
c45 -35 80 -101 80 -182c0 -69 -23 -126 -68 -172s-106 -69 -181 -69c-77 0 -138 22 -183 66s-67 101 -67 171c0 45 12 87 37 126c25 40 58 69 101 86v5c-51 27 -77 68 -77 122c0 45 18 83 54 113c37 31 86 46 148 46z" />
    <glyph glyph-name="epsilon" unicode="&#x3b5;" horiz-adv-x="421" 
d="M222 -10c-128 0 -192 53 -192 128c0 45 27 92 82 116v4c-48 16 -73 52 -73 91c0 76 69 131 188 131c51 0 100 -9 149 -28v-108c-34 21 -76 32 -127 32c-45 0 -79 -15 -79 -44c0 -19 15 -28 44 -28h71v-94h-43c-51 0 -75 -21 -75 -50c0 -27 28 -47 88 -47
c51 0 98 15 141 45v-109c-49 -26 -107 -39 -174 -39z" />
    <glyph glyph-name="zeta" unicode="&#x3b6;" horiz-adv-x="427" 
d="M290 606c0 1 -1 5 -2 6h-223v100h443v-14c-95 -90 -175 -181 -242 -272s-100 -160 -100 -208c0 -24 11 -43 40 -62c15 -9 28 -17 41 -24l58 -26c25 -11 46 -21 62 -29c59 -29 85 -53 85 -86c0 -22 -13 -51 -39 -87c-25 -37 -54 -68 -86 -94l-87 42c17 20 30 35 37 45
c16 19 33 45 33 58c0 16 -15 24 -66 45l-19 8c-129 56 -193 107 -193 199c0 52 25 115 74 188s111 144 184 211z" />
    <glyph glyph-name="eta" unicode="&#x3b7;" horiz-adv-x="557" 
d="M499 283v-283h-135v255c0 55 -29 95 -74 95c-57 0 -98 -41 -98 -121v-229h-135v445h105c3 -8 6 -20 9 -35s5 -24 6 -26h4c39 48 92 72 159 72c103 0 159 -65 159 -173z" />
    <glyph glyph-name="theta" unicode="&#x3b8;" horiz-adv-x="576" 
d="M535 353c0 -95 -17 -177 -54 -248c-36 -71 -105 -115 -197 -115c-184 0 -246 171 -246 363c0 67 8 128 23 181c15 54 42 99 80 136c39 37 87 55 145 55c91 0 160 -46 196 -119c37 -72 53 -156 53 -253zM173 417h229c-2 57 -13 104 -33 141s-48 56 -83 56s-63 -19 -82 -57
c-19 -37 -29 -84 -31 -140zM405 323h-233c3 -149 41 -224 113 -224c81 0 117 91 120 224z" />
    <glyph glyph-name="iota" unicode="&#x3b9;" horiz-adv-x="259" 
d="M198 446v-446h-137v446h137z" />
    <glyph glyph-name="kappa" unicode="&#x3ba;" horiz-adv-x="533" 
d="M366 445h148l-185 -212l198 -233h-154l-177 217v-217h-139v445h139v-200z" />
    <glyph glyph-name="lambda" unicode="&#x3bb;" horiz-adv-x="511" 
d="M362 0l-102 291h-5l-114 -291h-134l191 442l-103 276h134l274 -718h-141z" />
    <glyph glyph-name="nu" unicode="&#x3bd;" horiz-adv-x="524" 
d="M513 445l-240 -453h-24l-240 453h146l49 -98l57 -122h4c3 8 19 42 46 101l54 119h148z" />
    <glyph glyph-name="xi" unicode="&#x3be;" horiz-adv-x="450" 
d="M297 620c-69 0 -110 -37 -110 -86c0 -60 47 -91 119 -91h92v-95h-109c-77 0 -116 -44 -116 -109c0 -19 7 -36 15 -49c8 -12 28 -27 40 -38c13 -9 44 -26 60 -34c17 -8 57 -27 74 -36c68 -33 98 -60 98 -96c0 -41 -39 -96 -116 -166l-86 42c41 47 62 79 62 98
c0 8 -7 16 -21 25c-14 8 -42 22 -85 41c-119 53 -178 103 -178 195c0 77 41 148 124 180v5c-76 21 -109 80 -109 140c0 47 19 89 57 124c38 36 93 54 164 54c65 0 120 -11 165 -34v-109c-43 26 -89 39 -140 39z" />
    <glyph glyph-name="omicron" unicode="&#x3bf;" horiz-adv-x="568" 
d="M285 459c75 0 135 -22 180 -67c45 -44 68 -100 68 -168s-23 -124 -69 -168s-106 -66 -179 -66c-77 0 -138 22 -183 65c-45 44 -67 100 -67 169c0 67 23 123 70 168s107 67 180 67zM286 351c-69 0 -116 -54 -116 -125c0 -76 44 -128 116 -128s117 55 117 128
c0 71 -46 125 -117 125z" />
    <glyph glyph-name="pi" unicode="&#x3c0;" horiz-adv-x="561" 
d="M502 446v-446h-135v341h-175v-341h-135v446h445z" />
    <glyph glyph-name="rho" unicode="&#x3c1;" horiz-adv-x="589" 
d="M186 39l-5 -3v-247h-136v399c0 79 23 144 68 194c45 51 108 76 187 76c75 0 135 -22 181 -67c47 -45 70 -102 70 -171c0 -67 -21 -122 -63 -165s-96 -64 -163 -64c-55 0 -102 16 -139 48zM417 223c0 75 -45 129 -117 129s-119 -57 -119 -132c0 -69 45 -125 118 -125
c69 0 118 52 118 128z" />
    <glyph glyph-name="sigma1" unicode="&#x3c2;" horiz-adv-x="448" 
d="M35 223c0 68 21 124 62 168c42 45 103 67 183 67c53 0 98 -9 135 -28v-105c-31 19 -70 28 -117 28c-79 0 -129 -47 -129 -119c0 -57 31 -92 127 -136c88 -41 124 -68 124 -104c0 -43 -40 -94 -120 -153l-85 42c39 41 59 68 59 79c0 15 -30 20 -117 67
c-85 44 -122 103 -122 194z" />
    <glyph glyph-name="sigma" unicode="&#x3c3;" horiz-adv-x="579" 
d="M562 345l-88 3l-2 -4c39 -29 61 -88 61 -139c0 -61 -22 -112 -67 -153s-105 -62 -180 -62c-79 0 -140 22 -183 65s-65 97 -65 160c0 66 23 121 69 165s106 66 179 66h276v-101zM292 347c-71 0 -118 -55 -118 -126c0 -73 43 -125 114 -125s115 53 115 126
c0 69 -42 121 -111 125z" />
    <glyph glyph-name="tau" unicode="&#x3c4;" horiz-adv-x="398" 
d="M7 345v100c81 0 203 1 366 2v-102h-132v-177c0 -49 19 -73 57 -73c24 0 49 8 76 24v-99c-31 -21 -70 -31 -116 -31c-108 0 -152 55 -152 175v181h-99z" />
    <glyph glyph-name="upsilon" unicode="&#x3c5;" horiz-adv-x="548" 
d="M356 201v244h137v-228c0 -79 -22 -136 -65 -173c-43 -36 -97 -54 -160 -54c-135 0 -213 73 -213 201v254h134v-252c0 -55 27 -97 83 -97s84 35 84 105z" />
    <glyph glyph-name="phi" unicode="&#x3c6;" horiz-adv-x="741" 
d="M37 220c0 107 67 194 190 222l43 -72c-67 -23 -101 -78 -101 -143c0 -34 12 -65 37 -93c25 -27 59 -42 100 -43v362h132c79 0 143 -21 192 -63s74 -97 74 -166c0 -63 -25 -118 -75 -163c-49 -45 -114 -69 -193 -72v-207h-133l2 208c-87 4 -154 28 -200 73
c-45 45 -68 97 -68 157zM576 222c0 73 -43 130 -142 134v-267c43 3 77 17 103 42s39 56 39 91z" />
    <glyph glyph-name="chi" unicode="&#x3c7;" horiz-adv-x="514" 
d="M367 0l-110 209l-110 -209h-139l129 229l-122 216h138l104 -196l104 196h138l-122 -216l129 -229h-139z" />
    <glyph glyph-name="psi" unicode="&#x3c8;" horiz-adv-x="727" 
d="M430 -218h-135v206c-73 4 -131 28 -175 71c-43 43 -65 101 -65 173v213h132v-223c0 -35 10 -66 31 -91s47 -38 77 -38v352h134v-352c69 1 108 50 108 131v221h134v-212c0 -65 -21 -122 -64 -169s-102 -72 -178 -76v-102c1 -46 1 -81 1 -104z" />
    <glyph glyph-name="omega" unicode="&#x3c9;" horiz-adv-x="770" 
d="M732 220c0 -64 -18 -118 -53 -163c-35 -44 -85 -66 -150 -66c-69 0 -117 23 -145 70h-5c-37 -47 -85 -70 -145 -70c-128 0 -198 91 -198 226c0 133 78 231 215 240l34 -91c-68 -7 -111 -67 -111 -146c0 -81 27 -122 81 -122c48 0 74 38 74 86v117h110v-120
c0 -52 32 -83 72 -83c52 0 84 43 84 122c0 77 -45 139 -110 146l35 91c137 -9 212 -104 212 -237z" />
    <glyph glyph-name="iotadieresis" unicode="&#x3ca;" horiz-adv-x="259" 
d="M40 536c-37 0 -63 28 -63 63c0 36 30 62 63 62c36 0 62 -27 62 -62s-26 -63 -62 -63zM226 536c-37 0 -62 28 -62 63c0 36 29 62 62 62c36 0 62 -27 62 -62s-26 -63 -62 -63zM198 446v-446h-137v446h137z" />
    <glyph glyph-name="upsilondieresis" unicode="&#x3cb;" horiz-adv-x="548" 
d="M183 536c-37 0 -63 28 -63 63c0 36 30 62 63 62c36 0 62 -27 62 -62s-26 -63 -62 -63zM369 536c-37 0 -62 28 -62 63c0 36 29 62 62 62c36 0 62 -27 62 -62s-26 -63 -62 -63zM356 201v244h137v-228c0 -79 -22 -136 -65 -173c-43 -36 -97 -54 -160 -54
c-135 0 -213 73 -213 201v254h134v-252c0 -55 27 -97 83 -97s84 35 84 105z" />
    <glyph glyph-name="omicrontonos" unicode="&#x3cc;" horiz-adv-x="573" 
d="M287 459c75 0 135 -22 180 -67c45 -44 68 -100 68 -168s-23 -124 -69 -168s-106 -66 -179 -66c-77 0 -138 22 -183 65c-45 44 -67 100 -67 169c0 67 23 123 70 168s107 67 180 67zM288 351c-69 0 -116 -54 -116 -125c0 -76 44 -128 116 -128s117 55 117 128
c0 71 -46 125 -117 125zM448 661l-138 -136h-77l119 180z" />
    <glyph glyph-name="upsilontonos" unicode="&#x3cd;" horiz-adv-x="555" 
d="M362 201v244h137v-228c0 -79 -22 -136 -65 -173c-43 -36 -97 -54 -160 -54c-135 0 -213 73 -213 201v254h134v-252c0 -55 27 -97 83 -97s84 35 84 105zM428 661l-138 -136h-77l119 180z" />
    <glyph glyph-name="omegatonos" unicode="&#x3ce;" horiz-adv-x="770" 
d="M732 220c0 -64 -18 -118 -53 -163c-35 -44 -85 -66 -150 -66c-69 0 -117 23 -145 70h-5c-37 -47 -85 -70 -145 -70c-128 0 -198 91 -198 226c0 133 78 231 215 240l34 -91c-68 -7 -111 -67 -111 -146c0 -81 27 -122 81 -122c48 0 74 38 74 86v117h110v-120
c0 -52 32 -83 72 -83c52 0 84 43 84 122c0 77 -45 139 -110 146l35 91c137 -9 212 -104 212 -237zM542 657l-138 -136h-77l119 180z" />
    <glyph glyph-name="afii10023" unicode="&#x401;" horiz-adv-x="569" 
d="M265 794c0 -36 -27 -64 -63 -64c-37 0 -63 27 -63 62c0 37 30 64 63 64c36 0 63 -29 63 -62zM451 794c0 -36 -26 -64 -62 -64c-37 0 -62 27 -62 62c0 37 29 64 62 64c36 0 62 -29 62 -62zM216 115h317v-115h-466v660h447v-115h-298v-146h267v-111h-267v-173z" />
    <glyph glyph-name="afii10051" unicode="&#x402;" horiz-adv-x="824" 
d="M566 661v-115h-212v-167c56 22 112 33 169 33c78 0 141 -22 188 -65c48 -43 72 -102 72 -177c0 -69 -19 -130 -57 -184c-37 -54 -85 -94 -142 -121l-90 64c91 48 137 133 137 216c0 96 -54 160 -153 160c-41 0 -82 -9 -124 -26v-279h-149v546h-193v115h554z" />
    <glyph glyph-name="afii10052" unicode="&#x403;" horiz-adv-x="535" 
d="M519 545h-303v-545h-149v660h452v-115zM441 846l-150 -128h-86l133 172z" />
    <glyph glyph-name="afii10053" unicode="&#x404;" horiz-adv-x="622" 
d="M588 153v-127c-53 -25 -117 -37 -191 -37c-111 0 -197 31 -260 94c-62 63 -93 145 -93 244c0 97 33 179 98 246c66 67 152 100 259 100c67 0 123 -10 167 -29v-124c-46 21 -95 31 -146 31c-105 0 -192 -59 -213 -156h269v-103h-278c9 -116 90 -184 214 -184
c59 0 117 15 174 45z" />
    <glyph glyph-name="afii10054" unicode="&#x405;" horiz-adv-x="538" 
d="M32 41v136c29 -22 64 -39 103 -52c40 -13 75 -19 106 -19c68 0 115 24 115 73c0 45 -50 81 -111 108c-88 39 -206 89 -204 204c0 55 21 100 62 133c42 33 96 50 163 50c71 0 136 -14 197 -42v-128c-23 15 -52 28 -85 38s-62 15 -88 15c-59 0 -100 -21 -100 -65
c0 -48 80 -67 157 -107c27 -14 53 -29 76 -45c47 -31 82 -89 82 -158c0 -56 -21 -102 -64 -139c-42 -37 -102 -55 -181 -55c-92 0 -168 18 -228 53z" />
    <glyph glyph-name="afii10055" unicode="&#x406;" horiz-adv-x="295" 
d="M221 660v-660h-149v660h149z" />
    <glyph glyph-name="afii10056" unicode="&#x407;" horiz-adv-x="324" 
d="M132 794c0 -36 -27 -64 -63 -64c-37 0 -63 27 -63 62c0 37 30 64 63 64c36 0 63 -29 63 -62zM318 794c0 -36 -26 -64 -62 -64c-37 0 -62 27 -62 62c0 37 29 64 62 64c36 0 62 -29 62 -62zM234 660v-660h-149v660h149z" />
    <glyph glyph-name="afii10057" unicode="&#x408;" horiz-adv-x="497" 
d="M148 108c96 0 130 55 130 158v394h151v-381c0 -65 -6 -113 -27 -166c-30 -74 -98 -125 -230 -125c-61 0 -113 11 -158 34v125c46 -26 91 -39 134 -39z" />
    <glyph glyph-name="afii10058" unicode="&#x409;" horiz-adv-x="1036" 
d="M460 552h-159l-27 -287c-7 -67 -11 -105 -31 -157c-26 -72 -77 -113 -184 -131l-57 103c47 10 79 26 96 48s28 58 33 108l37 424h441v-250h140c205 0 249 -129 249 -211c0 -61 -21 -110 -63 -146c-42 -35 -94 -53 -156 -53h-319v552zM737 306h-128v-196h136
c61 0 104 36 104 97s-48 99 -112 99z" />
    <glyph glyph-name="afii10059" unicode="&#x40a;" horiz-adv-x="1044" 
d="M787 0h-321v299h-249v-299h-149v661h149v-257h249v257h150v-256h140c97 0 169 -30 202 -75c35 -44 48 -86 48 -133c0 -61 -21 -109 -63 -144c-41 -35 -93 -53 -156 -53zM744 301h-128v-190h136c63 0 104 32 104 93c0 63 -47 97 -112 97z" />
    <glyph glyph-name="afii10060" unicode="&#x40b;" horiz-adv-x="810" 
d="M562 661v-115h-208v-170c63 21 125 31 184 31c135 0 209 -65 209 -188v-219h-150v179c0 76 -33 114 -118 114c-40 0 -82 -8 -125 -24v-269h-149v546h-193v115h550z" />
    <glyph glyph-name="afii10061" unicode="&#x40c;" horiz-adv-x="645" 
d="M67 660h150v-303l240 303h162l-257 -318c21 -21 66 -78 136 -170c71 -92 117 -149 139 -172h-168c-21 22 -64 77 -127 164s-105 142 -125 163v-327h-150v660zM485 848l-150 -128h-86l133 172z" />
    <glyph glyph-name="afii10062" unicode="&#x40e;" horiz-adv-x="620" 
d="M239 145l7 16l-241 499h160l142 -353h4l151 353h153l-253 -554c-43 -92 -101 -124 -178 -124c-40 0 -80 9 -120 27v121c44 -23 79 -34 104 -34c33 0 56 16 71 49zM319 712c-48 0 -85 15 -112 46c-26 31 -40 69 -41 113h69c3 -55 37 -88 86 -88c48 0 77 37 84 88h68
c-3 -43 -17 -81 -43 -112c-25 -31 -62 -47 -111 -47z" />
    <glyph glyph-name="afii10145" unicode="&#x40f;" horiz-adv-x="703" 
d="M485 114v546h149v-660h-217v-163h-132v163h-218v660h150v-546h268z" />
    <glyph glyph-name="afii10017" unicode="&#x410;" horiz-adv-x="662" 
d="M653 0h-151l-45 104h-253l-46 -104h-148l313 672h22zM334 389h-4l-81 -183h164z" />
    <glyph glyph-name="afii10018" unicode="&#x411;" horiz-adv-x="645" 
d="M343 0h-276v660h468v-109h-317v-142h139c205 0 250 -129 250 -211c0 -69 -25 -120 -75 -151c-49 -31 -112 -47 -189 -47zM345 305h-127v-195h97c41 0 69 4 97 16c29 12 45 39 45 80c0 63 -47 99 -112 99z" />
    <glyph glyph-name="afii10019" unicode="&#x412;" horiz-adv-x="639" 
d="M479 360v-4c77 -28 115 -93 115 -162c0 -55 -20 -101 -59 -138s-89 -56 -150 -56h-317v661h294c57 0 104 -15 139 -46c36 -30 54 -70 54 -119c0 -52 -27 -105 -76 -136zM451 206c0 55 -42 88 -110 88h-128v-179h135c76 0 103 43 103 91zM329 549h-116v-149h111
c47 0 91 18 91 73c0 45 -31 76 -86 76z" />
    <glyph glyph-name="afii10020" unicode="&#x413;" horiz-adv-x="535" 
d="M519 545h-303v-545h-149v660h452v-115z" />
    <glyph glyph-name="afii10021" unicode="&#x414;" horiz-adv-x="818" 
d="M226 659h476v-545h92v-271h-126v157h-536v-157h-125v271h84c31 30 54 65 67 106c14 41 25 96 34 165zM551 551h-204l-16 -148c-9 -74 -20 -133 -33 -176s-31 -81 -55 -113h308v437z" />
    <glyph glyph-name="afii10022" unicode="&#x415;" horiz-adv-x="569" 
d="M216 115h317v-115h-466v660h447v-115h-298v-146h267v-111h-267v-173z" />
    <glyph glyph-name="afii10024" unicode="&#x416;" horiz-adv-x="987" 
d="M186 660l232 -304v304h149v-304l233 304h162l-249 -318l267 -342h-169l-244 326v-326h-149v326l-244 -326h-168l266 342l-248 318h162z" />
    <glyph glyph-name="afii10025" unicode="&#x417;" horiz-adv-x="584" 
d="M244 -12c-82 0 -154 13 -215 39v126c59 -31 124 -47 195 -47c111 0 168 41 168 104c0 56 -53 83 -132 83h-83v110h78c67 0 118 32 118 72c0 49 -54 78 -131 78c-28 0 -61 -4 -100 -11s-69 -15 -91 -26v122c61 24 132 36 213 36c128 0 254 -47 254 -174
c0 -55 -39 -117 -104 -141v-3c81 -20 124 -84 124 -156c0 -63 -26 -115 -78 -154s-124 -58 -216 -58z" />
    <glyph glyph-name="afii10026" unicode="&#x418;" horiz-adv-x="728" 
d="M659 673v-673h-148v394h-3l-420 -405h-21v671h148v-395h4l418 408h22z" />
    <glyph glyph-name="afii10027" unicode="&#x419;" horiz-adv-x="728" 
d="M659 673v-673h-148v394h-3l-420 -405h-21v671h148v-395h4l418 408h22zM381 710c-96 0 -149 70 -153 161h69c3 -56 37 -88 86 -88c48 0 77 36 84 88h68c-3 -44 -17 -82 -43 -114c-25 -31 -62 -47 -111 -47z" />
    <glyph glyph-name="afii10028" unicode="&#x41a;" horiz-adv-x="645" 
d="M67 660h150v-303l240 303h162l-257 -318c21 -21 66 -78 136 -170c71 -92 117 -149 139 -172h-168c-21 22 -64 77 -127 164s-105 142 -125 163v-327h-150v660z" />
    <glyph glyph-name="afii10029" unicode="&#x41b;" horiz-adv-x="683" 
d="M464 275v277h-164l-31 -327c-9 -75 -29 -133 -59 -173c-29 -39 -80 -64 -152 -74l-56 101c47 11 79 27 96 48c17 22 27 58 32 109l38 423h446v-659h-149c0 61 0 152 -1 275z" />
    <glyph glyph-name="afii10030" unicode="&#x41c;" horiz-adv-x="815" 
d="M599 323l-180 -201h-22l-184 201c-1 -1 -2 -1 -3 -1v-322h-143v671h22l319 -369l318 369h21v-671h-144v322c-1 1 -2 1 -4 1z" />
    <glyph glyph-name="afii10031" unicode="&#x41d;" horiz-adv-x="694" 
d="M626 660v-660h-149v285h-261v-285h-149v660h149v-259h261v259h149z" />
    <glyph glyph-name="afii10032" unicode="&#x41e;" horiz-adv-x="799" 
d="M399 -11c-108 0 -194 32 -259 96c-64 65 -96 146 -96 245c0 96 34 177 101 243c68 66 153 99 255 99c103 0 188 -33 254 -99c66 -65 99 -146 99 -243s-33 -179 -100 -244c-66 -65 -151 -97 -254 -97zM401 549c-61 0 -110 -21 -149 -63s-58 -94 -58 -156
c0 -64 19 -117 56 -159c38 -42 88 -63 151 -63c61 0 111 21 148 64c38 43 57 95 57 158c0 62 -19 114 -57 156c-37 42 -87 63 -148 63z" />
    <glyph glyph-name="afii10033" unicode="&#x41f;" horiz-adv-x="698" 
d="M629 660v-660h-149v545h-264v-545h-149v660h562z" />
    <glyph glyph-name="afii10034" unicode="&#x420;" horiz-adv-x="590" 
d="M216 0h-150v659h253c80 0 142 -22 185 -65s65 -95 65 -156c0 -65 -23 -118 -68 -161s-103 -64 -175 -64h-110v-213zM294 548h-79v-224h78c91 0 127 51 127 111c0 63 -43 113 -126 113z" />
    <glyph glyph-name="afii10035" unicode="&#x421;" horiz-adv-x="622" 
d="M589 153l1 -126c-53 -26 -117 -39 -192 -39c-111 0 -197 32 -260 95c-62 63 -93 145 -93 244c0 97 33 179 98 246c66 67 152 100 259 100c68 0 124 -9 167 -27v-125c-46 21 -95 31 -146 31c-64 0 -118 -20 -162 -60c-43 -39 -65 -94 -65 -165c0 -136 84 -218 219 -218
c59 0 117 15 174 44z" />
    <glyph glyph-name="afii10036" unicode="&#x422;" horiz-adv-x="559" 
d="M546 661v-115h-192v-546h-149v546h-193v115h534z" />
    <glyph glyph-name="afii10037" unicode="&#x423;" horiz-adv-x="620" 
d="M239 145l7 16l-241 499h160l142 -353h4l151 353h153l-253 -554c-43 -92 -101 -124 -178 -124c-40 0 -80 9 -120 27v121c44 -23 79 -34 104 -34c33 0 56 16 71 49z" />
    <glyph glyph-name="afii10038" unicode="&#x424;" horiz-adv-x="884" 
d="M841 341c0 -76 -29 -139 -88 -190c-58 -51 -137 -80 -238 -89v-62h-146v62c-101 5 -181 32 -240 83s-88 116 -88 196c0 77 31 141 92 192c62 52 141 80 236 85v42h147v-42c95 -5 173 -33 234 -86c61 -52 91 -116 91 -191zM699 341c0 46 -17 85 -52 118
c-34 33 -78 51 -133 54v-345c112 7 185 77 185 173zM369 168v345c-111 -9 -184 -80 -184 -173c0 -92 68 -160 184 -172z" />
    <glyph glyph-name="afii10039" unicode="&#x425;" horiz-adv-x="671" 
d="M662 0h-161l-166 317l-168 -317h-160l196 341l-183 318h160l155 -296l154 296h161l-185 -318z" />
    <glyph glyph-name="afii10040" unicode="&#x426;" horiz-adv-x="740" 
d="M634 660v-546h95v-271h-126v157h-536v660h150v-546h268v546h149z" />
    <glyph glyph-name="afii10041" unicode="&#x427;" horiz-adv-x="674" 
d="M605 0h-150v294c-61 -17 -118 -26 -171 -26c-141 0 -227 67 -227 191v201h150v-178c0 -73 40 -109 120 -109c43 0 86 8 128 24v263h150v-660z" />
    <glyph glyph-name="afii10042" unicode="&#x428;" horiz-adv-x="1011" 
d="M794 661h149v-661h-875v661h149v-547h213v547h150v-547h214v547z" />
    <glyph glyph-name="afii10043" unicode="&#x429;" horiz-adv-x="1047" 
d="M217 114h212v546h150v-546h214v546h149v-546h95v-271h-126v157h-844v660h150v-546z" />
    <glyph glyph-name="afii10044" unicode="&#x42a;" horiz-adv-x="846" 
d="M417 660v-251h141c205 0 249 -129 249 -211c0 -61 -21 -109 -63 -145c-42 -35 -94 -53 -156 -53h-320v546h-261v114h410zM545 305h-128v-196h99c88 0 141 20 141 97c0 63 -47 99 -112 99z" />
    <glyph glyph-name="afii10045" unicode="&#x42b;" horiz-adv-x="895" 
d="M388 0h-321v660h150v-251h140c205 0 250 -129 250 -211c0 -61 -21 -109 -63 -145c-42 -35 -94 -53 -156 -53zM345 305h-128v-196h98c41 0 69 4 97 16c29 13 45 40 45 81c0 63 -47 99 -112 99zM826 660v-660h-149v660h149z" />
    <glyph glyph-name="afii10046" unicode="&#x42c;" horiz-adv-x="645" 
d="M389 0h-321v661h150v-251h140c205 0 249 -129 249 -211c0 -61 -21 -110 -63 -146c-41 -35 -93 -53 -155 -53zM346 306h-128v-196h136c63 0 104 34 104 97c0 61 -48 99 -112 99z" />
    <glyph glyph-name="afii10047" unicode="&#x42d;" horiz-adv-x="622" 
d="M31 26v63c1 29 1 50 1 64c58 -30 116 -45 174 -45c128 0 206 73 214 184h-277v103h268c-16 101 -90 156 -201 156c-59 0 -111 -10 -157 -31v123c48 20 110 30 186 30c111 0 194 -32 251 -97c57 -64 86 -146 86 -247c0 -96 -31 -177 -93 -242s-148 -98 -259 -98
c-75 0 -139 12 -193 37z" />
    <glyph glyph-name="afii10048" unicode="&#x42e;" horiz-adv-x="1076" 
d="M217 287v-287h-150v659h150v-268h132c11 82 48 149 110 202s138 79 228 79c103 0 186 -33 249 -98s94 -146 94 -244s-32 -179 -95 -244s-146 -97 -249 -97c-94 0 -173 28 -236 84s-97 127 -103 214h-130zM687 545c-59 0 -106 -21 -142 -63s-54 -94 -54 -155
s18 -113 54 -155c37 -41 84 -62 142 -62c60 0 107 21 142 62s52 93 52 155c0 63 -17 115 -52 156c-34 41 -81 62 -142 62z" />
    <glyph glyph-name="afii10049" unicode="&#x42f;" horiz-adv-x="635" 
d="M179 0h-165l179 250c-112 42 -137 126 -137 187c0 71 23 126 70 164c47 39 105 58 174 58h267v-659h-149v546h-94c-72 0 -121 -48 -121 -116c0 -28 14 -56 43 -83s69 -44 120 -51v-14z" />
    <glyph glyph-name="afii10065" unicode="&#x430;" horiz-adv-x="520" 
d="M350 0l-10 52h-3c-35 -42 -88 -63 -157 -63c-97 0 -147 56 -147 127c0 91 69 156 208 156h87v9c0 54 -34 81 -102 81c-45 0 -91 -13 -138 -38v101c50 23 107 34 171 34c135 0 203 -64 203 -192v-267h-112zM163 136c0 -35 29 -55 70 -55c60 0 95 43 95 98v17h-70
c-63 0 -95 -20 -95 -60z" />
    <glyph glyph-name="afii10066" unicode="&#x431;" horiz-adv-x="568" 
d="M159 383h5c29 44 89 69 150 69c67 0 121 -22 161 -65s60 -98 60 -166c0 -65 -22 -120 -67 -165c-44 -44 -104 -66 -179 -66c-89 0 -153 25 -194 75s-61 117 -61 200c0 185 64 310 192 377c42 23 114 53 215 89l67 -80c-23 -10 -56 -23 -99 -39s-75 -29 -97 -40
c-87 -41 -138 -104 -153 -189zM289 351c-68 0 -116 -56 -116 -127c0 -73 42 -127 115 -127c71 0 116 54 116 127s-43 127 -115 127z" />
    <glyph glyph-name="afii10067" unicode="&#x432;" horiz-adv-x="529" 
d="M413 246v-4c59 -19 82 -67 82 -112c0 -76 -64 -130 -156 -130h-282v446h235c116 0 174 -38 174 -114c0 -37 -18 -66 -53 -86zM364 142c0 25 -21 46 -54 46h-117v-94h115c35 0 56 21 56 48zM291 355h-100v-80h101c30 0 45 13 45 39c0 24 -18 41 -46 41z" />
    <glyph glyph-name="afii10068" unicode="&#x433;" horiz-adv-x="447" 
d="M434 346h-241v-346h-136v445h377v-99z" />
    <glyph glyph-name="afii10069" unicode="&#x434;" horiz-adv-x="637" 
d="M170 445h376v-345h78v-227h-113v127h-390v-127h-112v227h75c31 28 51 75 60 141zM410 346h-133l-6 -52c-10 -91 -30 -155 -59 -194h198v246z" />
    <glyph glyph-name="afii10070" unicode="&#x435;" horiz-adv-x="522" 
d="M265 460c137 0 221 -90 221 -233v-30h-317c7 -70 52 -105 134 -105c55 0 108 17 161 52v-107c-49 -32 -108 -48 -175 -48c-82 0 -145 22 -189 66c-43 44 -65 101 -65 170c0 67 21 122 64 167s98 68 166 68zM270 363c-48 0 -85 -33 -97 -82h189c-12 55 -43 82 -92 82z" />
    <glyph glyph-name="afii10072" unicode="&#x436;" horiz-adv-x="800" 
d="M5 0l192 232l-179 213h147l165 -199v199h139v-199l165 199h147l-180 -213l193 -232h-153l-172 217v-217h-139v217l-173 -217h-152z" />
    <glyph glyph-name="afii10073" unicode="&#x437;" horiz-adv-x="443" 
d="M188 -12c-63 0 -115 10 -157 30v109c38 -24 84 -36 139 -36c71 0 107 18 107 53c0 25 -21 38 -64 38h-75v96h66c42 0 63 13 63 38c0 27 -29 40 -88 40c-48 0 -92 -10 -131 -30v106c41 17 93 25 156 25c121 0 192 -42 192 -122c0 -36 -24 -75 -75 -95
c59 -16 88 -58 88 -101c0 -93 -84 -151 -221 -151z" />
    <glyph glyph-name="afii10074" unicode="&#x438;" horiz-adv-x="563" 
d="M195 212l285 236h24v-448h-135v222h-3l-284 -228h-25v451h135v-233h3z" />
    <glyph glyph-name="afii10075" unicode="&#x439;" horiz-adv-x="563" 
d="M195 212l285 236h24v-448h-135v222h-3l-284 -228h-25v451h135v-233h3zM294 510c-96 0 -149 70 -153 161h69c3 -56 37 -88 86 -88c48 0 77 36 84 88h68c-3 -44 -17 -82 -43 -114c-25 -31 -62 -47 -111 -47z" />
    <glyph glyph-name="afii10076" unicode="&#x43a;" horiz-adv-x="533" 
d="M366 445h148l-185 -212l198 -233h-154l-177 217v-217h-139v445h139v-200z" />
    <glyph glyph-name="afii10077" unicode="&#x43b;" horiz-adv-x="537" 
d="M344 346h-107l-8 -78l-6 -65c-5 -56 -8 -82 -24 -123c-21 -59 -64 -87 -154 -99c-11 25 -25 56 -40 93c36 5 60 17 72 37c12 21 20 53 24 96l23 239h355v-446h-135v346z" />
    <glyph glyph-name="afii10078" unicode="&#x43c;" horiz-adv-x="688" 
d="M496 211l-138 -134h-20l-148 134v-211h-133v451h25l266 -243l257 243h26v-451h-135v211z" />
    <glyph glyph-name="afii10079" unicode="&#x43d;" horiz-adv-x="562" 
d="M504 445v-445h-136v182h-175v-182h-136v445h135v-165h176v165h136z" />
    <glyph glyph-name="afii10080" unicode="&#x43e;" horiz-adv-x="568" 
d="M285 459c75 0 135 -22 180 -67c45 -44 68 -100 68 -168s-23 -124 -69 -168s-106 -66 -179 -66c-77 0 -138 22 -183 65c-45 44 -67 100 -67 169c0 67 23 123 70 168s107 67 180 67zM286 351c-69 0 -116 -54 -116 -125c0 -76 44 -128 116 -128s117 55 117 128
c0 71 -46 125 -117 125z" />
    <glyph glyph-name="afii10081" unicode="&#x43f;" horiz-adv-x="561" 
d="M502 446v-446h-135v341h-175v-341h-135v446h445z" />
    <glyph glyph-name="afii10082" unicode="&#x440;" horiz-adv-x="596" 
d="M309 96c71 0 114 55 114 128c0 76 -43 126 -115 126c-67 0 -116 -56 -116 -128s45 -126 117 -126zM185 36v-252h-133v662h105l16 -60h4c35 47 95 72 154 72c141 0 225 -93 225 -230c0 -70 -21 -127 -64 -171c-42 -44 -96 -66 -163 -66c-59 0 -106 16 -140 47
c-1 0 -3 -2 -4 -2z" />
    <glyph glyph-name="afii10083" unicode="&#x441;" horiz-adv-x="440" 
d="M280 459c45 0 84 -7 117 -20v-110c-27 16 -59 24 -95 24c-76 0 -131 -50 -131 -131c0 -79 49 -127 128 -127c41 0 79 10 114 31v-107c-37 -20 -85 -30 -146 -30c-73 0 -130 21 -171 64s-61 98 -61 165c0 71 23 129 68 174c46 45 105 67 177 67z" />
    <glyph glyph-name="afii10084" unicode="&#x442;" horiz-adv-x="459" 
d="M296 344v-344h-133v344h-156v101h444v-101h-155z" />
    <glyph glyph-name="afii10085" unicode="&#x443;" horiz-adv-x="492" 
d="M140 446l101 -284h6l104 284h134l-283 -662h-131l109 244l-177 418h137z" />
    <glyph glyph-name="afii10086" unicode="&#x444;" horiz-adv-x="736" 
d="M301 452v259h131v-259c85 -4 152 -27 200 -69s72 -96 72 -161s-25 -119 -74 -163c-49 -43 -115 -67 -198 -70v-103c1 -45 1 -79 1 -102h-132v206c-88 4 -155 28 -201 72s-69 98 -69 161c0 64 24 116 73 157s115 65 197 72zM573 223c0 75 -52 125 -140 132v-267
c81 4 140 62 140 135zM163 223c0 -77 56 -131 139 -135v265c-40 -1 -73 -15 -100 -40c-26 -25 -39 -55 -39 -90z" />
    <glyph glyph-name="afii10087" unicode="&#x445;" horiz-adv-x="514" 
d="M367 0l-110 209l-110 -209h-139l129 229l-122 216h138l104 -196l104 196h138l-122 -216l129 -229h-139z" />
    <glyph glyph-name="afii10088" unicode="&#x446;" horiz-adv-x="594" 
d="M367 103v343h135v-342h77v-231h-114v127h-408v446h135v-343h175z" />
    <glyph glyph-name="afii10089" unicode="&#x447;" horiz-adv-x="546" 
d="M488 0h-139v196c-41 -31 -91 -47 -148 -47c-103 0 -156 46 -156 154v142h135v-103c0 -65 24 -98 72 -98c31 0 73 19 97 55v146h139v-445z" />
    <glyph glyph-name="afii10090" unicode="&#x448;" horiz-adv-x="829" 
d="M193 103h152v342h135v-342h155v343h136v-446h-714v445h136v-342z" />
    <glyph glyph-name="afii10091" unicode="&#x449;" horiz-adv-x="860" 
d="M193 103h152v342h135v-342h155v343h136v-342h76v-231h-113v127h-677v445h136v-342z" />
    <glyph glyph-name="afii10092" unicode="&#x44a;" horiz-adv-x="675" 
d="M474 0h-277v346h-194v100h329v-137h133c51 0 93 -14 126 -41s50 -65 50 -112c0 -95 -67 -156 -167 -156zM431 225h-99v-135h104c45 0 75 25 75 68c0 41 -32 67 -80 67z" />
    <glyph glyph-name="afii10093" unicode="&#x44b;" horiz-adv-x="753" 
d="M335 0h-278v446h136v-137h133c51 0 93 -14 126 -41s50 -65 50 -112c0 -95 -68 -156 -167 -156zM292 225h-99v-135h104c45 0 75 25 75 68c0 41 -32 67 -80 67zM695 445v-445h-136v445h136z" />
    <glyph glyph-name="afii10094" unicode="&#x44c;" horiz-adv-x="535" 
d="M335 0h-278v446h136v-137h133c51 0 93 -14 126 -41s50 -65 50 -112c0 -95 -68 -156 -167 -156zM292 225h-99v-135h104c45 0 75 25 75 68c0 41 -32 67 -80 67z" />
    <glyph glyph-name="afii10095" unicode="&#x44d;" horiz-adv-x="440" 
d="M263 178h-149v98h146c-12 49 -57 76 -113 76c-38 0 -73 -8 -104 -25v107c45 17 89 26 133 26c69 0 124 -21 166 -64c42 -42 63 -99 63 -172c0 -68 -21 -124 -62 -169c-41 -44 -97 -66 -170 -66c-61 0 -109 10 -145 30v107c34 -21 73 -31 116 -31c63 0 107 32 119 83z" />
    <glyph glyph-name="afii10096" unicode="&#x44e;" horiz-adv-x="807" 
d="M193 194v-194h-135v445h135v-175h98c10 55 36 101 79 136s97 53 160 53c75 0 134 -22 177 -67c43 -44 65 -100 65 -168s-22 -124 -67 -168s-103 -66 -175 -66c-69 0 -126 19 -169 56c-43 38 -67 87 -72 148h-96zM532 351c-68 0 -113 -55 -113 -126
c0 -76 41 -129 113 -129c69 0 113 56 113 129c0 72 -44 126 -113 126z" />
    <glyph glyph-name="afii10097" unicode="&#x44f;" horiz-adv-x="523" 
d="M154 0h-145l140 176c-64 20 -99 72 -99 125c0 92 70 144 177 144h237v-445h-134v353h-65c-53 0 -80 -29 -80 -70c0 -37 35 -70 103 -75v-20z" />
    <glyph glyph-name="afii10071" unicode="&#x451;" horiz-adv-x="522" 
d="M265 460c137 0 221 -90 221 -233v-30h-317c7 -70 52 -105 134 -105c55 0 108 17 161 52v-107c-49 -32 -108 -48 -175 -48c-82 0 -145 22 -189 66c-43 44 -65 101 -65 170c0 67 21 122 64 167s98 68 166 68zM270 363c-48 0 -85 -33 -97 -82h189c-12 55 -43 82 -92 82z
M177 543c-37 0 -63 28 -63 63c0 36 30 62 63 62c36 0 62 -27 62 -62s-26 -63 -62 -63zM363 543c-37 0 -62 28 -62 63c0 36 29 62 62 62c36 0 62 -27 62 -62s-26 -63 -62 -63z" />
    <glyph glyph-name="afii10099" unicode="&#x452;" horiz-adv-x="577" 
d="M52 611v100h131v-100h174v-63h-174v-157c1 0 2 -1 5 -2c37 43 88 65 152 65c119 0 202 -79 202 -243c0 -66 -18 -127 -55 -184s-81 -100 -133 -130l-88 52c95 56 143 136 143 241c0 111 -48 155 -117 155c-57 0 -109 -41 -109 -112v-233h-131v548h-47v63h47z" />
    <glyph glyph-name="afii10100" unicode="&#x453;" horiz-adv-x="447" 
d="M434 346h-241v-346h-136v445h377v-99zM375 652l-138 -136h-77l119 179z" />
    <glyph glyph-name="afii10101" unicode="&#x454;" horiz-adv-x="440" 
d="M280 459c45 0 84 -7 117 -20v-110c-27 16 -59 24 -95 24c-56 0 -104 -30 -121 -78h144v-98h-148c15 -49 61 -82 122 -82c41 0 79 10 114 31v-107c-37 -20 -85 -30 -146 -30c-73 0 -130 21 -171 64s-61 98 -61 165c0 71 23 129 68 174c46 45 105 67 177 67z" />
    <glyph glyph-name="afii10102" unicode="&#x455;" horiz-adv-x="399" 
d="M22 28v114c44 -33 109 -55 153 -55s66 12 66 36c0 65 -208 70 -208 204c0 80 68 131 168 131c49 0 98 -10 147 -31v-107c-44 25 -86 37 -127 37c-37 0 -56 -11 -56 -33c-1 -50 207 -54 206 -198c0 -77 -64 -136 -181 -136c-66 0 -122 13 -168 38z" />
    <glyph glyph-name="afii10103" unicode="&#x456;" horiz-adv-x="264" 
d="M200 446v-446h-137v446h137zM134 519c-44 0 -75 34 -75 75s36 74 75 74c43 0 74 -33 74 -74s-31 -75 -74 -75z" />
    <glyph glyph-name="afii10104" unicode="&#x457;" horiz-adv-x="264" 
d="M42 536c-37 0 -63 28 -63 63c0 36 30 62 63 62c36 0 62 -27 62 -62s-26 -63 -62 -63zM228 536c-37 0 -62 28 -62 63c0 36 29 62 62 62c36 0 62 -27 62 -62s-26 -63 -62 -63zM200 446v-446h-137v446h137z" />
    <glyph glyph-name="afii10105" unicode="&#x458;" horiz-adv-x="255" 
d="M202 594c0 -41 -31 -75 -74 -75c-44 0 -75 33 -75 74s35 74 75 74c43 0 74 -33 74 -73zM-21 -224c-5 13 -12 31 -22 54c-11 23 -18 40 -22 51c96 7 125 46 125 145v419h135v-428c0 -163 -87 -233 -216 -241z" />
    <glyph glyph-name="afii10106" unicode="&#x459;" horiz-adv-x="810" 
d="M613 0h-272v346h-104l-11 -108l-5 -52c-1 -11 -4 -27 -7 -46c-7 -37 -13 -50 -25 -78c-21 -46 -68 -73 -144 -81c-11 25 -25 56 -40 93c36 5 60 17 72 37c12 21 20 53 24 96l23 238h352v-151h128c100 0 173 -54 173 -149c0 -92 -68 -145 -164 -145zM574 211h-98v-127h102
c41 0 70 24 70 63s-31 64 -74 64z" />
    <glyph glyph-name="afii10107" unicode="&#x45a;" horiz-adv-x="816" 
d="M353 199h-160v-199h-136v445h135v-157h161v157h134v-156h123c100 0 173 -53 173 -146c0 -91 -68 -143 -163 -143h-267v199zM580 199h-93v-115h97c44 0 71 21 71 60c0 37 -25 55 -75 55z" />
    <glyph glyph-name="afii10108" unicode="&#x45b;" horiz-adv-x="552" 
d="M494 283v-283h-135v256c0 51 -31 94 -75 94c-56 0 -97 -41 -97 -121v-229h-136v547h-45v63h45v101h131v-101h168v-63h-168v-155h1c1 -1 1 -1 2 -1c38 45 86 67 144 67c105 0 165 -64 165 -175z" />
    <glyph glyph-name="afii10109" unicode="&#x45c;" horiz-adv-x="533" 
d="M366 445h148l-185 -212l198 -233h-154l-177 217v-217h-139v445h139v-200zM411 652l-138 -136h-77l119 179z" />
    <glyph glyph-name="afii10110" unicode="&#x45e;" horiz-adv-x="492" 
d="M140 446l101 -284h6l104 284h134l-283 -662h-131l109 244l-177 418h137zM257 516c-96 0 -149 70 -153 161h69c3 -56 37 -88 86 -88c48 0 77 36 84 88h68c-3 -44 -17 -82 -43 -114c-25 -31 -62 -47 -111 -47z" />
    <glyph glyph-name="afii10193" unicode="&#x45f;" horiz-adv-x="573" 
d="M371 103v343h135v-446h-163v-139h-116v139h-163v445h135v-342h172z" />
    <glyph glyph-name="afii10050" unicode="&#x490;" horiz-adv-x="549" 
d="M538 550h-322v-550h-149v660h351v116h120v-226z" />
    <glyph glyph-name="afii10098" unicode="&#x491;" horiz-adv-x="445" 
d="M434 346h-241v-346h-136v445h272v109h105v-208z" />
    <glyph glyph-name="schwacyrillic" unicode="&#x4d9;" horiz-adv-x="532" 
d="M265 -11c-137 0 -222 92 -222 233c0 10 0 17 1 22h317c-4 81 -53 122 -132 122c-55 0 -109 -17 -160 -50v95c50 33 112 49 186 49c161 0 240 -96 240 -236c0 -67 -21 -123 -64 -168s-98 -67 -166 -67zM360 190h-195c5 -64 39 -103 95 -103s95 43 100 103z" />
    <glyph glyph-name="Wgrave" unicode="&#x1e80;" horiz-adv-x="960" 
d="M654 -12l-175 391h-4l-171 -391h-22l-275 671h164l138 -331h4l155 339h21l160 -339h4l135 331h163l-275 -671h-22zM414 890l133 -172h-85l-150 128z" />
    <glyph glyph-name="wgrave" unicode="&#x1e81;" horiz-adv-x="753" 
d="M245 234l121 220h20l128 -220h4l96 211h136l-209 -453h-23l-142 256l-138 -256h-24l-210 453h139l98 -211h4zM320 695l118 -179h-77l-138 136z" />
    <glyph glyph-name="Wacute" unicode="&#x1e82;" horiz-adv-x="960" 
d="M654 -12l-175 391h-4l-171 -391h-22l-275 671h164l138 -331h4l155 339h21l160 -339h4l135 331h163l-275 -671h-22zM655 846l-150 -128h-86l133 172z" />
    <glyph glyph-name="wacute" unicode="&#x1e83;" horiz-adv-x="753" 
d="M245 234l121 220h20l128 -220h4l96 211h136l-209 -453h-23l-142 256l-138 -256h-24l-210 453h139l98 -211h4zM532 652l-138 -136h-77l119 179z" />
    <glyph glyph-name="Wdieresis" unicode="&#x1e84;" horiz-adv-x="960" 
d="M654 -12l-175 391h-4l-171 -391h-22l-275 671h164l138 -331h4l155 339h21l160 -339h4l135 331h163l-275 -671h-22zM450 794c0 -36 -27 -64 -63 -64c-37 0 -63 27 -63 62c0 37 30 64 63 64c36 0 63 -29 63 -62zM636 794c0 -36 -26 -64 -62 -64c-37 0 -62 27 -62 62
c0 37 29 64 62 64c36 0 62 -29 62 -62z" />
    <glyph glyph-name="wdieresis" unicode="&#x1e85;" horiz-adv-x="753" 
d="M245 234l121 220h20l128 -220h4l96 211h136l-209 -453h-23l-142 256l-138 -256h-24l-210 453h139l98 -211h4zM282 519c-37 0 -63 28 -63 63c0 36 30 62 63 62c36 0 62 -27 62 -62s-26 -63 -62 -63zM468 519c-37 0 -62 28 -62 63c0 36 29 62 62 62c36 0 62 -27 62 -62
s-26 -63 -62 -63z" />
    <glyph glyph-name="Ygrave" unicode="&#x1ef2;" horiz-adv-x="611" 
d="M168 660l142 -278h4l130 278h159l-220 -399v-261h-149v261l-227 399h161zM253 890l133 -172h-85l-150 128z" />
    <glyph glyph-name="ygrave" unicode="&#x1ef3;" horiz-adv-x="492" 
d="M140 446l101 -284h6l104 284h134l-283 -662h-131l109 244l-177 418h137zM196 695l118 -179h-77l-138 136z" />
    <glyph glyph-name="endash" unicode="&#x2013;" horiz-adv-x="593" 
d="M565 200h-537v96h537v-96z" />
    <glyph glyph-name="emdash" unicode="&#x2014;" horiz-adv-x="842" 
d="M812 200h-781v96h781v-96z" />
    <glyph glyph-name="afii00208" unicode="&#x2015;" horiz-adv-x="842" 
d="M812 200h-781v96h781v-96z" />
    <glyph glyph-name="quoteleft" unicode="&#x2018;" horiz-adv-x="230" 
d="M185 471c0 -39 -30 -70 -69 -70c-41 0 -70 29 -70 69c0 27 10 61 30 100c21 40 43 76 68 109l51 -8l-55 -135c30 -11 45 -32 45 -65z" />
    <glyph glyph-name="quoteright" unicode="&#x2019;" horiz-adv-x="230" 
d="M50 605c0 40 30 71 69 71c40 0 69 -29 69 -69c0 -27 -10 -61 -31 -101c-20 -40 -42 -76 -67 -108l-51 8l55 135c-29 11 -44 32 -44 64z" />
    <glyph glyph-name="quotesinglbase" unicode="&#x201a;" horiz-adv-x="239" 
d="M52 58c0 41 31 73 70 73c41 0 71 -30 71 -70c0 -29 -11 -64 -32 -106s-43 -79 -67 -111l-52 8l55 141c-30 11 -45 33 -45 65z" />
    <glyph glyph-name="quotedblleft" unicode="&#x201c;" horiz-adv-x="400" 
d="M185 471c0 -39 -31 -70 -68 -70c-41 0 -70 29 -70 69c0 27 10 61 31 101s43 76 68 108l50 -8l-55 -135c29 -11 44 -32 44 -65zM348 471c0 -39 -30 -70 -69 -70c-41 0 -69 29 -69 69c0 27 10 61 30 101c21 40 43 76 68 108l50 -8l-55 -135c30 -11 45 -32 45 -65z" />
    <glyph glyph-name="quotedblright" unicode="&#x201d;" horiz-adv-x="400" 
d="M215 605c0 40 30 71 69 71c40 0 70 -29 70 -69c0 -27 -10 -61 -31 -101s-43 -76 -68 -108l-51 8l56 135c-30 11 -45 32 -45 64zM53 605c0 40 30 71 69 71c40 0 69 -29 69 -69c0 -27 -10 -61 -31 -101c-20 -39 -42 -75 -67 -108l-51 8l55 135c-29 11 -44 32 -44 64z" />
    <glyph glyph-name="quotedblbase" unicode="&#x201e;" horiz-adv-x="405" 
d="M51 58c0 41 32 73 71 73c41 0 71 -30 71 -70c0 -29 -11 -64 -32 -106c-21 -43 -44 -80 -68 -111l-52 8l56 141c-31 11 -46 32 -46 65zM218 58c0 41 31 73 70 73c41 0 72 -30 72 -70c0 -29 -11 -64 -32 -106c-21 -43 -44 -80 -68 -111l-52 8l55 141c-30 11 -45 33 -45 65z
" />
    <glyph glyph-name="dagger" unicode="&#x2020;" horiz-adv-x="567" 
d="M213 383h-155v111h154v182h135v-182h160v-111h-159v-498h-135v498z" />
    <glyph glyph-name="daggerdbl" unicode="&#x2021;" horiz-adv-x="567" 
d="M213 391h-155v108h154v177h134v-177h161v-108h-160v-192h160v-110h-160v-204h-134v204h-155v110h155v192z" />
    <glyph glyph-name="bullet" unicode="&#x2022;" horiz-adv-x="483" 
d="M104 241c0 38 13 70 40 97s60 41 98 41c39 0 71 -14 98 -41s41 -59 41 -97c0 -39 -14 -71 -41 -98s-59 -40 -98 -40c-38 0 -71 13 -98 40s-40 59 -40 98z" />
    <glyph glyph-name="trianglebullet" unicode="&#x2023;" horiz-adv-x="506" 
d="M86 68v408l390 -199z" />
    <glyph glyph-name="ellipsis" unicode="&#x2026;" horiz-adv-x="713" 
d="M201 61c0 -39 -33 -71 -70 -71c-41 0 -74 32 -74 71c0 40 33 72 74 72c39 0 70 -32 70 -72zM430 61c0 -39 -32 -71 -71 -71c-40 0 -73 32 -73 71c0 40 33 72 73 72c39 0 71 -32 71 -72zM659 61c0 -39 -33 -71 -72 -71s-72 32 -72 71c0 40 33 72 72 72c40 0 72 -32 72 -72
z" />
    <glyph glyph-name="perthousand" unicode="&#x2030;" horiz-adv-x="1173" 
d="M591 684h84l-478 -711h-84zM205 682c51 0 91 -16 122 -47s47 -70 47 -116s-16 -85 -48 -117c-31 -31 -72 -47 -121 -47c-104 0 -170 68 -170 164c0 46 16 85 47 116c32 31 73 47 123 47zM206 597c-43 0 -73 -35 -73 -78c0 -48 28 -81 73 -81c43 0 72 36 72 81
c0 44 -31 78 -72 78zM591 316c51 0 91 -16 122 -47s47 -70 47 -116s-16 -85 -48 -116c-31 -31 -72 -47 -121 -47c-104 0 -170 67 -170 162c0 46 16 85 47 116c32 32 73 48 123 48zM592 232c-41 0 -72 -36 -72 -79c0 -48 27 -81 72 -81c44 0 73 34 73 81c0 44 -30 79 -73 79z
M973 316c51 0 92 -16 123 -47s47 -70 47 -116s-16 -85 -48 -116c-31 -31 -72 -47 -122 -47c-105 0 -169 66 -169 162c0 46 16 85 47 116c31 32 72 48 122 48zM974 232c-41 0 -72 -36 -72 -79c0 -48 27 -81 72 -81c43 0 72 34 72 81c0 44 -29 79 -72 79z" />
    <glyph glyph-name="guilsinglleft" unicode="&#x2039;" horiz-adv-x="310" 
d="M285 399l-135 -190l135 -196h-124l-128 188v10l129 188h123z" />
    <glyph glyph-name="guilsinglright" unicode="&#x203a;" horiz-adv-x="310" 
d="M152 13h-124l135 196l-135 190h122l130 -188v-10z" />
    <glyph glyph-name="fraction" unicode="&#x2044;" horiz-adv-x="107" 
d="M253 684h84l-477 -711h-84z" />
    <glyph glyph-name="fraction" unicode="&#x2215;" horiz-adv-x="107" 
d="M253 684h84l-477 -711h-84z" />
    <glyph glyph-name="zerosuperior" unicode="&#x2070;" horiz-adv-x="366" 
d="M181 382c-58 0 -100 19 -125 57c-25 39 -37 87 -37 144c0 35 4 66 13 94c19 57 71 107 151 107c127 0 163 -106 163 -201c0 -94 -39 -201 -165 -201zM243 584c0 82 -20 123 -60 123c-42 0 -63 -41 -63 -123c0 -83 21 -124 63 -124c40 0 60 41 60 124z" />
    <glyph glyph-name="foursuperior" unicode="&#x2074;" horiz-adv-x="366" 
d="M7 487l180 290h95l-151 -236h82v34l48 75h48v-109h45v-71h-45v-81h-95v81h-207v17z" />
    <glyph glyph-name="fivesuperior" unicode="&#x2075;" horiz-adv-x="366" 
d="M183 647c85 0 151 -46 151 -129c0 -39 -16 -72 -47 -97s-71 -38 -119 -38c-49 0 -95 11 -136 33v89c37 -31 78 -47 123 -47c49 0 84 28 84 64c0 39 -36 59 -85 59c-37 0 -68 -6 -92 -19l-12 6l25 210h238v-71h-165l-7 -64c9 3 23 4 42 4z" />
    <glyph glyph-name="sixsuperior" unicode="&#x2076;" horiz-adv-x="366" 
d="M343 516c0 -79 -66 -132 -163 -132c-99 0 -161 50 -161 131c0 37 21 86 64 149l77 114h111l-96 -138c5 1 12 1 21 1c89 0 147 -50 147 -125zM180 574c-35 0 -61 -26 -61 -57c0 -33 24 -56 61 -56c39 0 64 23 64 56c0 32 -28 57 -64 57z" />
    <glyph glyph-name="sevensuperior" unicode="&#x2077;" horiz-adv-x="357" 
d="M331 763l-181 -375h-103l154 317h-176v73h306v-15z" />
    <glyph glyph-name="eightsuperior" unicode="&#x2078;" horiz-adv-x="366" 
d="M231 665c0 25 -21 44 -49 44s-47 -19 -47 -44c0 -24 20 -43 49 -43c27 0 47 19 47 43zM241 513c0 31 -25 53 -57 53c-35 0 -60 -22 -60 -53c0 -29 23 -52 60 -52c35 0 57 23 57 52zM325 671c0 -31 -15 -57 -44 -76c39 -19 59 -54 59 -90c0 -72 -61 -122 -156 -122
c-99 0 -160 48 -160 121c0 35 23 72 55 91c-27 17 -40 42 -40 75c0 68 62 116 145 116s141 -47 141 -115z" />
    <glyph glyph-name="ninesuperior" unicode="&#x2079;" horiz-adv-x="366" 
d="M344 652c0 -36 -22 -87 -66 -153l-75 -111h-112l93 137c-3 -1 -8 -1 -15 -1c-45 0 -81 11 -108 34s-41 54 -41 93s15 71 45 95c30 25 69 37 118 37c97 0 161 -52 161 -131zM183 592c36 0 61 25 61 57c6 51 -68 74 -108 40c-38 -31 -12 -102 47 -97z" />
    <glyph glyph-name="plussuperior" unicode="&#x207a;" horiz-adv-x="372" 
d="M154 510h-105v58h105v95h64v-95h103v-58h-103v-97h-64v97z" />
    <glyph glyph-name="hyphensuperior" unicode="&#x207b;" horiz-adv-x="250" 
d="M220 495h-191v62h191v-62z" />
    <glyph glyph-name="equalsuperior" unicode="&#x207c;" horiz-adv-x="372" 
d="M320 551h-272v57h272v-57zM320 453h-272v56h272v-56z" />
    <glyph glyph-name="parenleftsuperior" unicode="&#x207d;" horiz-adv-x="205" 
d="M139 829l58 -23c-41 -55 -77 -142 -77 -234c0 -90 25 -171 75 -243l-56 -25c-61 61 -106 159 -106 267c0 99 47 195 106 258z" />
    <glyph glyph-name="parenrightsuperior" unicode="&#x207e;" horiz-adv-x="205" 
d="M10 805l58 23c59 -61 105 -158 105 -258c0 -108 -44 -206 -105 -267l-57 25c50 72 75 153 75 243c0 92 -35 181 -76 234z" />
    <glyph glyph-name="nsuperior" unicode="&#x207f;" horiz-adv-x="381" 
d="M135 300h-101v295h81l12 -41c27 32 61 48 104 48c75 0 112 -39 112 -116v-186h-100v168c0 29 -18 55 -46 55c-37 0 -62 -33 -62 -98v-125z" />
    <glyph glyph-name="zeroinferior" unicode="&#x2080;" horiz-adv-x="366" 
d="M181 -98c-58 0 -100 19 -125 58c-25 38 -37 86 -37 143c0 35 4 66 13 94c19 57 71 107 151 107c127 0 163 -106 163 -201c0 -94 -39 -201 -165 -201zM243 104c0 82 -20 123 -60 123c-42 0 -63 -41 -63 -123c0 -83 21 -124 63 -124c40 0 60 41 60 124z" />
    <glyph glyph-name="oneinferior" unicode="&#x2081;" horiz-adv-x="338" 
d="M227 304h15v-394h-99v270c-9 -5 -25 -12 -46 -21s-37 -17 -47 -22v86z" />
    <glyph glyph-name="twoinferior" unicode="&#x2082;" horiz-adv-x="366" 
d="M122 144l-86 15c-3 9 -4 19 -4 32c0 33 15 61 44 82c29 22 64 33 104 33c84 0 148 -43 148 -116c0 -49 -40 -89 -81 -112s-92 -60 -108 -99h191v-71h-305c-1 4 -6 13 -7 16c1 48 16 86 45 117s48 45 89 70c17 11 30 18 37 23c15 9 39 34 39 54c0 28 -21 42 -52 42
c-32 0 -59 -24 -59 -57c0 -6 2 -16 5 -29z" />
    <glyph glyph-name="threeinferior" unicode="&#x2083;" horiz-adv-x="366" 
d="M112 101l-10 13l91 112h-154v73h294v-15l-110 -130c68 -11 108 -57 108 -118c0 -77 -69 -133 -166 -133c-53 0 -99 11 -137 32v89c39 -31 80 -46 125 -46c51 0 82 27 82 63c0 41 -33 65 -82 65c-13 0 -26 -2 -41 -5z" />
    <glyph glyph-name="fourinferior" unicode="&#x2084;" horiz-adv-x="366" 
d="M7 8l180 290h95l-151 -236h82v34l48 75h48v-109h45v-71h-45v-81h-95v81h-207v17z" />
    <glyph glyph-name="fiveinferior" unicode="&#x2085;" horiz-adv-x="366" 
d="M183 167c85 0 151 -46 151 -129c0 -39 -16 -71 -47 -96s-71 -37 -119 -37c-52 0 -97 10 -136 31v89c37 -31 78 -47 123 -47c49 0 84 28 84 64c0 39 -36 59 -85 59c-37 0 -68 -6 -92 -19l-12 6l25 210h238v-71h-165l-7 -64c9 3 23 4 42 4z" />
    <glyph glyph-name="sixinferior" unicode="&#x2086;" horiz-adv-x="366" 
d="M343 36c0 -79 -66 -132 -163 -132c-99 0 -161 50 -161 131c0 37 21 86 64 149l77 114h111l-96 -138c5 1 12 1 21 1c89 0 147 -50 147 -125zM180 94c-35 0 -61 -26 -61 -57c0 -33 24 -56 61 -56c39 0 64 23 64 56c0 32 -28 57 -64 57z" />
    <glyph glyph-name="seveninferior" unicode="&#x2087;" horiz-adv-x="357" 
d="M331 283l-181 -375h-103l154 317h-176v73h306v-15z" />
    <glyph glyph-name="eightinferior" unicode="&#x2088;" horiz-adv-x="366" 
d="M231 185c0 25 -21 44 -49 44s-47 -19 -47 -44c0 -24 20 -43 49 -43c27 0 47 19 47 43zM241 33c0 31 -25 53 -57 53c-35 0 -60 -22 -60 -53c0 -29 23 -52 60 -52c35 0 57 23 57 52zM325 191c0 -31 -15 -57 -44 -76c39 -19 59 -54 59 -90c0 -72 -61 -122 -156 -122
c-99 0 -160 48 -160 121c0 35 23 72 55 91c-27 17 -40 42 -40 75c0 68 62 116 145 116s141 -47 141 -115z" />
    <glyph glyph-name="nineinferior" unicode="&#x2089;" horiz-adv-x="366" 
d="M344 174c0 -36 -22 -87 -66 -153l-75 -111h-112l93 137c-3 -1 -8 -1 -15 -1c-45 0 -81 11 -108 34s-41 54 -41 93s15 71 45 95c30 25 69 37 118 37c97 0 161 -52 161 -131zM183 114c36 0 61 25 61 57c6 51 -68 74 -108 40c-38 -31 -12 -102 47 -97z" />
    <glyph glyph-name="plusinferior" unicode="&#x208a;" horiz-adv-x="372" 
d="M154 48h-105v57h105v95h64v-95h103v-57h-103v-97h-64v97z" />
    <glyph glyph-name="hypheninferior" unicode="&#x208b;" horiz-adv-x="250" 
d="M220 31h-191v63h191v-63z" />
    <glyph glyph-name="equalinferior" unicode="&#x208c;" horiz-adv-x="372" 
d="M320 88h-272v57h272v-57zM320 -10h-272v56h272v-56z" />
    <glyph glyph-name="parenleftinferior" unicode="&#x208d;" horiz-adv-x="205" 
d="M138 367l58 -22c-41 -55 -76 -142 -76 -235c0 -87 25 -168 75 -241l-57 -25c-61 63 -105 157 -105 265c0 100 46 198 105 258z" />
    <glyph glyph-name="parenrightinferior" unicode="&#x208e;" horiz-adv-x="205" 
d="M9 344l58 22c59 -60 105 -158 105 -258c0 -104 -35 -192 -105 -265l-56 25c49 75 74 155 74 241c0 93 -35 182 -76 235z" />
    <glyph glyph-name="Euro" unicode="&#x20ac;" horiz-adv-x="572" 
d="M455 410v-53h-423v53h48c15 77 48 139 101 187c53 49 123 73 208 73c44 0 88 -7 131 -21v-120c-40 15 -79 22 -116 22c-93 0 -159 -50 -183 -141h234zM32 261v53h423v-53h-238c19 -92 82 -151 179 -151c45 0 92 10 139 31v-121c-45 -18 -95 -27 -151 -27
c-169 0 -285 100 -306 268h-46z" />
    <glyph glyph-name="centigrade" unicode="&#x2103;" horiz-adv-x="877" 
d="M162 436c-76 0 -124 52 -124 121c0 34 12 63 36 86c25 24 54 36 88 36c35 0 64 -12 88 -36c24 -23 36 -52 36 -86c0 -33 -12 -62 -36 -86c-24 -23 -53 -35 -88 -35zM162 623c-36 0 -65 -30 -65 -66c0 -37 26 -67 65 -67s67 30 67 67c0 36 -28 66 -67 66zM844 153l1 -126
c-53 -26 -117 -39 -192 -39c-111 0 -197 32 -260 95c-62 63 -93 145 -93 244c0 97 33 179 98 246c66 67 152 100 259 100c68 0 124 -9 167 -27v-125c-46 21 -95 31 -146 31c-64 0 -118 -20 -162 -60c-43 -39 -65 -94 -65 -165c0 -136 84 -218 219 -218c59 0 117 15 174 44z
" />
    <glyph glyph-name="fahrenheit" unicode="&#x2109;" horiz-adv-x="825" 
d="M163 436c-76 0 -124 52 -124 121c0 34 12 63 36 86c25 24 54 36 88 36c35 0 64 -12 88 -36c24 -23 36 -52 36 -86c0 -33 -12 -62 -36 -86c-24 -23 -53 -35 -88 -35zM163 623c-36 0 -65 -30 -65 -66c0 -37 26 -67 65 -67s67 30 67 67c0 36 -28 66 -67 66zM505 265v-265
h-149v660h452v-115h-303v-169h265v-111h-265z" />
    <glyph glyph-name="afii61289" unicode="&#x2113;" horiz-adv-x="506" 
d="M70 161l-18 28l-22 36l81 58v197c0 153 64 221 160 221c72 0 126 -41 126 -129c0 -98 -66 -206 -197 -325v-62c0 -73 26 -109 77 -109c36 0 81 35 118 103l31 -19l37 -22c-51 -98 -114 -147 -189 -147c-103 0 -157 66 -162 198c-19 -13 -33 -23 -42 -28zM267 622
c-48 0 -71 -74 -71 -190v-81c33 35 61 74 83 115s33 77 33 106c0 27 -16 50 -45 50z" />
    <glyph glyph-name="afii61352" unicode="&#x2116;" horiz-adv-x="1062" 
d="M1007 318v-81h-326v81h326zM215 385v-385h-148v673h22c43 -47 106 -111 190 -194s146 -146 187 -190h4v371h148v-671h-21l-379 396h-3zM841 676c51 0 93 -15 124 -45c32 -29 48 -67 48 -112s-16 -82 -48 -111s-73 -44 -124 -44c-107 0 -174 64 -174 155
c0 45 16 82 49 112s74 45 125 45zM841 596c-41 0 -70 -34 -70 -75c0 -47 25 -78 70 -78c44 0 72 33 72 78c0 43 -28 75 -72 75z" />
    <glyph glyph-name="published" unicode="&#x2117;" horiz-adv-x="854" 
d="M639 410c0 -44 -16 -80 -47 -109s-70 -43 -119 -43h-76v-141h-102v444h174c54 0 96 -15 125 -45c30 -29 45 -65 45 -106zM454 487h-57v-159h60c106 -3 107 163 -3 159zM428 -30c-113 0 -203 35 -270 106s-100 162 -100 274c0 109 36 200 107 271c72 71 160 107 263 107
s190 -36 261 -107c72 -71 108 -162 108 -271s-36 -199 -108 -272c-71 -72 -158 -108 -261 -108zM428 658c-83 0 -154 -30 -211 -90c-57 -59 -86 -132 -86 -218c0 -89 27 -164 80 -223s124 -88 212 -88c85 0 156 30 213 90s86 134 86 221c0 86 -28 159 -84 218
c-56 60 -126 90 -210 90z" />
    <glyph glyph-name="trademark" unicode="&#x2122;" horiz-adv-x="797" 
d="M369 677l171 -183l171 183h12v-372h-88v189h-3l-85 -103h-13l-87 101h-2v-187h-89v372h13zM324 611h-100v-306h-87v306h-102v65h289v-65z" />
    <glyph glyph-name="Ohm" unicode="&#x2126;" horiz-adv-x="795" 
d="M399 550c-63 0 -114 -22 -151 -67s-55 -100 -55 -167c0 -57 13 -114 38 -172c26 -58 60 -100 102 -126v-18h-301v114h98c1 1 2 3 2 4c-56 63 -84 138 -84 227c0 95 33 173 98 235s150 93 253 93c102 0 185 -31 250 -93c65 -61 97 -138 97 -230c0 -88 -28 -165 -85 -232
c1 -1 1 -2 1 -4h97v-114h-301v18c45 25 81 66 106 123s38 115 38 173c0 66 -18 122 -54 167c-35 46 -85 69 -149 69z" />
    <glyph glyph-name="angstrom" unicode="&#x212b;" horiz-adv-x="662" 
d="M653 0h-151l-45 104h-253l-46 -104h-148l307 659c-61 5 -103 51 -103 110c0 65 51 117 116 117c68 0 119 -52 119 -117c0 -56 -42 -101 -99 -110zM334 389h-4l-81 -183h164zM330 821c-25 0 -46 -24 -46 -52c0 -25 19 -46 46 -46c28 0 48 21 48 46c0 29 -20 52 -48 52z
" />
    <glyph glyph-name="estimated" unicode="&#x212e;" horiz-adv-x="817" 
d="M754 314h-561v-179c21 -33 51 -61 91 -83c40 -21 81 -32 123 -32c84 0 166 43 221 110h61c-76 -88 -178 -141 -283 -141c-95 0 -177 33 -246 100c-68 67 -102 147 -102 240c0 91 34 169 102 234c69 65 151 97 246 97c97 0 180 -33 247 -99s101 -148 101 -247zM193 343
h425v179c-19 32 -49 58 -90 78c-40 20 -80 30 -121 30c-72 0 -153 -44 -214 -112v-175z" />
    <glyph glyph-name="onethird" unicode="&#x2153;" horiz-adv-x="823" 
d="M568 191l-10 13l91 112h-154v73h294v-15l-110 -130c68 -11 108 -57 108 -118c0 -77 -69 -133 -166 -133c-53 0 -99 11 -137 32v89c39 -31 80 -46 125 -46c51 0 82 27 82 63c0 41 -33 65 -82 65c-13 0 -26 -2 -41 -5zM566 684h84l-477 -711h-84zM236 695h16v-396h-99v272
c-9 -5 -25 -12 -46 -21s-37 -17 -48 -22v85z" />
    <glyph glyph-name="twothirds" unicode="&#x2154;" horiz-adv-x="823" 
d="M116 534l-86 15c-3 9 -4 19 -4 32c0 33 15 61 44 82c29 22 64 33 104 33c84 0 148 -43 148 -116c0 -49 -40 -89 -81 -112s-92 -60 -108 -99h191v-71h-305c-1 4 -6 13 -7 16c1 48 16 86 45 117s48 45 89 70c17 11 30 18 37 23c15 9 39 34 39 54c0 28 -21 42 -52 42
c-32 0 -59 -24 -59 -57c0 -6 2 -16 5 -29zM586 191l-10 13l91 112h-154v73h294v-15l-110 -130c68 -11 108 -57 108 -118c0 -77 -69 -133 -166 -133c-53 0 -99 11 -137 32v89c39 -31 80 -46 125 -46c51 0 82 27 82 63c0 41 -33 65 -82 65c-13 0 -26 -2 -41 -5zM606 684h84
l-477 -711h-84z" />
    <glyph glyph-name="onefifth" unicode="&#x2155;" horiz-adv-x="823" 
d="M616 257c85 0 151 -46 151 -129c0 -39 -16 -71 -47 -96s-71 -37 -119 -37c-52 0 -97 10 -136 31v89c37 -31 78 -47 123 -47c49 0 84 28 84 64c0 39 -36 59 -85 59c-37 0 -68 -6 -92 -19l-12 6l25 210h238v-71h-165l-7 -64c9 3 23 4 42 4zM567 684h84l-477 -711h-84z
M227 695h16v-396h-99v272c-9 -5 -25 -12 -46 -21s-37 -17 -48 -22v85z" />
    <glyph glyph-name="twofifths" unicode="&#x2156;" horiz-adv-x="823" 
d="M126 534l-86 15c-3 9 -4 19 -4 32c0 33 15 61 44 82c29 22 64 33 104 33c84 0 148 -43 148 -116c0 -49 -40 -89 -81 -112s-92 -60 -108 -99h191v-71h-305c-1 4 -6 13 -7 16c1 48 16 86 45 117s48 45 89 70c17 11 30 18 37 23c15 9 39 34 39 54c0 28 -21 42 -52 42
c-32 0 -59 -24 -59 -57c0 -6 2 -16 5 -29zM646 257c85 0 151 -46 151 -129c0 -39 -16 -71 -47 -96s-71 -37 -119 -37c-52 0 -97 10 -136 31v89c37 -31 78 -47 123 -47c49 0 84 28 84 64c0 39 -36 59 -85 59c-37 0 -68 -6 -92 -19l-12 6l25 210h238v-71h-165l-7 -64
c9 3 23 4 42 4zM626 684h84l-477 -711h-84z" />
    <glyph glyph-name="threefifths" unicode="&#x2157;" horiz-adv-x="823" 
d="M629 257c85 0 151 -46 151 -129c0 -39 -16 -71 -47 -96s-71 -37 -119 -37c-52 0 -97 10 -136 31v89c37 -31 78 -47 123 -47c49 0 84 28 84 64c0 39 -36 59 -85 59c-37 0 -68 -6 -92 -19l-12 6l25 210h238v-71h-165l-7 -64c9 3 23 4 42 4zM125 491l-11 13l92 112h-154v73
h294v-15l-110 -130c68 -11 109 -57 109 -118c0 -77 -70 -133 -167 -133c-54 0 -100 11 -137 32v89c39 -31 81 -46 126 -46c51 0 81 27 81 63c0 41 -33 65 -81 65c-13 0 -27 -2 -42 -5zM598 684h84l-477 -711h-84z" />
    <glyph glyph-name="fourfifths" unicode="&#x2158;" horiz-adv-x="823" 
d="M10 397l180 290h95l-151 -236h82v34l48 75h48v-109h45v-71h-45v-81h-95v81h-207v17zM654 257c85 0 151 -46 151 -129c0 -39 -16 -71 -47 -96s-71 -37 -119 -37c-52 0 -97 10 -136 31v89c37 -31 78 -47 123 -47c49 0 84 28 84 64c0 39 -36 59 -85 59c-37 0 -68 -6 -92 -19
l-12 6l25 210h238v-71h-165l-7 -64c9 3 23 4 42 4zM616 684h84l-477 -711h-84z" />
    <glyph glyph-name="onesixth" unicode="&#x2159;" horiz-adv-x="823" 
d="M762 126c0 -79 -66 -132 -163 -132c-99 0 -161 50 -161 131c0 37 21 86 64 149l77 114h111l-96 -138c5 1 12 1 21 1c89 0 147 -50 147 -125zM599 184c-35 0 -61 -26 -61 -57c0 -33 24 -56 61 -56c39 0 64 23 64 56c0 32 -28 57 -64 57zM589 684h84l-477 -711h-84z
M251 695h16v-396h-99v272c-9 -5 -25 -12 -46 -21s-37 -17 -48 -22v85z" />
    <glyph glyph-name="fivesixths" unicode="&#x215a;" horiz-adv-x="823" 
d="M195 557c85 0 151 -46 151 -129c0 -39 -16 -72 -47 -97s-71 -38 -119 -38c-49 0 -95 11 -136 33v89c37 -31 78 -47 123 -47c49 0 84 28 84 64c0 39 -36 59 -85 59c-37 0 -68 -6 -92 -19l-12 6l25 210h238v-71h-165l-7 -64c9 3 23 4 42 4zM783 126
c0 -79 -66 -132 -163 -132c-99 0 -161 50 -161 131c0 37 21 86 64 149l77 114h111l-96 -138c5 1 12 1 21 1c89 0 147 -50 147 -125zM620 184c-35 0 -61 -26 -61 -57c0 -33 24 -56 61 -56c39 0 64 23 64 56c0 32 -28 57 -64 57zM612 684h84l-477 -711h-84z" />
    <glyph glyph-name="oneeighth" unicode="&#x215b;" horiz-adv-x="823" 
d="M563 684h84l-477 -711h-84zM228 695h16v-396h-99v272c-9 -5 -25 -12 -46 -21s-37 -17 -48 -22v85zM658 275c0 25 -21 44 -49 44s-47 -19 -47 -44c0 -24 20 -43 49 -43c27 0 47 19 47 43zM668 123c0 31 -25 53 -57 53c-35 0 -60 -22 -60 -53c0 -29 23 -52 60 -52
c35 0 57 23 57 52zM752 281c0 -31 -15 -57 -44 -76c39 -19 59 -54 59 -90c0 -72 -61 -122 -156 -122c-99 0 -160 48 -160 121c0 35 23 72 55 91c-27 17 -40 42 -40 75c0 68 62 116 145 116s141 -47 141 -115z" />
    <glyph glyph-name="threeeighths" unicode="&#x215c;" horiz-adv-x="823" 
d="M676 275c0 25 -21 44 -49 44s-47 -19 -47 -44c0 -24 20 -43 49 -43c27 0 47 19 47 43zM686 123c0 31 -25 53 -57 53c-35 0 -60 -22 -60 -53c0 -29 23 -52 60 -52c35 0 57 23 57 52zM770 281c0 -31 -15 -57 -44 -76c39 -19 59 -54 59 -90c0 -72 -61 -122 -156 -122
c-99 0 -160 48 -160 121c0 35 23 72 55 91c-27 17 -40 42 -40 75c0 68 62 116 145 116s141 -47 141 -115zM127 491l-11 13l92 112h-154v73h294v-15l-110 -130c68 -11 109 -57 109 -118c0 -77 -70 -133 -167 -133c-54 0 -100 11 -137 32v89c38 -31 80 -46 126 -46
c51 0 81 27 81 63c0 41 -33 65 -81 65c-13 0 -27 -2 -42 -5zM595 684h84l-477 -711h-84z" />
    <glyph glyph-name="fiveeighths" unicode="&#x215d;" horiz-adv-x="823" 
d="M684 275c0 25 -21 44 -49 44s-47 -19 -47 -44c0 -24 20 -43 49 -43c27 0 47 19 47 43zM694 123c0 31 -25 53 -57 53c-35 0 -60 -22 -60 -53c0 -29 23 -52 60 -52c35 0 57 23 57 52zM778 281c0 -31 -15 -57 -44 -76c39 -19 59 -54 59 -90c0 -72 -61 -122 -156 -122
c-99 0 -160 48 -160 121c0 35 23 72 55 91c-27 17 -40 42 -40 75c0 68 62 116 145 116s141 -47 141 -115zM189 557c85 0 151 -46 151 -129c0 -39 -16 -72 -47 -97s-71 -38 -119 -38c-49 0 -95 11 -136 33v89c37 -31 78 -47 123 -47c49 0 84 28 84 64c0 39 -36 59 -85 59
c-37 0 -68 -6 -92 -19l-12 6l25 210h238v-71h-165l-7 -64c9 3 23 4 42 4zM600 684h84l-477 -711h-84z" />
    <glyph glyph-name="seveneighths" unicode="&#x215e;" horiz-adv-x="823" 
d="M662 275c0 25 -21 44 -49 44s-47 -19 -47 -44c0 -24 20 -43 49 -43c27 0 47 19 47 43zM672 123c0 31 -25 53 -57 53c-35 0 -60 -22 -60 -53c0 -29 23 -52 60 -52c35 0 57 23 57 52zM756 281c0 -31 -15 -57 -44 -76c39 -19 59 -54 59 -90c0 -72 -61 -122 -156 -122
c-99 0 -160 48 -160 121c0 35 23 72 55 91c-27 17 -40 42 -40 75c0 68 62 116 145 116s141 -47 141 -115zM365 673l-181 -375h-103l154 317h-176v73h306v-15zM559 684h84l-477 -711h-84z" />
    <glyph glyph-name="uni215F" unicode="&#x215f;" horiz-adv-x="453" 
d="M579 684h84l-477 -711h-84zM244 695h16v-396h-99v272c-9 -5 -25 -12 -46 -21s-37 -17 -48 -22v85z" />
    <glyph glyph-name="partialdiff" unicode="&#x2202;" horiz-adv-x="624" 
d="M297 -11c-63 0 -115 20 -155 60c-39 40 -59 96 -59 169c0 67 20 122 60 163c41 41 91 62 151 62c51 0 94 -14 129 -42c-2 70 -20 126 -54 167c-33 42 -76 63 -129 63c-15 0 -37 -3 -65 -8l16 89c21 5 45 7 71 7c63 0 115 -18 158 -53c85 -69 120 -182 120 -323
c0 -113 -23 -200 -68 -262c-45 -61 -103 -92 -175 -92zM298 82c88 0 130 110 132 210c-39 42 -83 63 -132 63c-33 0 -60 -13 -79 -40s-29 -58 -29 -95c0 -92 44 -138 108 -138z" />
    <glyph glyph-name="gradient" unicode="&#x2207;" horiz-adv-x="682" 
d="M14 660h652l-313 -671h-21zM480 546h-285l144 -328h1z" />
    <glyph glyph-name="product" unicode="&#x220f;" horiz-adv-x="662" 
d="M599 660v-772h-149v657h-239v-657h-149v772h537z" />
    <glyph glyph-name="summation" unicode="&#x2211;" horiz-adv-x="604" 
d="M265 545l126 -255l-139 -286h329v-115h-554v15l197 385l-186 355v16h524v-115h-297z" />
    <glyph glyph-name="minus" unicode="&#x2212;" horiz-adv-x="572" 
d="M490 333v-81h-409v81h409z" />
    <glyph glyph-name="radical" unicode="&#x221a;" horiz-adv-x="563" 
d="M27 330l142 65l88 -218l32 97c89 280 138 438 149 475h100l-262 -791h-21l-141 317c-13 -5 -45 -20 -58 -25c-3 9 -7 23 -14 40s-12 31 -15 40z" />
    <glyph glyph-name="infinity" unicode="&#x221e;" horiz-adv-x="767" 
d="M214 436c56 0 114 -31 174 -92c57 59 109 92 180 92c48 0 88 -15 119 -46c31 -30 47 -69 47 -116s-17 -86 -50 -118s-74 -48 -125 -48c-53 0 -110 31 -171 93c-59 -60 -108 -93 -179 -93c-47 0 -87 16 -119 47c-31 31 -47 70 -47 117c0 46 16 85 48 116
c32 32 73 48 123 48zM214 350c-39 0 -68 -37 -68 -78c0 -43 30 -78 69 -78c32 0 70 25 114 76c-15 17 -27 30 -37 39c-19 20 -51 41 -78 41zM563 350c-27 0 -66 -26 -115 -78l42 -43c17 -16 46 -35 71 -35c39 0 70 37 70 80c0 45 -31 76 -68 76z" />
    <glyph glyph-name="logicaland" unicode="&#x2227;" horiz-adv-x="567" 
d="M290 472l247 -472h-119l-140 285c-17 -37 -40 -88 -70 -151l-62 -134h-118l239 472h23z" />
    <glyph glyph-name="logicalor" unicode="&#x2228;" horiz-adv-x="568" 
d="M278 185l140 286h119l-247 -471h-23l-239 471h118z" />
    <glyph glyph-name="intersection" unicode="&#x2229;" horiz-adv-x="578" 
d="M287 376c-80 0 -122 -54 -122 -122v-254h-110v256c0 65 21 118 64 159s99 62 168 62c73 0 131 -22 173 -66c43 -43 64 -101 64 -173v-238h-112v250c0 71 -41 126 -125 126z" />
    <glyph glyph-name="union" unicode="&#x222a;" horiz-adv-x="578" 
d="M287 96c84 0 125 56 125 125v250h112v-238c0 -71 -21 -129 -64 -172c-42 -43 -100 -65 -173 -65c-69 0 -125 20 -168 61s-64 94 -64 158v256h110v-254c0 -67 42 -121 122 -121z" />
    <glyph glyph-name="integral" unicode="&#x222b;" horiz-adv-x="367" 
d="M148 18c-1 66 -7 154 -17 264c-10 111 -15 199 -16 264c0 127 51 190 152 190c32 0 62 -4 89 -13v-87c-31 5 -51 8 -62 8c-52 0 -73 -23 -73 -88c0 -42 4 -107 11 -195l12 -140c8 -104 12 -173 12 -207c0 -111 -58 -174 -159 -174c-23 0 -51 5 -84 15v92
c32 -9 56 -14 71 -14c47 0 64 26 64 85z" />
    <glyph glyph-name="approxequal" unicode="&#x2248;" horiz-adv-x="572" 
d="M372 159c-21 0 -51 7 -88 22s-64 23 -80 23c-21 0 -46 -16 -73 -49l-46 40c28 58 65 87 112 87c21 0 50 -7 89 -22s67 -22 84 -22c23 0 45 16 66 47l50 -39c-23 -52 -63 -87 -114 -87zM372 318c-21 0 -51 7 -88 22s-64 23 -80 23c-21 0 -45 -16 -73 -49l-46 40
c28 59 65 88 112 88c21 0 50 -7 89 -22s67 -22 84 -22c22 0 44 15 66 46l50 -38c-23 -53 -63 -88 -114 -88z" />
    <glyph glyph-name="notequal" unicode="&#x2260;" horiz-adv-x="572" 
d="M148 78h-73l77 89h-74v80h140l79 89h-219v81h286l65 76h72l-68 -76h56v-81h-120l-80 -89h200v-80h-265z" />
    <glyph glyph-name="lessequal" unicode="&#x2264;" horiz-adv-x="572" 
d="M504 211v-92l-438 188v16l438 183v-92l-249 -99zM504 12h-439v78h439v-78z" />
    <glyph glyph-name="greaterequal" unicode="&#x2265;" horiz-adv-x="572" 
d="M65 90h439v-78h-439v78zM504 323v-16l-439 -188v92l249 104c-24 11 -50 21 -78 32l-92 36l-79 31v92z" />
    <glyph glyph-name="lozenge" unicode="&#x25ca;" horiz-adv-x="545" 
d="M285 0h-26l-216 336l216 332h26l215 -332zM406 336l-134 214l-133 -214l133 -224z" />
    <glyph glyph-name="zero.text" unicode="&#xe000;" horiz-adv-x="572" 
d="M286 672c99 0 171 -43 207 -114c37 -69 52 -143 52 -228c0 -84 -17 -159 -54 -228c-37 -68 -110 -112 -207 -112s-169 41 -206 108c-37 68 -53 143 -53 232c0 85 16 160 53 229s111 113 208 113zM286 563c-83 0 -124 -77 -124 -232s41 -233 124 -233c81 0 122 78 122 233
s-41 232 -122 232z" />
    <glyph glyph-name="one.text" unicode="&#xe001;" horiz-adv-x="465" 
d="M327 667h19v-667h-141v472l-154 -68v125z" />
    <glyph glyph-name="two.text" unicode="&#xe002;" horiz-adv-x="572" 
d="M520 0h-460l-18 13c3 80 21 142 57 190c37 48 72 76 132 115l23 15l24 16c8 5 35 24 43 32c9 8 29 25 36 36c12 19 23 39 23 64c0 57 -43 88 -100 88c-59 0 -99 -42 -99 -103c0 -13 2 -29 7 -48l-124 22c-3 16 -5 32 -5 47c0 55 22 101 67 136s99 53 160 53
c65 0 120 -17 164 -50s66 -81 66 -142c0 -72 -48 -139 -144 -202l-45 -29c-25 -15 -41 -26 -50 -33l-37 -32c-32 -28 -45 -55 -52 -88h332v-100z" />
    <glyph glyph-name="three.text" unicode="&#xe003;" horiz-adv-x="564" 
d="M155 330l-14 19l162 207l-1 2v2h-252v99h453v-19l-180 -219c119 -27 177 -100 177 -207c0 -65 -24 -119 -73 -161c-49 -41 -111 -62 -186 -62c-81 0 -151 17 -210 51v120c52 -45 115 -67 188 -67c95 0 152 51 152 124c0 80 -68 118 -155 118c-19 0 -39 -2 -61 -7z" />
    <glyph glyph-name="four.text" unicode="&#xe004;" horiz-adv-x="572" 
d="M350 338l69 109h64v-199h70v-99h-70v-149h-133v149h-345v16l300 495h144l-256 -412h157v90z" />
    <glyph glyph-name="five.text" unicode="&#xe005;" horiz-adv-x="572" 
d="M293 427c66 0 121 -19 166 -56s68 -89 68 -157c0 -66 -24 -120 -73 -161s-111 -62 -187 -62c-78 0 -147 17 -208 51v121c41 -40 116 -68 187 -68c92 0 152 49 152 122c0 77 -61 116 -148 116c-53 0 -103 -12 -149 -35l-18 9l45 353h369v-99h-271c-5 -33 -11 -82 -19 -147
c24 9 53 13 86 13z" />
    <glyph glyph-name="six.text" unicode="&#xe006;" horiz-adv-x="572" 
d="M87 378l173 281h146l-162 -255c0 -1 1 -3 2 -4c22 10 48 15 79 15c63 0 113 -20 152 -59s58 -89 58 -148c0 -65 -23 -117 -69 -158c-46 -40 -106 -60 -179 -60c-75 0 -136 19 -182 58s-69 93 -69 162c0 57 17 113 51 168zM287 326c-68 0 -118 -47 -118 -114
s45 -115 118 -115c71 0 117 48 117 115c0 65 -46 114 -117 114z" />
    <glyph glyph-name="seven.text" unicode="&#xe007;" horiz-adv-x="498" 
d="M490 642l-286 -642h-139l250 559h-288v100h463v-17z" />
    <glyph glyph-name="eight.text" unicode="&#xe008;" horiz-adv-x="572" 
d="M387 475c0 53 -41 91 -98 91c-56 0 -97 -39 -97 -91s41 -89 98 -89c56 0 97 38 97 89zM288 310c-69 0 -116 -45 -116 -106s45 -108 116 -108s116 47 116 108s-44 106 -116 106zM431 355v-4c69 -32 104 -86 104 -161c0 -60 -23 -108 -68 -145s-104 -55 -179 -55
c-153 0 -250 77 -250 197c0 68 38 131 102 159l1 4c-52 28 -78 73 -78 136c0 55 21 100 64 134c43 35 97 52 161 52c65 0 118 -17 159 -52c42 -34 63 -78 63 -133c0 -53 -30 -107 -79 -132z" />
    <glyph glyph-name="nine.text" unicode="&#xe009;" horiz-adv-x="572" 
d="M311 0h-146l163 257c-2 2 -3 3 -3 4c-23 -10 -49 -15 -79 -15c-62 0 -112 19 -151 58c-38 39 -57 89 -57 148c0 65 23 118 68 158c46 41 106 61 180 61c75 0 135 -20 180 -59c46 -39 69 -93 69 -161c0 -52 -17 -108 -51 -167c-40 -71 -98 -165 -173 -284zM285 336
c68 0 117 45 117 112c0 68 -44 116 -116 116c-71 0 -117 -49 -117 -116c0 -64 47 -112 116 -112z" />
    <glyph glyph-name="numbersign.text" unicode="&#xe00a;" horiz-adv-x="556" 
d="M358 457l37 170h77l-18 -84c-8 -38 -14 -67 -19 -86h86v-66h-100l-28 -123h92v-67h-106l-44 -201h-78c22 97 37 164 44 201h-112l-43 -201h-79l45 201h-79v67h93c12 55 21 96 28 123h-88v66h102l38 170h77l-37 -170h112zM343 391h-112l-27 -123h113c12 55 21 96 26 123z
" />
    <glyph glyph-name="dollar.text" unicode="&#xe00b;" horiz-adv-x="572" 
d="M330 -106h-79v104c-72 5 -132 22 -181 52v120c29 -21 64 -38 105 -51c42 -13 77 -20 106 -20c69 0 106 32 106 80c0 66 -78 92 -154 130c-77 36 -154 81 -154 179c0 91 64 159 172 172v110h79v-109c54 -5 103 -17 147 -38v-112c-55 36 -114 54 -176 54
c-63 0 -95 -25 -95 -76c0 -36 49 -66 110 -93c88 -36 204 -95 202 -208c0 -96 -67 -174 -188 -189v-105z" />
    <glyph glyph-name="euro.text" unicode="&#xe00c;" horiz-adv-x="572" 
d="M455 410v-53h-423v53h48c15 77 48 139 101 187c53 49 123 73 208 73c44 0 88 -7 131 -21v-120c-40 15 -79 22 -116 22c-93 0 -159 -50 -183 -141h234zM32 261v53h423v-53h-238c19 -92 82 -151 179 -151c45 0 92 10 139 31v-121c-45 -18 -95 -27 -151 -27
c-169 0 -285 100 -306 268h-46z" />
    <glyph glyph-name="florin.text" unicode="&#xe00d;" horiz-adv-x="509" 
d="M177 312h-80v91h90l8 73c13 132 73 198 180 198c34 0 68 -5 102 -16v-109c-23 7 -44 10 -63 10c-48 0 -75 -27 -83 -91l-7 -65h104v-91h-113l-17 -159c-10 -91 -30 -156 -59 -194c-29 -39 -73 -58 -132 -58c-34 0 -69 7 -104 20v115c28 -11 51 -16 70 -16
c29 0 50 12 61 36s21 71 29 140z" />
    <glyph glyph-name="sterling.text" unicode="&#xe00e;" horiz-adv-x="572" 
d="M503 641v-112c-43 19 -81 28 -114 28c-64 0 -107 -34 -107 -114l-1 -66h152v-81h-155c-3 -89 -18 -154 -47 -195h284v-101h-459v15c53 67 82 160 87 281h-66v81h68l2 71c5 168 120 222 218 222c49 0 95 -10 138 -29z" />
    <glyph glyph-name="cent.text" unicode="&#xe00f;" horiz-adv-x="513" 
d="M338 3h-79v111c-121 16 -189 105 -189 226c0 61 17 112 52 154c35 43 80 70 137 81v112h79v-107c33 -2 65 -9 94 -20v-109c-28 15 -62 23 -101 23c-76 0 -130 -50 -130 -131c0 -77 49 -126 128 -126c45 0 85 10 119 30v-106c-27 -15 -63 -24 -110 -29v-109z" />
    <glyph glyph-name="yen.text" unicode="&#xe010;" horiz-adv-x="572" 
d="M532 314v-52h-471v52h138l-171 346h157l111 -288h3l109 288h153l-174 -346h145zM61 165v52h471v-52h-165v-165h-148v165h-158z" />
    <glyph glyph-name="zero.taboldstyle" unicode="&#xe024;" horiz-adv-x="556" 
d="M279 460c77 0 138 -22 184 -67c47 -44 70 -100 70 -167c0 -69 -24 -125 -71 -170c-47 -44 -108 -66 -183 -66c-79 0 -141 22 -187 65c-45 44 -68 100 -68 169c0 67 24 123 71 168c48 45 109 68 184 68zM280 353c-71 0 -119 -55 -119 -126c0 -77 44 -129 119 -129
c73 0 120 54 120 129c0 72 -48 126 -120 126z" />
    <glyph glyph-name="one.taboldstyle" unicode="&#xe025;" horiz-adv-x="556" 
d="M509 0h-428v100h150v207l-139 -49v109l258 92h20v-359h139v-100z" />
    <glyph glyph-name="two.taboldstyle" unicode="&#xe026;" horiz-adv-x="556" 
d="M189 261l-116 16c-3 11 -5 23 -5 34c0 47 21 84 62 111c41 28 93 42 156 42s115 -13 154 -39s59 -61 59 -106c0 -31 -15 -59 -44 -84s-62 -44 -97 -57s-68 -26 -99 -40s-47 -27 -49 -38h291v-100h-452c0 3 -1 8 -1 11c0 88 52 159 137 199c27 12 74 31 98 42
c40 16 78 40 75 65c0 28 -30 50 -86 50c-53 0 -90 -34 -90 -75c0 -11 2 -22 7 -31z" />
    <glyph glyph-name="three.taboldstyle" unicode="&#xe027;" horiz-adv-x="556" 
d="M153 145l-13 19l145 179h-231v102h420v-19l-156 -194c103 -32 154 -99 154 -200c0 -60 -23 -109 -68 -148s-102 -58 -173 -58c-73 0 -138 16 -194 49v116c50 -42 108 -63 175 -63c80 0 131 49 131 114c0 64 -52 110 -129 110c-21 0 -42 -2 -61 -7z" />
    <glyph glyph-name="four.taboldstyle" unicode="&#xe028;" horiz-adv-x="556" 
d="M8 14l280 431h135l-236 -350h139v77l55 83h75v-160h73v-95h-73v-169h-129v169h-319v14z" />
    <glyph glyph-name="five.taboldstyle" unicode="&#xe029;" horiz-adv-x="556" 
d="M279 235c63 0 115 -17 157 -52c43 -35 64 -84 64 -148c0 -62 -23 -112 -69 -151s-105 -59 -176 -59c-69 0 -135 17 -196 50v119c43 -39 112 -65 177 -65c81 0 135 48 135 112c0 60 -53 109 -132 109c-49 0 -94 -11 -135 -33l-19 8l40 320h343v-102h-250l-16 -119
c23 7 48 11 77 11z" />
    <glyph glyph-name="six.taboldstyle" unicode="&#xe02a;" horiz-adv-x="556" 
d="M513 194c0 -60 -22 -109 -67 -147c-44 -37 -102 -56 -173 -56s-127 18 -170 54c-42 36 -63 85 -63 146c0 49 18 103 53 160l157 255h144l-146 -224c0 -2 0 -4 1 -5c18 5 38 7 59 7c61 0 111 -18 148 -54c38 -36 57 -81 57 -136zM275 300c-60 0 -104 -47 -104 -104
c0 -63 40 -105 104 -105c65 0 111 42 111 105c0 57 -47 104 -111 104z" />
    <glyph glyph-name="seven.taboldstyle" unicode="&#xe02b;" horiz-adv-x="556" 
d="M498 426l-264 -594h-140l227 512h-276v101h453v-19z" />
    <glyph glyph-name="eight.taboldstyle" unicode="&#xe02c;" horiz-adv-x="556" 
d="M178 184c0 -52 41 -94 102 -94c60 0 100 43 100 94c0 57 -43 98 -100 98c-59 0 -102 -41 -102 -98zM484 445c0 -47 -27 -97 -68 -124c0 -1 -1 -1 -1 -2c61 -29 91 -76 91 -143c0 -56 -21 -101 -62 -135s-95 -51 -164 -51c-144 0 -233 71 -233 182c0 60 37 120 92 145v2
c-45 27 -65 80 -65 123c0 51 19 93 58 126s89 50 148 50c61 0 110 -16 147 -48c38 -32 57 -74 57 -125zM195 434c0 -44 36 -78 85 -78c48 0 84 35 84 79c0 45 -37 80 -85 80s-84 -34 -84 -81z" />
    <glyph glyph-name="nine.taboldstyle" unicode="&#xe02d;" horiz-adv-x="556" 
d="M40 254c0 60 22 109 66 147c45 38 103 57 175 57c70 0 126 -18 168 -55c43 -36 64 -85 64 -146c0 -64 -23 -111 -68 -186l-145 -239h-144l149 235c0 1 0 3 -1 4c-18 -5 -38 -7 -60 -7c-61 0 -111 18 -148 53c-37 36 -56 82 -56 137zM279 148c60 0 103 47 103 103
c0 64 -40 106 -103 106c-65 0 -111 -42 -111 -106c0 -57 47 -103 111 -103z" />
    <glyph glyph-name="numbersign.taboldstyle" unicode="&#xe02e;" horiz-adv-x="556" 
d="M347 381l28 128h75l-28 -128h71v-70h-87c-4 -20 -11 -49 -20 -88h78v-69h-92c-14 -61 -26 -112 -35 -154h-76l36 154h-84c-14 -61 -26 -112 -35 -154h-77c9 42 21 93 35 154h-63v69h79c3 13 9 43 20 88h-71v70h86l28 128h77c-2 -11 -12 -54 -30 -128h85zM332 311h-84
l-21 -88h83z" />
    <glyph glyph-name="dollar.taboldstyle" unicode="&#xe02f;" horiz-adv-x="556" 
d="M319 -103h-76v98c-67 5 -121 19 -164 42v111c52 -37 130 -59 183 -59c56 0 97 23 97 63c0 37 -43 67 -96 88c-75 31 -177 74 -175 168c0 79 59 134 155 147v98h75v-97c47 -3 92 -14 137 -33v-103c-40 25 -103 43 -150 43c-48 0 -83 -21 -83 -57c0 -75 269 -76 269 -250
c0 -84 -60 -148 -172 -160v-99z" />
    <glyph glyph-name="euro.taboldstyle" unicode="&#xe030;" horiz-adv-x="556" 
d="M41 207v49h388v-49h-211c18 -77 77 -116 177 -116c37 2 72 11 107 27v-107c-46 -14 -92 -21 -139 -21c-153 0 -259 80 -280 217h-42zM429 345v-50h-388v50h46c29 127 128 210 281 210c44 0 84 -6 121 -17v-106c-37 13 -72 19 -106 19c-83 0 -135 -35 -158 -106h204z" />
    <glyph glyph-name="florin.taboldstyle" unicode="&#xe031;" horiz-adv-x="556" 
d="M211 254h-76v81h85l7 64c15 117 72 175 172 175c32 0 65 -5 98 -14v-97c-24 6 -44 9 -59 9c-46 0 -72 -27 -79 -80l-7 -57h100v-81h-108l-16 -139c-19 -157 -68 -223 -181 -223c-31 0 -65 6 -100 18v101c25 -9 48 -13 68 -13c27 0 45 10 56 31s20 62 28 123z" />
    <glyph glyph-name="sterling.taboldstyle" unicode="&#xe032;" horiz-adv-x="556" 
d="M469 534v-104c-41 16 -77 24 -108 24c-64 0 -96 -31 -96 -93v-45h136v-73h-140c-1 -68 -12 -115 -33 -142h250v-101h-426v14c49 41 75 118 79 229h-59v73h61l2 55c6 142 110 186 202 186c47 0 91 -8 132 -23z" />
    <glyph glyph-name="cent.taboldstyle" unicode="&#xe033;" horiz-adv-x="556" 
d="M340 -35h-76v97c-109 13 -173 90 -173 193c0 104 68 181 173 200v98h76v-95c29 -2 56 -7 79 -16v-101c-25 14 -56 21 -91 21c-64 0 -109 -40 -109 -105c0 -61 42 -101 107 -101c35 0 71 10 108 29v-98c-21 -11 -53 -20 -94 -26v-96z" />
    <glyph glyph-name="yen.taboldstyle" unicode="&#xe034;" horiz-adv-x="556" 
d="M496 263v-51h-435v51h124l-154 282h149l99 -232h2l96 232h146l-157 -282h130zM61 126v50h435v-50h-149v-126h-143v126h-143z" />
    <glyph glyph-name="zero.textoldstyle" unicode="&#xe048;" horiz-adv-x="556" 
d="M279 459c77 0 138 -22 184 -67c47 -44 70 -100 70 -168s-23 -124 -70 -168s-108 -66 -184 -66c-79 0 -141 22 -187 65c-45 44 -68 100 -68 169c0 67 24 123 71 168c48 45 109 67 184 67zM280 352c-71 0 -119 -56 -119 -125c0 -77 44 -129 119 -129s120 54 120 129
c0 71 -48 125 -120 125z" />
    <glyph glyph-name="one.textoldstyle" unicode="&#xe049;" horiz-adv-x="502" 
d="M470 0h-428v100h150v207l-139 -51v112l258 96h20v-364h139v-100z" />
    <glyph glyph-name="two.textoldstyle" unicode="&#xe04a;" horiz-adv-x="556" 
d="M194 261l-116 16c-3 11 -5 23 -5 34c0 47 21 84 62 111c41 28 93 42 156 42s115 -13 154 -39s59 -61 59 -106c0 -31 -15 -59 -44 -84s-62 -44 -97 -57s-68 -26 -99 -40s-47 -27 -49 -38h291v-100h-452c0 3 -1 8 -1 11c0 88 52 159 137 199c27 12 74 31 98 42
c40 16 78 40 75 65c0 28 -30 50 -86 50c-53 0 -90 -34 -90 -75c0 -11 2 -22 7 -31z" />
    <glyph glyph-name="three.textoldstyle" unicode="&#xe04b;" horiz-adv-x="516" 
d="M139 145l-13 19l145 179h-231v102h420v-19l-156 -194c103 -32 154 -99 154 -200c0 -60 -23 -109 -68 -148s-102 -58 -173 -58c-73 0 -138 16 -194 49v116c50 -42 108 -63 175 -63c80 0 131 49 131 114c0 64 -52 110 -129 110c-21 0 -42 -2 -61 -7z" />
    <glyph glyph-name="four.textoldstyle" unicode="&#xe04c;" horiz-adv-x="556" 
d="M8 14l280 431h135l-236 -350h139v77l55 83h75v-160h73v-95h-73v-169h-129v169h-319v14z" />
    <glyph glyph-name="five.textoldstyle" unicode="&#xe04d;" horiz-adv-x="528" 
d="M259 235c62 0 114 -17 157 -52s64 -84 64 -148c0 -62 -23 -112 -69 -151s-104 -59 -175 -59c-70 0 -136 17 -197 50v119c43 -39 112 -65 177 -65c81 0 135 48 135 112c0 61 -53 109 -132 109c-49 0 -94 -11 -135 -33l-19 8l40 320h342v-102h-249l-15 -119
c23 7 48 11 76 11z" />
    <glyph glyph-name="six.textoldstyle" unicode="&#xe04e;" horiz-adv-x="556" 
d="M513 194c0 -60 -22 -109 -67 -147c-44 -37 -102 -56 -173 -56s-127 18 -170 54c-42 36 -63 85 -63 146c0 49 18 103 53 160l157 255h144l-146 -225c0 -1 0 -3 1 -4c18 5 38 7 59 7c61 0 111 -18 148 -54c38 -36 57 -81 57 -136zM275 300c-60 0 -104 -47 -104 -104
c0 -63 40 -105 104 -105c65 0 111 42 111 105c0 57 -47 104 -111 104z" />
    <glyph glyph-name="seven.textoldstyle" unicode="&#xe04f;" horiz-adv-x="493" 
d="M468 426l-263 -594h-140l225 512h-274v101h452v-19z" />
    <glyph glyph-name="eight.textoldstyle" unicode="&#xe050;" horiz-adv-x="556" 
d="M178 184c0 -52 41 -94 102 -94c60 0 100 43 100 94c0 57 -43 98 -100 98c-59 0 -102 -41 -102 -98zM484 445c0 -47 -27 -97 -68 -124c0 -1 -1 -1 -1 -2c61 -29 91 -76 91 -143c0 -56 -21 -101 -62 -135s-95 -51 -164 -51c-144 0 -233 71 -233 182c0 60 37 120 92 145v2
c-45 27 -65 80 -65 123c0 51 19 93 58 126s89 50 148 50c61 0 110 -16 147 -48c38 -32 57 -74 57 -125zM195 434c0 -44 36 -78 85 -78c48 0 84 35 84 79c0 45 -37 80 -85 80s-84 -34 -84 -81z" />
    <glyph glyph-name="nine.textoldstyle" unicode="&#xe051;" horiz-adv-x="556" 
d="M40 254c0 60 22 109 66 147c45 38 103 57 175 57c70 0 126 -18 168 -55c43 -36 64 -85 64 -146c0 -64 -24 -114 -68 -186l-145 -239h-144l149 235c0 1 0 3 -1 4c-18 -5 -38 -7 -60 -7c-61 0 -111 18 -148 53c-37 36 -56 82 -56 137zM279 148c60 0 103 47 103 103
c0 64 -40 106 -103 106c-65 0 -111 -42 -111 -106c0 -57 47 -103 111 -103z" />
    <glyph glyph-name="numbersign.textoldstyle" unicode="&#xe052;" horiz-adv-x="504" 
d="M317 381l28 128h75l-28 -128h71v-70h-87c-4 -20 -11 -49 -20 -88h78v-69h-92c-14 -61 -26 -112 -35 -154h-76l36 154h-84c-14 -61 -26 -112 -35 -154h-77c9 42 21 93 35 154h-63v69h79c3 13 9 43 20 88h-71v70h86l28 128h77c-2 -11 -12 -54 -30 -128h85zM302 311h-84
l-21 -88h83z" />
    <glyph glyph-name="dollar.textoldstyle" unicode="&#xe053;" horiz-adv-x="507" 
d="M279 -103h-76v98c-66 5 -120 19 -163 42v111c25 -19 55 -33 90 -44c35 -10 66 -15 93 -15c55 0 97 23 97 63c0 37 -43 67 -96 88c-75 31 -177 74 -175 168c0 79 59 134 155 147v98h75v-97c47 -3 92 -14 137 -33v-103c-41 25 -104 43 -151 43c-48 0 -83 -21 -83 -57
c0 -27 43 -50 95 -71c76 -28 176 -78 175 -179c0 -84 -60 -148 -173 -160v-99z" />
    <glyph glyph-name="euro.textoldstyle" unicode="&#xe054;" horiz-adv-x="546" 
d="M41 207v49h388v-49h-211c18 -77 77 -116 177 -116c37 2 72 11 107 27v-107c-46 -14 -92 -21 -139 -21c-153 0 -259 80 -280 217h-42zM429 345v-50h-388v50h46c29 127 128 210 281 210c44 0 84 -6 121 -17v-106c-37 13 -72 19 -106 19c-83 0 -135 -35 -158 -106h204z" />
    <glyph glyph-name="florin.textoldstyle" unicode="&#xe055;" horiz-adv-x="474" 
d="M165 254h-76v81h85l7 64c11 117 69 175 172 175c31 0 64 -5 99 -14v-97c-24 6 -44 9 -61 9c-47 0 -74 -27 -79 -80c-1 -15 -4 -34 -7 -57h101v-81h-109l-15 -139c-19 -157 -69 -223 -181 -223c-31 0 -65 6 -100 18v101c25 -9 48 -13 68 -13c27 0 45 10 56 31
s20 62 28 123z" />
    <glyph glyph-name="sterling.textoldstyle" unicode="&#xe056;" horiz-adv-x="504" 
d="M456 534v-105c-41 16 -77 24 -108 24c-64 0 -96 -31 -96 -93v-44h137v-73h-141c-1 -68 -12 -115 -33 -142h250v-101h-426v14c49 41 75 118 79 229h-59v73h62l1 55c6 142 110 186 202 186c47 0 91 -8 132 -23z" />
    <glyph glyph-name="cent.textoldstyle" unicode="&#xe057;" horiz-adv-x="464" 
d="M306 -35h-77v97c-109 13 -171 90 -171 193c0 104 68 181 171 200v98h77v-95c31 -2 57 -7 79 -16v-101c-25 14 -56 21 -91 21c-64 0 -109 -40 -109 -105c0 -61 43 -101 107 -101c35 0 71 10 108 29v-98c-21 -11 -53 -20 -94 -26v-96z" />
    <glyph glyph-name="yen.textoldstyle" unicode="&#xe058;" horiz-adv-x="528" 
d="M481 263v-49h-434v49h124l-155 282h150l99 -232c15 33 47 110 97 232h147l-158 -282h130zM47 127v49h434v-49h-148v-127h-144v127h-142z" />
    <glyph glyph-name="percent.text" unicode="&#xe059;" horiz-adv-x="704" 
d="M189 585c43 0 78 -14 105 -41s41 -60 41 -100c0 -39 -14 -72 -41 -99s-62 -41 -105 -41c-91 0 -148 59 -148 140c0 80 60 141 148 141zM189 505c-35 0 -58 -28 -58 -61c0 -37 22 -62 58 -62c35 0 57 26 57 62c0 35 -24 61 -57 61zM518 274c44 0 79 -14 106 -41
s41 -60 41 -99c0 -40 -14 -74 -41 -101s-63 -40 -106 -40c-91 0 -147 58 -147 141c0 39 14 72 41 99c28 27 63 41 106 41zM461 134c0 -37 21 -63 57 -63c35 0 58 27 58 63c0 33 -25 60 -58 60s-57 -27 -57 -60zM499 589h80l-377 -608h-78z" />
    <glyph glyph-name="perthousand.text" unicode="&#xe05a;" horiz-adv-x="1030" 
d="M189 585c43 0 78 -14 105 -41s41 -60 41 -100c0 -39 -14 -72 -41 -99s-62 -41 -105 -41c-91 0 -148 59 -148 140c0 80 60 141 148 141zM189 505c-35 0 -58 -28 -58 -61c0 -37 22 -62 58 -62c35 0 57 26 57 62c0 35 -24 61 -57 61zM518 274c44 0 79 -14 106 -41
s41 -60 41 -99c0 -40 -14 -74 -41 -101s-63 -40 -106 -40c-91 0 -147 58 -147 141c0 39 14 72 41 99c28 27 63 41 106 41zM461 134c0 -37 21 -63 57 -63c35 0 58 27 58 63c0 33 -25 60 -58 60s-57 -27 -57 -60zM499 589h80l-377 -608h-78zM846 274c44 0 79 -14 106 -41
s40 -60 40 -99c0 -40 -14 -74 -41 -101s-62 -40 -105 -40c-91 0 -147 58 -147 141c0 39 14 72 41 99c28 27 63 41 106 41zM846 194c-35 0 -58 -27 -58 -60c0 -37 22 -63 58 -63c35 0 58 27 58 63c0 33 -25 60 -58 60z" />
    <glyph glyph-name="asuperior" unicode="&#xe06c;" horiz-adv-x="362" 
d="M326 298h-77l-11 35c-24 -28 -60 -42 -109 -42c-69 0 -107 40 -107 89c0 65 61 97 152 97h50v10c0 29 -21 43 -62 43c-33 0 -67 -9 -102 -26v76c37 15 78 23 122 23c96 0 144 -43 144 -129v-176zM225 417v13h-37c-39 0 -68 -13 -68 -41c0 -21 16 -32 49 -32
c35 0 56 25 56 60z" />
    <glyph glyph-name="bsuperior" unicode="&#xe06d;" horiz-adv-x="405" 
d="M114 341l-12 -41h-68v463h97v-197c22 22 54 33 95 33c96 0 157 -60 157 -152c0 -89 -65 -155 -162 -155c-37 0 -84 17 -107 49zM211 522c-44 0 -73 -32 -73 -75c0 -47 28 -76 72 -76s74 32 74 76c0 43 -30 75 -73 75z" />
    <glyph glyph-name="dsuperior" unicode="&#xe06f;" horiz-adv-x="408" 
d="M271 570v96c1 56 1 88 1 97h99l1 -463h-74l-16 41c-26 -33 -62 -49 -107 -49c-97 0 -155 62 -155 151c0 93 66 160 159 160c37 0 68 -11 92 -33zM194 524c-43 0 -74 -33 -74 -76c0 -47 30 -76 75 -76c43 0 73 32 73 77c0 43 -29 75 -74 75z" />
    <glyph glyph-name="esuperior" unicode="&#xe070;" horiz-adv-x="362" 
d="M181 606c97 0 156 -60 156 -155c0 -7 0 -15 -1 -22h-214c7 -41 44 -68 85 -68c38 0 76 13 115 38v-72c-39 -23 -80 -34 -125 -34c-115 0 -177 65 -177 157c0 43 15 80 45 110c30 31 69 46 116 46zM186 539c-35 0 -60 -23 -65 -55h125c-7 33 -28 55 -60 55z" />
    <glyph glyph-name="egravesuperior" unicode="&#xe071;" horiz-adv-x="366" 
d="M140 775l104 -137h-64l-112 94zM181 606c97 0 156 -60 156 -155c0 -7 0 -15 -1 -22h-214c7 -41 44 -68 85 -68c38 0 76 13 115 38v-72c-39 -23 -80 -34 -125 -34c-115 0 -177 65 -177 157c0 43 15 80 45 110c30 31 69 46 116 46zM186 539c-35 0 -60 -23 -65 -55h125
c-7 33 -28 55 -60 55z" />
    <glyph glyph-name="hsuperior" unicode="&#xe073;" horiz-adv-x="380" 
d="M34 764h98v-206c25 29 58 44 100 44c71 0 112 -39 112 -112v-190h-101v170c0 35 -15 53 -46 53c-33 0 -62 -28 -62 -81v-142h-101v464z" />
    <glyph glyph-name="isuperior" unicode="&#xe074;" horiz-adv-x="177" 
d="M36 594h102v-294h-102v294zM87 741c32 0 57 -25 57 -53c0 -29 -24 -53 -57 -53c-31 0 -55 24 -55 53c0 32 26 53 55 53z" />
    <glyph glyph-name="lsuperior" unicode="&#xe077;" horiz-adv-x="170" 
d="M34 763h101v-463h-101v463z" />
    <glyph glyph-name="msuperior" unicode="&#xe078;" horiz-adv-x="576" 
d="M135 300h-100v294h78l15 -43c24 33 64 49 95 49c48 0 81 -18 100 -54c24 37 59 56 105 56c69 0 110 -40 110 -115v-187h-102v172c0 34 -14 51 -42 51c-29 0 -57 -21 -57 -68v-155h-101v166c0 38 -15 57 -44 57s-57 -27 -57 -72v-151z" />
    <glyph glyph-name="osuperior" unicode="&#xe079;" horiz-adv-x="388" 
d="M194 605c51 0 93 -15 124 -45c32 -29 48 -67 48 -112s-16 -82 -48 -111s-73 -44 -124 -44c-107 0 -174 64 -174 155c0 45 16 82 49 112s74 45 125 45zM194 525c-41 0 -70 -34 -70 -75c0 -47 25 -78 70 -78c44 0 72 33 72 78c0 43 -28 75 -72 75z" />
    <glyph glyph-name="rsuperior" unicode="&#xe07c;" horiz-adv-x="273" 
d="M34 594h72l14 -53c17 41 50 61 97 61c16 0 33 -3 50 -8v-89c-21 7 -39 11 -56 11c-61 0 -76 -38 -76 -125v-91h-101v294z" />
    <glyph glyph-name="ssuperior" unicode="&#xe07d;" horiz-adv-x="276" 
d="M10 320v81c37 -27 74 -41 110 -41c29 0 43 8 43 25c0 16 -36 33 -73 45c-36 13 -72 45 -72 86c0 53 48 88 119 88c36 0 71 -7 106 -22v-75c-33 18 -63 27 -91 27c-25 0 -37 -7 -37 -22c0 -30 143 -30 143 -126c0 -53 -46 -94 -127 -94c-45 0 -86 9 -121 28z" />
    <glyph glyph-name="tsuperior" unicode="&#xe07e;" horiz-adv-x="255" 
d="M65 596l66 92h25v-92h80v-75h-80v-111c0 -27 11 -40 34 -40c15 0 34 6 56 19v-74c-22 -16 -50 -24 -85 -24c-81 0 -108 47 -108 127v103h-46v56z" />
    <glyph glyph-name="i.dot" unicode="&#xe096;" horiz-adv-x="264" 
d="M200 446v-446h-137v446h137zM134 519c-44 0 -75 34 -75 75s36 74 75 74c43 0 74 -33 74 -74s-31 -75 -74 -75z" />
    <glyph glyph-name="a.alt" unicode="&#xe0a8;" horiz-adv-x="595" 
d="M170 224c0 -76 44 -128 116 -128c71 0 116 55 116 128c0 72 -47 125 -116 125s-116 -54 -116 -125zM269 457c69 0 122 -22 159 -67l20 56h89v-446h-103l-12 56c-1 0 -3 1 -4 1c-40 -43 -93 -65 -158 -65c-141 0 -225 86 -225 226c0 67 21 124 64 170s100 69 170 69z" />
    <glyph glyph-name="g.alt" unicode="&#xe0a9;" horiz-adv-x="591" 
d="M406 17v32h-4c-33 -37 -81 -55 -142 -55c-68 0 -122 20 -163 61c-40 41 -60 96 -60 165s21 126 64 171s100 68 170 68c64 0 115 -22 154 -65h4l13 52h96v-365c0 -209 -95 -313 -286 -313c-77 0 -141 16 -191 47v121c63 -40 125 -60 184 -60c100 0 161 54 161 141z
M398 226c0 76 -45 124 -113 124c-69 0 -117 -53 -117 -125s46 -125 115 -125c71 0 115 55 115 126z" />
    <glyph glyph-name="two.alt" unicode="&#xe0aa;" horiz-adv-x="546" 
d="M293 106l1 -4h218v-102h-484v19c221 165 331 307 331 426c0 73 -44 116 -112 116c-53 0 -112 -21 -177 -63v110c59 44 126 66 202 66c71 0 126 -19 164 -57c39 -38 58 -86 58 -144c0 -61 -19 -124 -58 -190c-38 -66 -86 -125 -143 -177z" />
    <glyph glyph-name="two_taboldstyle.alt" unicode="&#xe0ab;" horiz-adv-x="556" 
d="M344 103c0 -1 1 -3 1 -4h169v-99h-484v21c72 33 131 66 202 114c72 48 117 104 117 155c0 41 -40 63 -97 63c-56 0 -131 -21 -180 -46v103c67 37 135 56 205 56c145 0 210 -66 210 -150c0 -34 -14 -71 -42 -112c-27 -40 -61 -74 -101 -101z" />
    <glyph glyph-name="two_textoldstyle.alt" unicode="&#xe0ac;" horiz-adv-x="556" 
d="M335 103c0 -1 1 -3 1 -4h178v-99h-484v21c72 33 131 66 202 114c72 48 117 104 117 155c0 41 -40 63 -97 63c-56 0 -131 -21 -180 -46v103c67 37 135 56 205 56c145 0 210 -66 210 -150c0 -75 -65 -153 -152 -213z" />
    <glyph glyph-name="A2.alt" unicode="&#xe0b6;" horiz-adv-x="662" 
d="M653 0h-150l-171 412h-4l-173 -412h-145l314 672h19z" />
    <glyph glyph-name="F.alt" unicode="&#xe0b7;" horiz-adv-x="535" 
d="M216 265v-481h-149v876h452v-115h-303v-169h265v-111h-265z" />
    <glyph glyph-name="I.alt" unicode="&#xe0b8;" horiz-adv-x="295" 
d="M221 847v-847h-149v847h149z" />
    <glyph glyph-name="L.alt" unicode="&#xe0b9;" horiz-adv-x="532" 
d="M67 0v847h149v-732h305v-115h-454z" />
    <glyph glyph-name="P2.alt" unicode="&#xe0ba;" horiz-adv-x="590" 
d="M569 438c0 -65 -23 -118 -68 -161c-45 -42 -103 -63 -174 -63h-111v-431h-149v877h253c80 0 141 -22 184 -65s65 -96 65 -157zM420 436c0 63 -42 113 -125 113h-80v-225h87c79 0 118 52 118 112z" />
    <glyph glyph-name="T.alt" unicode="&#xe0bb;" horiz-adv-x="559" 
d="M546 848v-115h-192v-733h-149v733h-193v115h534z" />
    <glyph glyph-name="Y.alt" unicode="&#xe0bc;" horiz-adv-x="664" 
d="M311 -216h-146l86 222l-248 653h155c15 -46 42 -125 81 -236s69 -196 88 -255h4c25 78 83 242 174 491h154z" />
    <glyph glyph-name="Q.alt" unicode="&#xe0bd;" horiz-adv-x="799" 
d="M399 -11c-108 0 -194 32 -259 96c-64 65 -96 146 -96 245c0 96 34 177 101 243c68 66 153 99 255 99c103 0 188 -33 254 -99c66 -65 99 -146 99 -243s-33 -179 -100 -244c-66 -65 -151 -97 -254 -97zM401 549c-61 0 -110 -21 -149 -63s-58 -94 -58 -156
c0 -64 19 -117 56 -159c38 -42 88 -63 151 -63c61 0 111 21 148 64c38 43 57 95 57 158c0 62 -19 114 -57 156c-37 42 -87 63 -148 63zM343 -56l401 -72l-35 -122l-401 71c7 27 19 68 35 123z" />
    <glyph glyph-name="Q2.alt" unicode="&#xe0be;" horiz-adv-x="799" 
d="M469 -216h-136l-1 212c-89 11 -160 48 -211 109s-77 136 -77 225c0 96 34 177 101 243c68 66 153 99 255 99c103 0 188 -33 254 -99c66 -65 99 -146 99 -243c0 -86 -26 -160 -79 -222s-121 -99 -205 -112v-212zM401 549c-61 0 -110 -21 -149 -63s-58 -94 -58 -156
c0 -95 55 -173 138 -196v194h137v-199c84 24 137 104 137 201c0 62 -19 114 -57 156c-37 42 -87 63 -148 63z" />
    <glyph glyph-name="uniE0C0" unicode="&#xe0c0;" horiz-adv-x="535" 
d="M519 732h-303v-732h-149v847h452v-115z" />
    <glyph glyph-name="uniE0C4" unicode="&#xe0c4;" horiz-adv-x="868" 
d="M512 -13v-203h-148v201c-105 10 -185 46 -239 109s-81 138 -81 227c0 103 38 186 115 251s169 97 277 97c109 0 200 -32 275 -97c75 -64 113 -148 113 -251c0 -84 -27 -158 -81 -222c-54 -63 -131 -101 -231 -112zM189 325c0 -57 15 -107 46 -150c31 -42 74 -66 129 -72
v444c-53 -7 -95 -32 -127 -75s-48 -92 -48 -147zM680 327c0 53 -15 102 -46 145s-71 68 -122 74v-444c51 6 91 31 122 74c31 44 46 94 46 151z" />
    <glyph glyph-name="uniE0C5" unicode="&#xe0c5;" horiz-adv-x="825" 
d="M486 -8v-208h-149v208c-91 4 -161 32 -210 84c-48 52 -72 119 -72 200v384h149v-391c0 -37 12 -71 36 -102c25 -31 57 -48 97 -52v545h149v-544c85 5 134 68 134 148v396h149v-381c0 -80 -25 -147 -75 -200s-119 -82 -208 -87z" />
    <glyph glyph-name="Parenleft" unicode="&#xe0d8;" horiz-adv-x="314" 
d="M227 765l75 -30c-84 -129 -126 -264 -126 -405s42 -274 126 -401l-76 -36c-53 61 -93 131 -122 208c-29 78 -43 154 -43 229c0 152 61 312 166 435z" />
    <glyph glyph-name="Parenright" unicode="&#xe0d9;" horiz-adv-x="314" 
d="M20 735l75 30c105 -123 167 -283 167 -435c0 -75 -15 -151 -44 -229c-29 -77 -69 -147 -122 -208l-75 36c84 128 126 262 126 401s-42 274 -127 405z" />
    <glyph glyph-name="Hyphen" unicode="&#xe0da;" horiz-adv-x="374" 
d="M320 231h-267v89h267v-89z" />
    <glyph glyph-name="Bracketleft" unicode="&#xe0db;" horiz-adv-x="289" 
d="M257 -98h-194v855h194v-84h-80v-692h80v-79z" />
    <glyph glyph-name="Bracketright" unicode="&#xe0dc;" horiz-adv-x="289" 
d="M36 757h193v-855h-193v79h79v692h-79v84z" />
    </font>
</defs>
</svg>
