<?xml version="1.0" standalone="no"?>
<!DOCTYPE svg PUBLIC "-//W3C//DTD SVG 1.1//EN" "http://www.w3.org/Graphics/SVG/1.1/DTD/svg11.dtd" >
<svg>
<metadata>
Created by FontForge 20120731 at Wed Dec 20 04:09:55 2017
 By www
Copyright \(c\) 2013 Parachute, www.parachute.gr.  All rights reserved.
</metadata>
<defs>
<font id="PFBagueSansPro" horiz-adv-x="402" >
  <font-face 
    font-family="PF Bague Sans Pro"
    font-weight="400"
    font-stretch="normal"
    units-per-em="1000"
    panose-1="2 0 5 3 0 0 0 2 0 3"
    ascent="800"
    descent="-200"
    x-height="445"
    cap-height="661"
    bbox="-472 -256 1722 910"
    underline-thickness="55"
    underline-position="-46"
    unicode-range="U+0020-FB06"
  />
<missing-glyph horiz-adv-x="447" 
d="M441 0h-436v699h436v-699zM376 39l-153 272l-154 -272h307zM376 658h-307l154 -272zM402 622l-155 -273l155 -273v546zM44 77l154 272l-154 272v-544z" />
    <glyph glyph-name="fj" unicode="fj" horiz-adv-x="477" 
d="M241 -228l-31 65c92 4 124 49 124 146v401h-174v-384h-75v384h-80v50c8 1 21 2 39 5l41 6v96c0 112 57 187 181 187c53 0 98 -10 135 -30v-67c-42 24 -86 36 -133 36c-72 0 -108 -41 -108 -124v-98h250v-414c0 -57 -2 -92 -15 -139c-18 -68 -61 -106 -154 -120z" />
    <glyph glyph-name="ffj" unicode="ffj" horiz-adv-x="738" 
d="M595 385h-174v-385h-76v385h-185v-385h-75v385h-80v49c8 1 21 2 39 5l41 6v77c0 112 56 187 179 187c49 0 92 -10 129 -29c31 32 76 48 135 48c55 0 99 -10 134 -30v-67c-42 24 -86 36 -132 36c-73 0 -109 -41 -109 -124v-98h250v-436c0 -49 -1 -79 -14 -123
c-16 -62 -61 -102 -155 -113c-7 14 -18 36 -31 65c91 3 124 46 124 137v410zM345 445v96c0 33 5 61 15 86c-31 14 -63 21 -98 21c-72 0 -102 -50 -102 -122v-81h185z" />
    <glyph glyph-name="f_t" unicode="ft" horiz-adv-x="577" 
d="M345 445l54 137h20v-137h125v-61h-125v-247c0 -53 16 -81 64 -81c27 0 55 9 82 27v-63c-27 -19 -59 -29 -96 -29c-56 0 -90 16 -106 51c-16 36 -20 69 -20 129v213h-183v-384h-75v384h-80v50c8 1 21 2 39 5l41 6v99c0 108 54 180 170 180c28 0 54 -4 79 -11v-64
c-23 9 -48 14 -77 14c-65 0 -97 -41 -97 -122v-96h185z" />
    <glyph glyph-name="ff" unicode="ff" horiz-adv-x="558" 
d="M44 439l41 6v82c0 108 58 180 179 180c51 0 96 -10 133 -31c27 31 70 47 129 47c26 0 50 -4 73 -11v-64c-23 9 -48 14 -75 14c-66 0 -99 -41 -99 -122v-95h135v-60h-135v-385h-75v385h-190v-385h-75v385h-80v49c8 1 21 2 39 5zM160 445h190v92c0 33 5 63 14 88
c-32 14 -66 21 -102 21c-68 0 -102 -40 -102 -121v-80z" />
    <glyph glyph-name="fi" unicode="fi" horiz-adv-x="475" 
d="M410 445v-445h-76v385h-174v-385h-75v385h-80v50l80 10v97c0 113 57 186 182 186c54 0 99 -10 135 -30v-66c-43 23 -88 35 -133 35c-73 0 -109 -41 -109 -123v-99h250z" />
    <glyph glyph-name="fl" unicode="fl" horiz-adv-x="478" 
d="M160 445h116v-61h-116v-384h-75v384h-80v50c8 1 21 2 39 5l41 6v96c0 112 56 186 180 186c58 0 107 -10 146 -29v-698h-76v655c-22 7 -45 11 -68 11c-71 0 -107 -41 -107 -123v-98z" />
    <glyph glyph-name="ffi" unicode="ffi" horiz-adv-x="743" 
d="M421 543v-98h255v-445h-77v384h-178v-384h-76v385h-185v-385h-75v385h-80v49c8 1 21 2 39 5l41 6v85c0 107 58 179 179 179c49 0 92 -10 129 -29c31 32 78 48 143 48c49 0 91 -10 126 -30v-67c-42 24 -86 36 -132 36c-73 0 -109 -41 -109 -124zM160 445h185v96
c0 33 5 61 15 86c-31 14 -63 21 -98 21c-72 0 -102 -50 -102 -122v-81z" />
    <glyph glyph-name="ffl" unicode="ffl" horiz-adv-x="743" 
d="M417 445h117v-61h-117v-384h-75v384h-182v-384h-75v384h-80v50c8 1 21 2 39 5l41 6v41c0 65 8 111 32 155s74 68 147 68c49 0 91 -10 128 -29c33 31 78 47 135 47c63 0 113 -10 149 -29v-698h-76v655c-21 7 -45 11 -70 11c-75 0 -113 -41 -113 -123v-98zM160 445h182v96
c0 36 5 65 16 87c-28 13 -60 20 -96 20c-72 0 -102 -50 -102 -122v-81z" />
    <glyph glyph-name="longs_t" unicode="&#x17f;t" horiz-adv-x="553" 
d="M160 541v-541h-75v385h-80v49c8 1 21 2 39 5l41 6v100c0 108 52 179 173 179c45 0 84 -10 119 -29v-65c-41 22 -80 33 -117 33c-67 0 -100 -41 -100 -122zM376 582h20v-137h125v-60h-125v-248c0 -53 16 -81 64 -81c28 0 55 9 82 27v-63c-27 -19 -59 -29 -96 -29
c-56 0 -90 16 -106 51c-16 36 -20 69 -20 129v214h-73v46l77 18c5 14 14 36 26 65c12 30 21 53 26 68z" />
    <glyph glyph-name=".notdef" horiz-adv-x="447" 
d="M441 0h-436v699h436v-699zM376 39l-153 272l-154 -272h307zM376 658h-307l154 -272zM402 622l-155 -273l155 -273v546zM44 77l154 272l-154 272v-544z" />
    <glyph glyph-name="NULL" horiz-adv-x="0" 
 />
    <glyph glyph-name="CR" horiz-adv-x="333" 
 />
    <glyph glyph-name="space" unicode=" " horiz-adv-x="240" 
 />
    <glyph glyph-name="exclam" unicode="!" horiz-adv-x="285" 
d="M183 690l-10 -530h-59c-8 351 -12 527 -12 530h81zM194 41c0 -28 -23 -50 -51 -50c-29 0 -52 22 -52 50c0 29 23 52 52 52c28 0 51 -23 51 -52z" />
    <glyph glyph-name="quotedbl" unicode="&#x22;" horiz-adv-x="300" 
d="M128 682v-215h-61v215h61zM233 682v-215h-61v215h61z" />
    <glyph glyph-name="numbersign" unicode="#" horiz-adv-x="521" 
d="M362 453l39 174h50l-22 -95l-17 -79h82v-43h-92l-36 -163h89v-44h-99l-44 -203h-50l45 203h-149l-45 -203h-49c5 27 14 65 25 115c11 51 18 80 20 88h-83v44h92c4 21 10 50 19 89l17 74h-92v43h101c7 31 21 89 40 174h49l-39 -174h149zM352 410h-148l-21 -93l-15 -70h149
c16 72 28 126 35 163z" />
    <glyph glyph-name="dollar" unicode="$" horiz-adv-x="548" 
d="M303 -98h-56v94c-71 4 -130 21 -177 52v72c61 -42 124 -63 190 -63c95 0 147 44 147 113c0 63 -51 108 -114 136c-90 41 -211 84 -209 194c0 95 66 151 163 162v98h56v-97c50 -3 96 -16 139 -37v-73c-49 33 -102 50 -159 50c-84 0 -126 -35 -126 -105
c0 -44 51 -78 115 -107c92 -39 211 -93 210 -210c0 -105 -70 -171 -179 -183v-96z" />
    <glyph glyph-name="percent" unicode="%" horiz-adv-x="734" 
d="M586 682h56l-499 -703h-56zM194 672c45 0 83 -15 112 -45s44 -67 44 -112c0 -44 -15 -81 -45 -112c-29 -30 -66 -45 -111 -45c-97 0 -159 66 -159 157c0 44 15 81 46 111c31 31 68 46 113 46zM194 618c-57 0 -97 -46 -97 -103c0 -60 37 -104 97 -104c56 0 95 47 95 104
c0 56 -40 103 -95 103zM702 150c0 -44 -15 -81 -45 -112c-30 -30 -67 -45 -112 -45c-97 0 -158 64 -158 155c0 45 15 82 45 113s68 46 113 46s83 -15 112 -45c30 -30 45 -67 45 -112zM545 253c-55 0 -96 -46 -96 -103c0 -60 37 -104 96 -104c57 0 96 47 96 104
s-40 103 -96 103z" />
    <glyph glyph-name="ampersand" unicode="&#x26;" horiz-adv-x="689" 
d="M683 -10l-58 -43c-60 33 -114 69 -163 106c-56 -47 -123 -70 -201 -70c-123 0 -199 65 -199 170c0 77 51 162 142 199c-19 44 -29 86 -29 125c0 53 17 96 50 131c34 35 83 53 146 53c46 0 91 -9 136 -28l-2 -66c-43 21 -86 31 -131 31c-88 0 -124 -53 -124 -124
c0 -100 80 -220 212 -333c43 53 76 127 97 223c12 -6 31 -16 58 -31c-25 -97 -60 -175 -106 -232c51 -40 108 -77 172 -111zM270 43c53 0 100 17 141 50c-79 69 -138 136 -177 203c-59 -23 -99 -78 -99 -133c0 -76 58 -120 135 -120z" />
    <glyph glyph-name="quotesingle" unicode="'" horiz-adv-x="204" 
d="M133 682v-215h-62v215h62z" />
    <glyph glyph-name="parenleft" unicode="(" horiz-adv-x="296" 
d="M234 736l44 -16c-91 -132 -136 -270 -136 -415c0 -146 45 -285 134 -417l-44 -19c-100 125 -159 288 -159 437c0 153 54 297 161 430z" />
    <glyph glyph-name="parenright" unicode=")" horiz-adv-x="296" 
d="M24 720l44 16c107 -133 161 -277 161 -430c0 -149 -59 -312 -159 -437l-44 19c89 133 134 272 134 417s-45 283 -136 415z" />
    <glyph glyph-name="asterisk" unicode="*" horiz-adv-x="442" 
d="M261 524l107 -46l-33 -59l-95 70l14 -118h-65l13 117c-52 -37 -84 -61 -96 -70c-5 7 -11 19 -20 34s-13 24 -14 25l109 45c-14 7 -34 16 -61 27s-43 18 -48 21l33 58l93 -70l-11 116h66l-14 -116l96 69l32 -57z" />
    <glyph glyph-name="plus" unicode="+" horiz-adv-x="548" 
d="M466 270h-165v-169h-55v169h-166v54h166v166h55v-166h165v-54z" />
    <glyph glyph-name="comma" unicode="," horiz-adv-x="189" 
d="M41 46c0 29 23 53 54 53c29 0 52 -21 52 -53c0 -21 -8 -50 -25 -89s-34 -73 -52 -102l-40 5l42 139c-21 7 -31 23 -31 47z" />
    <glyph glyph-name="hyphen" unicode="-" horiz-adv-x="376" 
d="M316 213h-257v62h257v-62z" />
    <glyph glyph-name="period" unicode="." horiz-adv-x="184" 
d="M91 96c29 0 52 -23 52 -52s-24 -52 -52 -52s-51 23 -51 52s23 52 51 52z" />
    <glyph glyph-name="slash" unicode="/" horiz-adv-x="308" 
d="M345 688l-315 -776h-58l313 776h60z" />
    <glyph glyph-name="zero" unicode="0" horiz-adv-x="548" 
d="M273 672c77 0 139 -34 172 -79c17 -23 31 -50 42 -82c21 -64 26 -118 26 -182c0 -61 -5 -116 -28 -179c-30 -89 -93 -160 -213 -160c-76 0 -135 32 -170 76c-17 22 -31 48 -42 79c-21 63 -27 119 -27 184c0 81 12 151 44 223c33 73 101 120 196 120zM273 609
c-67 0 -115 -40 -136 -101c-20 -61 -27 -115 -27 -179c0 -185 54 -277 163 -277c55 0 96 29 119 66c11 19 20 41 27 67c15 52 17 93 17 144s-2 92 -17 145c-19 75 -61 135 -146 135z" />
    <glyph glyph-name="one" unicode="1" horiz-adv-x="548" 
d="M332 665h14v-665h-78v542l-156 -90v77z" />
    <glyph glyph-name="two" unicode="2" horiz-adv-x="548" 
d="M489 0h-434l-16 10c1 83 19 143 59 191c21 25 42 45 63 62s50 37 87 60l53 35c11 7 27 19 46 35c40 33 56 65 56 101c0 76 -56 116 -136 116s-130 -55 -130 -131c0 -14 2 -30 6 -48l-75 12c-3 13 -5 30 -5 50c0 53 20 96 61 129c41 34 89 51 146 51c59 0 109 -15 150 -46
c41 -30 62 -74 62 -131c0 -71 -52 -138 -157 -201c-30 -19 -53 -33 -69 -44c-15 -11 -35 -26 -58 -47c-47 -41 -68 -88 -71 -144h362v-60z" />
    <glyph glyph-name="three" unicode="3" horiz-adv-x="548" 
d="M153 352l-8 13l194 232c0 1 -1 3 -1 4h-287v59h410v-12l-200 -239c127 -4 206 -79 206 -202c0 -65 -23 -117 -70 -157c-46 -39 -103 -59 -171 -59c-80 0 -147 19 -201 56v78c56 -48 121 -72 196 -72c109 0 172 66 172 162c0 45 -17 81 -52 106c-34 25 -75 38 -123 38
c-24 0 -46 -2 -65 -7z" />
    <glyph glyph-name="four" unicode="4" horiz-adv-x="548" 
d="M362 383l60 83h14v-239h86v-59h-86v-168h-74v168h-354v14l335 479h87l-308 -434h240v156z" />
    <glyph glyph-name="five" unicode="5" horiz-adv-x="548" 
d="M269 413c64 0 118 -18 161 -54c44 -36 66 -87 66 -153s-23 -118 -70 -157s-104 -58 -173 -58c-77 0 -143 19 -198 56v79c41 -43 118 -74 193 -74c51 0 93 15 125 44s48 66 48 111c0 99 -67 149 -170 149c-57 0 -109 -14 -157 -42l-13 5l44 341h345v-58h-284l-26 -208
c29 13 66 19 109 19z" />
    <glyph glyph-name="six" unicode="6" horiz-adv-x="548" 
d="M100 380l171 280h83l-172 -278c1 -1 3 -2 4 -2c23 19 57 28 102 28c63 0 114 -19 155 -58c41 -38 61 -88 61 -149c0 -63 -22 -114 -65 -153s-98 -58 -165 -58c-71 0 -127 19 -169 57c-42 39 -63 90 -63 154c0 56 19 116 58 179zM275 351c-91 0 -158 -57 -158 -149
c0 -88 60 -151 157 -151c96 0 155 63 155 151c0 87 -59 149 -154 149z" />
    <glyph glyph-name="seven" unicode="7" horiz-adv-x="548" 
d="M484 645l-288 -645h-76l269 601h-324v59h419v-15z" />
    <glyph glyph-name="eight" unicode="8" horiz-adv-x="548" 
d="M405 491c0 68 -53 118 -130 118c-76 0 -129 -50 -129 -118c0 -67 54 -116 130 -116c75 0 129 49 129 116zM275 322c-92 0 -154 -57 -154 -134c0 -79 59 -137 154 -137c93 0 153 58 153 137s-58 134 -153 134zM386 357v-4c78 -31 117 -88 117 -170
c0 -58 -21 -105 -64 -140s-97 -53 -164 -53c-68 0 -123 17 -166 51c-42 35 -63 81 -63 139c0 73 43 139 114 166l1 4c-63 29 -90 86 -90 145c0 53 19 95 58 128s88 49 146 49c57 0 105 -16 144 -49s59 -75 59 -128c0 -61 -36 -117 -92 -138z" />
    <glyph glyph-name="nine" unicode="9" horiz-adv-x="548" 
d="M445 282l-170 -282h-83l171 278l-4 3c-23 -19 -57 -28 -102 -28c-62 0 -113 19 -153 57c-40 39 -60 88 -60 149c0 63 21 114 64 153s98 59 165 59c69 0 125 -19 166 -58c42 -39 63 -90 63 -154c0 -55 -19 -114 -57 -177zM271 311c91 0 156 56 156 147
c0 88 -58 151 -154 151c-95 0 -154 -63 -154 -151c0 -85 60 -147 152 -147z" />
    <glyph glyph-name="colon" unicode=":" horiz-adv-x="208" 
d="M155 45c0 -28 -24 -51 -52 -51c-29 0 -52 23 -52 51c0 29 23 52 52 52s52 -23 52 -52zM155 348c0 -28 -23 -51 -52 -51c-28 0 -51 23 -51 51c0 29 23 52 51 52c29 0 52 -23 52 -52z" />
    <glyph glyph-name="semicolon" unicode=";" horiz-adv-x="218" 
d="M164 348c0 -28 -24 -51 -52 -51s-51 23 -51 51c0 29 23 52 51 52c29 0 52 -23 52 -52zM54 46c0 29 23 53 54 53c29 0 52 -21 52 -53c0 -21 -8 -50 -25 -89s-34 -73 -52 -102l-40 5l42 139c-21 7 -31 23 -31 47z" />
    <glyph glyph-name="less" unicode="&#x3c;" horiz-adv-x="548" 
d="M184 296l287 -156v-66l-394 216v11l394 215v-67z" />
    <glyph glyph-name="equal" unicode="=" horiz-adv-x="548" 
d="M471 241v-53h-395v53h395zM471 402v-54h-395v54h395z" />
    <glyph glyph-name="greater" unicode="&#x3e;" horiz-adv-x="548" 
d="M471 290l-394 -216v66l287 156l-287 153v67l394 -215v-11z" />
    <glyph glyph-name="question" unicode="?" horiz-adv-x="499" 
d="M349 509c0 67 -51 115 -138 115c-46 0 -96 -13 -149 -39v73c51 23 103 34 157 34c59 0 109 -16 149 -48c41 -31 61 -74 61 -128c0 -59 -33 -114 -76 -154c-60 -56 -137 -110 -137 -161c0 -15 4 -28 12 -39l-69 -17c-11 22 -16 42 -16 60c0 45 32 89 72 124
c60 51 134 106 134 180zM199 -10c-29 0 -51 22 -51 51s22 51 51 51s51 -22 51 -51s-23 -51 -51 -51z" />
    <glyph glyph-name="at" unicode="@" horiz-adv-x="888" 
d="M527 305v27h-68c-79 0 -118 -23 -118 -70c0 -39 34 -60 83 -60c68 0 103 43 103 103zM405 150c-88 0 -130 53 -130 105c0 81 59 121 176 121h76v16c0 55 -32 83 -95 83c-35 0 -74 -12 -116 -35v58c35 20 76 30 125 30c107 0 151 -50 151 -145v-121c0 -49 9 -69 49 -69
c33 0 58 16 76 47s27 68 27 111c0 76 -26 140 -79 191c-53 52 -121 78 -204 78c-89 0 -165 -31 -226 -93c-61 -61 -92 -137 -92 -226c0 -87 29 -160 86 -217s131 -85 221 -85c85 0 159 26 221 78v-69c-63 -44 -136 -66 -221 -66c-109 0 -198 34 -266 102s-102 154 -102 257
c0 105 37 193 110 266s163 110 268 110c102 0 185 -31 249 -94c64 -62 96 -139 96 -232c0 -58 -16 -108 -47 -151c-31 -42 -72 -63 -123 -63c-63 0 -94 31 -101 67l-4 2c-33 -37 -75 -56 -125 -56z" />
    <glyph glyph-name="A" unicode="A" horiz-adv-x="624" 
d="M611 0h-82l-63 149h-311l-62 -149h-79l292 667h15zM313 510h-4l-129 -302h262z" />
    <glyph glyph-name="B" unicode="B" horiz-adv-x="613" 
d="M435 361v-4c85 -24 125 -93 125 -166c0 -56 -20 -102 -59 -138c-39 -35 -88 -53 -148 -53h-272v662h248c115 0 193 -57 193 -161c0 -56 -31 -112 -87 -140zM482 196c0 76 -60 126 -155 126h-167v-254h177c53 0 91 13 112 38c22 26 33 56 33 90zM327 595h-167v-211h159
c47 0 125 21 125 108c0 63 -44 103 -117 103z" />
    <glyph glyph-name="C" unicode="C" horiz-adv-x="614" 
d="M587 110v-74c-51 -31 -115 -46 -194 -46c-107 0 -190 31 -250 94s-90 144 -90 243s33 181 98 247s147 99 246 99c71 0 126 -10 165 -30v-74c-47 23 -99 35 -156 35c-77 0 -141 -25 -193 -75c-51 -50 -77 -117 -77 -202c0 -81 23 -146 70 -195s112 -73 195 -73
c63 0 125 17 186 51z" />
    <glyph glyph-name="D" unicode="D" horiz-adv-x="684" 
d="M552 332c0 77 -21 140 -62 189s-101 73 -182 73h-148v-526h157c77 1 136 25 175 73c40 48 60 112 60 191zM317 0h-237v661h226c100 0 179 -30 237 -90c59 -60 88 -139 88 -238s-28 -180 -84 -241s-133 -92 -230 -92z" />
    <glyph glyph-name="E" unicode="E" horiz-adv-x="559" 
d="M161 68h366v-68h-447v661h422v-67h-341v-213h315v-66h-315v-247z" />
    <glyph glyph-name="F" unicode="F" horiz-adv-x="521" 
d="M161 293v-293h-81v661h425v-67h-344v-234h312v-67h-312z" />
    <glyph glyph-name="G" unicode="G" horiz-adv-x="669" 
d="M52 326c0 99 33 182 99 248c66 67 149 100 249 100c75 0 134 -12 178 -36v-76c-53 28 -111 42 -174 42c-77 0 -141 -25 -192 -76c-51 -50 -77 -117 -77 -202c0 -79 23 -144 68 -194c45 -49 110 -74 194 -74c47 0 92 9 133 26v245h75v-298c-56 -27 -130 -40 -221 -40
c-105 0 -186 32 -245 95c-58 63 -87 143 -87 240z" />
    <glyph glyph-name="H" unicode="H" horiz-adv-x="674" 
d="M593 661v-661h-79v314h-353v-314h-81v661h81v-279h353v279h79z" />
    <glyph glyph-name="I" unicode="I" horiz-adv-x="260" 
d="M169 661v-661h-80v661h80z" />
    <glyph glyph-name="J" unicode="J" horiz-adv-x="458" 
d="M145 59c60 0 100 16 120 47c21 31 31 77 31 136v419h81v-402c0 -56 -3 -93 -20 -145c-23 -74 -83 -120 -207 -124c-56 0 -102 10 -139 30v77c36 -23 94 -38 134 -38z" />
    <glyph glyph-name="K" unicode="K" horiz-adv-x="596" 
d="M80 661h81v-311l304 311h93l-308 -318l336 -343h-108l-317 336v-336h-81v661z" />
    <glyph glyph-name="L" unicode="L" horiz-adv-x="517" 
d="M80 0v661h81v-593h345v-68h-426z" />
    <glyph glyph-name="M" unicode="M" horiz-adv-x="815" 
d="M655 471l-240 -328h-16l-240 320l-2 -2v-461h-77v666h17l311 -420l309 420h17v-666h-77v234c1 103 1 181 1 235z" />
    <glyph glyph-name="N" unicode="N" horiz-adv-x="721" 
d="M159 500v-500h-79v669h18l459 -503h4v495h79v-666h-18l-460 505h-3z" />
    <glyph glyph-name="O" unicode="O" horiz-adv-x="790" 
d="M396 -10c-106 0 -190 32 -252 96c-61 64 -92 145 -92 244c0 95 33 176 100 242c67 67 149 100 244 100c98 0 179 -33 244 -99c65 -65 97 -146 97 -243s-32 -178 -97 -243c-64 -65 -145 -97 -244 -97zM135 330c0 -79 24 -144 71 -195s111 -76 190 -76c77 0 140 26 188 78
c49 53 73 117 73 193c0 77 -25 141 -74 193c-49 53 -111 79 -187 79s-139 -26 -188 -78s-73 -117 -73 -194z" />
    <glyph glyph-name="P" unicode="P" horiz-adv-x="570" 
d="M161 0h-82v660h226c74 0 132 -22 173 -65c42 -43 63 -94 63 -153c0 -67 -23 -121 -68 -162s-101 -61 -168 -61h-144v-219zM283 595h-123v-308h136c53 0 93 15 120 45c27 31 41 67 41 108c0 43 -15 79 -44 109c-29 31 -72 46 -130 46z" />
    <glyph glyph-name="Q" unicode="Q" horiz-adv-x="791" 
d="M135 330c0 -79 24 -144 71 -195s111 -76 191 -76c77 0 140 26 188 78c49 53 73 117 73 193c0 77 -25 141 -74 193c-49 53 -111 79 -187 79s-139 -26 -188 -79c-49 -52 -74 -116 -74 -193zM396 672c99 0 180 -33 244 -99c65 -65 97 -146 97 -243c0 -75 -21 -143 -63 -202
c-41 -59 -97 -99 -167 -120l-2 -4c81 -17 160 -34 236 -51c-16 -45 -25 -71 -26 -76l-374 117c-90 10 -161 46 -212 109s-76 140 -76 231c0 95 33 175 99 240c67 65 148 98 244 98z" />
    <glyph glyph-name="R" unicode="R" horiz-adv-x="600" 
d="M79 660h236c61 0 115 -18 160 -55c46 -36 69 -86 69 -151c0 -47 -16 -90 -48 -129c-32 -38 -76 -64 -132 -79l216 -246h-100l-234 277v13c141 5 217 74 217 158c0 92 -64 147 -160 147h-143v-595h-81v660z" />
    <glyph glyph-name="S" unicode="S" horiz-adv-x="498" 
d="M34 43v79c61 -43 125 -65 193 -65c92 0 156 37 156 112c0 65 -52 111 -119 139c-94 41 -219 83 -217 194c0 54 20 96 59 125c40 30 87 45 141 45c66 0 124 -14 175 -41v-77c-50 34 -104 51 -163 51c-73 0 -130 -32 -130 -100c0 -48 53 -83 118 -110
c94 -37 217 -91 216 -218c0 -121 -89 -187 -225 -187c-81 0 -149 18 -204 53z" />
    <glyph glyph-name="T" unicode="T" horiz-adv-x="532" 
d="M517 662v-68h-210v-594h-81v594h-212v68h503z" />
    <glyph glyph-name="U" unicode="U" horiz-adv-x="682" 
d="M522 248v413h79v-416c0 -75 -23 -137 -69 -184s-110 -71 -191 -71c-165 0 -261 100 -261 256v415h80v-409c0 -55 15 -101 46 -138c31 -36 76 -54 135 -54c119 0 181 77 181 188z" />
    <glyph glyph-name="V" unicode="V" horiz-adv-x="587" 
d="M577 659l-274 -664h-16l-278 664h83l201 -495h5l199 495h80z" />
    <glyph glyph-name="W" unicode="W" horiz-adv-x="904" 
d="M630 -5l-177 488h-3l-178 -488h-15l-248 664h81l178 -475h2l174 481h15l177 -481h2l176 475h80l-249 -664h-15z" />
    <glyph glyph-name="X" unicode="X" horiz-adv-x="622" 
d="M612 0h-90l-210 327l-216 -327h-87l229 341l-212 319h86l200 -305l196 305h88l-215 -319z" />
    <glyph glyph-name="Y" unicode="Y" horiz-adv-x="557" 
d="M211 476l75 -120h4l68 119l105 186h85l-221 -375v-286h-80v286l-238 375h89z" />
    <glyph glyph-name="Z" unicode="Z" horiz-adv-x="519" 
d="M59 661h437v-11l-352 -583h352v-67h-477v10l355 584h-315v67z" />
    <glyph glyph-name="bracketleft" unicode="[" horiz-adv-x="265" 
d="M234 -122h-162v853h162v-52h-96v-750h96v-51z" />
    <glyph glyph-name="backslash" unicode="\" horiz-adv-x="308" 
d="M31 688l314 -776h-59l-314 776h59z" />
    <glyph glyph-name="bracketright" unicode="]" horiz-adv-x="265" 
d="M31 731h162v-853h-162v51h96v750h-96v52z" />
    <glyph glyph-name="asciicircum" unicode="^" horiz-adv-x="481" 
d="M250 657l205 -315h-66l-149 230l-152 -230h-64l207 315h19z" />
    <glyph glyph-name="underscore" unicode="_" horiz-adv-x="507" 
d="M502 -124h-498v45h498v-45z" />
    <glyph glyph-name="grave" unicode="`" horiz-adv-x="478" 
d="M184 685l107 -158h-54l-125 134z" />
    <glyph glyph-name="a" unicode="a" horiz-adv-x="501" 
d="M376 0l-10 59h-2c-36 -46 -91 -69 -164 -69c-55 0 -95 13 -120 39c-25 27 -37 56 -37 89c0 96 69 154 206 154h106v15c0 73 -41 109 -122 109c-45 0 -93 -14 -143 -42v64c45 25 96 38 153 38c131 0 187 -62 187 -178v-278h-54zM118 126c0 -51 45 -79 105 -79
c84 0 132 63 132 139v31h-106c-87 0 -131 -30 -131 -91z" />
    <glyph glyph-name="b" unicode="b" horiz-adv-x="567" 
d="M132 711v-331h3c39 52 103 76 164 76c67 0 120 -22 161 -66s62 -100 62 -168c0 -67 -22 -122 -65 -167s-99 -67 -166 -67c-68 0 -135 27 -164 79h-3l-14 -67h-52v711h74zM134 221c0 -101 62 -169 154 -169c47 0 86 16 115 49s44 73 44 120c0 48 -15 88 -44 121
s-67 49 -114 49s-84 -16 -113 -49c-28 -33 -42 -73 -42 -121z" />
    <glyph glyph-name="c" unicode="c" horiz-adv-x="434" 
d="M278 456c44 0 82 -7 113 -20v-68c-28 17 -62 26 -102 26c-47 0 -87 -16 -119 -48c-31 -31 -47 -74 -47 -127c0 -100 64 -166 165 -166c48 0 88 11 120 33v-67c-33 -19 -79 -29 -136 -29c-72 0 -128 21 -167 64s-59 97 -59 164c0 68 22 125 66 170s99 68 166 68z" />
    <glyph glyph-name="d" unicode="d" horiz-adv-x="568" 
d="M435 222c0 48 -14 88 -43 120c-29 33 -68 49 -117 49c-47 0 -84 -17 -113 -50s-43 -73 -43 -121c0 -99 61 -168 158 -168c45 0 83 16 113 49s45 74 45 121zM431 392l5 2v316h74v-710h-55l-12 63l-5 2c-36 -51 -102 -77 -169 -77s-121 21 -162 62s-62 97 -62 166
c0 68 21 125 63 170c42 46 96 69 162 69c67 0 121 -21 161 -63z" />
    <glyph glyph-name="e" unicode="e" horiz-adv-x="520" 
d="M266 456c64 0 114 -22 151 -65s56 -97 56 -163c0 -9 0 -16 -1 -20h-348c1 -49 17 -88 48 -116s68 -42 113 -42c63 0 119 19 168 56v-67c-45 -33 -102 -49 -169 -49c-74 0 -132 21 -175 64c-42 43 -63 99 -63 170c0 65 21 120 62 165c42 45 95 67 158 67zM268 395
c-77 0 -132 -53 -143 -133h277c-11 81 -59 133 -134 133z" />
    <glyph glyph-name="f" unicode="f" horiz-adv-x="308" 
d="M334 713v-63c-23 9 -48 14 -76 14c-65 0 -98 -41 -98 -123v-96h134v-60h-134v-385h-75v385h-80v47l80 13v93c0 113 52 187 171 187c25 0 51 -4 78 -12z" />
    <glyph glyph-name="g" unicode="g" horiz-adv-x="504" 
d="M36 -90c0 48 23 89 70 122l-29 3c-33 3 -49 21 -49 54l83 76c-33 29 -49 70 -49 121c0 48 17 88 51 120c35 33 78 49 130 49c21 0 45 -4 72 -12h150v-41l-84 -11c29 -28 44 -63 44 -106c0 -46 -17 -85 -51 -117c-33 -32 -76 -48 -128 -48c-38 0 -69 7 -94 22l-42 -53
l223 -25c82 -9 123 -46 123 -112c0 -40 -20 -79 -61 -116c-40 -37 -96 -56 -169 -56c-128 0 -190 59 -190 130zM244 175c69 0 112 48 112 112c0 63 -48 112 -112 112s-111 -48 -111 -111c0 -67 43 -113 111 -113zM225 -158c51 0 89 12 115 37c27 24 40 50 40 78
c0 29 -21 46 -64 51l-166 19c-28 -29 -42 -62 -42 -97c0 -51 34 -88 117 -88z" />
    <glyph glyph-name="h" unicode="h" horiz-adv-x="529" 
d="M459 270v-270h-76v264c0 81 -38 127 -106 127c-81 0 -140 -55 -140 -162v-229h-77v711h74v-330h3c40 49 91 73 153 73c107 0 169 -69 169 -184z" />
    <glyph glyph-name="i" unicode="i" horiz-adv-x="236" 
d="M155 445v-445h-76v445h76zM119 534c-28 0 -48 20 -48 47c0 25 23 48 48 48c27 0 47 -21 47 -48s-20 -47 -47 -47z" />
    <glyph glyph-name="j" unicode="j" horiz-adv-x="221" 
d="M112 534c-28 0 -48 20 -48 47c0 25 23 47 48 47c27 0 47 -20 47 -47s-20 -47 -47 -47zM-20 -228l-31 65c92 4 124 49 124 146v462h75v-465c0 -139 -64 -201 -168 -208z" />
    <glyph glyph-name="k" unicode="k" horiz-adv-x="482" 
d="M362 444h93l-232 -209l253 -235h-101l-238 224v-224h-75v711h75v-470z" />
    <glyph glyph-name="l" unicode="l" horiz-adv-x="215" 
d="M147 711v-711h-76v711h76z" />
    <glyph glyph-name="m" unicode="m" horiz-adv-x="819" 
d="M749 271v-271h-75v269c0 82 -35 123 -104 123c-68 0 -122 -51 -122 -163v-229h-76v268c0 83 -33 124 -99 124c-73 0 -128 -58 -128 -163v-229h-75v444h53l12 -64c1 -1 3 -1 4 -1c39 53 99 76 152 76c69 0 115 -29 140 -88c36 60 95 89 150 89c112 0 168 -62 168 -185z
" />
    <glyph glyph-name="n" unicode="n" horiz-adv-x="536" 
d="M466 270v-270h-75v262c0 81 -40 130 -105 130c-81 0 -141 -56 -141 -163v-229h-75v445h51l14 -66h4c41 51 93 76 155 76c113 0 172 -66 172 -185z" />
    <glyph glyph-name="o" unicode="o" horiz-adv-x="562" 
d="M282 456c68 0 124 -22 168 -67s66 -100 66 -166s-22 -121 -67 -166c-44 -45 -100 -67 -167 -67c-72 0 -129 22 -172 66s-64 100 -64 167c0 65 23 120 68 165s101 68 168 68zM123 224c0 -100 60 -171 159 -171c49 0 87 16 116 49s43 74 43 122c0 47 -15 87 -44 120
s-68 49 -115 49s-86 -16 -115 -49s-44 -73 -44 -120z" />
    <glyph glyph-name="p" unicode="p" horiz-adv-x="568" 
d="M133 224c0 -48 14 -88 43 -121c29 -32 68 -48 117 -48s88 16 115 49s41 73 41 122c0 99 -61 168 -158 168c-45 0 -83 -17 -113 -50s-45 -73 -45 -120zM136 52l-4 -1v-266h-72v661h53l13 -65h4c36 51 102 77 169 77s121 -21 162 -63c41 -41 62 -97 62 -166
c0 -68 -21 -125 -63 -170s-96 -68 -162 -68c-69 0 -123 20 -162 61z" />
    <glyph glyph-name="q" unicode="q" horiz-adv-x="567" 
d="M435 -215v275h-3c-39 -47 -93 -70 -164 -70c-67 0 -121 21 -162 64s-61 99 -61 167c0 69 22 125 65 170s99 67 166 67c70 0 125 -25 164 -76h3l14 64h50v-661h-72zM433 226c0 101 -62 168 -154 168c-47 0 -86 -16 -115 -49s-44 -73 -44 -120c0 -50 14 -91 43 -123
s68 -48 115 -48s84 17 112 50c29 33 43 74 43 122z" />
    <glyph glyph-name="r" unicode="r" horiz-adv-x="327" 
d="M273 386c-77 0 -128 -72 -128 -173v-213h-75v444h53l13 -78c1 -1 2 -1 3 -1c30 60 78 90 145 90c15 0 28 -2 37 -5v-71c-15 5 -31 7 -48 7z" />
    <glyph glyph-name="s" unicode="s" horiz-adv-x="376" 
d="M24 28v68c46 -33 94 -50 144 -50c68 0 102 23 102 70c0 103 -230 84 -230 217c0 79 66 122 150 122c45 0 89 -10 132 -30v-65c-44 25 -85 38 -122 38c-57 0 -85 -21 -85 -63c0 -29 36 -52 80 -69c66 -25 148 -57 148 -143c0 -81 -67 -132 -167 -132
c-59 0 -110 12 -152 37z" />
    <glyph glyph-name="t" unicode="t" horiz-adv-x="332" 
d="M152 582h20v-137h125v-60h-125v-248c0 -53 16 -81 64 -81c28 0 55 9 82 27v-63c-27 -19 -59 -29 -96 -29c-56 0 -90 16 -106 51c-16 36 -20 69 -20 129v214h-73v46l77 18c5 14 14 36 26 65c12 30 21 53 26 68z" />
    <glyph glyph-name="u" unicode="u" horiz-adv-x="527" 
d="M70 176v270h75v-262c0 -81 40 -130 105 -130c81 0 132 53 132 168v223h75v-445h-51l-16 61h-4c-37 -47 -85 -70 -144 -70c-115 0 -172 62 -172 185z" />
    <glyph glyph-name="v" unicode="v" horiz-adv-x="475" 
d="M461 445l-218 -451h-15l-215 451h82l142 -312h3l141 312h80z" />
    <glyph glyph-name="w" unicode="w" horiz-adv-x="718" 
d="M214 142l141 309h11l143 -309h4l121 303h75l-188 -453h-14l-147 321h-2l-145 -321h-15l-186 453h78l121 -303h3z" />
    <glyph glyph-name="x" unicode="x" horiz-adv-x="467" 
d="M457 0h-83l-140 215l-144 -215h-81l154 228l-145 217h81l135 -204l134 204h81l-146 -216z" />
    <glyph glyph-name="y" unicode="y" horiz-adv-x="452" 
d="M87 445l136 -344h5l140 344h74l-276 -660h-74l98 233l-180 427h77z" />
    <glyph glyph-name="z" unicode="z" horiz-adv-x="416" 
d="M46 445h346v-11l-264 -375h259v-59h-373v11l267 374h-235v60z" />
    <glyph glyph-name="braceleft" unicode="{" horiz-adv-x="303" 
d="M129 334v-5c45 -24 55 -69 55 -152v-176c0 -48 16 -72 47 -72h36v-53h-53c-47 -4 -73 26 -86 52c-8 15 -10 51 -11 66v35c1 17 1 27 1 30v149c0 67 -21 105 -64 114v16c43 9 64 45 64 108v101c0 2 0 10 -1 24c0 29 0 39 3 68c3 31 11 45 24 65s37 30 66 30h57v-53h-34
c-39 0 -49 -25 -49 -72v-159c0 -64 -18 -103 -55 -116z" />
    <glyph glyph-name="bar" unicode="|" horiz-adv-x="272" 
d="M167 -139h-62v894h62v-894z" />
    <glyph glyph-name="braceright" unicode="}" horiz-adv-x="303" 
d="M175 329v5c-37 13 -56 52 -56 116v159c0 47 -9 72 -49 72h-34v53h57c35 0 60 -15 72 -34c6 -9 11 -21 14 -36c7 -29 7 -43 7 -74v-144c0 -62 21 -97 63 -106v-16c-42 -9 -63 -49 -63 -120v-188c0 -31 0 -48 -8 -76c-9 -37 -35 -64 -89 -64h-53v53h36c31 0 47 24 47 72
v176c0 83 9 128 56 152z" />
    <glyph glyph-name="asciitilde" unicode="~" horiz-adv-x="504" 
d="M356 251c-25 0 -62 10 -111 30c-49 21 -81 31 -97 31c-29 0 -57 -21 -84 -62l-42 33c30 61 72 92 126 92c25 0 61 -10 109 -31c49 -21 81 -31 97 -31c36 0 59 21 86 64l42 -34c-28 -61 -70 -92 -126 -92z" />
    <glyph glyph-name="uni00A0" unicode="&#xa0;" horiz-adv-x="240" 
 />
    <glyph glyph-name="exclamdown" unicode="&#xa1;" horiz-adv-x="285" 
d="M110 119l4 167h59l10 -529h-81l4 167zM143 354c-29 0 -52 23 -52 51s23 51 52 51c27 0 51 -23 51 -51s-23 -51 -51 -51z" />
    <glyph glyph-name="cent" unicode="&#xa2;" horiz-adv-x="521" 
d="M335 -30h-55v107c-123 13 -191 103 -191 226c0 61 18 112 53 155s81 70 138 79v109h55v-105c40 -3 73 -9 99 -20v-68c-28 17 -63 26 -104 26c-47 0 -87 -16 -118 -48c-31 -31 -47 -74 -47 -127c0 -50 15 -90 44 -121c29 -30 69 -45 120 -45s91 11 122 33v-67
c-27 -15 -66 -25 -116 -29v-105z" />
    <glyph glyph-name="sterling" unicode="&#xa3;" horiz-adv-x="548" 
d="M474 647v-65c-36 14 -68 21 -97 21c-77 0 -133 -44 -133 -151v-91h175v-51h-176c-1 -113 -22 -196 -63 -250h301v-60h-407v13c61 69 93 168 94 297h-78v51h78l1 93c0 180 129 213 201 213c41 0 75 -7 104 -20z" />
    <glyph glyph-name="currency" unicode="&#xa4;" horiz-adv-x="548" 
d="M82 286c0 39 11 76 34 111l-52 53l47 46c12 -12 40 -42 52 -53c35 24 71 36 109 36c41 0 78 -12 112 -37l52 51l21 -21l25 -24l-26 -25c-12 -12 -21 -22 -27 -29c23 -32 34 -68 34 -108c0 -37 -11 -73 -34 -108l54 -52l-47 -47l-53 51c-35 -23 -72 -34 -111 -34
c-38 0 -75 11 -110 34l-49 -51l-48 47c14 12 39 38 52 49c-23 31 -35 68 -35 111zM142 286c0 -35 13 -66 38 -91s56 -38 91 -38c36 0 66 12 91 37s38 56 38 92s-13 67 -38 92s-55 38 -91 38c-35 0 -66 -13 -91 -38s-38 -56 -38 -92z" />
    <glyph glyph-name="yen" unicode="&#xa5;" horiz-adv-x="548" 
d="M504 320v-41h-440v41h159l-185 341h88l155 -317h3l160 317h82l-187 -341h165zM64 184v41h440v-41h-183v-184h-80v184h-177z" />
    <glyph glyph-name="brokenbar" unicode="&#xa6;" horiz-adv-x="271" 
d="M167 756v-349h-62v349h62zM105 -140v415h62v-415h-62z" />
    <glyph glyph-name="section" unicode="&#xa7;" horiz-adv-x="559" 
d="M482 300c0 -55 -33 -105 -89 -130c43 -31 65 -67 65 -108c0 -44 -19 -80 -56 -107s-84 -41 -141 -41c-71 0 -128 13 -173 40v75c44 -28 113 -52 164 -52c83 0 125 26 125 77c0 48 -45 86 -104 114c-83 39 -191 87 -189 185c0 53 29 94 87 122c-34 31 -51 65 -51 102v4
c3 77 68 130 180 130c51 0 96 -9 136 -27v-68c-42 23 -87 34 -134 34c-60 0 -106 -25 -106 -69c0 -43 45 -77 100 -104c82 -37 184 -80 186 -177zM406 294c0 35 -33 70 -60 86c-13 8 -34 19 -64 34l-59 30c-43 -19 -64 -47 -64 -82c0 -31 12 -54 37 -74
c13 -10 26 -19 39 -26c25 -13 76 -40 104 -57c45 24 67 54 67 89z" />
    <glyph glyph-name="dieresis" unicode="&#xa8;" horiz-adv-x="484" 
d="M196 589c0 -25 -18 -43 -42 -43c-27 0 -45 18 -45 43c0 24 21 43 45 43s42 -19 42 -43zM362 589c5 -56 -91 -56 -86 0c0 24 20 43 43 43c25 0 43 -19 43 -43z" />
    <glyph glyph-name="copyright" unicode="&#xa9;" horiz-adv-x="844" 
d="M419 -15c-101 0 -187 35 -258 106c-70 71 -105 158 -105 260c0 103 36 189 107 259s158 105 261 105c99 0 183 -36 253 -107c71 -71 106 -157 106 -257c0 -101 -36 -188 -107 -259s-156 -107 -257 -107zM423 668c-89 0 -165 -31 -226 -93c-61 -61 -92 -136 -92 -224
s30 -163 91 -226c61 -62 136 -93 223 -93s161 31 222 93c61 63 92 138 92 226c0 87 -30 161 -91 223c-61 63 -134 94 -219 94zM564 185v-52c-32 -19 -75 -28 -128 -28c-75 0 -134 21 -176 64c-41 43 -62 100 -62 171c0 69 23 127 68 173c45 47 103 70 172 70
c42 0 79 -7 110 -20v-54c-30 15 -64 23 -103 23c-52 0 -96 -17 -131 -52s-53 -81 -53 -140c0 -54 17 -98 51 -133s78 -52 131 -52c47 0 87 10 121 30z" />
    <glyph glyph-name="ordfeminine" unicode="&#xaa;" horiz-adv-x="351" 
d="M309 298h-38l-14 41c-25 -32 -61 -48 -110 -48c-81 0 -115 43 -115 91c1 65 52 97 154 97h62v12c0 42 -26 63 -78 63c-31 0 -66 -10 -105 -30v51c35 18 72 27 111 27c89 0 133 -40 133 -121v-183zM248 419v19h-57c-65 0 -98 -18 -98 -55c0 -30 23 -45 70 -45
c55 0 85 32 85 81z" />
    <glyph glyph-name="guillemotleft" unicode="&#xab;" horiz-adv-x="430" 
d="M253 385l-137 -182l137 -188h-78l-133 181v9l135 180h76zM397 385l-136 -182l136 -188h-78l-132 181v9l135 180h75z" />
    <glyph glyph-name="logicalnot" unicode="&#xac;" horiz-adv-x="548" 
d="M80 324h387v-222h-57v168h-330v54z" />
    <glyph glyph-name="sfthyphen" unicode="&#xad;" horiz-adv-x="376" 
d="M316 213h-257v62h257v-62z" />
    <glyph glyph-name="registered" unicode="&#xae;" horiz-adv-x="605" 
d="M338 432l91 -110h-55l-97 126v9c61 2 91 20 91 54c0 36 -27 54 -64 54h-50v-243h-44v281h99c53 0 103 -32 103 -88c0 -39 -27 -70 -74 -83zM302 217c-72 0 -130 23 -174 68c-44 46 -66 104 -66 173c0 67 23 123 70 170s104 71 170 71c69 0 126 -23 172 -70
s69 -104 69 -171s-24 -124 -71 -171s-103 -70 -170 -70zM302 661c-57 0 -104 -20 -143 -60c-39 -39 -58 -87 -58 -143c0 -57 19 -106 56 -145c38 -39 86 -59 145 -59c56 0 103 20 142 60s59 88 59 144s-20 104 -59 143c-39 40 -86 60 -142 60z" />
    <glyph glyph-name="overscore" unicode="&#xaf;" horiz-adv-x="483" 
d="M374 550h-275v57h275v-57z" />
    <glyph glyph-name="degree" unicode="&#xb0;" horiz-adv-x="408" 
d="M205 414c-73 0 -120 50 -120 119c0 33 12 62 35 85c24 24 52 36 85 36c71 0 123 -53 123 -121s-52 -119 -123 -119zM205 610c-41 0 -73 -36 -73 -77s30 -77 73 -77c47 0 78 36 78 77s-33 77 -78 77z" />
    <glyph glyph-name="plusminus" unicode="&#xb1;" horiz-adv-x="548" 
d="M80 0v54h386v-54h-386zM466 266h-165v-158h-55v158h-166v54h166v156h55v-156h165v-54z" />
    <glyph glyph-name="twosuperior" unicode="&#xb2;" horiz-adv-x="346" 
d="M107 630c-24 4 -44 7 -59 8c-3 7 -4 19 -4 35c0 64 59 108 131 108c75 0 133 -38 133 -106c0 -119 -196 -123 -210 -238h214v-47h-281c-1 5 -1 11 -1 19c0 45 11 80 39 108c15 15 28 26 40 35s29 20 51 34c41 24 66 43 76 58c7 10 10 20 10 29c0 39 -30 58 -73 58
s-72 -28 -72 -67c0 -4 2 -15 6 -34z" />
    <glyph glyph-name="threesuperior" unicode="&#xb3;" horiz-adv-x="346" 
d="M105 591l-7 11l112 126h-162v48h260v-10l-123 -132c76 -3 127 -53 127 -121c0 -38 -15 -69 -44 -93c-29 -23 -65 -35 -108 -35c-51 0 -93 12 -127 35v63c39 -33 81 -49 125 -49c56 0 93 34 93 79c0 56 -41 82 -101 82c-17 0 -32 -1 -45 -4z" />
    <glyph glyph-name="acute" unicode="&#xb4;" horiz-adv-x="478" 
d="M370 661l-124 -134h-55l108 158z" />
    <glyph glyph-name="mu" unicode="&#xb5;" horiz-adv-x="527" 
d="M70 -215v660h75l1 -274c0 -69 39 -117 100 -117c80 0 134 55 134 160v231h77v-445h-52l-16 60c-1 1 -3 1 -4 1c-38 -46 -88 -69 -151 -69c-41 0 -70 9 -88 28v-235h-76z" />
    <glyph glyph-name="mu" unicode="&#x3bc;" horiz-adv-x="527" 
d="M70 -215v660h75l1 -274c0 -69 39 -117 100 -117c80 0 134 55 134 160v231h77v-445h-52l-16 60c-1 1 -3 1 -4 1c-38 -46 -88 -69 -151 -69c-41 0 -70 9 -88 28v-235h-76z" />
    <glyph glyph-name="paragraph" unicode="&#xb6;" horiz-adv-x="539" 
d="M334 687v-375h-79c-54 0 -99 18 -135 55s-54 81 -54 133s18 96 54 132c36 37 81 55 135 55h79zM289 -180l-32 66c95 4 126 49 126 149v651h77v-654c0 -135 -57 -205 -171 -212z" />
    <glyph glyph-name="middot" unicode="&#xb7;" horiz-adv-x="208" 
d="M103 302c31 0 52 -23 52 -52s-23 -52 -52 -52s-52 23 -52 52s23 52 52 52z" />
    <glyph glyph-name="cedilla" unicode="&#xb8;" horiz-adv-x="430" 
d="M334 -130c0 -52 -47 -92 -120 -92c-27 0 -55 5 -83 16v47c27 -12 54 -18 81 -18c39 0 62 18 62 43c0 28 -28 42 -61 42c-11 0 -22 -2 -32 -5l-19 13l52 108l43 -3l-36 -71c79 -1 113 -37 113 -80z" />
    <glyph glyph-name="onesuperior" unicode="&#xb9;" horiz-adv-x="298" 
d="M193 781h10v-391h-58v305c-10 -6 -26 -15 -49 -26l-50 -25v56z" />
    <glyph glyph-name="ordmasculine" unicode="&#xba;" horiz-adv-x="380" 
d="M191 603c47 0 86 -15 116 -45c30 -29 45 -66 45 -111c0 -43 -15 -80 -46 -110c-31 -29 -69 -44 -115 -44c-100 0 -163 65 -163 154c0 44 16 81 47 111c32 30 71 45 116 45zM93 448c0 -60 37 -105 98 -105c60 0 98 46 98 105c0 57 -39 103 -98 103s-98 -46 -98 -103z" />
    <glyph glyph-name="guillemotright" unicode="&#xbb;" horiz-adv-x="430" 
d="M119 15h-78l136 188l-136 182h75l135 -180v-9zM263 15h-78l137 188l-137 182h76l135 -180v-9z" />
    <glyph glyph-name="onequarter" unicode="&#xbc;" horiz-adv-x="768" 
d="M599 682h56l-499 -703h-56zM221 689h10v-391h-58v305c-11 -6 -27 -15 -50 -26l-49 -25v56zM383 104l196 279h63l-178 -247h126v66l44 61h14v-127h55v-47h-55v-89h-58v89h-207v15z" />
    <glyph glyph-name="onehalf" unicode="&#xbd;" horiz-adv-x="768" 
d="M572 682h56l-499 -703h-56zM193 689h10v-391h-58v305c-10 -6 -26 -15 -49 -26l-50 -25v56zM515 238c-24 4 -44 7 -59 8c-3 7 -4 19 -4 35c0 64 59 108 131 108c75 0 133 -38 133 -106c0 -119 -196 -123 -210 -238h214v-47h-281c-1 5 -1 11 -1 19c0 45 11 80 39 108
c15 15 28 26 40 35s29 20 51 34c41 24 66 43 76 58c7 9 10 19 10 29c0 39 -30 58 -73 58s-72 -28 -72 -67c0 -4 2 -15 6 -34z" />
    <glyph glyph-name="threequarters" unicode="&#xbe;" horiz-adv-x="768" 
d="M412 104l196 279h63l-178 -247h126v66l44 61h14v-127h55v-47h-55v-89h-58v89h-207v15zM137 499l-7 11l112 126h-162v48h260v-10l-123 -132c76 -3 127 -53 127 -121c0 -38 -15 -69 -44 -93c-29 -23 -65 -35 -108 -35c-51 0 -93 12 -127 35v63c39 -33 81 -49 125 -49
c56 0 93 34 93 79c0 56 -41 82 -101 82c-17 0 -32 -1 -45 -4zM644 682h56l-499 -703h-56z" />
    <glyph glyph-name="questiondown" unicode="&#xbf;" horiz-adv-x="499" 
d="M161 -63c0 -67 51 -115 138 -115c48 0 98 13 149 40v-74c-51 -23 -103 -34 -156 -34c-59 0 -109 16 -150 48c-40 31 -60 74 -60 128c0 59 34 114 75 153c60 59 138 110 138 162c0 13 -4 26 -12 39l69 17c11 -25 16 -45 16 -60c0 -27 -11 -55 -33 -82
c-21 -27 -45 -50 -71 -69c-25 -19 -49 -42 -71 -69c-21 -27 -32 -55 -32 -84zM312 456c29 0 51 -22 51 -51s-22 -51 -51 -51s-51 22 -51 51s23 51 51 51z" />
    <glyph glyph-name="Agrave" unicode="&#xc0;" horiz-adv-x="624" 
d="M611 0h-82l-63 149h-311l-62 -149h-79l292 667h15zM313 510h-4l-129 -302h262zM212 875l124 -146h-59l-140 121z" />
    <glyph glyph-name="Aacute" unicode="&#xc1;" horiz-adv-x="624" 
d="M611 0h-82l-63 149h-311l-62 -149h-79l292 667h15zM313 510h-4l-129 -302h262zM475 850l-140 -121h-60l124 146z" />
    <glyph glyph-name="Acircumflex" unicode="&#xc2;" horiz-adv-x="624" 
d="M611 0h-82l-63 149h-311l-62 -149h-79l292 667h15zM313 510h-4l-129 -302h262zM325 862l141 -141h-78l-73 71l-77 -71h-76l146 141h17z" />
    <glyph glyph-name="Atilde" unicode="&#xc3;" horiz-adv-x="624" 
d="M611 0h-82l-63 149h-311l-62 -149h-79l292 667h15zM313 510h-4l-129 -302h262zM430 863l30 -37c-18 -49 -46 -73 -83 -73c-17 0 -39 8 -68 24s-48 24 -58 24c-20 0 -38 -18 -54 -54l-33 37c20 49 48 74 85 74c16 0 38 -8 67 -25c29 -16 48 -24 59 -24c19 0 38 18 55 54z
" />
    <glyph glyph-name="Adieresis" unicode="&#xc4;" horiz-adv-x="624" 
d="M611 0h-82l-63 149h-311l-62 -149h-79l292 667h15zM313 510h-4l-129 -302h262zM275 795c0 -39 -46 -59 -75 -32c-25 27 -6 75 32 75c25 0 43 -19 43 -43zM441 795c0 -38 -47 -59 -74 -32c-25 27 -6 75 31 75c25 0 43 -19 43 -43z" />
    <glyph glyph-name="Aring" unicode="&#xc5;" horiz-adv-x="624" 
d="M611 0h-82l-63 149h-311l-62 -149h-79l292 667h15zM313 510h-4l-129 -302h262zM311 688c-57 0 -94 39 -94 91c0 53 42 95 94 95c55 0 96 -40 96 -95c0 -51 -41 -91 -96 -91zM311 833c-28 0 -50 -25 -50 -54c0 -28 19 -50 50 -50s51 23 51 50c0 29 -20 54 -51 54z" />
    <glyph glyph-name="AE" unicode="&#xc6;" horiz-adv-x="953" 
d="M921 68v-68h-443v149h-283l-121 -149h-91l538 661h375v-67h-340v-213h313v-66h-313v-247h365zM479 497h-4l-236 -290h240v290z" />
    <glyph glyph-name="Ccedilla" unicode="&#xc7;" horiz-adv-x="614" 
d="M468 -136c0 -52 -47 -92 -120 -92c-27 0 -55 5 -83 16v47c27 -12 54 -18 81 -18c39 0 62 18 62 43c0 28 -28 42 -61 42c-11 0 -22 -2 -32 -5l-19 13l40 84c-90 11 -160 47 -209 108s-74 136 -74 225c0 99 33 181 98 247s147 99 246 99c71 0 126 -10 165 -30v-74
c-47 23 -99 35 -156 35c-77 0 -141 -25 -193 -75c-51 -50 -77 -117 -77 -202c0 -81 23 -146 70 -195s112 -73 195 -73c63 0 125 17 186 51v-74c-51 -31 -115 -46 -194 -46c-4 0 -12 1 -15 1l-23 -47c79 -1 113 -37 113 -80z" />
    <glyph glyph-name="Egrave" unicode="&#xc8;" horiz-adv-x="559" 
d="M161 68h366v-68h-447v661h422v-67h-341v-213h315v-66h-315v-247zM241 875l124 -146h-59l-140 121z" />
    <glyph glyph-name="Eacute" unicode="&#xc9;" horiz-adv-x="559" 
d="M161 68h366v-68h-447v661h422v-67h-341v-213h315v-66h-315v-247zM428 850l-140 -121h-60l124 146z" />
    <glyph glyph-name="Ecircumflex" unicode="&#xca;" horiz-adv-x="559" 
d="M300 866l141 -141h-78l-73 71l-77 -71h-76l146 141h17zM161 68h366v-68h-447v661h422v-67h-341v-213h315v-66h-315v-247z" />
    <glyph glyph-name="Edieresis" unicode="&#xcb;" horiz-adv-x="559" 
d="M161 68h366v-68h-447v661h422v-67h-341v-213h315v-66h-315v-247zM245 795c0 -39 -46 -59 -75 -32c-25 27 -6 75 32 75c25 0 43 -19 43 -43zM411 795c0 -38 -47 -59 -74 -32c-25 27 -6 75 31 75c25 0 43 -19 43 -43z" />
    <glyph glyph-name="Igrave" unicode="&#xcc;" horiz-adv-x="260" 
d="M169 661v-661h-80v661h80zM58 875l124 -146h-59l-140 121z" />
    <glyph glyph-name="Iacute" unicode="&#xcd;" horiz-adv-x="260" 
d="M169 661v-661h-80v661h80zM286 850l-140 -121h-60l124 146z" />
    <glyph glyph-name="Icircumflex" unicode="&#xce;" horiz-adv-x="260" 
d="M140 866l141 -141h-78l-73 71l-77 -71h-76l146 141h17zM169 661v-661h-80v661h80z" />
    <glyph glyph-name="Idieresis" unicode="&#xcf;" horiz-adv-x="260" 
d="M89 795c0 -39 -46 -59 -75 -32c-25 27 -6 75 32 75c25 0 43 -19 43 -43zM255 795c0 -38 -47 -59 -74 -32c-25 27 -6 75 31 75c25 0 43 -19 43 -43zM169 661v-661h-80v661h80z" />
    <glyph glyph-name="Eth" unicode="&#xd0;" horiz-adv-x="684" 
d="M317 0h-237v313h-61v57h61v291h226c100 0 179 -30 237 -90c59 -60 88 -139 88 -238s-28 -180 -84 -241s-133 -92 -230 -92zM552 332c0 77 -20 139 -61 187c-40 49 -100 73 -179 74c-11 0 -41 1 -52 1h-100v-224h202v-57h-202v-245h156c155 1 236 104 236 264z" />
    <glyph glyph-name="Ntilde" unicode="&#xd1;" horiz-adv-x="721" 
d="M159 500v-500h-79v669h18l459 -503h4v495h79v-666h-18l-460 505h-3zM495 853l30 -37c-18 -49 -46 -73 -83 -73c-16 0 -38 8 -67 24s-48 24 -59 24c-20 0 -38 -18 -54 -54l-33 37c20 49 48 74 85 74c16 0 38 -8 67 -25c29 -16 48 -24 59 -24c19 0 38 18 55 54z" />
    <glyph glyph-name="Ograve" unicode="&#xd2;" horiz-adv-x="790" 
d="M396 -10c-106 0 -190 32 -252 96c-61 64 -92 145 -92 244c0 95 33 176 100 242c67 67 149 100 244 100c98 0 179 -33 244 -99c65 -65 97 -146 97 -243s-32 -178 -97 -243c-64 -65 -145 -97 -244 -97zM135 330c0 -79 24 -144 71 -195s111 -76 190 -76c77 0 140 26 188 78
c49 53 73 117 73 193c0 77 -25 141 -74 193c-49 53 -111 79 -187 79s-139 -26 -188 -78s-73 -117 -73 -194zM329 875l124 -146h-59l-140 121z" />
    <glyph glyph-name="Oacute" unicode="&#xd3;" horiz-adv-x="790" 
d="M396 -10c-106 0 -190 32 -252 96c-61 64 -92 145 -92 244c0 95 33 176 100 242c67 67 149 100 244 100c98 0 179 -33 244 -99c65 -65 97 -146 97 -243s-32 -178 -97 -243c-64 -65 -145 -97 -244 -97zM135 330c0 -79 24 -144 71 -195s111 -76 190 -76c77 0 140 26 188 78
c49 53 73 117 73 193c0 77 -25 141 -74 193c-49 53 -111 79 -187 79s-139 -26 -188 -78s-73 -117 -73 -194zM556 850l-140 -121h-60l124 146z" />
    <glyph glyph-name="Ocircumflex" unicode="&#xd4;" horiz-adv-x="790" 
d="M410 866l141 -141h-78l-73 71l-77 -71h-76l146 141h17zM396 -10c-106 0 -190 32 -252 96c-61 64 -92 145 -92 244c0 95 33 176 100 242c67 67 149 100 244 100c98 0 179 -33 244 -99c65 -65 97 -146 97 -243s-32 -178 -97 -243c-64 -65 -145 -97 -244 -97zM135 330
c0 -79 24 -144 71 -195s111 -76 190 -76c77 0 140 26 188 78c49 53 73 117 73 193c0 77 -25 141 -74 193c-49 53 -111 79 -187 79s-139 -26 -188 -78s-73 -117 -73 -194z" />
    <glyph glyph-name="Otilde" unicode="&#xd5;" horiz-adv-x="790" 
d="M396 -10c-106 0 -190 32 -252 96c-61 64 -92 145 -92 244c0 95 33 176 100 242c67 67 149 100 244 100c98 0 179 -33 244 -99c65 -65 97 -146 97 -243s-32 -178 -97 -243c-64 -65 -145 -97 -244 -97zM135 330c0 -79 24 -144 71 -195s111 -76 190 -76c77 0 140 26 188 78
c49 53 73 117 73 193c0 77 -25 141 -74 193c-49 53 -111 79 -187 79s-139 -26 -188 -78s-73 -117 -73 -194zM518 864l30 -37c-18 -49 -46 -73 -83 -73c-17 0 -39 8 -68 24s-48 24 -58 24c-20 0 -38 -18 -54 -54l-33 37c20 49 48 74 85 74c16 0 38 -8 67 -25
c29 -16 48 -24 59 -24c19 0 38 18 55 54z" />
    <glyph glyph-name="Odieresis" unicode="&#xd6;" horiz-adv-x="790" 
d="M396 -10c-106 0 -190 32 -252 96c-61 64 -92 145 -92 244c0 95 33 176 100 242c67 67 149 100 244 100c98 0 179 -33 244 -99c65 -65 97 -146 97 -243s-32 -178 -97 -243c-64 -65 -145 -97 -244 -97zM135 330c0 -79 24 -144 71 -195s111 -76 190 -76c77 0 140 26 188 78
c49 53 73 117 73 193c0 77 -25 141 -74 193c-49 53 -111 79 -187 79s-139 -26 -188 -78s-73 -117 -73 -194zM349 795c0 -39 -46 -59 -75 -32c-25 27 -6 75 32 75c25 0 43 -19 43 -43zM515 795c0 -38 -47 -59 -74 -32c-25 27 -6 75 31 75c25 0 43 -19 43 -43z" />
    <glyph glyph-name="multiply" unicode="&#xd7;" horiz-adv-x="548" 
d="M392 135l-117 117l-119 -120l-39 40l119 119l-117 117l38 39l117 -118l116 117l39 -40l-115 -116l116 -117z" />
    <glyph glyph-name="Oslash" unicode="&#xd8;" horiz-adv-x="790" 
d="M396 -10c-77 0 -143 18 -198 53l-34 -43h-57l55 69c-73 63 -109 151 -109 262c0 95 33 176 100 242s148 99 243 99c75 0 141 -20 199 -60l39 50h57l-62 -78c72 -65 108 -150 108 -253c0 -97 -32 -178 -96 -243s-146 -98 -245 -98zM134 331c0 -84 26 -151 77 -201l338 425
c-44 32 -95 48 -152 48c-77 0 -140 -26 -189 -79c-49 -52 -74 -116 -74 -193zM397 58c77 0 140 26 188 79c49 53 73 117 73 194s-25 142 -76 195l-338 -425c43 -29 94 -43 153 -43z" />
    <glyph glyph-name="Ugrave" unicode="&#xd9;" horiz-adv-x="682" 
d="M522 248v413h79v-416c0 -75 -23 -137 -69 -184s-110 -71 -191 -71c-165 0 -261 100 -261 256v415h80v-409c0 -55 15 -101 46 -138c31 -36 76 -54 135 -54c119 0 181 77 181 188zM279 875l124 -146h-59l-140 121z" />
    <glyph glyph-name="Uacute" unicode="&#xda;" horiz-adv-x="682" 
d="M522 248v413h79v-416c0 -75 -23 -137 -69 -184s-110 -71 -191 -71c-165 0 -261 100 -261 256v415h80v-409c0 -55 15 -101 46 -138c31 -36 76 -54 135 -54c119 0 181 77 181 188zM488 850l-140 -121h-60l124 146z" />
    <glyph glyph-name="Ucircumflex" unicode="&#xdb;" horiz-adv-x="682" 
d="M522 248v413h79v-416c0 -75 -23 -137 -69 -184s-110 -71 -191 -71c-165 0 -261 100 -261 256v415h80v-409c0 -55 15 -101 46 -138c31 -36 76 -54 135 -54c119 0 181 77 181 188zM356 865l142 -141h-79l-73 71l-78 -71h-76l147 141h17z" />
    <glyph glyph-name="Udieresis" unicode="&#xdc;" horiz-adv-x="682" 
d="M302 795c0 -39 -46 -59 -75 -32c-25 27 -6 75 32 75c25 0 43 -19 43 -43zM468 795c0 -38 -47 -59 -74 -32c-25 27 -6 75 31 75c25 0 43 -19 43 -43zM522 248v413h79v-416c0 -75 -23 -137 -69 -184s-110 -71 -191 -71c-165 0 -261 100 -261 256v415h80v-409
c0 -55 15 -101 46 -138c31 -36 76 -54 135 -54c119 0 181 77 181 188z" />
    <glyph glyph-name="Yacute" unicode="&#xdd;" horiz-adv-x="557" 
d="M211 476l75 -120h4l68 119l105 186h85l-221 -375v-286h-80v286l-238 375h89zM432 844l-140 -121h-60l124 146z" />
    <glyph glyph-name="Thorn" unicode="&#xde;" horiz-adv-x="570" 
d="M542 359c0 -41 -14 -85 -46 -130c-31 -44 -94 -76 -174 -76h-161v-153h-80v662h80v-100h166c64 0 116 -19 155 -58c40 -39 60 -87 60 -145zM462 355c0 36 -12 68 -36 97s-62 43 -114 43h-151v-277h152c91 0 149 56 149 137z" />
    <glyph glyph-name="germandbls" unicode="&#xdf;" horiz-adv-x="565" 
d="M139 509v-509h-76v503c0 66 19 119 56 160c38 41 90 61 155 61c58 0 105 -16 141 -48s54 -74 54 -125c0 -20 -8 -90 -77 -128v-5c77 -25 130 -103 130 -198c0 -62 -20 -116 -60 -162c-39 -45 -93 -68 -160 -68c-20 0 -42 3 -66 9v62c21 -5 40 -8 56 -8
c93 0 155 69 155 172c0 64 -24 110 -63 131c-37 23 -73 30 -113 30v58c81 0 123 47 123 107c0 71 -55 113 -119 113c-115 0 -136 -95 -136 -155z" />
    <glyph glyph-name="agrave" unicode="&#xe0;" horiz-adv-x="501" 
d="M376 0l-10 59h-2c-36 -46 -91 -69 -164 -69c-55 0 -95 13 -120 39c-25 27 -37 56 -37 89c0 96 69 154 206 154h106v15c0 73 -41 109 -122 109c-45 0 -93 -14 -143 -42v64c45 25 96 38 153 38c131 0 187 -62 187 -178v-278h-54zM118 126c0 -51 45 -79 105 -79
c84 0 132 63 132 139v31h-106c-87 0 -131 -30 -131 -91zM197 685l107 -158h-54l-125 134z" />
    <glyph glyph-name="aacute" unicode="&#xe1;" horiz-adv-x="501" 
d="M376 0l-10 59h-2c-36 -46 -91 -69 -164 -69c-55 0 -95 13 -120 39c-25 27 -37 56 -37 89c0 96 69 154 206 154h106v15c0 73 -41 109 -122 109c-45 0 -93 -14 -143 -42v64c45 25 96 38 153 38c131 0 187 -62 187 -178v-278h-54zM118 126c0 -51 45 -79 105 -79
c84 0 132 63 132 139v31h-106c-87 0 -131 -30 -131 -91zM381 661l-124 -134h-55l108 158z" />
    <glyph glyph-name="acircumflex" unicode="&#xe2;" horiz-adv-x="501" 
d="M376 0l-10 59h-2c-36 -46 -91 -69 -164 -69c-55 0 -95 13 -120 39c-25 27 -37 56 -37 89c0 96 69 154 206 154h106v15c0 73 -41 109 -122 109c-45 0 -93 -14 -143 -42v64c45 25 96 38 153 38c131 0 187 -62 187 -178v-278h-54zM118 126c0 -51 45 -79 105 -79
c84 0 132 63 132 139v31h-106c-87 0 -131 -30 -131 -91zM263 676l137 -150h-75l-73 80l-76 -80h-72l142 150h17z" />
    <glyph glyph-name="atilde" unicode="&#xe3;" horiz-adv-x="501" 
d="M376 0l-10 59h-2c-36 -46 -91 -69 -164 -69c-55 0 -95 13 -120 39c-25 27 -37 56 -37 89c0 96 69 154 206 154h106v15c0 73 -41 109 -122 109c-45 0 -93 -14 -143 -42v64c45 25 96 38 153 38c131 0 187 -62 187 -178v-278h-54zM118 126c0 -51 45 -79 105 -79
c84 0 132 63 132 139v31h-106c-87 0 -131 -30 -131 -91zM367 651l30 -37c-18 -49 -46 -73 -83 -73c-16 0 -38 8 -67 24s-48 24 -59 24c-20 0 -38 -18 -54 -54l-33 37c20 49 48 74 85 74c16 0 38 -8 67 -25c29 -16 48 -24 59 -24c19 0 38 18 55 54z" />
    <glyph glyph-name="adieresis" unicode="&#xe4;" horiz-adv-x="501" 
d="M376 0l-10 59h-2c-36 -46 -91 -69 -164 -69c-55 0 -95 13 -120 39c-25 27 -37 56 -37 89c0 96 69 154 206 154h106v15c0 73 -41 109 -122 109c-45 0 -93 -14 -143 -42v64c45 25 96 38 153 38c131 0 187 -62 187 -178v-278h-54zM118 126c0 -51 45 -79 105 -79
c84 0 132 63 132 139v31h-106c-87 0 -131 -30 -131 -91zM213 589c0 -25 -18 -43 -42 -43c-27 0 -45 18 -45 43c0 24 21 43 45 43s42 -19 42 -43zM379 589c5 -56 -91 -56 -86 0c0 24 20 43 43 43c25 0 43 -19 43 -43z" />
    <glyph glyph-name="aring" unicode="&#xe5;" horiz-adv-x="501" 
d="M376 0l-10 59h-2c-36 -46 -91 -69 -164 -69c-55 0 -95 13 -120 39c-25 27 -37 56 -37 89c0 96 69 154 206 154h106v15c0 73 -41 109 -122 109c-45 0 -93 -14 -143 -42v64c45 25 96 38 153 38c131 0 187 -62 187 -178v-278h-54zM118 126c0 -51 45 -79 105 -79
c84 0 132 63 132 139v31h-106c-87 0 -131 -30 -131 -91zM253 521c-57 0 -94 39 -94 91c0 53 42 95 94 95c55 0 96 -40 96 -95c0 -51 -41 -91 -96 -91zM253 666c-28 0 -50 -25 -50 -54c0 -28 19 -50 50 -50s51 23 51 50c0 29 -20 54 -51 54z" />
    <glyph glyph-name="ae" unicode="&#xe6;" horiz-adv-x="816" 
d="M566 457c131 0 208 -88 208 -220v-23h-350c2 -50 18 -90 49 -120c31 -29 69 -44 114 -44c63 0 118 19 167 56v-67c-45 -33 -101 -49 -169 -49c-89 0 -165 43 -197 111c-38 -75 -102 -112 -193 -112c-57 0 -99 13 -126 40s-40 56 -40 89c0 53 20 92 61 115
c41 24 94 36 157 36h98v19c0 73 -41 109 -122 109c-45 0 -93 -14 -145 -42v64c47 25 98 38 155 38c84 0 139 -28 165 -84c42 56 98 84 168 84zM105 126c0 -51 43 -78 107 -78c85 0 133 63 133 146v19h-89c-101 0 -151 -29 -151 -87zM569 395c-81 0 -135 -46 -143 -127h278
c-8 83 -56 127 -135 127z" />
    <glyph glyph-name="ccedilla" unicode="&#xe7;" horiz-adv-x="434" 
d="M353 -130c0 -52 -47 -92 -120 -92c-27 0 -55 5 -83 16v47c27 -12 54 -18 81 -18c39 0 62 18 62 43c0 28 -28 42 -61 42c-11 0 -22 -2 -32 -5l-19 13l37 79c-111 20 -172 107 -172 223c0 68 22 125 66 170s99 68 166 68c44 0 82 -7 113 -20v-68c-28 17 -62 26 -102 26
c-47 0 -87 -16 -119 -48c-31 -31 -47 -74 -47 -127c0 -100 64 -166 165 -166c48 0 88 11 120 33v-67c-33 -19 -79 -29 -136 -29h-12l-20 -40c79 -1 113 -37 113 -80z" />
    <glyph glyph-name="egrave" unicode="&#xe8;" horiz-adv-x="520" 
d="M266 456c64 0 114 -22 151 -65s56 -97 56 -163c0 -9 0 -16 -1 -20h-348c1 -49 17 -88 48 -116s68 -42 113 -42c63 0 119 19 168 56v-67c-45 -33 -102 -49 -169 -49c-74 0 -132 21 -175 64c-42 43 -63 99 -63 170c0 65 21 120 62 165c42 45 95 67 158 67zM268 395
c-77 0 -132 -53 -143 -133h277c-11 81 -59 133 -134 133zM211 685l107 -158h-54l-125 134z" />
    <glyph glyph-name="eacute" unicode="&#xe9;" horiz-adv-x="520" 
d="M266 456c64 0 114 -22 151 -65s56 -97 56 -163c0 -9 0 -16 -1 -20h-348c1 -49 17 -88 48 -116s68 -42 113 -42c63 0 119 19 168 56v-67c-45 -33 -102 -49 -169 -49c-74 0 -132 21 -175 64c-42 43 -63 99 -63 170c0 65 21 120 62 165c42 45 95 67 158 67zM268 395
c-77 0 -132 -53 -143 -133h277c-11 81 -59 133 -134 133zM391 661l-124 -134h-55l108 158z" />
    <glyph glyph-name="ecircumflex" unicode="&#xea;" horiz-adv-x="520" 
d="M266 456c64 0 114 -22 151 -65s56 -97 56 -163c0 -9 0 -16 -1 -20h-348c1 -49 17 -88 48 -116s68 -42 113 -42c63 0 119 19 168 56v-67c-45 -33 -102 -49 -169 -49c-74 0 -132 21 -175 64c-42 43 -63 99 -63 170c0 65 21 120 62 165c42 45 95 67 158 67zM268 395
c-77 0 -132 -53 -143 -133h277c-11 81 -59 133 -134 133zM283 676l137 -150h-75l-73 80l-76 -80h-72l142 150h17z" />
    <glyph glyph-name="edieresis" unicode="&#xeb;" horiz-adv-x="520" 
d="M266 456c64 0 114 -22 151 -65s56 -97 56 -163c0 -9 0 -16 -1 -20h-348c1 -49 17 -88 48 -116s68 -42 113 -42c63 0 119 19 168 56v-67c-45 -33 -102 -49 -169 -49c-74 0 -132 21 -175 64c-42 43 -63 99 -63 170c0 65 21 120 62 165c42 45 95 67 158 67zM268 395
c-77 0 -132 -53 -143 -133h277c-11 81 -59 133 -134 133zM226 589c0 -25 -18 -43 -42 -43c-27 0 -45 18 -45 43c0 24 21 43 45 43s42 -19 42 -43zM392 589c5 -56 -91 -56 -86 0c0 24 20 43 43 43c25 0 43 -19 43 -43z" />
    <glyph glyph-name="igrave" unicode="&#xec;" horiz-adv-x="236" 
d="M155 445v-445h-76v445h76zM52 685l107 -158h-54l-125 134z" />
    <glyph glyph-name="iacute" unicode="&#xed;" horiz-adv-x="236" 
d="M155 445v-445h-76v445h76zM256 661l-124 -134h-55l108 158z" />
    <glyph glyph-name="icircumflex" unicode="&#xee;" horiz-adv-x="236" 
d="M129 676l137 -150h-75l-73 80l-76 -80h-72l142 150h17zM155 445v-445h-76v445h76z" />
    <glyph glyph-name="idieresis" unicode="&#xef;" horiz-adv-x="236" 
d="M80 589c0 -25 -18 -43 -42 -43c-27 0 -45 18 -45 43c0 24 21 43 45 43s42 -19 42 -43zM246 589c5 -56 -91 -56 -86 0c0 24 20 43 43 43c25 0 43 -19 43 -43zM155 445v-445h-76v445h76z" />
    <glyph glyph-name="eth" unicode="&#xf0;" horiz-adv-x="554" 
d="M273 443c67 0 117 -19 149 -56l3 2c-17 56 -50 111 -100 165l-96 -62v53l62 42c-35 32 -78 63 -129 92l57 34c47 -26 89 -56 126 -89l101 67v-57l-67 -44c89 -98 133 -209 133 -333c0 -128 -67 -267 -236 -267c-72 0 -129 21 -171 63c-41 42 -62 96 -62 162
c0 65 22 119 66 162c45 44 99 66 164 66zM119 216c0 -95 60 -164 157 -164c49 0 87 16 114 49c28 33 42 71 42 116s-14 84 -43 115s-66 47 -113 47s-85 -16 -114 -47s-43 -69 -43 -116z" />
    <glyph glyph-name="ntilde" unicode="&#xf1;" horiz-adv-x="541" 
d="M468 270v-270h-75v262c0 81 -40 130 -105 130c-81 0 -141 -56 -141 -163v-229h-75v445h51l14 -66h4c41 51 93 76 155 76c113 0 172 -66 172 -185zM377 650l30 -37c-18 -49 -46 -73 -83 -73c-16 0 -38 8 -67 24s-48 24 -59 24c-20 0 -38 -18 -54 -54l-33 37
c20 49 48 74 85 74c16 0 38 -8 67 -25c29 -16 48 -24 59 -24c19 0 38 18 55 54z" />
    <glyph glyph-name="ograve" unicode="&#xf2;" horiz-adv-x="562" 
d="M282 456c68 0 124 -22 168 -67s66 -100 66 -166s-22 -121 -67 -166c-44 -45 -100 -67 -167 -67c-72 0 -129 22 -172 66s-64 100 -64 167c0 65 23 120 68 165s101 68 168 68zM123 224c0 -100 60 -171 159 -171c49 0 87 16 116 49s43 74 43 122c0 47 -15 87 -44 120
s-68 49 -115 49s-86 -16 -115 -49s-44 -73 -44 -120zM224 685l107 -158h-54l-125 134z" />
    <glyph glyph-name="oacute" unicode="&#xf3;" horiz-adv-x="562" 
d="M282 456c68 0 124 -22 168 -67s66 -100 66 -166s-22 -121 -67 -166c-44 -45 -100 -67 -167 -67c-72 0 -129 22 -172 66s-64 100 -64 167c0 65 23 120 68 165s101 68 168 68zM123 224c0 -100 60 -171 159 -171c49 0 87 16 116 49s43 74 43 122c0 47 -15 87 -44 120
s-68 49 -115 49s-86 -16 -115 -49s-44 -73 -44 -120zM424 661l-124 -134h-55l108 158z" />
    <glyph glyph-name="ocircumflex" unicode="&#xf4;" horiz-adv-x="562" 
d="M296 676l137 -150h-75l-73 80l-76 -80h-72l142 150h17zM282 456c68 0 124 -22 168 -67s66 -100 66 -166s-22 -121 -67 -166c-44 -45 -100 -67 -167 -67c-72 0 -129 22 -172 66s-64 100 -64 167c0 65 23 120 68 165s101 68 168 68zM123 224c0 -100 60 -171 159 -171
c49 0 87 16 116 49s43 74 43 122c0 47 -15 87 -44 120s-68 49 -115 49s-86 -16 -115 -49s-44 -73 -44 -120z" />
    <glyph glyph-name="otilde" unicode="&#xf5;" horiz-adv-x="562" 
d="M282 456c68 0 124 -22 168 -67s66 -100 66 -166s-22 -121 -67 -166c-44 -45 -100 -67 -167 -67c-72 0 -129 22 -172 66s-64 100 -64 167c0 65 23 120 68 165s101 68 168 68zM123 224c0 -100 60 -171 159 -171c49 0 87 16 116 49s43 74 43 122c0 47 -15 87 -44 120
s-68 49 -115 49s-86 -16 -115 -49s-44 -73 -44 -120zM401 650l30 -37c-18 -49 -46 -73 -83 -73c-16 0 -39 8 -68 24s-48 24 -58 24c-20 0 -38 -18 -54 -54l-33 37c20 49 48 74 85 74c16 0 38 -8 67 -25c29 -16 48 -24 59 -24c19 0 38 18 55 54z" />
    <glyph glyph-name="odieresis" unicode="&#xf6;" horiz-adv-x="562" 
d="M282 456c68 0 124 -22 168 -67s66 -100 66 -166s-22 -121 -67 -166c-44 -45 -100 -67 -167 -67c-72 0 -129 22 -172 66s-64 100 -64 167c0 65 23 120 68 165s101 68 168 68zM123 224c0 -100 60 -171 159 -171c49 0 87 16 116 49s43 74 43 122c0 47 -15 87 -44 120
s-68 49 -115 49s-86 -16 -115 -49s-44 -73 -44 -120zM238 589c0 -25 -18 -43 -42 -43c-27 0 -45 18 -45 43c0 24 21 43 45 43s42 -19 42 -43zM404 589c5 -56 -91 -56 -86 0c0 24 20 43 43 43c25 0 43 -19 43 -43z" />
    <glyph glyph-name="divide" unicode="&#xf7;" horiz-adv-x="548" 
d="M324 436c0 -27 -23 -50 -50 -50s-50 23 -50 50c0 28 22 50 50 50s50 -22 50 -50zM466 326v-56h-385v56h385zM324 158c0 -28 -23 -50 -50 -50s-50 23 -50 50s22 48 50 48s50 -21 50 -48z" />
    <glyph glyph-name="oslash" unicode="&#xf8;" horiz-adv-x="554" 
d="M278 456c56 0 104 -16 144 -47l32 35h53l-55 -62c40 -43 60 -96 60 -159c0 -66 -22 -121 -67 -166c-44 -45 -100 -67 -167 -67c-54 0 -101 13 -140 40l-27 -30h-54l50 55c-43 43 -64 99 -64 168c0 65 22 120 67 165s101 68 168 68zM279 395c-47 0 -86 -17 -116 -50
s-45 -73 -45 -121c0 -45 12 -84 36 -115l225 250c-29 24 -63 36 -100 36zM438 224c0 40 -11 75 -32 106l-224 -250c27 -19 59 -29 97 -29c48 0 86 17 115 50s44 74 44 123z" />
    <glyph glyph-name="ugrave" unicode="&#xf9;" horiz-adv-x="528" 
d="M70 176v270h75v-262c0 -81 40 -130 105 -130c81 0 132 53 132 168v223h75v-445h-51l-16 61h-4c-37 -47 -85 -70 -144 -70c-115 0 -172 62 -172 185zM206 685l107 -158h-54l-125 134z" />
    <glyph glyph-name="uacute" unicode="&#xfa;" horiz-adv-x="528" 
d="M70 176v270h75v-262c0 -81 40 -130 105 -130c81 0 132 53 132 168v223h75v-445h-51l-16 61h-4c-37 -47 -85 -70 -144 -70c-115 0 -172 62 -172 185zM399 661l-124 -134h-55l108 158z" />
    <glyph glyph-name="ucircumflex" unicode="&#xfb;" horiz-adv-x="528" 
d="M277 676l137 -150h-75l-73 80l-76 -80h-72l142 150h17zM70 176v270h75v-262c0 -81 40 -130 105 -130c81 0 132 53 132 168v223h75v-445h-51l-16 61h-4c-37 -47 -85 -70 -144 -70c-115 0 -172 62 -172 185z" />
    <glyph glyph-name="udieresis" unicode="&#xfc;" horiz-adv-x="528" 
d="M70 176v270h75v-262c0 -81 40 -130 105 -130c81 0 132 53 132 168v223h75v-445h-51l-16 61h-4c-37 -47 -85 -70 -144 -70c-115 0 -172 62 -172 185zM222 589c0 -25 -18 -43 -42 -43c-27 0 -45 18 -45 43c0 24 21 43 45 43s42 -19 42 -43zM388 589c5 -56 -91 -56 -86 0
c0 24 20 43 43 43c25 0 43 -19 43 -43z" />
    <glyph glyph-name="yacute" unicode="&#xfd;" horiz-adv-x="452" 
d="M87 445l136 -344h5l140 344h74l-276 -660h-74l98 233l-180 427h77zM371 659l-124 -134h-55l108 158z" />
    <glyph glyph-name="thorn" unicode="&#xfe;" horiz-adv-x="574" 
d="M141 62l-5 -3v-274h-74v926h75v-331c1 0 4 -1 5 -1c37 50 93 75 167 75c70 0 125 -22 164 -65s59 -99 59 -166c0 -66 -22 -121 -66 -166c-44 -44 -98 -66 -162 -66c-74 0 -128 24 -163 71zM296 52c47 0 85 16 114 49c30 33 45 73 45 121c0 100 -60 171 -159 171
c-48 0 -87 -17 -116 -50s-43 -73 -43 -121s15 -88 44 -121s68 -49 115 -49z" />
    <glyph glyph-name="ydieresis" unicode="&#xff;" horiz-adv-x="452" 
d="M87 445l136 -344h5l140 344h74l-276 -660h-74l98 233l-180 427h77zM195 579c0 -25 -18 -43 -42 -43c-27 0 -45 18 -45 43c0 24 21 43 45 43s42 -19 42 -43zM361 579c5 -56 -91 -56 -86 0c0 24 20 43 43 43c25 0 43 -19 43 -43z" />
    <glyph glyph-name="Amacron" unicode="&#x100;" horiz-adv-x="624" 
d="M611 0h-82l-63 149h-311l-62 -149h-79l292 667h15zM313 510h-4l-129 -302h262zM457 758h-289v59h289v-59z" />
    <glyph glyph-name="amacron" unicode="&#x101;" horiz-adv-x="501" 
d="M376 0l-10 59h-2c-36 -46 -91 -69 -164 -69c-55 0 -95 13 -120 39c-25 27 -37 56 -37 89c0 96 69 154 206 154h106v15c0 73 -41 109 -122 109c-45 0 -93 -14 -143 -42v64c45 25 96 38 153 38c131 0 187 -62 187 -178v-278h-54zM118 126c0 -51 45 -79 105 -79
c84 0 132 63 132 139v31h-106c-87 0 -131 -30 -131 -91zM386 550h-275v57h275v-57z" />
    <glyph glyph-name="Abreve" unicode="&#x102;" horiz-adv-x="624" 
d="M611 0h-82l-63 149h-311l-62 -149h-79l292 667h15zM313 510h-4l-129 -302h262zM314 720c-41 0 -73 14 -96 41s-36 61 -37 100h53c0 -53 32 -93 80 -93c50 0 78 31 83 93h52c-4 -77 -50 -141 -135 -141z" />
    <glyph glyph-name="abreve" unicode="&#x103;" horiz-adv-x="501" 
d="M376 0l-10 59h-2c-36 -46 -91 -69 -164 -69c-55 0 -95 13 -120 39c-25 27 -37 56 -37 89c0 96 69 154 206 154h106v15c0 73 -41 109 -122 109c-45 0 -93 -14 -143 -42v64c45 25 96 38 153 38c131 0 187 -62 187 -178v-278h-54zM118 126c0 -51 45 -79 105 -79
c84 0 132 63 132 139v31h-106c-87 0 -131 -30 -131 -91zM247 532c-80 0 -129 62 -132 141h52c1 -55 32 -93 80 -93c55 0 79 40 83 93h52c-4 -77 -50 -141 -135 -141z" />
    <glyph glyph-name="Aogonek" unicode="&#x104;" horiz-adv-x="624" 
d="M321 667l290 -667h-71c-48 -40 -77 -90 -77 -125c0 -31 16 -47 49 -47c30 0 63 11 99 33l-4 -49c-35 -21 -74 -31 -115 -31c-60 0 -90 26 -90 78c0 43 33 110 118 162l-54 128h-311l-62 -149h-79l292 667h15zM313 510h-4l-129 -302h262z" />
    <glyph glyph-name="aogonek" unicode="&#x105;" horiz-adv-x="501" 
d="M373 18l-7 41h-2c-36 -46 -91 -69 -164 -69c-55 0 -95 13 -120 39c-25 27 -37 56 -37 89c0 96 69 154 206 154h106v15c0 73 -41 109 -122 109c-45 0 -93 -14 -143 -42v64c45 25 96 38 153 38c131 0 187 -62 187 -178v-278h-33c-49 -41 -79 -92 -79 -127
c0 -31 16 -47 49 -47c30 0 63 11 99 33l-4 -49c-35 -21 -74 -31 -115 -31c-60 0 -90 26 -90 78c0 41 32 109 116 161zM118 126c0 -51 45 -79 105 -79c84 0 132 63 132 139v31h-106c-87 0 -131 -30 -131 -91z" />
    <glyph glyph-name="Cacute" unicode="&#x106;" horiz-adv-x="614" 
d="M587 110v-74c-51 -31 -115 -46 -194 -46c-107 0 -190 31 -250 94s-90 144 -90 243s33 181 98 247s147 99 246 99c71 0 126 -10 165 -30v-74c-47 23 -99 35 -156 35c-77 0 -141 -25 -193 -75c-51 -50 -77 -117 -77 -202c0 -81 23 -146 70 -195s112 -73 195 -73
c63 0 125 17 186 51zM509 850l-140 -121h-60l124 146z" />
    <glyph glyph-name="cacute" unicode="&#x107;" horiz-adv-x="434" 
d="M278 456c44 0 82 -7 113 -20v-68c-28 17 -62 26 -102 26c-47 0 -87 -16 -119 -48c-31 -31 -47 -74 -47 -127c0 -100 64 -166 165 -166c48 0 88 11 120 33v-67c-33 -19 -79 -29 -136 -29c-72 0 -128 21 -167 64s-59 97 -59 164c0 68 22 125 66 170s99 68 166 68zM377 661
l-124 -134h-55l108 158z" />
    <glyph glyph-name="Ccircumflex" unicode="&#x108;" horiz-adv-x="614" 
d="M394 867l141 -141h-78l-73 71l-77 -71h-76l146 141h17zM587 110v-74c-51 -31 -115 -46 -194 -46c-107 0 -190 31 -250 94s-90 144 -90 243s33 181 98 247s147 99 246 99c71 0 126 -10 165 -30v-74c-47 23 -99 35 -156 35c-77 0 -141 -25 -193 -75
c-51 -50 -77 -117 -77 -202c0 -81 23 -146 70 -195s112 -73 195 -73c63 0 125 17 186 51z" />
    <glyph glyph-name="ccircumflex" unicode="&#x109;" horiz-adv-x="434" 
d="M266 676l137 -150h-75l-73 80l-76 -80h-72l142 150h17zM278 456c44 0 82 -7 113 -20v-68c-28 17 -62 26 -102 26c-47 0 -87 -16 -119 -48c-31 -31 -47 -74 -47 -127c0 -100 64 -166 165 -166c48 0 88 11 120 33v-67c-33 -19 -79 -29 -136 -29c-72 0 -128 21 -167 64
s-59 97 -59 164c0 68 22 125 66 170s99 68 166 68z" />
    <glyph glyph-name="Cdotaccent" unicode="&#x10a;" horiz-adv-x="614" 
d="M587 110v-74c-51 -31 -115 -46 -194 -46c-107 0 -190 31 -250 94s-90 144 -90 243s33 181 98 247s147 99 246 99c71 0 126 -10 165 -30v-74c-47 23 -99 35 -156 35c-77 0 -141 -25 -193 -75c-51 -50 -77 -117 -77 -202c0 -81 23 -146 70 -195s112 -73 195 -73
c63 0 125 17 186 51zM374 753c-28 0 -48 20 -48 47c0 25 23 48 48 48c27 0 47 -20 47 -47s-20 -48 -47 -48z" />
    <glyph glyph-name="cdotaccent" unicode="&#x10b;" horiz-adv-x="434" 
d="M278 456c44 0 82 -7 113 -20v-68c-28 17 -62 26 -102 26c-47 0 -87 -16 -119 -48c-31 -31 -47 -74 -47 -127c0 -100 64 -166 165 -166c48 0 88 11 120 33v-67c-33 -19 -79 -29 -136 -29c-72 0 -128 21 -167 64s-59 97 -59 164c0 68 22 125 66 170s99 68 166 68zM262 543
c-28 0 -48 20 -48 47c0 25 23 48 48 48c27 0 47 -20 47 -47s-20 -48 -47 -48z" />
    <glyph glyph-name="Ccaron" unicode="&#x10c;" horiz-adv-x="614" 
d="M375 790l74 76h76l-141 -140h-17l-146 140h77zM587 110v-74c-51 -31 -115 -46 -194 -46c-107 0 -190 31 -250 94s-90 144 -90 243s33 181 98 247s147 99 246 99c71 0 126 -10 165 -30v-74c-47 23 -99 35 -156 35c-77 0 -141 -25 -193 -75c-51 -50 -77 -117 -77 -202
c0 -81 23 -146 70 -195s112 -73 195 -73c63 0 125 17 186 51z" />
    <glyph glyph-name="ccaron" unicode="&#x10d;" horiz-adv-x="434" 
d="M261 596l73 79h75l-137 -151h-18l-142 151h72zM278 456c44 0 82 -7 113 -20v-68c-28 17 -62 26 -102 26c-47 0 -87 -16 -119 -48c-31 -31 -47 -74 -47 -127c0 -100 64 -166 165 -166c48 0 88 11 120 33v-67c-33 -19 -79 -29 -136 -29c-72 0 -128 21 -167 64
s-59 97 -59 164c0 68 22 125 66 170s99 68 166 68z" />
    <glyph glyph-name="Dcaron" unicode="&#x10e;" horiz-adv-x="684" 
d="M290 789l74 76h76l-141 -140h-17l-146 140h77zM552 332c0 77 -21 140 -62 189s-101 73 -182 73h-148v-526h157c77 1 136 25 175 73c40 48 60 112 60 191zM317 0h-237v661h226c100 0 179 -30 237 -90c59 -60 88 -139 88 -238s-28 -180 -84 -241s-133 -92 -230 -92z" />
    <glyph glyph-name="dcaron" unicode="&#x10f;" horiz-adv-x="638" 
d="M441 222c0 48 -14 88 -43 120c-29 33 -68 49 -117 49c-47 0 -84 -17 -113 -50s-43 -73 -43 -121c0 -99 61 -168 158 -168c45 0 83 16 113 49s45 74 45 121zM437 392l5 2v316h74v-710h-55l-12 63l-5 2c-36 -51 -102 -77 -169 -77s-121 21 -162 62s-62 97 -62 166
c0 68 21 125 63 170c42 46 96 69 162 69c67 0 121 -21 161 -63zM571 673c0 27 22 47 47 47c27 0 46 -19 46 -47c0 -38 -22 -92 -66 -163l-35 6l37 115c-19 6 -29 20 -29 42z" />
    <glyph glyph-name="Dcroat" unicode="&#x110;" horiz-adv-x="684" 
d="M317 0h-237v313h-61v57h61v291h226c100 0 179 -30 237 -90c59 -60 88 -139 88 -238s-28 -180 -84 -241s-133 -92 -230 -92zM552 332c0 77 -20 139 -61 187c-40 49 -100 73 -179 74c-11 0 -41 1 -52 1h-100v-224h202v-57h-202v-245h156c155 1 236 104 236 264z" />
    <glyph glyph-name="dslash" unicode="&#x111;" horiz-adv-x="576" 
d="M437 392l5 2v165h-194v47h194v104h74v-104h55v-47h-55v-559h-55l-12 63l-5 2c-36 -51 -102 -77 -169 -77s-121 21 -162 62s-62 97 -62 166c0 68 21 125 63 170c42 46 96 69 162 69c67 0 121 -21 161 -63zM441 222c0 48 -14 88 -43 120c-29 33 -68 49 -117 49
c-47 0 -84 -17 -113 -50s-43 -73 -43 -121c0 -99 61 -168 158 -168c45 0 83 16 113 49s45 74 45 121z" />
    <glyph glyph-name="Emacron" unicode="&#x112;" horiz-adv-x="559" 
d="M161 68h366v-68h-447v661h422v-67h-341v-213h315v-66h-315v-247zM446 762h-289v59h289v-59z" />
    <glyph glyph-name="emacron" unicode="&#x113;" horiz-adv-x="520" 
d="M266 456c64 0 114 -22 151 -65s56 -97 56 -163c0 -9 0 -16 -1 -20h-348c1 -49 17 -88 48 -116s68 -42 113 -42c63 0 119 19 168 56v-67c-45 -33 -102 -49 -169 -49c-74 0 -132 21 -175 64c-42 43 -63 99 -63 170c0 65 21 120 62 165c42 45 95 67 158 67zM268 395
c-77 0 -132 -53 -143 -133h277c-11 81 -59 133 -134 133zM407 550h-275v57h275v-57z" />
    <glyph glyph-name="Ebreve" unicode="&#x114;" horiz-adv-x="559" 
d="M161 68h366v-68h-447v661h422v-67h-341v-213h315v-66h-315v-247zM295 720c-41 0 -73 14 -96 41s-36 61 -37 100h53c0 -53 32 -93 80 -93c50 0 78 31 83 93h52c-4 -77 -50 -141 -135 -141z" />
    <glyph glyph-name="ebreve" unicode="&#x115;" horiz-adv-x="520" 
d="M266 456c64 0 114 -22 151 -65s56 -97 56 -163c0 -9 0 -16 -1 -20h-348c1 -49 17 -88 48 -116s68 -42 113 -42c63 0 119 19 168 56v-67c-45 -33 -102 -49 -169 -49c-74 0 -132 21 -175 64c-42 43 -63 99 -63 170c0 65 21 120 62 165c42 45 95 67 158 67zM268 395
c-77 0 -132 -53 -143 -133h277c-11 81 -59 133 -134 133zM268 532c-80 0 -129 62 -132 141h52c1 -55 32 -93 80 -93c55 0 79 40 83 93h52c-4 -77 -50 -141 -135 -141z" />
    <glyph glyph-name="Edotaccent" unicode="&#x116;" horiz-adv-x="559" 
d="M161 68h366v-68h-447v661h422v-67h-341v-213h315v-66h-315v-247zM300 752c-28 0 -48 20 -48 47c0 25 23 48 48 48c27 0 47 -20 47 -47s-20 -48 -47 -48z" />
    <glyph glyph-name="edotaccent" unicode="&#x117;" horiz-adv-x="520" 
d="M266 456c64 0 114 -22 151 -65s56 -97 56 -163c0 -9 0 -16 -1 -20h-348c1 -49 17 -88 48 -116s68 -42 113 -42c63 0 119 19 168 56v-67c-45 -33 -102 -49 -169 -49c-74 0 -132 21 -175 64c-42 43 -63 99 -63 170c0 65 21 120 62 165c42 45 95 67 158 67zM268 395
c-77 0 -132 -53 -143 -133h277c-11 81 -59 133 -134 133zM266 543c-28 0 -48 20 -48 47c0 25 23 48 48 48c27 0 47 -20 47 -47s-20 -48 -47 -48z" />
    <glyph glyph-name="Eogonek" unicode="&#x118;" horiz-adv-x="559" 
d="M161 68h366v-68h-86c-51 -40 -83 -94 -83 -130c0 -31 16 -47 49 -47c30 0 63 11 99 33l-4 -49c-35 -21 -74 -31 -115 -31c-60 0 -90 26 -90 78c0 37 26 97 94 146h-311v661h422v-67h-341v-213h315v-66h-315v-247z" />
    <glyph glyph-name="eogonek" unicode="&#x119;" horiz-adv-x="520" 
d="M266 456c64 0 114 -22 151 -65s56 -97 56 -163c0 -9 0 -16 -1 -20h-348c1 -49 17 -88 48 -116s68 -42 113 -42c63 0 119 19 168 56v-67c-22 -16 -47 -28 -74 -36c-48 -40 -78 -90 -78 -126c0 -31 16 -47 49 -47c30 0 63 11 99 33l-4 -49c-35 -21 -74 -31 -115 -31
c-60 0 -90 26 -90 78c0 32 21 85 74 130c-7 -1 -17 -1 -30 -1c-74 0 -132 21 -175 64c-42 43 -63 99 -63 170c0 65 21 120 62 165c42 45 95 67 158 67zM268 395c-77 0 -132 -53 -143 -133h277c-11 81 -59 133 -134 133z" />
    <glyph glyph-name="Ecaron" unicode="&#x11a;" horiz-adv-x="559" 
d="M298 789l74 76h76l-141 -140h-17l-146 140h77zM161 68h366v-68h-447v661h422v-67h-341v-213h315v-66h-315v-247z" />
    <glyph glyph-name="ecaron" unicode="&#x11b;" horiz-adv-x="520" 
d="M266 456c64 0 114 -22 151 -65s56 -97 56 -163c0 -9 0 -16 -1 -20h-348c1 -49 17 -88 48 -116s68 -42 113 -42c63 0 119 19 168 56v-67c-45 -33 -102 -49 -169 -49c-74 0 -132 21 -175 64c-42 43 -63 99 -63 170c0 65 21 120 62 165c42 45 95 67 158 67zM268 395
c-77 0 -132 -53 -143 -133h277c-11 81 -59 133 -134 133zM267 596l73 79h75l-137 -151h-18l-142 151h72z" />
    <glyph glyph-name="Gcircumflex" unicode="&#x11c;" horiz-adv-x="669" 
d="M52 326c0 99 33 182 99 248c66 67 149 100 249 100c75 0 134 -12 178 -36v-76c-53 28 -111 42 -174 42c-77 0 -141 -25 -192 -76c-51 -50 -77 -117 -77 -202c0 -79 23 -144 68 -194c45 -49 110 -74 194 -74c47 0 92 9 133 26v245h75v-298c-56 -27 -130 -40 -221 -40
c-105 0 -186 32 -245 95c-58 63 -87 143 -87 240zM405 871l141 -141h-78l-73 71l-77 -71h-76l146 141h17z" />
    <glyph glyph-name="gcircumflex" unicode="&#x11d;" horiz-adv-x="504" 
d="M36 -90c0 48 23 89 70 122l-29 3c-33 3 -49 21 -49 54l83 76c-33 29 -49 70 -49 121c0 48 17 88 51 120c35 33 78 49 130 49c21 0 45 -4 72 -12h150v-41l-84 -11c29 -28 44 -63 44 -106c0 -46 -17 -85 -51 -117c-33 -32 -76 -48 -128 -48c-38 0 -69 7 -94 22l-42 -53
l223 -25c82 -9 123 -46 123 -112c0 -40 -20 -79 -61 -116c-40 -37 -96 -56 -169 -56c-128 0 -190 59 -190 130zM244 175c69 0 112 48 112 112c0 63 -48 112 -112 112s-111 -48 -111 -111c0 -67 43 -113 111 -113zM225 -158c51 0 89 12 115 37c27 24 40 50 40 78
c0 29 -21 46 -64 51l-166 19c-28 -29 -42 -62 -42 -97c0 -51 34 -88 117 -88zM269 676l137 -150h-75l-73 80l-76 -80h-72l142 150h17z" />
    <glyph glyph-name="Gbreve" unicode="&#x11e;" horiz-adv-x="669" 
d="M52 326c0 99 33 182 99 248c66 67 149 100 249 100c75 0 134 -12 178 -36v-76c-53 28 -111 42 -174 42c-77 0 -141 -25 -192 -76c-51 -50 -77 -117 -77 -202c0 -79 23 -144 68 -194c45 -49 110 -74 194 -74c47 0 92 9 133 26v245h75v-298c-56 -27 -130 -40 -221 -40
c-105 0 -186 32 -245 95c-58 63 -87 143 -87 240zM396 720c-41 0 -73 14 -96 41s-36 61 -37 100h53c0 -53 32 -93 80 -93c50 0 78 31 83 93h52c-4 -77 -50 -141 -135 -141z" />
    <glyph glyph-name="gbreve" unicode="&#x11f;" horiz-adv-x="504" 
d="M36 -90c0 48 23 89 70 122l-29 3c-33 3 -49 21 -49 54l83 76c-33 29 -49 70 -49 121c0 48 17 88 51 120c35 33 78 49 130 49c21 0 45 -4 72 -12h150v-41l-84 -11c29 -28 44 -63 44 -106c0 -46 -17 -85 -51 -117c-33 -32 -76 -48 -128 -48c-38 0 -69 7 -94 22l-42 -53
l223 -25c82 -9 123 -46 123 -112c0 -40 -20 -79 -61 -116c-40 -37 -96 -56 -169 -56c-128 0 -190 59 -190 130zM244 175c69 0 112 48 112 112c0 63 -48 112 -112 112s-111 -48 -111 -111c0 -67 43 -113 111 -113zM225 -158c51 0 89 12 115 37c27 24 40 50 40 78
c0 29 -21 46 -64 51l-166 19c-28 -29 -42 -62 -42 -97c0 -51 34 -88 117 -88zM259 532c-80 0 -129 62 -132 141h52c1 -55 32 -93 80 -93c55 0 79 40 83 93h52c-4 -77 -50 -141 -135 -141z" />
    <glyph glyph-name="Gdotaccent" unicode="&#x120;" horiz-adv-x="669" 
d="M52 326c0 99 33 182 99 248c66 67 149 100 249 100c75 0 134 -12 178 -36v-76c-53 28 -111 42 -174 42c-77 0 -141 -25 -192 -76c-51 -50 -77 -117 -77 -202c0 -79 23 -144 68 -194c45 -49 110 -74 194 -74c47 0 92 9 133 26v245h75v-298c-56 -27 -130 -40 -221 -40
c-105 0 -186 32 -245 95c-58 63 -87 143 -87 240zM395 753c-28 0 -48 20 -48 47c0 25 23 48 48 48c27 0 47 -20 47 -47s-20 -48 -47 -48z" />
    <glyph glyph-name="gdotaccent" unicode="&#x121;" horiz-adv-x="504" 
d="M36 -90c0 48 23 89 70 122l-29 3c-33 3 -49 21 -49 54l83 76c-33 29 -49 70 -49 121c0 48 17 88 51 120c35 33 78 49 130 49c21 0 45 -4 72 -12h150v-41l-84 -11c29 -28 44 -63 44 -106c0 -46 -17 -85 -51 -117c-33 -32 -76 -48 -128 -48c-38 0 -69 7 -94 22l-42 -53
l223 -25c82 -9 123 -46 123 -112c0 -40 -20 -79 -61 -116c-40 -37 -96 -56 -169 -56c-128 0 -190 59 -190 130zM244 175c69 0 112 48 112 112c0 63 -48 112 -112 112s-111 -48 -111 -111c0 -67 43 -113 111 -113zM225 -158c51 0 89 12 115 37c27 24 40 50 40 78
c0 29 -21 46 -64 51l-166 19c-28 -29 -42 -62 -42 -97c0 -51 34 -88 117 -88zM255 543c-28 0 -48 20 -48 47c0 25 23 48 48 48c27 0 47 -20 47 -47s-20 -48 -47 -48z" />
    <glyph glyph-name="Gcommaaccent" unicode="&#x122;" horiz-adv-x="669" 
d="M52 326c0 99 33 182 99 248c66 67 149 100 249 100c75 0 134 -12 178 -36v-76c-53 28 -111 42 -174 42c-77 0 -141 -25 -192 -76c-51 -50 -77 -117 -77 -202c0 -79 23 -144 68 -194c45 -49 110 -74 194 -74c47 0 92 9 133 26v245h75v-298c-56 -27 -130 -40 -221 -40
c-105 0 -186 32 -245 95c-58 63 -87 143 -87 240zM329 -93c0 27 22 47 47 47c27 0 46 -19 46 -47c0 -38 -22 -92 -66 -163l-35 6l37 115c-19 6 -29 20 -29 42z" />
    <glyph glyph-name="gcommaaccent" unicode="&#x123;" horiz-adv-x="504" 
d="M36 -90c0 48 23 89 70 122l-29 3c-33 3 -49 21 -49 54l83 76c-33 29 -49 70 -49 121c0 48 17 88 51 120c35 33 78 49 130 49c21 0 45 -4 72 -12h150v-41l-84 -11c29 -28 44 -63 44 -106c0 -46 -17 -85 -51 -117c-33 -32 -76 -48 -128 -48c-38 0 -69 7 -94 22l-42 -53
l223 -25c82 -9 123 -46 123 -112c0 -40 -20 -79 -61 -116c-40 -37 -96 -56 -169 -56c-128 0 -190 59 -190 130zM244 175c69 0 112 48 112 112c0 63 -48 112 -112 112s-111 -48 -111 -111c0 -67 43 -113 111 -113zM225 -158c51 0 89 12 115 37c27 24 40 50 40 78
c0 29 -21 46 -64 51l-166 19c-28 -29 -42 -62 -42 -97c0 -51 34 -88 117 -88zM295 582c0 -27 -22 -47 -47 -47c-27 0 -46 19 -46 47c0 38 22 92 66 163l35 -6l-37 -115c19 -6 29 -20 29 -42z" />
    <glyph glyph-name="Hcircumflex" unicode="&#x124;" horiz-adv-x="674" 
d="M348 866l141 -141h-78l-73 71l-77 -71h-76l146 141h17zM593 661v-661h-79v314h-353v-314h-81v661h81v-279h353v279h79z" />
    <glyph glyph-name="hcircumflex" unicode="&#x125;" horiz-adv-x="532" 
d="M108 878l141 -141h-78l-73 71l-77 -71h-76l146 141h17zM457 270v-270h-76v264c0 81 -38 127 -106 127c-81 0 -140 -55 -140 -162v-229h-77v711h74v-330h3c40 49 91 73 153 73c107 0 169 -69 169 -184z" />
    <glyph glyph-name="Hbar" unicode="&#x126;" horiz-adv-x="674" 
d="M80 518h-49v52h49v91h81v-91h353v91h79v-91h44v-52h-44v-518h-79v314h-353v-314h-81v518zM161 518v-136h353v136h-353z" />
    <glyph glyph-name="hbar" unicode="&#x127;" horiz-adv-x="529" 
d="M459 270v-270h-76v264c0 81 -38 127 -106 127c-81 0 -140 -55 -140 -162v-229h-77v559h-49v47h49v105h74v-105h185v-47h-185v-178h3c40 49 91 73 153 73c107 0 169 -69 169 -184z" />
    <glyph glyph-name="Itilde" unicode="&#x128;" horiz-adv-x="260" 
d="M169 661v-661h-80v661h80zM252 862l30 -37c-18 -49 -46 -73 -83 -73c-17 0 -39 8 -68 24s-48 24 -58 24c-20 0 -38 -18 -54 -54l-33 37c20 49 48 74 85 74c16 0 38 -8 67 -25c29 -16 48 -24 59 -24c19 0 38 18 55 54z" />
    <glyph glyph-name="itilde" unicode="&#x129;" horiz-adv-x="236" 
d="M236 650l30 -37c-18 -49 -46 -73 -83 -73c-17 0 -39 8 -68 24s-48 24 -58 24c-20 0 -38 -18 -54 -54l-33 37c20 49 48 74 85 74c16 0 38 -8 67 -25c29 -16 48 -24 59 -24c19 0 38 18 55 54zM155 445v-445h-76v445h76z" />
    <glyph glyph-name="Imacron" unicode="&#x12a;" horiz-adv-x="260" 
d="M169 661v-661h-80v661h80zM275 758h-289v59h289v-59z" />
    <glyph glyph-name="imacron" unicode="&#x12b;" horiz-adv-x="236" 
d="M254 550h-275v57h275v-57zM155 445v-445h-76v445h76z" />
    <glyph glyph-name="Ibreve" unicode="&#x12c;" horiz-adv-x="260" 
d="M129 720c-41 0 -73 14 -96 41s-36 61 -37 100h53c0 -53 32 -93 80 -93c50 0 78 31 83 93h52c-4 -77 -50 -141 -135 -141zM169 661v-661h-80v661h80z" />
    <glyph glyph-name="ibreve" unicode="&#x12d;" horiz-adv-x="236" 
d="M118 535c-80 0 -129 62 -132 141h52c1 -55 32 -93 80 -93c55 0 79 40 83 93h52c-4 -77 -50 -141 -135 -141zM155 445v-445h-76v445h76z" />
    <glyph glyph-name="Iogonek" unicode="&#x12e;" horiz-adv-x="260" 
d="M169 661v-661h-33c-47 -40 -76 -89 -76 -124c0 -31 16 -47 49 -47c30 0 63 11 99 33l-4 -49c-35 -21 -74 -31 -115 -31c-60 0 -90 26 -90 78c0 36 26 95 90 143v658h80z" />
    <glyph glyph-name="iogonek" unicode="&#x12f;" horiz-adv-x="236" 
d="M155 445v-445h-32c-47 -40 -76 -89 -76 -124c0 -31 16 -47 49 -47c30 0 63 11 99 33l-4 -49c-35 -21 -74 -31 -115 -31c-60 0 -90 26 -90 78c0 37 26 97 93 145v440h76zM119 534c-28 0 -48 20 -48 47c0 25 23 48 48 48c27 0 47 -21 47 -48s-20 -47 -47 -47z" />
    <glyph glyph-name="Idot" unicode="&#x130;" horiz-adv-x="260" 
d="M130 752c-28 0 -48 20 -48 47c0 25 23 48 48 48c27 0 47 -20 47 -47s-20 -48 -47 -48zM169 661v-661h-80v661h80z" />
    <glyph glyph-name="dotlessi" unicode="&#x131;" horiz-adv-x="236" 
d="M155 445v-445h-76v445h76z" />
    <glyph glyph-name="IJ" unicode="&#x132;" horiz-adv-x="664" 
d="M161 661v-661h-80v661h80zM350 59c60 0 100 16 120 47c21 31 31 77 31 136v419h81v-402c0 -56 -3 -93 -20 -145c-23 -74 -83 -120 -207 -124c-55 0 -102 10 -139 30v77c36 -23 94 -38 134 -38z" />
    <glyph glyph-name="ij" unicode="&#x133;" horiz-adv-x="417" 
d="M308 534c-28 0 -48 20 -48 47c0 25 23 47 48 47c27 0 47 -20 47 -47s-20 -47 -47 -47zM176 -228l-31 65c92 4 124 49 124 146v462h75v-465c0 -139 -64 -201 -168 -208zM147 445v-445h-76v445h76zM111 534c-28 0 -48 20 -48 47c0 25 23 48 48 48c27 0 47 -21 47 -48
s-20 -47 -47 -47z" />
    <glyph glyph-name="Jcircumflex" unicode="&#x134;" horiz-adv-x="458" 
d="M348 867l141 -141h-78l-73 71l-77 -71h-76l146 141h17zM145 60c60 0 100 16 120 47c21 31 31 77 31 136v419h81v-402c0 -56 -3 -93 -20 -145c-23 -74 -83 -120 -207 -124c-56 0 -102 10 -139 30v77c36 -23 94 -38 134 -38z" />
    <glyph glyph-name="jcircumflex" unicode="&#x135;" horiz-adv-x="221" 
d="M-20 -228c-7 13 -24 49 -29 62c81 3 122 53 122 149v462h74v-465c0 -132 -56 -201 -167 -208zM121 676l137 -150h-75l-73 80l-76 -80h-72l142 150h17z" />
    <glyph glyph-name="Kcommaaccent" unicode="&#x136;" horiz-adv-x="596" 
d="M80 661h81v-311l304 311h93l-308 -318l336 -343h-108l-317 336v-336h-81v661zM231 -72c0 27 22 47 47 47c27 0 46 -19 46 -47c0 -38 -22 -92 -66 -163l-35 6l37 115c-19 6 -29 20 -29 42z" />
    <glyph glyph-name="kcommaaccent" unicode="&#x137;" horiz-adv-x="482" 
d="M362 444h93l-232 -209l253 -235h-101l-238 224v-224h-75v711h75v-470zM182 -87c0 27 22 47 47 47c27 0 46 -19 46 -47c0 -38 -22 -92 -66 -163l-35 6l37 115c-19 6 -29 20 -29 42z" />
    <glyph glyph-name="kgreenlandic" unicode="&#x138;" horiz-adv-x="482" 
d="M354 444h93l-233 -209l254 -235h-101l-238 224v-224h-76v444h76v-203z" />
    <glyph glyph-name="Lacute" unicode="&#x139;" horiz-adv-x="517" 
d="M80 0v661h81v-593h345v-68h-426zM274 850l-140 -121h-60l124 146z" />
    <glyph glyph-name="lacute" unicode="&#x13a;" horiz-adv-x="218" 
d="M147 711v-711h-76v711h76zM262 879l-140 -121h-60l124 146z" />
    <glyph glyph-name="Lcommaaccent" unicode="&#x13b;" horiz-adv-x="517" 
d="M242 -92c0 27 22 47 47 47c27 0 46 -19 46 -47c0 -38 -22 -92 -66 -163l-35 6l37 115c-19 6 -29 20 -29 42zM80 0v661h81v-593h345v-68h-426z" />
    <glyph glyph-name="lcommaaccent" unicode="&#x13c;" horiz-adv-x="218" 
d="M57 -92c0 27 22 47 47 47c27 0 46 -19 46 -47c0 -38 -22 -92 -66 -163l-35 6l37 115c-19 6 -29 20 -29 42zM147 711v-711h-76v711h76z" />
    <glyph glyph-name="Lcaron" unicode="&#x13d;" horiz-adv-x="517" 
d="M325 622c0 27 22 47 47 47c27 0 46 -19 46 -47c0 -38 -22 -92 -66 -163l-35 6l37 115c-19 6 -29 20 -29 42zM80 0v661h81v-593h345v-68h-426z" />
    <glyph glyph-name="lcaron" unicode="&#x13e;" horiz-adv-x="274" 
d="M207 671c0 27 22 47 47 47c27 0 46 -19 46 -47c0 -38 -22 -92 -66 -163l-35 6l37 115c-19 6 -29 20 -29 42zM150 711v-711h-76v711h76z" />
    <glyph glyph-name="Ldot" unicode="&#x13f;" horiz-adv-x="517" 
d="M80 0v661h81v-593h345v-68h-426zM354 277c-28 0 -48 20 -48 47c0 25 23 48 48 48c27 0 47 -20 47 -47s-20 -48 -47 -48z" />
    <glyph glyph-name="ldot" unicode="&#x140;" horiz-adv-x="279" 
d="M242 297c-28 0 -48 20 -48 47c0 25 23 48 48 48c27 0 47 -20 47 -47s-20 -48 -47 -48zM150 711v-711h-76v711h76z" />
    <glyph glyph-name="Lslash" unicode="&#x141;" horiz-adv-x="517" 
d="M81 232l-81 -43v51l81 45v376h80v-336l162 89v-55l-162 -88v-203h346v-68h-426v232z" />
    <glyph glyph-name="lslash" unicode="&#x142;" horiz-adv-x="218" 
d="M147 300v-300h-77v264c-8 -5 -22 -12 -41 -22s-33 -18 -43 -24v53c23 14 51 30 84 47v393h77v-355l92 50v-56z" />
    <glyph glyph-name="Nacute" unicode="&#x143;" horiz-adv-x="721" 
d="M159 500v-500h-79v669h18l459 -503h4v495h79v-666h-18l-460 505h-3zM510 846l-140 -121h-60l124 146z" />
    <glyph glyph-name="nacute" unicode="&#x144;" horiz-adv-x="541" 
d="M468 270v-270h-75v262c0 81 -40 130 -105 130c-81 0 -141 -56 -141 -163v-229h-75v445h51l14 -66h4c41 51 93 76 155 76c113 0 172 -66 172 -185zM392 661l-124 -134h-55l108 158z" />
    <glyph glyph-name="Ncommaaccent" unicode="&#x145;" horiz-adv-x="721" 
d="M159 500v-500h-79v669h18l459 -503h4v495h79v-666h-18l-460 505h-3zM316 -74c0 27 22 47 47 47c27 0 46 -19 46 -47c0 -38 -22 -92 -66 -163l-35 6l37 115c-19 6 -29 20 -29 42z" />
    <glyph glyph-name="ncommaaccent" unicode="&#x146;" horiz-adv-x="541" 
d="M468 270v-270h-75v262c0 81 -40 130 -105 130c-81 0 -141 -56 -141 -163v-229h-75v445h51l14 -66h4c41 51 93 76 155 76c113 0 172 -66 172 -185zM222 -85c0 27 22 47 47 47c27 0 46 -19 46 -47c0 -38 -22 -92 -66 -163l-35 6l37 115c-19 6 -29 20 -29 42z" />
    <glyph glyph-name="Ncaron" unicode="&#x147;" horiz-adv-x="721" 
d="M375 789l74 76h76l-141 -140h-17l-146 140h77zM159 500v-500h-79v669h18l459 -503h4v495h79v-666h-18l-460 505h-3z" />
    <glyph glyph-name="ncaron" unicode="&#x148;" horiz-adv-x="541" 
d="M257 596l73 79h75l-137 -151h-18l-142 151h72zM468 270v-270h-75v262c0 81 -40 130 -105 130c-81 0 -141 -56 -141 -163v-229h-75v445h51l14 -66h4c41 51 93 76 155 76c113 0 172 -66 172 -185z" />
    <glyph glyph-name="napostrophe" unicode="&#x149;" horiz-adv-x="553" 
d="M480 270v-270h-75v262c0 81 -40 130 -105 130c-81 0 -141 -56 -141 -163v-229h-75v445h51l14 -66h4c41 51 93 76 155 76c113 0 172 -66 172 -185zM-1 634c0 27 22 47 47 47c27 0 46 -19 46 -47c0 -38 -22 -92 -66 -163l-35 6l37 115c-19 6 -29 20 -29 42z" />
    <glyph glyph-name="Eng" unicode="&#x14a;" horiz-adv-x="721" 
d="M159 512v-512h-79v676h21l456 -521h4v506h79v-599c0 -23 -1 -56 -2 -99c-3 -122 -58 -186 -165 -192c-7 16 -23 45 -30 60c81 3 122 53 122 148v64l-403 469h-3z" />
    <glyph glyph-name="eng" unicode="&#x14b;" horiz-adv-x="541" 
d="M470 270v-243c0 -90 -13 -154 -39 -192c-26 -39 -68 -60 -127 -63l-29 59c88 4 118 56 118 147v276c0 85 -36 137 -105 137c-81 0 -141 -55 -141 -162v-229h-75v445h54l12 -66h4c41 51 93 76 154 76c113 0 174 -66 174 -185z" />
    <glyph glyph-name="Omacron" unicode="&#x14c;" horiz-adv-x="790" 
d="M396 -10c-106 0 -190 32 -252 96c-61 64 -92 145 -92 244c0 95 33 176 100 242c67 67 149 100 244 100c98 0 179 -33 244 -99c65 -65 97 -146 97 -243s-32 -178 -97 -243c-64 -65 -145 -97 -244 -97zM135 330c0 -79 24 -144 71 -195s111 -76 190 -76c77 0 140 26 188 78
c49 53 73 117 73 193c0 77 -25 141 -74 193c-49 53 -111 79 -187 79s-139 -26 -188 -78s-73 -117 -73 -194zM532 764h-289v59h289v-59z" />
    <glyph glyph-name="omacron" unicode="&#x14d;" horiz-adv-x="562" 
d="M282 456c68 0 124 -22 168 -67s66 -100 66 -166s-22 -121 -67 -166c-44 -45 -100 -67 -167 -67c-72 0 -129 22 -172 66s-64 100 -64 167c0 65 23 120 68 165s101 68 168 68zM123 224c0 -100 60 -171 159 -171c49 0 87 16 116 49s43 74 43 122c0 47 -15 87 -44 120
s-68 49 -115 49s-86 -16 -115 -49s-44 -73 -44 -120zM418 550h-275v57h275v-57z" />
    <glyph glyph-name="Obreve" unicode="&#x14e;" horiz-adv-x="790" 
d="M396 -10c-106 0 -190 32 -252 96c-61 64 -92 145 -92 244c0 95 33 176 100 242c67 67 149 100 244 100c98 0 179 -33 244 -99c65 -65 97 -146 97 -243s-32 -178 -97 -243c-64 -65 -145 -97 -244 -97zM135 330c0 -79 24 -144 71 -195s111 -76 190 -76c77 0 140 26 188 78
c49 53 73 117 73 193c0 77 -25 141 -74 193c-49 53 -111 79 -187 79s-139 -26 -188 -78s-73 -117 -73 -194zM394 720c-41 0 -73 14 -96 41s-36 61 -37 100h53c0 -53 32 -93 80 -93c50 0 78 31 83 93h52c-4 -77 -50 -141 -135 -141z" />
    <glyph glyph-name="obreve" unicode="&#x14f;" horiz-adv-x="562" 
d="M282 456c68 0 124 -22 168 -67s66 -100 66 -166s-22 -121 -67 -166c-44 -45 -100 -67 -167 -67c-72 0 -129 22 -172 66s-64 100 -64 167c0 65 23 120 68 165s101 68 168 68zM123 224c0 -100 60 -171 159 -171c49 0 87 16 116 49s43 74 43 122c0 47 -15 87 -44 120
s-68 49 -115 49s-86 -16 -115 -49s-44 -73 -44 -120zM281 532c-80 0 -129 62 -132 141h52c1 -55 32 -93 80 -93c55 0 79 40 83 93h52c-4 -77 -50 -141 -135 -141z" />
    <glyph glyph-name="Ohungarumlaut" unicode="&#x150;" horiz-adv-x="790" 
d="M396 -10c-106 0 -190 32 -252 96c-61 64 -92 145 -92 244c0 95 33 176 100 242c67 67 149 100 244 100c98 0 179 -33 244 -99c65 -65 97 -146 97 -243s-32 -178 -97 -243c-64 -65 -145 -97 -244 -97zM135 330c0 -79 24 -144 71 -195s111 -76 190 -76c77 0 140 26 188 78
c49 53 73 117 73 193c0 77 -25 141 -74 193c-49 53 -111 79 -187 79s-139 -26 -188 -78s-73 -117 -73 -194zM491 850l-140 -121h-60l124 146zM612 850l-140 -121h-60l124 146z" />
    <glyph glyph-name="ohungarumlaut" unicode="&#x151;" horiz-adv-x="562" 
d="M282 456c68 0 124 -22 168 -67s66 -100 66 -166s-22 -121 -67 -166c-44 -45 -100 -67 -167 -67c-72 0 -129 22 -172 66s-64 100 -64 167c0 65 23 120 68 165s101 68 168 68zM123 224c0 -100 60 -171 159 -171c49 0 87 16 116 49s43 74 43 122c0 47 -15 87 -44 120
s-68 49 -115 49s-86 -16 -115 -49s-44 -73 -44 -120zM360 663l-125 -134h-53l107 158zM466 663l-125 -134h-53l107 158z" />
    <glyph glyph-name="OE" unicode="&#x152;" horiz-adv-x="947" 
d="M549 67h366v-67h-428c-27 -7 -57 -10 -92 -10c-109 0 -193 32 -253 95s-90 146 -90 248c0 97 32 179 97 244c65 66 147 99 246 99c39 0 76 -5 109 -15h386v-67h-341v-213h314v-66h-314v-248zM395 58c27 0 52 3 74 9v529c-22 7 -47 10 -74 10c-79 0 -143 -26 -191 -78
c-47 -52 -71 -117 -71 -195c0 -81 23 -147 69 -198c47 -51 111 -77 193 -77z" />
    <glyph glyph-name="oe" unicode="&#x153;" horiz-adv-x="906" 
d="M278 456c84 0 156 -41 195 -108c37 67 105 109 184 109c65 0 115 -22 152 -65s55 -97 55 -164v-20h-349c3 -99 71 -158 162 -158c63 0 119 19 168 56v-67c-45 -33 -102 -49 -169 -49c-97 0 -165 36 -204 107c-39 -65 -112 -107 -195 -107c-72 0 -129 22 -172 66
c-42 44 -63 100 -63 167c0 65 23 120 68 165s101 68 168 68zM119 224c0 -100 60 -171 159 -171c48 0 86 16 115 49s43 74 43 122c0 47 -15 87 -44 120s-67 49 -114 49s-86 -16 -115 -49s-44 -73 -44 -120zM659 395c-77 0 -131 -53 -142 -133h276c-9 81 -59 133 -134 133z
" />
    <glyph glyph-name="Racute" unicode="&#x154;" horiz-adv-x="600" 
d="M79 660h236c61 0 115 -18 160 -55c46 -36 69 -86 69 -151c0 -47 -16 -90 -48 -129c-32 -38 -76 -64 -132 -79l216 -246h-100l-234 277v13c141 5 217 74 217 158c0 92 -64 147 -160 147h-143v-595h-81v660zM404 850l-140 -121h-60l124 146z" />
    <glyph glyph-name="racute" unicode="&#x155;" horiz-adv-x="327" 
d="M273 386c-77 0 -128 -72 -128 -173v-213h-75v444h53l13 -78c1 -1 2 -1 3 -1c30 60 78 90 145 90c15 0 28 -2 37 -5v-71c-15 5 -31 7 -48 7zM255 661l-124 -134h-55l108 158z" />
    <glyph glyph-name="Rcommaaccent" unicode="&#x156;" horiz-adv-x="600" 
d="M79 660h236c61 0 115 -18 160 -55c46 -36 69 -86 69 -151c0 -47 -16 -90 -48 -129c-32 -38 -76 -64 -132 -79l216 -246h-100l-234 277v13c141 5 217 74 217 158c0 92 -64 147 -160 147h-143v-595h-81v660zM246 -70c0 27 22 47 47 47c27 0 46 -19 46 -47
c0 -38 -22 -92 -66 -163l-35 6l37 115c-19 6 -29 20 -29 42z" />
    <glyph glyph-name="rcommaaccent" unicode="&#x157;" horiz-adv-x="327" 
d="M273 386c-77 0 -128 -72 -128 -173v-213h-75v444h53l13 -78c1 -1 2 -1 3 -1c30 60 78 90 145 90c15 0 28 -2 37 -5v-71c-15 5 -31 7 -48 7zM55 -90c0 27 22 47 47 47c27 0 46 -19 46 -47c0 -38 -22 -92 -66 -163l-35 6l37 115c-19 6 -29 20 -29 42z" />
    <glyph glyph-name="Rcaron" unicode="&#x158;" horiz-adv-x="600" 
d="M79 660h236c61 0 115 -18 160 -55c46 -36 69 -86 69 -151c0 -47 -16 -90 -48 -129c-32 -38 -76 -64 -132 -79l216 -246h-100l-234 277v13c141 5 217 74 217 158c0 92 -64 147 -160 147h-143v-595h-81v660zM282 789l74 76h76l-141 -140h-17l-146 140h77z" />
    <glyph glyph-name="rcaron" unicode="&#x159;" horiz-adv-x="327" 
d="M152 596l73 79h75l-137 -151h-18l-142 151h72zM273 386c-77 0 -128 -72 -128 -173v-213h-75v444h53l13 -78c1 -1 2 -1 3 -1c30 60 78 90 145 90c15 0 28 -2 37 -5v-71c-15 5 -31 7 -48 7z" />
    <glyph glyph-name="Sacute" unicode="&#x15a;" horiz-adv-x="498" 
d="M34 43v79c61 -43 125 -65 193 -65c92 0 156 37 156 112c0 65 -52 111 -119 139c-94 41 -219 83 -217 194c0 54 20 96 59 125c40 30 87 45 141 45c66 0 124 -14 175 -41v-77c-50 34 -104 51 -163 51c-73 0 -130 -32 -130 -100c0 -48 53 -83 118 -110
c94 -37 217 -91 216 -218c0 -121 -89 -187 -225 -187c-81 0 -149 18 -204 53zM376 850l-140 -121h-60l124 146z" />
    <glyph glyph-name="sacute" unicode="&#x15b;" horiz-adv-x="376" 
d="M24 28v68c46 -33 94 -50 144 -50c68 0 102 23 102 70c0 103 -230 84 -230 217c0 79 66 122 150 122c45 0 89 -10 132 -30v-65c-44 25 -85 38 -122 38c-57 0 -85 -21 -85 -63c0 -29 36 -52 80 -69c66 -25 148 -57 148 -143c0 -81 -67 -132 -167 -132
c-59 0 -110 12 -152 37zM303 661l-124 -134h-55l108 158z" />
    <glyph glyph-name="Scircumflex" unicode="&#x15c;" horiz-adv-x="498" 
d="M34 43v79c61 -43 125 -65 193 -65c92 0 156 37 156 112c0 65 -52 111 -119 139c-94 41 -219 83 -217 194c0 54 20 96 59 125c40 30 87 45 141 45c66 0 124 -14 175 -41v-77c-50 34 -104 51 -163 51c-73 0 -130 -32 -130 -100c0 -48 53 -83 118 -110
c94 -37 217 -91 216 -218c0 -121 -89 -187 -225 -187c-81 0 -149 18 -204 53zM264 866l141 -141h-78l-73 71l-77 -71h-76l146 141h17z" />
    <glyph glyph-name="scircumflex" unicode="&#x15d;" horiz-adv-x="376" 
d="M24 28v68c46 -33 94 -50 144 -50c68 0 102 23 102 70c0 103 -230 84 -230 217c0 79 66 122 150 122c45 0 89 -10 132 -30v-65c-44 25 -85 38 -122 38c-57 0 -85 -21 -85 -63c0 -29 36 -52 80 -69c66 -25 148 -57 148 -143c0 -81 -67 -132 -167 -132
c-59 0 -110 12 -152 37zM198 676l137 -150h-75l-73 80l-76 -80h-72l142 150h17z" />
    <glyph glyph-name="Scedilla" unicode="&#x15e;" horiz-adv-x="498" 
d="M353 -134c0 -52 -47 -92 -120 -92c-27 0 -55 5 -83 16v47c27 -12 54 -18 81 -18c39 0 62 18 62 43c0 28 -28 42 -61 42c-11 0 -22 -2 -32 -5l-19 13c20 43 32 70 37 79c-73 3 -134 20 -184 52v79c61 -43 125 -65 193 -65c92 0 156 37 156 112c0 65 -52 111 -119 139
c-94 41 -219 83 -217 194c0 54 20 96 59 125c40 30 87 45 141 45c66 0 124 -14 175 -41v-77c-50 34 -104 51 -163 51c-73 0 -130 -32 -130 -100c0 -48 53 -83 118 -110c94 -37 217 -91 216 -218c0 -113 -78 -178 -201 -186l-22 -45c79 -1 113 -37 113 -80z" />
    <glyph glyph-name="scedilla" unicode="&#x15f;" horiz-adv-x="376" 
d="M280 -130c0 -52 -47 -92 -120 -92c-27 0 -55 5 -83 16v47c27 -12 54 -18 81 -18c39 0 62 18 62 43c0 28 -28 42 -61 42c-11 0 -22 -2 -32 -5l-19 13l36 77c-47 4 -87 16 -120 35v68c46 -33 94 -50 144 -50c68 0 102 23 102 70c0 103 -230 84 -230 217
c0 79 66 122 150 122c45 0 89 -10 132 -30v-65c-44 25 -85 38 -122 38c-57 0 -85 -21 -85 -63c0 -29 36 -52 80 -69c66 -25 148 -57 148 -143c0 -79 -62 -127 -155 -131l-21 -42c79 -1 113 -37 113 -80z" />
    <glyph glyph-name="Scaron" unicode="&#x160;" horiz-adv-x="498" 
d="M34 43v79c61 -43 125 -65 193 -65c92 0 156 37 156 112c0 65 -52 111 -119 139c-94 41 -219 83 -217 194c0 54 20 96 59 125c40 30 87 45 141 45c66 0 124 -14 175 -41v-77c-50 34 -104 51 -163 51c-73 0 -130 -32 -130 -100c0 -48 53 -83 118 -110
c94 -37 217 -91 216 -218c0 -121 -89 -187 -225 -187c-81 0 -149 18 -204 53zM247 789l74 76h76l-141 -140h-17l-146 140h77z" />
    <glyph glyph-name="scaron" unicode="&#x161;" horiz-adv-x="376" 
d="M24 28v68c46 -33 94 -50 144 -50c68 0 102 23 102 70c0 103 -230 84 -230 217c0 79 66 122 150 122c45 0 89 -10 132 -30v-65c-44 25 -85 38 -122 38c-57 0 -85 -21 -85 -63c0 -29 36 -52 80 -69c66 -25 148 -57 148 -143c0 -81 -67 -132 -167 -132
c-59 0 -110 12 -152 37zM186 596l73 79h75l-137 -151h-18l-142 151h72z" />
    <glyph glyph-name="Tcommaaccent" unicode="&#x162;" horiz-adv-x="532" 
d="M366 -130c0 -52 -47 -92 -120 -92c-27 0 -55 5 -83 16v47c27 -12 54 -18 81 -18c39 0 62 18 62 43c0 28 -28 42 -61 42c-11 0 -22 -2 -32 -5l-19 13l40 84h-8v594h-212v68h503v-68h-210v-594h-29l-25 -50c79 -1 113 -37 113 -80z" />
    <glyph glyph-name="tcommaaccent" unicode="&#x163;" horiz-adv-x="332" 
d="M268 -130c0 -52 -47 -92 -120 -92c-27 0 -55 5 -83 16v47c27 -12 54 -18 81 -18c39 0 62 18 62 43c0 28 -28 42 -61 42c-11 0 -22 -2 -32 -5l-19 13l45 95c-36 27 -45 76 -45 160v214h-73v46l77 18c5 14 14 36 26 65c12 30 21 53 26 68h20v-137h125v-60h-125v-248
c0 -53 16 -81 64 -81c28 0 55 9 82 27v-63c-27 -19 -59 -29 -96 -29c-16 0 -31 2 -44 5l-23 -46c79 -1 113 -37 113 -80z" />
    <glyph glyph-name="Tcaron" unicode="&#x164;" horiz-adv-x="532" 
d="M269 789l74 76h76l-141 -140h-17l-146 140h77zM517 662v-68h-210v-594h-81v594h-212v68h503z" />
    <glyph glyph-name="tcaron" unicode="&#x165;" horiz-adv-x="344" 
d="M151 582h20v-137h125v-60h-125v-248c0 -53 16 -81 64 -81c27 0 55 9 82 27v-63c-27 -19 -59 -29 -96 -29c-56 0 -90 16 -106 51c-16 36 -20 69 -20 129v214h-73v46l77 18c5 14 14 36 26 65c12 30 21 53 26 68zM252 672c0 27 22 47 47 47c27 0 46 -19 46 -47
c0 -38 -22 -92 -66 -163l-35 6l37 115c-19 6 -29 20 -29 42z" />
    <glyph glyph-name="Tbar" unicode="&#x166;" horiz-adv-x="532" 
d="M517 662v-68h-210v-211h159v-54h-159v-329h-81v329h-160v54h160v211h-211v68h502z" />
    <glyph glyph-name="tbar" unicode="&#x167;" horiz-adv-x="336" 
d="M100 449l52 133h20v-137h125v-60h-125v-88h115v-47h-115v-113c0 -53 16 -81 64 -81c28 0 55 9 82 27v-63c-27 -19 -59 -29 -96 -29c-56 0 -90 16 -106 51c-16 36 -20 69 -20 129v79h-68v47h68v88h-73v46z" />
    <glyph glyph-name="Utilde" unicode="&#x168;" horiz-adv-x="682" 
d="M522 248v413h79v-416c0 -75 -23 -137 -69 -184s-110 -71 -191 -71c-165 0 -261 100 -261 256v415h80v-409c0 -55 15 -101 46 -138c31 -36 76 -54 135 -54c119 0 181 77 181 188zM465 855l30 -37c-18 -49 -46 -73 -83 -73c-16 0 -38 8 -67 24s-48 24 -59 24
c-20 0 -38 -18 -54 -54l-33 37c20 49 48 74 85 74c16 0 38 -8 67 -25c29 -16 48 -24 59 -24c19 0 38 18 55 54z" />
    <glyph glyph-name="utilde" unicode="&#x169;" horiz-adv-x="528" 
d="M70 176v270h75v-262c0 -81 40 -130 105 -130c81 0 132 53 132 168v223h75v-445h-51l-16 61h-4c-37 -47 -85 -70 -144 -70c-115 0 -172 62 -172 185zM385 650l30 -37c-18 -49 -46 -73 -83 -73c-16 0 -38 8 -67 24s-48 24 -59 24c-20 0 -38 -18 -54 -54l-33 37
c20 49 48 74 85 74c16 0 38 -8 67 -25c29 -16 48 -24 59 -24c19 0 38 18 55 54z" />
    <glyph glyph-name="Umacron" unicode="&#x16a;" horiz-adv-x="682" 
d="M522 248v413h79v-416c0 -75 -23 -137 -69 -184s-110 -71 -191 -71c-165 0 -261 100 -261 256v415h80v-409c0 -55 15 -101 46 -138c31 -36 76 -54 135 -54c119 0 181 77 181 188zM486 756h-289v59h289v-59z" />
    <glyph glyph-name="umacron" unicode="&#x16b;" horiz-adv-x="528" 
d="M70 176v270h75v-262c0 -81 40 -130 105 -130c81 0 132 53 132 168v223h75v-445h-51l-16 61h-4c-37 -47 -85 -70 -144 -70c-115 0 -172 62 -172 185zM406 550h-275v57h275v-57z" />
    <glyph glyph-name="Ubreve" unicode="&#x16c;" horiz-adv-x="682" 
d="M522 248v413h79v-416c0 -75 -23 -137 -69 -184s-110 -71 -191 -71c-165 0 -261 100 -261 256v415h80v-409c0 -55 15 -101 46 -138c31 -36 76 -54 135 -54c119 0 181 77 181 188zM347 711c-41 0 -73 14 -96 41s-36 61 -37 100h53c0 -53 32 -93 80 -93c50 0 78 31 83 93h52
c-4 -77 -50 -141 -135 -141z" />
    <glyph glyph-name="ubreve" unicode="&#x16d;" horiz-adv-x="528" 
d="M70 176v270h75v-262c0 -81 40 -130 105 -130c81 0 132 53 132 168v223h75v-445h-51l-16 61h-4c-37 -47 -85 -70 -144 -70c-115 0 -172 62 -172 185zM261 524c-80 0 -129 62 -132 141h52c1 -55 32 -93 80 -93c55 0 79 40 83 93h52c-4 -77 -50 -141 -135 -141z" />
    <glyph glyph-name="Uring" unicode="&#x16e;" horiz-adv-x="682" 
d="M345 724c-57 0 -94 39 -94 91c0 53 42 95 94 95c55 0 96 -40 96 -95c0 -51 -41 -91 -96 -91zM345 869c-28 0 -50 -25 -50 -54c0 -28 19 -50 50 -50s51 23 51 50c0 29 -20 54 -51 54zM522 248v413h79v-416c0 -75 -23 -137 -69 -184s-110 -71 -191 -71
c-165 0 -261 100 -261 256v415h80v-409c0 -55 15 -101 46 -138c31 -36 76 -54 135 -54c119 0 181 77 181 188z" />
    <glyph glyph-name="uring" unicode="&#x16f;" horiz-adv-x="528" 
d="M70 176v270h75v-262c0 -81 40 -130 105 -130c81 0 132 53 132 168v223h75v-445h-51l-16 61h-4c-37 -47 -85 -70 -144 -70c-115 0 -172 62 -172 185zM269 517c-57 0 -94 39 -94 91c0 53 42 95 94 95c55 0 96 -40 96 -95c0 -51 -41 -91 -96 -91zM269 662
c-28 0 -50 -25 -50 -54c0 -28 19 -50 50 -50s51 23 51 50c0 29 -20 54 -51 54z" />
    <glyph glyph-name="Uhungarumlaut" unicode="&#x170;" horiz-adv-x="682" 
d="M522 248v413h79v-416c0 -75 -23 -137 -69 -184s-110 -71 -191 -71c-165 0 -261 100 -261 256v415h80v-409c0 -55 15 -101 46 -138c31 -36 76 -54 135 -54c119 0 181 77 181 188zM419 850l-140 -121h-60l124 146zM540 850l-140 -121h-60l124 146z" />
    <glyph glyph-name="uhungarumlaut" unicode="&#x171;" horiz-adv-x="528" 
d="M70 176v270h75v-262c0 -81 40 -130 105 -130c81 0 132 53 132 168v223h75v-445h-51l-16 61h-4c-37 -47 -85 -70 -144 -70c-115 0 -172 62 -172 185zM334 663l-125 -134h-53l107 158zM440 663l-125 -134h-53l107 158z" />
    <glyph glyph-name="Uogonek" unicode="&#x172;" horiz-adv-x="682" 
d="M522 248v413h79v-416c0 -71 -20 -129 -61 -175c-40 -46 -96 -72 -168 -78c-47 -40 -75 -89 -75 -124c0 -31 16 -47 49 -47c30 0 63 11 99 33l-4 -49c-35 -21 -74 -31 -115 -31c-60 0 -90 26 -90 78c0 35 24 91 84 139c-153 8 -240 106 -240 255v415h80v-409
c0 -55 15 -101 46 -138c31 -36 76 -54 135 -54c119 0 181 77 181 188z" />
    <glyph glyph-name="uogonek" unicode="&#x173;" horiz-adv-x="528" 
d="M70 176v270h75v-262c0 -81 40 -130 105 -130c81 0 132 53 132 168v223h75v-445h-36c-47 -40 -75 -88 -75 -123c0 -31 16 -47 49 -47c30 0 63 11 99 33l-4 -49c-35 -21 -74 -31 -115 -31c-60 0 -90 26 -90 78c0 12 3 26 8 42c11 31 48 82 107 118l-10 40h-4
c-37 -47 -85 -70 -144 -70c-115 0 -172 62 -172 185z" />
    <glyph glyph-name="Wcircumflex" unicode="&#x174;" horiz-adv-x="904" 
d="M630 -5l-177 488h-3l-178 -488h-15l-248 664h81l178 -475h2l174 481h15l177 -481h2l176 475h80l-249 -664h-15zM464 866l141 -141h-78l-73 71l-77 -71h-76l146 141h17z" />
    <glyph glyph-name="wcircumflex" unicode="&#x175;" horiz-adv-x="718" 
d="M214 142l141 309h11l143 -309h4l121 303h75l-188 -453h-14l-147 321h-2l-145 -321h-15l-186 453h78l121 -303h3zM371 676l137 -150h-75l-73 80l-76 -80h-72l142 150h17z" />
    <glyph glyph-name="Ycircumflex" unicode="&#x176;" horiz-adv-x="557" 
d="M211 476l75 -120h4l68 119l105 186h85l-221 -375v-286h-80v286l-238 375h89zM300 866l141 -141h-78l-73 71l-77 -71h-76l146 141h17z" />
    <glyph glyph-name="ycircumflex" unicode="&#x177;" horiz-adv-x="452" 
d="M87 445l136 -344h5l140 344h74l-276 -660h-74l98 233l-180 427h77zM243 676l137 -150h-75l-73 80l-76 -80h-72l142 150h17z" />
    <glyph glyph-name="Ydieresis" unicode="&#x178;" horiz-adv-x="557" 
d="M211 476l75 -120h4l68 119l105 186h85l-221 -375v-286h-80v286l-238 375h89zM247 781c0 -39 -46 -59 -75 -32c-25 27 -6 75 32 75c25 0 43 -19 43 -43zM413 781c0 -38 -47 -59 -74 -32c-25 27 -6 75 31 75c25 0 43 -19 43 -43z" />
    <glyph glyph-name="Zacute" unicode="&#x179;" horiz-adv-x="519" 
d="M59 661h437v-11l-352 -583h352v-67h-477v10l355 584h-315v67zM414 850l-140 -121h-60l124 146z" />
    <glyph glyph-name="zacute" unicode="&#x17a;" horiz-adv-x="416" 
d="M46 445h346v-11l-264 -375h259v-59h-373v11l267 374h-235v60zM344 661l-124 -134h-55l108 158z" />
    <glyph glyph-name="Zdotaccent" unicode="&#x17b;" horiz-adv-x="519" 
d="M59 661h437v-11l-352 -583h352v-67h-477v10l355 584h-315v67zM279 752c-28 0 -48 20 -48 47c0 25 23 48 48 48c27 0 47 -20 47 -47s-20 -48 -47 -48z" />
    <glyph glyph-name="zdotaccent" unicode="&#x17c;" horiz-adv-x="416" 
d="M46 445h346v-11l-264 -375h259v-59h-373v11l267 374h-235v60zM218 543c-28 0 -48 20 -48 47c0 25 23 48 48 48c27 0 47 -20 47 -47s-20 -48 -47 -48z" />
    <glyph glyph-name="Zcaron" unicode="&#x17d;" horiz-adv-x="519" 
d="M278 789l74 76h76l-141 -140h-17l-146 140h77zM59 661h437v-11l-352 -583h352v-67h-477v10l355 584h-315v67z" />
    <glyph glyph-name="zcaron" unicode="&#x17e;" horiz-adv-x="416" 
d="M214 596l73 79h75l-137 -151h-18l-142 151h72zM46 445h346v-11l-264 -375h259v-59h-373v11l267 374h-235v60z" />
    <glyph glyph-name="longs" unicode="&#x17f;" horiz-adv-x="228" 
d="M334 713v-63c-23 9 -48 14 -76 14c-65 0 -98 -41 -98 -123v-541h-75v385h-80v47l80 13v93c0 113 52 187 171 187c25 0 51 -4 78 -12z" />
    <glyph glyph-name="florin" unicode="&#x192;" horiz-adv-x="548" 
d="M242 345h-81v55h89l10 90c15 123 64 181 159 181c25 0 51 -4 76 -13v-62c-23 7 -44 10 -63 10c-57 0 -85 -35 -96 -119l-11 -87h99v-55h-105l-22 -180c-12 -96 -30 -162 -54 -199c-23 -37 -60 -56 -109 -56c-28 0 -55 5 -82 16v71c27 -11 51 -17 70 -17c33 0 55 14 67 43
c13 29 24 89 35 182z" />
    <glyph glyph-name="AEacute" unicode="&#x1fc;" horiz-adv-x="953" 
d="M921 68v-68h-443v149h-283l-121 -149h-91l538 661h375v-67h-340v-213h313v-66h-313v-247h365zM479 497h-4l-236 -290h240v290zM739 850l-140 -121h-60l124 146z" />
    <glyph glyph-name="aeacute" unicode="&#x1fd;" horiz-adv-x="816" 
d="M566 457c131 0 208 -88 208 -220v-23h-350c2 -50 18 -90 49 -120c31 -29 69 -44 114 -44c63 0 118 19 167 56v-67c-45 -33 -101 -49 -169 -49c-89 0 -165 43 -197 111c-38 -75 -102 -112 -193 -112c-57 0 -99 13 -126 40s-40 56 -40 89c0 53 20 92 61 115
c41 24 94 36 157 36h98v19c0 73 -41 109 -122 109c-45 0 -93 -14 -145 -42v64c47 25 98 38 155 38c84 0 139 -28 165 -84c42 56 98 84 168 84zM105 126c0 -51 43 -78 107 -78c85 0 133 63 133 146v19h-89c-101 0 -151 -29 -151 -87zM569 395c-81 0 -135 -46 -143 -127h278
c-8 83 -56 127 -135 127zM556 661l-124 -134h-55l108 158z" />
    <glyph glyph-name="Oslashacute" unicode="&#x1fe;" horiz-adv-x="790" 
d="M396 -10c-77 0 -143 18 -198 53l-34 -43h-57l55 69c-73 63 -109 151 -109 262c0 95 33 176 100 242s148 99 243 99c75 0 141 -20 199 -60l39 50h57l-62 -78c72 -65 108 -150 108 -253c0 -97 -32 -178 -96 -243s-146 -98 -245 -98zM134 331c0 -84 26 -151 77 -201l338 425
c-44 32 -95 48 -152 48c-77 0 -140 -26 -189 -79c-49 -52 -74 -116 -74 -193zM397 58c77 0 140 26 188 79c49 53 73 117 73 194s-25 142 -76 195l-338 -425c43 -29 94 -43 153 -43zM564 850l-140 -121h-60l124 146z" />
    <glyph glyph-name="oslashacute" unicode="&#x1ff;" horiz-adv-x="554" 
d="M278 456c56 0 104 -16 144 -47l32 35h53l-55 -62c40 -43 60 -96 60 -159c0 -66 -22 -121 -67 -166c-44 -45 -100 -67 -167 -67c-54 0 -101 13 -140 40l-27 -30h-54l50 55c-43 43 -64 99 -64 168c0 65 22 120 67 165s101 68 168 68zM279 395c-47 0 -86 -17 -116 -50
s-45 -73 -45 -121c0 -45 12 -84 36 -115l225 250c-29 24 -63 36 -100 36zM438 224c0 40 -11 75 -32 106l-224 -250c27 -19 59 -29 97 -29c48 0 86 17 115 50s44 74 44 123zM418 661l-124 -134h-55l108 158z" />
    <glyph glyph-name="Scommaaccent" unicode="&#x218;" horiz-adv-x="498" 
d="M34 43v79c61 -43 125 -65 193 -65c92 0 156 37 156 112c0 65 -52 111 -119 139c-94 41 -219 83 -217 194c0 54 20 96 59 125c40 30 87 45 141 45c66 0 124 -14 175 -41v-77c-50 34 -104 51 -163 51c-73 0 -130 -32 -130 -100c0 -48 53 -83 118 -110
c94 -37 217 -91 216 -218c0 -121 -89 -187 -225 -187c-81 0 -149 18 -204 53zM191 -92c0 27 22 47 47 47c27 0 46 -19 46 -47c0 -38 -22 -92 -66 -163l-35 6l37 115c-19 6 -29 20 -29 42z" />
    <glyph glyph-name="scommaaccent" unicode="&#x219;" horiz-adv-x="376" 
d="M24 28v68c46 -33 94 -50 144 -50c68 0 102 23 102 70c0 103 -230 84 -230 217c0 79 66 122 150 122c45 0 89 -10 132 -30v-65c-44 25 -85 38 -122 38c-57 0 -85 -21 -85 -63c0 -29 36 -52 80 -69c66 -25 148 -57 148 -143c0 -81 -67 -132 -167 -132
c-59 0 -110 12 -152 37zM133 -92c0 27 22 47 47 47c27 0 46 -19 46 -47c0 -38 -22 -92 -66 -163l-35 6l37 115c-19 6 -29 20 -29 42z" />
    <glyph glyph-name="uni021A" unicode="&#x21a;" horiz-adv-x="532" 
d="M517 662v-68h-210v-594h-81v594h-212v68h503zM214 -92c0 27 22 47 47 47c27 0 46 -19 46 -47c0 -38 -22 -92 -66 -163l-35 6l37 115c-19 6 -29 20 -29 42z" />
    <glyph glyph-name="uni021B" unicode="&#x21b;" horiz-adv-x="332" 
d="M152 582h20v-137h125v-60h-125v-248c0 -53 16 -81 64 -81c28 0 55 9 82 27v-63c-27 -19 -59 -29 -96 -29c-56 0 -90 16 -106 51c-16 36 -20 69 -20 129v214h-73v46l77 18c5 14 14 36 26 65c12 30 21 53 26 68zM100 -92c0 27 22 47 47 47c27 0 46 -19 46 -47
c0 -38 -22 -92 -66 -163l-35 6l37 115c-19 6 -29 20 -29 42z" />
    <glyph glyph-name="schwa" unicode="&#x259;" horiz-adv-x="527" 
d="M260 -10c-65 0 -116 21 -153 64s-55 98 -55 164c0 9 0 16 1 21h349c-3 100 -62 157 -157 157c-59 0 -115 -18 -167 -54v64c46 33 104 50 175 50c145 0 226 -91 226 -234c0 -65 -21 -120 -62 -165s-94 -67 -157 -67zM258 52c80 0 135 55 143 139h-278
c8 -85 58 -139 135 -139z" />
    <glyph glyph-name="primemod" unicode="&#x2b9;" horiz-adv-x="219" 
d="M202 648l-127 -245h-50l110 270z" />
    <glyph glyph-name="circumflex" unicode="&#x2c6;" horiz-adv-x="478" 
d="M243 676l137 -150h-75l-73 80l-76 -80h-72l142 150h17z" />
    <glyph glyph-name="caron" unicode="&#x2c7;" horiz-adv-x="478" 
d="M233 596l73 79h75l-137 -151h-18l-142 151h72z" />
    <glyph glyph-name="breve" unicode="&#x2d8;" horiz-adv-x="483" 
d="M234 532c-80 0 -129 62 -132 141h52c1 -55 32 -93 80 -93c55 0 79 40 83 93h52c-4 -77 -50 -141 -135 -141z" />
    <glyph glyph-name="dotaccent" unicode="&#x2d9;" horiz-adv-x="446" 
d="M261 543c-28 0 -48 20 -48 47c0 25 23 48 48 48c27 0 47 -20 47 -47s-20 -48 -47 -48z" />
    <glyph glyph-name="ring" unicode="&#x2da;" horiz-adv-x="479" 
d="M242 525c-57 0 -94 39 -94 91c0 53 42 95 94 95c55 0 96 -40 96 -95c0 -51 -41 -91 -96 -91zM242 670c-28 0 -50 -25 -50 -54c0 -28 19 -50 50 -50s51 23 51 50c0 29 -20 54 -51 54z" />
    <glyph glyph-name="ogonek" unicode="&#x2db;" horiz-adv-x="525" 
d="M359 39l12 -21c-60 -43 -98 -101 -98 -141c0 -31 16 -47 49 -47c30 0 63 11 99 33l-4 -49c-35 -21 -74 -31 -115 -31c-60 0 -90 26 -90 78c0 14 3 30 10 47c13 35 62 94 137 131z" />
    <glyph glyph-name="tilde" unicode="&#x2dc;" horiz-adv-x="478" 
d="M357 650l30 -37c-18 -49 -46 -73 -83 -73c-16 0 -38 8 -67 24s-48 24 -59 24c-20 0 -38 -18 -54 -54l-33 37c20 49 48 74 85 74c16 0 38 -8 67 -25c29 -16 48 -24 59 -24c19 0 38 18 55 54z" />
    <glyph glyph-name="hungarumlaut" unicode="&#x2dd;" horiz-adv-x="478" 
d="M307 663l-125 -134h-53l107 158zM413 663l-125 -134h-53l107 158z" />
    <glyph glyph-name="tonos" unicode="&#x384;" horiz-adv-x="478" 
d="M370 663l-124 -134h-55l108 158z" />
    <glyph glyph-name="dieresistonos" unicode="&#x385;" horiz-adv-x="484" 
d="M197 589c0 -25 -18 -43 -42 -43c-27 0 -45 18 -45 43c0 24 21 43 45 43s42 -19 42 -43zM411 589c5 -56 -91 -56 -86 0c0 24 20 43 43 43c25 0 43 -19 43 -43zM360 663l-124 -134h-55l108 158z" />
    <glyph glyph-name="Alphatonos" unicode="&#x386;" horiz-adv-x="624" 
d="M611 0h-82l-63 149h-311l-62 -149h-79l292 667h15zM313 510h-4l-129 -302h262zM177 659l-124 -134h-55l108 158z" />
    <glyph glyph-name="anoteleia" unicode="&#x387;" horiz-adv-x="208" 
d="M155 347c0 -29 -23 -52 -52 -52s-52 23 -52 52s23 53 52 53s52 -22 52 -53z" />
    <glyph glyph-name="Epsilontonos" unicode="&#x388;" horiz-adv-x="559" 
d="M161 68h366v-68h-447v661h422v-67h-341v-213h315v-66h-315v-247zM35 659l-124 -134h-55l108 158z" />
    <glyph glyph-name="Etatonos" unicode="&#x389;" horiz-adv-x="674" 
d="M593 661v-661h-79v314h-353v-314h-81v661h81v-279h353v279h79zM33 658l-124 -134h-55l108 158z" />
    <glyph glyph-name="Iotatonos" unicode="&#x38a;" horiz-adv-x="260" 
d="M169 661v-661h-80v661h80zM50 658l-124 -134h-55l108 158z" />
    <glyph glyph-name="Omicrontonos" unicode="&#x38c;" horiz-adv-x="790" 
d="M396 -10c-106 0 -190 32 -252 96c-61 64 -92 145 -92 244c0 95 33 176 100 242c67 67 149 100 244 100c98 0 179 -33 244 -99c65 -65 97 -146 97 -243s-32 -178 -97 -243c-64 -65 -145 -97 -244 -97zM135 330c0 -79 24 -144 71 -195s111 -76 190 -76c77 0 140 26 188 78
c49 53 73 117 73 193c0 77 -25 141 -74 193c-49 53 -111 79 -187 79s-139 -26 -188 -78s-73 -117 -73 -194zM79 658l-124 -134h-55l108 158z" />
    <glyph glyph-name="Upsilontonos" unicode="&#x38e;" horiz-adv-x="557" 
d="M211 476l75 -120h4l68 119l105 186h85l-221 -375v-286h-80v286l-238 375h89zM-9 659l-124 -134h-55l108 158z" />
    <glyph glyph-name="Omegatonos" unicode="&#x38f;" horiz-adv-x="783" 
d="M394 603c-79 0 -143 -26 -192 -79s-73 -118 -73 -196c0 -63 16 -126 48 -187s78 -103 137 -128v-13h-269v67h114c0 1 1 3 1 4c-73 63 -111 157 -111 256s33 182 98 247c66 66 148 99 247 99c97 0 178 -33 242 -98s96 -145 96 -240c0 -109 -37 -197 -111 -264
c1 -1 1 -2 1 -4h114v-67h-268v13c41 17 77 43 106 80c59 73 80 154 80 234c0 75 -23 139 -70 194s-110 82 -190 82zM71 657l-124 -134h-55l108 158z" />
    <glyph glyph-name="iotadieresistonos" unicode="&#x390;" horiz-adv-x="227" 
d="M60 589c0 -25 -18 -43 -42 -43c-27 0 -45 18 -45 43c0 24 21 43 45 43s42 -19 42 -43zM274 589c5 -56 -91 -56 -86 0c0 24 20 43 43 43c25 0 43 -19 43 -43zM223 663l-124 -134h-55l108 158zM152 445v-445h-77v445h77z" />
    <glyph glyph-name="Alpha" unicode="&#x391;" horiz-adv-x="624" 
d="M611 0h-82l-63 149h-311l-62 -149h-79l292 667h15zM313 510h-4l-129 -302h262z" />
    <glyph glyph-name="Beta" unicode="&#x392;" horiz-adv-x="613" 
d="M435 361v-4c85 -24 125 -93 125 -166c0 -56 -20 -102 -59 -138c-39 -35 -88 -53 -148 -53h-272v662h248c115 0 193 -57 193 -161c0 -56 -31 -112 -87 -140zM482 196c0 76 -60 126 -155 126h-167v-254h177c53 0 91 13 112 38c22 26 33 56 33 90zM327 595h-167v-211h159
c47 0 125 21 125 108c0 63 -44 103 -117 103z" />
    <glyph glyph-name="Gamma" unicode="&#x393;" horiz-adv-x="521" 
d="M505 594h-344v-594h-81v661h425v-67z" />
    <glyph glyph-name="increment" unicode="&#x394;" horiz-adv-x="647" 
d="M318 667h13l301 -667h-614zM323 512h-1l-199 -445h399z" />
    <glyph glyph-name="increment" unicode="&#x2206;" horiz-adv-x="647" 
d="M318 667h13l301 -667h-614zM323 512h-1l-199 -445h399z" />
    <glyph glyph-name="Epsilon" unicode="&#x395;" horiz-adv-x="559" 
d="M161 68h366v-68h-447v661h422v-67h-341v-213h315v-66h-315v-247z" />
    <glyph glyph-name="Zeta" unicode="&#x396;" horiz-adv-x="519" 
d="M59 661h437v-11l-352 -583h352v-67h-477v10l355 584h-315v67z" />
    <glyph glyph-name="Eta" unicode="&#x397;" horiz-adv-x="674" 
d="M593 661v-661h-79v314h-353v-314h-81v661h81v-279h353v279h79z" />
    <glyph glyph-name="Theta" unicode="&#x398;" horiz-adv-x="790" 
d="M396 -11c-105 0 -189 32 -251 96c-62 65 -93 147 -93 246c0 96 33 177 100 243c67 67 149 100 245 100c99 0 180 -33 245 -99s97 -147 97 -244s-32 -179 -97 -244s-147 -98 -246 -98zM134 331c0 -79 24 -145 71 -197c48 -51 112 -77 192 -77c78 0 141 26 189 79
c49 53 73 118 73 195s-25 141 -74 193c-49 53 -111 79 -188 79s-140 -26 -189 -79c-49 -52 -74 -116 -74 -193zM569 313h-346v67h346v-67z" />
    <glyph glyph-name="Iota" unicode="&#x399;" horiz-adv-x="260" 
d="M169 661v-661h-80v661h80z" />
    <glyph glyph-name="Kappa" unicode="&#x39a;" horiz-adv-x="596" 
d="M80 661h81v-311l304 311h93l-308 -318l336 -343h-108l-317 336v-336h-81v661z" />
    <glyph glyph-name="Lambda" unicode="&#x39b;" horiz-adv-x="624" 
d="M611 0h-82l-216 505h-4l-216 -505h-79l292 667h15z" />
    <glyph glyph-name="Mu" unicode="&#x39c;" horiz-adv-x="815" 
d="M655 471l-240 -328h-16l-240 320l-2 -2v-461h-77v666h17l311 -420l309 420h17v-666h-77v234c1 103 1 181 1 235z" />
    <glyph glyph-name="Nu" unicode="&#x39d;" horiz-adv-x="721" 
d="M159 500v-500h-79v669h18l459 -503h4v495h79v-666h-18l-460 505h-3z" />
    <glyph glyph-name="Xi" unicode="&#x39e;" horiz-adv-x="577" 
d="M529 662v-69h-482v69h482zM35 0v71h507v-71h-507zM95 315v69h392v-69h-392z" />
    <glyph glyph-name="Omicron" unicode="&#x39f;" horiz-adv-x="790" 
d="M396 -10c-106 0 -190 32 -252 96c-61 64 -92 145 -92 244c0 95 33 176 100 242c67 67 149 100 244 100c98 0 179 -33 244 -99c65 -65 97 -146 97 -243s-32 -178 -97 -243c-64 -65 -145 -97 -244 -97zM135 330c0 -79 24 -144 71 -195s111 -76 190 -76c77 0 140 26 188 78
c49 53 73 117 73 193c0 77 -25 141 -74 193c-49 53 -111 79 -187 79s-139 -26 -188 -78s-73 -117 -73 -194z" />
    <glyph glyph-name="Pi" unicode="&#x3a0;" horiz-adv-x="680" 
d="M598 661v-661h-80v594h-357v-594h-81v661h518z" />
    <glyph glyph-name="Rho" unicode="&#x3a1;" horiz-adv-x="570" 
d="M161 0h-82v660h226c74 0 132 -22 173 -65c42 -43 63 -94 63 -153c0 -67 -23 -121 -68 -162s-101 -61 -168 -61h-144v-219zM283 595h-123v-308h136c53 0 93 15 120 45c27 31 41 67 41 108c0 43 -15 79 -44 109c-29 31 -72 46 -130 46z" />
    <glyph glyph-name="Sigma" unicode="&#x3a3;" horiz-adv-x="551" 
d="M162 594l155 -236l-172 -291h392v-67h-514v10l205 344l-193 294v13h484v-67h-357z" />
    <glyph glyph-name="Tau" unicode="&#x3a4;" horiz-adv-x="532" 
d="M517 662v-68h-210v-594h-81v594h-212v68h503z" />
    <glyph glyph-name="Upsilon" unicode="&#x3a5;" horiz-adv-x="557" 
d="M211 476l75 -120h4l68 119l105 186h85l-221 -375v-286h-80v286l-238 375h89z" />
    <glyph glyph-name="Phi" unicode="&#x3a6;" horiz-adv-x="834" 
d="M457 66v-66h-80v66c-95 4 -174 31 -235 82s-91 115 -91 194c0 78 31 142 94 193s140 79 232 83v43h80v-43c93 -3 170 -31 232 -83c62 -51 93 -116 93 -193s-30 -141 -89 -191c-59 -49 -137 -78 -236 -85zM705 343c0 59 -23 108 -70 147c-46 39 -106 60 -179 63v-421
c77 3 138 24 182 62c45 39 67 88 67 149zM377 132v421c-73 -5 -133 -27 -178 -65s-67 -87 -67 -146c0 -119 93 -198 245 -210z" />
    <glyph glyph-name="Chi" unicode="&#x3a7;" horiz-adv-x="622" 
d="M612 0h-90l-210 327l-216 -327h-87l229 341l-212 319h86l200 -305l196 305h88l-215 -319z" />
    <glyph glyph-name="Psi" unicode="&#x3a8;" horiz-adv-x="754" 
d="M416 189v-189h-81v189c-82 3 -147 29 -194 78s-71 112 -71 189v205h79v-199c0 -51 17 -97 50 -137c34 -39 79 -61 136 -64v400h81v-400c120 7 187 87 187 198v202h80v-206c0 -75 -24 -137 -72 -186c-47 -49 -112 -75 -195 -80z" />
    <glyph glyph-name="Omega" unicode="&#x3a9;" horiz-adv-x="783" 
d="M394 603c-79 0 -143 -26 -192 -79s-73 -118 -73 -196c0 -63 16 -126 48 -187s78 -103 137 -128v-13h-269v67h114c0 1 1 3 1 4c-73 63 -111 157 -111 256s33 182 98 247c66 66 148 99 247 99c97 0 178 -33 242 -98s96 -145 96 -240c0 -109 -37 -197 -111 -264
c1 -1 1 -2 1 -4h114v-67h-268v13c41 17 77 43 106 80c59 73 80 154 80 234c0 75 -23 139 -70 194s-110 82 -190 82z" />
    <glyph glyph-name="Iotadieresis" unicode="&#x3aa;" horiz-adv-x="260" 
d="M90 795c0 -39 -46 -59 -75 -32c-25 27 -6 75 32 75c25 0 43 -19 43 -43zM256 795c0 -38 -47 -59 -74 -32c-25 27 -6 75 31 75c25 0 43 -19 43 -43zM169 661v-661h-80v661h80z" />
    <glyph glyph-name="Upsilondieresis" unicode="&#x3ab;" horiz-adv-x="557" 
d="M211 476l75 -120h4l68 119l105 186h85l-221 -375v-286h-80v286l-238 375h89zM248 775c0 -39 -46 -59 -75 -32c-25 27 -6 75 32 75c25 0 43 -19 43 -43zM414 775c0 -38 -47 -59 -74 -32c-25 27 -6 75 31 75c25 0 43 -19 43 -43z" />
    <glyph glyph-name="alphatonos" unicode="&#x3ac;" horiz-adv-x="583" 
d="M123 222c0 -100 60 -170 159 -170c47 0 85 16 114 49s43 73 43 121c0 47 -15 87 -44 119c-29 33 -66 49 -113 49s-85 -16 -115 -49c-29 -32 -44 -72 -44 -119zM277 454c65 0 132 -28 167 -75l20 65h48v-444h-59l-11 66c-1 0 -2 1 -3 1c-42 -51 -96 -77 -162 -77
c-73 0 -129 21 -170 63c-41 43 -61 99 -61 168c0 65 22 120 66 165c45 45 100 68 165 68zM414 663l-124 -134h-55l108 158z" />
    <glyph glyph-name="epsilontonos" unicode="&#x3ad;" horiz-adv-x="412" 
d="M230 -10c-123 0 -189 55 -189 131c0 43 27 93 82 116v3c-47 17 -71 46 -71 89c0 75 68 128 177 128c47 0 91 -10 134 -30v-65c-39 23 -84 35 -134 35c-55 0 -101 -28 -101 -72c0 -36 26 -54 78 -54h69v-58h-55c-67 0 -102 -36 -102 -80c0 -49 39 -85 122 -85
c52 0 100 16 143 48v-67c-44 -26 -95 -39 -153 -39zM341 663l-124 -134h-55l108 158z" />
    <glyph glyph-name="etatonos" unicode="&#x3ae;" horiz-adv-x="541" 
d="M466 270v-270h-75v262c0 81 -40 130 -105 130c-81 0 -141 -56 -141 -163v-229h-75v445h51l14 -66h4c41 51 93 76 155 76c113 0 172 -66 172 -185zM374 663l-124 -134h-55l108 158z" />
    <glyph glyph-name="iotatonos" unicode="&#x3af;" horiz-adv-x="227" 
d="M152 445v-445h-77v445h77zM248 663l-124 -134h-55l108 158z" />
    <glyph glyph-name="upsilondieresistonos" unicode="&#x3b0;" horiz-adv-x="525" 
d="M209 589c0 -25 -18 -43 -42 -43c-27 0 -45 18 -45 43c0 24 21 43 45 43s42 -19 42 -43zM423 589c5 -56 -91 -56 -86 0c0 24 20 43 43 43c25 0 43 -19 43 -43zM372 663l-124 -134h-55l108 158zM382 192v253h77v-249c0 -132 -74 -206 -198 -206c-127 0 -195 73 -195 200
v255h74v-253c0 -83 39 -139 122 -139c80 0 120 51 120 139z" />
    <glyph glyph-name="alpha" unicode="&#x3b1;" horiz-adv-x="583" 
d="M123 222c0 -100 60 -170 159 -170c47 0 85 16 114 49s43 73 43 121c0 47 -15 87 -44 119c-29 33 -66 49 -113 49s-85 -16 -115 -49c-29 -32 -44 -72 -44 -119zM277 454c65 0 132 -28 167 -75l20 65h48v-444h-59l-11 66c-1 0 -2 1 -3 1c-42 -51 -96 -77 -162 -77
c-73 0 -129 21 -170 63c-41 43 -61 99 -61 168c0 65 22 120 66 165c45 45 100 68 165 68z" />
    <glyph glyph-name="beta" unicode="&#x3b2;" horiz-adv-x="563" 
d="M136 64v-278h-76v648c0 33 0 57 1 73c1 65 21 117 59 157s89 60 153 60c57 0 104 -16 139 -48c36 -32 54 -73 54 -123c0 -13 -2 -26 -5 -40c-7 -27 -33 -69 -74 -90v-5c77 -24 133 -105 133 -198c0 -63 -20 -117 -61 -162s-94 -68 -159 -68c-75 0 -128 25 -160 74h-4z
M289 52c92 0 154 69 154 176c0 105 -64 157 -192 157v51c97 5 140 51 140 114c0 33 -12 60 -35 80c-23 21 -50 31 -80 31c-57 0 -97 -23 -116 -59c-19 -35 -25 -66 -25 -103v-277c0 -45 13 -85 40 -119s65 -51 114 -51z" />
    <glyph glyph-name="gamma" unicode="&#x3b3;" horiz-adv-x="452" 
d="M223 119h5l65 155l72 171h78l-179 -416l1 -244h-78l1 241l-181 419h82l55 -134c35 -89 62 -153 79 -192z" />
    <glyph glyph-name="delta" unicode="&#x3b4;" horiz-adv-x="558" 
d="M438 224c0 95 -53 159 -160 190c-51 -9 -90 -32 -117 -69s-41 -77 -41 -121c0 -49 14 -90 42 -123s67 -49 117 -49c48 0 86 17 115 50s44 74 44 122zM288 724c61 0 112 -11 153 -33v-67c-48 27 -95 41 -142 41c-69 0 -115 -29 -115 -84c0 -45 52 -75 116 -102
c32 -13 64 -29 96 -47c65 -35 117 -107 117 -208c0 -66 -22 -122 -66 -167s-100 -67 -168 -67c-73 0 -130 22 -173 65c-42 44 -63 100 -63 168c0 47 14 92 42 135c29 43 68 73 118 90v4c-57 25 -93 71 -93 127c0 41 16 76 48 103c32 28 75 42 130 42z" />
    <glyph glyph-name="epsilon" unicode="&#x3b5;" horiz-adv-x="412" 
d="M230 -10c-123 0 -189 55 -189 131c0 43 27 93 82 116v3c-47 17 -71 46 -71 89c0 75 68 128 177 128c47 0 91 -10 134 -30v-65c-39 23 -84 35 -134 35c-55 0 -101 -28 -101 -72c0 -36 26 -54 78 -54h69v-58h-55c-67 0 -102 -36 -102 -80c0 -49 39 -85 122 -85
c52 0 100 16 143 48v-67c-44 -26 -95 -39 -153 -39z" />
    <glyph glyph-name="zeta" unicode="&#x3b6;" horiz-adv-x="396" 
d="M332 647c0 1 0 2 -1 3l-1 2h-264v59h404v-11c-103 -90 -188 -179 -255 -268c-66 -88 -99 -159 -99 -214c0 -37 15 -66 44 -87s83 -47 161 -78c72 -29 100 -53 100 -89c0 -16 -9 -37 -28 -64c-18 -27 -40 -51 -65 -74l-53 23c43 55 65 91 65 108c0 16 -23 27 -95 55
c-3 1 -5 1 -6 2c-70 27 -121 55 -152 82c-31 28 -46 67 -46 117c0 55 28 123 83 203c55 81 125 158 208 231z" />
    <glyph glyph-name="eta" unicode="&#x3b7;" horiz-adv-x="536" 
d="M466 270v-270h-75v262c0 81 -40 130 -105 130c-81 0 -141 -56 -141 -163v-229h-75v445h51l14 -66h4c41 51 93 76 155 76c113 0 172 -66 172 -185z" />
    <glyph glyph-name="theta" unicode="&#x3b8;" horiz-adv-x="554" 
d="M506 353c0 -109 -20 -196 -59 -263s-97 -100 -175 -100c-77 0 -134 33 -171 99c-36 67 -54 155 -54 265c0 69 7 131 21 184c29 108 102 186 207 186c162 0 231 -165 231 -371zM124 399h306c-3 77 -17 139 -44 188s-64 73 -111 73c-46 0 -82 -25 -107 -74
s-40 -111 -44 -187zM432 340h-309c2 -56 8 -105 18 -146c20 -83 65 -141 132 -141c53 0 92 26 118 79s40 123 41 208z" />
    <glyph glyph-name="iota" unicode="&#x3b9;" horiz-adv-x="227" 
d="M152 445v-445h-77v445h77z" />
    <glyph glyph-name="kappa" unicode="&#x3ba;" horiz-adv-x="491" 
d="M371 444h93l-233 -209l254 -235h-101l-238 224v-224h-76v444h76v-203z" />
    <glyph glyph-name="lambda" unicode="&#x3bb;" horiz-adv-x="472" 
d="M383 0l-140 349h-4l-152 -349h-78l196 440l-109 272h77l290 -712h-80z" />
    <glyph glyph-name="nu" unicode="&#x3bd;" horiz-adv-x="475" 
d="M461 445l-218 -451h-15l-215 451h82l142 -312h3l141 312h80z" />
    <glyph glyph-name="xi" unicode="&#x3be;" horiz-adv-x="424" 
d="M271 663c-84 0 -130 -52 -130 -111c0 -80 63 -116 144 -116h96v-59h-105c-48 0 -85 -15 -111 -45c-25 -29 -38 -64 -38 -105s15 -71 54 -96c40 -25 73 -39 145 -64c87 -31 111 -57 111 -96c-3 -29 -31 -75 -84 -138l-57 21c38 52 57 88 57 108s-19 34 -82 53
c-152 45 -222 103 -222 206c0 79 39 152 122 185v5c-72 21 -109 78 -109 145c0 44 17 83 50 117c34 34 84 51 151 51c58 0 109 -12 153 -37v-71c-47 31 -96 47 -145 47z" />
    <glyph glyph-name="omicron" unicode="&#x3bf;" horiz-adv-x="562" 
d="M282 456c68 0 124 -22 168 -67s66 -100 66 -166s-22 -121 -67 -166c-44 -45 -100 -67 -167 -67c-72 0 -129 22 -172 66s-64 100 -64 167c0 65 23 120 68 165s101 68 168 68zM123 224c0 -100 60 -171 159 -171c49 0 87 16 116 49s43 74 43 122c0 47 -15 87 -44 120
s-68 49 -115 49s-86 -16 -115 -49s-44 -73 -44 -120z" />
    <glyph glyph-name="pi" unicode="&#x3c0;" horiz-adv-x="542" 
d="M471 445v-445h-77v380h-248v-380h-76v445h401z" />
    <glyph glyph-name="rho" unicode="&#x3c1;" horiz-adv-x="580" 
d="M143 60l-6 -3v-271h-77v420c0 69 21 127 62 176c42 49 100 74 174 74c69 0 125 -23 170 -68s67 -100 67 -166s-21 -121 -64 -165c-42 -44 -96 -66 -163 -66c-68 0 -122 23 -163 69zM457 223c0 47 -15 87 -44 120s-67 50 -116 50s-88 -17 -117 -51
c-29 -33 -43 -74 -43 -123c0 -46 14 -85 43 -118c29 -32 68 -48 117 -48c47 0 85 15 115 46s45 73 45 124z" />
    <glyph glyph-name="sigma1" unicode="&#x3c2;" horiz-adv-x="414" 
d="M42 226c0 68 21 123 62 166c42 43 98 64 167 64c46 0 85 -7 116 -22v-67c-30 18 -66 27 -108 27c-96 0 -162 -60 -162 -165c0 -71 33 -116 136 -159c36 -15 62 -27 77 -35c31 -15 57 -35 57 -58c0 -32 -28 -72 -84 -121l-56 20c37 42 55 70 55 83c0 8 -8 15 -21 21
c-17 9 -44 19 -72 31c-63 27 -107 56 -131 88s-36 74 -36 127z" />
    <glyph glyph-name="sigma" unicode="&#x3c3;" horiz-adv-x="556" 
d="M537 385h-105l-2 -4c48 -36 78 -102 78 -167c0 -63 -22 -116 -65 -159s-98 -65 -165 -65c-71 0 -128 22 -169 65s-62 97 -62 162c0 64 22 118 67 162s99 66 164 66h259v-60zM279 385c-46 0 -84 -16 -113 -49c-29 -32 -43 -71 -43 -118c0 -97 59 -167 155 -167
c47 0 85 16 113 48c29 33 43 72 43 119s-14 87 -42 118c-27 32 -65 48 -113 49z" />
    <glyph glyph-name="tau" unicode="&#x3c4;" horiz-adv-x="373" 
d="M13 385v60h336v-60h-147v-248c0 -53 16 -81 64 -81c28 0 55 9 82 27v-63c-27 -19 -59 -29 -96 -29c-45 0 -77 14 -96 31c-9 9 -15 21 -20 37c-9 33 -10 57 -10 102v224h-113z" />
    <glyph glyph-name="upsilon" unicode="&#x3c5;" horiz-adv-x="525" 
d="M382 192v253h77v-249c0 -132 -74 -206 -198 -206c-127 0 -195 73 -195 200v255h74v-253c0 -83 39 -139 122 -139c80 0 120 51 120 139z" />
    <glyph glyph-name="phi" unicode="&#x3c6;" horiz-adv-x="691" 
d="M47 222c0 111 69 196 182 223l30 -50c-89 -23 -138 -89 -138 -172c0 -46 17 -86 51 -119c35 -33 80 -51 137 -52v403h75c78 0 141 -21 188 -63c48 -41 72 -97 72 -166c0 -63 -25 -117 -74 -162s-111 -69 -188 -72v-210h-74l1 210c-81 3 -145 26 -192 70s-70 97 -70 160z
M571 222c0 49 -16 89 -47 122s-78 50 -143 51v-344c116 8 190 79 190 171z" />
    <glyph glyph-name="chi" unicode="&#x3c7;" horiz-adv-x="467" 
d="M457 0h-83l-140 215l-144 -215h-81l154 228l-145 217h81l135 -204l134 204h81l-146 -216z" />
    <glyph glyph-name="psi" unicode="&#x3c8;" horiz-adv-x="650" 
d="M361 -218h-74v208c-69 1 -122 22 -161 62c-38 40 -58 92 -59 155c-1 17 -1 42 -1 77v161h74v-232c0 -43 13 -80 39 -111s62 -47 108 -49v392h74v-392c97 3 147 64 147 164v228h75v-231c0 -63 -20 -116 -59 -158c-39 -41 -93 -63 -163 -66v-208z" />
    <glyph glyph-name="omega" unicode="&#x3c9;" horiz-adv-x="754" 
d="M707 220c0 -61 -16 -115 -49 -161c-33 -45 -80 -68 -142 -68c-63 0 -116 32 -139 79h-5c-37 -53 -86 -79 -145 -79c-119 0 -181 89 -181 224c0 65 17 121 51 166c35 46 83 70 145 73c4 -13 11 -32 20 -57c-88 -5 -137 -78 -137 -177c0 -103 41 -168 112 -168
c68 0 103 54 103 118v135h71v-139c0 -61 42 -114 102 -114c73 0 117 71 117 168s-52 172 -137 177l20 58c63 -3 111 -27 144 -72c33 -44 50 -98 50 -163z" />
    <glyph glyph-name="iotadieresis" unicode="&#x3ca;" horiz-adv-x="227" 
d="M76 589c0 -25 -18 -43 -42 -43c-27 0 -45 18 -45 43c0 24 21 43 45 43s42 -19 42 -43zM242 589c5 -56 -91 -56 -86 0c0 24 20 43 43 43c25 0 43 -19 43 -43zM152 445v-445h-77v445h77z" />
    <glyph glyph-name="upsilondieresis" unicode="&#x3cb;" horiz-adv-x="525" 
d="M226 589c0 -25 -18 -43 -42 -43c-27 0 -45 18 -45 43c0 24 21 43 45 43s42 -19 42 -43zM392 589c5 -56 -91 -56 -86 0c0 24 20 43 43 43c25 0 43 -19 43 -43zM382 192v253h77v-249c0 -132 -74 -206 -198 -206c-127 0 -195 73 -195 200v255h74v-253
c0 -83 39 -139 122 -139c80 0 120 51 120 139z" />
    <glyph glyph-name="omicrontonos" unicode="&#x3cc;" horiz-adv-x="563" 
d="M282 456c68 0 124 -22 168 -67s66 -100 66 -166s-22 -121 -67 -166c-44 -45 -100 -67 -167 -67c-72 0 -129 22 -172 66s-64 100 -64 167c0 65 23 120 68 165s101 68 168 68zM123 224c0 -100 60 -171 159 -171c49 0 87 16 116 49s43 74 43 122c0 47 -15 87 -44 120
s-68 49 -115 49s-86 -16 -115 -49s-44 -73 -44 -120zM421 663l-124 -134h-55l108 158z" />
    <glyph glyph-name="upsilontonos" unicode="&#x3cd;" horiz-adv-x="527" 
d="M383 192v253h77v-249c0 -132 -74 -206 -198 -206c-127 0 -195 73 -195 200v255h74v-253c0 -83 39 -139 122 -139c80 0 120 51 120 139zM390 663l-124 -134h-55l108 158z" />
    <glyph glyph-name="omegatonos" unicode="&#x3ce;" horiz-adv-x="754" 
d="M707 220c0 -61 -16 -115 -49 -161c-33 -45 -80 -68 -142 -68c-63 0 -116 32 -139 79h-5c-37 -53 -86 -79 -145 -79c-119 0 -181 89 -181 224c0 65 17 121 51 166c35 46 83 70 145 73c4 -13 11 -32 20 -57c-88 -5 -137 -78 -137 -177c0 -103 41 -168 112 -168
c68 0 103 54 103 118v135h71v-139c0 -61 42 -114 102 -114c73 0 117 71 117 168s-52 172 -137 177l20 58c63 -3 111 -27 144 -72c33 -44 50 -98 50 -163zM509 662l-124 -134h-55l108 158z" />
    <glyph glyph-name="afii10023" unicode="&#x401;" horiz-adv-x="559" 
d="M161 68h366v-68h-447v661h422v-67h-341v-213h315v-66h-315v-247zM256 795c0 -39 -46 -59 -75 -32c-25 27 -6 75 32 75c25 0 43 -19 43 -43zM422 795c0 -38 -47 -59 -74 -32c-25 27 -6 75 31 75c25 0 43 -19 43 -43z" />
    <glyph glyph-name="afii10051" unicode="&#x402;" horiz-adv-x="791" 
d="M537 662v-68h-230v-216c61 25 121 38 180 38c80 0 142 -23 187 -70c45 -46 68 -104 68 -174c0 -132 -72 -244 -184 -293l-57 41c106 51 159 132 159 244c0 53 -16 98 -49 134s-80 54 -142 54c-53 0 -107 -11 -162 -34v-318h-81v594h-212v68h523z" />
    <glyph glyph-name="afii10052" unicode="&#x403;" horiz-adv-x="521" 
d="M505 594h-344v-594h-81v661h425v-67zM418 850l-140 -121h-60l124 146z" />
    <glyph glyph-name="afii10053" unicode="&#x404;" horiz-adv-x="614" 
d="M586 110v-74c-50 -30 -115 -45 -194 -45c-107 0 -190 31 -250 94s-90 143 -90 242s33 181 98 247s147 99 246 99c70 0 125 -10 166 -31v-73c-50 23 -102 35 -157 35c-67 0 -126 -20 -175 -61c-49 -40 -79 -94 -89 -163h336v-64h-341c1 -79 25 -141 72 -188
c47 -46 112 -69 193 -69c64 0 126 17 185 51z" />
    <glyph glyph-name="afii10054" unicode="&#x405;" horiz-adv-x="498" 
d="M34 43v79c61 -43 125 -65 193 -65c92 0 156 37 156 112c0 65 -52 111 -119 139c-94 41 -219 83 -217 194c0 54 20 96 59 125c40 30 87 45 141 45c66 0 124 -14 175 -41v-77c-50 34 -104 51 -163 51c-73 0 -130 -32 -130 -100c0 -48 53 -83 118 -110
c94 -37 217 -91 216 -218c0 -121 -89 -187 -225 -187c-81 0 -149 18 -204 53z" />
    <glyph glyph-name="afii10055" unicode="&#x406;" horiz-adv-x="260" 
d="M169 661v-661h-80v661h80z" />
    <glyph glyph-name="afii10056" unicode="&#x407;" horiz-adv-x="267" 
d="M95 795c0 -39 -46 -59 -75 -32c-25 27 -6 75 32 75c25 0 43 -19 43 -43zM261 795c0 -38 -47 -59 -74 -32c-25 27 -6 75 31 75c25 0 43 -19 43 -43zM172 661v-661h-80v661h80z" />
    <glyph glyph-name="afii10057" unicode="&#x408;" horiz-adv-x="458" 
d="M145 59c60 0 100 16 120 47c21 31 31 77 31 136v419h81v-402c0 -56 -3 -93 -20 -145c-23 -74 -83 -120 -207 -124c-56 0 -102 10 -139 30v77c36 -23 94 -38 134 -38z" />
    <glyph glyph-name="afii10058" unicode="&#x409;" horiz-adv-x="1027" 
d="M473 598h-221l-35 -351c-9 -87 -25 -150 -49 -191c-23 -40 -67 -65 -131 -75l-33 60c48 11 81 28 98 53c18 25 30 67 36 124l42 443h375v-257h188c77 0 136 -20 176 -59c41 -39 61 -88 61 -147c0 -62 -21 -111 -62 -146s-93 -52 -155 -52h-290v598zM744 338h-189v-271
h201c83 0 143 45 143 133s-66 138 -155 138z" />
    <glyph glyph-name="afii10059" unicode="&#x40a;" horiz-adv-x="1048" 
d="M784 0h-291v330h-332v-330h-80v662h80v-267h332v267h82v-267h189c155 0 237 -84 237 -201c0 -61 -21 -109 -62 -143s-93 -51 -155 -51zM764 330h-189v-263h202c84 0 142 41 142 129s-66 134 -155 134z" />
    <glyph glyph-name="afii10060" unicode="&#x40b;" horiz-adv-x="785" 
d="M537 662v-68h-230v-221c64 23 128 34 193 34c141 0 209 -72 209 -189v-218h-81v197c0 93 -40 144 -155 144c-59 0 -115 -11 -166 -32v-309h-81v594h-212v68h523z" />
    <glyph glyph-name="afii10061" unicode="&#x40c;" horiz-adv-x="596" 
d="M80 661h81v-311l304 311h93l-308 -318l336 -343h-102l-323 336v-336h-81v661zM432 852l-140 -121h-60l124 146z" />
    <glyph glyph-name="afii10062" unicode="&#x40e;" horiz-adv-x="581" 
d="M254 131l8 21l-253 509h85l202 -422h4l191 422h82l-256 -562c-39 -83 -81 -111 -150 -111c-40 0 -77 8 -111 25v69c35 -19 69 -29 103 -29c44 0 76 26 95 78zM299 720c-41 0 -73 14 -96 41s-36 61 -37 100h53c0 -53 32 -93 80 -93c50 0 78 31 83 93h52
c-4 -77 -50 -141 -135 -141z" />
    <glyph glyph-name="afii10145" unicode="&#x40f;" horiz-adv-x="683" 
d="M522 67v594h80v-661h-219v-160h-79v160h-224v661h81v-594h361z" />
    <glyph glyph-name="afii10017" unicode="&#x410;" horiz-adv-x="624" 
d="M611 0h-82l-63 149h-311l-62 -149h-79l292 667h15zM313 510h-4l-129 -302h262z" />
    <glyph glyph-name="afii10018" unicode="&#x411;" horiz-adv-x="635" 
d="M360 0h-280v661h429v-65h-346v-193h188c77 0 136 -20 176 -59c41 -39 61 -87 61 -146c0 -64 -22 -113 -66 -147c-43 -34 -97 -51 -162 -51zM351 338h-188v-271h204c81 0 140 46 140 133c0 88 -67 138 -156 138z" />
    <glyph glyph-name="afii10019" unicode="&#x412;" horiz-adv-x="613" 
d="M435 361v-4c85 -24 125 -93 125 -166c0 -56 -20 -102 -59 -138c-39 -35 -88 -53 -148 -53h-272v662h248c115 0 193 -57 193 -161c0 -56 -31 -112 -87 -140zM482 196c0 76 -60 126 -155 126h-167v-254h177c53 0 91 13 112 38c22 26 33 56 33 90zM327 595h-167v-211h159
c47 0 125 21 125 108c0 63 -44 103 -117 103z" />
    <glyph glyph-name="afii10020" unicode="&#x413;" horiz-adv-x="521" 
d="M505 594h-344v-594h-81v661h425v-67z" />
    <glyph glyph-name="afii10021" unicode="&#x414;" horiz-adv-x="798" 
d="M242 660h428v-593h91v-225h-77v158h-599v-158h-76v225h83c68 68 96 154 113 297zM588 596h-280l-21 -187c-19 -168 -47 -267 -106 -342h407v529z" />
    <glyph glyph-name="afii10022" unicode="&#x415;" horiz-adv-x="559" 
d="M161 68h366v-68h-447v661h422v-67h-341v-213h315v-66h-315v-247z" />
    <glyph glyph-name="afii10024" unicode="&#x416;" horiz-adv-x="927" 
d="M129 661l294 -311v311h80v-311l294 311h95l-298 -318l325 -343h-103l-313 336v-336h-80v336l-313 -336h-103l325 343l-297 318h94z" />
    <glyph glyph-name="afii10025" unicode="&#x417;" horiz-adv-x="574" 
d="M235 -10c-33 0 -70 4 -111 12c-40 8 -73 19 -98 34v74c61 -35 125 -52 194 -52c145 0 220 57 220 144c0 77 -76 123 -181 123h-80v62h77c104 0 161 50 161 110c0 65 -69 107 -166 107c-27 0 -61 -4 -100 -12c-39 -7 -72 -18 -100 -32v73c28 13 62 23 101 30
c40 7 75 11 106 11c145 0 242 -61 242 -168c0 -59 -40 -122 -112 -143v-4c87 -17 133 -82 133 -159c0 -61 -25 -112 -75 -151c-49 -39 -120 -59 -211 -59z" />
    <glyph glyph-name="afii10026" unicode="&#x418;" horiz-adv-x="723" 
d="M641 669v-669h-78v506h-3l-462 -513h-18v668h79v-503h4l462 511h16z" />
    <glyph glyph-name="afii10027" unicode="&#x419;" horiz-adv-x="723" 
d="M641 669v-669h-78v506h-3l-462 -513h-18v668h79v-503h4l462 511h16zM366 723c-80 0 -129 62 -132 141h52c1 -55 32 -93 80 -93c55 0 79 40 83 93h52c-4 -77 -50 -141 -135 -141z" />
    <glyph glyph-name="afii10028" unicode="&#x41a;" horiz-adv-x="596" 
d="M80 661h81v-311l304 311h93l-308 -318l336 -343h-102l-323 336v-336h-81v661z" />
    <glyph glyph-name="afii10029" unicode="&#x41b;" horiz-adv-x="645" 
d="M482 0v598h-231l-36 -361c-8 -83 -24 -145 -48 -184s-67 -63 -130 -72l-33 59c48 11 81 29 98 54s29 67 35 124l43 442h384v-660h-82z" />
    <glyph glyph-name="afii10030" unicode="&#x41c;" horiz-adv-x="815" 
d="M655 471l-240 -328h-16l-240 320l-2 -2v-461h-77v666h17l311 -420l309 420h17v-666h-77v234c1 103 1 181 1 235z" />
    <glyph glyph-name="afii10031" unicode="&#x41d;" horiz-adv-x="674" 
d="M593 661v-661h-79v314h-353v-314h-81v661h81v-279h353v279h79z" />
    <glyph glyph-name="afii10032" unicode="&#x41e;" horiz-adv-x="790" 
d="M396 -10c-106 0 -190 32 -252 96c-61 64 -92 145 -92 244c0 95 33 176 100 242c67 67 149 100 244 100c98 0 179 -33 244 -99c65 -65 97 -146 97 -243s-32 -178 -97 -243c-64 -65 -145 -97 -244 -97zM135 330c0 -79 24 -144 71 -195s111 -76 190 -76c77 0 140 26 188 78
c49 53 73 117 73 193c0 77 -25 141 -74 193c-49 53 -111 79 -187 79s-139 -26 -188 -78s-73 -117 -73 -194z" />
    <glyph glyph-name="afii10033" unicode="&#x41f;" horiz-adv-x="680" 
d="M598 661v-661h-80v594h-357v-594h-81v661h518z" />
    <glyph glyph-name="afii10034" unicode="&#x420;" horiz-adv-x="570" 
d="M161 0h-82v660h226c74 0 132 -22 173 -65c42 -43 63 -94 63 -153c0 -67 -23 -121 -68 -162s-101 -61 -168 -61h-144v-219zM283 595h-123v-308h136c53 0 93 15 120 45c27 31 41 67 41 108c0 43 -15 79 -44 109c-29 31 -72 46 -130 46z" />
    <glyph glyph-name="afii10035" unicode="&#x421;" horiz-adv-x="614" 
d="M587 110v-74c-51 -31 -115 -46 -194 -46c-107 0 -190 31 -250 94s-90 144 -90 243s33 181 98 247s147 99 246 99c71 0 126 -10 165 -30v-74c-47 23 -99 35 -156 35c-77 0 -141 -25 -193 -75c-51 -50 -77 -117 -77 -202c0 -81 23 -146 70 -195s112 -73 195 -73
c63 0 125 17 186 51z" />
    <glyph glyph-name="afii10036" unicode="&#x422;" horiz-adv-x="532" 
d="M517 662v-68h-210v-594h-81v594h-212v68h503z" />
    <glyph glyph-name="afii10037" unicode="&#x423;" horiz-adv-x="581" 
d="M254 131l8 21l-253 509h85l202 -422h4l191 422h82l-256 -562c-39 -83 -81 -111 -150 -111c-40 0 -77 8 -111 25v69c35 -19 69 -29 103 -29c44 0 76 26 95 78z" />
    <glyph glyph-name="afii10038" unicode="&#x424;" horiz-adv-x="834" 
d="M457 66v-66h-80v66c-95 4 -174 31 -235 82s-91 115 -91 194c0 78 31 142 94 193s140 79 232 83v43h80v-43c93 -3 170 -31 232 -83c62 -51 93 -116 93 -193s-30 -141 -89 -191c-59 -49 -137 -78 -236 -85zM705 343c0 59 -23 108 -70 147c-46 39 -106 60 -179 63v-421
c77 3 138 24 182 62c45 39 67 88 67 149zM377 132v421c-73 -5 -133 -27 -178 -65s-67 -87 -67 -146c0 -119 93 -198 245 -210z" />
    <glyph glyph-name="afii10039" unicode="&#x425;" horiz-adv-x="622" 
d="M612 0h-90l-210 327l-216 -327h-87l229 341l-212 319h86l200 -305l196 305h88l-215 -319z" />
    <glyph glyph-name="afii10040" unicode="&#x426;" horiz-adv-x="707" 
d="M602 661v-594h94v-225h-77v158h-539v661h81v-594h361v594h80z" />
    <glyph glyph-name="afii10041" unicode="&#x427;" horiz-adv-x="641" 
d="M559 0h-82v308c-63 -22 -126 -33 -189 -33c-143 0 -221 73 -221 190v196h81v-179c0 -95 55 -143 164 -143c59 0 114 11 165 32v290h82v-661z" />
    <glyph glyph-name="afii10042" unicode="&#x428;" horiz-adv-x="952" 
d="M791 662h80v-662h-790v662h80v-595h273v595h82v-595h275v595z" />
    <glyph glyph-name="afii10043" unicode="&#x429;" horiz-adv-x="975" 
d="M161 67h272v594h82v-594h275v594h81v-594h94v-225h-77v158h-808v661h81v-594z" />
    <glyph glyph-name="afii10044" unicode="&#x42a;" horiz-adv-x="839" 
d="M366 661v-258h189c77 0 136 -20 176 -59c41 -39 61 -87 61 -146c0 -62 -21 -111 -62 -146s-93 -52 -155 -52h-291v595h-275v66h357zM555 338h-189v-272h137c51 0 75 1 116 10c58 13 87 48 91 124c0 88 -66 138 -155 138z" />
    <glyph glyph-name="afii10045" unicode="&#x42b;" horiz-adv-x="840" 
d="M371 0h-291v661h82v-258h189c77 0 136 -20 176 -59c41 -39 61 -87 61 -146c0 -62 -21 -111 -62 -146s-93 -52 -155 -52zM351 338h-189v-272h137c21 0 38 0 51 1c27 1 68 6 91 18c38 19 66 49 66 115c0 88 -67 138 -156 138zM758 661v-661h-80v661h80z" />
    <glyph glyph-name="afii10046" unicode="&#x42c;" horiz-adv-x="635" 
d="M372 0h-291v662h82v-258h188c77 0 136 -20 176 -59c41 -39 61 -88 61 -147c0 -61 -21 -110 -62 -145s-93 -53 -154 -53zM352 338h-189v-271h202c83 0 142 45 142 133s-66 138 -155 138z" />
    <glyph glyph-name="afii10047" unicode="&#x42d;" horiz-adv-x="614" 
d="M26 36v74c61 -34 123 -51 186 -51c85 0 149 24 194 73s69 110 70 184h-340v64h336c-15 143 -106 224 -254 224c-62 0 -118 -12 -167 -35v73c41 21 100 31 178 31c107 0 189 -32 246 -95s86 -145 86 -247c0 -88 -29 -169 -84 -234c-55 -64 -147 -106 -256 -106
c-80 0 -145 15 -195 45z" />
    <glyph glyph-name="afii10048" unicode="&#x42e;" horiz-adv-x="1037" 
d="M162 310v-310h-82v660h82v-287h163c9 87 43 158 103 214c61 56 136 84 225 84c99 0 179 -33 240 -98s91 -146 91 -243s-31 -178 -92 -243c-61 -64 -141 -96 -240 -96c-94 0 -172 30 -234 91s-94 137 -95 228h-161zM653 601c-75 0 -135 -26 -181 -79
c-45 -52 -68 -116 -68 -193s23 -141 69 -194c46 -52 106 -78 180 -78c76 0 136 26 180 78c45 52 67 117 67 194s-22 142 -67 194c-44 52 -104 78 -180 78z" />
    <glyph glyph-name="afii10049" unicode="&#x42f;" horiz-adv-x="603" 
d="M121 0h-99l224 254c-58 11 -104 35 -138 72c-33 38 -50 81 -50 128c0 65 23 115 68 151c45 37 99 55 160 55h236v-660h-81v595h-143c-96 0 -159 -56 -159 -147c0 -41 18 -77 55 -108s91 -47 162 -50v-13z" />
    <glyph glyph-name="afii10065" unicode="&#x430;" horiz-adv-x="501" 
d="M376 0l-10 59h-2c-36 -46 -91 -69 -164 -69c-55 0 -95 13 -120 39c-25 27 -37 56 -37 89c0 96 69 154 206 154h106v15c0 73 -41 109 -122 109c-45 0 -93 -14 -143 -42v64c45 25 96 38 153 38c131 0 187 -62 187 -178v-278h-54zM118 126c0 -51 45 -79 105 -79
c84 0 132 63 132 139v31h-106c-87 0 -131 -30 -131 -91z" />
    <glyph glyph-name="afii10066" unicode="&#x431;" horiz-adv-x="554" 
d="M118 365h7c32 56 101 88 169 88c69 0 123 -22 162 -67c40 -44 60 -100 60 -167c0 -63 -21 -117 -64 -162s-100 -67 -172 -67c-80 0 -139 25 -178 74c-38 50 -57 114 -57 191c0 182 56 307 167 374c34 21 112 53 234 97l36 -52c-21 -9 -55 -21 -100 -38
c-45 -16 -81 -30 -107 -42c-92 -44 -145 -133 -157 -229zM284 392c-47 0 -86 -17 -116 -50s-45 -74 -45 -122c0 -46 14 -86 42 -119s67 -49 117 -49c48 0 86 16 115 48c29 33 43 73 43 120c0 49 -14 89 -42 122c-27 33 -65 50 -114 50z" />
    <glyph glyph-name="afii10067" unicode="&#x432;" horiz-adv-x="506" 
d="M378 243v-4c61 -15 85 -66 85 -111c0 -37 -14 -68 -43 -92s-64 -36 -106 -36h-244v444h213c101 0 151 -37 151 -112c0 -39 -19 -68 -56 -89zM386 136c0 40 -32 71 -93 71h-146v-151h142c63 0 97 33 97 80zM270 390h-123v-126h139c45 0 73 24 73 59c0 45 -30 67 -89 67z
" />
    <glyph glyph-name="afii10068" unicode="&#x433;" horiz-adv-x="426" 
d="M415 386h-268v-386h-77v444h345v-58z" />
    <glyph glyph-name="afii10069" unicode="&#x434;" horiz-adv-x="596" 
d="M178 444h329c0 -43 0 -107 -1 -192v-193h79v-183h-69v124h-442v-124h-68v183h67c52 43 72 115 88 244zM430 386h-192l-6 -54c-5 -39 -8 -67 -11 -85c-2 -18 -6 -41 -12 -69c-11 -55 -29 -88 -54 -119h275v327z" />
    <glyph glyph-name="afii10070" unicode="&#x435;" horiz-adv-x="520" 
d="M266 456c64 0 114 -22 151 -65s56 -97 56 -163c0 -9 0 -16 -1 -20h-348c1 -49 17 -88 48 -116s68 -42 113 -42c63 0 119 19 168 56v-67c-45 -33 -102 -49 -169 -49c-74 0 -132 21 -175 64c-42 43 -63 99 -63 170c0 65 21 120 62 165c42 45 95 67 158 67zM268 395
c-77 0 -132 -53 -143 -133h277c-11 81 -59 133 -134 133z" />
    <glyph glyph-name="afii10072" unicode="&#x436;" horiz-adv-x="753" 
d="M5 0l248 233l-227 212h92l220 -203v203h76v-203l220 203h92l-227 -212l249 -233h-100l-234 223v-223h-76v223l-234 -223h-99z" />
    <glyph glyph-name="afii10073" unicode="&#x437;" horiz-adv-x="414" 
d="M169 -10c-59 0 -106 10 -143 29v65c32 -21 92 -35 137 -35c95 0 135 40 135 89c0 47 -37 71 -112 71h-64v57h58c72 0 107 27 107 64c0 36 -37 64 -109 64c-53 0 -98 -10 -134 -29v64c39 17 87 26 144 26c115 -1 174 -43 174 -116c0 -37 -28 -78 -81 -97
c63 -15 92 -56 92 -104c0 -88 -75 -148 -204 -148z" />
    <glyph glyph-name="afii10074" unicode="&#x438;" horiz-adv-x="545" 
d="M149 136l309 314h15v-450h-75v302h-3l-306 -307h-19v450h76v-309h3z" />
    <glyph glyph-name="afii10075" unicode="&#x439;" horiz-adv-x="545" 
d="M149 136l309 314h15v-450h-75v302h-3l-306 -307h-19v450h76v-309h3zM282 523c-80 0 -129 62 -132 141h52c1 -55 32 -93 80 -93c55 0 79 40 83 93h52c-4 -77 -50 -141 -135 -141z" />
    <glyph glyph-name="afii10076" unicode="&#x43a;" horiz-adv-x="491" 
d="M371 444h93l-233 -209l254 -235h-101l-238 224v-224h-76v444h76v-203z" />
    <glyph glyph-name="afii10077" unicode="&#x43b;" horiz-adv-x="499" 
d="M352 386h-157l-18 -178c-7 -63 -11 -92 -24 -132c-18 -57 -50 -78 -121 -92l-27 58c38 7 63 21 75 43c12 23 21 61 26 116l24 243h298v-444h-76v386z" />
    <glyph glyph-name="afii10078" unicode="&#x43c;" horiz-adv-x="683" 
d="M536 298l-181 -208h-16l-194 210v-300h-75v448h20l257 -276l243 276h22v-448h-76v298z" />
    <glyph glyph-name="afii10079" unicode="&#x43d;" horiz-adv-x="541" 
d="M470 445v-445h-76v204h-248v-204h-76v445h76v-182h248v182h76z" />
    <glyph glyph-name="afii10080" unicode="&#x43e;" horiz-adv-x="562" 
d="M282 456c68 0 124 -22 168 -67s66 -100 66 -166s-22 -121 -67 -166c-44 -45 -100 -67 -167 -67c-72 0 -129 22 -172 66s-64 100 -64 167c0 65 23 120 68 165s101 68 168 68zM123 224c0 -100 60 -171 159 -171c49 0 87 16 116 49s43 74 43 122c0 47 -15 87 -44 120
s-68 49 -115 49s-86 -16 -115 -49s-44 -73 -44 -120z" />
    <glyph glyph-name="afii10081" unicode="&#x43f;" horiz-adv-x="542" 
d="M471 445v-445h-77v380h-248v-380h-76v445h401z" />
    <glyph glyph-name="afii10082" unicode="&#x440;" horiz-adv-x="579" 
d="M135 224c0 -48 14 -88 43 -121c29 -32 68 -48 117 -48s88 16 115 49s41 73 41 122c0 99 -61 168 -158 168c-45 0 -83 -17 -113 -50s-45 -73 -45 -120zM138 52l-4 -1v-266h-72v661h53l13 -65h4c36 51 102 77 169 77s121 -21 162 -63c41 -41 62 -97 62 -166
c0 -68 -21 -125 -63 -170s-96 -68 -162 -68c-69 0 -123 20 -162 61z" />
    <glyph glyph-name="afii10083" unicode="&#x441;" horiz-adv-x="434" 
d="M278 456c44 0 82 -7 113 -20v-68c-28 17 -62 26 -102 26c-47 0 -87 -16 -119 -48c-31 -31 -47 -74 -47 -127c0 -100 64 -166 165 -166c48 0 88 11 120 33v-67c-33 -19 -79 -29 -136 -29c-72 0 -128 21 -167 64s-59 97 -59 164c0 68 22 125 66 170s99 68 166 68z" />
    <glyph glyph-name="afii10084" unicode="&#x442;" horiz-adv-x="443" 
d="M259 385v-385h-75v385h-175v59h424v-59h-174z" />
    <glyph glyph-name="afii10085" unicode="&#x443;" horiz-adv-x="452" 
d="M87 445l136 -344h5l140 344h74l-276 -660h-74l98 233l-180 427h77z" />
    <glyph glyph-name="afii10086" unicode="&#x444;" horiz-adv-x="686" 
d="M304 453v258h74v-257c83 -4 148 -27 196 -69c48 -41 72 -96 72 -163s-25 -122 -75 -166c-49 -43 -114 -66 -193 -68v-102c1 -45 1 -79 1 -101h-75v203c-80 3 -144 26 -193 69c-48 43 -72 98 -72 165c0 66 24 120 72 161s112 65 193 70zM570 222c0 100 -75 169 -191 173
v-349c57 2 103 20 138 53s53 74 53 123zM305 46v348c-54 -1 -99 -18 -136 -50c-36 -32 -54 -73 -54 -122s17 -91 52 -124s81 -50 138 -52z" />
    <glyph glyph-name="afii10087" unicode="&#x445;" horiz-adv-x="467" 
d="M457 0h-83l-140 215l-144 -215h-81l154 228l-145 217h81l135 -204l134 204h81l-146 -216z" />
    <glyph glyph-name="afii10088" unicode="&#x446;" horiz-adv-x="565" 
d="M394 64v381h77v-381h77v-188h-71v124h-407v445h76v-381h248z" />
    <glyph glyph-name="afii10089" unicode="&#x447;" horiz-adv-x="519" 
d="M448 0h-77v205c0 1 0 1 -1 1c-41 -37 -94 -56 -159 -56c-103 0 -155 54 -155 163v132h76v-116c0 -84 41 -115 113 -115c43 0 95 21 126 53v178h77v-445z" />
    <glyph glyph-name="afii10090" unicode="&#x448;" horiz-adv-x="805" 
d="M147 64h214v380h75v-380h221v381h77v-445h-664v445h77v-381z" />
    <glyph glyph-name="afii10091" unicode="&#x449;" horiz-adv-x="825" 
d="M147 64h214v380h75v-380h221v381h77v-381h77v-188h-71v124h-670v445h77v-381z" />
    <glyph glyph-name="afii10092" unicode="&#x44a;" horiz-adv-x="649" 
d="M444 0h-241v386h-203v59h279v-146h156c109 0 172 -62 172 -149c0 -93 -67 -150 -163 -150zM421 244h-142v-188h150c60 0 103 35 103 94s-47 94 -111 94z" />
    <glyph glyph-name="afii10093" unicode="&#x44b;" horiz-adv-x="693" 
d="M312 0h-242v445h77v-146h156c109 0 172 -62 172 -149c0 -93 -67 -150 -163 -150zM289 244h-142v-188h150c60 0 103 35 103 94s-47 94 -111 94zM622 445v-445h-76v445h76z" />
    <glyph glyph-name="afii10094" unicode="&#x44c;" horiz-adv-x="517" 
d="M312 0h-242v445h77v-146h156c109 0 172 -62 172 -149c0 -93 -67 -150 -163 -150zM289 244h-142v-188h150c60 0 103 35 103 94s-47 94 -111 94z" />
    <glyph glyph-name="afii10095" unicode="&#x44d;" horiz-adv-x="434" 
d="M310 198h-201v58h199c-5 87 -67 136 -148 136c-43 0 -82 -9 -117 -28v65c41 19 84 28 127 28c63 0 115 -21 156 -62s62 -98 62 -171c0 -69 -20 -125 -59 -169c-39 -43 -94 -65 -167 -65c-57 0 -103 10 -136 29v67c32 -22 74 -33 126 -33c96 0 155 60 158 145z" />
    <glyph glyph-name="afii10096" unicode="&#x44e;" horiz-adv-x="773" 
d="M146 211v-211h-75v444h75v-182h127c9 55 34 101 76 138s93 55 152 55c69 0 125 -22 166 -67c42 -44 63 -99 63 -166c0 -66 -21 -121 -64 -166c-43 -44 -98 -66 -165 -66c-69 0 -124 21 -166 62c-42 42 -64 95 -65 159h-124zM346 222c0 -49 14 -90 41 -123
c28 -32 66 -48 115 -48c47 0 84 16 112 49s42 74 42 122s-14 88 -42 121s-65 50 -112 50s-84 -17 -113 -50s-43 -73 -43 -121z" />
    <glyph glyph-name="afii10097" unicode="&#x44f;" horiz-adv-x="479" 
d="M106 0h-89l157 169c-77 16 -123 71 -123 134c0 45 16 79 47 104c32 25 72 38 119 38h191v-445h-75v387h-102c-69 0 -104 -30 -104 -90c0 -49 53 -92 149 -93v-14z" />
    <glyph glyph-name="afii10071" unicode="&#x451;" horiz-adv-x="520" 
d="M266 456c64 0 114 -22 151 -65s56 -97 56 -163c0 -9 0 -16 -1 -20h-348c1 -49 17 -88 48 -116s68 -42 113 -42c63 0 119 19 168 56v-67c-45 -33 -102 -49 -169 -49c-74 0 -132 21 -175 64c-42 43 -63 99 -63 170c0 65 21 120 62 165c42 45 95 67 158 67zM268 395
c-77 0 -132 -53 -143 -133h277c-11 81 -59 133 -134 133zM227 596c0 -25 -18 -43 -42 -43c-27 0 -45 18 -45 43c0 24 21 43 45 43s42 -19 42 -43zM393 596c5 -56 -91 -56 -86 0c0 24 20 43 43 43c25 0 43 -19 43 -43z" />
    <glyph glyph-name="afii10099" unicode="&#x452;" horiz-adv-x="554" 
d="M62 607v104h74v-104h195v-47h-195v-192h1c1 -1 1 -1 2 -1c38 58 95 87 170 87c117 0 199 -79 199 -243c0 -62 -17 -121 -51 -176s-79 -98 -136 -129l-52 36c64 32 111 80 132 129c23 49 31 91 31 134c0 131 -58 185 -145 185c-40 0 -75 -16 -106 -47
c-30 -31 -45 -70 -45 -116v-227h-74v560h-53v47h53z" />
    <glyph glyph-name="afii10100" unicode="&#x453;" horiz-adv-x="426" 
d="M415 386h-268v-386h-77v444h345v-58zM358 661l-124 -134h-55l108 158z" />
    <glyph glyph-name="afii10101" unicode="&#x454;" horiz-adv-x="434" 
d="M278 456c44 0 82 -7 113 -20v-68c-28 17 -62 26 -102 26c-41 0 -78 -13 -109 -39s-49 -60 -54 -102h199v-58h-201c1 -41 17 -75 47 -102c31 -27 70 -40 117 -40c48 0 88 11 120 33v-67c-33 -19 -79 -29 -136 -29c-72 0 -128 21 -167 64s-59 97 -59 164
c0 68 22 125 66 170s99 68 166 68z" />
    <glyph glyph-name="afii10102" unicode="&#x455;" horiz-adv-x="376" 
d="M24 28v68c46 -33 94 -50 144 -50c68 0 102 23 102 70c0 103 -230 84 -230 217c0 79 66 122 150 122c45 0 89 -10 132 -30v-65c-44 25 -85 38 -122 38c-57 0 -85 -21 -85 -63c0 -29 36 -52 80 -69c66 -25 148 -57 148 -143c0 -81 -67 -132 -167 -132
c-59 0 -110 12 -152 37z" />
    <glyph glyph-name="afii10103" unicode="&#x456;" horiz-adv-x="236" 
d="M155 445v-445h-76v445h76zM119 534c-28 0 -48 20 -48 47c0 25 23 48 48 48c27 0 47 -21 47 -48s-20 -47 -47 -47z" />
    <glyph glyph-name="afii10104" unicode="&#x457;" horiz-adv-x="236" 
d="M79 589c0 -25 -18 -43 -42 -43c-27 0 -45 18 -45 43c0 24 21 43 45 43s42 -19 42 -43zM245 589c5 -56 -91 -56 -86 0c0 24 20 43 43 43c25 0 43 -19 43 -43zM155 445v-445h-76v445h76z" />
    <glyph glyph-name="afii10105" unicode="&#x458;" horiz-adv-x="221" 
d="M112 534c-28 0 -48 20 -48 47c0 25 23 47 48 47c27 0 47 -20 47 -47s-20 -47 -47 -47zM-20 -228l-31 65c92 4 124 49 124 146v462h75v-465c0 -139 -64 -201 -168 -208z" />
    <glyph glyph-name="afii10106" unicode="&#x459;" horiz-adv-x="791" 
d="M587 0h-240v386h-152l-18 -178c-7 -63 -11 -92 -24 -132c-18 -57 -50 -78 -121 -92l-27 58c38 7 63 21 75 43c12 23 21 61 26 116l24 243h293v-149h155c109 0 171 -61 171 -148c0 -92 -67 -147 -162 -147zM565 240h-142v-185h150c59 0 101 35 101 92c0 59 -46 93 -109 93
z" />
    <glyph glyph-name="afii10107" unicode="&#x45a;" horiz-adv-x="802" 
d="M368 220h-222v-220h-76v444h76v-169h222v169h75v-168h146c111 0 171 -54 171 -138c0 -91 -65 -138 -161 -138h-231v220zM576 220h-133v-165h141c69 0 103 28 103 83c0 56 -46 82 -111 82z" />
    <glyph glyph-name="afii10108" unicode="&#x45b;" horiz-adv-x="529" 
d="M459 270v-270h-76v264c0 81 -38 127 -106 127c-81 0 -140 -55 -140 -162v-229h-77v559h-49v47h49v105h74v-105h185v-47h-185v-178h3c40 49 91 73 153 73c107 0 169 -69 169 -184z" />
    <glyph glyph-name="afii10109" unicode="&#x45c;" horiz-adv-x="491" 
d="M371 444h93l-233 -209l254 -235h-101l-238 224v-224h-76v444h76v-203zM366 661l-124 -134h-55l108 158z" />
    <glyph glyph-name="afii10110" unicode="&#x45e;" horiz-adv-x="452" 
d="M87 445l136 -344h5l140 344h74l-276 -660h-74l98 233l-180 427h77zM235 532c-80 0 -129 62 -132 141h52c1 -55 32 -93 80 -93c55 0 79 40 83 93h52c-4 -77 -50 -141 -135 -141z" />
    <glyph glyph-name="afii10193" unicode="&#x45f;" horiz-adv-x="545" 
d="M395 64v381h77v-445h-163v-133h-72v133h-165v445h76v-381h247z" />
    <glyph glyph-name="afii10050" unicode="&#x490;" horiz-adv-x="524" 
d="M510 595h-349v-595h-81v661h362v113h68v-179z" />
    <glyph glyph-name="afii10098" unicode="&#x491;" horiz-adv-x="430" 
d="M416 385h-269v-385h-77v444h284v110h62v-169z" />
    <glyph glyph-name="schwacyrillic" unicode="&#x4d9;" horiz-adv-x="527" 
d="M260 -10c-65 0 -116 21 -153 64s-55 98 -55 164c0 9 0 16 1 21h349c-3 100 -62 157 -157 157c-59 0 -115 -18 -167 -54v64c46 33 104 50 175 50c145 0 226 -91 226 -234c0 -65 -21 -120 -62 -165s-94 -67 -157 -67zM258 52c80 0 135 55 143 139h-278
c8 -85 58 -139 135 -139z" />
    <glyph glyph-name="Wgrave" unicode="&#x1e80;" horiz-adv-x="904" 
d="M630 -5l-177 488h-3l-178 -488h-15l-248 664h81l178 -475h2l174 481h15l177 -481h2l176 475h80l-249 -664h-15zM374 875l124 -146h-59l-140 121z" />
    <glyph glyph-name="wgrave" unicode="&#x1e81;" horiz-adv-x="718" 
d="M214 142l141 309h11l143 -309h4l121 303h75l-188 -453h-14l-147 321h-2l-145 -321h-15l-186 453h78l121 -303h3zM296 685l107 -158h-54l-125 134z" />
    <glyph glyph-name="Wacute" unicode="&#x1e82;" horiz-adv-x="904" 
d="M630 -5l-177 488h-3l-178 -488h-15l-248 664h81l178 -475h2l174 481h15l177 -481h2l176 475h80l-249 -664h-15zM606 850l-140 -121h-60l124 146z" />
    <glyph glyph-name="wacute" unicode="&#x1e83;" horiz-adv-x="718" 
d="M214 142l141 309h11l143 -309h4l121 303h75l-188 -453h-14l-147 321h-2l-145 -321h-15l-186 453h78l121 -303h3zM494 661l-124 -134h-55l108 158z" />
    <glyph glyph-name="Wdieresis" unicode="&#x1e84;" horiz-adv-x="904" 
d="M630 -5l-177 488h-3l-178 -488h-15l-248 664h81l178 -475h2l174 481h15l177 -481h2l176 475h80l-249 -664h-15zM411 795c0 -39 -46 -59 -75 -32c-25 27 -6 75 32 75c25 0 43 -19 43 -43zM577 795c0 -38 -47 -59 -74 -32c-25 27 -6 75 31 75c25 0 43 -19 43 -43z" />
    <glyph glyph-name="wdieresis" unicode="&#x1e85;" horiz-adv-x="718" 
d="M214 142l141 309h11l143 -309h4l121 303h75l-188 -453h-14l-147 321h-2l-145 -321h-15l-186 453h78l121 -303h3zM318 572c0 -25 -18 -43 -42 -43c-27 0 -45 18 -45 43c0 24 21 43 45 43s42 -19 42 -43zM484 572c5 -56 -91 -56 -86 0c0 24 20 43 43 43c25 0 43 -19 43 -43
z" />
    <glyph glyph-name="Ygrave" unicode="&#x1ef2;" horiz-adv-x="557" 
d="M211 476l75 -120h4l68 119l105 186h85l-221 -375v-286h-80v286l-238 375h89zM220 875l124 -146h-59l-140 121z" />
    <glyph glyph-name="ygrave" unicode="&#x1ef3;" horiz-adv-x="452" 
d="M87 445l136 -344h5l140 344h74l-276 -660h-74l98 233l-180 427h77zM167 685l107 -158h-54l-125 134z" />
    <glyph glyph-name="endash" unicode="&#x2013;" horiz-adv-x="560" 
d="M528 211h-497v60h497v-60z" />
    <glyph glyph-name="emdash" unicode="&#x2014;" horiz-adv-x="825" 
d="M792 211h-758v60h758v-60z" />
    <glyph glyph-name="afii00208" unicode="&#x2015;" horiz-adv-x="825" 
d="M792 211h-758v60h758v-60z" />
    <glyph glyph-name="quoteleft" unicode="&#x2018;" horiz-adv-x="201" 
d="M152 510c0 -28 -24 -51 -51 -51c-28 0 -50 21 -50 50c0 37 24 95 72 174l38 -6l-41 -121c21 -7 32 -23 32 -46z" />
    <glyph glyph-name="quoteright" unicode="&#x2019;" horiz-adv-x="201" 
d="M56 631c0 28 23 51 51 51s50 -21 50 -50c0 -37 -24 -95 -72 -174l-38 6l40 122c-21 7 -31 22 -31 45z" />
    <glyph glyph-name="quotesinglbase" unicode="&#x201a;" horiz-adv-x="218" 
d="M63 43c0 28 22 51 50 51s49 -21 49 -50c0 -19 -8 -46 -24 -83c-15 -37 -31 -70 -48 -97l-38 6l40 129c-19 7 -29 22 -29 44z" />
    <glyph glyph-name="quotedblleft" unicode="&#x201c;" horiz-adv-x="328" 
d="M153 510c0 -28 -23 -51 -50 -51c-29 0 -51 21 -51 50c0 36 24 94 73 174l38 -6l-41 -121c21 -7 31 -23 31 -46zM274 510c0 -28 -23 -51 -51 -51s-50 21 -50 50c0 37 24 95 72 174l38 -6l-40 -121c21 -7 31 -23 31 -46z" />
    <glyph glyph-name="quotedblright" unicode="&#x201d;" horiz-adv-x="328" 
d="M176 631c0 28 24 51 51 51c28 0 51 -21 51 -50c0 -36 -24 -94 -73 -174l-38 6l41 122c-21 7 -32 22 -32 45zM56 631c0 28 23 51 51 51s50 -21 50 -50c0 -34 -24 -92 -72 -174l-38 6l40 122c-21 7 -31 22 -31 45z" />
    <glyph glyph-name="quotedblbase" unicode="&#x201e;" horiz-adv-x="336" 
d="M59 43c0 28 22 51 50 51s49 -21 49 -50c0 -19 -8 -46 -24 -83c-15 -37 -31 -70 -48 -97l-38 6l40 129c-19 7 -29 22 -29 44zM183 43c0 28 22 51 50 51s49 -21 49 -50c0 -19 -8 -46 -24 -83c-15 -37 -31 -70 -48 -97l-38 6l40 129c-19 7 -29 22 -29 44z" />
    <glyph glyph-name="dagger" unicode="&#x2020;" horiz-adv-x="524" 
d="M223 430h-164v66h163v189h78v-189h164v-66h-163v-539h-78v539z" />
    <glyph glyph-name="daggerdbl" unicode="&#x2021;" horiz-adv-x="524" 
d="M222 432h-164v65h163v188h78v-188h165v-65h-164v-227h164v-66h-164v-248h-78v248h-164v66h164v227z" />
    <glyph glyph-name="bullet" unicode="&#x2022;" horiz-adv-x="472" 
d="M119 236c0 32 11 59 34 82s50 35 83 35s60 -12 83 -35s35 -50 35 -82c0 -65 -53 -117 -118 -117s-117 52 -117 117z" />
    <glyph glyph-name="trianglebullet" unicode="&#x2023;" horiz-adv-x="506" 
d="M86 68v408l390 -199z" />
    <glyph glyph-name="ellipsis" unicode="&#x2026;" horiz-adv-x="627" 
d="M110 -9c-29 0 -53 23 -53 52s24 52 53 52s52 -23 52 -52s-24 -52 -52 -52zM316 -9c-29 0 -53 23 -53 52s24 52 52 52c29 0 53 -23 53 -52s-24 -52 -52 -52zM558 80c21 -20 21 -54 0 -74c-20 -20 -54 -20 -74 0s-20 54 0 74s54 20 74 0z" />
    <glyph glyph-name="perthousand" unicode="&#x2030;" horiz-adv-x="1094" 
d="M586 682h56l-499 -703h-56zM194 672c45 0 83 -15 112 -45s44 -67 44 -112c0 -44 -15 -81 -45 -112c-29 -30 -66 -45 -111 -45c-97 0 -159 66 -159 157c0 44 15 81 46 111c31 31 68 46 113 46zM194 618c-57 0 -97 -46 -97 -103c0 -60 37 -104 97 -104c56 0 95 47 95 104
c0 56 -40 103 -95 103zM702 150c0 -44 -15 -81 -45 -112c-30 -30 -67 -45 -112 -45c-97 0 -158 64 -158 155c0 45 15 82 45 113s68 46 113 46s83 -15 112 -45c30 -30 45 -67 45 -112zM545 253c-55 0 -96 -46 -96 -103c0 -60 37 -104 96 -104c57 0 96 47 96 104
s-40 103 -96 103zM1064 150c0 -44 -15 -81 -45 -112c-30 -30 -67 -45 -112 -45c-97 0 -158 64 -158 155c0 45 15 82 45 113s68 46 113 46s83 -15 112 -45c30 -30 45 -67 45 -112zM811 150c0 -60 37 -104 96 -104c57 0 95 45 95 104c0 56 -39 103 -95 103s-96 -46 -96 -103z
" />
    <glyph glyph-name="guilsinglleft" unicode="&#x2039;" horiz-adv-x="289" 
d="M253 385l-137 -182l137 -188h-78l-133 181v9l135 180h76z" />
    <glyph glyph-name="guilsinglright" unicode="&#x203a;" horiz-adv-x="289" 
d="M119 15h-78l136 188l-136 182h75l135 -180v-9z" />
    <glyph glyph-name="fraction" unicode="&#x2044;" horiz-adv-x="107" 
d="M272 682h56l-499 -703h-56z" />
    <glyph glyph-name="fraction" unicode="&#x2215;" horiz-adv-x="107" 
d="M272 682h56l-499 -703h-56z" />
    <glyph glyph-name="zerosuperior" unicode="&#x2070;" horiz-adv-x="346" 
d="M317 580c0 -85 -28 -197 -144 -197c-96 0 -144 66 -144 197c0 48 8 90 27 131c20 41 62 68 118 68s96 -25 115 -68c20 -41 28 -83 28 -131zM254 580c0 99 -27 149 -80 149c-55 0 -83 -50 -83 -149c0 -98 28 -147 83 -147c53 0 80 49 80 147z" />
    <glyph glyph-name="foursuperior" unicode="&#x2074;" horiz-adv-x="346" 
d="M13 494l196 279h63l-178 -247h126v66l44 61h14v-127h55v-47h-55v-89h-58v89h-207v15z" />
    <glyph glyph-name="fivesuperior" unicode="&#x2075;" horiz-adv-x="346" 
d="M168 635c80 0 143 -44 143 -124c0 -39 -15 -71 -44 -94s-65 -34 -107 -34c-49 0 -90 12 -125 35v64c29 -29 79 -50 122 -50c55 0 95 35 95 80c0 48 -40 75 -95 75c-36 0 -68 -8 -95 -25l-9 4l24 207h214v-47h-166c-1 -11 -2 -27 -5 -49l-6 -49c13 5 31 7 54 7z" />
    <glyph glyph-name="sixsuperior" unicode="&#x2076;" horiz-adv-x="346" 
d="M319 510c0 -75 -62 -127 -149 -127c-91 0 -145 50 -145 123c0 32 19 77 57 136l84 131h67l-94 -143c11 3 27 4 48 4c37 0 69 -12 94 -37s38 -54 38 -87zM170 587c-47 0 -82 -35 -82 -78c0 -45 31 -76 82 -76s87 31 87 76c0 43 -38 78 -87 78z" />
    <glyph glyph-name="sevensuperior" unicode="&#x2077;" horiz-adv-x="331" 
d="M298 763l-180 -375h-62l162 337h-196v48h276v-10z" />
    <glyph glyph-name="eightsuperior" unicode="&#x2078;" horiz-adv-x="346" 
d="M237 670c0 33 -29 59 -65 59c-37 0 -64 -26 -64 -59c0 -32 26 -57 65 -57c36 0 64 25 64 57zM250 500c0 40 -35 69 -76 69c-44 0 -79 -29 -79 -69c0 -37 31 -67 79 -67c45 0 76 30 76 67zM297 670c0 -31 -15 -57 -45 -78c40 -20 60 -51 60 -92c0 -69 -57 -117 -138 -117
c-85 0 -141 45 -141 116c0 33 25 72 57 92c-28 21 -42 47 -42 79c0 64 54 109 126 109c71 0 123 -45 123 -109z" />
    <glyph glyph-name="ninesuperior" unicode="&#x2079;" horiz-adv-x="346" 
d="M26 652c0 37 14 67 42 91c29 24 65 36 108 36c88 0 143 -54 143 -123c0 -20 -4 -39 -13 -58c-8 -18 -23 -44 -44 -79l-83 -131h-68l89 142c-10 -2 -20 -3 -29 -3c-85 0 -145 48 -145 125zM175 575c47 0 82 34 82 77c0 45 -33 77 -82 77c-51 0 -88 -32 -88 -77
c0 -44 35 -77 88 -77z" />
    <glyph glyph-name="plussuperior" unicode="&#x207a;" horiz-adv-x="357" 
d="M159 517h-107v39h107v97h43v-97h106v-39h-106v-99h-43v99z" />
    <glyph glyph-name="hyphensuperior" unicode="&#x207b;" horiz-adv-x="256" 
d="M223 501h-190v43h190v-43z" />
    <glyph glyph-name="equalsuperior" unicode="&#x207c;" horiz-adv-x="357" 
d="M309 560h-263v38h263v-38zM309 473h-263v38h263v-38z" />
    <glyph glyph-name="parenleftsuperior" unicode="&#x207d;" horiz-adv-x="195" 
d="M145 831l35 -12c-39 -49 -81 -138 -81 -245c0 -95 27 -181 81 -258c-9 -3 -28 -11 -35 -14c-26 27 -50 64 -72 111c-21 47 -32 100 -32 161c0 55 11 104 32 149c22 45 46 81 72 108z" />
    <glyph glyph-name="parenrightsuperior" unicode="&#x207e;" horiz-adv-x="195" 
d="M13 818l35 12c26 -27 50 -63 71 -108c22 -45 33 -94 33 -149c0 -61 -11 -114 -33 -161c-21 -47 -45 -84 -71 -111l-35 14c53 76 80 162 80 258c0 53 -9 101 -26 144s-35 77 -54 101z" />
    <glyph glyph-name="nsuperior" unicode="&#x207f;" horiz-adv-x="364" 
d="M102 300h-60v295h47l11 -46c26 34 62 51 107 51c75 0 113 -40 113 -121v-179h-59v171c0 48 -25 79 -68 79c-49 0 -91 -41 -91 -117v-133z" />
    <glyph glyph-name="zeroinferior" unicode="&#x2080;" horiz-adv-x="346" 
d="M317 100c0 -85 -28 -197 -144 -197c-96 0 -144 66 -144 197c0 48 8 90 27 131c20 41 62 68 118 68s96 -25 115 -68c20 -41 28 -83 28 -131zM254 100c0 99 -27 149 -80 149c-55 0 -83 -50 -83 -149c0 -98 28 -147 83 -147c53 0 80 49 80 147z" />
    <glyph glyph-name="oneinferior" unicode="&#x2081;" horiz-adv-x="298" 
d="M193 298h10v-389h-58v304c-10 -6 -26 -15 -49 -26l-49 -25v56z" />
    <glyph glyph-name="twoinferior" unicode="&#x2082;" horiz-adv-x="346" 
d="M107 148c-24 4 -44 7 -59 8c-3 7 -4 19 -4 35c0 64 59 108 131 108c75 0 133 -38 133 -106c0 -119 -196 -123 -210 -238h214v-47h-281c-1 5 -1 11 -1 19c0 45 11 80 39 108c15 15 28 26 40 35s29 20 51 34c41 24 66 43 76 58c7 10 10 20 10 29c0 39 -30 58 -73 58
s-72 -28 -72 -67c0 -4 2 -15 6 -34z" />
    <glyph glyph-name="threeinferior" unicode="&#x2083;" horiz-adv-x="346" 
d="M104 109l-7 11l111 126h-161v48h259v-10l-123 -132c76 -3 127 -53 127 -121c0 -38 -15 -69 -44 -92c-29 -24 -65 -36 -108 -36c-49 0 -92 12 -127 35v63c40 -33 82 -49 125 -49c56 0 93 34 93 79c0 56 -41 82 -101 82c-17 0 -31 -1 -44 -4z" />
    <glyph glyph-name="fourinferior" unicode="&#x2084;" horiz-adv-x="346" 
d="M13 14l196 279h63l-178 -247h126v66l44 61h14v-127h55v-47h-55v-89h-58v89h-207v15z" />
    <glyph glyph-name="fiveinferior" unicode="&#x2085;" horiz-adv-x="346" 
d="M168 155c80 0 143 -44 143 -124c0 -79 -66 -127 -151 -127c-50 0 -92 11 -125 34v64c29 -29 79 -50 122 -50c55 0 95 35 95 80c0 48 -40 75 -95 75c-36 0 -68 -8 -95 -25l-9 4l24 207h214v-47h-166c-1 -11 -2 -27 -5 -49l-6 -49c13 5 31 7 54 7z" />
    <glyph glyph-name="sixinferior" unicode="&#x2086;" horiz-adv-x="346" 
d="M319 30c0 -75 -62 -126 -149 -126c-91 0 -145 49 -145 122c0 32 19 77 57 136l84 131h67l-94 -143c11 3 27 4 48 4c37 0 69 -12 94 -37s38 -54 38 -87zM170 107c-47 0 -82 -35 -82 -78c0 -45 31 -76 82 -76s87 31 87 76c0 43 -38 78 -87 78z" />
    <glyph glyph-name="seveninferior" unicode="&#x2087;" horiz-adv-x="331" 
d="M298 283l-180 -375h-62l162 337h-196v48h276v-10z" />
    <glyph glyph-name="eightinferior" unicode="&#x2088;" horiz-adv-x="346" 
d="M237 190c0 33 -29 59 -65 59c-37 0 -64 -26 -64 -59c0 -32 26 -57 65 -57c36 0 64 25 64 57zM250 20c0 40 -35 69 -76 69c-44 0 -79 -29 -79 -69c0 -37 31 -67 79 -67c45 0 76 30 76 67zM297 190c0 -31 -15 -57 -45 -78c40 -20 60 -51 60 -92c0 -69 -57 -117 -138 -117
c-85 0 -141 45 -141 116c0 33 25 72 57 92c-28 21 -42 47 -42 79c0 64 54 109 126 109c71 0 123 -45 123 -109z" />
    <glyph glyph-name="nineinferior" unicode="&#x2089;" horiz-adv-x="346" 
d="M26 172c0 37 14 67 42 91c29 24 65 36 108 36c88 0 143 -54 143 -123c0 -20 -4 -39 -13 -58c-8 -18 -23 -44 -44 -79l-83 -130h-68l89 141c-10 -2 -20 -3 -29 -3c-85 0 -145 48 -145 125zM175 95c47 0 82 34 82 77c0 45 -33 77 -82 77c-51 0 -88 -32 -88 -77
c0 -44 35 -77 88 -77z" />
    <glyph glyph-name="plusinferior" unicode="&#x208a;" horiz-adv-x="357" 
d="M159 60h-107v38h107v96h43v-96h106v-38h-106v-99h-43v99z" />
    <glyph glyph-name="hypheninferior" unicode="&#x208b;" horiz-adv-x="256" 
d="M223 42h-190v44h190v-44z" />
    <glyph glyph-name="equalinferior" unicode="&#x208c;" horiz-adv-x="357" 
d="M309 102h-263v38h263v-38zM309 14h-263v39h263v-39z" />
    <glyph glyph-name="parenleftinferior" unicode="&#x208d;" horiz-adv-x="195" 
d="M145 372l36 -12c-39 -49 -81 -138 -81 -245c0 -91 27 -177 80 -257l-35 -14c-52 57 -103 150 -103 271c0 111 51 202 103 257z" />
    <glyph glyph-name="parenrightinferior" unicode="&#x208e;" horiz-adv-x="195" 
d="M13 359l36 12c52 -55 103 -146 103 -257c0 -105 -34 -195 -103 -271l-35 14c53 80 80 166 80 257c0 107 -42 196 -81 245z" />
    <glyph glyph-name="Euro" unicode="&#x20ac;" horiz-adv-x="548" 
d="M444 404v-41h-408v41h50c14 78 46 141 96 190c51 49 117 74 198 74c38 0 77 -6 116 -18v-67c-39 12 -77 18 -114 18c-115 0 -195 -72 -219 -197h281zM36 269v41h408v-41h-284c17 -124 91 -210 215 -210c49 0 95 9 138 27v-66c-42 -17 -88 -26 -138 -26
c-80 0 -147 24 -200 72s-83 116 -92 203h-47z" />
    <glyph glyph-name="centigrade" unicode="&#x2103;" horiz-adv-x="876" 
d="M170 441c-73 0 -120 50 -120 119c0 33 12 62 35 85c24 24 52 36 85 36c71 0 123 -53 123 -121s-52 -119 -123 -119zM170 637c-41 0 -73 -36 -73 -77s30 -77 73 -77c47 0 78 36 78 77s-33 77 -78 77zM849 110v-74c-51 -31 -115 -46 -194 -46c-107 0 -190 31 -250 94
s-90 144 -90 243s33 181 98 247s147 99 246 99c71 0 126 -10 165 -30v-74c-47 23 -99 35 -156 35c-77 0 -141 -25 -193 -75c-51 -50 -77 -117 -77 -202c0 -81 23 -146 70 -195s112 -73 195 -73c63 0 125 17 186 51z" />
    <glyph glyph-name="fahrenheit" unicode="&#x2109;" horiz-adv-x="816" 
d="M166 441c-73 0 -120 50 -120 119c0 33 12 62 35 85c24 24 52 36 85 36c71 0 123 -53 123 -121s-52 -119 -123 -119zM166 637c-41 0 -73 -36 -73 -77s30 -77 73 -77c47 0 78 36 78 77s-33 77 -78 77zM456 293v-293h-81v661h425v-67h-344v-234h312v-67h-312z" />
    <glyph glyph-name="afii61289" unicode="&#x2113;" horiz-adv-x="508" 
d="M74 175l-25 44l76 56v206c0 148 60 215 149 215c67 0 114 -38 114 -121c0 -99 -68 -207 -203 -325v-77c0 -85 31 -127 94 -127c44 0 92 36 128 104c9 -5 34 -20 45 -25c-45 -89 -104 -134 -177 -134c-116 0 -149 77 -149 220c-17 -13 -35 -25 -52 -36zM185 477l3 -151
c97 93 145 177 145 251c0 39 -22 69 -62 69c-47 0 -86 -54 -86 -169z" />
    <glyph glyph-name="afii61352" unicode="&#x2116;" horiz-adv-x="1048" 
d="M993 311v-53h-313v53h313zM159 504v-504h-79v669h21l425 -508h4v500h79v-666h-21l-426 509h-3zM833 674c47 0 86 -15 116 -45c30 -29 45 -66 45 -111c0 -43 -15 -80 -46 -110c-31 -29 -69 -44 -115 -44c-100 0 -163 65 -163 154c0 44 16 81 47 111c32 30 71 45 116 45z
M735 519c0 -60 37 -105 98 -105c60 0 98 46 98 105c0 57 -39 103 -98 103s-98 -46 -98 -103z" />
    <glyph glyph-name="published" unicode="&#x2117;" horiz-adv-x="829" 
d="M622 415c0 -47 -16 -84 -49 -113c-32 -29 -71 -43 -117 -43h-102v-146h-64v457h165c53 0 94 -15 123 -46c29 -30 44 -66 44 -109zM558 415c0 56 -40 106 -115 106h-89v-214h95c72 0 109 51 109 108zM416 -17c-109 0 -197 34 -262 103s-98 158 -98 267
c0 106 35 194 105 263s155 104 255 104c99 0 184 -35 253 -104c70 -69 105 -157 105 -263s-35 -194 -105 -265c-69 -70 -154 -105 -253 -105zM107 353c0 -93 27 -170 82 -231c55 -60 128 -90 218 -90c87 0 161 31 222 93c62 62 93 138 93 228c0 89 -30 164 -89 225
s-131 92 -217 92s-159 -31 -219 -92s-90 -136 -90 -225z" />
    <glyph glyph-name="trademark" unicode="&#x2122;" horiz-adv-x="750" 
d="M343 672l156 -189l7 3l151 186h12v-364h-55v233h-3l-105 -131h-11l-105 129h-3v-231h-57v364h13zM300 627h-104v-319h-56v319h-108v45h268v-45z" />
    <glyph glyph-name="Ohm" unicode="&#x2126;" horiz-adv-x="783" 
d="M394 603c-79 0 -143 -26 -192 -79s-73 -118 -73 -196c0 -63 16 -126 48 -187s78 -103 137 -128v-13h-269v67h114c0 1 1 3 1 4c-73 63 -111 157 -111 256s33 182 98 247c66 66 148 99 247 99c97 0 178 -33 242 -98s96 -145 96 -240c0 -109 -37 -197 -111 -264
c1 -1 1 -2 1 -4h114v-67h-268v13c41 17 77 43 106 80c59 73 80 154 80 234c0 75 -23 139 -70 194s-110 82 -190 82z" />
    <glyph glyph-name="angstrom" unicode="&#x212b;" horiz-adv-x="624" 
d="M611 0h-82l-63 149h-311l-62 -149h-79l292 667h15zM313 510h-4l-129 -302h262zM311 680c-57 0 -94 39 -94 91c0 53 42 95 94 95c55 0 96 -40 96 -95c0 -51 -41 -91 -96 -91zM311 825c-28 0 -50 -25 -50 -54c0 -28 19 -50 50 -50s51 23 51 50c0 29 -20 54 -51 54z" />
    <glyph glyph-name="estimated" unicode="&#x212e;" horiz-adv-x="817" 
d="M759 318h-568v-190c22 -34 53 -62 93 -84c41 -21 82 -32 125 -32c85 0 171 44 227 112h52c-72 -84 -173 -135 -280 -135c-96 0 -178 33 -247 100s-103 147 -103 240c0 91 34 169 103 234s151 97 247 97c98 0 181 -33 248 -98c68 -65 102 -147 103 -244zM191 338h433v190
c-20 33 -50 59 -91 79c-41 21 -82 31 -124 31c-75 0 -157 -44 -218 -113v-187z" />
    <glyph glyph-name="onethird" unicode="&#x2153;" horiz-adv-x="768" 
d="M562 682h56l-499 -703h-56zM211 689h10v-391h-58v305c-11 -6 -27 -15 -50 -26s-39 -19 -49 -25v56zM516 199l-7 11l111 126h-161v48h259v-10l-123 -132c76 -3 127 -53 127 -121c0 -38 -15 -69 -44 -93c-29 -23 -65 -35 -108 -35c-49 0 -92 12 -127 35v63
c40 -33 82 -49 125 -49c56 0 93 34 93 79c0 56 -41 82 -101 82c-17 0 -31 -1 -44 -4z" />
    <glyph glyph-name="twothirds" unicode="&#x2154;" horiz-adv-x="768" 
d="M100 538c-24 4 -44 7 -59 8c-3 7 -4 19 -4 35c0 64 59 108 131 108c75 0 133 -38 133 -106c0 -119 -196 -123 -210 -238h214v-47h-281c-1 5 -1 11 -1 19c0 45 11 80 39 108c15 15 28 26 40 35s29 20 51 34c41 24 66 43 76 58c7 10 10 20 10 29c0 39 -30 58 -73 58
s-72 -28 -72 -67c0 -4 2 -15 6 -34zM536 199l-7 11l111 126h-161v48h259v-10l-123 -132c76 -3 127 -53 127 -121c0 -38 -15 -69 -44 -93c-29 -23 -65 -35 -108 -35c-49 0 -92 12 -127 35v63c40 -33 82 -49 125 -49c56 0 93 34 93 79c0 56 -41 82 -101 82
c-17 0 -31 -1 -44 -4zM607 682h56l-499 -703h-56z" />
    <glyph glyph-name="onefifth" unicode="&#x2155;" horiz-adv-x="768" 
d="M571 682h56l-499 -703h-56zM206 689h10v-391h-58v305c-11 -6 -27 -15 -50 -26s-39 -19 -49 -25v56zM577 245c80 0 143 -44 143 -124c0 -79 -66 -127 -151 -127c-50 0 -92 11 -125 34v64c29 -29 79 -50 122 -50c55 0 95 35 95 80c0 48 -40 75 -95 75c-36 0 -68 -8 -95 -25
l-9 4l24 207h214v-47h-166l-6 -49c-3 -21 -4 -38 -5 -49c13 5 31 7 54 7z" />
    <glyph glyph-name="twofifths" unicode="&#x2156;" horiz-adv-x="768" 
d="M622 682h56l-499 -703h-56zM108 538c-24 4 -44 7 -59 8c-3 7 -4 19 -4 35c0 64 59 108 131 108c75 0 133 -38 133 -106c0 -119 -196 -123 -210 -238h214v-47h-281c-1 5 -1 11 -1 19c0 45 11 80 39 108c15 15 28 26 40 35s29 20 51 34c41 24 66 43 76 58c7 10 10 20 10 29
c0 39 -30 58 -73 58s-72 -28 -72 -67c0 -4 2 -15 6 -34zM591 245c80 0 143 -44 143 -124c0 -79 -66 -127 -151 -127c-50 0 -92 11 -125 34v64c29 -29 79 -50 122 -50c55 0 95 35 95 80c0 48 -40 75 -95 75c-36 0 -68 -8 -95 -25l-9 4l24 207h214v-47h-166l-6 -49
c-3 -21 -4 -38 -5 -49c13 5 31 7 54 7z" />
    <glyph glyph-name="threefifths" unicode="&#x2157;" horiz-adv-x="768" 
d="M597 682h56l-499 -703h-56zM111 499l-7 11l112 126h-162v48h260v-10l-123 -132c76 -3 127 -53 127 -121c0 -38 -15 -69 -44 -93c-29 -23 -65 -35 -108 -35c-51 0 -93 12 -127 35v63c39 -33 81 -49 125 -49c56 0 93 34 93 79c0 56 -41 82 -101 82c-17 0 -32 -1 -45 -4z
M585 245c80 0 143 -44 143 -124c0 -79 -66 -127 -151 -127c-50 0 -92 11 -125 34v64c29 -29 79 -50 122 -50c55 0 95 35 95 80c0 48 -40 75 -95 75c-36 0 -68 -8 -95 -25l-9 4l24 207h214v-47h-166l-6 -49c-3 -21 -4 -38 -5 -49c13 5 31 7 54 7z" />
    <glyph glyph-name="fourfifths" unicode="&#x2158;" horiz-adv-x="768" 
d="M606 245c80 0 143 -44 143 -124c0 -79 -66 -127 -151 -127c-50 0 -92 11 -125 34v64c29 -29 79 -50 122 -50c55 0 95 35 95 80c0 48 -40 75 -95 75c-36 0 -68 -8 -95 -25l-9 4l24 207h214v-47h-166c-1 -11 -2 -27 -5 -49l-6 -49c13 5 31 7 54 7zM17 404l196 279h63
l-178 -247h126v66l44 61h14v-127h55v-47h-55v-89h-58v89h-207v15zM612 682h56l-499 -703h-56z" />
    <glyph glyph-name="onesixth" unicode="&#x2159;" horiz-adv-x="768" 
d="M584 682h56l-499 -703h-56zM214 689h10v-391h-58v305c-11 -6 -27 -15 -50 -26s-39 -19 -49 -25v56zM702 120c0 -75 -62 -126 -149 -126c-91 0 -145 49 -145 122c0 32 19 77 57 136l84 131h67l-94 -143c11 3 27 4 48 4c37 0 69 -12 94 -37s38 -54 38 -87zM553 197
c-47 0 -82 -35 -82 -78c0 -45 31 -76 82 -76s87 31 87 76c0 43 -38 78 -87 78z" />
    <glyph glyph-name="fivesixths" unicode="&#x215a;" horiz-adv-x="768" 
d="M170 545c80 0 143 -44 143 -124c0 -39 -15 -71 -44 -94s-65 -34 -107 -34c-49 0 -90 12 -125 35v64c29 -29 79 -50 122 -50c55 0 95 35 95 80c0 48 -40 75 -95 75c-36 0 -68 -8 -95 -25l-9 4l24 207h214v-47h-166c-1 -11 -2 -27 -5 -49l-6 -49c13 5 31 7 54 7zM731 120
c0 -75 -62 -126 -149 -126c-91 0 -145 49 -145 122c0 32 19 77 57 136l84 131h67l-94 -143c11 3 27 4 48 4c37 0 69 -12 94 -37s38 -54 38 -87zM582 197c-47 0 -82 -35 -82 -78c0 -45 31 -76 82 -76s87 31 87 76c0 43 -38 78 -87 78zM610 682h56l-499 -703h-56z" />
    <glyph glyph-name="oneeighth" unicode="&#x215b;" horiz-adv-x="768" 
d="M564 682h56l-499 -703h-56zM207 689h10v-391h-58v305c-11 -6 -27 -15 -50 -26l-49 -25v56zM630 280c0 33 -29 59 -65 59c-37 0 -64 -26 -64 -59c0 -32 26 -57 65 -57c36 0 64 25 64 57zM643 110c0 40 -35 69 -76 69c-44 0 -79 -29 -79 -69c0 -37 31 -67 79 -67
c45 0 76 30 76 67zM690 280c0 -31 -15 -57 -45 -78c40 -20 60 -51 60 -92c0 -69 -57 -117 -138 -117c-85 0 -141 45 -141 116c0 33 25 72 57 92c-28 21 -42 47 -42 79c0 64 54 109 126 109c71 0 123 -45 123 -109z" />
    <glyph glyph-name="threeeighths" unicode="&#x215c;" horiz-adv-x="768" 
d="M648 280c0 33 -29 59 -65 59c-37 0 -64 -26 -64 -59c0 -32 26 -57 65 -57c36 0 64 25 64 57zM661 110c0 40 -35 69 -76 69c-44 0 -79 -29 -79 -69c0 -37 31 -67 79 -67c45 0 76 30 76 67zM708 280c0 -31 -15 -57 -45 -78c40 -20 60 -51 60 -92c0 -69 -57 -117 -138 -117
c-85 0 -141 45 -141 116c0 33 25 72 57 92c-28 21 -42 47 -42 79c0 64 54 109 126 109c71 0 123 -45 123 -109zM117 499l-7 11l112 126h-162v48h260v-10l-123 -132c76 -3 127 -53 127 -121c0 -38 -15 -69 -44 -93c-29 -23 -65 -35 -108 -35c-51 0 -93 12 -127 35v63
c39 -33 81 -49 125 -49c56 0 93 34 93 79c0 56 -41 82 -101 82c-17 0 -32 -1 -45 -4zM596 682h56l-499 -703h-56z" />
    <glyph glyph-name="fiveeighths" unicode="&#x215d;" horiz-adv-x="768" 
d="M172 545c80 0 143 -44 143 -124c0 -39 -15 -71 -44 -94s-65 -34 -107 -34c-49 0 -90 12 -125 35v64c29 -29 79 -50 122 -50c55 0 95 35 95 80c0 48 -40 75 -95 75c-36 0 -68 -8 -95 -25l-9 4l24 207h214v-47h-166c-1 -11 -2 -27 -5 -49l-6 -49c13 5 31 7 54 7zM655 280
c0 33 -29 59 -65 59c-37 0 -64 -26 -64 -59c0 -32 26 -57 65 -57c36 0 64 25 64 57zM668 110c0 40 -35 69 -76 69c-44 0 -79 -29 -79 -69c0 -37 31 -67 79 -67c45 0 76 30 76 67zM715 280c0 -31 -15 -57 -45 -78c40 -20 60 -51 60 -92c0 -69 -57 -117 -138 -117
c-85 0 -141 45 -141 116c0 33 25 72 57 92c-28 21 -42 47 -42 79c0 64 54 109 126 109c71 0 123 -45 123 -109zM599 682h56l-499 -703h-56z" />
    <glyph glyph-name="seveneighths" unicode="&#x215e;" horiz-adv-x="768" 
d="M638 280c0 33 -29 59 -65 59c-37 0 -64 -26 -64 -59c0 -32 26 -57 65 -57c36 0 64 25 64 57zM651 110c0 40 -35 69 -76 69c-44 0 -79 -29 -79 -69c0 -37 31 -67 79 -67c45 0 76 30 76 67zM698 280c0 -31 -15 -57 -45 -78c40 -20 60 -51 60 -92c0 -69 -57 -117 -138 -117
c-85 0 -141 45 -141 116c0 33 25 72 57 92c-28 21 -42 47 -42 79c0 64 54 109 126 109c71 0 123 -45 123 -109zM331 673l-180 -375h-62l162 337h-196v48h276v-10zM558 682h56l-499 -703h-56z" />
    <glyph glyph-name="uni215F" unicode="&#x215f;" horiz-adv-x="438" 
d="M588 682h56l-499 -703h-56zM226 689h10v-391h-58v305c-10 -6 -27 -15 -50 -26s-39 -19 -49 -25v56z" />
    <glyph glyph-name="partialdiff" unicode="&#x2202;" horiz-adv-x="555" 
d="M262 -10c-117 0 -199 79 -199 218c0 65 19 117 56 156c38 39 86 59 143 59c61 0 113 -20 156 -61c-1 90 -21 162 -59 216c-37 55 -87 82 -148 82c-18 0 -38 -2 -59 -5l15 56c14 3 32 5 55 5c60 0 111 -18 152 -55c83 -73 116 -187 116 -324c0 -110 -21 -195 -63 -256
c-41 -61 -96 -91 -165 -91zM264 50c49 0 86 24 113 72c27 49 41 105 43 168c-45 51 -97 77 -156 77c-42 0 -75 -15 -99 -46c-23 -31 -35 -68 -35 -111c0 -107 55 -160 134 -160z" />
    <glyph glyph-name="gradient" unicode="&#x2207;" horiz-adv-x="648" 
d="M18 661h613l-296 -666h-19zM525 595h-403l202 -458z" />
    <glyph glyph-name="product" unicode="&#x220f;" horiz-adv-x="619" 
d="M547 661v-764h-80v697h-315v-697h-80v764h475z" />
    <glyph glyph-name="summation" unicode="&#x2211;" horiz-adv-x="582" 
d="M182 593l158 -289l-175 -338h385v-68h-510v10l208 394l-195 346v13h478v-68h-349z" />
    <glyph glyph-name="minus" unicode="&#x2212;" horiz-adv-x="548" 
d="M467 324v-54h-387v54h387z" />
    <glyph glyph-name="radical" unicode="&#x221a;" horiz-adv-x="532" 
d="M30 328l108 54l101 -274c21 71 54 177 101 319c47 143 82 254 105 335h63l-257 -794h-17l-133 335c-12 -5 -40 -20 -52 -25z" />
    <glyph glyph-name="infinity" unicode="&#x221e;" horiz-adv-x="754" 
d="M208 439c55 0 114 -35 177 -106c68 71 114 106 183 106c87 0 147 -61 147 -148c0 -44 -15 -81 -45 -111c-30 -29 -67 -44 -111 -44c-56 0 -104 29 -175 104c-63 -67 -113 -104 -182 -104c-41 0 -75 15 -104 44c-28 29 -42 65 -42 107c0 43 14 79 43 108s65 44 109 44z
M205 382c-48 0 -85 -44 -85 -95c0 -53 40 -95 89 -95c37 0 84 31 139 92c-19 21 -33 37 -44 48c-21 21 -64 50 -99 50zM563 382c-35 0 -81 -32 -140 -95l51 -53c19 -19 54 -42 87 -42c49 0 89 46 89 98c0 56 -40 92 -87 92z" />
    <glyph glyph-name="logicaland" unicode="&#x2227;" horiz-adv-x="540" 
d="M272 472l226 -472h-71l-164 347c-18 -45 -44 -105 -79 -181c-34 -75 -58 -131 -73 -166h-70c23 55 59 136 108 241s85 182 106 231h17z" />
    <glyph glyph-name="logicalor" unicode="&#x2228;" horiz-adv-x="542" 
d="M263 122l164 348h71l-226 -471h-17c-21 47 -56 123 -105 228s-85 186 -109 243h70l73 -167c35 -76 61 -136 79 -181z" />
    <glyph glyph-name="intersection" unicode="&#x2229;" horiz-adv-x="558" 
d="M277 411c-88 0 -134 -56 -134 -139v-272h-68v274c0 120 78 200 203 200c63 0 114 -20 151 -59s56 -91 56 -154v-261h-70v266c0 85 -49 145 -138 145z" />
    <glyph glyph-name="union" unicode="&#x222a;" horiz-adv-x="558" 
d="M277 60c89 0 138 60 138 145v264h70v-260c0 -63 -19 -114 -56 -153s-88 -58 -151 -58c-125 0 -203 79 -203 199v272h68v-271c0 -81 47 -138 134 -138z" />
    <glyph glyph-name="integral" unicode="&#x222b;" horiz-adv-x="333" 
d="M150 13c0 65 -5 154 -16 267c-10 113 -15 202 -15 266c0 125 44 187 131 187c27 0 51 -4 72 -12v-53c-23 5 -42 7 -55 7c-56 0 -82 -29 -82 -105c0 -73 5 -168 16 -286c11 -117 16 -208 16 -272v-8c-3 -96 -47 -151 -128 -151c-21 0 -47 4 -77 12v56c26 -7 48 -11 66 -11
c56 0 72 32 72 103z" />
    <glyph glyph-name="approxequal" unicode="&#x2248;" horiz-adv-x="548" 
d="M359 172c-21 0 -51 8 -91 25s-67 26 -80 26c-23 0 -48 -18 -73 -53l-32 29c26 51 61 77 104 77c21 0 52 -9 92 -26c41 -17 68 -26 81 -26c29 0 47 18 70 53l34 -29c-25 -51 -60 -76 -105 -76zM359 318c-21 0 -51 8 -91 25s-67 26 -80 26c-23 0 -48 -18 -73 -53l-32 30
c27 51 61 77 104 77c21 0 52 -9 92 -26c41 -17 68 -25 81 -25c23 0 47 17 70 52l34 -29c-25 -51 -60 -77 -105 -77z" />
    <glyph glyph-name="notequal" unicode="&#x2260;" horiz-adv-x="548" 
d="M124 89h-56l89 97h-84v53h132l102 111h-234v53h282l71 77h54l-71 -77h60v-53h-106l-104 -111h210v-53h-257z" />
    <glyph glyph-name="lessequal" unicode="&#x2264;" horiz-adv-x="548" 
d="M497 175v-62l-448 184v13l448 183v-63l-313 -125zM497 22h-448v55h448v-55z" />
    <glyph glyph-name="greaterequal" unicode="&#x2265;" horiz-adv-x="548" 
d="M49 77h448v-55h-448v55zM497 310v-13l-448 -184v62l313 130l-313 125v63z" />
    <glyph glyph-name="lozenge" unicode="&#x25ca;" horiz-adv-x="541" 
d="M282 0h-22l-204 342l204 332h22l203 -332zM422 342l-150 249l-150 -249l150 -263z" />
    <glyph glyph-name="zero.text" unicode="&#xe000;" horiz-adv-x="548" 
d="M273 672c77 0 139 -34 172 -79c17 -23 31 -50 42 -82c21 -64 26 -118 26 -182c0 -61 -5 -116 -28 -179c-30 -89 -93 -160 -213 -160c-76 0 -135 32 -170 76c-17 22 -31 48 -42 79c-21 63 -27 119 -27 184c0 81 12 151 44 223c33 73 101 120 196 120zM273 609
c-67 0 -115 -40 -136 -101c-20 -61 -27 -115 -27 -179c0 -185 54 -277 163 -277c55 0 96 29 119 66c11 19 20 41 27 67c15 52 17 93 17 144s-2 92 -17 145c-19 75 -61 135 -146 135z" />
    <glyph glyph-name="one.text" unicode="&#xe001;" horiz-adv-x="442" 
d="M282 665h14v-665h-78v542l-156 -90v77z" />
    <glyph glyph-name="two.text" unicode="&#xe002;" horiz-adv-x="548" 
d="M489 0h-434l-16 10c1 83 19 143 59 191c21 25 42 45 63 62s50 37 87 60l53 35c11 7 27 19 46 35c40 33 56 65 56 101c0 76 -56 116 -136 116s-130 -55 -130 -131c0 -14 2 -30 6 -48l-75 12c-3 13 -5 30 -5 50c0 53 20 96 61 129c41 34 89 51 146 51c59 0 109 -15 150 -46
c41 -30 62 -74 62 -131c0 -71 -52 -138 -157 -201c-30 -19 -53 -33 -69 -44c-15 -11 -35 -26 -58 -47c-47 -41 -68 -88 -71 -144h362v-60z" />
    <glyph glyph-name="three.text" unicode="&#xe003;" horiz-adv-x="546" 
d="M152 352l-8 13l194 232c0 1 -1 3 -1 4h-287v59h410v-12l-200 -239c127 -4 206 -79 206 -202c0 -65 -23 -117 -70 -157c-46 -39 -103 -59 -171 -59c-80 0 -147 19 -201 56v78c56 -48 121 -72 196 -72c109 0 172 66 172 162c0 45 -17 81 -52 106c-34 25 -75 38 -123 38
c-24 0 -46 -2 -65 -7z" />
    <glyph glyph-name="four.text" unicode="&#xe004;" horiz-adv-x="548" 
d="M362 383l60 83h14v-239h86v-59h-86v-168h-74v168h-354v14l335 479h87l-308 -434h240v156z" />
    <glyph glyph-name="five.text" unicode="&#xe005;" horiz-adv-x="548" 
d="M269 413c64 0 118 -18 161 -54c44 -36 66 -87 66 -153s-23 -118 -70 -157s-104 -58 -173 -58c-77 0 -143 19 -198 56v79c41 -43 118 -74 193 -74c51 0 93 15 125 44s48 66 48 111c0 99 -67 149 -170 149c-57 0 -109 -14 -157 -42l-13 5l44 341h345v-58h-284l-26 -208
c29 13 66 19 109 19z" />
    <glyph glyph-name="six.text" unicode="&#xe006;" horiz-adv-x="548" 
d="M100 380l171 280h83l-172 -278c1 -1 3 -2 4 -2c23 19 57 28 102 28c63 0 114 -19 155 -58c41 -38 61 -88 61 -149c0 -63 -22 -114 -65 -153s-98 -58 -165 -58c-71 0 -127 19 -169 57c-42 39 -63 90 -63 154c0 56 19 116 58 179zM275 351c-91 0 -158 -57 -158 -149
c0 -88 60 -151 157 -151c96 0 155 63 155 151c0 87 -59 149 -154 149z" />
    <glyph glyph-name="seven.text" unicode="&#xe007;" horiz-adv-x="472" 
d="M446 645l-288 -645h-76l269 601h-324v59h419v-15z" />
    <glyph glyph-name="eight.text" unicode="&#xe008;" horiz-adv-x="548" 
d="M405 491c0 68 -53 118 -130 118c-76 0 -129 -50 -129 -118c0 -67 54 -116 130 -116c75 0 129 49 129 116zM275 322c-92 0 -154 -57 -154 -134c0 -79 59 -137 154 -137c93 0 153 58 153 137s-58 134 -153 134zM386 357v-4c78 -31 117 -88 117 -170
c0 -58 -21 -105 -64 -140s-97 -53 -164 -53c-68 0 -123 17 -166 51c-42 35 -63 81 -63 139c0 73 43 139 114 166l1 4c-63 29 -90 86 -90 145c0 53 19 95 58 128s88 49 146 49c57 0 105 -16 144 -49s59 -75 59 -128c0 -61 -36 -117 -92 -138z" />
    <glyph glyph-name="nine.text" unicode="&#xe009;" horiz-adv-x="548" 
d="M445 282l-170 -282h-83l171 278l-4 3c-23 -19 -57 -28 -102 -28c-62 0 -113 19 -153 57c-40 39 -60 88 -60 149c0 63 21 114 64 153s98 59 165 59c69 0 125 -19 166 -58c42 -39 63 -90 63 -154c0 -55 -19 -114 -57 -177zM271 311c91 0 156 56 156 147
c0 88 -58 151 -154 151c-95 0 -154 -63 -154 -151c0 -85 60 -147 152 -147z" />
    <glyph glyph-name="numbersign.text" unicode="&#xe00a;" horiz-adv-x="521" 
d="M362 453l39 174h50l-22 -95l-17 -79h82v-43h-92l-36 -163h89v-44h-99l-44 -203h-50l45 203h-149l-45 -203h-49c5 27 14 65 25 115c11 51 18 80 20 88h-83v44h92c4 21 10 50 19 89l17 74h-92v43h101c7 31 21 89 40 174h49l-39 -174h149zM352 410h-148l-21 -93l-15 -70h149
c16 72 28 126 35 163z" />
    <glyph glyph-name="dollar.text" unicode="&#xe00b;" horiz-adv-x="548" 
d="M303 -98h-56v94c-71 4 -130 21 -177 52v72c61 -42 124 -63 190 -63c95 0 147 44 147 113c0 63 -51 108 -114 136c-90 41 -211 84 -209 194c0 95 66 151 163 162v98h56v-97c50 -3 96 -16 139 -37v-73c-49 33 -102 50 -159 50c-84 0 -126 -35 -126 -105
c0 -44 51 -78 115 -107c92 -39 211 -93 210 -210c0 -105 -70 -171 -179 -183v-96z" />
    <glyph glyph-name="euro.text" unicode="&#xe00c;" horiz-adv-x="548" 
d="M444 404v-41h-408v41h50c14 78 46 141 96 190c51 49 117 74 198 74c38 0 77 -6 116 -18v-67c-39 12 -77 18 -114 18c-115 0 -195 -72 -219 -197h281zM36 269v41h408v-41h-284c17 -124 91 -210 215 -210c49 0 95 9 138 27v-66c-42 -17 -88 -26 -138 -26
c-80 0 -147 24 -200 72s-83 116 -92 203h-47z" />
    <glyph glyph-name="florin.text" unicode="&#xe00d;" horiz-adv-x="470" 
d="M194 345h-81v55h89l10 90c15 123 64 181 159 181c25 0 51 -4 76 -13v-62c-23 7 -44 10 -63 10c-57 0 -85 -35 -96 -119l-11 -87h99v-55h-105l-22 -180c-12 -96 -30 -162 -54 -199c-23 -37 -60 -56 -109 -56c-28 0 -55 5 -82 16v71c27 -11 51 -17 70 -17c33 0 55 14 67 43
c13 29 24 89 35 182z" />
    <glyph glyph-name="sterling.text" unicode="&#xe00e;" horiz-adv-x="548" 
d="M474 647v-65c-36 14 -68 21 -97 21c-77 0 -133 -44 -133 -151v-91h175v-51h-176c-1 -113 -22 -196 -63 -250h301v-60h-407v13c61 69 93 168 94 297h-78v51h78l1 93c0 180 129 213 201 213c41 0 75 -7 104 -20z" />
    <glyph glyph-name="cent.text" unicode="&#xe00f;" horiz-adv-x="511" 
d="M331 5h-55v107c-123 13 -191 103 -191 226c0 61 18 112 53 155s81 70 138 79v109h55v-105c40 -3 73 -9 99 -20v-68c-28 17 -63 26 -104 26c-47 0 -87 -16 -118 -48c-31 -31 -47 -74 -47 -127c0 -50 15 -90 44 -121c29 -30 69 -45 120 -45s91 11 122 33v-67
c-27 -15 -66 -25 -116 -29v-105z" />
    <glyph glyph-name="yen.text" unicode="&#xe010;" horiz-adv-x="548" 
d="M505 320v-41h-440v41h159l-185 341h88l155 -317h3l160 317h82l-187 -341h165zM65 184v41h440v-41h-183v-184h-80v184h-177z" />
    <glyph glyph-name="zero.taboldstyle" unicode="&#xe024;" horiz-adv-x="521" 
d="M262 456c68 0 124 -22 168 -67c45 -44 67 -99 67 -165c0 -67 -22 -122 -67 -167s-101 -67 -168 -67c-73 0 -130 22 -173 66s-64 100 -64 167c0 65 23 120 68 165c46 45 102 68 169 68zM102 224c0 -100 60 -171 160 -171c49 0 87 16 116 49s43 74 43 122s-15 88 -44 121
s-68 49 -115 49s-86 -17 -116 -50c-29 -33 -44 -73 -44 -120z" />
    <glyph glyph-name="one.taboldstyle" unicode="&#xe025;" horiz-adv-x="521" 
d="M478 0h-412v58h178v289l-160 -70v69l220 105h14v-393h160v-58z" />
    <glyph glyph-name="two.taboldstyle" unicode="&#xe026;" horiz-adv-x="521" 
d="M142 261l-72 10c-5 13 -7 26 -7 41c0 41 18 76 55 105s85 43 146 43c119 0 195 -54 195 -139c0 -57 -47 -100 -107 -128c-85 -38 -205 -71 -218 -134h339v-59h-421c0 45 11 82 32 110c28 37 86 71 138 92c79 34 159 63 159 116c0 48 -40 81 -123 81s-125 -46 -125 -99
c0 -15 3 -28 9 -39z" />
    <glyph glyph-name="three.taboldstyle" unicode="&#xe027;" horiz-adv-x="521" 
d="M135 161l-8 14l184 208h-261v61h379v-15l-185 -211c115 -8 192 -80 192 -192c0 -59 -22 -107 -65 -144s-96 -56 -160 -56c-73 0 -134 18 -183 53v75c53 -45 113 -67 180 -67c93 0 154 57 154 140c0 91 -69 142 -160 142c-19 0 -42 -3 -67 -8z" />
    <glyph glyph-name="four.taboldstyle" unicode="&#xe028;" horiz-adv-x="521" 
d="M12 13l299 431h79l-272 -387h211v128l56 79h16v-207h93v-57h-93v-170h-72v170h-317v13z" />
    <glyph glyph-name="five.taboldstyle" unicode="&#xe029;" horiz-adv-x="521" 
d="M252 221c61 0 111 -17 152 -51s62 -82 62 -144c0 -61 -22 -110 -66 -146c-44 -37 -98 -55 -161 -55c-71 0 -132 18 -184 54v75c40 -40 109 -67 180 -67c93 0 157 57 157 141c0 80 -66 136 -155 136c-49 0 -96 -13 -140 -40c-4 2 -11 5 -15 5l40 315h312v-61h-257
l-22 -180c29 12 61 18 97 18z" />
    <glyph glyph-name="six.taboldstyle" unicode="&#xe02a;" horiz-adv-x="521" 
d="M474 189c0 -58 -21 -106 -62 -143s-93 -55 -157 -55c-131 0 -209 78 -209 191c0 49 18 103 54 163l156 263h81l-146 -239c0 -1 0 -1 1 -2c23 9 50 14 81 14c59 0 107 -18 144 -55c38 -36 57 -82 57 -137zM256 324c-39 0 -71 -13 -97 -39c-25 -26 -38 -58 -38 -96
c0 -83 52 -138 135 -138c85 0 145 55 145 138c0 38 -14 70 -42 96c-27 26 -62 39 -103 39z" />
    <glyph glyph-name="seven.taboldstyle" unicode="&#xe02b;" horiz-adv-x="521" 
d="M453 427l-269 -595h-79l249 551h-308v61h407v-17z" />
    <glyph glyph-name="eight.taboldstyle" unicode="&#xe02c;" horiz-adv-x="521" 
d="M130 169c0 -67 52 -120 132 -120c77 0 130 53 130 120c0 73 -57 124 -130 124c-75 0 -132 -51 -132 -124zM442 451c0 -51 -31 -103 -75 -131c-1 0 -1 0 -1 -1c65 -28 100 -85 100 -150c0 -53 -19 -97 -58 -130c-38 -33 -87 -49 -146 -49c-125 0 -208 68 -208 177
c0 31 9 61 28 90s43 49 72 61c-47 27 -74 81 -74 133c0 49 17 89 51 120c35 31 78 47 131 47c52 0 95 -16 129 -47s51 -71 51 -120zM149 449c0 -57 47 -103 111 -103s110 46 110 103c0 60 -47 105 -110 105s-111 -45 -111 -105z" />
    <glyph glyph-name="nine.taboldstyle" unicode="&#xe02d;" horiz-adv-x="521" 
d="M46 257c0 58 20 105 61 142s94 56 159 56c131 0 208 -79 208 -192c0 -49 -19 -105 -57 -168l-156 -263h-81l149 245c0 1 0 1 -1 2c-23 -9 -50 -14 -82 -14c-58 0 -106 18 -144 54c-37 37 -56 83 -56 138zM264 122c39 0 72 13 97 39s38 58 38 96c0 83 -52 137 -135 137
c-85 0 -145 -54 -145 -137c0 -38 14 -70 41 -96c28 -26 63 -39 104 -39z" />
    <glyph glyph-name="numbersign.taboldstyle" unicode="&#xe02e;" horiz-adv-x="521" 
d="M354 433l14 57h49l-29 -131h69v-48h-80l-13 -55l-13 -57h75v-45h-85l-36 -154h-50l37 154h-110l-37 -154h-50l36 154h-65v45h76c15 65 24 103 27 112h-74v48h83l30 131h51c-8 -35 -19 -79 -32 -131h111c3 17 9 41 16 74zM328 311h-111l-26 -112h109z" />
    <glyph glyph-name="dollar.taboldstyle" unicode="&#xe02f;" horiz-adv-x="521" 
d="M290 -93h-54v88c-62 3 -114 17 -157 42v70c53 -37 108 -55 167 -55c77 0 129 30 129 91c0 48 -45 84 -101 108c-79 35 -183 71 -183 163c0 80 61 130 146 138v86h52v-85c44 -3 85 -14 123 -33v-68c-43 28 -89 42 -139 42c-71 0 -106 -27 -106 -82c0 -33 44 -61 99 -85
c78 -31 182 -80 181 -176c0 -89 -60 -144 -157 -155v-89z" />
    <glyph glyph-name="euro.taboldstyle" unicode="&#xe030;" horiz-adv-x="521" 
d="M45 211v43h363v-43h-245c16 -104 91 -159 195 -159c38 0 76 8 113 25v-64c-45 -14 -86 -21 -123 -21c-141 0 -243 78 -260 219h-43zM408 345v-44h-363v44h49c28 128 117 209 258 209c38 0 72 -5 103 -15v-65c-37 11 -71 16 -100 16c-96 0 -162 -49 -185 -145h238z" />
    <glyph glyph-name="florin.taboldstyle" unicode="&#xe031;" horiz-adv-x="521" 
d="M228 281h-75v54h82l9 77c13 109 63 164 150 164c23 0 47 -4 72 -11v-58c-21 5 -41 7 -59 7c-54 0 -84 -34 -91 -103l-6 -43c-3 -19 -4 -30 -4 -33h94v-54h-99l-20 -158c-11 -83 -28 -142 -49 -176c-21 -35 -55 -52 -102 -52c-27 0 -53 5 -78 15v64c27 -10 49 -15 68 -15
c29 0 49 13 59 38c11 25 22 79 34 162z" />
    <glyph glyph-name="sterling.taboldstyle" unicode="&#xe032;" horiz-adv-x="521" 
d="M427 539v-62c-33 12 -63 18 -90 18c-67 0 -114 -35 -114 -120v-71h152v-51h-153c-1 -94 -18 -159 -49 -194h259v-59h-364v13c29 19 50 52 62 99c13 48 19 95 20 141h-68v51h68l1 72c0 72 27 123 66 147c40 24 76 32 113 32c35 0 68 -5 97 -16z" />
    <glyph glyph-name="cent.taboldstyle" unicode="&#xe033;" horiz-adv-x="521" 
d="M314 -30h-53v90c-105 11 -165 86 -165 187c0 49 15 92 45 127c31 35 71 57 120 64v89h53v-88c29 -1 55 -6 76 -15v-66c-26 15 -56 23 -89 23c-75 0 -130 -51 -130 -134c0 -76 50 -128 129 -128c37 0 72 11 105 32v-65c-22 -12 -52 -21 -91 -26v-90z" />
    <glyph glyph-name="yen.taboldstyle" unicode="&#xe034;" horiz-adv-x="521" 
d="M458 268v-45h-391v45h137l-161 275h82l136 -251h1l138 251h78l-163 -275h143zM67 134v45h391v-45h-160v-134h-77v134h-154z" />
    <glyph glyph-name="zero.textoldstyle" unicode="&#xe048;" horiz-adv-x="521" 
d="M262 456c68 0 124 -22 168 -67c45 -45 67 -100 67 -166s-22 -121 -67 -166c-44 -45 -100 -67 -168 -67c-73 0 -130 22 -173 66s-64 100 -64 167c0 65 23 120 68 165c46 45 102 68 169 68zM102 224c0 -100 60 -171 160 -171c49 0 87 16 116 49s43 74 43 122
c0 47 -15 87 -44 120s-68 50 -115 50s-86 -17 -116 -50c-29 -33 -44 -73 -44 -120z" />
    <glyph glyph-name="one.textoldstyle" unicode="&#xe049;" horiz-adv-x="471" 
d="M446 0h-412v58h178v289l-160 -70v69l218 105h16v-393h160v-58z" />
    <glyph glyph-name="two.textoldstyle" unicode="&#xe04a;" horiz-adv-x="521" 
d="M142 261l-72 10c-5 13 -7 26 -7 41c0 41 18 76 55 105s85 43 146 43c119 0 195 -54 195 -139c0 -57 -47 -100 -107 -128c-85 -38 -205 -71 -218 -134h339v-59h-421c0 45 11 82 32 110c28 37 86 71 138 92c79 34 159 63 159 116c0 48 -40 81 -123 81s-125 -46 -125 -99
c0 -15 3 -28 9 -39z" />
    <glyph glyph-name="three.textoldstyle" unicode="&#xe04b;" horiz-adv-x="492" 
d="M124 154l-8 14l183 215h-262v61h380v-15l-185 -215c55 -3 101 -22 137 -55s54 -78 54 -133c0 -59 -22 -107 -65 -144s-96 -56 -159 -56c-73 0 -135 18 -184 53v75c53 -45 113 -67 180 -67c93 0 155 57 155 140c0 91 -66 135 -159 135c-19 0 -42 -3 -67 -8z" />
    <glyph glyph-name="four.textoldstyle" unicode="&#xe04c;" horiz-adv-x="521" 
d="M12 13l299 431h79l-272 -387h211v129l56 78h16v-207h93v-57h-93v-170h-72v170h-317v13z" />
    <glyph glyph-name="five.textoldstyle" unicode="&#xe04d;" horiz-adv-x="504" 
d="M240 221c60 0 110 -17 151 -51s62 -82 62 -144c0 -61 -22 -110 -66 -146c-43 -37 -97 -55 -160 -55c-70 0 -132 18 -185 54v75c40 -40 111 -67 180 -67c93 0 157 57 157 141c0 81 -65 136 -154 136c-51 0 -98 -13 -141 -39l-15 4l40 315h312v-61h-257l-21 -180
c29 12 61 18 97 18z" />
    <glyph glyph-name="six.textoldstyle" unicode="&#xe04e;" horiz-adv-x="521" 
d="M474 189c0 -58 -21 -106 -62 -143s-93 -55 -157 -55c-131 0 -209 78 -209 191c0 47 18 101 54 163l156 263h81l-146 -239c0 -1 0 -1 1 -2c23 9 50 14 81 14c59 0 107 -18 144 -55c38 -36 57 -82 57 -137zM256 324c-39 0 -71 -13 -97 -39c-25 -26 -38 -58 -38 -96
c0 -83 52 -138 135 -138c85 0 145 55 145 138c0 38 -14 70 -42 96c-27 26 -62 39 -103 39z" />
    <glyph glyph-name="seven.textoldstyle" unicode="&#xe04f;" horiz-adv-x="460" 
d="M423 427l-269 -595h-78l248 551h-308v61h407v-17z" />
    <glyph glyph-name="eight.textoldstyle" unicode="&#xe050;" horiz-adv-x="521" 
d="M130 169c0 -67 52 -120 132 -120c77 0 130 53 130 120c0 73 -57 124 -130 124c-75 0 -132 -51 -132 -124zM442 451c0 -51 -31 -103 -75 -131c-1 0 -1 0 -1 -1c65 -28 100 -85 100 -150c0 -53 -19 -97 -58 -130c-38 -33 -87 -49 -146 -49c-125 0 -208 68 -208 177
c0 31 9 61 28 90s43 49 72 61c-47 27 -74 81 -74 133c0 49 17 89 51 120c35 31 78 47 131 47c52 0 95 -16 129 -47s51 -71 51 -120zM149 449c0 -57 47 -103 111 -103s110 46 110 103c0 60 -47 105 -110 105s-111 -45 -111 -105z" />
    <glyph glyph-name="nine.textoldstyle" unicode="&#xe051;" horiz-adv-x="521" 
d="M46 257c0 58 20 105 61 142s94 56 159 56c131 0 208 -79 208 -192c0 -51 -19 -107 -58 -168c-23 -37 -74 -124 -155 -263h-81l149 245c0 1 0 1 -1 2c-23 -9 -50 -14 -82 -14c-58 0 -106 18 -144 54c-37 37 -56 83 -56 138zM264 122c39 0 72 13 97 39s38 58 38 96
c0 83 -52 137 -135 137c-85 0 -145 -54 -145 -137c0 -38 14 -70 41 -96c28 -26 63 -39 104 -39z" />
    <glyph glyph-name="numbersign.textoldstyle" unicode="&#xe052;" horiz-adv-x="467" 
d="M324 433l14 57h49l-29 -131h69v-48h-80l-13 -55l-13 -57h75v-45h-85l-36 -154h-50l37 154h-110l-37 -154h-50l36 154h-65v45h76c15 65 24 103 27 112h-74v48h83l30 131h51c-8 -35 -19 -79 -32 -131h111c3 17 9 41 16 74zM298 311h-111l-26 -112h109z" />
    <glyph glyph-name="dollar.textoldstyle" unicode="&#xe053;" horiz-adv-x="459" 
d="M250 -93h-54v88c-62 3 -114 17 -157 42v70c53 -37 108 -55 167 -55c76 0 129 30 129 91c0 48 -44 84 -100 108c-79 34 -185 71 -183 163c0 80 60 130 145 138v86h52v-85c44 -3 85 -14 124 -33v-68c-43 28 -90 42 -140 42c-71 0 -106 -27 -106 -82c0 -33 44 -61 99 -85
c78 -31 182 -80 181 -176c0 -89 -60 -144 -157 -155v-89z" />
    <glyph glyph-name="euro.textoldstyle" unicode="&#xe054;" horiz-adv-x="504" 
d="M39 211v43h363v-43h-245c16 -104 91 -159 195 -159c38 0 76 8 113 25v-64c-45 -14 -86 -21 -123 -21c-141 0 -243 78 -260 219h-43zM402 345v-44h-363v44h49c28 128 117 209 258 209c38 0 72 -5 103 -15v-65c-37 11 -71 16 -100 16c-96 0 -162 -49 -185 -145h238z" />
    <glyph glyph-name="florin.textoldstyle" unicode="&#xe055;" horiz-adv-x="416" 
d="M172 281h-75v54h82c3 32 6 58 9 77c13 111 60 164 149 164c23 0 48 -4 73 -11v-58c-21 5 -41 7 -60 7c-53 0 -84 -34 -91 -103l-10 -76h94v-54h-99l-19 -158c-11 -83 -27 -142 -48 -176c-21 -35 -56 -52 -103 -52c-27 0 -53 5 -78 15v64c27 -10 49 -15 67 -15
c29 0 49 13 60 38s22 79 33 162z" />
    <glyph glyph-name="sterling.textoldstyle" unicode="&#xe056;" horiz-adv-x="454" 
d="M401 539v-62c-33 12 -63 18 -90 18c-67 0 -114 -35 -114 -120v-71h153v-51h-154c-1 -94 -18 -159 -49 -194h259v-59h-364v13c29 19 50 52 62 99c13 48 19 95 20 141h-68v51h69v72c0 72 27 123 66 147c40 24 76 32 113 32c35 0 68 -5 97 -16z" />
    <glyph glyph-name="cent.textoldstyle" unicode="&#xe057;" horiz-adv-x="440" 
d="M284 -30h-53v90c-105 11 -164 86 -164 187c0 49 15 92 45 127c31 35 70 57 119 64v89h53v-88c30 -1 56 -6 77 -15v-66c-26 15 -56 23 -90 23c-73 0 -130 -51 -130 -134c0 -76 50 -128 129 -128c37 0 73 11 106 32v-65c-22 -12 -53 -21 -92 -26v-90z" />
    <glyph glyph-name="yen.textoldstyle" unicode="&#xe058;" horiz-adv-x="473" 
d="M433 268v-45h-391v45h137l-161 275h82l136 -251h1l138 251h78l-163 -275h143zM42 134v45h391v-45h-160v-134h-77v134h-154z" />
    <glyph glyph-name="percent.text" unicode="&#xe059;" horiz-adv-x="660" 
d="M317 433c0 -37 -13 -68 -39 -94c-25 -25 -57 -38 -95 -38c-83 0 -137 57 -137 132c0 38 13 70 39 96c27 26 59 39 98 39s71 -13 96 -39s38 -58 38 -96zM183 513c-47 0 -78 -35 -78 -80c0 -47 29 -80 78 -80c45 0 75 36 75 80s-31 80 -75 80zM480 260
c80 0 135 -58 135 -134c0 -75 -56 -132 -135 -132c-83 0 -135 56 -135 132c0 37 13 69 39 95c27 26 59 39 96 39zM403 126c0 -47 29 -79 77 -79c69 -5 100 90 55 135c-14 15 -32 23 -55 23c-45 0 -77 -34 -77 -79zM485 580h60l-367 -595h-59z" />
    <glyph glyph-name="perthousand.text" unicode="&#xe05a;" horiz-adv-x="965" 
d="M317 433c0 -37 -13 -68 -39 -94c-25 -25 -57 -38 -95 -38c-83 0 -137 57 -137 132c0 38 13 70 39 96c27 26 59 39 98 39s71 -13 96 -39s38 -58 38 -96zM183 513c-47 0 -78 -35 -78 -80c0 -47 29 -80 78 -80c45 0 75 36 75 80s-31 80 -75 80zM480 260
c80 0 135 -58 135 -134c0 -75 -56 -132 -135 -132c-83 0 -135 56 -135 132c0 37 13 69 39 95c27 26 59 39 96 39zM403 126c0 -47 29 -79 77 -79c69 -5 100 90 55 135c-14 15 -32 23 -55 23c-45 0 -77 -34 -77 -79zM485 580h60l-367 -595h-59zM789 260c80 0 135 -58 135 -134
c0 -75 -56 -132 -135 -132c-83 0 -135 56 -135 132c0 37 13 69 39 95c27 26 59 39 96 39zM712 126c0 -47 29 -79 77 -79c71 -5 99 90 55 135c-14 15 -32 23 -55 23c-45 0 -77 -34 -77 -79z" />
    <glyph glyph-name="asuperior" unicode="&#xe06c;" horiz-adv-x="351" 
d="M309 298h-38l-14 41c-25 -32 -61 -48 -110 -48c-81 0 -115 43 -115 91c1 65 52 97 154 97h62v12c0 42 -26 63 -78 63c-31 0 -66 -10 -105 -30v51c35 18 72 27 111 27c89 0 133 -40 133 -121v-183zM248 419v19h-57c-65 0 -98 -18 -98 -55c0 -30 23 -45 70 -45
c55 0 85 32 85 81z" />
    <glyph glyph-name="bsuperior" unicode="&#xe06d;" horiz-adv-x="396" 
d="M91 352l-10 -52h-39v462h58v-212c27 32 63 48 108 48c97 0 160 -61 160 -153c0 -43 -15 -80 -45 -109s-68 -44 -115 -44s-94 23 -117 60zM104 445c0 -63 40 -102 100 -102c31 0 55 10 74 29s28 44 28 73s-9 54 -28 73c-19 20 -43 30 -73 30c-60 0 -101 -44 -101 -103z
" />
    <glyph glyph-name="dsuperior" unicode="&#xe06f;" horiz-adv-x="399" 
d="M295 553v209h61v-462h-42l-15 50c-26 -39 -64 -58 -115 -58c-95 0 -156 62 -156 151c0 45 14 83 43 112c29 30 67 45 114 45c48 0 85 -16 110 -47zM191 550c-61 0 -103 -45 -103 -104c0 -61 41 -103 104 -103c59 0 102 45 102 104s-40 103 -103 103z" />
    <glyph glyph-name="esuperior" unicode="&#xe070;" horiz-adv-x="362" 
d="M182 604c92 0 147 -64 147 -153c0 -7 -1 -13 -2 -17h-236c5 -55 49 -92 104 -92c41 0 81 14 119 43v-57c-35 -23 -75 -35 -120 -35c-104 0 -167 61 -167 156c0 43 15 80 44 110c30 30 67 45 111 45zM183 553c-49 0 -84 -29 -91 -77h177c-7 47 -39 77 -86 77z" />
    <glyph glyph-name="egravesuperior" unicode="&#xe071;" horiz-adv-x="363" 
d="M122 759l109 -120h-49l-108 86zM315 385v-58c-35 -23 -76 -35 -121 -35c-104 0 -167 62 -167 157c0 43 15 80 44 109c30 30 67 45 111 45c92 0 147 -64 147 -153c0 -7 -1 -12 -2 -17h-236c5 -55 49 -91 104 -91c41 0 81 14 120 43zM183 553c-49 0 -84 -30 -91 -78h177
c-7 47 -39 78 -86 78z" />
    <glyph glyph-name="hsuperior" unicode="&#xe073;" horiz-adv-x="364" 
d="M42 763h59v-217c26 35 62 53 107 53c71 0 113 -38 113 -114v-185h-61v175c0 49 -26 74 -67 74c-48 0 -91 -39 -91 -115v-134h-60v463z" />
    <glyph glyph-name="isuperior" unicode="&#xe074;" horiz-adv-x="153" 
d="M45 592h62c0 -32 0 -81 -1 -146v-146h-61v292zM75 720c21 0 39 -17 39 -37s-16 -36 -39 -36c-20 0 -37 17 -37 36c0 21 18 37 37 37z" />
    <glyph glyph-name="lsuperior" unicode="&#xe077;" horiz-adv-x="144" 
d="M42 762h59v-462h-59v462z" />
    <glyph glyph-name="msuperior" unicode="&#xe078;" horiz-adv-x="567" 
d="M103 300h-60v292h43l16 -46c24 35 67 53 99 53c50 0 83 -20 100 -61c25 41 72 61 112 61c68 0 110 -42 110 -119v-180h-61v178c0 48 -25 72 -64 72c-43 0 -85 -31 -85 -92v-158h-60v170c0 53 -22 80 -65 80c-41 0 -85 -39 -85 -102v-148z" />
    <glyph glyph-name="osuperior" unicode="&#xe079;" horiz-adv-x="380" 
d="M191 603c47 0 86 -15 116 -45c30 -29 45 -66 45 -111c0 -43 -15 -80 -46 -110c-31 -29 -69 -44 -115 -44c-100 0 -163 65 -163 154c0 44 16 81 47 111c32 30 71 45 116 45zM93 448c0 -60 37 -105 98 -105c60 0 98 46 98 105c0 57 -39 103 -98 103s-98 -46 -98 -103z" />
    <glyph glyph-name="rsuperior" unicode="&#xe07c;" horiz-adv-x="247" 
d="M42 592h41l12 -57c19 45 62 65 105 65c15 0 29 -1 40 -4v-56c-20 5 -36 8 -49 8c-67 0 -89 -55 -89 -154v-94h-60v292z" />
    <glyph glyph-name="ssuperior" unicode="&#xe07d;" horiz-adv-x="260" 
d="M11 321v57c36 -25 71 -37 104 -37c43 0 64 13 64 39c0 27 -39 46 -78 57c-39 12 -78 41 -78 84c0 53 47 82 107 82c34 0 66 -7 95 -22v-55c-33 18 -63 27 -88 27c-35 0 -52 -11 -52 -34c0 -19 38 -34 77 -46s77 -44 77 -89c0 -56 -49 -91 -118 -91c-39 0 -75 9 -110 28z
" />
    <glyph glyph-name="tsuperior" unicode="&#xe07e;" horiz-adv-x="229" 
d="M82 642l16 40h25v-86h85v-49h-85v-158c0 -30 13 -45 38 -45c18 0 38 7 61 22v-51c-19 -15 -43 -22 -71 -22c-40 0 -66 11 -78 34c-11 23 -13 39 -13 70v150h-50v36l54 14z" />
    <glyph glyph-name="i.dot" unicode="&#xe096;" horiz-adv-x="236" 
d="M155 445v-445h-76v445h76zM119 534c-28 0 -48 20 -48 47c0 25 23 48 48 48c27 0 47 -21 47 -48s-20 -47 -47 -47z" />
    <glyph glyph-name="a.alt" unicode="&#xe0a8;" horiz-adv-x="583" 
d="M123 222c0 -100 60 -170 159 -170c47 0 85 16 114 49s43 73 43 121c0 47 -15 87 -44 119c-29 33 -66 49 -113 49s-85 -16 -115 -49c-29 -32 -44 -72 -44 -119zM277 454c65 0 132 -28 167 -75l20 65h48v-444h-59l-11 66c-1 0 -2 1 -3 1c-42 -51 -96 -77 -162 -77
c-73 0 -129 21 -170 63c-41 43 -61 99 -61 168c0 65 22 120 66 165c45 45 100 68 165 68z" />
    <glyph glyph-name="g.alt" unicode="&#xe0a9;" horiz-adv-x="575" 
d="M441 23v37h-4c-39 -47 -93 -70 -163 -70c-67 0 -121 21 -162 64s-61 99 -61 167c0 69 22 125 65 170s99 67 166 67c70 0 125 -25 164 -76h4l13 64h50v-401c0 -177 -93 -274 -266 -274c-71 0 -132 15 -181 46v72c60 -38 121 -57 182 -57c120 0 193 74 193 191zM439 226
c0 101 -62 168 -154 168c-47 0 -86 -16 -115 -49s-44 -73 -44 -120c0 -50 14 -91 43 -123s68 -48 115 -48s84 17 112 50c29 33 43 74 43 122z" />
    <glyph glyph-name="two.alt" unicode="&#xe0aa;" horiz-adv-x="504" 
d="M186 66v-5h276v-61h-430v15c27 19 53 39 78 58c25 20 54 46 89 79s64 65 89 96c49 63 90 146 90 217c0 87 -53 142 -133 142c-58 0 -116 -23 -175 -69v69c55 43 115 65 181 65c61 0 110 -19 146 -56c37 -37 55 -82 55 -137c0 -81 -40 -173 -99 -246s-112 -124 -167 -167z
" />
    <glyph glyph-name="two_taboldstyle.alt" unicode="&#xe0ab;" horiz-adv-x="521" 
d="M232 63l1 -5h243v-58h-440v17c69 32 132 66 212 121s134 120 134 176c0 53 -51 83 -123 83c-63 0 -124 -17 -184 -50v65c65 33 128 50 191 50c125 0 193 -59 193 -138c0 -52 -32 -109 -81 -154c-48 -45 -94 -78 -146 -107z" />
    <glyph glyph-name="two_textoldstyle.alt" unicode="&#xe0ac;" horiz-adv-x="521" 
d="M232 63l1 -5h243v-58h-440v17c69 32 132 66 212 121s134 120 134 176c0 53 -51 83 -123 83c-63 0 -124 -17 -184 -50v65c65 33 128 50 191 50c125 0 193 -59 193 -138c0 -52 -32 -109 -81 -154c-48 -45 -94 -78 -146 -107z" />
    <glyph glyph-name="A2.alt" unicode="&#xe0b6;" horiz-adv-x="624" 
d="M611 0h-82l-216 510h-4l-216 -510h-79l292 667h15z" />
    <glyph glyph-name="F.alt" unicode="&#xe0b7;" horiz-adv-x="521" 
d="M161 293v-508h-81v876h425v-67h-344v-234h312v-67h-312z" />
    <glyph glyph-name="I.alt" unicode="&#xe0b8;" horiz-adv-x="260" 
d="M169 812v-812h-80v812h80z" />
    <glyph glyph-name="L.alt" unicode="&#xe0b9;" horiz-adv-x="517" 
d="M80 0v812h81v-744h345v-68h-426z" />
    <glyph glyph-name="P2.alt" unicode="&#xe0ba;" horiz-adv-x="570" 
d="M161 -215h-82v875h226c74 0 132 -22 173 -65c42 -43 63 -94 63 -153c0 -67 -23 -121 -68 -162s-101 -61 -168 -61h-144v-434zM283 595h-123v-308h136c53 0 93 15 120 45c27 31 41 67 41 108c0 43 -15 79 -44 109c-29 31 -72 46 -130 46z" />
    <glyph glyph-name="T.alt" unicode="&#xe0bb;" horiz-adv-x="532" 
d="M517 813v-68h-210v-745h-81v745h-212v68h503z" />
    <glyph glyph-name="Y.alt" unicode="&#xe0bc;" horiz-adv-x="598" 
d="M258 -215h-79l80 208l-256 666h82l212 -570h4l214 570h80z" />
    <glyph glyph-name="Q.alt" unicode="&#xe0bd;" horiz-adv-x="790" 
d="M396 -10c-106 0 -190 32 -252 96c-61 64 -92 145 -92 244c0 95 33 176 100 242c67 67 149 100 244 100c98 0 179 -33 244 -99c65 -65 97 -146 97 -243s-32 -178 -97 -243c-64 -65 -145 -97 -244 -97zM135 330c0 -79 24 -144 71 -195s111 -76 190 -76c77 0 140 26 188 78
c49 53 73 117 73 193c0 77 -25 141 -74 193c-49 53 -111 79 -187 79s-139 -26 -188 -78s-73 -117 -73 -194zM332 -72l401 -72l-21 -70l-401 71z" />
    <glyph glyph-name="Q2.alt" unicode="&#xe0be;" horiz-adv-x="790" 
d="M438 -7v-207h-76v207c-96 6 -172 40 -227 103s-83 141 -83 234c0 95 33 176 100 242c67 67 149 100 244 100c98 0 179 -33 244 -99c65 -65 97 -146 97 -243c0 -89 -28 -166 -84 -229s-128 -99 -215 -108zM135 330c0 -72 21 -133 62 -182s97 -76 167 -83v222h72v-223
c67 9 120 38 160 88c41 50 61 109 61 178c0 77 -25 141 -74 193c-49 53 -111 79 -187 79s-139 -26 -188 -78s-73 -117 -73 -194z" />
    <glyph glyph-name="uniE0C0" unicode="&#xe0c0;" horiz-adv-x="521" 
d="M505 745h-344v-745h-81v812h425v-67z" />
    </font>
</defs>
</svg>
