<?xml version="1.0" standalone="no"?>
<!DOCTYPE svg PUBLIC "-//W3C//DTD SVG 1.1//EN" "http://www.w3.org/Graphics/SVG/1.1/DTD/svg11.dtd" >
<svg>
<metadata>
Created by FontForge 20120731 at Wed Dec 20 04:13:46 2017
 By www
Copyright \(c\) 2013 Parachute, www.parachute.gr.  All rights reserved.
</metadata>
<defs>
<font id="PFBagueSansPro-UltraBlack" horiz-adv-x="605" >
  <font-face 
    font-family="PF Bague Sans Pro"
    font-weight="1000"
    font-stretch="normal"
    units-per-em="1000"
    panose-1="2 0 5 3 0 0 0 2 0 3"
    ascent="800"
    descent="-200"
    x-height="447"
    cap-height="659"
    bbox="-491 -368 1802 975"
    underline-thickness="100"
    underline-position="-25"
    unicode-range="U+0020-FB06"
  />
<missing-glyph horiz-adv-x="465" 
d="M460 0h-455v700h455v-700zM232 265l-99 -179h198zM132 614l100 -179l99 179h-199zM182 350l-92 163v-327zM373 512l-89 -162l89 -164v326z" />
    <glyph glyph-name="fj" unicode="fj" horiz-adv-x="621" 
d="M286 447h294v-394c0 -104 -33 -182 -89 -223c-56 -43 -119 -62 -196 -66l-61 161c51 5 85 17 102 38c18 20 27 56 27 108v218h-77v-289h-215v289h-66v143l66 16v70c0 157 90 236 269 236c63 0 122 -8 179 -25v-171c-50 19 -94 29 -133 29c-71 0 -100 -23 -100 -88v-52z
" />
    <glyph glyph-name="ffj" unicode="ffj" horiz-adv-x="930" 
d="M286 496v-48h89v70c0 20 1 37 4 51c-13 3 -23 4 -29 4c-39 0 -64 -26 -64 -77zM667 290h-77v-290h-216v289h-88v-289h-215v289h-66v143l66 16v49c0 160 94 240 246 240c50 0 99 -9 146 -26c44 29 104 43 181 43c63 0 122 -8 179 -25v-171c-50 19 -94 29 -133 29
c-71 0 -100 -23 -100 -88v-51h294v-394c0 -104 -33 -182 -89 -223c-56 -43 -119 -62 -196 -66l-61 161c51 5 85 17 102 38c18 20 27 56 27 108v218z" />
    <glyph glyph-name="f_t" unicode="ft" horiz-adv-x="724" 
d="M439 714v-162c-25 9 -49 14 -72 14c-54 0 -81 -27 -81 -82v-36h80l201 156h25v-157h111v-156h-111v-78c0 -41 16 -62 49 -62c17 0 40 7 68 20v-150c-38 -24 -86 -36 -145 -36c-125 0 -187 61 -187 184v120h-91v-289h-215v289h-66v143l66 16v47c0 160 95 235 247 235
c38 0 78 -5 121 -16z" />
    <glyph glyph-name="ff" unicode="ff" horiz-adv-x="709" 
d="M744 714v-162c-25 9 -49 14 -72 14c-54 0 -81 -27 -81 -82v-36h117v-159h-117v-289h-215v289h-90v-289h-215v289h-66v143l66 16v49c0 160 96 240 248 240c60 0 116 -12 168 -35c37 19 83 28 136 28c38 0 78 -5 121 -16zM286 496v-48h90v47c0 28 2 52 7 73
c-12 3 -22 5 -31 5c-40 0 -66 -26 -66 -77z" />
    <glyph glyph-name="fi" unicode="fi" horiz-adv-x="621" 
d="M581 447v-447h-219v289h-76v-289h-215v289h-66v143l66 16v70c0 157 90 236 269 236c63 0 122 -8 179 -25v-171c-50 19 -94 29 -133 29c-71 0 -100 -23 -100 -88v-52h295z" />
    <glyph glyph-name="fl" unicode="fl" horiz-adv-x="641" 
d="M601 0h-218v580h-7c-63 0 -90 -23 -90 -86v-47h70v-158h-70v-289h-215v289h-66v143l66 16v65c0 157 85 236 256 236c44 0 94 -5 149 -15h125v-734z" />
    <glyph glyph-name="ffi" unicode="ffi" horiz-adv-x="930" 
d="M890 447v-447h-219v289h-81v-289h-216v289h-88v-289h-215v289h-66v143l66 16v49c0 160 94 240 246 240c50 0 99 -9 146 -26c44 29 104 43 181 43c63 0 122 -8 179 -25v-171c-50 19 -94 29 -133 29c-71 0 -100 -23 -100 -88v-51zM286 496v-48h89v70c0 20 1 37 4 51
c-13 3 -23 4 -29 4c-39 0 -64 -26 -64 -77z" />
    <glyph glyph-name="ffl" unicode="ffl" horiz-adv-x="944" 
d="M904 0h-218v580h-7c-63 0 -89 -23 -89 -86v-47h69v-158h-69v-289h-216v289h-88v-289h-215v289h-66v143l66 16v49c0 160 94 240 246 240c44 0 93 -9 147 -27c41 26 97 39 166 39c44 0 94 -5 149 -15h125v-734zM286 496v-48h88v65c0 22 1 41 4 56c-12 3 -21 4 -26 4
c-40 0 -66 -26 -66 -77z" />
    <glyph glyph-name="longs_t" unicode="&#x17f;t" horiz-adv-x="740" 
d="M439 714v-162c-25 9 -49 14 -72 14c-54 0 -81 -27 -81 -82v-484h-215v289h-66v143l66 16v47c0 160 95 235 247 235c38 0 78 -5 121 -16zM725 171v-150c-38 -24 -86 -36 -145 -36c-125 0 -187 61 -187 184v122h-63v116l253 197h25v-157h111v-156h-111v-78
c0 -41 16 -62 49 -62c17 0 40 7 68 20z" />
    <glyph glyph-name=".notdef" horiz-adv-x="465" 
d="M460 0h-455v700h455v-700zM232 265l-99 -179h198zM132 614l100 -179l99 179h-199zM182 350l-92 163v-327zM373 512l-89 -162l89 -164v326z" />
    <glyph glyph-name="NULL" horiz-adv-x="0" 
 />
    <glyph glyph-name="CR" horiz-adv-x="333" 
 />
    <glyph glyph-name="space" unicode=" " horiz-adv-x="241" 
 />
    <glyph glyph-name="exclam" unicode="!" horiz-adv-x="362" 
d="M91 226l-19 470h218l-19 -470h-180zM280 85c0 -52 -45 -97 -97 -97c-27 0 -51 10 -72 29c-20 19 -30 42 -30 68c0 56 46 101 102 101c52 0 97 -45 97 -101z" />
    <glyph glyph-name="quotedbl" unicode="&#x22;" horiz-adv-x="428" 
d="M192 685v-266h-150v266h150zM387 685v-266h-150v266h150z" />
    <glyph glyph-name="numbersign" unicode="#" 
d="M192 -1h-119l44 200h-73v100h95l15 68h-81v97h102l36 163h117l-36 -163h61l36 163h114l-35 -163h92v-97h-112l-16 -68h95v-100h-115l-44 -200h-116l43 200h-62zM332 367h-62l-14 -68h62z" />
    <glyph glyph-name="dollar" unicode="$" 
d="M368 -116h-111v116c-72 7 -135 24 -188 52v188c23 -19 62 -38 115 -56s96 -27 127 -27c33 0 49 12 49 35c0 75 -288 74 -288 279c0 43 15 83 45 119c31 36 77 59 140 68v125h111v-124c55 -6 107 -19 158 -39v-166c-29 17 -63 31 -101 42c-37 11 -70 16 -99 16
c-33 0 -52 -15 -52 -36c0 -24 46 -48 103 -75c84 -34 191 -93 190 -204c0 -37 -13 -75 -41 -115c-28 -39 -85 -72 -158 -81v-117z" />
    <glyph glyph-name="percent" unicode="%" horiz-adv-x="885" 
d="M597 687h123l-448 -722h-122zM221 695c57 0 103 -16 136 -49s50 -73 50 -122c0 -48 -17 -89 -51 -122s-79 -50 -135 -50c-115 0 -186 71 -186 172c0 48 17 88 50 121c34 33 79 50 136 50zM222 569c-23 0 -39 -21 -39 -45c0 -32 13 -48 39 -48c24 0 41 17 41 48
c0 27 -17 45 -41 45zM655 328c57 0 103 -16 136 -49s50 -73 50 -122c0 -48 -17 -89 -51 -122s-79 -50 -135 -50c-115 0 -186 71 -186 172c0 48 17 88 50 121c34 33 79 50 136 50zM656 202c-23 0 -39 -21 -39 -45c0 -32 13 -48 39 -48c24 0 41 17 41 48c0 27 -17 45 -41 45z
" />
    <glyph glyph-name="ampersand" unicode="&#x26;" horiz-adv-x="747" 
d="M365 677c72 0 135 -16 189 -49l-16 -150c-67 27 -114 40 -142 40c-43 0 -65 -19 -65 -56c0 -52 55 -138 144 -229c34 49 62 107 83 175l136 -96c-23 -69 -55 -130 -97 -184c51 -38 102 -70 153 -96l-139 -111c-51 29 -99 59 -144 92c-57 -32 -117 -48 -179 -48
c-159 0 -248 75 -248 200c0 65 37 144 120 191c-19 41 -28 79 -28 112c0 139 93 209 233 209zM246 217c-7 -11 -10 -23 -10 -34c0 -37 28 -68 79 -68c7 0 15 1 23 3c-33 31 -64 64 -92 99z" />
    <glyph glyph-name="quotesingle" unicode="'" horiz-adv-x="239" 
d="M195 685v-266h-150v266h150z" />
    <glyph glyph-name="parenleft" unicode="(" horiz-adv-x="339" 
d="M219 735l118 -49c-76 -129 -114 -259 -114 -391c0 -133 38 -261 115 -383l-119 -58c-57 60 -100 129 -130 208c-29 79 -44 156 -44 231s15 153 45 232c31 80 74 150 129 210z" />
    <glyph glyph-name="parenright" unicode=")" horiz-adv-x="339" 
d="M134 -146l-119 58c77 122 115 250 115 383c0 132 -38 262 -114 391l118 49c55 -60 98 -130 128 -210c31 -79 46 -157 46 -232s-15 -152 -45 -231c-29 -79 -72 -148 -129 -208z" />
    <glyph glyph-name="asterisk" unicode="*" horiz-adv-x="467" 
d="M170 674h119l-15 -94l69 62l60 -105l-89 -28l89 -30l-60 -105l-69 63l15 -95h-119l14 94l-70 -63l-59 106l91 28l-91 30l59 107l70 -65z" />
    <glyph glyph-name="plus" unicode="+" 
d="M522 346v-118h-159v-163h-122v163h-159v118h159v162h122v-162h159z" />
    <glyph glyph-name="comma" unicode="," horiz-adv-x="272" 
d="M32 81c0 57 42 101 97 101c60 0 99 -44 99 -104c0 -41 -14 -85 -41 -133s-57 -91 -92 -129l-71 11l57 169c-33 16 -49 44 -49 85z" />
    <glyph glyph-name="hyphen" unicode="-" horiz-adv-x="372" 
d="M327 313v-127h-280v127h280z" />
    <glyph glyph-name="period" unicode="." horiz-adv-x="324" 
d="M256 85c0 -26 -10 -49 -30 -68c-19 -19 -42 -29 -67 -29c-27 0 -51 10 -71 29s-30 42 -30 68c0 56 46 101 101 101c52 0 97 -45 97 -101z" />
    <glyph glyph-name="slash" unicode="/" horiz-adv-x="391" 
d="M241 677h153l-243 -771h-152z" />
    <glyph glyph-name="zero" unicode="0" 
d="M591 332c0 -63 -9 -119 -28 -169c-37 -100 -129 -175 -261 -175c-99 0 -172 32 -218 95c-45 63 -68 146 -68 249c0 177 79 341 288 341c213 0 287 -167 287 -341zM370 336c0 109 -22 164 -66 164c-46 0 -69 -55 -69 -164c0 -116 23 -174 69 -174c44 0 66 58 66 174z" />
    <glyph glyph-name="one" unicode="1" 
d="M466 0h-227v397l-153 -58v191l357 144h23v-674z" />
    <glyph glyph-name="two" unicode="2" 
d="M562 0h-512l-20 17c4 77 26 141 62 188s67 74 115 107l30 20c28 19 35 23 56 39s27 26 39 42s16 32 16 51c0 31 -23 49 -50 49c-31 0 -57 -23 -57 -64c0 -11 3 -27 8 -48l-191 36c-3 19 -5 33 -5 42c0 59 26 107 77 145s111 57 179 57c73 0 133 -19 181 -57
c49 -37 73 -89 73 -156c0 -70 -38 -133 -113 -190c-11 -9 -30 -22 -57 -40c-53 -35 -80 -57 -95 -82h264v-156z" />
    <glyph glyph-name="three" unicode="3" 
d="M166 339l109 162l-1 3h-215v155h512v-23l-154 -227c91 -31 140 -105 140 -189c0 -66 -26 -121 -78 -165c-51 -43 -120 -65 -207 -65c-82 0 -156 15 -223 46v179c43 -37 115 -60 179 -60c77 0 123 34 123 86c0 59 -49 85 -112 85c-17 0 -35 -2 -55 -7z" />
    <glyph glyph-name="four" unicode="4" 
d="M3 142l228 517h222l-176 -381h57v31l53 117h162v-148h49v-155h-49v-123h-214v123h-332v19z" />
    <glyph glyph-name="five" unicode="5" 
d="M133 660h402v-155h-253l-10 -62c17 3 35 4 56 4c69 0 126 -19 173 -58c47 -38 71 -92 71 -162c0 -67 -26 -123 -78 -169c-51 -45 -120 -68 -206 -68c-82 0 -156 15 -223 46v179c43 -37 115 -60 179 -60c77 0 123 34 123 86c0 55 -39 83 -118 83c-46 0 -93 -8 -142 -25
l-20 15z" />
    <glyph glyph-name="six" unicode="6" 
d="M114 451l131 208h235l-150 -224l1 -6c79 5 141 -13 184 -53c43 -39 65 -92 65 -157c0 -69 -25 -124 -75 -166s-117 -63 -200 -63c-82 0 -149 20 -200 60c-51 41 -77 98 -77 173s29 133 86 228zM241 227c0 -39 25 -66 64 -66s65 26 65 66c0 35 -28 65 -65 65
s-64 -32 -64 -65z" />
    <glyph glyph-name="seven" unicode="7" 
d="M294 503h-237v156h523v-21l-284 -638h-225z" />
    <glyph glyph-name="eight" unicode="8" 
d="M361 453c5 70 -111 69 -105 -1c0 -31 21 -51 53 -51c31 0 52 21 52 52zM371 225c0 40 -24 69 -64 69c-39 0 -64 -30 -64 -69c0 -36 25 -66 64 -66s64 30 64 66zM494 353l-1 -5c59 -31 87 -89 87 -149c0 -63 -24 -113 -73 -152c-48 -38 -115 -57 -200 -57
c-177 0 -279 83 -279 207c0 60 31 118 84 149l1 4c-40 27 -60 68 -60 123c0 59 24 107 72 144c49 37 109 56 182 56c75 0 135 -18 180 -55s68 -84 68 -142c0 -45 -22 -95 -61 -123z" />
    <glyph glyph-name="nine" unicode="9" 
d="M496 212l-133 -212h-235l152 228l-1 6c-79 -5 -141 13 -184 52c-43 40 -65 93 -65 158c0 69 25 124 75 166s117 63 200 63c82 0 149 -20 200 -61c51 -40 77 -97 77 -172s-29 -133 -86 -228zM369 436c0 39 -25 66 -64 66s-65 -26 -65 -66c0 -35 28 -65 65 -65s64 32 64 65
z" />
    <glyph glyph-name="colon" unicode=":" horiz-adv-x="324" 
d="M254 84c0 -52 -44 -96 -96 -96c-53 0 -99 44 -99 96c0 55 44 99 99 99c52 0 96 -44 96 -99zM158 241c-55 0 -99 44 -99 97s46 98 99 98c52 0 96 -45 96 -98s-44 -97 -96 -97z" />
    <glyph glyph-name="semicolon" unicode=";" horiz-adv-x="324" 
d="M55 81c0 57 42 101 97 101c60 0 99 -44 99 -104c0 -41 -14 -85 -41 -133s-57 -91 -92 -129l-71 11l57 169c-33 16 -49 44 -49 85zM158 241c-55 0 -99 44 -99 97s46 98 99 98c52 0 96 -45 96 -98s-44 -97 -96 -97z" />
    <glyph glyph-name="less" unicode="&#x3c;" 
d="M309 281l212 -120v-150l-437 258v23l437 261v-153z" />
    <glyph glyph-name="equal" unicode="=" 
d="M514 436v-115h-424v115h424zM514 254v-113h-424v113h424z" />
    <glyph glyph-name="greater" unicode="&#x3e;" 
d="M521 269l-437 -258v150l212 122l-212 117v153l437 -261v-23z" />
    <glyph glyph-name="question" unicode="?" horiz-adv-x="553" 
d="M278 477c0 25 -23 40 -58 40c-28 0 -59 -6 -94 -17s-62 -23 -83 -36v185c71 29 144 43 217 43c89 0 154 -19 195 -56c42 -37 63 -82 63 -135c0 -28 -10 -56 -31 -84c-20 -27 -42 -50 -66 -68s-46 -37 -67 -58c-20 -20 -30 -37 -30 -52c0 -6 1 -11 4 -16l-164 -25
c-13 25 -20 48 -20 69c0 45 34 92 67 120s67 63 67 90zM358 80c0 -52 -45 -96 -97 -96c-63 0 -101 41 -101 96c0 56 42 98 101 98c56 0 97 -42 97 -98z" />
    <glyph glyph-name="at" unicode="@" horiz-adv-x="966" 
d="M664 320v-53c0 -37 14 -55 43 -55c37 0 64 31 64 100c0 155 -93 248 -269 248c-95 0 -171 -25 -226 -76c-55 -50 -82 -116 -82 -197c0 -172 97 -277 285 -277c69 0 134 13 196 40v-121c-59 -29 -125 -44 -198 -44c-133 0 -235 37 -308 111s-109 169 -109 286
c0 115 42 211 125 287s189 114 317 114c123 0 221 -33 294 -98s110 -150 110 -256c0 -65 -19 -121 -58 -166s-96 -67 -172 -67c-57 0 -117 28 -136 81h-4c-44 -60 -93 -72 -157 -72s-107 38 -107 103c0 67 56 123 171 123h48v5c0 23 -20 34 -60 34c-23 0 -75 -10 -106 -27
v124c48 16 101 24 158 24c121 0 181 -57 181 -171zM441 233c0 -15 6 -22 18 -22c20 0 33 16 33 43v11h-16c-23 0 -35 -11 -35 -32z" />
    <glyph glyph-name="A" unicode="A" horiz-adv-x="715" 
d="M710 0h-239l-20 52h-194l-21 -52h-231l345 679h24zM359 287h-4l-45 -101h91z" />
    <glyph glyph-name="B" unicode="B" horiz-adv-x="675" 
d="M539 358l1 -4c65 -33 100 -93 100 -157c0 -52 -20 -98 -59 -138c-39 -39 -89 -59 -152 -59h-379v659h358c59 0 105 -17 140 -51s52 -74 52 -120c0 -51 -20 -94 -61 -130zM409 221c0 23 -20 39 -49 39h-73v-80h76c31 0 46 14 46 41zM331 485h-45v-78h46c20 0 42 15 42 40
c0 23 -16 38 -43 38z" />
    <glyph glyph-name="C" unicode="C" horiz-adv-x="633" 
d="M592 213l1 -199c-56 -19 -119 -29 -189 -29c-116 0 -207 32 -272 96s-97 146 -97 247c0 61 14 117 41 168s70 94 128 127s127 50 206 50c63 0 119 -8 168 -24v-195c-42 17 -86 26 -132 26c-96 0 -167 -51 -167 -154c0 -100 63 -149 155 -149c49 0 102 12 158 36z" />
    <glyph glyph-name="D" unicode="D" horiz-adv-x="715" 
d="M332 0h-282v659h264c120 0 211 -31 273 -94c62 -62 93 -140 93 -233c0 -167 -109 -333 -348 -332zM320 479h-28v-298h28c79 0 122 57 122 153c0 97 -41 145 -122 145z" />
    <glyph glyph-name="E" unicode="E" horiz-adv-x="582" 
d="M542 0h-492v659h482v-180h-239v-55h201v-172h-201v-71h249v-181z" />
    <glyph glyph-name="F" unicode="F" horiz-adv-x="555" 
d="M293 0h-243v659h490v-180h-247v-80h201v-172h-201v-227z" />
    <glyph glyph-name="G" unicode="G" horiz-adv-x="695" 
d="M415 675c76 0 143 -12 202 -37v-202c-51 29 -111 44 -178 44c-99 0 -158 -60 -158 -160c0 -97 43 -145 129 -145c13 0 23 0 29 1v180h209v-333c-71 -25 -154 -38 -248 -38c-237 0 -365 128 -365 340c0 98 33 181 100 248c67 68 160 102 280 102z" />
    <glyph glyph-name="H" unicode="H" horiz-adv-x="722" 
d="M672 0h-244v247h-135v-247h-243v659h243v-230h135v230h244v-659z" />
    <glyph glyph-name="I" unicode="I" horiz-adv-x="344" 
d="M50 659h244v-659h-244v659z" />
    <glyph glyph-name="J" unicode="J" horiz-adv-x="552" 
d="M255 659h247v-340c0 -99 -16 -171 -59 -235s-124 -99 -239 -99c-71 0 -132 14 -184 42v191c51 -27 96 -41 134 -41c71 0 101 39 101 124v358z" />
    <glyph glyph-name="K" unicode="K" horiz-adv-x="712" 
d="M50 659h244v-293l153 293h256l-187 -318l191 -341h-259l-154 314v-314h-244v659z" />
    <glyph glyph-name="L" unicode="L" horiz-adv-x="552" 
d="M294 659v-478h248v-181h-491v659h243z" />
    <glyph glyph-name="M" unicode="M" horiz-adv-x="816" 
d="M73 678l337 -308l334 308h22v-678h-236v230h-4l-103 -112h-26l-109 108h-4v-226h-234v678h23z" />
    <glyph glyph-name="N" unicode="N" horiz-adv-x="722" 
d="M293 0h-243v679h24l350 -268h4v248h244v-679h-22l-353 283h-4v-263z" />
    <glyph glyph-name="O" unicode="O" horiz-adv-x="811" 
d="M404 -14c-110 0 -199 33 -267 98s-102 147 -102 246c0 97 34 179 103 245s159 99 268 99c110 0 199 -33 267 -99c69 -65 103 -147 103 -245s-35 -180 -105 -246c-69 -65 -158 -98 -267 -98zM408 178c79 0 129 63 129 152c0 85 -48 148 -129 148c-79 0 -131 -64 -131 -148
c0 -88 54 -152 131 -152z" />
    <glyph glyph-name="P" unicode="P" horiz-adv-x="618" 
d="M608 433c0 -62 -22 -115 -66 -160c-44 -44 -106 -66 -185 -66h-64v-207h-243v659h290c88 0 155 -22 200 -66c45 -43 68 -97 68 -160zM370 430c0 32 -20 55 -59 55h-20v-109h20c41 0 59 26 59 54z" />
    <glyph glyph-name="Q" unicode="Q" horiz-adv-x="821" 
d="M620 42v-1l151 -48l-73 -179l-403 186c-77 22 -139 63 -186 122c-46 59 -69 129 -69 208c0 97 34 179 103 245s159 99 268 99c110 0 199 -33 267 -99c69 -65 103 -147 103 -245c0 -121 -60 -225 -161 -288zM413 178c79 0 129 63 129 152c0 85 -48 148 -129 148
c-79 0 -131 -64 -131 -148c0 -88 54 -152 131 -152z" />
    <glyph glyph-name="R" unicode="R" horiz-adv-x="680" 
d="M548 256l129 -256h-254l-106 258v17c51 21 70 71 70 112c0 49 -24 92 -75 92h-20v-479h-242v659h309c77 0 140 -21 191 -62s76 -97 76 -168c0 -70 -26 -128 -78 -173z" />
    <glyph glyph-name="S" unicode="S" horiz-adv-x="594" 
d="M521 634v-185c-21 13 -50 25 -88 37s-71 18 -99 18c-39 0 -58 -9 -58 -28c0 -59 288 -60 288 -285c0 -44 -17 -89 -56 -133s-116 -74 -216 -74c-106 0 -193 18 -262 55v203c23 -20 59 -38 108 -55c49 -16 90 -24 123 -24c40 0 60 10 60 31c0 78 -288 79 -288 284
c-1 91 69 201 261 201c77 0 152 -15 227 -45z" />
    <glyph glyph-name="T" unicode="T" horiz-adv-x="597" 
d="M587 659v-180h-168v-479h-244v479h-165v180h577z" />
    <glyph glyph-name="U" unicode="U" horiz-adv-x="728" 
d="M434 659h244v-373c0 -90 -26 -163 -79 -218s-131 -82 -235 -82c-108 0 -187 26 -238 79s-76 123 -76 212v382h245v-387c0 -59 23 -89 70 -89c45 0 69 42 69 82v394z" />
    <glyph glyph-name="V" unicode="V" horiz-adv-x="715" 
d="M355 420h4l95 239h256l-333 -681h-26l-346 681h257c41 -119 81 -207 93 -239z" />
    <glyph glyph-name="W" unicode="W" horiz-adv-x="1037" 
d="M717 -22h-26l-173 336l-172 -336h-26l-315 681h256l109 -245h4l130 259h26l138 -259h4l106 245h254z" />
    <glyph glyph-name="X" unicode="X" horiz-adv-x="738" 
d="M733 0h-261l-103 281l-103 -281h-261l149 341l-141 318h261l95 -258l95 258h261l-141 -318z" />
    <glyph glyph-name="Y" unicode="Y" horiz-adv-x="685" 
d="M218 0v228l-213 431h262l50 -142c8 -23 17 -53 27 -90h4c5 26 13 55 24 88l47 144h261l-219 -431v-228h-243z" />
    <glyph glyph-name="Z" unicode="Z" horiz-adv-x="656" 
d="M279 479h-221v180h583v-19l-263 -459h241v-181h-604l1 22z" />
    <glyph glyph-name="bracketleft" unicode="[" horiz-adv-x="323" 
d="M289 -11v-127h-238v860h238v-127h-57v-606h57z" />
    <glyph glyph-name="backslash" unicode="\" horiz-adv-x="391" 
d="M394 -94h-152l-243 771h153z" />
    <glyph glyph-name="bracketright" unicode="]" horiz-adv-x="323" 
d="M280 722v-860h-238v127h57v606h-57v127h238z" />
    <glyph glyph-name="asciicircum" unicode="^" horiz-adv-x="537" 
d="M275 640l235 -351h-153l-94 153l-95 -153h-152l233 351h26z" />
    <glyph glyph-name="underscore" unicode="_" horiz-adv-x="481" 
d="M482 -57v-104h-482v104h482z" />
    <glyph glyph-name="grave" unicode="`" horiz-adv-x="547" 
d="M377 502h-108l-157 139l132 70z" />
    <glyph glyph-name="a" unicode="a" horiz-adv-x="547" 
d="M318 0l-10 42l-3 1c-35 -37 -86 -55 -153 -55c-77 0 -132 46 -132 126c0 41 17 77 52 106c35 30 88 45 159 45h59v7c0 28 -19 42 -74 42c-14 0 -35 -3 -62 -9c-27 -5 -50 -13 -68 -23v152c61 19 125 29 194 29c157 0 227 -82 227 -211v-252h-189zM224 145
c0 -20 8 -30 25 -30c25 0 44 23 44 58v15h-22c-31 0 -47 -14 -47 -43z" />
    <glyph glyph-name="b" unicode="b" horiz-adv-x="606" 
d="M249 711v-274l5 -2c27 19 62 28 105 28c69 0 124 -22 165 -65s62 -100 62 -171c0 -68 -21 -125 -63 -170c-41 -45 -99 -67 -173 -67c-58 0 -104 15 -139 46h-4l-14 -36h-153v711h209zM322 294c-39 0 -59 -31 -59 -66c0 -44 21 -70 58 -70c36 0 57 26 57 70
c0 35 -21 66 -56 66z" />
    <glyph glyph-name="c" unicode="c" horiz-adv-x="449" 
d="M282 464c44 0 85 -7 123 -21v-167c-29 13 -57 20 -86 20c-49 0 -82 -24 -82 -71c0 -48 30 -72 78 -72c32 0 67 9 104 28v-161c-41 -21 -94 -32 -158 -32c-75 0 -134 21 -177 64s-64 98 -64 167c0 75 24 135 72 179c49 44 112 66 190 66z" />
    <glyph glyph-name="d" unicode="d" horiz-adv-x="608" 
d="M351 440l6 4l1 267h209l1 -711h-167l-15 36h-5c-36 -32 -99 -46 -143 -46c-144 0 -218 92 -218 227c0 74 21 133 64 178s98 68 165 68c41 0 75 -8 102 -23zM289 296c-33 0 -56 -29 -56 -69c0 -46 19 -69 56 -69c35 0 58 28 58 71c0 37 -21 67 -58 67z" />
    <glyph glyph-name="e" unicode="e" horiz-adv-x="525" 
d="M505 226v-22h-274c4 -49 36 -74 97 -74c51 0 101 14 151 43v-138c-55 -31 -117 -47 -184 -47c-93 0 -162 23 -207 69c-45 47 -68 103 -68 170s22 124 65 170c44 46 103 69 178 69c149 0 242 -84 242 -240zM273 318c-24 0 -40 -26 -40 -53h80c-1 35 -15 53 -40 53z" />
    <glyph glyph-name="f" unicode="f" horiz-adv-x="404" 
d="M439 714v-162c-25 9 -49 14 -72 14c-54 0 -81 -27 -81 -82v-36h117v-159h-117v-289h-215v289h-66v143l66 16v47c0 160 95 235 247 235c38 0 78 -5 121 -16z" />
    <glyph glyph-name="g" unicode="g" horiz-adv-x="540" 
d="M13 88l82 89c-29 25 -43 61 -43 108c0 53 21 97 62 130s93 50 155 50c32 0 66 -6 101 -17h171v-89l-50 -12c7 -21 11 -43 11 -66c0 -43 -18 -79 -54 -110c-36 -30 -87 -45 -153 -45c-27 0 -57 3 -89 9l-16 -26l165 -18c121 -15 184 -51 184 -140c0 -33 -16 -72 -55 -113
s-120 -72 -225 -72c-81 0 -139 14 -176 42c-37 27 -55 58 -55 91c0 47 23 84 69 111l-24 4c-41 7 -68 37 -60 74zM204 -42c0 -29 27 -46 59 -46c16 0 30 4 42 12s18 19 18 33s-10 22 -31 25l-79 11c-6 -13 -9 -24 -9 -35zM282 338c-21 0 -35 -18 -35 -41
c0 -29 12 -44 35 -44s37 17 37 44c0 24 -14 41 -37 41z" />
    <glyph glyph-name="h" unicode="h" horiz-adv-x="584" 
d="M250 711v-303l3 -1c35 38 79 57 132 57c103 0 159 -58 159 -162v-302h-217v247c0 31 -10 47 -31 47c-26 0 -39 -22 -39 -65v-229h-217v711h210z" />
    <glyph glyph-name="i" unicode="i" horiz-adv-x="303" 
d="M261 447v-447h-219v447h219zM266 613c0 -63 -47 -114 -112 -114c-67 0 -111 51 -111 112c0 33 11 59 33 80c23 21 49 31 78 31c65 0 112 -49 112 -109z" />
    <glyph glyph-name="j" unicode="j" horiz-adv-x="303" 
d="M265 613c0 -63 -47 -114 -112 -114c-67 0 -111 51 -111 112c0 33 11 59 33 80c23 21 49 31 78 31c65 0 112 -49 112 -109zM44 447h217v-394c0 -104 -33 -182 -89 -223c-56 -43 -119 -62 -196 -66l-67 173c53 3 88 13 107 31s28 53 28 104v375z" />
    <glyph glyph-name="k" unicode="k" horiz-adv-x="591" 
d="M465 232l121 -232h-226l-93 209v-209h-227v711h227v-459l94 195h223z" />
    <glyph glyph-name="l" unicode="l" horiz-adv-x="299" 
d="M259 711v-711h-219v711h219z" />
    <glyph glyph-name="m" unicode="m" horiz-adv-x="853" 
d="M219 447l18 -50l6 -1c36 45 82 68 139 68c65 0 110 -28 134 -84c33 56 81 84 143 84c97 0 154 -57 154 -161v-303h-218v253c0 27 -8 41 -25 41c-23 0 -35 -21 -35 -63v-231h-216v245c0 33 -10 49 -31 49s-31 -19 -31 -57v-237h-217v447h179z" />
    <glyph glyph-name="n" unicode="n" horiz-adv-x="585" 
d="M220 447l17 -55l4 -1c39 49 100 73 147 73c103 0 157 -57 157 -162v-302h-218v247c0 31 -10 47 -30 47c-27 0 -40 -22 -40 -65v-229h-217v447h180z" />
    <glyph glyph-name="o" unicode="o" horiz-adv-x="577" 
d="M289 464c84 0 150 -22 197 -67c47 -44 71 -101 71 -171c0 -71 -24 -128 -72 -171s-113 -65 -196 -65s-148 22 -197 65c-48 44 -72 101 -72 171c0 69 24 126 73 171s114 67 196 67zM292 294c-35 0 -56 -29 -56 -65c0 -47 19 -70 56 -70c36 0 58 27 58 70
c0 39 -22 65 -58 65z" />
    <glyph glyph-name="p" unicode="p" horiz-adv-x="620" 
d="M256 -219h-216v666h183l15 -46h5c33 45 92 61 139 61c71 0 125 -22 162 -67c37 -44 56 -100 56 -168c0 -73 -21 -131 -64 -174s-98 -64 -165 -64c-47 0 -84 10 -109 31l-6 -4v-235zM331 153c33 0 56 29 56 69c0 46 -19 69 -56 69c-35 0 -58 -28 -58 -71
c0 -37 21 -67 58 -67z" />
    <glyph glyph-name="q" unicode="q" horiz-adv-x="613" 
d="M573 -219h-214v243l-3 1c-28 -24 -66 -36 -113 -36c-139 0 -223 90 -223 231c0 69 21 126 63 172c42 47 100 70 173 70c39 0 101 -14 141 -50h4l14 36h158v-667zM283 155c39 0 60 31 60 66c0 44 -21 70 -58 70c-36 0 -57 -26 -57 -70c0 -36 20 -66 55 -66z" />
    <glyph glyph-name="r" unicode="r" horiz-adv-x="449" 
d="M205 448l19 -73l5 -1c20 59 61 88 124 88c29 0 57 -6 86 -19v-194c-31 17 -62 26 -95 26c-58 0 -87 -33 -87 -98v-177h-217v448h165z" />
    <glyph glyph-name="s" unicode="s" horiz-adv-x="430" 
d="M385 430v-141c-32 19 -93 36 -133 36c-19 0 -29 -5 -29 -14s47 -26 94 -46c48 -19 95 -69 95 -134c0 -57 -44 -144 -201 -144c-73 0 -136 14 -191 41v155c20 -16 47 -31 81 -44s62 -19 84 -19c21 0 31 5 31 15c0 28 -192 53 -192 186c0 37 16 70 48 99s80 43 145 43
c55 0 111 -11 168 -33z" />
    <glyph glyph-name="t" unicode="t" horiz-adv-x="420" 
d="M405 171v-150c-38 -24 -86 -36 -145 -36c-125 0 -187 61 -187 184v122h-63v116l253 197h25v-157h111v-156h-111v-78c0 -41 16 -62 49 -62c17 0 40 7 68 20z" />
    <glyph glyph-name="u" unicode="u" horiz-adv-x="580" 
d="M352 0l-15 63h-5c-33 -49 -79 -73 -136 -73c-107 0 -156 55 -156 171v286h217v-252c0 -26 10 -39 31 -39c22 0 33 19 33 58v233h219v-447h-188z" />
    <glyph glyph-name="v" unicode="v" horiz-adv-x="592" 
d="M296 308h4l32 79l27 60h228l-275 -461h-30l-277 461h225l34 -68c14 -29 25 -52 32 -71z" />
    <glyph glyph-name="w" unicode="w" horiz-adv-x="802" 
d="M412 465l109 -162h4l62 144h220l-240 -461h-30l-134 202l-133 -202h-30l-245 461h223l66 -144h4l97 162h27z" />
    <glyph glyph-name="x" unicode="x" horiz-adv-x="580" 
d="M575 0h-217l-68 182l-68 -182h-217l102 231l-97 216h217l63 -168l62 168h217l-97 -216z" />
    <glyph glyph-name="y" unicode="y" horiz-adv-x="548" 
d="M44 -219l123 263l-172 404h219l50 -194h6l55 194h220l-292 -667h-209z" />
    <glyph glyph-name="z" unicode="z" horiz-adv-x="476" 
d="M450 0h-440l1 15l160 274h-132v158h427v-13l-162 -276h146v-158z" />
    <glyph glyph-name="braceleft" unicode="{" horiz-adv-x="412" 
d="M374 -17v-121h-88c-112 0 -168 53 -168 158v162c0 67 -21 105 -64 114v22c43 11 64 45 64 102v135c0 109 51 165 168 165h88v-124h-10c-51 0 -64 -26 -64 -67v-126c0 -51 -32 -82 -83 -90v-4c56 -7 83 -46 83 -99v-163c0 -45 11 -64 58 -64h16z" />
    <glyph glyph-name="bar" unicode="|" horiz-adv-x="410" 
d="M282 731v-883h-151v883h151z" />
    <glyph glyph-name="braceright" unicode="}" horiz-adv-x="412" 
d="M137 -138h-88v121h16c47 0 58 19 58 64v163c0 53 27 92 83 99v4c-51 8 -83 39 -83 90v126c0 41 -13 67 -64 67h-10v124h88c117 0 168 -56 168 -165v-136c0 -55 21 -88 64 -99v-21c-43 -9 -64 -48 -64 -117v-162c0 -105 -56 -158 -168 -158z" />
    <glyph glyph-name="asciitilde" unicode="~" 
d="M421 196c-31 0 -70 6 -118 19s-81 20 -99 20c-35 0 -53 -9 -70 -45l-105 60c35 89 87 134 157 134c22 0 56 -7 101 -22c45 -14 79 -21 100 -21c39 0 61 13 84 65l105 -65c-31 -95 -87 -145 -155 -145z" />
    <glyph glyph-name="uni00A0" unicode="&#xa0;" horiz-adv-x="241" 
 />
    <glyph glyph-name="exclamdown" unicode="&#xa1;" horiz-adv-x="362" 
d="M280 367c0 -56 -45 -101 -97 -101c-56 0 -102 45 -102 101c0 26 10 49 30 68c21 19 45 29 72 29c52 0 97 -45 97 -97zM271 226l19 -470h-218l19 470h180z" />
    <glyph glyph-name="cent" unicode="&#xa2;" 
d="M388 -32h-112v115c-117 21 -187 107 -187 227c0 124 72 210 187 237v115h112v-109c30 -3 59 -9 86 -19v-167c-29 13 -61 20 -96 20c-49 0 -82 -24 -82 -71c0 -48 30 -72 78 -72c39 0 77 9 114 28v-161c-25 -13 -59 -23 -100 -28v-115z" />
    <glyph glyph-name="sterling" unicode="&#xa3;" 
d="M544 633v-177c-55 25 -101 38 -138 38c-47 0 -71 -21 -72 -64l-1 -31h119v-123h-126c-4 -54 -12 -93 -24 -118h259v-158h-530v18c45 72 71 158 77 258h-49v123h54l3 40c11 149 104 234 243 234c64 0 126 -13 185 -40z" />
    <glyph glyph-name="currency" unicode="&#xa4;" 
d="M300 210c48 0 86 36 86 84c0 47 -38 85 -86 85c-47 0 -84 -38 -84 -85s37 -84 84 -84zM114 391l-63 65l87 89l63 -64c31 15 64 23 100 23c38 0 72 -8 101 -24l62 65l89 -89l-64 -64c15 -32 23 -65 23 -98c0 -31 -8 -63 -24 -98l65 -62l-89 -89l-64 63
c-29 -17 -62 -25 -99 -25s-71 8 -100 25l-63 -63l-87 89l63 63c-15 28 -23 60 -23 97c0 33 8 65 23 97z" />
    <glyph glyph-name="yen" unicode="&#xa5;" 
d="M49 139v67h514v-67h-140v-139h-243v139h-131zM563 308v-69h-514v69h109l-151 351h252l49 -248h4l39 248h251l-156 -351h117z" />
    <glyph glyph-name="brokenbar" unicode="&#xa6;" horiz-adv-x="410" 
d="M282 731v-376h-151v376h151zM131 -152v399h151v-399h-151z" />
    <glyph glyph-name="section" unicode="&#xa7;" horiz-adv-x="603" 
d="M247 337c0 -27 31 -45 92 -56c13 11 19 21 19 29c0 25 -41 49 -90 58c-14 -9 -21 -20 -21 -31zM315 718c20 0 48 -3 84 -10c37 -7 70 -16 99 -27v-151c-61 24 -120 36 -177 36c-39 0 -59 -9 -59 -27c0 -17 18 -28 55 -35c67 -13 121 -35 164 -67c43 -31 64 -72 64 -122
c0 -36 -21 -82 -57 -106c39 -27 59 -63 59 -107c0 -62 -24 -107 -72 -136c-47 -29 -106 -44 -177 -44c-80 0 -150 14 -209 42v170c21 -18 52 -34 93 -48c41 -13 76 -20 106 -20c35 0 53 10 53 31c0 24 -43 42 -98 61c-79 25 -183 69 -181 174c0 45 18 80 53 104
c-30 28 -45 61 -45 99c0 41 15 79 48 118c35 39 104 65 197 65z" />
    <glyph glyph-name="dieresis" unicode="&#xa8;" horiz-adv-x="598" 
d="M291 614c0 -49 -37 -91 -89 -91c-53 0 -89 41 -89 89c0 53 41 90 89 90c51 0 89 -40 89 -88zM505 614c0 -49 -37 -91 -88 -91c-53 0 -89 41 -89 89c0 53 41 90 89 90c51 0 88 -40 88 -88z" />
    <glyph glyph-name="copyright" unicode="&#xa9;" horiz-adv-x="888" 
d="M445 -48c-117 0 -210 37 -280 110c-70 74 -105 169 -105 285c0 113 37 207 112 280c75 74 166 111 273 111s197 -37 271 -111c75 -73 112 -167 112 -280s-37 -208 -112 -283c-74 -75 -164 -112 -271 -112zM445 641c-80 0 -147 -29 -200 -86s-80 -127 -80 -208
c0 -85 26 -156 77 -213s119 -85 203 -85c83 0 149 29 200 86s76 128 76 212c0 82 -26 151 -77 208s-118 86 -199 86zM589 272l1 -128c-35 -13 -75 -20 -122 -20c-75 0 -133 21 -175 62s-63 94 -63 159c0 61 21 114 64 158s102 66 177 66c42 0 79 -5 110 -16v-126
c-29 11 -58 17 -86 17c-61 0 -108 -32 -108 -100c0 -64 42 -96 101 -96c34 0 68 8 101 24z" />
    <glyph glyph-name="ordfeminine" unicode="&#xaa;" horiz-adv-x="377" 
d="M351 300h-141l-7 25c-27 -22 -59 -33 -98 -33c-56 0 -95 33 -95 86c0 55 48 97 148 97h35v7c0 18 -14 27 -41 27c-34 0 -66 -6 -97 -19v97c41 13 86 19 136 19c107 0 160 -47 160 -140v-166zM159 398c0 -9 4 -14 12 -14c16 0 24 10 24 31v5h-9c-18 0 -27 -7 -27 -22z" />
    <glyph glyph-name="guillemotleft" unicode="&#xab;" horiz-adv-x="569" 
d="M330 418l-133 -201l133 -207h-188l-122 199v10l122 199h188zM559 418l-133 -201l133 -207h-188l-122 199v10l122 199h188z" />
    <glyph glyph-name="logicalnot" unicode="&#xac;" 
d="M82 346h440v-281h-123v163h-317v118z" />
    <glyph glyph-name="sfthyphen" unicode="&#xad;" horiz-adv-x="372" 
d="M327 313v-127h-280v127h280z" />
    <glyph glyph-name="registered" unicode="&#xae;" horiz-adv-x="590" 
d="M185 310v265h132c64 0 109 -35 109 -95c0 -28 -12 -51 -36 -70l44 -100h-101l-39 114v9c21 7 31 21 31 43c0 17 -9 26 -27 26h-14v-192h-99zM299 174c-77 0 -139 24 -186 73s-70 113 -70 190c0 75 25 137 74 186c50 49 111 74 182 74s131 -25 180 -74s74 -111 74 -186
s-25 -138 -74 -188s-109 -75 -180 -75zM108 437c0 -57 17 -105 52 -144s82 -58 139 -58c56 0 101 19 136 58s52 87 52 144c0 55 -18 102 -53 141s-80 59 -135 59s-100 -20 -137 -59c-36 -39 -54 -86 -54 -141z" />
    <glyph glyph-name="overscore" unicode="&#xaf;" horiz-adv-x="587" 
d="M472 535h-357v122h357v-122z" />
    <glyph glyph-name="degree" unicode="&#xb0;" horiz-adv-x="345" 
d="M175 420c-80 0 -130 55 -130 124c0 71 55 124 130 124c34 0 63 -12 88 -36s37 -53 37 -88c0 -33 -13 -62 -38 -87s-54 -37 -87 -37zM173 595c-28 0 -54 -23 -54 -51c0 -31 21 -53 54 -53c29 0 53 24 53 53s-24 51 -53 51z" />
    <glyph glyph-name="plusminus" unicode="&#xb1;" 
d="M522 403v-119h-159v-139h-122v139h-159v119h159v137h122v-137h159zM82 0v118h440v-118h-440z" />
    <glyph glyph-name="twosuperior" unicode="&#xb2;" horiz-adv-x="393" 
d="M356 388h-337l-16 14c4 67 36 121 75 152c57 47 127 75 127 110c0 13 -8 20 -24 20c-24 0 -41 -15 -41 -42c0 -7 1 -15 4 -22l-123 24c-3 9 -4 18 -4 28c0 36 17 66 52 89c35 24 74 36 119 36c96 0 169 -50 169 -131c0 -41 -27 -80 -54 -100c-13 -9 -31 -22 -55 -37
c-23 -15 -40 -26 -51 -35h159v-106z" />
    <glyph glyph-name="threesuperior" unicode="&#xb3;" horiz-adv-x="393" 
d="M123 571l-15 15l64 92h-143v108h341v-21l-91 -129c55 -19 82 -57 82 -113c0 -40 -17 -74 -51 -101s-79 -40 -136 -40s-107 10 -151 29v125c33 -25 88 -43 127 -43c43 0 65 19 65 42c0 21 -22 41 -54 41c-13 0 -26 -2 -38 -5z" />
    <glyph glyph-name="acute" unicode="&#xb4;" horiz-adv-x="547" 
d="M330 711l132 -70l-157 -139h-108z" />
    <glyph glyph-name="mu" unicode="&#xb5;" horiz-adv-x="580" 
d="M352 0l-15 63h-5c-19 -29 -44 -49 -75 -62v-220h-217v666h217v-252c0 -26 10 -39 31 -39c22 0 33 19 33 58v233h219v-447h-188z" />
    <glyph glyph-name="mu" unicode="&#x3bc;" horiz-adv-x="580" 
d="M352 0l-15 63h-5c-19 -29 -44 -49 -75 -62v-220h-217v666h217v-252c0 -26 10 -39 31 -39c22 0 33 19 33 58v233h219v-447h-188z" />
    <glyph glyph-name="paragraph" unicode="&#xb6;" horiz-adv-x="620" 
d="M344 670v-460h-78c-69 0 -125 22 -170 66c-44 45 -66 100 -66 165c0 64 22 118 67 162c45 45 102 67 169 67h78zM384 671h202v-609c0 -175 -89 -267 -268 -276l-58 154c49 5 81 17 98 36s26 54 26 104v591z" />
    <glyph glyph-name="middot" unicode="&#xb7;" horiz-adv-x="324" 
d="M254 252c0 -52 -44 -96 -96 -96c-53 0 -99 44 -99 96c0 55 44 98 99 98c52 0 96 -43 96 -98z" />
    <glyph glyph-name="cedilla" unicode="&#xb8;" horiz-adv-x="449" 
d="M248 56l57 -26l-50 -83c75 -7 115 -49 115 -104c0 -40 -25 -117 -153 -117c-27 0 -58 5 -92 16v84c25 -13 52 -19 81 -19c25 0 50 16 50 40c0 21 -18 32 -42 32c-13 0 -26 -3 -38 -10l-20 17z" />
    <glyph glyph-name="onesuperior" unicode="&#xb9;" horiz-adv-x="393" 
d="M294 388h-156v226l-86 -32v127l219 82h23v-403z" />
    <glyph glyph-name="ordmasculine" unicode="&#xba;" horiz-adv-x="398" 
d="M198 607c117 0 187 -65 187 -157c0 -93 -72 -157 -187 -157c-116 0 -188 64 -188 157c0 91 72 157 188 157zM199 488c-19 0 -32 -17 -32 -36c0 -27 11 -41 32 -41c23 0 35 14 35 41c0 24 -12 36 -35 36z" />
    <glyph glyph-name="guillemotright" unicode="&#xbb;" horiz-adv-x="569" 
d="M198 10h-188l133 207l-133 201h188l122 -199v-10zM427 10h-188l133 207l-133 201h188l122 -199v-10z" />
    <glyph glyph-name="onequarter" unicode="&#xbc;" horiz-adv-x="900" 
d="M467 89l141 305h138l-106 -220h32v12l34 73h113v-85h32v-104h-32v-70h-146v70h-206v19zM595 687h123l-448 -722h-122zM302 301h-156v226l-86 -32v127l219 82h23v-403z" />
    <glyph glyph-name="onehalf" unicode="&#xbd;" horiz-adv-x="900" 
d="M856 -2h-337l-16 14c4 67 36 121 75 152c57 47 127 75 127 110c0 13 -8 20 -24 20c-24 0 -41 -15 -41 -42c0 -7 1 -15 4 -22l-123 24c-3 9 -4 18 -4 28c0 36 17 66 52 89c35 24 74 36 119 36c96 0 169 -50 169 -131c0 -41 -27 -80 -54 -100c-13 -9 -31 -22 -55 -37
c-23 -15 -40 -26 -51 -35h159v-106zM574 687h123l-448 -722h-122zM294 301h-156v226l-86 -32v127l219 82h23v-403z" />
    <glyph glyph-name="threequarters" unicode="&#xbe;" horiz-adv-x="900" 
d="M477 89l141 305h138l-106 -220h32v12l34 73h113v-85h32v-104h-32v-70h-146v70h-206v19zM154 481l-15 15l64 92h-143v108h341v-21l-91 -129c55 -19 82 -57 82 -113c0 -40 -17 -74 -51 -101s-79 -40 -136 -40s-107 10 -151 29v125c33 -25 88 -43 127 -43c43 0 65 19 65 42
c0 21 -22 41 -54 41c-13 0 -26 -2 -38 -5zM615 687h123l-448 -722h-122z" />
    <glyph glyph-name="questiondown" unicode="&#xbf;" horiz-adv-x="553" 
d="M274 -30c0 -25 23 -40 58 -40c28 0 59 6 94 17s62 23 83 36v-185c-71 -29 -144 -43 -217 -43c-89 0 -154 19 -196 56c-41 37 -62 82 -62 135c0 28 10 56 30 83c21 28 43 51 67 69s46 37 66 57c21 21 31 38 31 53c0 6 -1 11 -4 16l164 25c13 -25 20 -48 20 -69
c0 -45 -34 -92 -67 -120s-67 -63 -67 -90zM194 367c0 52 45 96 97 96c63 0 101 -41 101 -96c0 -56 -42 -98 -101 -98c-56 0 -97 42 -97 98z" />
    <glyph glyph-name="Agrave" unicode="&#xc0;" horiz-adv-x="715" 
d="M710 0h-239l-20 52h-194l-21 -52h-231l345 679h24zM359 287h-4l-45 -101h91zM436 703h-123l-162 139l139 70z" />
    <glyph glyph-name="Aacute" unicode="&#xc1;" horiz-adv-x="715" 
d="M710 0h-239l-20 52h-194l-21 -52h-231l345 679h24zM359 287h-4l-45 -101h91zM431 912l139 -70l-162 -139h-123z" />
    <glyph glyph-name="Acircumflex" unicode="&#xc2;" horiz-adv-x="715" 
d="M710 0h-239l-20 52h-194l-21 -52h-231l345 679h24zM359 287h-4l-45 -101h91zM381 905l184 -198h-151l-49 65l-55 -65h-145l190 198h26z" />
    <glyph glyph-name="Atilde" unicode="&#xc3;" horiz-adv-x="715" 
d="M710 0h-239l-20 52h-194l-21 -52h-231l345 679h24zM359 287h-4l-45 -101h91zM487 891l47 -79c-20 -57 -56 -97 -103 -97c-18 0 -43 9 -75 26c-31 17 -54 26 -67 26c-23 0 -42 -19 -58 -56l-52 80c21 56 60 98 108 98c15 0 39 -9 70 -28s55 -28 71 -28c20 0 40 19 59 58z
" />
    <glyph glyph-name="Adieresis" unicode="&#xc4;" horiz-adv-x="715" 
d="M340 792c0 -49 -38 -92 -89 -92c-53 0 -90 42 -90 90c0 53 42 90 90 90c51 0 89 -41 89 -88zM554 792c0 -49 -37 -92 -88 -92c-53 0 -89 42 -89 90c0 53 41 90 89 90c51 0 88 -40 88 -88zM710 0h-239l-20 52h-194l-21 -52h-231l345 679h24zM359 287h-4l-45 -101h91z" />
    <glyph glyph-name="Aring" unicode="&#xc5;" horiz-adv-x="715" 
d="M710 0h-239l-20 52h-194l-21 -52h-231l321 631c-69 12 -118 68 -118 136c0 41 14 75 42 103c28 29 63 43 104 43c42 0 77 -14 106 -43c29 -28 43 -62 43 -103c0 -64 -44 -117 -107 -133zM354 815c-23 0 -42 -21 -42 -48c0 -23 19 -42 42 -42c24 0 43 19 43 42
c0 27 -18 48 -43 48zM359 287h-4l-45 -101h91z" />
    <glyph glyph-name="AE" unicode="&#xc6;" horiz-adv-x="935" 
d="M895 181v-181h-468v65h-131l-40 -65h-252l468 659h413v-180h-239v-55h201v-172h-201v-71h249zM433 193v98h-4l-58 -98h62z" />
    <glyph glyph-name="Ccedilla" unicode="&#xc7;" horiz-adv-x="633" 
d="M592 213l1 -199c-52 -18 -112 -28 -180 -29l-33 -55c75 -7 115 -49 115 -104c0 -40 -25 -117 -153 -117c-27 0 -58 5 -92 16v84c25 -13 52 -19 81 -19c25 0 50 16 50 40c0 21 -18 32 -42 32c-13 0 -26 -3 -38 -10l-20 17l64 120c-98 11 -174 47 -229 108
c-54 62 -81 139 -81 231c0 61 14 117 41 168s70 94 128 127s127 50 206 50c63 0 119 -8 168 -24v-195c-42 17 -86 26 -132 26c-96 0 -167 -51 -167 -154c0 -100 63 -149 155 -149c49 0 102 12 158 36z" />
    <glyph glyph-name="Egrave" unicode="&#xc8;" horiz-adv-x="582" 
d="M542 0h-492v659h482v-180h-239v-55h201v-172h-201v-71h249v-181zM405 703h-123l-162 139l139 70z" />
    <glyph glyph-name="Eacute" unicode="&#xc9;" horiz-adv-x="582" 
d="M542 0h-492v659h482v-180h-239v-55h201v-172h-201v-71h249v-181zM337 912l139 -70l-162 -139h-123z" />
    <glyph glyph-name="Ecircumflex" unicode="&#xca;" horiz-adv-x="582" 
d="M542 0h-492v659h482v-180h-239v-55h201v-172h-201v-71h249v-181zM314 905l184 -198h-151l-49 65l-55 -65h-145l190 198h26z" />
    <glyph glyph-name="Edieresis" unicode="&#xcb;" horiz-adv-x="582" 
d="M274 792c0 -49 -38 -92 -89 -92c-53 0 -90 42 -90 90c0 53 42 90 90 90c51 0 89 -41 89 -88zM488 792c0 -49 -37 -92 -88 -92c-53 0 -89 42 -89 90c0 53 41 90 89 90c51 0 88 -40 88 -88zM542 0h-492v659h482v-180h-239v-55h201v-172h-201v-71h249v-181z" />
    <glyph glyph-name="Igrave" unicode="&#xcc;" horiz-adv-x="344" 
d="M50 659h244v-659h-244v659zM257 703h-123l-162 139l139 70z" />
    <glyph glyph-name="Iacute" unicode="&#xcd;" horiz-adv-x="344" 
d="M50 659h244v-659h-244v659zM243 912l139 -70l-162 -139h-123z" />
    <glyph glyph-name="Icircumflex" unicode="&#xce;" horiz-adv-x="344" 
d="M190 905l184 -198h-151l-49 65l-55 -65h-145l190 198h26zM50 659h244v-659h-244v659z" />
    <glyph glyph-name="Idieresis" unicode="&#xcf;" horiz-adv-x="344" 
d="M50 659h244v-659h-244v659zM155 792c0 -49 -38 -92 -89 -92c-53 0 -90 42 -90 90c0 53 42 90 90 90c51 0 89 -41 89 -88zM369 792c0 -49 -37 -92 -88 -92c-53 0 -89 42 -89 90c0 53 41 90 89 90c51 0 88 -40 88 -88z" />
    <glyph glyph-name="Eth" unicode="&#xd0;" horiz-adv-x="715" 
d="M332 0h-282v281h-45v101h45v277h264c120 0 211 -31 273 -94c62 -62 93 -140 93 -233c0 -167 -109 -333 -348 -332zM320 479h-28v-97h71v-101h-71v-100h28c79 0 122 57 122 153c0 97 -41 145 -122 145z" />
    <glyph glyph-name="Ntilde" unicode="&#xd1;" horiz-adv-x="722" 
d="M293 0h-243v679h24l350 -268h4v248h244v-679h-22l-353 283h-4v-263zM481 893l47 -79c-20 -57 -56 -97 -103 -97c-18 0 -43 9 -75 26c-31 17 -54 26 -67 26c-23 0 -42 -19 -58 -56l-52 80c21 56 60 98 108 98c15 0 39 -9 70 -28s55 -28 71 -28c20 0 40 19 59 58z" />
    <glyph glyph-name="Ograve" unicode="&#xd2;" horiz-adv-x="811" 
d="M404 -14c-110 0 -199 33 -267 98s-102 147 -102 246c0 97 34 179 103 245s159 99 268 99c110 0 199 -33 267 -99c69 -65 103 -147 103 -245s-35 -180 -105 -246c-69 -65 -158 -98 -267 -98zM408 178c79 0 129 63 129 152c0 85 -48 148 -129 148c-79 0 -131 -64 -131 -148
c0 -88 54 -152 131 -152zM488 703h-123l-162 139l139 70z" />
    <glyph glyph-name="Oacute" unicode="&#xd3;" horiz-adv-x="811" 
d="M404 -14c-110 0 -199 33 -267 98s-102 147 -102 246c0 97 34 179 103 245s159 99 268 99c110 0 199 -33 267 -99c69 -65 103 -147 103 -245s-35 -180 -105 -246c-69 -65 -158 -98 -267 -98zM408 178c79 0 129 63 129 152c0 85 -48 148 -129 148c-79 0 -131 -64 -131 -148
c0 -88 54 -152 131 -152zM482 912l139 -70l-162 -139h-123z" />
    <glyph glyph-name="Ocircumflex" unicode="&#xd4;" horiz-adv-x="811" 
d="M404 -14c-110 0 -199 33 -267 98s-102 147 -102 246c0 97 34 179 103 245s159 99 268 99c110 0 199 -33 267 -99c69 -65 103 -147 103 -245s-35 -180 -105 -246c-69 -65 -158 -98 -267 -98zM408 178c79 0 129 63 129 152c0 85 -48 148 -129 148c-79 0 -131 -64 -131 -148
c0 -88 54 -152 131 -152zM442 905l184 -198h-151l-49 65l-55 -65h-145l190 198h26z" />
    <glyph glyph-name="Otilde" unicode="&#xd5;" horiz-adv-x="811" 
d="M404 -14c-110 0 -199 33 -267 98s-102 147 -102 246c0 97 34 179 103 245s159 99 268 99c110 0 199 -33 267 -99c69 -65 103 -147 103 -245s-35 -180 -105 -246c-69 -65 -158 -98 -267 -98zM408 178c79 0 129 63 129 152c0 85 -48 148 -129 148c-79 0 -131 -64 -131 -148
c0 -88 54 -152 131 -152zM539 891l47 -79c-20 -57 -56 -97 -103 -97c-18 0 -43 9 -75 26c-31 17 -54 26 -67 26c-23 0 -42 -19 -58 -56l-52 80c21 56 60 98 108 98c15 0 39 -9 70 -28c32 -19 56 -28 71 -28c20 0 40 19 59 58z" />
    <glyph glyph-name="Odieresis" unicode="&#xd6;" horiz-adv-x="811" 
d="M404 -14c-110 0 -199 33 -267 98s-102 147 -102 246c0 97 34 179 103 245s159 99 268 99c110 0 199 -33 267 -99c69 -65 103 -147 103 -245s-35 -180 -105 -246c-69 -65 -158 -98 -267 -98zM408 178c79 0 129 63 129 152c0 85 -48 148 -129 148c-79 0 -131 -64 -131 -148
c0 -88 54 -152 131 -152zM391 792c0 -49 -38 -92 -89 -92c-53 0 -90 42 -90 90c0 53 42 90 90 90c51 0 89 -41 89 -88zM605 792c0 -49 -37 -92 -88 -92c-53 0 -89 42 -89 90c0 53 41 90 89 90c51 0 88 -40 88 -88z" />
    <glyph glyph-name="multiply" unicode="&#xd7;" 
d="M500 173l-83 -84l-113 113l-115 -115l-86 86l115 115l-113 113l84 83l112 -112l115 114l86 -86l-114 -115z" />
    <glyph glyph-name="Oslash" unicode="&#xd8;" horiz-adv-x="811" 
d="M404 -14c-74 0 -140 16 -197 47l-26 -33h-70l51 63c-81 63 -127 158 -127 267c0 97 34 179 103 245s159 99 268 99c77 0 146 -18 207 -54l32 39h66l-55 -69c76 -64 120 -156 120 -260c0 -98 -35 -180 -105 -246c-69 -65 -158 -98 -267 -98zM270 330c0 -38 9 -71 27 -100
l188 232c-22 15 -48 23 -77 23c-41 0 -75 -15 -100 -45c-25 -29 -38 -66 -38 -110zM408 170c83 0 135 67 135 160c0 35 -8 65 -23 92l-185 -230c21 -15 45 -22 73 -22z" />
    <glyph glyph-name="Ugrave" unicode="&#xd9;" horiz-adv-x="728" 
d="M434 659h244v-373c0 -90 -26 -163 -79 -218s-131 -82 -235 -82c-108 0 -187 26 -238 79s-76 123 -76 212v382h245v-387c0 -59 23 -89 70 -89c45 0 69 42 69 82v394zM460 703h-123l-162 139l139 70z" />
    <glyph glyph-name="Uacute" unicode="&#xda;" horiz-adv-x="728" 
d="M434 659h244v-373c0 -90 -26 -163 -79 -218s-131 -82 -235 -82c-108 0 -187 26 -238 79s-76 123 -76 212v382h245v-387c0 -59 23 -89 70 -89c45 0 69 42 69 82v394zM430 912l139 -70l-162 -139h-123z" />
    <glyph glyph-name="Ucircumflex" unicode="&#xdb;" horiz-adv-x="728" 
d="M434 659h244v-373c0 -90 -26 -163 -79 -218s-131 -82 -235 -82c-108 0 -187 26 -238 79s-76 123 -76 212v382h245v-387c0 -59 23 -89 70 -89c45 0 69 42 69 82v394zM382 902l191 -194h-157l-51 64l-57 -64h-151l198 194h27z" />
    <glyph glyph-name="Udieresis" unicode="&#xdc;" horiz-adv-x="728" 
d="M345 792c0 -49 -38 -92 -89 -92c-53 0 -90 42 -90 90c0 53 42 90 90 90c51 0 89 -41 89 -88zM559 792c0 -49 -37 -92 -88 -92c-53 0 -89 42 -89 90c0 53 41 90 89 90c51 0 88 -40 88 -88zM434 659h244v-373c0 -90 -26 -163 -79 -218s-131 -82 -235 -82
c-108 0 -187 26 -238 79s-76 123 -76 212v382h245v-387c0 -59 23 -89 70 -89c45 0 69 42 69 82v394z" />
    <glyph glyph-name="Yacute" unicode="&#xdd;" horiz-adv-x="685" 
d="M218 0v228l-213 431h262l50 -142c8 -23 17 -53 27 -90h4c5 26 13 55 24 88l47 144h261l-219 -431v-228h-243zM407 911l139 -70l-162 -139h-123z" />
    <glyph glyph-name="Thorn" unicode="&#xde;" horiz-adv-x="618" 
d="M608 354c0 -62 -22 -115 -66 -160c-44 -44 -106 -66 -185 -66h-64v-128h-243v659h241v-79h49c88 0 155 -22 200 -66c45 -43 68 -97 68 -160zM370 351c0 32 -20 55 -59 55h-20v-109h20c41 0 59 26 59 54z" />
    <glyph glyph-name="germandbls" unicode="&#xdf;" horiz-adv-x="635" 
d="M500 420v-5c76 -28 110 -105 110 -193c0 -107 -54 -233 -219 -233c-24 0 -51 6 -82 17v160c9 -2 17 -3 26 -3c41 0 62 27 62 81c0 71 -28 87 -89 87v136c35 1 53 25 53 58c0 31 -22 48 -45 48c-32 0 -47 -25 -47 -57v-516h-216v473c0 75 23 137 68 185
c45 49 111 73 197 73c73 0 132 -18 176 -54c45 -36 67 -83 67 -140c0 -35 -16 -89 -61 -117z" />
    <glyph glyph-name="agrave" unicode="&#xe0;" horiz-adv-x="547" 
d="M318 0l-10 42l-3 1c-35 -37 -86 -55 -153 -55c-77 0 -132 46 -132 126c0 41 17 77 52 106c35 30 88 45 159 45h59v7c0 28 -19 42 -74 42c-14 0 -35 -3 -62 -9c-27 -5 -50 -13 -68 -23v152c61 19 125 29 194 29c157 0 227 -82 227 -211v-252h-189zM224 145
c0 -20 8 -30 25 -30c25 0 44 23 44 58v15h-22c-31 0 -47 -14 -47 -43zM369 502h-108l-157 139l132 70z" />
    <glyph glyph-name="aacute" unicode="&#xe1;" horiz-adv-x="547" 
d="M318 0l-10 42l-3 1c-35 -37 -86 -55 -153 -55c-77 0 -132 46 -132 126c0 41 17 77 52 106c35 30 88 45 159 45h59v7c0 28 -19 42 -74 42c-14 0 -35 -3 -62 -9c-27 -5 -50 -13 -68 -23v152c61 19 125 29 194 29c157 0 227 -82 227 -211v-252h-189zM224 145
c0 -20 8 -30 25 -30c25 0 44 23 44 58v15h-22c-31 0 -47 -14 -47 -43zM325 711l132 -70l-157 -139h-108z" />
    <glyph glyph-name="acircumflex" unicode="&#xe2;" horiz-adv-x="547" 
d="M318 0l-10 42l-3 1c-35 -37 -86 -55 -153 -55c-77 0 -132 46 -132 126c0 41 17 77 52 106c35 30 88 45 159 45h59v7c0 28 -19 42 -74 42c-14 0 -35 -3 -62 -9c-27 -5 -50 -13 -68 -23v152c61 19 125 29 194 29c157 0 227 -82 227 -211v-252h-189zM224 145
c0 -20 8 -30 25 -30c25 0 44 23 44 58v15h-22c-31 0 -47 -14 -47 -43zM308 709l174 -207h-145l-45 65l-51 -65h-139l180 207h26z" />
    <glyph glyph-name="atilde" unicode="&#xe3;" horiz-adv-x="547" 
d="M318 0l-10 42l-3 1c-35 -37 -86 -55 -153 -55c-77 0 -132 46 -132 126c0 41 17 77 52 106c35 30 88 45 159 45h59v7c0 28 -19 42 -74 42c-14 0 -35 -3 -62 -9c-27 -5 -50 -13 -68 -23v152c61 19 125 29 194 29c157 0 227 -82 227 -211v-252h-189zM224 145
c0 -20 8 -30 25 -30c25 0 44 23 44 58v15h-22c-31 0 -47 -14 -47 -43zM410 686l47 -79c-20 -57 -56 -97 -103 -97c-18 0 -43 9 -75 26c-31 17 -54 26 -67 26c-23 0 -42 -19 -58 -56l-52 80c21 56 60 98 108 98c15 0 39 -9 70 -28c32 -19 56 -28 71 -28c20 0 40 19 59 58z
" />
    <glyph glyph-name="adieresis" unicode="&#xe4;" horiz-adv-x="547" 
d="M318 0l-10 42l-3 1c-35 -37 -86 -55 -153 -55c-77 0 -132 46 -132 126c0 41 17 77 52 106c35 30 88 45 159 45h59v7c0 28 -19 42 -74 42c-14 0 -35 -3 -62 -9c-27 -5 -50 -13 -68 -23v152c61 19 125 29 194 29c157 0 227 -82 227 -211v-252h-189zM224 145
c0 -20 8 -30 25 -30c25 0 44 23 44 58v15h-22c-31 0 -47 -14 -47 -43zM272 614c0 -49 -37 -91 -89 -91c-53 0 -89 41 -89 89c0 53 41 90 89 90c51 0 89 -40 89 -88zM486 614c0 -49 -37 -91 -88 -91c-53 0 -89 41 -89 89c0 53 41 90 89 90c51 0 88 -40 88 -88z" />
    <glyph glyph-name="aring" unicode="&#xe5;" horiz-adv-x="547" 
d="M318 0l-10 42l-3 1c-35 -37 -86 -55 -153 -55c-77 0 -132 46 -132 126c0 41 17 77 52 106c35 30 88 45 159 45h59v7c0 28 -19 42 -74 42c-14 0 -35 -3 -62 -9c-27 -5 -50 -13 -68 -23v152c61 19 125 29 194 29c157 0 227 -82 227 -211v-252h-189zM224 145
c0 -20 8 -30 25 -30c25 0 44 23 44 58v15h-22c-31 0 -47 -14 -47 -43zM141 631c0 41 14 75 42 103c28 29 63 43 104 43c42 0 77 -14 106 -43c29 -28 43 -62 43 -103c0 -39 -14 -72 -43 -99c-29 -26 -64 -39 -106 -39s-77 13 -105 40c-27 27 -41 59 -41 98zM287 679
c-23 0 -42 -21 -42 -48c0 -23 19 -42 42 -42c25 0 43 19 43 42c0 27 -18 48 -43 48z" />
    <glyph glyph-name="ae" unicode="&#xe6;" horiz-adv-x="812" 
d="M548 466c149 0 242 -84 242 -240v-24h-274c4 -48 36 -72 97 -72c51 0 101 14 151 43v-138c-56 -32 -117 -48 -184 -48c-87 0 -151 19 -191 56c-51 -39 -115 -58 -193 -58c-101 0 -176 44 -176 129c0 41 17 77 52 106c35 30 88 45 159 45h59v7c0 28 -19 42 -74 42
c-15 0 -36 -3 -65 -9c-29 -5 -52 -13 -70 -23v152c61 19 125 29 194 29c63 0 110 -13 141 -40c41 29 85 43 132 43zM228 152c0 -23 8 -34 24 -34c24 0 42 25 42 65v17h-21c-29 0 -45 -20 -45 -48zM558 318c-24 0 -40 -26 -40 -53h80c-1 35 -15 53 -40 53z" />
    <glyph glyph-name="ccedilla" unicode="&#xe7;" horiz-adv-x="449" 
d="M282 464c44 0 85 -7 123 -21v-167c-29 13 -57 20 -86 20c-49 0 -82 -24 -82 -71c0 -48 30 -72 78 -72c32 0 67 9 104 28v-161c-38 -20 -89 -31 -153 -32l-24 -41c75 -7 115 -49 115 -104c0 -40 -25 -117 -153 -117c-27 0 -58 5 -92 16v84c25 -13 52 -19 81 -19
c25 0 50 16 50 40c0 21 -18 32 -42 32c-13 0 -26 -3 -38 -10l-20 17l58 108c-113 21 -181 108 -181 225c0 75 24 135 72 179c49 44 112 66 190 66z" />
    <glyph glyph-name="egrave" unicode="&#xe8;" horiz-adv-x="525" 
d="M505 226v-22h-274c4 -49 36 -74 97 -74c51 0 101 14 151 43v-138c-55 -31 -117 -47 -184 -47c-93 0 -162 23 -207 69c-45 47 -68 103 -68 170s22 124 65 170c44 46 103 69 178 69c149 0 242 -84 242 -240zM366 502h-108l-157 139l132 70zM273 318c-24 0 -40 -26 -40 -53
h80c-1 35 -15 53 -40 53z" />
    <glyph glyph-name="eacute" unicode="&#xe9;" horiz-adv-x="525" 
d="M505 226v-22h-274c4 -49 36 -74 97 -74c51 0 101 14 151 43v-138c-55 -31 -117 -47 -184 -47c-93 0 -162 23 -207 69c-45 47 -68 103 -68 170s22 124 65 170c44 46 103 69 178 69c149 0 242 -84 242 -240zM312 711l132 -70l-157 -139h-108zM273 318
c-24 0 -40 -26 -40 -53h80c-1 35 -15 53 -40 53z" />
    <glyph glyph-name="ecircumflex" unicode="&#xea;" horiz-adv-x="525" 
d="M505 226v-22h-274c4 -49 36 -74 97 -74c51 0 101 14 151 43v-138c-55 -31 -117 -47 -184 -47c-93 0 -162 23 -207 69c-45 47 -68 103 -68 170s22 124 65 170c44 46 103 69 178 69c149 0 242 -84 242 -240zM289 709l174 -207h-145l-45 65l-51 -65h-139l180 207h26z
M273 318c-24 0 -40 -26 -40 -53h80c-1 35 -15 53 -40 53z" />
    <glyph glyph-name="edieresis" unicode="&#xeb;" horiz-adv-x="525" 
d="M505 226v-22h-274c4 -49 36 -74 97 -74c51 0 101 14 151 43v-138c-55 -31 -117 -47 -184 -47c-93 0 -162 23 -207 69c-45 47 -68 103 -68 170s22 124 65 170c44 46 103 69 178 69c149 0 242 -84 242 -240zM256 614c0 -49 -37 -91 -89 -91c-53 0 -89 41 -89 89
c0 53 41 90 89 90c51 0 89 -40 89 -88zM470 614c0 -49 -37 -91 -88 -91c-53 0 -89 41 -89 89c0 53 41 90 89 90c51 0 88 -40 88 -88zM273 318c-24 0 -40 -26 -40 -53h80c-1 35 -15 53 -40 53z" />
    <glyph glyph-name="igrave" unicode="&#xec;" horiz-adv-x="303" 
d="M261 447v-447h-219v447h219zM233 502h-108l-157 139l132 70z" />
    <glyph glyph-name="iacute" unicode="&#xed;" horiz-adv-x="303" 
d="M261 447v-447h-219v447h219zM201 711l132 -70l-157 -139h-108z" />
    <glyph glyph-name="icircumflex" unicode="&#xee;" horiz-adv-x="303" 
d="M173 709l174 -207h-145l-45 65l-51 -65h-139l180 207h26zM261 447v-447h-219v447h219z" />
    <glyph glyph-name="idieresis" unicode="&#xef;" horiz-adv-x="303" 
d="M138 614c0 -49 -37 -91 -89 -91c-53 0 -89 41 -89 89c0 53 41 90 89 90c51 0 89 -40 89 -88zM352 614c0 -49 -37 -91 -88 -91c-53 0 -89 41 -89 89c0 53 41 90 89 90c51 0 88 -40 88 -88zM261 447v-447h-219v447h219z" />
    <glyph glyph-name="eth" unicode="&#xf0;" horiz-adv-x="587" 
d="M168 480v83l26 19c-49 35 -89 61 -120 79l147 80c39 -21 76 -43 110 -67l85 57v-88l-26 -16c112 -99 177 -235 177 -364c0 -69 -19 -132 -60 -185c-40 -53 -115 -88 -210 -88c-85 0 -152 22 -200 65s-72 100 -72 171c0 66 25 122 74 168c50 47 111 70 183 70
c9 0 16 -1 23 -2l1 4c-14 29 -32 51 -55 68zM297 294c-35 0 -56 -29 -56 -65c0 -47 19 -70 56 -70c36 0 58 27 58 70c0 39 -22 65 -58 65z" />
    <glyph glyph-name="ntilde" unicode="&#xf1;" horiz-adv-x="585" 
d="M220 447l17 -55l4 -1c39 49 100 73 147 73c103 0 157 -57 157 -162v-302h-218v247c0 31 -10 47 -30 47c-27 0 -40 -22 -40 -65v-229h-217v447h180zM409 692l47 -79c-20 -57 -56 -97 -103 -97c-18 0 -43 9 -75 26c-31 17 -54 26 -67 26c-23 0 -42 -19 -58 -56l-52 80
c21 56 60 98 108 98c15 0 39 -9 70 -28s55 -28 71 -28c20 0 40 19 59 58z" />
    <glyph glyph-name="ograve" unicode="&#xf2;" horiz-adv-x="577" 
d="M289 464c84 0 150 -22 197 -67c47 -44 71 -101 71 -171c0 -71 -24 -128 -72 -171s-113 -65 -196 -65s-148 22 -197 65c-48 44 -72 101 -72 171c0 69 24 126 73 171s114 67 196 67zM292 294c-35 0 -56 -29 -56 -65c0 -47 19 -70 56 -70c36 0 58 27 58 70
c0 39 -22 65 -58 65zM371 502h-108l-157 139l132 70z" />
    <glyph glyph-name="oacute" unicode="&#xf3;" horiz-adv-x="577" 
d="M289 464c84 0 150 -22 197 -67c47 -44 71 -101 71 -171c0 -71 -24 -128 -72 -171s-113 -65 -196 -65s-148 22 -197 65c-48 44 -72 101 -72 171c0 69 24 126 73 171s114 67 196 67zM292 294c-35 0 -56 -29 -56 -65c0 -47 19 -70 56 -70c36 0 58 27 58 70
c0 39 -22 65 -58 65zM340 711l132 -70l-157 -139h-108z" />
    <glyph glyph-name="ocircumflex" unicode="&#xf4;" horiz-adv-x="577" 
d="M289 464c84 0 150 -22 197 -67c47 -44 71 -101 71 -171c0 -71 -24 -128 -72 -171s-113 -65 -196 -65s-148 22 -197 65c-48 44 -72 101 -72 171c0 69 24 126 73 171s114 67 196 67zM292 294c-35 0 -56 -29 -56 -65c0 -47 19 -70 56 -70c36 0 58 27 58 70
c0 39 -22 65 -58 65zM307 709l174 -207h-145l-45 65l-51 -65h-139l180 207h26z" />
    <glyph glyph-name="otilde" unicode="&#xf5;" horiz-adv-x="577" 
d="M289 464c84 0 150 -22 197 -67c47 -44 71 -101 71 -171c0 -71 -24 -128 -72 -171s-113 -65 -196 -65s-148 22 -197 65c-48 44 -72 101 -72 171c0 69 24 126 73 171s114 67 196 67zM292 294c-35 0 -56 -29 -56 -65c0 -47 19 -70 56 -70c36 0 58 27 58 70
c0 39 -22 65 -58 65zM419 685l47 -79c-20 -57 -56 -97 -103 -97c-18 0 -43 9 -75 26c-31 17 -54 26 -67 26c-23 0 -42 -19 -58 -56l-52 80c21 56 60 98 108 98c15 0 39 -9 70 -28s55 -28 71 -28c20 0 40 19 59 58z" />
    <glyph glyph-name="odieresis" unicode="&#xf6;" horiz-adv-x="577" 
d="M289 464c84 0 150 -22 197 -67c47 -44 71 -101 71 -171c0 -71 -24 -128 -72 -171s-113 -65 -196 -65s-148 22 -197 65c-48 44 -72 101 -72 171c0 69 24 126 73 171s114 67 196 67zM292 294c-35 0 -56 -29 -56 -65c0 -47 19 -70 56 -70c36 0 58 27 58 70
c0 39 -22 65 -58 65zM272 614c0 -49 -37 -91 -89 -91c-53 0 -89 41 -89 89c0 53 41 90 89 90c51 0 89 -40 89 -88zM486 614c0 -49 -37 -91 -88 -91c-53 0 -89 41 -89 89c0 53 41 90 89 90c51 0 88 -40 88 -88z" />
    <glyph glyph-name="divide" unicode="&#xf7;" 
d="M525 352v-120h-446v120h446zM237 406c-36 37 -36 97 0 133c37 37 97 37 133 0c37 -36 37 -96 0 -133c-36 -36 -96 -36 -133 0zM237 48c-36 37 -36 97 0 133c37 37 97 37 133 0c37 -36 37 -96 0 -133c-36 -36 -96 -36 -133 0z" />
    <glyph glyph-name="oslash" unicode="&#xf8;" horiz-adv-x="587" 
d="M294 464c59 0 110 -11 151 -34l15 17h54l-35 -41c55 -44 83 -104 83 -180c0 -71 -24 -128 -72 -171s-113 -65 -196 -65c-55 0 -103 10 -145 30l-17 -20h-55l36 42c-59 43 -88 105 -88 184c0 69 24 126 72 171c49 45 114 67 197 67zM297 305c-40 0 -65 -33 -65 -76
c0 -17 2 -30 6 -41l93 108c-10 6 -21 9 -34 9zM364 229c0 13 -2 24 -6 35l-94 -109c9 -5 20 -7 33 -7c41 0 67 32 67 81z" />
    <glyph glyph-name="ugrave" unicode="&#xf9;" horiz-adv-x="580" 
d="M352 0l-15 63h-5c-33 -49 -79 -73 -136 -73c-107 0 -156 55 -156 171v286h217v-252c0 -26 10 -39 31 -39c22 0 33 19 33 58v233h219v-447h-188zM372 502h-108l-157 139l132 70z" />
    <glyph glyph-name="uacute" unicode="&#xfa;" horiz-adv-x="580" 
d="M352 0l-15 63h-5c-33 -49 -79 -73 -136 -73c-107 0 -156 55 -156 171v286h217v-252c0 -26 10 -39 31 -39c22 0 33 19 33 58v233h219v-447h-188zM340 711l132 -70l-157 -139h-108z" />
    <glyph glyph-name="ucircumflex" unicode="&#xfb;" horiz-adv-x="580" 
d="M352 0l-15 63h-5c-33 -49 -79 -73 -136 -73c-107 0 -156 55 -156 171v286h217v-252c0 -26 10 -39 31 -39c22 0 33 19 33 58v233h219v-447h-188zM304 709l174 -207h-145l-45 65l-51 -65h-139l180 207h26z" />
    <glyph glyph-name="udieresis" unicode="&#xfc;" horiz-adv-x="580" 
d="M352 0l-15 63h-5c-33 -49 -79 -73 -136 -73c-107 0 -156 55 -156 171v286h217v-252c0 -26 10 -39 31 -39c22 0 33 19 33 58v233h219v-447h-188zM270 614c0 -49 -37 -91 -89 -91c-53 0 -89 41 -89 89c0 53 41 90 89 90c51 0 89 -40 89 -88zM484 614c0 -49 -37 -91 -88 -91
c-53 0 -89 41 -89 89c0 53 41 90 89 90c51 0 88 -40 88 -88z" />
    <glyph glyph-name="yacute" unicode="&#xfd;" horiz-adv-x="548" 
d="M44 -219l123 263l-172 404h219l50 -194h6l55 194h220l-292 -667h-209zM336 711l132 -70l-157 -139h-108z" />
    <glyph glyph-name="thorn" unicode="&#xfe;" horiz-adv-x="620" 
d="M256 711v-288l4 -3c31 28 71 42 122 42c71 0 125 -22 162 -67c37 -44 56 -100 56 -168c0 -73 -21 -131 -64 -174s-98 -64 -165 -64c-47 0 -84 10 -109 31l-6 -4v-235h-216v930h216zM331 153c33 0 56 29 56 69c0 46 -19 69 -56 69c-35 0 -58 -28 -58 -71
c0 -37 21 -67 58 -67z" />
    <glyph glyph-name="ydieresis" unicode="&#xff;" horiz-adv-x="548" 
d="M249 614c0 -49 -37 -91 -89 -91c-53 0 -89 41 -89 89c0 53 41 90 89 90c51 0 89 -40 89 -88zM463 614c0 -49 -37 -91 -88 -91c-53 0 -89 41 -89 89c0 53 41 90 89 90c51 0 88 -40 88 -88zM44 -219l123 263l-172 404h219l50 -194h6l55 194h220l-292 -667h-209z" />
    <glyph glyph-name="Amacron" unicode="&#x100;" horiz-adv-x="715" 
d="M710 0h-239l-20 52h-194l-21 -52h-231l345 679h24zM359 287h-4l-45 -101h91zM534 725h-357v122h357v-122z" />
    <glyph glyph-name="amacron" unicode="&#x101;" horiz-adv-x="547" 
d="M318 0l-10 42l-3 1c-35 -37 -86 -55 -153 -55c-77 0 -132 46 -132 126c0 41 17 77 52 106c35 30 88 45 159 45h59v7c0 28 -19 42 -74 42c-14 0 -35 -3 -62 -9c-27 -5 -50 -13 -68 -23v152c61 19 125 29 194 29c157 0 227 -82 227 -211v-252h-189zM224 145
c0 -20 8 -30 25 -30c25 0 44 23 44 58v15h-22c-31 0 -47 -14 -47 -43zM456 535h-357v122h357v-122z" />
    <glyph glyph-name="Abreve" unicode="&#x102;" horiz-adv-x="715" 
d="M359 701c-59 0 -103 18 -133 53c-29 35 -45 79 -47 131h92c5 -54 36 -81 93 -81c41 0 77 33 85 81h90c-2 -31 -9 -59 -20 -85c-23 -52 -80 -99 -160 -99zM710 0h-239l-20 52h-194l-21 -52h-231l345 679h24zM359 287h-4l-45 -101h91z" />
    <glyph glyph-name="abreve" unicode="&#x103;" horiz-adv-x="547" 
d="M318 0l-10 42l-3 1c-35 -37 -86 -55 -153 -55c-77 0 -132 46 -132 126c0 41 17 77 52 106c35 30 88 45 159 45h59v7c0 28 -19 42 -74 42c-14 0 -35 -3 -62 -9c-27 -5 -50 -13 -68 -23v152c61 19 125 29 194 29c157 0 227 -82 227 -211v-252h-189zM224 145
c0 -20 8 -30 25 -30c25 0 44 23 44 58v15h-22c-31 0 -47 -14 -47 -43zM283 493c-59 0 -103 18 -133 54c-29 37 -45 82 -47 136h92c5 -55 36 -82 93 -82c41 0 77 33 85 82h90c-3 -51 -20 -95 -49 -133s-73 -57 -131 -57z" />
    <glyph glyph-name="Aogonek" unicode="&#x104;" horiz-adv-x="715" 
d="M374 679l336 -679h-155c-37 -40 -55 -76 -55 -108c0 -35 23 -52 70 -52c33 0 66 9 99 27v-79c-45 -27 -99 -40 -160 -40c-89 0 -130 39 -130 96c0 49 30 111 90 160l-18 48h-194l-21 -52h-231l345 679h24zM359 287h-4l-45 -101h91z" />
    <glyph glyph-name="aogonek" unicode="&#x105;" horiz-adv-x="547" 
d="M315 13l-7 29l-3 1c-35 -37 -86 -55 -153 -55c-77 0 -132 46 -132 126c0 41 17 77 52 106c35 30 88 45 159 45h59v7c0 28 -19 42 -74 42c-14 0 -35 -3 -62 -9c-27 -5 -50 -13 -68 -23v152c61 19 125 29 194 29c157 0 227 -82 227 -211v-252h-116
c-36 -39 -54 -74 -54 -106c0 -35 23 -52 70 -52c33 0 66 9 99 27v-79c-45 -27 -99 -40 -160 -40c-89 0 -130 39 -130 96c0 52 34 116 99 167zM224 145c0 -20 8 -30 25 -30c25 0 44 23 44 58v15h-22c-31 0 -47 -14 -47 -43z" />
    <glyph glyph-name="Cacute" unicode="&#x106;" horiz-adv-x="633" 
d="M592 213l1 -199c-56 -19 -119 -29 -189 -29c-116 0 -207 32 -272 96s-97 146 -97 247c0 61 14 117 41 168s70 94 128 127s127 50 206 50c63 0 119 -8 168 -24v-195c-42 17 -86 26 -132 26c-96 0 -167 -51 -167 -154c0 -100 63 -149 155 -149c49 0 102 12 158 36zM424 912
l139 -70l-162 -139h-123z" />
    <glyph glyph-name="cacute" unicode="&#x107;" horiz-adv-x="449" 
d="M282 464c44 0 85 -7 123 -21v-167c-29 13 -57 20 -86 20c-49 0 -82 -24 -82 -71c0 -48 30 -72 78 -72c32 0 67 9 104 28v-161c-41 -21 -94 -32 -158 -32c-75 0 -134 21 -177 64s-64 98 -64 167c0 75 24 135 72 179c49 44 112 66 190 66zM295 711l132 -70l-157 -139h-108z
" />
    <glyph glyph-name="Ccircumflex" unicode="&#x108;" horiz-adv-x="633" 
d="M592 213l1 -199c-56 -19 -119 -29 -189 -29c-116 0 -207 32 -272 96s-97 146 -97 247c0 61 14 117 41 168s70 94 128 127s127 50 206 50c63 0 119 -8 168 -24v-195c-42 17 -86 26 -132 26c-96 0 -167 -51 -167 -154c0 -100 63 -149 155 -149c49 0 102 12 158 36zM395 915
l184 -198h-151l-49 65l-55 -65h-145l190 198h26z" />
    <glyph glyph-name="ccircumflex" unicode="&#x109;" horiz-adv-x="449" 
d="M282 464c44 0 85 -7 123 -21v-167c-29 13 -57 20 -86 20c-49 0 -82 -24 -82 -71c0 -48 30 -72 78 -72c32 0 67 9 104 28v-161c-41 -21 -94 -32 -158 -32c-75 0 -134 21 -177 64s-64 98 -64 167c0 75 24 135 72 179c49 44 112 66 190 66zM264 709l174 -207h-145l-45 65
l-51 -65h-139l180 207h26z" />
    <glyph glyph-name="Cdotaccent" unicode="&#x10a;" horiz-adv-x="633" 
d="M592 213l1 -199c-56 -19 -119 -29 -189 -29c-116 0 -207 32 -272 96s-97 146 -97 247c0 61 14 117 41 168s70 94 128 127s127 50 206 50c63 0 119 -8 168 -24v-195c-42 17 -86 26 -132 26c-96 0 -167 -51 -167 -154c0 -100 63 -149 155 -149c49 0 102 12 158 36zM508 816
c0 -63 -47 -114 -112 -114c-67 0 -111 51 -111 112c0 33 11 59 33 80c23 21 49 31 78 31c65 0 112 -49 112 -109z" />
    <glyph glyph-name="cdotaccent" unicode="&#x10b;" horiz-adv-x="449" 
d="M282 464c44 0 85 -7 123 -21v-167c-29 13 -57 20 -86 20c-49 0 -82 -24 -82 -71c0 -48 30 -72 78 -72c32 0 67 9 104 28v-161c-41 -21 -94 -32 -158 -32c-75 0 -134 21 -177 64s-64 98 -64 167c0 75 24 135 72 179c49 44 112 66 190 66zM383 610
c0 -63 -47 -114 -112 -114c-67 0 -111 51 -111 112c0 33 11 59 33 80c23 21 49 31 78 31c65 0 112 -49 112 -109z" />
    <glyph glyph-name="Ccaron" unicode="&#x10c;" horiz-adv-x="633" 
d="M592 213l1 -199c-56 -19 -119 -29 -189 -29c-116 0 -207 32 -272 96s-97 146 -97 247c0 61 14 117 41 168s70 94 128 127s127 50 206 50c63 0 119 -8 168 -24v-195c-42 17 -86 26 -132 26c-96 0 -167 -51 -167 -154c0 -100 63 -149 155 -149c49 0 102 12 158 36zM385 842
l49 65h151l-184 -198h-26l-190 198h145z" />
    <glyph glyph-name="ccaron" unicode="&#x10d;" horiz-adv-x="449" 
d="M282 464c44 0 85 -7 123 -21v-167c-29 13 -57 20 -86 20c-49 0 -82 -24 -82 -71c0 -48 30 -72 78 -72c32 0 67 9 104 28v-161c-41 -21 -94 -32 -158 -32c-75 0 -134 21 -177 64s-64 98 -64 167c0 75 24 135 72 179c49 44 112 66 190 66zM258 635l47 65h145l-174 -207h-26
l-180 207h139z" />
    <glyph glyph-name="Dcaron" unicode="&#x10e;" horiz-adv-x="715" 
d="M332 0h-282v659h264c120 0 211 -31 273 -94c62 -62 93 -140 93 -233c0 -167 -109 -333 -348 -332zM320 479h-28v-298h28c79 0 122 57 122 153c0 97 -41 145 -122 145zM315 832l49 65h151l-184 -198h-26l-190 198h145z" />
    <glyph glyph-name="dcaron" unicode="&#x10f;" horiz-adv-x="809" 
d="M356 440l6 4l1 267h209l1 -711h-167l-15 36h-5c-36 -32 -99 -46 -143 -46c-144 0 -218 92 -218 227c0 74 21 133 64 178s98 68 165 68c41 0 75 -8 102 -23zM294 296c-33 0 -56 -29 -56 -69c0 -46 19 -69 56 -69c35 0 58 28 58 71c0 37 -21 67 -58 67zM628 627
c0 51 36 88 83 88c53 0 86 -37 86 -89c0 -35 -11 -73 -33 -113c-21 -40 -47 -76 -76 -107l-61 10l44 140c-29 12 -43 36 -43 71z" />
    <glyph glyph-name="Dcroat" unicode="&#x110;" horiz-adv-x="715" 
d="M332 0h-282v281h-45v101h45v277h264c120 0 211 -31 273 -94c62 -62 93 -140 93 -233c0 -167 -109 -333 -348 -332zM320 479h-28v-97h71v-101h-71v-100h28c79 0 122 57 122 153c0 97 -41 145 -122 145z" />
    <glyph glyph-name="dslash" unicode="&#x111;" horiz-adv-x="608" 
d="M351 440l6 4v88h-137v85h137l1 94h209v-94h48v-85h-48l1 -532h-167l-15 36h-5c-36 -32 -99 -46 -143 -46c-144 0 -218 92 -218 227c0 74 21 133 64 178s98 68 165 68c41 0 75 -8 102 -23zM289 296c-33 0 -56 -29 -56 -69c0 -46 19 -69 56 -69c35 0 58 28 58 71
c0 37 -21 67 -58 67z" />
    <glyph glyph-name="Emacron" unicode="&#x112;" horiz-adv-x="582" 
d="M542 0h-492v659h482v-180h-239v-55h201v-172h-201v-71h249v-181zM473 725h-357v122h357v-122z" />
    <glyph glyph-name="emacron" unicode="&#x113;" horiz-adv-x="525" 
d="M505 226v-22h-274c4 -49 36 -74 97 -74c51 0 101 14 151 43v-138c-55 -31 -117 -47 -184 -47c-93 0 -162 23 -207 69c-45 47 -68 103 -68 170s22 124 65 170c44 46 103 69 178 69c149 0 242 -84 242 -240zM449 535h-357v122h357v-122zM273 318c-24 0 -40 -26 -40 -53h80
c-1 35 -15 53 -40 53z" />
    <glyph glyph-name="Ebreve" unicode="&#x114;" horiz-adv-x="582" 
d="M306 701c-59 0 -103 18 -133 53c-29 35 -45 79 -47 131h92c5 -54 36 -81 93 -81c41 0 77 33 85 81h90c-2 -31 -9 -59 -20 -85c-23 -52 -80 -99 -160 -99zM542 0h-492v659h482v-180h-239v-55h201v-172h-201v-71h249v-181z" />
    <glyph glyph-name="ebreve" unicode="&#x115;" horiz-adv-x="525" 
d="M505 226v-22h-274c4 -49 36 -74 97 -74c51 0 101 14 151 43v-138c-55 -31 -117 -47 -184 -47c-93 0 -162 23 -207 69c-45 47 -68 103 -68 170s22 124 65 170c44 46 103 69 178 69c149 0 242 -84 242 -240zM275 493c-59 0 -103 18 -133 54c-29 37 -45 82 -47 136h92
c5 -55 36 -82 93 -82c41 0 77 33 85 82h90c-3 -51 -20 -95 -49 -133s-73 -57 -131 -57zM273 318c-24 0 -40 -26 -40 -53h80c-1 35 -15 53 -40 53z" />
    <glyph glyph-name="Edotaccent" unicode="&#x116;" horiz-adv-x="582" 
d="M542 0h-492v659h482v-180h-239v-55h201v-172h-201v-71h249v-181zM420 806c0 -63 -47 -114 -112 -114c-67 0 -111 51 -111 112c0 33 11 59 33 80c23 21 49 31 78 31c65 0 112 -49 112 -109z" />
    <glyph glyph-name="edotaccent" unicode="&#x117;" horiz-adv-x="525" 
d="M505 226v-22h-274c4 -49 36 -74 97 -74c51 0 101 14 151 43v-138c-55 -31 -117 -47 -184 -47c-93 0 -162 23 -207 69c-45 47 -68 103 -68 170s22 124 65 170c44 46 103 69 178 69c149 0 242 -84 242 -240zM386 609c0 -63 -47 -114 -112 -114c-67 0 -111 51 -111 112
c0 33 11 59 33 80c23 21 49 31 78 31c65 0 112 -49 112 -109zM273 318c-24 0 -40 -26 -40 -53h80c-1 35 -15 53 -40 53z" />
    <glyph glyph-name="Eogonek" unicode="&#x118;" horiz-adv-x="582" 
d="M386 0h-336v659h482v-180h-239v-55h201v-172h-201v-71h249v-181h-67c-42 -43 -63 -82 -63 -116c0 -35 23 -52 70 -52c33 0 66 9 99 27v-79c-45 -27 -99 -40 -160 -40c-89 0 -130 39 -130 96c0 51 32 115 95 164z" />
    <glyph glyph-name="eogonek" unicode="&#x119;" horiz-adv-x="525" 
d="M505 226v-22h-274c4 -49 36 -74 97 -74c51 0 101 14 151 43v-138c-20 -12 -45 -23 -75 -32c-36 -39 -54 -74 -54 -106c0 -35 23 -52 70 -52c33 0 66 9 99 27v-79c-45 -27 -99 -40 -160 -40c-89 0 -130 39 -130 96c0 48 22 94 67 139h-1c-93 0 -162 23 -207 69
c-45 47 -68 103 -68 170s22 124 65 170c44 46 103 69 178 69c149 0 242 -84 242 -240zM273 318c-24 0 -40 -26 -40 -53h80c-1 35 -15 53 -40 53z" />
    <glyph glyph-name="Ecaron" unicode="&#x11a;" horiz-adv-x="582" 
d="M542 0h-492v659h482v-180h-239v-55h201v-172h-201v-71h249v-181zM297 832l49 65h151l-184 -198h-26l-190 198h145z" />
    <glyph glyph-name="ecaron" unicode="&#x11b;" horiz-adv-x="525" 
d="M505 226v-22h-274c4 -49 36 -74 97 -74c51 0 101 14 151 43v-138c-55 -31 -117 -47 -184 -47c-93 0 -162 23 -207 69c-45 47 -68 103 -68 170s22 124 65 170c44 46 103 69 178 69c149 0 242 -84 242 -240zM262 630l47 65h145l-174 -207h-26l-180 207h139zM273 318
c-24 0 -40 -26 -40 -53h80c-1 35 -15 53 -40 53z" />
    <glyph glyph-name="Gcircumflex" unicode="&#x11c;" horiz-adv-x="695" 
d="M415 675c76 0 143 -12 202 -37v-202c-51 29 -111 44 -178 44c-99 0 -158 -60 -158 -160c0 -97 43 -145 129 -145c13 0 23 0 29 1v180h209v-333c-71 -25 -154 -38 -248 -38c-237 0 -365 128 -365 340c0 98 33 181 100 248c67 68 160 102 280 102zM424 905l184 -198h-151
l-49 65l-55 -65h-145l190 198h26z" />
    <glyph glyph-name="gcircumflex" unicode="&#x11d;" horiz-adv-x="540" 
d="M13 88l82 89c-29 25 -43 61 -43 108c0 53 21 97 62 130s93 50 155 50c32 0 66 -6 101 -17h171v-89l-50 -12c7 -21 11 -43 11 -66c0 -43 -18 -79 -54 -110c-36 -30 -87 -45 -153 -45c-27 0 -57 3 -89 9l-16 -26l165 -18c121 -15 184 -51 184 -140c0 -33 -16 -72 -55 -113
s-120 -72 -225 -72c-81 0 -139 14 -176 42c-37 27 -55 58 -55 91c0 47 23 84 69 111l-24 4c-41 7 -68 37 -60 74zM204 -42c0 -29 27 -46 59 -46c16 0 30 4 42 12s18 19 18 33s-10 22 -31 25l-79 11c-6 -13 -9 -24 -9 -35zM282 338c-21 0 -35 -18 -35 -41
c0 -29 12 -44 35 -44s37 17 37 44c0 24 -14 41 -37 41zM297 709l174 -207h-145l-45 65l-51 -65h-139l180 207h26z" />
    <glyph glyph-name="Gbreve" unicode="&#x11e;" horiz-adv-x="695" 
d="M415 675c76 0 143 -12 202 -37v-202c-51 29 -111 44 -178 44c-99 0 -158 -60 -158 -160c0 -97 43 -145 129 -145c13 0 23 0 29 1v180h209v-333c-71 -25 -154 -38 -248 -38c-237 0 -365 128 -365 340c0 98 33 181 100 248c67 68 160 102 280 102zM409 701
c-59 0 -103 18 -133 53c-29 35 -45 79 -47 131h92c5 -54 36 -81 93 -81c41 0 77 33 85 81h90c-2 -31 -9 -59 -20 -85c-23 -52 -80 -99 -160 -99z" />
    <glyph glyph-name="gbreve" unicode="&#x11f;" horiz-adv-x="540" 
d="M13 88l82 89c-29 25 -43 61 -43 108c0 53 21 97 62 130s93 50 155 50c32 0 66 -6 101 -17h171v-89l-50 -12c7 -21 11 -43 11 -66c0 -43 -18 -79 -54 -110c-36 -30 -87 -45 -153 -45c-27 0 -57 3 -89 9l-16 -26l165 -18c121 -15 184 -51 184 -140c0 -33 -16 -72 -55 -113
s-120 -72 -225 -72c-81 0 -139 14 -176 42c-37 27 -55 58 -55 91c0 47 23 84 69 111l-24 4c-41 7 -68 37 -60 74zM204 -42c0 -29 27 -46 59 -46c16 0 30 4 42 12s18 19 18 33s-10 22 -31 25l-79 11c-6 -13 -9 -24 -9 -35zM282 338c-21 0 -35 -18 -35 -41
c0 -29 12 -44 35 -44s37 17 37 44c0 24 -14 41 -37 41zM279 493c-59 0 -103 18 -133 54c-29 37 -45 82 -47 136h92c5 -55 36 -82 93 -82c41 0 77 33 85 82h90c-3 -51 -20 -95 -49 -133s-73 -57 -131 -57z" />
    <glyph glyph-name="Gdotaccent" unicode="&#x120;" horiz-adv-x="695" 
d="M415 675c76 0 143 -12 202 -37v-202c-51 29 -111 44 -178 44c-99 0 -158 -60 -158 -160c0 -97 43 -145 129 -145c13 0 23 0 29 1v180h209v-333c-71 -25 -154 -38 -248 -38c-237 0 -365 128 -365 340c0 98 33 181 100 248c67 68 160 102 280 102zM523 815
c0 -63 -47 -114 -112 -114c-67 0 -111 51 -111 112c0 33 11 59 33 80c23 21 49 31 78 31c65 0 112 -49 112 -109z" />
    <glyph glyph-name="gdotaccent" unicode="&#x121;" horiz-adv-x="540" 
d="M13 88l82 89c-29 25 -43 61 -43 108c0 53 21 97 62 130s93 50 155 50c32 0 66 -6 101 -17h171v-89l-50 -12c7 -21 11 -43 11 -66c0 -43 -18 -79 -54 -110c-36 -30 -87 -45 -153 -45c-27 0 -57 3 -89 9l-16 -26l165 -18c121 -15 184 -51 184 -140c0 -33 -16 -72 -55 -113
s-120 -72 -225 -72c-81 0 -139 14 -176 42c-37 27 -55 58 -55 91c0 47 23 84 69 111l-24 4c-41 7 -68 37 -60 74zM204 -42c0 -29 27 -46 59 -46c16 0 30 4 42 12s18 19 18 33s-10 22 -31 25l-79 11c-6 -13 -9 -24 -9 -35zM282 338c-21 0 -35 -18 -35 -41
c0 -29 12 -44 35 -44s37 17 37 44c0 24 -14 41 -37 41zM393 607c0 -63 -47 -114 -112 -114c-67 0 -111 51 -111 112c0 33 11 59 33 80c23 21 49 31 78 31c65 0 112 -49 112 -109z" />
    <glyph glyph-name="Gcommaaccent" unicode="&#x122;" horiz-adv-x="695" 
d="M415 675c76 0 143 -12 202 -37v-202c-51 29 -111 44 -178 44c-99 0 -158 -60 -158 -160c0 -97 43 -145 129 -145c13 0 23 0 29 1v180h209v-333c-71 -25 -154 -38 -248 -38c-237 0 -365 128 -365 340c0 98 33 181 100 248c67 68 160 102 280 102zM329 -147
c0 51 36 88 83 88c53 0 86 -37 86 -89c0 -35 -11 -73 -33 -113c-21 -40 -47 -76 -76 -107l-61 10l44 140c-29 12 -43 36 -43 71z" />
    <glyph glyph-name="gcommaaccent" unicode="&#x123;" horiz-adv-x="540" 
d="M13 88l82 89c-29 25 -43 61 -43 108c0 53 21 97 62 130s93 50 155 50c32 0 66 -6 101 -17h171v-89l-50 -12c7 -21 11 -43 11 -66c0 -43 -18 -79 -54 -110c-36 -30 -87 -45 -153 -45c-27 0 -57 3 -89 9l-16 -26l165 -18c121 -15 184 -51 184 -140c0 -33 -16 -72 -55 -113
s-120 -72 -225 -72c-81 0 -139 14 -176 42c-37 27 -55 58 -55 91c0 47 23 84 69 111l-24 4c-41 7 -68 37 -60 74zM204 -42c0 -29 27 -46 59 -46c16 0 30 4 42 12s18 19 18 33s-10 22 -31 25l-79 11c-6 -13 -9 -24 -9 -35zM282 338c-21 0 -35 -18 -35 -41
c0 -29 12 -44 35 -44s37 17 37 44c0 24 -14 41 -37 41zM363 589c0 -51 -36 -88 -83 -88c-53 0 -86 37 -86 89c0 35 11 73 32 113c22 40 48 76 77 107l61 -10l-44 -140c29 -12 43 -36 43 -71z" />
    <glyph glyph-name="Hcircumflex" unicode="&#x124;" horiz-adv-x="722" 
d="M672 0h-244v247h-135v-247h-243v659h243v-230h135v230h244v-659zM378 905l184 -198h-151l-49 65l-55 -65h-145l190 198h26z" />
    <glyph glyph-name="hcircumflex" unicode="&#x125;" horiz-adv-x="584" 
d="M250 711v-303l3 -1c35 38 79 57 132 57c103 0 159 -58 159 -162v-302h-217v247c0 31 -10 47 -31 47c-26 0 -39 -22 -39 -65v-229h-217v711h210zM157 956l184 -198h-151l-49 65l-55 -65h-145l190 198h26z" />
    <glyph glyph-name="Hbar" unicode="&#x126;" horiz-adv-x="722" 
d="M672 0h-244v247h-135v-247h-243v494h-40v85h40v80h243v-80h135v80h244v-80h40v-85h-40v-494zM293 494v-65h135v65h-135z" />
    <glyph glyph-name="hbar" unicode="&#x127;" horiz-adv-x="584" 
d="M250 532v-124l3 -1c35 38 79 57 132 57c103 0 159 -58 159 -162v-302h-217v247c0 31 -10 47 -31 47c-26 0 -39 -22 -39 -65v-229h-217v532h-40v85h40v94h210v-94h145v-85h-145z" />
    <glyph glyph-name="Itilde" unicode="&#x128;" horiz-adv-x="344" 
d="M307 877l47 -79c-20 -57 -56 -97 -103 -97c-18 0 -43 9 -75 26c-31 17 -54 26 -67 26c-23 0 -42 -19 -58 -56l-52 80c21 56 60 98 108 98c15 0 39 -9 70 -28c32 -19 56 -28 71 -28c20 0 40 19 59 58zM50 659h244v-659h-244v659z" />
    <glyph glyph-name="itilde" unicode="&#x129;" horiz-adv-x="303" 
d="M261 447v-447h-219v447h219zM283 689l47 -79c-20 -57 -56 -97 -103 -97c-18 0 -43 9 -75 26c-31 17 -54 26 -67 26c-23 0 -42 -19 -58 -56l-52 80c21 56 60 98 108 98c15 0 39 -9 70 -28s55 -28 71 -28c20 0 40 19 59 58z" />
    <glyph glyph-name="Imacron" unicode="&#x12a;" horiz-adv-x="344" 
d="M50 659h244v-659h-244v659zM354 725h-357v122h357v-122z" />
    <glyph glyph-name="imacron" unicode="&#x12b;" horiz-adv-x="303" 
d="M261 447v-447h-219v447h219zM330 535h-357v122h357v-122z" />
    <glyph glyph-name="Ibreve" unicode="&#x12c;" horiz-adv-x="403" 
d="M203 704c-59 0 -103 18 -133 53c-29 35 -45 79 -47 131h92c5 -54 36 -81 93 -81c41 0 77 33 85 81h90c-2 -31 -9 -59 -20 -85c-23 -52 -80 -99 -160 -99zM79 659h244v-659h-244v659z" />
    <glyph glyph-name="ibreve" unicode="&#x12d;" horiz-adv-x="303" 
d="M154 493c-59 0 -103 18 -133 54c-29 37 -45 82 -47 136h92c5 -55 36 -82 93 -82c41 0 77 33 85 82h90c-3 -51 -20 -95 -49 -133s-73 -57 -131 -57zM261 447v-447h-219v447h219z" />
    <glyph glyph-name="Iogonek" unicode="&#x12e;" horiz-adv-x="344" 
d="M50 659h244v-659h-76c-45 -43 -67 -83 -67 -120c0 -35 23 -52 70 -52c33 0 66 9 99 27v-79c-45 -27 -99 -40 -160 -40c-89 0 -130 39 -130 96c0 52 33 117 100 168h-80v659z" />
    <glyph glyph-name="iogonek" unicode="&#x12f;" horiz-adv-x="303" 
d="M261 447v-447h-69c-45 -43 -68 -83 -68 -121c0 -35 23 -52 70 -52c33 0 66 9 99 27v-79c-45 -27 -99 -40 -160 -40c-89 0 -130 39 -130 96c0 52 34 118 102 169h-63v447h219zM266 613c0 -63 -47 -114 -112 -114c-67 0 -111 51 -111 112c0 33 11 59 33 80
c23 21 49 31 78 31c65 0 112 -49 112 -109z" />
    <glyph glyph-name="Idot" unicode="&#x130;" horiz-adv-x="344" 
d="M288 804c0 -63 -47 -114 -112 -114c-67 0 -111 51 -111 112c0 33 11 59 33 80c23 21 49 31 78 31c65 0 112 -49 112 -109zM50 659h244v-659h-244v659z" />
    <glyph glyph-name="dotlessi" unicode="&#x131;" horiz-adv-x="303" 
d="M261 447v-447h-219v447h219z" />
    <glyph glyph-name="IJ" unicode="&#x132;" horiz-adv-x="876" 
d="M578 659h247v-340c0 -99 -16 -171 -59 -235s-124 -99 -239 -99c-71 0 -132 14 -184 42v191c51 -27 96 -41 134 -41c71 0 101 39 101 124v358zM50 659h244v-659h-244v659z" />
    <glyph glyph-name="ij" unicode="&#x133;" horiz-adv-x="601" 
d="M568 613c0 -63 -47 -114 -112 -114c-67 0 -111 51 -111 112c0 33 11 59 33 80c23 21 49 31 78 31c65 0 112 -49 112 -109zM347 447h217v-394c0 -104 -33 -182 -89 -223c-56 -43 -119 -62 -196 -66l-67 173c53 3 88 13 107 31s28 53 28 104v375zM261 447v-447h-219v447
h219zM266 613c0 -63 -47 -114 -112 -114c-67 0 -111 51 -111 112c0 33 11 59 33 80c23 21 49 31 78 31c65 0 112 -49 112 -109z" />
    <glyph glyph-name="Jcircumflex" unicode="&#x134;" horiz-adv-x="552" 
d="M255 660h247v-340c0 -99 -16 -171 -59 -235s-124 -99 -239 -99c-71 0 -132 14 -184 42v191c51 -27 96 -41 134 -41c71 0 101 39 101 124v358zM396 905l184 -198h-151l-49 65l-55 -65h-145l190 198h26z" />
    <glyph glyph-name="jcircumflex" unicode="&#x135;" horiz-adv-x="303" 
d="M44 447h217v-394c0 -104 -33 -182 -89 -223c-56 -43 -119 -62 -196 -66l-61 161c51 5 85 17 102 38c18 20 27 56 27 108v376zM164 709l174 -207h-145l-45 65l-51 -65h-139l180 207h26z" />
    <glyph glyph-name="Kcommaaccent" unicode="&#x136;" horiz-adv-x="712" 
d="M50 659h244v-293l153 293h256l-187 -318l191 -341h-259l-154 314v-314h-244v659zM273 -133c0 51 36 88 83 88c53 0 86 -37 86 -89c0 -35 -11 -73 -33 -113c-21 -40 -47 -76 -76 -107l-61 10l44 140c-29 12 -43 36 -43 71z" />
    <glyph glyph-name="kcommaaccent" unicode="&#x137;" horiz-adv-x="591" 
d="M209 -133c0 51 36 88 83 88c53 0 86 -37 86 -89c0 -35 -11 -73 -33 -113c-21 -40 -47 -76 -76 -107l-61 10l44 140c-29 12 -43 36 -43 71zM465 232l121 -232h-226l-93 209v-209h-227v711h227v-459l94 195h223z" />
    <glyph glyph-name="kgreenlandic" unicode="&#x138;" horiz-adv-x="591" 
d="M465 232l121 -232h-226l-93 209v-209h-227v447h227v-195l94 195h223z" />
    <glyph glyph-name="Lacute" unicode="&#x139;" horiz-adv-x="552" 
d="M294 659v-478h248v-181h-491v659h243zM232 912l139 -70l-162 -139h-123z" />
    <glyph glyph-name="lacute" unicode="&#x13a;" horiz-adv-x="299" 
d="M222 957l139 -70l-162 -139h-123zM259 711v-711h-219v711h219z" />
    <glyph glyph-name="Lcommaaccent" unicode="&#x13b;" horiz-adv-x="552" 
d="M217 -133c0 51 36 88 83 88c53 0 86 -37 86 -89c0 -35 -11 -73 -33 -113c-21 -40 -47 -76 -76 -107l-61 10l44 140c-29 12 -43 36 -43 71zM294 659v-478h248v-181h-491v659h243z" />
    <glyph glyph-name="lcommaaccent" unicode="&#x13c;" horiz-adv-x="299" 
d="M74 -133c0 51 36 88 83 88c53 0 86 -37 86 -89c0 -35 -11 -73 -33 -113c-21 -40 -47 -76 -76 -107l-61 10l44 140c-29 12 -43 36 -43 71zM259 711v-711h-219v711h219z" />
    <glyph glyph-name="Lcaron" unicode="&#x13d;" horiz-adv-x="552" 
d="M399 581c0 51 36 88 83 88c53 0 86 -37 86 -89c0 -35 -11 -73 -33 -113c-21 -40 -47 -76 -76 -107l-61 10l44 140c-29 12 -43 36 -43 71zM294 659v-478h248v-181h-491v659h243z" />
    <glyph glyph-name="lcaron" unicode="&#x13e;" horiz-adv-x="512" 
d="M331 630c0 51 36 88 83 88c53 0 86 -37 86 -89c0 -35 -11 -73 -33 -113c-21 -40 -47 -76 -76 -107l-61 10l44 140c-29 12 -43 36 -43 71zM285 711v-711h-219v711h219z" />
    <glyph glyph-name="Ldot" unicode="&#x13f;" horiz-adv-x="552" 
d="M567 380c0 -63 -47 -114 -112 -114c-67 0 -111 51 -111 112c0 33 11 59 33 80c23 21 49 31 78 31c65 0 112 -49 112 -109zM294 659v-478h248v-181h-491v659h243z" />
    <glyph glyph-name="ldot" unicode="&#x140;" horiz-adv-x="539" 
d="M538 371c0 -63 -47 -114 -112 -114c-67 0 -111 51 -111 112c0 33 11 59 33 80c23 21 49 31 78 31c65 0 112 -49 112 -109zM285 711v-711h-219v711h219z" />
    <glyph glyph-name="Lslash" unicode="&#x141;" horiz-adv-x="552" 
d="M294 326v-145h248v-181h-491v250l-56 -17v86l56 18v322h243v-244l97 31v-90z" />
    <glyph glyph-name="lslash" unicode="&#x142;" horiz-adv-x="299" 
d="M259 334v-334h-219v267l-54 -16v86l54 17v357h219v-287l60 19v-90z" />
    <glyph glyph-name="Nacute" unicode="&#x143;" horiz-adv-x="722" 
d="M293 0h-243v679h24l350 -268h4v248h244v-679h-22l-353 283h-4v-263zM393 912l139 -70l-162 -139h-123z" />
    <glyph glyph-name="nacute" unicode="&#x144;" horiz-adv-x="585" 
d="M220 447l17 -55l4 -1c39 49 100 73 147 73c103 0 157 -57 157 -162v-302h-218v247c0 31 -10 47 -30 47c-27 0 -40 -22 -40 -65v-229h-217v447h180zM322 711l132 -70l-157 -139h-108z" />
    <glyph glyph-name="Ncommaaccent" unicode="&#x145;" horiz-adv-x="722" 
d="M293 0h-243v679h24l350 -268h4v248h244v-679h-22l-353 283h-4v-263zM306 -133c0 51 36 88 83 88c53 0 86 -37 86 -89c0 -35 -11 -73 -33 -113c-21 -40 -47 -76 -76 -107l-61 10l44 140c-29 12 -43 36 -43 71z" />
    <glyph glyph-name="ncommaaccent" unicode="&#x146;" horiz-adv-x="585" 
d="M220 447l17 -55l4 -1c39 49 100 73 147 73c103 0 157 -57 157 -162v-302h-218v247c0 31 -10 47 -30 47c-27 0 -40 -22 -40 -65v-229h-217v447h180zM208 -133c0 51 36 88 83 88c53 0 86 -37 86 -89c0 -35 -11 -73 -33 -113c-21 -40 -47 -76 -76 -107l-61 10l44 140
c-29 12 -43 36 -43 71z" />
    <glyph glyph-name="Ncaron" unicode="&#x147;" horiz-adv-x="722" 
d="M293 0h-243v679h24l350 -268h4v248h244v-679h-22l-353 283h-4v-263zM375 832l49 65h151l-184 -198h-26l-190 198h145z" />
    <glyph glyph-name="ncaron" unicode="&#x148;" horiz-adv-x="585" 
d="M220 447l17 -55l4 -1c39 49 100 73 147 73c103 0 157 -57 157 -162v-302h-218v247c0 31 -10 47 -30 47c-27 0 -40 -22 -40 -65v-229h-217v447h180zM277 630l47 65h145l-174 -207h-26l-180 207h139z" />
    <glyph glyph-name="napostrophe" unicode="&#x149;" horiz-adv-x="689" 
d="M324 447l17 -55l4 -1c39 49 100 73 147 73c103 0 157 -57 157 -162v-302h-218v247c0 31 -10 47 -30 47c-27 0 -40 -22 -40 -65v-229h-217v447h180zM13 674c0 51 36 88 83 88c53 0 86 -37 86 -89c0 -35 -11 -73 -33 -113c-21 -40 -47 -76 -76 -107l-61 10l44 140
c-29 12 -43 36 -43 71z" />
    <glyph glyph-name="Eng" unicode="&#x14a;" horiz-adv-x="722" 
d="M293 0h-243v679h24l350 -268h4v248h244v-611c0 -216 -153 -283 -297 -289l-71 165c100 9 131 52 131 157v72l-138 110h-4v-263z" />
    <glyph glyph-name="eng" unicode="&#x14b;" horiz-adv-x="585" 
d="M220 447l17 -55l4 -1c39 49 100 73 147 73c103 0 157 -57 157 -162v-249c0 -216 -143 -283 -287 -289l-61 161c51 5 85 17 102 38c18 20 27 56 27 108l1 176c0 31 -10 47 -30 47c-27 0 -40 -22 -40 -65v-229h-217v447h180z" />
    <glyph glyph-name="Omacron" unicode="&#x14c;" horiz-adv-x="811" 
d="M404 -14c-110 0 -199 33 -267 98s-102 147 -102 246c0 97 34 179 103 245s159 99 268 99c110 0 199 -33 267 -99c69 -65 103 -147 103 -245s-35 -180 -105 -246c-69 -65 -158 -98 -267 -98zM408 178c79 0 129 63 129 152c0 85 -48 148 -129 148c-79 0 -131 -64 -131 -148
c0 -88 54 -152 131 -152zM586 725h-357v122h357v-122z" />
    <glyph glyph-name="omacron" unicode="&#x14d;" horiz-adv-x="577" 
d="M289 464c84 0 150 -22 197 -67c47 -44 71 -101 71 -171c0 -71 -24 -128 -72 -171s-113 -65 -196 -65s-148 22 -197 65c-48 44 -72 101 -72 171c0 69 24 126 73 171s114 67 196 67zM292 294c-35 0 -56 -29 -56 -65c0 -47 19 -70 56 -70c36 0 58 27 58 70
c0 39 -22 65 -58 65zM471 535h-357v122h357v-122z" />
    <glyph glyph-name="Obreve" unicode="&#x14e;" horiz-adv-x="811" 
d="M404 -14c-110 0 -199 33 -267 98s-102 147 -102 246c0 97 34 179 103 245s159 99 268 99c110 0 199 -33 267 -99c69 -65 103 -147 103 -245s-35 -180 -105 -246c-69 -65 -158 -98 -267 -98zM408 178c79 0 129 63 129 152c0 85 -48 148 -129 148c-79 0 -131 -64 -131 -148
c0 -88 54 -152 131 -152zM408 701c-59 0 -103 18 -133 53c-29 35 -45 79 -47 131h92c5 -54 36 -81 93 -81c41 0 77 33 85 81h90c-2 -31 -9 -59 -20 -85c-23 -52 -80 -99 -160 -99z" />
    <glyph glyph-name="obreve" unicode="&#x14f;" horiz-adv-x="577" 
d="M289 464c84 0 150 -22 197 -67c47 -44 71 -101 71 -171c0 -71 -24 -128 -72 -171s-113 -65 -196 -65s-148 22 -197 65c-48 44 -72 101 -72 171c0 69 24 126 73 171s114 67 196 67zM292 294c-35 0 -56 -29 -56 -65c0 -47 19 -70 56 -70c36 0 58 27 58 70
c0 39 -22 65 -58 65zM292 493c-59 0 -103 18 -133 54c-29 37 -45 82 -47 136h92c5 -55 36 -82 93 -82c41 0 77 33 85 82h90c-3 -51 -20 -95 -49 -133s-73 -57 -131 -57z" />
    <glyph glyph-name="Ohungarumlaut" unicode="&#x150;" horiz-adv-x="811" 
d="M404 -14c-110 0 -199 33 -267 98s-102 147 -102 246c0 97 34 179 103 245s159 99 268 99c110 0 199 -33 267 -99c69 -65 103 -147 103 -245s-35 -180 -105 -246c-69 -65 -158 -98 -267 -98zM408 178c79 0 129 63 129 152c0 85 -48 148 -129 148c-79 0 -131 -64 -131 -148
c0 -88 54 -152 131 -152zM362 912l139 -70l-162 -139h-123zM565 912l139 -70l-162 -139h-123z" />
    <glyph glyph-name="ohungarumlaut" unicode="&#x151;" horiz-adv-x="577" 
d="M289 464c84 0 150 -22 197 -67c47 -44 71 -101 71 -171c0 -71 -24 -128 -72 -171s-113 -65 -196 -65s-148 22 -197 65c-48 44 -72 101 -72 171c0 69 24 126 73 171s114 67 196 67zM292 294c-35 0 -56 -29 -56 -65c0 -47 19 -70 56 -70c36 0 58 27 58 70
c0 39 -22 65 -58 65zM246 730l132 -70l-157 -139h-108zM441 730l132 -70l-157 -139h-108z" />
    <glyph glyph-name="OE" unicode="&#x152;" horiz-adv-x="1003" 
d="M406 674c41 0 80 -5 116 -15h431v-180h-239v-55h201v-172h-201v-71h249v-181h-448c-35 -9 -72 -14 -111 -14c-110 0 -199 33 -267 98s-102 147 -102 246c0 97 34 179 103 245s159 99 268 99zM408 178c23 0 44 5 63 16v269c-20 10 -41 15 -63 15c-79 0 -131 -64 -131 -148
c0 -88 54 -152 131 -152z" />
    <glyph glyph-name="oe" unicode="&#x153;" horiz-adv-x="858" 
d="M289 464c69 0 123 -17 161 -51c39 35 87 53 146 53c149 0 242 -84 242 -240v-22h-274c4 -49 36 -74 97 -74c51 0 101 14 151 43v-138c-55 -31 -117 -47 -184 -47c-73 0 -132 18 -175 54c-39 -35 -96 -52 -172 -52c-82 0 -146 22 -192 65s-69 100 -69 171
c0 69 24 126 73 171s114 67 196 67zM292 294c-35 0 -56 -29 -56 -65c0 -47 19 -70 56 -70c36 0 58 27 58 70c0 39 -22 65 -58 65zM606 318c-24 0 -40 -26 -40 -53h80c-1 35 -15 53 -40 53z" />
    <glyph glyph-name="Racute" unicode="&#x154;" horiz-adv-x="680" 
d="M548 256l129 -256h-254l-106 258v17c51 21 70 71 70 112c0 49 -24 92 -75 92h-20v-479h-242v659h309c77 0 140 -21 191 -62s76 -97 76 -168c0 -70 -26 -128 -78 -173zM361 912l139 -70l-162 -139h-123z" />
    <glyph glyph-name="racute" unicode="&#x155;" horiz-adv-x="449" 
d="M205 448l19 -73l5 -1c20 59 61 88 124 88c29 0 57 -6 86 -19v-194c-31 17 -62 26 -95 26c-58 0 -87 -33 -87 -98v-177h-217v448h165zM239 711l132 -70l-157 -139h-108z" />
    <glyph glyph-name="Rcommaaccent" unicode="&#x156;" horiz-adv-x="680" 
d="M548 256l129 -256h-254l-106 258v17c51 21 70 71 70 112c0 49 -24 92 -75 92h-20v-479h-242v659h309c77 0 140 -21 191 -62s76 -97 76 -168c0 -70 -26 -128 -78 -173zM248 -133c0 51 36 88 83 88c53 0 86 -37 86 -89c0 -35 -11 -73 -33 -113c-21 -40 -47 -76 -76 -107
l-61 10l44 140c-29 12 -43 36 -43 71z" />
    <glyph glyph-name="rcommaaccent" unicode="&#x157;" horiz-adv-x="449" 
d="M205 448l19 -73l5 -1c20 59 61 88 124 88c29 0 57 -6 86 -19v-194c-31 17 -62 26 -95 26c-58 0 -87 -33 -87 -98v-177h-217v448h165zM69 -133c0 51 36 88 83 88c53 0 86 -37 86 -89c0 -35 -11 -73 -33 -113c-21 -40 -47 -76 -76 -107l-61 10l44 140c-29 12 -43 36 -43 71
z" />
    <glyph glyph-name="Rcaron" unicode="&#x158;" horiz-adv-x="680" 
d="M548 256l129 -256h-254l-106 258v17c51 21 70 71 70 112c0 49 -24 92 -75 92h-20v-479h-242v659h309c77 0 140 -21 191 -62s76 -97 76 -168c0 -70 -26 -128 -78 -173zM310 832l49 65h151l-184 -198h-26l-190 198h145z" />
    <glyph glyph-name="rcaron" unicode="&#x159;" horiz-adv-x="449" 
d="M205 448l19 -73l5 -1c20 59 61 88 124 88c29 0 57 -6 86 -19v-194c-31 17 -62 26 -95 26c-58 0 -87 -33 -87 -98v-177h-217v448h165zM210 630l47 65h145l-174 -207h-26l-180 207h139z" />
    <glyph glyph-name="Sacute" unicode="&#x15a;" horiz-adv-x="594" 
d="M521 634v-185c-21 13 -50 25 -88 37s-71 18 -99 18c-39 0 -58 -9 -58 -28c0 -59 288 -60 288 -285c0 -44 -17 -89 -56 -133s-116 -74 -216 -74c-106 0 -193 18 -262 55v203c23 -20 59 -38 108 -55c49 -16 90 -24 123 -24c40 0 60 10 60 31c0 78 -288 79 -288 284
c-1 91 69 201 261 201c77 0 152 -15 227 -45zM334 910l139 -70l-162 -139h-123z" />
    <glyph glyph-name="sacute" unicode="&#x15b;" horiz-adv-x="430" 
d="M385 430v-141c-32 19 -93 36 -133 36c-19 0 -29 -5 -29 -14s47 -26 94 -46c48 -19 95 -69 95 -134c0 -57 -44 -144 -201 -144c-73 0 -136 14 -191 41v155c20 -16 47 -31 81 -44s62 -19 84 -19c21 0 31 5 31 15c0 28 -192 53 -192 186c0 37 16 70 48 99s80 43 145 43
c55 0 111 -11 168 -33zM248 711l132 -70l-157 -139h-108z" />
    <glyph glyph-name="Scircumflex" unicode="&#x15c;" horiz-adv-x="594" 
d="M521 634v-185c-21 13 -50 25 -88 37s-71 18 -99 18c-39 0 -58 -9 -58 -28c0 -59 288 -60 288 -285c0 -44 -17 -89 -56 -133s-116 -74 -216 -74c-106 0 -193 18 -262 55v203c23 -20 59 -38 108 -55c49 -16 90 -24 123 -24c40 0 60 10 60 31c0 78 -288 79 -288 284
c-1 91 69 201 261 201c77 0 152 -15 227 -45zM318 908l184 -198h-151l-49 65l-55 -65h-145l190 198h26z" />
    <glyph glyph-name="scircumflex" unicode="&#x15d;" horiz-adv-x="430" 
d="M385 430v-141c-32 19 -93 36 -133 36c-19 0 -29 -5 -29 -14s47 -26 94 -46c48 -19 95 -69 95 -134c0 -57 -44 -144 -201 -144c-73 0 -136 14 -191 41v155c20 -16 47 -31 81 -44s62 -19 84 -19c21 0 31 5 31 15c0 28 -192 53 -192 186c0 37 16 70 48 99s80 43 145 43
c55 0 111 -11 168 -33zM233 709l174 -207h-145l-45 65l-51 -65h-139l180 207h26z" />
    <glyph glyph-name="Scedilla" unicode="&#x15e;" horiz-adv-x="594" 
d="M521 634v-185c-21 13 -50 25 -88 37s-71 18 -99 18c-39 0 -58 -9 -58 -28c0 -59 288 -60 288 -285c0 -44 -17 -87 -54 -131c-36 -43 -110 -73 -206 -76l-22 -37c75 -7 115 -49 115 -104c0 -40 -25 -117 -153 -117c-27 0 -58 5 -92 16v84c25 -13 52 -19 81 -19
c25 0 50 16 50 40c0 21 -18 32 -42 32c-13 0 -26 -3 -38 -10l-20 17l54 100c-85 7 -154 25 -207 53v203c23 -20 59 -38 108 -55c49 -16 90 -24 123 -24c40 0 60 10 60 31c0 78 -288 79 -288 284c-1 91 69 201 261 201c77 0 152 -15 227 -45z" />
    <glyph glyph-name="scedilla" unicode="&#x15f;" horiz-adv-x="430" 
d="M385 430v-141c-32 19 -93 36 -133 36c-19 0 -29 -5 -29 -14s47 -26 94 -46c48 -19 95 -69 95 -134c0 -57 -43 -138 -187 -144l-24 -40c75 -7 115 -49 115 -104c0 -40 -25 -117 -153 -117c-27 0 -58 5 -92 16v84c25 -13 52 -19 81 -19c25 0 50 16 50 40
c0 21 -18 32 -42 32c-13 0 -26 -3 -38 -10l-20 17l56 104c-55 7 -101 20 -138 38v155c20 -16 47 -31 81 -44s62 -19 84 -19c21 0 31 5 31 15c0 28 -192 53 -192 186c0 37 16 70 48 99s80 43 145 43c55 0 111 -11 168 -33z" />
    <glyph glyph-name="Scaron" unicode="&#x160;" horiz-adv-x="594" 
d="M521 634v-185c-21 13 -50 25 -88 37s-71 18 -99 18c-39 0 -58 -9 -58 -28c0 -59 288 -60 288 -285c0 -44 -17 -89 -56 -133s-116 -74 -216 -74c-106 0 -193 18 -262 55v203c23 -20 59 -38 108 -55c49 -16 90 -24 123 -24c40 0 60 10 60 31c0 78 -288 79 -288 284
c-1 91 69 201 261 201c77 0 152 -15 227 -45zM278 832l49 65h151l-184 -198h-26l-190 198h145z" />
    <glyph glyph-name="scaron" unicode="&#x161;" horiz-adv-x="430" 
d="M385 430v-141c-32 19 -93 36 -133 36c-19 0 -29 -5 -29 -14s47 -26 94 -46c48 -19 95 -69 95 -134c0 -57 -44 -144 -201 -144c-73 0 -136 14 -191 41v155c20 -16 47 -31 81 -44s62 -19 84 -19c21 0 31 5 31 15c0 28 -192 53 -192 186c0 37 16 70 48 99s80 43 145 43
c55 0 111 -11 168 -33zM210 630l47 65h145l-174 -207h-26l-180 207h139z" />
    <glyph glyph-name="Tcommaaccent" unicode="&#x162;" horiz-adv-x="597" 
d="M587 659v-180h-168v-479h-81l-32 -53c75 -7 115 -49 115 -104c0 -40 -25 -117 -153 -117c-27 0 -58 5 -92 16v84c25 -13 52 -19 81 -19c25 0 50 16 50 40c0 21 -18 32 -42 32c-13 0 -26 -3 -38 -10l-20 17l61 114h-93v479h-165v180h577z" />
    <glyph glyph-name="tcommaaccent" unicode="&#x163;" horiz-adv-x="420" 
d="M405 171v-150c-38 -24 -86 -36 -145 -36c-7 0 -22 1 -27 1l-23 -39c75 -7 115 -49 115 -104c0 -40 -25 -117 -153 -117c-27 0 -58 5 -92 16v84c25 -13 52 -19 81 -19c25 0 50 16 50 40c0 21 -18 32 -42 32c-13 0 -26 -3 -38 -10l-20 17l61 113c-66 25 -99 81 -99 170v122
h-63v116l253 197h25v-157h111v-156h-111v-78c0 -41 16 -62 49 -62c17 0 40 7 68 20z" />
    <glyph glyph-name="Tcaron" unicode="&#x164;" horiz-adv-x="597" 
d="M587 659v-180h-168v-479h-244v479h-165v180h577zM298 832l49 65h151l-184 -198h-26l-190 198h145z" />
    <glyph glyph-name="tcaron" unicode="&#x165;" horiz-adv-x="522" 
d="M390 171v-150c-38 -24 -86 -36 -145 -36c-125 0 -187 61 -187 184v122h-63v116l253 197h25v-157h111v-156h-111v-78c0 -41 16 -62 49 -62c17 0 40 7 68 20zM352 701c0 51 36 88 83 88c53 0 86 -37 86 -89c0 -35 -11 -73 -33 -113c-21 -40 -47 -76 -76 -107l-61 10l44 140
c-29 12 -43 36 -43 71z" />
    <glyph glyph-name="Tbar" unicode="&#x166;" horiz-adv-x="597" 
d="M587 659v-180h-168v-121h121v-85h-121v-273h-244v273h-118v85h118v121h-165v180h577z" />
    <glyph glyph-name="tbar" unicode="&#x167;" horiz-adv-x="420" 
d="M405 171v-150c-38 -24 -86 -36 -145 -36c-125 0 -187 61 -187 184v30h-49v72h49v20h-63v116l253 197h25v-157h111v-156h-111v-20h83v-72h-83c4 -32 20 -48 49 -48c17 0 40 7 68 20z" />
    <glyph glyph-name="Utilde" unicode="&#x168;" horiz-adv-x="728" 
d="M434 659h244v-373c0 -90 -26 -163 -79 -218s-131 -82 -235 -82c-108 0 -187 26 -238 79s-76 123 -76 212v382h245v-387c0 -59 23 -89 70 -89c45 0 69 42 69 82v394zM493 883l47 -79c-20 -57 -56 -97 -103 -97c-18 0 -43 9 -75 26c-31 17 -54 26 -67 26
c-23 0 -42 -19 -58 -56l-52 80c21 56 60 98 108 98c15 0 39 -9 70 -28s55 -28 71 -28c20 0 40 19 59 58z" />
    <glyph glyph-name="utilde" unicode="&#x169;" horiz-adv-x="580" 
d="M352 0l-15 63h-5c-33 -49 -79 -73 -136 -73c-107 0 -156 55 -156 171v286h217v-252c0 -26 10 -39 31 -39c22 0 33 19 33 58v233h219v-447h-188zM420 685l47 -79c-20 -57 -56 -97 -103 -97c-18 0 -43 9 -75 26c-31 17 -54 26 -67 26c-23 0 -42 -19 -58 -56l-52 80
c21 56 60 98 108 98c16 0 40 -9 71 -28s55 -28 70 -28c20 0 40 19 59 58z" />
    <glyph glyph-name="Umacron" unicode="&#x16a;" horiz-adv-x="728" 
d="M434 659h244v-373c0 -90 -26 -163 -79 -218s-131 -82 -235 -82c-108 0 -187 26 -238 79s-76 123 -76 212v382h245v-387c0 -59 23 -89 70 -89c45 0 69 42 69 82v394zM545 725h-357v122h357v-122z" />
    <glyph glyph-name="umacron" unicode="&#x16b;" horiz-adv-x="580" 
d="M352 0l-15 63h-5c-33 -49 -79 -73 -136 -73c-107 0 -156 55 -156 171v286h217v-252c0 -26 10 -39 31 -39c22 0 33 19 33 58v233h219v-447h-188zM469 535h-357v122h357v-122z" />
    <glyph glyph-name="Ubreve" unicode="&#x16c;" horiz-adv-x="728" 
d="M365 690c-59 0 -103 18 -133 54c-29 37 -45 82 -47 136h92c5 -55 36 -82 93 -82c41 0 77 33 85 82h90c-3 -51 -20 -95 -49 -133s-73 -57 -131 -57zM434 659h244v-373c0 -90 -26 -163 -79 -218s-131 -82 -235 -82c-108 0 -187 26 -238 79s-76 123 -76 212v382h245v-387
c0 -59 23 -89 70 -89c45 0 69 42 69 82v394z" />
    <glyph glyph-name="ubreve" unicode="&#x16d;" horiz-adv-x="580" 
d="M352 0l-15 63h-5c-33 -49 -79 -73 -136 -73c-107 0 -156 55 -156 171v286h217v-252c0 -26 10 -39 31 -39c22 0 33 19 33 58v233h219v-447h-188zM291 493c-59 0 -103 18 -133 54c-29 37 -45 82 -47 136h92c5 -55 36 -82 93 -82c41 0 77 33 85 82h90
c-3 -51 -20 -95 -49 -133s-73 -57 -131 -57z" />
    <glyph glyph-name="Uring" unicode="&#x16e;" horiz-adv-x="728" 
d="M434 659h244v-373c0 -90 -26 -163 -79 -218s-131 -82 -235 -82c-108 0 -187 26 -238 79s-76 123 -76 212v382h245v-387c0 -59 23 -89 70 -89c45 0 69 42 69 82v394zM218 829c0 41 14 75 42 103c28 29 63 43 104 43c42 0 77 -14 106 -43c29 -28 43 -62 43 -103
c0 -39 -14 -72 -43 -99c-29 -26 -64 -39 -106 -39s-77 13 -105 40c-27 27 -41 59 -41 98zM364 877c-23 0 -42 -21 -42 -48c0 -23 19 -42 42 -42c24 0 43 19 43 42c0 27 -18 48 -43 48z" />
    <glyph glyph-name="uring" unicode="&#x16f;" horiz-adv-x="580" 
d="M352 0l-15 63h-5c-33 -49 -79 -73 -136 -73c-107 0 -156 55 -156 171v286h217v-252c0 -26 10 -39 31 -39c22 0 33 19 33 58v233h219v-447h-188zM141 626c0 41 14 75 42 103c28 29 63 43 104 43c42 0 77 -14 106 -43c29 -28 43 -62 43 -103c0 -39 -14 -72 -43 -99
c-29 -26 -64 -39 -106 -39s-77 13 -105 40c-27 27 -41 59 -41 98zM287 674c-23 0 -42 -21 -42 -48c0 -23 19 -42 42 -42c25 0 43 18 43 42c0 27 -18 48 -43 48z" />
    <glyph glyph-name="Uhungarumlaut" unicode="&#x170;" horiz-adv-x="728" 
d="M434 659h244v-373c0 -90 -26 -163 -79 -218s-131 -82 -235 -82c-108 0 -187 26 -238 79s-76 123 -76 212v382h245v-387c0 -59 23 -89 70 -89c45 0 69 42 69 82v394zM329 912l139 -70l-162 -139h-123zM532 912l139 -70l-162 -139h-123z" />
    <glyph glyph-name="uhungarumlaut" unicode="&#x171;" horiz-adv-x="580" 
d="M352 0l-15 63h-5c-33 -49 -79 -73 -136 -73c-107 0 -156 55 -156 171v286h217v-252c0 -26 10 -39 31 -39c22 0 33 19 33 58v233h219v-447h-188zM227 730l132 -70l-157 -139h-108zM422 730l132 -70l-157 -139h-108z" />
    <glyph glyph-name="Uogonek" unicode="&#x172;" horiz-adv-x="728" 
d="M434 659h244v-373c0 -164 -89 -278 -262 -297c-41 -42 -61 -80 -61 -114c0 -35 23 -52 70 -52c33 0 66 9 99 27v-79c-45 -27 -99 -40 -160 -40c-89 0 -130 39 -130 96c0 49 31 112 91 161c-188 12 -275 124 -275 289v382h245v-387c0 -59 23 -89 70 -89c45 0 69 42 69 82
v394z" />
    <glyph glyph-name="uogonek" unicode="&#x173;" horiz-adv-x="580" 
d="M350 7l-13 56h-5c-33 -49 -79 -73 -136 -73c-107 0 -156 55 -156 171v286h217v-252c0 -26 10 -39 31 -39c22 0 33 19 33 58v233h219v-447h-109c-37 -41 -56 -78 -56 -109c0 -35 23 -52 70 -52c33 0 66 9 99 27v-79c-45 -27 -99 -40 -160 -40c-89 0 -130 39 -130 96
c0 51 32 115 96 164z" />
    <glyph glyph-name="Wcircumflex" unicode="&#x174;" horiz-adv-x="1037" 
d="M717 -22h-26l-173 336l-172 -336h-26l-315 681h256l109 -245h4l130 259h26l138 -259h4l106 245h254zM533 905l184 -198h-151l-49 65l-55 -65h-145l190 198h26z" />
    <glyph glyph-name="wcircumflex" unicode="&#x175;" horiz-adv-x="802" 
d="M412 465l109 -162h4l62 144h220l-240 -461h-30l-134 202l-133 -202h-30l-245 461h223l66 -144h4l97 162h27zM416 709l174 -207h-145l-45 65l-51 -65h-139l180 207h26z" />
    <glyph glyph-name="Ycircumflex" unicode="&#x176;" horiz-adv-x="685" 
d="M218 0v228l-213 431h262l50 -142c8 -23 17 -53 27 -90h4c5 26 13 55 24 88l47 144h261l-219 -431v-228h-243zM361 905l184 -198h-151l-49 65l-55 -65h-145l190 198h26z" />
    <glyph glyph-name="ycircumflex" unicode="&#x177;" horiz-adv-x="548" 
d="M44 -219l123 263l-172 404h219l50 -194h6l55 194h220l-292 -667h-209zM288 709l174 -207h-145l-45 65l-51 -65h-139l180 207h26z" />
    <glyph glyph-name="Ydieresis" unicode="&#x178;" horiz-adv-x="685" 
d="M329 792c0 -49 -38 -92 -89 -92c-53 0 -90 42 -90 90c0 53 42 90 90 90c51 0 89 -41 89 -88zM543 792c0 -49 -37 -92 -88 -92c-53 0 -89 42 -89 90c0 53 41 90 89 90c51 0 88 -40 88 -88zM218 0v228l-213 431h262l50 -142c8 -23 17 -53 27 -90h4c5 26 13 55 24 88l47 144
h261l-219 -431v-228h-243z" />
    <glyph glyph-name="Zacute" unicode="&#x179;" horiz-adv-x="656" 
d="M279 479h-221v180h583v-19l-263 -459h241v-181h-604l1 22zM400 912l139 -70l-162 -139h-123z" />
    <glyph glyph-name="zacute" unicode="&#x17a;" horiz-adv-x="476" 
d="M450 0h-440l1 15l160 274h-132v158h427v-13l-162 -276h146v-158zM304 711l132 -70l-157 -139h-108z" />
    <glyph glyph-name="Zdotaccent" unicode="&#x17b;" horiz-adv-x="656" 
d="M279 479h-221v180h583v-19l-263 -459h241v-181h-604l1 22zM475 807c0 -63 -47 -114 -112 -114c-67 0 -111 51 -111 112c0 33 11 59 33 80c23 21 49 31 78 31c65 0 112 -49 112 -109z" />
    <glyph glyph-name="zdotaccent" unicode="&#x17c;" horiz-adv-x="476" 
d="M450 0h-440l1 15l160 274h-132v158h427v-13l-162 -276h146v-158zM367 602c0 -63 -47 -114 -112 -114c-67 0 -111 51 -111 112c0 33 11 59 33 80c23 21 49 31 78 31c65 0 112 -49 112 -109z" />
    <glyph glyph-name="Zcaron" unicode="&#x17d;" horiz-adv-x="656" 
d="M279 479h-221v180h583v-19l-263 -459h241v-181h-604l1 22zM356 832l49 65h151l-184 -198h-26l-190 198h145z" />
    <glyph glyph-name="zcaron" unicode="&#x17e;" horiz-adv-x="476" 
d="M450 0h-440l1 15l160 274h-132v158h427v-13l-162 -276h146v-158zM253 630l47 65h145l-174 -207h-26l-180 207h139z" />
    <glyph glyph-name="longs" unicode="&#x17f;" horiz-adv-x="341" 
d="M439 714v-162c-25 9 -49 14 -72 14c-54 0 -81 -27 -81 -82v-484h-215v306h-66v126l66 16v47c0 160 95 235 247 235c38 0 78 -5 121 -16z" />
    <glyph glyph-name="florin" unicode="&#x192;" 
d="M192 267h-79v139h92l4 51c11 147 81 221 210 221c47 0 93 -7 138 -20v-175c-21 8 -42 12 -63 12c-40 0 -61 -18 -64 -54l-3 -35h112v-139h-124l-11 -130c-15 -171 -89 -249 -230 -249c-38 0 -82 8 -133 25v176c28 -9 51 -13 70 -13c47 0 66 30 73 107z" />
    <glyph glyph-name="AEacute" unicode="&#x1fc;" horiz-adv-x="935" 
d="M895 181v-181h-468v65h-131l-40 -65h-252l468 659h413v-180h-239v-55h201v-172h-201v-71h249zM433 193v98h-4l-58 -98h62zM650 912l139 -70l-162 -139h-123z" />
    <glyph glyph-name="aeacute" unicode="&#x1fd;" horiz-adv-x="812" 
d="M548 466c149 0 242 -84 242 -240v-24h-274c4 -48 36 -72 97 -72c51 0 101 14 151 43v-138c-56 -32 -117 -48 -184 -48c-87 0 -151 19 -191 56c-51 -39 -115 -58 -193 -58c-101 0 -176 44 -176 129c0 41 17 77 52 106c35 30 88 45 159 45h59v7c0 28 -19 42 -74 42
c-15 0 -36 -3 -65 -9c-29 -5 -52 -13 -70 -23v152c61 19 125 29 194 29c63 0 110 -13 141 -40c41 29 85 43 132 43zM228 152c0 -23 8 -34 24 -34c24 0 42 25 42 65v17h-21c-29 0 -45 -20 -45 -48zM558 318c-24 0 -40 -26 -40 -53h80c-1 35 -15 53 -40 53zM481 711l132 -70
l-157 -139h-108z" />
    <glyph glyph-name="Oslashacute" unicode="&#x1fe;" horiz-adv-x="811" 
d="M404 -14c-74 0 -140 16 -197 47l-26 -33h-70l51 63c-81 63 -127 158 -127 267c0 97 34 179 103 245s159 99 268 99c77 0 146 -18 207 -54l32 39h66l-55 -69c76 -64 120 -156 120 -260c0 -98 -35 -180 -105 -246c-69 -65 -158 -98 -267 -98zM270 330c0 -38 9 -71 27 -100
l188 232c-22 15 -48 23 -77 23c-41 0 -75 -15 -100 -45c-25 -29 -38 -66 -38 -110zM408 170c83 0 135 67 135 160c0 35 -8 65 -23 92l-185 -230c21 -15 45 -22 73 -22zM481 918l139 -70l-162 -139h-123z" />
    <glyph glyph-name="oslashacute" unicode="&#x1ff;" horiz-adv-x="587" 
d="M294 464c59 0 110 -11 151 -34l15 17h54l-35 -41c55 -44 83 -104 83 -180c0 -71 -24 -128 -72 -171s-113 -65 -196 -65c-55 0 -103 10 -145 30l-17 -20h-55l36 42c-59 43 -88 105 -88 184c0 69 24 126 72 171c49 45 114 67 197 67zM297 305c-40 0 -65 -33 -65 -76
c0 -17 2 -30 6 -41l93 108c-10 6 -21 9 -34 9zM364 229c0 13 -2 24 -6 35l-94 -109c9 -5 20 -7 33 -7c41 0 67 32 67 81zM363 711l132 -70l-157 -139h-108z" />
    <glyph glyph-name="Scommaaccent" unicode="&#x218;" horiz-adv-x="594" 
d="M521 634v-185c-21 13 -50 25 -88 37s-71 18 -99 18c-39 0 -58 -9 -58 -28c0 -59 288 -60 288 -285c0 -44 -17 -89 -56 -133s-116 -74 -216 -74c-106 0 -193 18 -262 55v203c23 -20 59 -38 108 -55c49 -16 90 -24 123 -24c40 0 60 10 60 31c0 78 -288 79 -288 284
c-1 91 69 201 261 201c77 0 152 -15 227 -45zM181 -133c0 51 36 88 83 88c53 0 86 -37 86 -89c0 -35 -11 -73 -33 -113c-21 -40 -47 -76 -76 -107l-61 10l44 140c-29 12 -43 36 -43 71z" />
    <glyph glyph-name="scommaaccent" unicode="&#x219;" horiz-adv-x="430" 
d="M385 430v-141c-32 19 -93 36 -133 36c-19 0 -29 -5 -29 -14s47 -26 94 -46c48 -19 95 -69 95 -134c0 -57 -44 -144 -201 -144c-73 0 -136 14 -191 41v155c20 -16 47 -31 81 -44s62 -19 84 -19c21 0 31 5 31 15c0 28 -192 53 -192 186c0 37 16 70 48 99s80 43 145 43
c55 0 111 -11 168 -33zM122 -133c0 51 36 88 83 88c53 0 86 -37 86 -89c0 -35 -11 -73 -33 -113c-21 -40 -47 -76 -76 -107l-61 10l44 140c-29 12 -43 36 -43 71z" />
    <glyph glyph-name="uni021A" unicode="&#x21a;" horiz-adv-x="597" 
d="M587 659v-180h-168v-479h-244v479h-165v180h577zM210 -127c0 51 36 88 83 88c53 0 86 -37 86 -89c0 -35 -11 -73 -33 -113c-21 -40 -47 -76 -76 -107l-61 10l44 140c-29 12 -43 36 -43 71z" />
    <glyph glyph-name="uni021B" unicode="&#x21b;" horiz-adv-x="420" 
d="M405 171v-150c-38 -24 -86 -36 -145 -36c-125 0 -187 61 -187 184v122h-63v116l253 197h25v-157h111v-156h-111v-78c0 -41 16 -62 49 -62c17 0 40 7 68 20zM118 -133c0 51 36 88 83 88c53 0 86 -37 86 -89c0 -35 -11 -73 -33 -113c-21 -40 -47 -76 -76 -107l-61 10
l44 140c-29 12 -43 36 -43 71z" />
    <glyph glyph-name="schwa" unicode="&#x259;" horiz-adv-x="538" 
d="M31 228v22h274c-4 49 -36 74 -97 74c-51 0 -101 -14 -151 -43v138c55 31 122 47 200 47c199 0 259 -119 259 -239c0 -67 -22 -124 -66 -170c-43 -46 -102 -69 -177 -69c-149 0 -242 84 -242 240zM263 136c24 0 40 26 40 53h-80c1 -35 15 -53 40 -53z" />
    <glyph glyph-name="primemod" unicode="&#x2b9;" horiz-adv-x="306" 
d="M159 610l132 -70l-169 -291h-108z" />
    <glyph glyph-name="circumflex" unicode="&#x2c6;" horiz-adv-x="547" 
d="M298 709l174 -207h-145l-45 65l-51 -65h-139l180 207h26z" />
    <glyph glyph-name="caron" unicode="&#x2c7;" horiz-adv-x="547" 
d="M281 630l47 65h145l-174 -207h-26l-180 207h139z" />
    <glyph glyph-name="breve" unicode="&#x2d8;" horiz-adv-x="587" 
d="M295 493c-59 0 -103 18 -133 54c-29 37 -45 82 -47 136h92c5 -55 36 -82 93 -82c41 0 77 33 85 82h90c-3 -51 -20 -95 -49 -133s-73 -57 -131 -57z" />
    <glyph glyph-name="dotaccent" unicode="&#x2d9;" horiz-adv-x="587" 
d="M408 602c0 -63 -47 -114 -112 -114c-67 0 -111 51 -111 112c0 33 11 59 33 80c23 21 49 31 78 31c65 0 112 -49 112 -109z" />
    <glyph glyph-name="ring" unicode="&#x2da;" horiz-adv-x="556" 
d="M142 626c0 41 14 75 42 103c28 29 63 43 104 43c42 0 77 -14 106 -43c29 -28 43 -62 43 -103c0 -39 -14 -72 -43 -99c-29 -26 -64 -39 -106 -39s-77 13 -105 40c-27 27 -41 59 -41 98zM288 674c-23 0 -42 -21 -42 -48c0 -23 19 -42 42 -42c24 0 43 18 43 42
c0 27 -18 48 -43 48z" />
    <glyph glyph-name="ogonek" unicode="&#x2db;" horiz-adv-x="538" 
d="M407 51l34 -29c-44 -39 -79 -91 -79 -131c0 -35 23 -52 70 -52c33 0 66 9 99 27v-79c-45 -27 -99 -40 -160 -40c-89 0 -130 39 -130 96c0 34 14 71 42 110s69 71 124 98z" />
    <glyph glyph-name="tilde" unicode="&#x2dc;" horiz-adv-x="547" 
d="M414 685l47 -79c-20 -57 -56 -97 -103 -97c-18 0 -43 9 -75 26c-31 17 -54 26 -67 26c-23 0 -42 -19 -58 -56l-52 80c21 56 60 98 108 98c15 0 39 -9 70 -28c32 -19 56 -28 71 -28c20 0 40 19 59 58z" />
    <glyph glyph-name="hungarumlaut" unicode="&#x2dd;" horiz-adv-x="547" 
d="M220 730l132 -70l-157 -139h-108zM415 730l132 -70l-157 -139h-108z" />
    <glyph glyph-name="tonos" unicode="&#x384;" horiz-adv-x="547" 
d="M330 730l132 -70l-157 -139h-108z" />
    <glyph glyph-name="dieresistonos" unicode="&#x385;" horiz-adv-x="598" 
d="M584 616c0 -48 -39 -91 -91 -91s-89 41 -89 88c0 53 42 90 89 90c52 0 91 -40 91 -87zM207 616c0 -49 -38 -91 -90 -91s-89 41 -89 88c0 53 41 90 89 90c52 0 90 -40 90 -87zM300 778l132 -70l-132 -187h-108z" />
    <glyph glyph-name="Alphatonos" unicode="&#x386;" horiz-adv-x="715" 
d="M710 0h-239l-20 52h-194l-21 -52h-231l345 679h24zM359 287h-4l-45 -101h91zM93 699l132 -70l-157 -139h-108z" />
    <glyph glyph-name="anoteleia" unicode="&#x387;" horiz-adv-x="324" 
d="M158 231c-55 0 -99 44 -99 97s46 98 99 98c52 0 96 -45 96 -98s-44 -97 -96 -97z" />
    <glyph glyph-name="Epsilontonos" unicode="&#x388;" horiz-adv-x="582" 
d="M542 0h-492v659h482v-180h-239v-55h201v-172h-201v-71h249v-181zM-111 699l132 -70l-157 -139h-108z" />
    <glyph glyph-name="Etatonos" unicode="&#x389;" horiz-adv-x="722" 
d="M672 0h-244v247h-135v-247h-243v659h243v-230h135v230h244v-659zM-110 699l132 -70l-157 -139h-108z" />
    <glyph glyph-name="Iotatonos" unicode="&#x38a;" horiz-adv-x="344" 
d="M50 659h244v-659h-244v659zM-110 699l132 -70l-157 -139h-108z" />
    <glyph glyph-name="Omicrontonos" unicode="&#x38c;" horiz-adv-x="811" 
d="M404 -14c-110 0 -199 33 -267 98s-102 147 -102 246c0 97 34 179 103 245s159 99 268 99c110 0 199 -33 267 -99c69 -65 103 -147 103 -245s-35 -180 -105 -246c-69 -65 -158 -98 -267 -98zM408 178c79 0 129 63 129 152c0 85 -48 148 -129 148c-79 0 -131 -64 -131 -148
c0 -88 54 -152 131 -152zM-44 699l132 -70l-157 -139h-108z" />
    <glyph glyph-name="Upsilontonos" unicode="&#x38e;" horiz-adv-x="685" 
d="M218 0v228l-213 431h262l50 -142c8 -23 17 -53 27 -90h4c5 26 13 55 24 88l47 144h261l-219 -431v-228h-243zM-137 699l132 -70l-157 -139h-108z" />
    <glyph glyph-name="Omegatonos" unicode="&#x38f;" horiz-adv-x="812" 
d="M791 180v-180h-345v27c24 27 44 67 60 118c17 52 25 103 25 153c0 105 -40 179 -125 179s-123 -72 -123 -177c0 -49 7 -99 22 -151s34 -93 56 -122v-27h-345v180h76l3 4c-32 47 -48 106 -48 176c0 91 31 167 94 226s151 89 266 89s204 -29 266 -88
c63 -59 94 -134 94 -225c0 -65 -17 -125 -50 -178l2 -4h72zM-53 699l132 -70l-157 -139h-108z" />
    <glyph glyph-name="iotadieresistonos" unicode="&#x390;" horiz-adv-x="303" 
d="M432 616c0 -48 -39 -91 -91 -91s-89 41 -89 88c0 53 42 90 89 90c52 0 91 -40 91 -87zM55 616c0 -49 -38 -91 -90 -91s-89 41 -89 88c0 53 41 90 89 90c52 0 90 -40 90 -87zM148 778l132 -70l-132 -187h-108zM261 447v-447h-219v447h219z" />
    <glyph glyph-name="Alpha" unicode="&#x391;" horiz-adv-x="715" 
d="M710 0h-239l-20 52h-194l-21 -52h-231l345 679h24zM359 287h-4l-45 -101h91z" />
    <glyph glyph-name="Beta" unicode="&#x392;" horiz-adv-x="675" 
d="M539 358l1 -4c65 -33 100 -93 100 -157c0 -52 -20 -98 -59 -138c-39 -39 -89 -59 -152 -59h-379v659h358c59 0 105 -17 140 -51s52 -74 52 -120c0 -51 -20 -94 -61 -130zM409 221c0 23 -20 39 -49 39h-73v-80h76c31 0 46 14 46 41zM331 485h-45v-78h46c20 0 42 15 42 40
c0 23 -16 38 -43 38z" />
    <glyph glyph-name="Gamma" unicode="&#x393;" horiz-adv-x="555" 
d="M293 0h-243v659h490v-180h-247v-479z" />
    <glyph glyph-name="increment" unicode="&#x394;" horiz-adv-x="715" 
d="M374 679l336 -679h-705l345 679h24zM357 299h-3l-61 -128h120z" />
    <glyph glyph-name="increment" unicode="&#x2206;" horiz-adv-x="715" 
d="M374 679l336 -679h-705l345 679h24zM357 299h-3l-61 -128h120z" />
    <glyph glyph-name="Epsilon" unicode="&#x395;" horiz-adv-x="582" 
d="M542 0h-492v659h482v-180h-239v-55h201v-172h-201v-71h249v-181z" />
    <glyph glyph-name="Zeta" unicode="&#x396;" horiz-adv-x="656" 
d="M279 479h-221v180h583v-19l-263 -459h241v-181h-604l1 22z" />
    <glyph glyph-name="Eta" unicode="&#x397;" horiz-adv-x="722" 
d="M672 0h-244v247h-135v-247h-243v659h243v-230h135v230h244v-659z" />
    <glyph glyph-name="Theta" unicode="&#x398;" horiz-adv-x="811" 
d="M318 396h175v-140h-175v140zM404 -14c-110 0 -199 33 -267 98s-102 147 -102 246c0 97 34 179 103 245s159 99 268 99c110 0 199 -33 267 -99c69 -65 103 -147 103 -245s-35 -180 -105 -246c-69 -65 -158 -98 -267 -98zM408 178c79 0 129 63 129 152
c0 85 -48 148 -129 148c-79 0 -131 -64 -131 -148c0 -88 54 -152 131 -152z" />
    <glyph glyph-name="Iota" unicode="&#x399;" horiz-adv-x="344" 
d="M50 659h244v-659h-244v659z" />
    <glyph glyph-name="Kappa" unicode="&#x39a;" horiz-adv-x="712" 
d="M50 659h244v-293l153 293h256l-187 -318l191 -341h-259l-154 314v-314h-244v659z" />
    <glyph glyph-name="Lambda" unicode="&#x39b;" horiz-adv-x="715" 
d="M710 0h-249l-103 236h-3l-110 -236h-240l345 679h24z" />
    <glyph glyph-name="Mu" unicode="&#x39c;" horiz-adv-x="816" 
d="M73 678l337 -308l334 308h22v-678h-236v230h-4l-103 -112h-26l-109 108h-4v-226h-234v678h23z" />
    <glyph glyph-name="Nu" unicode="&#x39d;" horiz-adv-x="722" 
d="M293 0h-243v679h24l350 -268h4v248h244v-679h-22l-353 283h-4v-263z" />
    <glyph glyph-name="Xi" unicode="&#x39e;" horiz-adv-x="655" 
d="M613 659v-180h-571v180h571zM35 0v181h585v-181h-585zM106 252v173h451v-173h-451z" />
    <glyph glyph-name="Omicron" unicode="&#x39f;" horiz-adv-x="811" 
d="M404 -14c-110 0 -199 33 -267 98s-102 147 -102 246c0 97 34 179 103 245s159 99 268 99c110 0 199 -33 267 -99c69 -65 103 -147 103 -245s-35 -180 -105 -246c-69 -65 -158 -98 -267 -98zM408 178c79 0 129 63 129 152c0 85 -48 148 -129 148c-79 0 -131 -64 -131 -148
c0 -88 54 -152 131 -152z" />
    <glyph glyph-name="Pi" unicode="&#x3a0;" horiz-adv-x="722" 
d="M672 0h-244v479h-135v-479h-243v659h622v-659z" />
    <glyph glyph-name="Rho" unicode="&#x3a1;" horiz-adv-x="618" 
d="M608 433c0 -62 -22 -115 -66 -160c-44 -44 -106 -66 -185 -66h-64v-207h-243v659h290c88 0 155 -22 200 -66c45 -43 68 -97 68 -160zM370 430c0 32 -20 55 -59 55h-20v-109h20c41 0 59 26 59 54z" />
    <glyph glyph-name="Sigma" unicode="&#x3a3;" horiz-adv-x="635" 
d="M18 659h589v-180h-227l82 -142l-89 -156h252v-181h-615l1 22l180 315l-173 303v19z" />
    <glyph glyph-name="Tau" unicode="&#x3a4;" horiz-adv-x="597" 
d="M587 659v-180h-168v-479h-244v479h-165v180h577z" />
    <glyph glyph-name="Upsilon" unicode="&#x3a5;" horiz-adv-x="685" 
d="M218 0v228l-213 431h262l50 -142c8 -23 17 -53 27 -90h4c5 26 13 55 24 88l47 144h261l-219 -431v-228h-243z" />
    <glyph glyph-name="Phi" unicode="&#x3a6;" horiz-adv-x="953" 
d="M359 219v240c-60 -8 -100 -64 -100 -120s33 -109 100 -120zM596 458v-240c55 9 96 62 96 121c0 57 -36 112 -96 119zM359 659h239v-40c99 -7 178 -38 237 -91s88 -115 88 -187c0 -75 -28 -138 -85 -190s-137 -83 -241 -93v-58h-238v58c-220 12 -330 119 -330 283
c0 75 30 138 90 191s140 82 240 88v39z" />
    <glyph glyph-name="Chi" unicode="&#x3a7;" horiz-adv-x="738" 
d="M733 0h-261l-103 281l-103 -281h-261l149 341l-141 318h261l95 -258l95 258h261l-141 -318z" />
    <glyph glyph-name="Psi" unicode="&#x3a8;" horiz-adv-x="924" 
d="M341 659h244v-303c39 4 60 44 60 81v223h244v-192c0 -176 -101 -297 -304 -310v-158h-244v158c-211 12 -306 128 -306 301v201h245v-216c0 -55 20 -85 61 -89v304z" />
    <glyph glyph-name="Omega" unicode="&#x3a9;" horiz-adv-x="812" 
d="M791 180v-180h-345v27c24 27 44 67 60 118c17 52 25 103 25 153c0 105 -40 179 -125 179s-123 -72 -123 -177c0 -49 7 -99 22 -151s34 -93 56 -122v-27h-345v180h76l3 4c-32 47 -48 106 -48 176c0 91 31 167 94 226s151 89 266 89s204 -29 266 -88
c63 -59 94 -134 94 -225c0 -65 -17 -125 -50 -178l2 -4h72z" />
    <glyph glyph-name="Iotadieresis" unicode="&#x3aa;" horiz-adv-x="344" 
d="M50 659h244v-659h-244v659zM155 792c0 -49 -38 -92 -89 -92c-53 0 -90 42 -90 90c0 53 42 90 90 90c51 0 89 -41 89 -88zM369 792c0 -49 -37 -92 -88 -92c-53 0 -89 42 -89 90c0 53 41 90 89 90c51 0 88 -40 88 -88z" />
    <glyph glyph-name="Upsilondieresis" unicode="&#x3ab;" horiz-adv-x="685" 
d="M327 790c0 -49 -38 -92 -89 -92c-53 0 -90 42 -90 90c0 53 42 90 90 90c51 0 89 -41 89 -88zM541 790c0 -49 -37 -92 -88 -92c-53 0 -89 42 -89 90c0 53 41 90 89 90c51 0 88 -40 88 -88zM218 0v228l-213 431h262l50 -142c8 -23 17 -53 27 -90h4c5 26 13 55 24 88l47 144
h261l-219 -431v-228h-243z" />
    <glyph glyph-name="alphatonos" unicode="&#x3ac;" horiz-adv-x="612" 
d="M572 -1h-163l-14 45l-5 1c-41 -37 -93 -55 -156 -55c-135 0 -214 87 -214 226c0 70 21 129 62 176c42 47 101 71 178 71c61 0 110 -19 146 -57l22 43h144v-450zM293 294c-35 0 -56 -29 -56 -65c0 -47 19 -70 56 -70c36 0 58 27 58 70c0 39 -22 65 -58 65zM321 730
l132 -70l-157 -139h-108z" />
    <glyph glyph-name="epsilontonos" unicode="&#x3ad;" horiz-adv-x="434" 
d="M97 232v5c-47 16 -74 51 -74 92c0 77 71 137 203 137c59 0 115 -9 168 -26v-150c-7 6 -24 12 -49 18c-25 7 -47 10 -68 10c-33 0 -50 -9 -50 -26c0 -15 12 -22 37 -22h51v-90h-43c-24 0 -36 -8 -36 -24c0 -15 14 -22 42 -22c19 0 42 4 69 12c27 9 50 18 67 29v-144
c-51 -28 -119 -42 -203 -42c-133 0 -196 51 -196 126c0 37 21 89 82 117zM255 730l132 -70l-157 -139h-108z" />
    <glyph glyph-name="etatonos" unicode="&#x3ae;" horiz-adv-x="585" 
d="M220 447l17 -55l4 -1c39 49 100 73 147 73c103 0 157 -57 157 -162v-302h-218v247c0 31 -10 47 -30 47c-27 0 -40 -22 -40 -65v-229h-217v447h180zM314 730l132 -70l-157 -139h-108z" />
    <glyph glyph-name="iotatonos" unicode="&#x3af;" horiz-adv-x="303" 
d="M261 447v-447h-219v447h219zM210 730l132 -70l-157 -139h-108z" />
    <glyph glyph-name="upsilondieresistonos" unicode="&#x3b0;" horiz-adv-x="580" 
d="M567 616c0 -48 -39 -91 -91 -91s-89 41 -89 88c0 53 42 90 89 90c52 0 91 -40 91 -87zM190 616c0 -49 -38 -91 -90 -91s-89 41 -89 88c0 53 41 90 89 90c52 0 90 -40 90 -87zM283 778l132 -70l-132 -187h-108zM322 214v233h218v-199c0 -84 -27 -151 -63 -187
c-18 -18 -40 -33 -65 -44c-49 -21 -89 -27 -134 -27c-145 0 -238 72 -238 203v254h217v-252c0 -26 10 -39 31 -39c23 0 34 19 34 58z" />
    <glyph glyph-name="alpha" unicode="&#x3b1;" horiz-adv-x="612" 
d="M572 -1h-163l-14 45l-5 1c-41 -37 -93 -55 -156 -55c-135 0 -214 87 -214 226c0 70 21 129 62 176c42 47 101 71 178 71c61 0 110 -19 146 -57l22 43h144v-450zM293 294c-35 0 -56 -29 -56 -65c0 -47 19 -70 56 -70c36 0 58 27 58 70c0 39 -22 65 -58 65z" />
    <glyph glyph-name="beta" unicode="&#x3b2;" horiz-adv-x="611" 
d="M250 -207h-221v634c0 87 23 159 68 215c45 57 114 85 206 85c73 0 131 -18 173 -53s63 -79 63 -132c0 -55 -25 -107 -80 -130v-5c85 -31 127 -93 127 -187c0 -70 -22 -126 -65 -168c-43 -41 -94 -62 -154 -62c-39 0 -76 9 -111 26c-2 0 -4 -1 -6 -3v-220zM281 322v130
c34 0 51 18 51 54c0 27 -17 47 -42 47c-30 0 -45 -22 -45 -65v-256c0 -52 20 -78 60 -78s64 37 64 78c-4 60 -33 90 -88 90z" />
    <glyph glyph-name="gamma" unicode="&#x3b3;" horiz-adv-x="588" 
d="M361 447h222l-171 -467l1 -200h-219l2 204l-191 463h230l35 -120l28 -112h4l28 116z" />
    <glyph glyph-name="delta" unicode="&#x3b4;" horiz-adv-x="587" 
d="M354 242c0 49 -21 80 -63 92c-32 -8 -52 -49 -52 -92c0 -55 19 -82 58 -82c37 0 57 38 57 82zM311 727c79 0 140 -14 185 -41v-148c-19 9 -44 18 -75 26s-58 12 -82 12c-36 0 -54 -10 -54 -29c0 -34 69 -47 139 -88c24 -14 46 -30 67 -47c41 -33 72 -96 72 -171
c0 -71 -24 -131 -71 -179s-113 -72 -198 -72c-84 0 -150 22 -198 66c-47 45 -71 104 -71 177c0 81 41 157 106 193v7c-36 25 -54 63 -54 115s21 95 63 128c42 34 99 51 171 51z" />
    <glyph glyph-name="epsilon" unicode="&#x3b5;" horiz-adv-x="434" 
d="M97 232v5c-47 16 -74 51 -74 92c0 77 71 137 203 137c59 0 115 -9 168 -26v-150c-7 6 -24 12 -49 18c-25 7 -47 10 -68 10c-33 0 -50 -9 -50 -26c0 -15 12 -22 37 -22h51v-90h-43c-24 0 -36 -8 -36 -24c0 -15 14 -22 42 -22c19 0 42 4 69 12c27 9 50 18 67 29v-144
c-51 -28 -119 -42 -203 -42c-133 0 -196 51 -196 126c0 37 21 89 82 117z" />
    <glyph glyph-name="zeta" unicode="&#x3b6;" horiz-adv-x="471" 
d="M232 551v7h-168v157h497v-16c-81 -89 -157 -182 -226 -277s-103 -159 -103 -192c0 -17 13 -36 39 -56c27 -19 56 -37 87 -52s60 -33 86 -56c27 -22 40 -44 40 -66c0 -29 -16 -64 -47 -104c-31 -41 -67 -77 -110 -110l-134 70c47 47 76 77 76 94s-14 27 -61 51
c-123 64 -188 118 -188 199c0 47 20 101 61 164s91 125 151 187z" />
    <glyph glyph-name="eta" unicode="&#x3b7;" horiz-adv-x="585" 
d="M220 447l17 -55l4 -1c39 49 100 73 147 73c103 0 157 -57 157 -162v-302h-218v247c0 31 -10 47 -30 47c-27 0 -40 -22 -40 -65v-229h-217v447h180z" />
    <glyph glyph-name="theta" unicode="&#x3b8;" horiz-adv-x="606" 
d="M302 727c108 0 187 -52 224 -132s51 -155 51 -242c0 -63 -7 -121 -32 -189c-34 -95 -107 -174 -243 -174c-101 0 -178 44 -218 116s-57 152 -57 247c0 93 19 179 59 252c41 75 117 122 216 122zM303 163c43 0 65 46 65 137h-128c0 -91 15 -137 63 -137zM302 552
c-39 0 -60 -53 -61 -110h123c0 60 -22 110 -62 110z" />
    <glyph glyph-name="iota" unicode="&#x3b9;" horiz-adv-x="303" 
d="M261 447v-447h-219v447h219z" />
    <glyph glyph-name="kappa" unicode="&#x3ba;" horiz-adv-x="591" 
d="M465 232l121 -232h-226l-93 209v-209h-227v447h227v-195l94 195h223z" />
    <glyph glyph-name="lambda" unicode="&#x3bb;" horiz-adv-x="564" 
d="M308 727l251 -727h-225l-50 213h-5l-62 -213h-212l184 447l-94 280h213z" />
    <glyph glyph-name="nu" unicode="&#x3bd;" horiz-adv-x="592" 
d="M296 308h4l32 79l27 60h228l-275 -461h-30l-277 461h225l34 -68c14 -29 25 -52 32 -71z" />
    <glyph glyph-name="xi" unicode="&#x3be;" horiz-adv-x="486" 
d="M285 725c26 0 57 -3 94 -8s67 -12 89 -21v-154c-43 18 -88 27 -134 27c-48 0 -83 -20 -83 -59c0 -37 29 -56 86 -56h85v-144h-114c-53 0 -79 -19 -79 -56c0 -98 267 -137 267 -255c0 -60 -54 -126 -163 -198l-126 71c45 40 68 68 68 83c0 13 -20 30 -60 52l-38 20l-34 20
c-17 11 -29 18 -35 23c-5 5 -14 13 -27 23c-25 20 -31 34 -44 55c-13 23 -17 46 -17 73c0 77 42 145 126 174v5c-28 7 -51 20 -69 37c-35 36 -40 65 -40 97c0 53 22 98 66 135c45 37 105 56 182 56z" />
    <glyph glyph-name="omicron" unicode="&#x3bf;" horiz-adv-x="577" 
d="M289 464c84 0 150 -22 197 -67c47 -44 71 -101 71 -171c0 -71 -24 -128 -72 -171s-113 -65 -196 -65s-148 22 -197 65c-48 44 -72 101 -72 171c0 69 24 126 73 171s114 67 196 67zM292 294c-35 0 -56 -29 -56 -65c0 -47 19 -70 56 -70c36 0 58 27 58 70
c0 39 -22 65 -58 65z" />
    <glyph glyph-name="pi" unicode="&#x3c0;" horiz-adv-x="587" 
d="M40 448h507v-448h-217v289h-74v-289h-216v448z" />
    <glyph glyph-name="rho" unicode="&#x3c1;" horiz-adv-x="602" 
d="M243 -219h-218v383c0 191 106 299 281 299c83 0 149 -22 198 -67s74 -104 74 -177c0 -69 -21 -124 -63 -166c-41 -42 -96 -63 -163 -63c-41 0 -76 7 -106 20l-3 -2v-227zM303 155c36 0 61 29 61 70c0 45 -22 71 -59 71s-62 -29 -62 -73c0 -37 21 -68 60 -68z" />
    <glyph glyph-name="sigma1" unicode="&#x3c2;" horiz-adv-x="496" 
d="M293 462c61 0 115 -12 161 -36v-157c-27 16 -86 29 -129 29c-56 0 -84 -24 -84 -57c0 -35 28 -59 115 -104c77 -41 111 -77 111 -120c0 -63 -56 -129 -169 -198l-127 72c25 23 34 30 47 45c13 13 18 22 18 29c0 13 -19 24 -71 52c-93 47 -139 114 -139 202
c0 63 16 117 55 165s113 78 212 78z" />
    <glyph glyph-name="sigma" unicode="&#x3c3;" horiz-adv-x="611" 
d="M597 289l-66 4l-1 -4c25 -21 38 -68 38 -96c0 -57 -23 -106 -70 -145c-46 -39 -113 -59 -200 -59c-89 0 -157 22 -204 66c-46 45 -69 97 -69 158c0 67 24 123 72 167c49 44 115 66 199 67l301 1v-159zM311 295c-41 -1 -67 -33 -67 -70c0 -43 21 -68 58 -68
c36 0 59 26 59 70c0 37 -17 59 -50 68z" />
    <glyph glyph-name="tau" unicode="&#x3c4;" horiz-adv-x="432" 
d="M412 171v-150c-38 -24 -86 -36 -145 -36c-125 0 -187 61 -187 184v121h-79v156l407 4v-160h-113v-77c0 -41 16 -62 49 -62c17 0 40 7 68 20z" />
    <glyph glyph-name="upsilon" unicode="&#x3c5;" horiz-adv-x="580" 
d="M322 214v233h218v-199c0 -84 -27 -151 -63 -187c-18 -18 -40 -33 -65 -44c-49 -21 -89 -27 -134 -27c-145 0 -238 72 -238 203v254h217v-252c0 -26 10 -39 31 -39c23 0 34 19 34 58z" />
    <glyph glyph-name="phi" unicode="&#x3c6;" horiz-adv-x="810" 
d="M24 218c0 100 65 191 201 220l60 -102c-33 -25 -50 -60 -50 -104c0 -17 6 -36 17 -55c12 -19 28 -30 49 -32l2 306h209c81 0 147 -21 198 -63s76 -97 76 -166c0 -65 -26 -120 -77 -165s-117 -68 -199 -71v-204h-215l5 205c-101 7 -179 39 -219 84c-39 47 -57 94 -57 147z
M582 223c0 49 -25 75 -75 78v-159c43 1 75 38 75 81z" />
    <glyph glyph-name="chi" unicode="&#x3c7;" horiz-adv-x="580" 
d="M575 0h-217l-68 182l-68 -182h-217l102 231l-97 216h217l63 -168l62 168h217l-97 -216z" />
    <glyph glyph-name="psi" unicode="&#x3c8;" horiz-adv-x="833" 
d="M525 -16l1 -202h-218v202c-194 14 -268 148 -268 277v186h213v-212c0 -56 18 -85 55 -86v298h217v-298c28 3 54 33 54 86v212h214v-186c0 -120 -80 -260 -268 -277z" />
    <glyph glyph-name="omega" unicode="&#x3c9;" horiz-adv-x="792" 
d="M394 49h-5c-34 -39 -82 -59 -144 -59c-70 0 -124 22 -163 65s-58 98 -58 165c0 139 85 229 240 242l32 -137c-35 -10 -52 -45 -52 -105c0 -47 12 -70 37 -70c19 0 33 14 33 42v104h165v-104c0 -27 15 -42 31 -42c25 0 38 23 38 70c0 59 -17 94 -51 105l34 137
c152 -13 237 -103 237 -242c0 -67 -19 -122 -58 -165c-38 -43 -92 -65 -162 -65c-73 0 -124 20 -154 59z" />
    <glyph glyph-name="iotadieresis" unicode="&#x3ca;" horiz-adv-x="303" 
d="M136 614c0 -49 -37 -91 -89 -91c-53 0 -89 41 -89 89c0 53 41 90 89 90c51 0 89 -40 89 -88zM350 614c0 -49 -37 -91 -88 -91c-53 0 -89 41 -89 89c0 53 41 90 89 90c51 0 88 -40 88 -88zM261 447v-447h-219v447h219z" />
    <glyph glyph-name="upsilondieresis" unicode="&#x3cb;" horiz-adv-x="580" 
d="M271 614c0 -49 -37 -91 -89 -91c-53 0 -89 41 -89 89c0 53 41 90 89 90c51 0 89 -40 89 -88zM485 614c0 -49 -37 -91 -88 -91c-53 0 -89 41 -89 89c0 53 41 90 89 90c51 0 88 -40 88 -88zM322 214v233h218v-199c0 -84 -27 -151 -63 -187c-18 -18 -40 -33 -65 -44
c-49 -21 -89 -27 -134 -27c-145 0 -238 72 -238 203v254h217v-252c0 -26 10 -39 31 -39c23 0 34 19 34 58z" />
    <glyph glyph-name="omicrontonos" unicode="&#x3cc;" horiz-adv-x="587" 
d="M355 730l132 -70l-157 -139h-108zM294 464c84 0 150 -22 197 -67c47 -44 71 -101 71 -171c0 -71 -24 -128 -72 -171s-113 -65 -196 -65s-148 22 -197 65c-48 44 -72 101 -72 171c0 69 24 126 72 171c49 45 114 67 197 67zM297 294c-35 0 -56 -29 -56 -65
c0 -47 19 -70 56 -70c36 0 58 27 58 70c0 39 -22 65 -58 65z" />
    <glyph glyph-name="upsilontonos" unicode="&#x3cd;" horiz-adv-x="594" 
d="M335 214v233h218v-199c0 -84 -27 -151 -63 -187c-18 -18 -40 -33 -65 -44c-49 -21 -89 -27 -134 -27c-145 0 -238 72 -238 203v254h217v-252c0 -26 10 -39 31 -39c23 0 34 19 34 58zM350 730l132 -70l-157 -139h-108z" />
    <glyph glyph-name="omegatonos" unicode="&#x3ce;" horiz-adv-x="792" 
d="M394 49h-5c-34 -39 -82 -59 -144 -59c-70 0 -124 22 -163 65s-58 98 -58 165c0 139 85 229 240 242l32 -137c-35 -10 -52 -45 -52 -105c0 -47 12 -70 37 -70c19 0 33 14 33 42v104h165v-104c0 -27 15 -42 31 -42c25 0 38 23 38 70c0 59 -17 94 -51 105l34 137
c152 -13 237 -103 237 -242c0 -67 -19 -122 -58 -165c-38 -43 -92 -65 -162 -65c-73 0 -124 20 -154 59zM458 720l132 -70l-157 -139h-108z" />
    <glyph glyph-name="afii10023" unicode="&#x401;" horiz-adv-x="582" 
d="M275 792c0 -49 -38 -92 -89 -92c-53 0 -90 42 -90 90c0 53 42 90 90 90c51 0 89 -41 89 -88zM489 792c0 -49 -37 -92 -88 -92c-53 0 -89 42 -89 90c0 53 41 90 89 90c51 0 88 -40 88 -88zM542 0h-492v659h482v-180h-239v-55h201v-172h-201v-71h249v-181z" />
    <glyph glyph-name="afii10051" unicode="&#x402;" horiz-adv-x="870" 
d="M607 659v-180h-188v-98c49 17 100 25 153 25c49 0 92 -7 131 -22c77 -29 137 -105 137 -217c0 -73 -22 -137 -65 -192c-43 -56 -94 -99 -155 -129l-136 96c29 19 54 46 75 81s32 66 32 95c0 81 -37 122 -100 122c-22 0 -46 -5 -72 -14v-226h-244v479h-165v180h597z" />
    <glyph glyph-name="afii10052" unicode="&#x403;" horiz-adv-x="555" 
d="M293 0h-243v659h490v-180h-247v-479zM334 913l139 -70l-162 -139h-123z" />
    <glyph glyph-name="afii10053" unicode="&#x404;" horiz-adv-x="633" 
d="M592 213l1 -199c-56 -19 -119 -29 -189 -29c-116 0 -207 32 -272 96s-97 146 -97 247c0 61 14 117 41 168s70 94 128 127s127 50 206 50c63 0 119 -8 168 -24v-195c-42 17 -86 26 -132 26c-73 0 -120 -21 -142 -64h176v-156h-190c14 -55 62 -83 144 -83
c49 0 102 12 158 36z" />
    <glyph glyph-name="afii10054" unicode="&#x405;" horiz-adv-x="594" 
d="M521 634v-185c-21 13 -50 25 -88 37s-71 18 -99 18c-39 0 -58 -9 -58 -28c0 -59 288 -60 288 -285c0 -44 -17 -89 -56 -133s-116 -74 -216 -74c-106 0 -193 18 -262 55v203c23 -20 59 -38 108 -55c49 -16 90 -24 123 -24c40 0 60 10 60 31c0 78 -288 79 -288 284
c-1 91 69 201 261 201c77 0 152 -15 227 -45z" />
    <glyph glyph-name="afii10055" unicode="&#x406;" horiz-adv-x="344" 
d="M50 659h244v-659h-244v659z" />
    <glyph glyph-name="afii10056" unicode="&#x407;" horiz-adv-x="403" 
d="M181 792c0 -49 -38 -92 -89 -92c-53 0 -90 42 -90 90c0 53 42 90 90 90c51 0 89 -41 89 -88zM395 792c0 -49 -37 -92 -88 -92c-53 0 -89 42 -89 90c0 53 41 90 89 90c51 0 88 -40 88 -88zM79 659h244v-659h-244v659z" />
    <glyph glyph-name="afii10057" unicode="&#x408;" horiz-adv-x="552" 
d="M255 659h247v-340c0 -99 -16 -171 -59 -235s-124 -99 -239 -99c-71 0 -132 14 -184 42v191c51 -27 96 -41 134 -41c71 0 101 39 101 124v358z" />
    <glyph glyph-name="afii10058" unicode="&#x409;" horiz-adv-x="1048" 
d="M441 489h-72l-16 -200c-3 -33 -6 -60 -9 -81s-11 -46 -22 -77c-11 -30 -25 -55 -42 -74c-35 -37 -102 -74 -191 -85l-89 163c46 9 77 22 93 39s26 47 29 88l30 397h531v-241h74c111 0 180 -32 216 -73c27 -29 37 -52 44 -84s7 -42 7 -61c0 -59 -21 -108 -64 -145
s-95 -55 -158 -55h-361v489zM727 261h-44v-92h46c32 0 51 22 51 47c0 27 -21 45 -53 45z" />
    <glyph glyph-name="afii10059" unicode="&#x40a;" horiz-adv-x="1038" 
d="M791 0h-362v256h-135v-256h-244v659h244v-243h135v243h244v-241h73c111 0 180 -32 216 -73c27 -29 37 -52 44 -84s7 -42 7 -61c0 -59 -21 -108 -64 -145s-95 -55 -158 -55zM716 261h-43v-90h45c32 0 51 20 51 45c0 27 -21 45 -53 45z" />
    <glyph glyph-name="afii10060" unicode="&#x40b;" horiz-adv-x="844" 
d="M597 659v-180h-178v-98c64 17 121 26 172 26c127 0 208 -55 208 -186v-221h-245v154c0 53 -21 73 -66 73c-18 0 -41 -5 -69 -14v-213h-244v479h-165v180h587z" />
    <glyph glyph-name="afii10061" unicode="&#x40c;" horiz-adv-x="712" 
d="M50 659h244v-293l153 293h256l-187 -318l191 -341h-259l-154 314v-314h-244v659zM419 915l139 -70l-162 -139h-123z" />
    <glyph glyph-name="afii10062" unicode="&#x40e;" horiz-adv-x="673" 
d="M344 701c-59 0 -103 18 -133 53c-29 35 -45 79 -47 131h92c5 -54 36 -81 93 -81c41 0 77 33 85 81h90c-2 -31 -9 -59 -20 -85c-23 -52 -80 -99 -160 -99zM229 164l6 16l-235 479h257l77 -252h4l84 252h251l-239 -544c-24 -55 -53 -92 -86 -112c-33 -19 -77 -29 -132 -29
c-49 0 -97 10 -142 30v153c32 -17 65 -25 99 -25c29 0 48 11 56 32z" />
    <glyph glyph-name="afii10145" unicode="&#x40f;" horiz-adv-x="730" 
d="M436 659h244v-659h-216v-169h-205v169h-209v659h245v-479h141v479z" />
    <glyph glyph-name="afii10017" unicode="&#x410;" horiz-adv-x="715" 
d="M710 0h-239l-20 52h-194l-21 -52h-231l345 679h24zM359 287h-4l-45 -101h91z" />
    <glyph glyph-name="afii10018" unicode="&#x411;" horiz-adv-x="658" 
d="M571 659v-170h-276v-71h72c111 0 180 -32 216 -73c27 -29 37 -52 44 -84s7 -42 7 -61c0 -59 -21 -108 -64 -145s-95 -55 -158 -55h-362l1 659h520zM337 261h-42v-90h44c32 0 51 20 51 45c0 27 -21 45 -53 45z" />
    <glyph glyph-name="afii10019" unicode="&#x412;" horiz-adv-x="675" 
d="M539 358l1 -4c65 -33 100 -93 100 -157c0 -52 -20 -98 -59 -138c-39 -39 -89 -59 -152 -59h-379v659h358c59 0 105 -17 140 -51s52 -74 52 -120c0 -51 -20 -94 -61 -130zM409 221c0 23 -20 39 -49 39h-73v-80h76c31 0 46 14 46 41zM331 485h-45v-78h46c20 0 42 15 42 40
c0 23 -16 38 -43 38z" />
    <glyph glyph-name="afii10020" unicode="&#x413;" horiz-adv-x="555" 
d="M293 0h-243v659h490v-180h-247v-479z" />
    <glyph glyph-name="afii10021" unicode="&#x414;" horiz-adv-x="846" 
d="M502 489h-99l-11 -92c-7 -60 -15 -105 -24 -135c-8 -30 -21 -57 -39 -81h173v308zM5 -156v337h85c28 25 47 55 58 88c11 34 21 83 28 146l29 244h543v-478h93v-337h-194v156h-448v-156h-194z" />
    <glyph glyph-name="afii10022" unicode="&#x415;" horiz-adv-x="582" 
d="M542 0h-492v659h482v-180h-239v-55h201v-172h-201v-71h249v-181z" />
    <glyph glyph-name="afii10024" unicode="&#x416;" horiz-adv-x="1070" 
d="M413 659h244v-293l148 293h256l-182 -318l186 -341h-259l-149 314v-314h-244v314l-149 -314h-259l186 341l-182 318h256l148 -293v293z" />
    <glyph glyph-name="afii10025" unicode="&#x417;" horiz-adv-x="598" 
d="M35 16v197c25 -12 57 -22 94 -29c38 -7 72 -11 102 -11c64 0 96 17 96 50c0 29 -29 47 -65 47h-86v139h79c39 0 58 12 58 37s-28 38 -83 38c-29 0 -62 -3 -101 -10c-38 -6 -63 -12 -76 -18v191c60 19 133 29 220 29c110 0 272 -32 272 -184c0 -49 -37 -110 -94 -138v-2
c75 -23 112 -89 112 -152c0 -65 -28 -118 -84 -157s-130 -58 -222 -58c-85 0 -159 10 -222 31z" />
    <glyph glyph-name="afii10026" unicode="&#x418;" horiz-adv-x="734" 
d="M660 679h24v-679h-243v275h-4l-365 -295h-22v679h244v-270h4z" />
    <glyph glyph-name="afii10027" unicode="&#x419;" horiz-adv-x="734" 
d="M660 679h24v-679h-243v275h-4l-365 -295h-22v679h244v-270h4zM401 693c-59 0 -103 18 -133 54c-29 37 -45 82 -47 136h92c5 -55 36 -82 93 -82c41 0 77 33 85 82h90c-3 -51 -20 -95 -49 -133s-73 -57 -131 -57z" />
    <glyph glyph-name="afii10028" unicode="&#x41a;" horiz-adv-x="712" 
d="M50 659h244v-293l153 293h256l-187 -318l191 -341h-259l-154 314v-314h-244v659z" />
    <glyph glyph-name="afii10029" unicode="&#x41b;" horiz-adv-x="735" 
d="M122 262l30 397h533v-659h-243l-1 489h-72l-16 -200c-3 -33 -6 -60 -9 -81s-11 -46 -22 -77c-11 -30 -25 -55 -42 -74c-35 -37 -102 -74 -191 -85l-89 163c46 9 77 22 93 39s26 47 29 88z" />
    <glyph glyph-name="afii10030" unicode="&#x41c;" horiz-adv-x="816" 
d="M73 678l337 -308l334 308h22v-678h-236v230h-4l-103 -112h-26l-109 108h-4v-226h-234v678h23z" />
    <glyph glyph-name="afii10031" unicode="&#x41d;" horiz-adv-x="722" 
d="M672 0h-244v247h-135v-247h-243v659h243v-230h135v230h244v-659z" />
    <glyph glyph-name="afii10032" unicode="&#x41e;" horiz-adv-x="811" 
d="M404 -14c-110 0 -199 33 -267 98s-102 147 -102 246c0 97 34 179 103 245s159 99 268 99c110 0 199 -33 267 -99c69 -65 103 -147 103 -245s-35 -180 -105 -246c-69 -65 -158 -98 -267 -98zM408 178c79 0 129 63 129 152c0 85 -48 148 -129 148c-79 0 -131 -64 -131 -148
c0 -88 54 -152 131 -152z" />
    <glyph glyph-name="afii10033" unicode="&#x41f;" horiz-adv-x="722" 
d="M672 0h-244v479h-135v-479h-243v659h622v-659z" />
    <glyph glyph-name="afii10034" unicode="&#x420;" horiz-adv-x="618" 
d="M608 433c0 -62 -22 -115 -66 -160c-44 -44 -106 -66 -185 -66h-64v-207h-243v659h290c88 0 155 -22 200 -66c45 -43 68 -97 68 -160zM370 430c0 32 -20 55 -59 55h-20v-109h20c41 0 59 26 59 54z" />
    <glyph glyph-name="afii10035" unicode="&#x421;" horiz-adv-x="633" 
d="M592 213l1 -199c-56 -19 -119 -29 -189 -29c-116 0 -207 32 -272 96s-97 146 -97 247c0 61 14 117 41 168s70 94 128 127s127 50 206 50c63 0 119 -8 168 -24v-195c-42 17 -86 26 -132 26c-96 0 -167 -51 -167 -154c0 -100 63 -149 155 -149c49 0 102 12 158 36z" />
    <glyph glyph-name="afii10036" unicode="&#x422;" horiz-adv-x="597" 
d="M587 659v-180h-168v-479h-244v479h-165v180h577z" />
    <glyph glyph-name="afii10037" unicode="&#x423;" horiz-adv-x="673" 
d="M229 164l6 16l-235 479h257l77 -252h4l84 252h251l-239 -544c-24 -55 -53 -92 -86 -112c-33 -19 -77 -29 -132 -29c-49 0 -97 10 -142 30v153c32 -17 65 -25 99 -25c29 0 48 11 56 32z" />
    <glyph glyph-name="afii10038" unicode="&#x424;" horiz-adv-x="953" 
d="M359 219v240c-60 -8 -100 -64 -100 -120s33 -109 100 -120zM596 458v-240c55 9 96 62 96 121c0 57 -36 112 -96 119zM359 659h239v-40c99 -7 178 -38 237 -91s88 -115 88 -187c0 -75 -28 -138 -85 -190s-137 -83 -241 -93v-58h-238v58c-220 12 -330 119 -330 283
c0 75 30 138 90 191s140 82 240 88v39z" />
    <glyph glyph-name="afii10039" unicode="&#x425;" horiz-adv-x="738" 
d="M733 0h-261l-103 281l-103 -281h-261l149 341l-141 318h261l95 -258l95 258h261l-141 -318z" />
    <glyph glyph-name="afii10040" unicode="&#x426;" horiz-adv-x="785" 
d="M436 659h244v-479h95v-336h-193v156h-532v659h245v-479h141v479z" />
    <glyph glyph-name="afii10041" unicode="&#x427;" horiz-adv-x="719" 
d="M425 659h244v-659h-244v276c-55 -11 -104 -17 -146 -17c-141 0 -234 57 -234 194v206h245v-175c0 -41 13 -62 60 -62c25 0 50 4 75 13v224z" />
    <glyph glyph-name="afii10042" unicode="&#x428;" horiz-adv-x="1092" 
d="M799 659h243v-659h-992v659h245v-479h130l-1 479h245v-479h129z" />
    <glyph glyph-name="afii10043" unicode="&#x429;" horiz-adv-x="1147" 
d="M944 0h-894v659h245v-479h130l-1 479h245v-479h129v479h244v-479h95v-336h-193v156z" />
    <glyph glyph-name="afii10044" unicode="&#x42a;" horiz-adv-x="855" 
d="M248 0l-1 479h-242v180h484v-241h74c111 0 180 -32 216 -73c27 -29 37 -52 44 -84s7 -42 7 -61c0 -59 -21 -108 -64 -145s-95 -55 -158 -55h-360zM533 261h-44v-92h46c32 0 51 22 51 47c0 27 -21 45 -53 45z" />
    <glyph glyph-name="afii10045" unicode="&#x42b;" horiz-adv-x="970" 
d="M412 0h-362l1 659h242v-241h74c111 0 180 -32 216 -73c27 -29 37 -52 44 -84s7 -42 7 -61c0 -59 -21 -108 -64 -145s-95 -55 -158 -55zM337 261h-44v-92h46c32 0 51 22 51 47c0 27 -21 45 -53 45zM676 659h244v-659h-244v659z" />
    <glyph glyph-name="afii10046" unicode="&#x42c;" horiz-adv-x="658" 
d="M412 0h-362l1 659h242v-241h74c111 0 180 -32 216 -73c27 -29 37 -52 44 -84s7 -42 7 -61c0 -59 -21 -108 -64 -145s-95 -55 -158 -55zM337 261h-44v-92h46c32 0 51 22 51 47c0 27 -21 45 -53 45z" />
    <glyph glyph-name="afii10047" unicode="&#x42d;" horiz-adv-x="633" 
d="M40 14l1 199c56 -24 109 -36 158 -36c82 0 130 28 144 83h-190v156h176c-15 43 -58 64 -128 64c-54 0 -102 -9 -144 -26v191c59 19 124 28 196 28c119 0 213 -41 266 -106s79 -147 79 -239c0 -101 -33 -183 -98 -247s-155 -96 -271 -96c-70 0 -133 10 -189 29z" />
    <glyph glyph-name="afii10048" unicode="&#x42e;" horiz-adv-x="1130" 
d="M294 257v-257h-244v659h244v-242h90c16 76 56 138 119 185c64 48 141 72 232 72c109 0 197 -33 262 -98s98 -147 98 -246s-33 -182 -99 -247c-65 -65 -153 -97 -263 -97c-94 0 -173 25 -237 75s-102 115 -115 196h-87zM736 184c75 0 121 59 121 142
c0 84 -42 142 -121 142c-75 0 -123 -61 -123 -142s51 -142 123 -142z" />
    <glyph glyph-name="afii10049" unicode="&#x42f;" horiz-adv-x="680" 
d="M321 659h309v-659h-242v479h-26c-45 0 -69 -31 -69 -72c0 -37 22 -80 74 -101v-17l-121 -289h-243l141 271c-26 19 -46 40 -60 63c-28 45 -30 71 -30 112c0 67 25 119 75 156c51 38 115 57 192 57z" />
    <glyph glyph-name="afii10065" unicode="&#x430;" horiz-adv-x="547" 
d="M318 0l-10 42l-3 1c-35 -37 -86 -55 -153 -55c-77 0 -132 46 -132 126c0 41 17 77 52 106c35 30 88 45 159 45h59v7c0 28 -19 42 -74 42c-14 0 -35 -3 -62 -9c-27 -5 -50 -13 -68 -23v152c61 19 125 29 194 29c157 0 227 -82 227 -211v-252h-189zM224 145
c0 -20 8 -30 25 -30c25 0 44 23 44 58v15h-22c-31 0 -47 -14 -47 -43z" />
    <glyph glyph-name="afii10066" unicode="&#x431;" horiz-adv-x="587" 
d="M216 409l3 -2c23 29 64 44 122 44c65 0 118 -21 159 -62s61 -96 61 -165s-23 -126 -70 -169c-46 -43 -109 -65 -190 -65c-200 0 -281 104 -281 289c0 92 12 159 44 224c33 67 93 119 182 158c80 35 143 61 189 77l109 -119c-25 -11 -57 -25 -98 -42
c-40 -17 -67 -28 -82 -35c-84 -39 -131 -74 -148 -133zM297 294c-35 0 -56 -29 -56 -65c0 -47 19 -70 56 -70c36 0 58 27 58 70c0 39 -22 65 -58 65z" />
    <glyph glyph-name="afii10067" unicode="&#x432;" horiz-adv-x="561" 
d="M462 252v-4c53 -21 79 -59 79 -115c0 -76 -62 -133 -166 -133h-335v449h331c87 0 141 -43 141 -116c0 -29 -19 -64 -50 -81zM304 188h-46v-52h46c21 0 31 9 31 26s-10 26 -31 26zM289 319h-31v-44h31c17 0 26 7 26 22s-9 22 -26 22z" />
    <glyph glyph-name="afii10068" unicode="&#x433;" horiz-adv-x="476" 
d="M258 0h-218v448h421v-166h-203v-282z" />
    <glyph glyph-name="afii10069" unicode="&#x434;" horiz-adv-x="693" 
d="M188 -132h-173l-1 290h86c18 19 29 48 34 88l25 201h443v-289h76v-290h-173v132h-317v-132zM384 291h-53l-6 -49c-4 -34 -12 -62 -24 -84h83v133z" />
    <glyph glyph-name="afii10070" unicode="&#x435;" horiz-adv-x="525" 
d="M505 226v-22h-274c4 -49 36 -74 97 -74c51 0 101 14 151 43v-138c-55 -31 -117 -47 -184 -47c-93 0 -162 23 -207 69c-45 47 -68 103 -68 170s22 124 65 170c44 46 103 69 178 69c149 0 242 -84 242 -240zM273 318c-24 0 -40 -26 -40 -53h80c-1 35 -15 53 -40 53z" />
    <glyph glyph-name="afii10072" unicode="&#x436;" horiz-adv-x="864" 
d="M319 209l-88 -209h-226l116 232l-114 215h223l89 -195v195h227v-195l88 195h223l-113 -215l115 -232h-226l-87 209v-209h-227v209z" />
    <glyph glyph-name="afii10073" unicode="&#x437;" horiz-adv-x="484" 
d="M227 462c51 0 95 -6 142 -25c47 -17 76 -54 76 -106c0 -36 -22 -72 -67 -92v-1c55 -19 81 -61 81 -97c0 -101 -96 -156 -244 -156c-70 0 -128 11 -175 33v145c42 -24 89 -36 140 -36c46 0 69 11 69 34c0 13 -12 19 -37 19h-50v90h37c27 0 41 8 41 25c0 15 -20 23 -59 23
s-82 -10 -127 -30v150c45 16 103 24 173 24z" />
    <glyph glyph-name="afii10074" unicode="&#x438;" horiz-adv-x="587" 
d="M516 454h31v-454h-217v168h-2l-258 -181h-30v460h217v-177h3z" />
    <glyph glyph-name="afii10075" unicode="&#x439;" horiz-adv-x="587" 
d="M516 454h31v-454h-217v168h-2l-258 -181h-30v460h217v-177h3zM310 491c-59 0 -103 18 -133 54c-29 37 -45 82 -47 136h92c5 -55 36 -82 93 -82c41 0 77 33 85 82h90c-3 -51 -20 -95 -49 -133s-73 -57 -131 -57z" />
    <glyph glyph-name="afii10076" unicode="&#x43a;" horiz-adv-x="591" 
d="M465 232l121 -232h-226l-93 209v-209h-227v447h227v-195l94 195h223z" />
    <glyph glyph-name="afii10077" unicode="&#x43b;" horiz-adv-x="590" 
d="M95 216l21 233h434v-449h-215v289h-40l-8 -91c-2 -23 -4 -42 -7 -57c-2 -14 -8 -32 -17 -55s-21 -41 -36 -54c-29 -27 -87 -52 -164 -56l-58 143c36 3 61 15 72 35c12 21 15 35 18 62z" />
    <glyph glyph-name="afii10078" unicode="&#x43c;" horiz-adv-x="685" 
d="M71 456l273 -197l271 197h30v-456h-216v125h-4l-69 -65h-25l-73 62h-4v-122h-214v456h31z" />
    <glyph glyph-name="afii10079" unicode="&#x43d;" horiz-adv-x="591" 
d="M551 0h-217l-1 163h-75v-163h-218v447h217v-154h76v154h218v-447z" />
    <glyph glyph-name="afii10080" unicode="&#x43e;" horiz-adv-x="577" 
d="M289 464c84 0 150 -22 197 -67c47 -44 71 -101 71 -171c0 -71 -24 -128 -72 -171s-113 -65 -196 -65s-148 22 -197 65c-48 44 -72 101 -72 171c0 69 24 126 73 171s114 67 196 67zM292 294c-35 0 -56 -29 -56 -65c0 -47 19 -70 56 -70c36 0 58 27 58 70
c0 39 -22 65 -58 65z" />
    <glyph glyph-name="afii10081" unicode="&#x43f;" horiz-adv-x="587" 
d="M40 448h507v-448h-217v289h-74v-289h-216v448z" />
    <glyph glyph-name="afii10082" unicode="&#x440;" horiz-adv-x="620" 
d="M256 -219h-216v666h183l15 -46h5c33 45 92 61 139 61c71 0 125 -22 162 -67c37 -44 56 -100 56 -168c0 -73 -21 -131 -64 -174s-98 -64 -165 -64c-47 0 -84 10 -109 31l-6 -4v-235zM331 153c33 0 56 29 56 69c0 46 -19 69 -56 69c-35 0 -58 -28 -58 -71
c0 -37 21 -67 58 -67z" />
    <glyph glyph-name="afii10083" unicode="&#x441;" horiz-adv-x="449" 
d="M282 464c44 0 85 -7 123 -21v-167c-29 13 -57 20 -86 20c-49 0 -82 -24 -82 -71c0 -48 30 -72 78 -72c32 0 67 9 104 28v-161c-41 -21 -94 -32 -158 -32c-75 0 -134 21 -177 64s-64 98 -64 167c0 75 24 135 72 179c49 44 112 66 190 66z" />
    <glyph glyph-name="afii10084" unicode="&#x442;" horiz-adv-x="481" 
d="M134 289h-129v159h471v-159h-128v-289h-214v289z" />
    <glyph glyph-name="afii10085" unicode="&#x443;" horiz-adv-x="548" 
d="M44 -219l123 263l-172 404h219l50 -194h6l55 194h220l-292 -667h-209z" />
    <glyph glyph-name="afii10086" unicode="&#x444;" horiz-adv-x="806" 
d="M508 -219h-211v210c-103 7 -180 39 -220 86s-57 95 -57 148c0 61 25 112 76 153s118 65 201 73v260h211v-260c89 -5 157 -28 205 -71c49 -42 73 -95 73 -158c0 -61 -24 -113 -73 -158c-49 -44 -117 -69 -205 -74v-209zM508 300v-153c39 4 71 38 71 78c0 41 -24 66 -71 75
zM299 147v151c-40 -5 -69 -40 -69 -73c0 -48 32 -74 69 -78z" />
    <glyph glyph-name="afii10087" unicode="&#x445;" horiz-adv-x="580" 
d="M575 0h-217l-68 182l-68 -182h-217l102 231l-97 216h217l63 -168l62 168h217l-97 -216z" />
    <glyph glyph-name="afii10088" unicode="&#x446;" horiz-adv-x="633" 
d="M450 0h-410v448h216v-289h74v289h217v-288h76v-292h-173v132z" />
    <glyph glyph-name="afii10089" unicode="&#x447;" horiz-adv-x="584" 
d="M544 0h-224v183c-40 -23 -84 -35 -131 -35c-107 0 -159 42 -159 143v156h217v-128c0 -33 38 -45 73 -26v154h224v-447z" />
    <glyph glyph-name="afii10090" unicode="&#x448;" horiz-adv-x="863" 
d="M40 0v447h217v-289h68v290h217v-290h64v290h217v-448h-783z" />
    <glyph glyph-name="afii10091" unicode="&#x449;" horiz-adv-x="909" 
d="M40 0v447h217v-289h68v290h217v-290h64v290h217v-288h76v-292h-172v132h-687z" />
    <glyph glyph-name="afii10092" unicode="&#x44a;" horiz-adv-x="710" 
d="M8 448h399v-123h101c76 0 182 -40 182 -160c0 -96 -69 -165 -173 -165h-328v289h-181v159zM447 201h-40v-64h40c25 0 37 11 37 33c0 21 -12 31 -37 31z" />
    <glyph glyph-name="afii10093" unicode="&#x44b;" horiz-adv-x="836" 
d="M40 448h218v-123h101c76 0 182 -40 182 -160c0 -96 -69 -165 -173 -165h-328v448zM298 201h-40v-64h40c25 0 37 11 37 33c0 21 -12 31 -37 31zM796 447v-447h-219v447h219z" />
    <glyph glyph-name="afii10094" unicode="&#x44c;" horiz-adv-x="561" 
d="M40 448h218v-123h101c76 0 182 -40 182 -160c0 -96 -69 -165 -173 -165h-328v448zM298 201h-40v-64h40c25 0 37 11 37 33c0 21 -12 31 -37 31z" />
    <glyph glyph-name="afii10095" unicode="&#x44d;" horiz-adv-x="449" 
d="M203 185h-79v81h78c-9 20 -33 30 -72 30c-29 0 -57 -7 -86 -20v164c47 16 93 24 140 24c76 0 136 -22 179 -66c44 -43 66 -101 66 -174c0 -67 -22 -124 -65 -169s-102 -67 -176 -67c-64 0 -117 11 -158 32v161c37 -19 72 -28 104 -28c35 0 58 11 69 32z" />
    <glyph glyph-name="afii10096" unicode="&#x44e;" horiz-adv-x="854" 
d="M257 171v-171h-217v447h217v-167h58c24 111 118 184 255 184c81 0 144 -22 190 -67c46 -44 69 -101 69 -171c0 -71 -23 -128 -70 -171s-110 -65 -189 -65c-137 0 -231 70 -255 181h-58zM573 294c-33 0 -54 -29 -54 -65c0 -47 18 -70 54 -70c35 0 56 27 56 70
c0 39 -21 65 -56 65z" />
    <glyph glyph-name="afii10097" unicode="&#x44f;" horiz-adv-x="583" 
d="M242 447h301v-447h-217v307h-12c-32 0 -48 -19 -48 -42s13 -40 40 -50v-28l-85 -187h-221l116 188c-47 24 -66 71 -66 112c0 95 71 147 192 147z" />
    <glyph glyph-name="afii10071" unicode="&#x451;" horiz-adv-x="525" 
d="M505 226v-22h-274c4 -49 36 -74 97 -74c51 0 101 14 151 43v-138c-55 -31 -117 -47 -184 -47c-93 0 -162 23 -207 69c-45 47 -68 103 -68 170s22 124 65 170c44 46 103 69 178 69c149 0 242 -84 242 -240zM257 621c0 -49 -37 -91 -89 -91c-53 0 -89 41 -89 89
c0 53 41 90 89 90c51 0 89 -40 89 -88zM471 621c0 -49 -37 -91 -88 -91c-53 0 -89 41 -89 89c0 53 41 90 89 90c51 0 88 -40 88 -88zM273 318c-24 0 -40 -26 -40 -53h80c-1 35 -15 53 -40 53z" />
    <glyph glyph-name="afii10099" unicode="&#x452;" horiz-adv-x="609" 
d="M250 617h145v-85h-145v-108l6 -3c38 23 81 35 129 35c59 0 107 -20 146 -60s58 -101 58 -183c0 -77 -28 -154 -69 -210c-40 -55 -80 -93 -120 -120l-137 75c77 59 115 130 115 213c0 79 -33 114 -65 114c-38 0 -57 -23 -57 -69v-216h-216v532h-40v85h40v94h210v-94z" />
    <glyph glyph-name="afii10100" unicode="&#x453;" horiz-adv-x="476" 
d="M258 0h-218v448h421v-166h-203v-282zM268 711l132 -70l-157 -139h-108z" />
    <glyph glyph-name="afii10101" unicode="&#x454;" horiz-adv-x="449" 
d="M282 464c44 0 85 -7 123 -21v-167c-29 13 -57 20 -86 20c-33 0 -57 -10 -71 -30h77v-81h-79c13 -21 36 -32 69 -32c32 0 67 9 104 28v-161c-41 -21 -94 -32 -158 -32c-75 0 -134 21 -177 64s-64 98 -64 167c0 75 24 135 72 179c49 44 112 66 190 66z" />
    <glyph glyph-name="afii10102" unicode="&#x455;" horiz-adv-x="430" 
d="M385 430v-141c-32 19 -93 36 -133 36c-19 0 -29 -5 -29 -14s47 -26 94 -46c48 -19 95 -69 95 -134c0 -57 -44 -144 -201 -144c-73 0 -136 14 -191 41v155c20 -16 47 -31 81 -44s62 -19 84 -19c21 0 31 5 31 15c0 28 -192 53 -192 186c0 37 16 70 48 99s80 43 145 43
c55 0 111 -11 168 -33z" />
    <glyph glyph-name="afii10103" unicode="&#x456;" horiz-adv-x="303" 
d="M261 447v-447h-219v447h219zM266 613c0 -63 -47 -114 -112 -114c-67 0 -111 51 -111 112c0 33 11 59 33 80c23 21 49 31 78 31c65 0 112 -49 112 -109z" />
    <glyph glyph-name="afii10104" unicode="&#x457;" horiz-adv-x="303" 
d="M137 614c0 -49 -37 -91 -89 -91c-53 0 -89 41 -89 89c0 53 41 90 89 90c51 0 89 -40 89 -88zM351 614c0 -49 -37 -91 -88 -91c-53 0 -89 41 -89 89c0 53 41 90 89 90c51 0 88 -40 88 -88zM261 447v-447h-219v447h219z" />
    <glyph glyph-name="afii10105" unicode="&#x458;" horiz-adv-x="303" 
d="M265 613c0 -63 -47 -114 -112 -114c-67 0 -111 51 -111 112c0 33 11 59 33 80c23 21 49 31 78 31c65 0 112 -49 112 -109zM44 447h217v-394c0 -104 -33 -182 -89 -223c-56 -43 -119 -62 -196 -66l-67 173c53 3 88 13 107 31s28 53 28 104v375z" />
    <glyph glyph-name="afii10106" unicode="&#x459;" horiz-adv-x="836" 
d="M95 216l21 231h435v-153h90c71 0 175 -30 175 -150c0 -92 -69 -144 -166 -144h-315v291h-40l-8 -93c-2 -23 -4 -42 -7 -57c-2 -14 -8 -32 -17 -55s-21 -41 -36 -54c-29 -27 -87 -52 -164 -56l-58 143c36 3 61 15 72 35c12 21 15 35 18 62zM587 171h-36v-46h36
c17 0 27 10 27 22c0 13 -11 24 -27 24z" />
    <glyph glyph-name="afii10107" unicode="&#x45a;" horiz-adv-x="835" 
d="M586 171h-36v-46h36c17 0 27 10 27 22c0 13 -11 24 -27 24zM333 447h217v-153h90c71 0 175 -30 175 -150c0 -92 -69 -144 -166 -144h-315l-1 171h-75v-171h-218v447h217v-154h76v154z" />
    <glyph glyph-name="afii10108" unicode="&#x45b;" horiz-adv-x="584" 
d="M250 532v-124l3 -1c35 38 79 57 132 57c103 0 159 -58 159 -162v-302h-217v247c0 31 -10 47 -31 47c-26 0 -39 -22 -39 -65v-229h-217v532h-40v85h40v94h210v-94h145v-85h-145z" />
    <glyph glyph-name="afii10109" unicode="&#x45c;" horiz-adv-x="591" 
d="M465 232l121 -232h-226l-93 209v-209h-227v447h227v-195l94 195h223zM343 711l132 -70l-157 -139h-108z" />
    <glyph glyph-name="afii10110" unicode="&#x45e;" horiz-adv-x="548" 
d="M286 493c-59 0 -103 18 -133 54c-29 37 -45 82 -47 136h92c5 -55 36 -82 93 -82c41 0 77 33 85 82h90c-3 -51 -20 -95 -49 -133s-73 -57 -131 -57zM44 -219l123 263l-172 404h219l50 -194h6l55 194h220l-292 -667h-209z" />
    <glyph glyph-name="afii10193" unicode="&#x45f;" horiz-adv-x="611" 
d="M215 0h-162v447h217v-289h69v290h216v-448h-164v-148h-176v148z" />
    <glyph glyph-name="afii10050" unicode="&#x490;" horiz-adv-x="584" 
d="M577 489h-283v-489h-244v659h336v122h191v-292z" />
    <glyph glyph-name="afii10098" unicode="&#x491;" horiz-adv-x="466" 
d="M461 288h-203v-288h-217l-1 448h256v107h165v-267z" />
    <glyph glyph-name="schwacyrillic" unicode="&#x4d9;" horiz-adv-x="538" 
d="M31 228v22h274c-4 49 -36 74 -97 74c-51 0 -101 -14 -151 -43v138c55 31 122 47 200 47c199 0 259 -119 259 -239c0 -67 -22 -124 -66 -170c-43 -46 -102 -69 -177 -69c-149 0 -242 84 -242 240zM263 136c24 0 40 26 40 53h-80c1 -35 15 -53 40 -53z" />
    <glyph glyph-name="Wgrave" unicode="&#x1e80;" horiz-adv-x="1037" 
d="M717 -22h-26l-173 336l-172 -336h-26l-315 681h256l109 -245h4l130 259h26l138 -259h4l106 245h254zM617 703h-123l-162 139l139 70z" />
    <glyph glyph-name="wgrave" unicode="&#x1e81;" horiz-adv-x="802" 
d="M412 465l109 -162h4l62 144h220l-240 -461h-30l-134 202l-133 -202h-30l-245 461h223l66 -144h4l97 162h27zM488 502h-108l-157 139l132 70z" />
    <glyph glyph-name="Wacute" unicode="&#x1e82;" horiz-adv-x="1037" 
d="M717 -22h-26l-173 336l-172 -336h-26l-315 681h256l109 -245h4l130 259h26l138 -259h4l106 245h254zM586 913l139 -70l-162 -139h-123z" />
    <glyph glyph-name="wacute" unicode="&#x1e83;" horiz-adv-x="802" 
d="M412 465l109 -162h4l62 144h220l-240 -461h-30l-134 202l-133 -202h-30l-245 461h223l66 -144h4l97 162h27zM454 711l132 -70l-157 -139h-108z" />
    <glyph glyph-name="Wdieresis" unicode="&#x1e84;" horiz-adv-x="1037" 
d="M504 792c0 -49 -38 -92 -89 -92c-53 0 -90 42 -90 90c0 53 42 90 90 90c51 0 89 -41 89 -88zM718 792c0 -49 -37 -92 -88 -92c-53 0 -89 42 -89 90c0 53 41 90 89 90c51 0 88 -40 88 -88zM717 -22h-26l-173 336l-172 -336h-26l-315 681h256l109 -245h4l130 259h26
l138 -259h4l106 245h254z" />
    <glyph glyph-name="wdieresis" unicode="&#x1e85;" horiz-adv-x="802" 
d="M382 597c0 -49 -37 -91 -89 -91c-53 0 -89 41 -89 89c0 53 41 90 89 90c51 0 89 -40 89 -88zM596 597c0 -49 -37 -91 -88 -91c-53 0 -89 41 -89 89c0 53 41 90 89 90c51 0 88 -40 88 -88zM412 465l109 -162h4l62 144h220l-240 -461h-30l-134 202l-133 -202h-30l-245 461
h223l66 -144h4l97 162h27z" />
    <glyph glyph-name="Ygrave" unicode="&#x1ef2;" horiz-adv-x="685" 
d="M218 0v228l-213 431h262l50 -142c8 -23 17 -53 27 -90h4c5 26 13 55 24 88l47 144h261l-219 -431v-228h-243zM445 703h-123l-162 139l139 70z" />
    <glyph glyph-name="ygrave" unicode="&#x1ef3;" horiz-adv-x="548" 
d="M44 -219l123 263l-172 404h219l50 -194h6l55 194h220l-292 -667h-209zM369 502h-108l-157 139l132 70z" />
    <glyph glyph-name="endash" unicode="&#x2013;" horiz-adv-x="638" 
d="M615 185h-591v145h591v-145z" />
    <glyph glyph-name="emdash" unicode="&#x2014;" horiz-adv-x="866" 
d="M840 185h-814v145h814v-145z" />
    <glyph glyph-name="afii00208" unicode="&#x2015;" horiz-adv-x="866" 
d="M840 185h-814v145h814v-145z" />
    <glyph glyph-name="quoteleft" unicode="&#x2018;" horiz-adv-x="269" 
d="M228 417c0 -55 -41 -97 -92 -97c-59 0 -95 42 -95 99c0 39 13 82 39 130c27 49 56 91 88 126l68 -11l-55 -167c31 -14 47 -41 47 -80z" />
    <glyph glyph-name="quoteright" unicode="&#x2019;" horiz-adv-x="269" 
d="M44 571c0 55 41 97 92 97c59 0 95 -42 95 -99c0 -39 -13 -82 -40 -131c-26 -48 -55 -90 -87 -125l-68 11l55 167c-31 14 -47 41 -47 80z" />
    <glyph glyph-name="quotesinglbase" unicode="&#x201a;" horiz-adv-x="269" 
d="M42 81c0 55 41 97 92 97c59 0 95 -42 95 -99c0 -39 -13 -82 -40 -130c-26 -49 -55 -91 -87 -126l-68 11l55 167c-31 14 -47 41 -47 80z" />
    <glyph glyph-name="quotedblleft" unicode="&#x201c;" horiz-adv-x="500" 
d="M228 417c0 -55 -41 -97 -92 -97c-59 0 -95 42 -95 99c0 39 13 82 39 130c27 49 56 91 88 126l68 -11l-55 -167c31 -14 47 -41 47 -80zM448 417c0 -55 -41 -97 -92 -97c-59 0 -95 42 -95 99c0 39 13 82 39 130c27 49 56 91 88 126l68 -11l-55 -167c31 -14 47 -41 47 -80z
" />
    <glyph glyph-name="quotedblright" unicode="&#x201d;" horiz-adv-x="500" 
d="M269 572c0 55 41 97 92 97c59 0 95 -42 95 -99c0 -39 -13 -82 -40 -131c-26 -48 -55 -90 -87 -125l-68 11l55 167c-31 14 -47 41 -47 80zM49 572c0 55 41 97 92 97c59 0 95 -42 95 -99c0 -39 -13 -82 -40 -131c-26 -48 -55 -90 -87 -125l-68 11l55 167
c-31 14 -47 41 -47 80z" />
    <glyph glyph-name="quotedblbase" unicode="&#x201e;" horiz-adv-x="501" 
d="M45 81c0 55 41 97 92 97c59 0 95 -42 95 -99c0 -39 -13 -82 -40 -130c-26 -49 -55 -91 -87 -126l-68 11l55 167c-31 14 -47 41 -47 80zM268 81c0 55 41 97 92 97c59 0 95 -42 95 -99c0 -39 -13 -82 -40 -130c-26 -49 -55 -91 -87 -126l-68 11l55 167
c-31 14 -47 41 -47 80z" />
    <glyph glyph-name="dagger" unicode="&#x2020;" horiz-adv-x="626" 
d="M568 320h-154v-444h-213v444h-143v172h142v173h213v-173h155v-172z" />
    <glyph glyph-name="daggerdbl" unicode="&#x2021;" horiz-adv-x="626" 
d="M58 191h143v145h-143v168h142v161h213v-161h155v-168h-154v-145h154v-170h-154v-145h-213v145h-143v170z" />
    <glyph glyph-name="bullet" unicode="&#x2022;" horiz-adv-x="498" 
d="M83 247c0 47 16 86 49 119s72 49 118 49c47 0 86 -16 119 -49s49 -72 49 -119c0 -46 -16 -85 -49 -118c-33 -32 -72 -48 -119 -48c-46 0 -85 16 -118 48c-33 33 -49 72 -49 118z" />
    <glyph glyph-name="trianglebullet" unicode="&#x2023;" horiz-adv-x="506" 
d="M86 68v408l390 -199z" />
    <glyph glyph-name="ellipsis" unicode="&#x2026;" horiz-adv-x="832" 
d="M256 85c0 -26 -10 -49 -30 -68c-19 -19 -42 -29 -67 -29c-27 0 -51 10 -71 29s-30 42 -30 68c0 56 46 101 101 101c52 0 97 -45 97 -101zM516 85c0 -52 -45 -97 -97 -97c-27 0 -51 10 -71 29s-30 42 -30 68c0 56 46 101 101 101c52 0 97 -45 97 -101zM776 85
c0 -52 -45 -97 -97 -97c-27 0 -51 10 -71 29s-30 42 -30 68c0 56 46 101 101 101c52 0 97 -45 97 -101z" />
    <glyph glyph-name="perthousand" unicode="&#x2030;" horiz-adv-x="1282" 
d="M597 687h123l-448 -722h-122zM221 695c57 0 103 -16 136 -49s50 -73 50 -122c0 -48 -17 -89 -51 -122s-79 -50 -135 -50c-115 0 -186 71 -186 172c0 48 17 88 50 121c34 33 79 50 136 50zM222 569c-23 0 -39 -21 -39 -45c0 -32 13 -48 39 -48c24 0 41 17 41 48
c0 27 -17 45 -41 45zM655 328c57 0 103 -16 136 -49s50 -73 50 -122c0 -48 -17 -89 -51 -122s-79 -50 -135 -50c-115 0 -186 71 -186 172c0 48 17 88 50 121c34 33 79 50 136 50zM656 202c-23 0 -39 -21 -39 -45c0 -32 13 -48 39 -48c24 0 41 17 41 48c0 27 -17 45 -41 45z
M1065 328c57 0 103 -16 136 -49s50 -73 50 -122c0 -48 -17 -89 -51 -122s-79 -50 -135 -50c-115 0 -186 71 -186 172c0 48 17 88 50 121c34 33 79 50 136 50zM1066 202c-23 0 -39 -21 -39 -45c0 -32 13 -48 39 -48c24 0 41 17 41 48c0 27 -17 45 -41 45z" />
    <glyph glyph-name="guilsinglleft" unicode="&#x2039;" horiz-adv-x="340" 
d="M330 418l-133 -201l133 -207h-188l-122 199v10l122 199h188z" />
    <glyph glyph-name="guilsinglright" unicode="&#x203a;" horiz-adv-x="340" 
d="M198 10h-188l133 207l-133 201h188l122 -199v-10z" />
    <glyph glyph-name="fraction" unicode="&#x2044;" horiz-adv-x="107" 
d="M227 687h123l-448 -722h-122z" />
    <glyph glyph-name="fraction" unicode="&#x2215;" horiz-adv-x="107" 
d="M227 687h123l-448 -722h-122z" />
    <glyph glyph-name="zerosuperior" unicode="&#x2070;" horiz-adv-x="393" 
d="M193 381c-131 0 -188 83 -188 206c0 58 15 107 46 146s79 59 144 59s113 -20 144 -59s46 -87 46 -146s-16 -108 -48 -147c-31 -39 -79 -59 -144 -59zM229 589c0 58 -11 87 -34 87s-35 -29 -35 -87c0 -61 12 -91 35 -91s34 30 34 91z" />
    <glyph glyph-name="foursuperior" unicode="&#x2074;" horiz-adv-x="393" 
d="M6 477l141 305h138l-106 -220h32v12l34 73h113v-85h32v-104h-32v-70h-146v70h-206v19z" />
    <glyph glyph-name="fivesuperior" unicode="&#x2075;" horiz-adv-x="393" 
d="M74 787h271v-105h-163l-2 -18c5 1 14 1 25 1c92 0 163 -49 163 -136c0 -40 -17 -74 -52 -102c-34 -28 -79 -42 -136 -42c-56 0 -106 10 -150 29v125c38 -29 79 -43 123 -43c43 0 70 17 70 41s-24 36 -73 36c-34 0 -63 -4 -86 -11l-17 10z" />
    <glyph glyph-name="sixsuperior" unicode="&#x2076;" horiz-adv-x="393" 
d="M66 663l86 124h173l-98 -131c97 1 151 -52 151 -131c0 -84 -72 -141 -183 -141c-109 0 -184 53 -184 144c0 37 18 82 55 135zM163 530c0 -17 12 -29 32 -29c22 0 33 10 33 29c0 15 -14 28 -33 28s-32 -15 -32 -28z" />
    <glyph glyph-name="sevensuperior" unicode="&#x2077;" horiz-adv-x="393" 
d="M178 678h-148v108h348v-23l-183 -375h-160z" />
    <glyph glyph-name="eightsuperior" unicode="&#x2078;" horiz-adv-x="393" 
d="M223 657c0 13 -11 24 -26 24c-16 0 -24 -8 -24 -24c0 -15 9 -22 26 -22c13 0 24 10 24 22zM229 530c0 21 -11 31 -32 31c-20 0 -33 -12 -33 -31c-4 -39 71 -39 65 0zM363 672c0 -33 -14 -57 -42 -72c39 -16 57 -52 57 -87c0 -77 -68 -129 -181 -129
c-117 0 -186 52 -186 128c0 33 21 72 53 89c-25 15 -38 38 -38 69c0 37 16 67 49 90s73 35 122 35c100 0 166 -50 166 -123z" />
    <glyph glyph-name="ninesuperior" unicode="&#x2079;" horiz-adv-x="393" 
d="M325 515l-87 -125h-174l98 133c-97 -1 -150 52 -150 132c0 84 72 140 183 140c108 0 184 -53 184 -142c0 -40 -18 -86 -54 -138zM228 650c0 19 -11 28 -33 28c-19 0 -33 -11 -33 -28c-3 -38 69 -36 66 0z" />
    <glyph glyph-name="plussuperior" unicode="&#x207a;" horiz-adv-x="393" 
d="M341 585v-83h-100v-95h-93v95h-102v83h102v94h93v-94h100z" />
    <glyph glyph-name="hyphensuperior" unicode="&#x207b;" horiz-adv-x="242" 
d="M217 576v-89h-193v89h193z" />
    <glyph glyph-name="equalsuperior" unicode="&#x207c;" horiz-adv-x="393" 
d="M336 622v-82h-285v82h285zM336 507v-81h-285v81h285z" />
    <glyph glyph-name="parenleftsuperior" unicode="&#x207d;" horiz-adv-x="220" 
d="M24 568c0 87 39 187 107 259l90 -37c-47 -63 -70 -137 -70 -220c0 -81 22 -155 67 -222l-87 -41c-71 71 -107 158 -107 261z" />
    <glyph glyph-name="parenrightsuperior" unicode="&#x207e;" horiz-adv-x="220" 
d="M204 567c0 -103 -36 -190 -107 -261l-87 41c45 67 67 141 67 222c0 83 -23 157 -70 220l90 37c68 -72 107 -172 107 -259z" />
    <glyph glyph-name="nsuperior" unicode="&#x207f;" horiz-adv-x="404" 
d="M24 300v297h127l15 -36c25 31 59 46 100 46c72 0 111 -38 111 -109v-198h-158v164c0 16 -5 24 -16 24c-15 0 -22 -12 -22 -36v-152h-157z" />
    <glyph glyph-name="zeroinferior" unicode="&#x2080;" horiz-adv-x="393" 
d="M193 -99c-131 0 -188 83 -188 206c0 58 15 107 46 146s79 59 144 59s113 -20 144 -59s46 -87 46 -146s-16 -108 -48 -147c-31 -39 -79 -59 -144 -59zM229 109c0 58 -11 87 -34 87s-35 -29 -35 -87c0 -61 12 -91 35 -91s34 30 34 91z" />
    <glyph glyph-name="oneinferior" unicode="&#x2081;" horiz-adv-x="393" 
d="M297 -90h-156v226l-86 -32v127l219 82h23v-403z" />
    <glyph glyph-name="twoinferior" unicode="&#x2082;" horiz-adv-x="393" 
d="M356 -92h-337l-16 14c4 67 36 121 75 152c57 47 127 75 127 110c0 13 -8 20 -24 20c-24 0 -41 -15 -41 -42c0 -7 1 -15 4 -22l-123 24c-3 9 -4 18 -4 28c0 36 17 66 52 89c35 24 74 36 119 36c96 0 169 -50 169 -131c0 -41 -27 -80 -54 -100c-13 -9 -31 -22 -55 -37
c-23 -15 -40 -26 -51 -35h159v-106z" />
    <glyph glyph-name="threeinferior" unicode="&#x2083;" horiz-adv-x="393" 
d="M123 91l-15 15l64 92h-143v108h341v-21l-91 -129c55 -19 82 -57 82 -113c0 -40 -17 -73 -51 -100s-79 -41 -136 -41s-107 10 -151 29v125c33 -25 88 -43 127 -43c43 0 65 19 65 42c0 21 -22 41 -54 41c-13 0 -26 -2 -38 -5z" />
    <glyph glyph-name="fourinferior" unicode="&#x2084;" horiz-adv-x="393" 
d="M-1 -1l141 305h138l-106 -220h32v12l34 73h113v-85h32v-104h-32v-70h-146v70h-206v19z" />
    <glyph glyph-name="fiveinferior" unicode="&#x2085;" horiz-adv-x="393" 
d="M74 307h271v-105h-163l-2 -18c5 1 14 1 25 1c92 0 163 -49 163 -136c0 -40 -17 -74 -52 -102c-34 -28 -79 -42 -136 -42c-56 0 -106 10 -150 29v125c38 -29 79 -43 123 -43c43 0 70 17 70 41s-24 36 -73 36c-34 0 -63 -4 -86 -11l-17 10z" />
    <glyph glyph-name="sixinferior" unicode="&#x2086;" horiz-adv-x="393" 
d="M66 183l86 124h173l-98 -131c97 1 151 -52 151 -131c0 -84 -72 -141 -183 -141c-109 0 -184 53 -184 144c0 37 18 82 55 135zM163 50c0 -17 12 -29 32 -29c22 0 33 10 33 29c0 15 -14 28 -33 28s-32 -15 -32 -28z" />
    <glyph glyph-name="seveninferior" unicode="&#x2087;" horiz-adv-x="393" 
d="M178 198h-148v108h348v-23l-183 -375h-160z" />
    <glyph glyph-name="eightinferior" unicode="&#x2088;" horiz-adv-x="393" 
d="M223 177c0 13 -11 24 -26 24c-16 0 -24 -8 -24 -24c0 -15 9 -22 26 -22c13 0 24 10 24 22zM229 50c0 21 -11 31 -32 31c-20 0 -33 -12 -33 -31c-4 -39 71 -39 65 0zM363 192c0 -33 -14 -57 -42 -72c39 -16 57 -52 57 -87c0 -77 -68 -129 -181 -129
c-117 0 -186 52 -186 128c0 33 21 72 53 89c-25 15 -38 38 -38 69c0 37 16 67 49 90s73 35 122 35c100 0 166 -50 166 -123z" />
    <glyph glyph-name="nineinferior" unicode="&#x2089;" horiz-adv-x="393" 
d="M325 35l-87 -125h-174l98 133c-97 -1 -150 52 -150 132c0 84 72 140 183 140c108 0 184 -53 184 -142c0 -40 -18 -86 -54 -138zM228 170c0 19 -11 28 -33 28c-19 0 -33 -11 -33 -28c-3 -38 69 -36 66 0z" />
    <glyph glyph-name="plusinferior" unicode="&#x208a;" horiz-adv-x="393" 
d="M341 115v-83h-100v-95h-93v95h-102v83h102v94h93v-94h100z" />
    <glyph glyph-name="hypheninferior" unicode="&#x208b;" horiz-adv-x="242" 
d="M217 106v-89h-193v89h193z" />
    <glyph glyph-name="equalinferior" unicode="&#x208c;" horiz-adv-x="393" 
d="M336 152v-82h-285v82h285zM336 37v-81h-285v81h285z" />
    <glyph glyph-name="parenleftinferior" unicode="&#x208d;" horiz-adv-x="220" 
d="M22 103c0 87 39 187 107 259l90 -37c-47 -63 -70 -137 -70 -220c0 -81 22 -155 67 -222l-87 -41c-71 71 -107 158 -107 261z" />
    <glyph glyph-name="parenrightinferior" unicode="&#x208e;" horiz-adv-x="220" 
d="M201 102c0 -103 -36 -190 -107 -261l-87 41c45 67 67 141 67 222c0 83 -23 157 -70 220l90 37c68 -72 107 -172 107 -259z" />
    <glyph glyph-name="Euro" unicode="&#x20ac;" 
d="M471 418v-69h-445v69h46c17 75 53 136 110 183s130 71 220 71c56 0 106 -8 151 -24v-193c-39 17 -78 26 -119 26c-65 0 -109 -21 -132 -63h169zM26 250v69h445v-69h-175c18 -46 61 -69 128 -69c44 0 91 12 141 36l1 -197c-51 -19 -107 -29 -170 -29
c-181 0 -298 100 -326 259h-44z" />
    <glyph glyph-name="centigrade" unicode="&#x2103;" horiz-adv-x="879" 
d="M838 213l1 -199c-56 -19 -119 -29 -189 -29c-116 0 -207 32 -272 96s-97 146 -97 247c0 61 14 117 41 168s70 94 128 127s127 50 206 50c63 0 119 -8 168 -24v-195c-42 17 -86 26 -132 26c-96 0 -167 -51 -167 -154c0 -100 63 -149 155 -149c49 0 102 12 158 36zM151 430
c-80 0 -130 55 -130 124c0 71 55 124 130 124c34 0 63 -12 88 -36s37 -53 37 -88c0 -33 -13 -62 -38 -87s-54 -37 -87 -37zM149 605c-28 0 -54 -23 -54 -51c0 -31 21 -53 54 -53c29 0 53 24 53 53s-24 51 -53 51z" />
    <glyph glyph-name="fahrenheit" unicode="&#x2109;" horiz-adv-x="838" 
d="M158 430c-80 0 -130 55 -130 124c0 71 55 124 130 124c34 0 63 -12 88 -36s37 -53 37 -88c0 -33 -13 -62 -38 -87s-54 -37 -87 -37zM156 605c-28 0 -54 -23 -54 -51c0 -31 21 -53 54 -53c29 0 53 24 53 53s-24 51 -53 51zM576 0h-243v659h490v-180h-247v-80h201v-172
h-201v-227z" />
    <glyph glyph-name="afii61289" unicode="&#x2113;" horiz-adv-x="504" 
d="M65 142l-60 92l88 61v184c0 160 69 230 174 230c81 0 143 -45 143 -141s-62 -204 -187 -323v-43c0 -55 18 -83 53 -83c25 0 64 33 104 102l100 -64c-59 -111 -128 -166 -206 -166c-103 0 -171 69 -179 169c-7 -5 -24 -15 -30 -18zM284 566c0 17 -7 25 -21 25
c-25 0 -39 -55 -40 -165c41 57 61 104 61 140z" />
    <glyph glyph-name="afii61352" unicode="&#x2116;" horiz-adv-x="1082" 
d="M1027 329v-119h-344v119h344zM293 0h-243v679h24l310 -268h4v248h244v-679h-22l-313 283h-4v-263zM854 678c117 0 187 -65 187 -157c0 -93 -72 -157 -187 -157c-116 0 -188 64 -188 157c0 91 72 157 188 157zM855 559c-19 0 -32 -17 -32 -36c0 -27 11 -41 32 -41
c23 0 35 14 35 41c0 24 -12 36 -35 36z" />
    <glyph glyph-name="published" unicode="&#x2117;" horiz-adv-x="888" 
d="M662 402c0 -39 -15 -73 -44 -102s-70 -43 -121 -43h-40v-134h-156l2 426h185c113 0 174 -66 174 -147zM508 398c0 24 -15 42 -38 42h-13v-83h12c25 0 39 20 39 41zM445 -48c-117 0 -210 37 -280 110c-70 74 -105 169 -105 285c0 113 37 207 112 280
c75 74 166 111 273 111s197 -37 271 -111c75 -73 112 -167 112 -280s-37 -208 -112 -283c-74 -75 -164 -112 -271 -112zM445 641c-80 0 -147 -29 -200 -86s-80 -127 -80 -208c0 -85 26 -156 77 -213s119 -85 203 -85c83 0 149 29 200 86s76 128 76 212c0 82 -26 151 -77 208
s-118 86 -199 86z" />
    <glyph glyph-name="trademark" unicode="&#x2122;" horiz-adv-x="863" 
d="M406 685l191 -175l190 175h12v-384h-134v130h-2l-58 -64h-15l-62 62h-2v-128h-133v384h13zM359 682v-92h-96v-288h-129v288h-94v92h319z" />
    <glyph glyph-name="Ohm" unicode="&#x2126;" horiz-adv-x="812" 
d="M791 180v-180h-345v27c24 27 44 67 60 118c17 52 25 103 25 153c0 105 -40 179 -125 179s-123 -72 -123 -177c0 -49 7 -99 22 -151s34 -93 56 -122v-27h-345v180h76l3 4c-32 47 -48 106 -48 176c0 91 31 167 94 226s151 89 266 89s204 -29 266 -88
c63 -59 94 -134 94 -225c0 -65 -17 -125 -50 -178l2 -4h72z" />
    <glyph glyph-name="angstrom" unicode="&#x212b;" horiz-adv-x="715" 
d="M710 0h-239l-20 52h-194l-21 -52h-231l321 632c-67 15 -113 68 -113 135c0 41 14 75 42 103c28 29 63 43 104 43c42 0 77 -14 106 -43c29 -28 43 -62 43 -103c0 -67 -47 -119 -112 -134zM359 815c-23 0 -42 -21 -42 -48c0 -23 19 -42 42 -42c25 0 43 19 43 42
c0 27 -18 48 -43 48zM359 287h-4l-45 -101h91z" />
    <glyph glyph-name="estimated" unicode="&#x212e;" horiz-adv-x="817" 
d="M748 309h-553v-164c21 -33 50 -60 89 -81s79 -32 120 -32c81 0 161 41 214 106h73c-80 -93 -184 -149 -288 -149c-95 0 -176 34 -244 101s-102 147 -102 239c0 91 34 169 101 234c68 65 150 97 245 97c97 0 178 -34 245 -101s100 -150 100 -250zM195 349h414v165
c-19 31 -48 56 -87 75s-78 29 -118 29c-69 0 -148 -43 -209 -110v-159z" />
    <glyph glyph-name="onethird" unicode="&#x2153;" horiz-adv-x="900" 
d="M640 181l-15 15l64 92h-143v108h341v-21l-91 -129c55 -19 82 -57 82 -113c0 -40 -17 -74 -51 -101s-79 -40 -136 -40s-107 10 -151 29v125c33 -25 88 -43 127 -43c43 0 65 19 65 42c0 21 -22 41 -54 41c-13 0 -26 -2 -38 -5zM572 687h123l-448 -722h-122zM296 301h-156
v226l-86 -32v127l219 82h23v-403z" />
    <glyph glyph-name="twothirds" unicode="&#x2154;" horiz-adv-x="900" 
d="M350 298h-337l-16 14c4 67 36 121 75 152c57 47 127 75 127 110c0 13 -8 20 -24 20c-24 0 -41 -15 -41 -42c0 -7 1 -15 4 -22l-123 24c-3 9 -4 18 -4 28c0 36 17 66 52 89c35 24 74 36 119 36c96 0 169 -50 169 -131c0 -41 -27 -80 -54 -100c-13 -9 -31 -22 -55 -37
c-23 -15 -40 -26 -51 -35h159v-106zM656 181l-15 15l64 92h-143v108h341v-21l-91 -129c55 -19 82 -57 82 -113c0 -40 -17 -74 -51 -101s-79 -40 -136 -40s-107 10 -151 29v125c33 -25 88 -43 127 -43c43 0 65 19 65 42c0 21 -22 41 -54 41c-13 0 -26 -2 -38 -5zM607 687h123
l-448 -722h-122z" />
    <glyph glyph-name="onefifth" unicode="&#x2155;" horiz-adv-x="900" 
d="M542 397h271v-105h-163l-2 -18c5 1 14 1 25 1c92 0 163 -49 163 -136c0 -40 -17 -74 -52 -102c-34 -28 -79 -42 -136 -42c-56 0 -106 10 -150 29v125c38 -29 79 -43 123 -43c43 0 70 17 70 41s-24 36 -73 36c-34 0 -63 -4 -86 -11l-17 10zM563 687h123l-448 -722h-122z
M282 301h-156v226l-86 -32v127l219 82h23v-403z" />
    <glyph glyph-name="twofifths" unicode="&#x2156;" horiz-adv-x="900" 
d="M365 298h-337l-16 14c4 67 36 121 75 152c57 47 127 75 127 110c0 13 -8 20 -24 20c-24 0 -41 -15 -41 -42c0 -7 1 -15 4 -22l-123 24c-3 9 -4 18 -4 28c0 36 17 66 52 89c35 24 74 36 119 36c96 0 169 -50 169 -131c0 -41 -27 -80 -54 -100c-13 -9 -31 -22 -55 -37
c-23 -15 -40 -26 -51 -35h159v-106zM593 397h271v-105h-163l-2 -18c5 1 14 1 25 1c92 0 163 -49 163 -136c0 -40 -17 -74 -52 -102c-34 -28 -79 -42 -136 -42c-56 0 -106 10 -150 29v125c38 -29 79 -43 123 -43c43 0 70 17 70 41s-24 36 -73 36c-34 0 -63 -4 -86 -11l-17 10
zM633 687h123l-448 -722h-122z" />
    <glyph glyph-name="threefifths" unicode="&#x2157;" horiz-adv-x="900" 
d="M144 481l-15 15l64 92h-143v108h341v-21l-91 -129c55 -19 82 -57 82 -113c0 -40 -17 -74 -51 -101s-79 -40 -136 -40s-107 10 -151 29v125c33 -25 88 -43 127 -43c43 0 65 19 65 42c0 21 -22 41 -54 41c-13 0 -26 -2 -38 -5zM562 397h271v-105h-163l-2 -18c5 1 14 1 25 1
c92 0 163 -49 163 -136c0 -40 -17 -74 -52 -102c-34 -28 -79 -42 -136 -42c-56 0 -106 10 -150 29v125c38 -29 79 -43 123 -43c43 0 70 17 70 41s-24 36 -73 36c-34 0 -63 -4 -86 -11l-17 10zM600 687h123l-448 -722h-122z" />
    <glyph glyph-name="fourfifths" unicode="&#x2158;" horiz-adv-x="900" 
d="M8 387l141 305h138l-106 -220h32v12l34 73h113v-85h32v-104h-32v-70h-146v70h-206v19zM592 397h271v-105h-163l-2 -18c5 1 14 1 25 1c92 0 163 -49 163 -136c0 -40 -17 -74 -52 -102c-34 -28 -79 -42 -136 -42c-56 0 -106 10 -150 29v125c38 -29 79 -43 123 -43
c43 0 70 17 70 41s-24 36 -73 36c-34 0 -63 -4 -86 -11l-17 10zM622 687h123l-448 -722h-122z" />
    <glyph glyph-name="onesixth" unicode="&#x2159;" horiz-adv-x="900" 
d="M537 273l86 124h173l-98 -131c97 1 151 -52 151 -131c0 -84 -72 -141 -183 -141c-109 0 -184 53 -184 144c0 37 18 82 55 135zM634 140c0 -17 12 -29 32 -29c22 0 33 10 33 29c0 15 -14 28 -33 28s-32 -15 -32 -28zM598 687h123l-448 -722h-122zM327 301h-156v226
l-86 -32v127l219 82h23v-403z" />
    <glyph glyph-name="fivesixths" unicode="&#x215a;" horiz-adv-x="900" 
d="M100 697h271v-105h-163l-2 -18c5 1 14 1 25 1c92 0 163 -49 163 -136c0 -40 -17 -74 -52 -102c-34 -28 -79 -42 -136 -42c-56 0 -106 10 -150 29v125c38 -29 79 -43 123 -43c43 0 70 17 70 41s-24 36 -73 36c-34 0 -63 -4 -86 -11l-17 10zM546 273l86 124h173l-98 -131
c97 1 151 -52 151 -131c0 -84 -72 -141 -183 -141c-109 0 -184 53 -184 144c0 37 18 82 55 135zM643 140c0 -17 12 -29 32 -29c22 0 33 10 33 29c0 15 -14 28 -33 28s-32 -15 -32 -28zM616 687h123l-448 -722h-122z" />
    <glyph glyph-name="oneeighth" unicode="&#x215b;" horiz-adv-x="900" 
d="M697 267c0 13 -11 24 -26 24c-16 0 -24 -8 -24 -24c0 -15 9 -22 26 -22c13 0 24 10 24 22zM703 140c0 21 -11 31 -32 31c-20 0 -33 -12 -33 -31c-4 -39 71 -39 65 0zM837 282c0 -33 -14 -57 -42 -72c39 -16 57 -52 57 -87c0 -77 -68 -129 -181 -129
c-117 0 -186 52 -186 128c0 33 21 72 53 89c-25 15 -38 38 -38 69c0 37 16 67 49 90s73 35 122 35c100 0 166 -50 166 -123zM564 687h123l-448 -722h-122zM284 301h-156v226l-86 -32v127l219 82h23v-403z" />
    <glyph glyph-name="threeeighths" unicode="&#x215c;" horiz-adv-x="900" 
d="M715 267c0 13 -11 24 -26 24c-16 0 -24 -8 -24 -24c0 -15 9 -22 26 -22c13 0 24 10 24 22zM721 140c0 21 -11 31 -32 31c-20 0 -33 -12 -33 -31c-4 -39 71 -39 65 0zM855 282c0 -33 -14 -57 -42 -72c39 -16 57 -52 57 -87c0 -77 -68 -129 -181 -129
c-117 0 -186 52 -186 128c0 33 21 72 53 89c-25 15 -38 38 -38 69c0 37 16 67 49 90s73 35 122 35c100 0 166 -50 166 -123zM140 481l-15 15l64 92h-143v108h341v-21l-91 -129c55 -19 82 -57 82 -113c0 -40 -17 -74 -51 -101s-79 -40 -136 -40s-107 10 -151 29v125
c33 -25 88 -43 127 -43c43 0 65 19 65 42c0 21 -22 41 -54 41c-13 0 -26 -2 -38 -5zM594 687h123l-448 -722h-122z" />
    <glyph glyph-name="fiveeighths" unicode="&#x215d;" horiz-adv-x="900" 
d="M725 267c0 13 -11 24 -26 24c-16 0 -24 -8 -24 -24c0 -15 9 -22 26 -22c13 0 24 10 24 22zM731 140c0 21 -11 31 -32 31c-20 0 -33 -12 -33 -31c-4 -39 71 -39 65 0zM865 282c0 -33 -14 -57 -42 -72c39 -16 57 -52 57 -87c0 -77 -68 -129 -181 -129
c-117 0 -186 52 -186 128c0 33 21 72 53 89c-25 15 -38 38 -38 69c0 37 16 67 49 90s73 35 122 35c100 0 166 -50 166 -123zM85 697h271v-105h-163l-2 -18c5 1 14 1 25 1c92 0 163 -49 163 -136c0 -40 -17 -74 -52 -102c-34 -28 -79 -42 -136 -42c-56 0 -106 10 -150 29v125
c38 -29 79 -43 123 -43c43 0 70 17 70 41s-24 36 -73 36c-34 0 -63 -4 -86 -11l-17 10zM602 687h123l-448 -722h-122z" />
    <glyph glyph-name="seveneighths" unicode="&#x215e;" horiz-adv-x="900" 
d="M696 267c0 13 -11 24 -26 24c-16 0 -24 -8 -24 -24c0 -15 9 -22 26 -22c13 0 24 10 24 22zM702 140c0 21 -11 31 -32 31c-20 0 -33 -12 -33 -31c-4 -39 71 -39 65 0zM836 282c0 -33 -14 -57 -42 -72c39 -16 57 -52 57 -87c0 -77 -68 -129 -181 -129
c-117 0 -186 52 -186 128c0 33 21 72 53 89c-25 15 -38 38 -38 69c0 37 16 67 49 90s73 35 122 35c100 0 166 -50 166 -123zM214 588h-148v108h348v-23l-183 -375h-160zM561 687h123l-448 -722h-122z" />
    <glyph glyph-name="uni215F" unicode="&#x215f;" horiz-adv-x="473" 
d="M567 687h123l-448 -722h-122zM295 301h-156v226l-86 -32v127l219 82h23v-403z" />
    <glyph glyph-name="partialdiff" unicode="&#x2202;" horiz-adv-x="720" 
d="M346 -12c-69 0 -126 21 -170 64c-43 43 -65 102 -65 179c0 71 22 129 66 173s98 66 162 66c38 0 69 -5 92 -16c-5 85 -68 136 -151 136c-24 0 -48 -4 -73 -12l17 136c29 5 60 8 94 8c98 0 171 -34 219 -101s72 -157 72 -270c0 -115 -25 -205 -74 -268s-112 -95 -189 -95z
M346 127c30 0 54 17 71 50c17 34 26 73 26 117c-30 29 -63 44 -98 44c-43 0 -73 -50 -73 -105c0 -71 30 -106 74 -106z" />
    <glyph glyph-name="gradient" unicode="&#x2207;" horiz-adv-x="729" 
d="M355 -20l-345 679h705l-336 -679h-24zM418 479h-120l62 -148h3z" />
    <glyph glyph-name="product" unicode="&#x220f;" horiz-adv-x="722" 
d="M672 -126h-244v605h-135v-605h-243v785h622v-785z" />
    <glyph glyph-name="summation" unicode="&#x2211;" horiz-adv-x="635" 
d="M18 659h589v-180h-227l82 -206l-89 -216h252v-181h-615l1 22l180 375l-173 367v19z" />
    <glyph glyph-name="minus" unicode="&#x2212;" 
d="M522 346v-118h-440v118h440z" />
    <glyph glyph-name="radical" unicode="&#x221a;" 
d="M213 414l70 -140h6l140 458h151l-269 -789h-25l-154 294l-65 -24l-43 121z" />
    <glyph glyph-name="infinity" unicode="&#x221e;" horiz-adv-x="785" 
d="M222 433c54 0 111 -25 171 -74c48 49 106 74 174 74c56 0 102 -17 139 -52c37 -34 55 -77 55 -130c0 -49 -19 -92 -57 -128c-37 -36 -85 -54 -144 -54c-53 0 -108 26 -166 79c-53 -53 -100 -79 -175 -79c-55 0 -101 17 -138 51s-55 78 -55 131c0 51 18 94 54 129
s83 53 142 53zM226 305c-24 0 -44 -25 -44 -54c0 -31 19 -55 42 -55s49 18 79 54c-31 37 -56 55 -77 55zM563 305c-20 0 -47 -18 -80 -54c37 -37 63 -55 79 -55c23 0 42 26 42 55c0 31 -18 54 -41 54z" />
    <glyph glyph-name="logicaland" unicode="&#x2227;" 
d="M300 200l-104 -200h-184l273 474h31l276 -474h-186z" />
    <glyph glyph-name="logicalor" unicode="&#x2228;" 
d="M285 0l-273 474h184l104 -200l106 200h186l-276 -474h-31z" />
    <glyph glyph-name="intersection" unicode="&#x2229;" 
d="M300 327c-35 0 -61 -11 -79 -32c-17 -21 -26 -43 -26 -66v-229h-168v232c0 70 26 129 77 176c51 48 117 72 196 72c87 0 155 -25 204 -74s74 -116 74 -200v-206h-169v229c0 49 -30 98 -109 98z" />
    <glyph glyph-name="union" unicode="&#x222a;" 
d="M300 146c79 0 109 49 109 98v229h169v-206c0 -84 -25 -151 -74 -200s-117 -74 -204 -74c-79 0 -145 24 -196 71c-51 48 -77 107 -77 177v232h168v-229c0 -23 9 -46 26 -67c18 -21 44 -31 79 -31z" />
    <glyph glyph-name="integral" unicode="&#x222b;" horiz-adv-x="414" 
d="M147 26c-2 66 -8 152 -18 257s-16 193 -18 263c-3 120 61 196 180 196c37 0 74 -5 112 -14v-135c-33 7 -57 10 -70 10c-48 0 -64 -18 -60 -75l11 -161l13 -133c6 -57 11 -130 14 -217c3 -117 -58 -196 -173 -196c-37 0 -78 6 -122 18v142c34 -11 60 -17 78 -17
c36 0 54 21 53 62z" />
    <glyph glyph-name="approxequal" unicode="&#x2248;" 
d="M389 308c-21 0 -49 6 -83 18c-34 13 -61 19 -80 19c-21 0 -46 -15 -74 -45l-64 55c28 63 76 103 123 103c20 0 48 -6 85 -18c37 -11 66 -17 87 -17s41 13 62 40l71 -52c-25 -63 -75 -103 -127 -103zM389 128c-21 0 -49 6 -83 18c-34 13 -61 19 -80 19s-44 -15 -74 -45
l-64 54c28 64 76 104 123 104c20 0 48 -6 85 -18c37 -11 66 -17 87 -17s42 13 62 39l71 -52c-25 -63 -75 -102 -127 -102z" />
    <glyph glyph-name="notequal" unicode="&#x2260;" 
d="M518 259v-118h-277l-58 -76h-97l60 76h-60v118h152l46 60h-198v118h291l58 75h95l-62 -75h50v-118h-140l-46 -60h186z" />
    <glyph glyph-name="lessequal" unicode="&#x2264;" 
d="M516 393l-162 -59v-5l162 -68v-132l-426 192v21l426 183v-132zM516 109v-109h-428v109h428z" />
    <glyph glyph-name="greaterequal" unicode="&#x2265;" 
d="M88 261l162 68v5l-162 59v132l426 -183v-21l-426 -192v132zM516 109v-109h-428v109h428z" />
    <glyph glyph-name="lozenge" unicode="&#x25ca;" horiz-adv-x="550" 
d="M258 -1l-231 331l231 332h32l232 -332l-232 -331h-32zM384 330l-110 164l-111 -164l111 -172z" />
    <glyph glyph-name="zero.text" unicode="&#xe000;" 
d="M591 332c0 -63 -9 -119 -28 -169c-37 -100 -129 -175 -261 -175c-99 0 -172 32 -218 95c-45 63 -68 146 -68 249c0 177 79 341 288 341c213 0 287 -167 287 -341zM370 336c0 109 -22 164 -66 164c-46 0 -69 -55 -69 -164c0 -116 23 -174 69 -174c44 0 66 58 66 174z" />
    <glyph glyph-name="one.text" unicode="&#xe001;" horiz-adv-x="497" 
d="M416 0h-227v397l-153 -58v191l357 144h23v-674z" />
    <glyph glyph-name="two.text" unicode="&#xe002;" 
d="M562 0h-512l-20 17c4 77 26 141 62 188s67 74 115 107l30 20c28 19 35 23 56 39s27 26 39 42s16 32 16 51c0 31 -23 49 -50 49c-31 0 -57 -23 -57 -64c0 -11 3 -27 8 -48l-191 36c-3 19 -5 33 -5 42c0 59 26 107 77 145s111 57 179 57c73 0 133 -19 181 -57
c49 -37 73 -89 73 -156c0 -70 -38 -133 -113 -190c-11 -9 -30 -22 -57 -40c-53 -35 -80 -57 -95 -82h264v-156z" />
    <glyph glyph-name="three.text" unicode="&#xe003;" horiz-adv-x="589" 
d="M156 339l109 162l-1 3h-215v155h512v-23l-154 -227c91 -31 140 -105 140 -189c0 -66 -26 -121 -78 -165c-51 -43 -120 -65 -207 -65c-82 0 -156 15 -223 46v179c43 -37 115 -60 179 -60c77 0 123 34 123 86c0 59 -49 85 -112 85c-17 0 -35 -2 -55 -7z" />
    <glyph glyph-name="four.text" unicode="&#xe004;" 
d="M3 142l228 517h222l-176 -381h57v31l53 117h162v-148h49v-155h-49v-123h-214v123h-332v19z" />
    <glyph glyph-name="five.text" unicode="&#xe005;" 
d="M133 660h402v-155h-253l-10 -62c17 3 35 4 56 4c69 0 126 -19 173 -58c47 -38 71 -92 71 -162c0 -67 -26 -123 -78 -169c-51 -45 -120 -68 -206 -68c-82 0 -156 15 -223 46v179c43 -37 115 -60 179 -60c77 0 123 34 123 86c0 55 -39 83 -118 83c-46 0 -93 -8 -142 -25
l-20 15z" />
    <glyph glyph-name="six.text" unicode="&#xe006;" 
d="M114 451l131 208h235l-150 -224l1 -6c79 5 141 -13 184 -53c43 -39 65 -92 65 -157c0 -69 -25 -124 -75 -166s-117 -63 -200 -63c-82 0 -149 20 -200 60c-51 41 -77 98 -77 173s29 133 86 228zM241 227c0 -39 25 -66 64 -66s65 26 65 66c0 35 -28 65 -65 65
s-64 -32 -64 -65z" />
    <glyph glyph-name="seven.text" unicode="&#xe007;" horiz-adv-x="534" 
d="M264 503h-237v156h523v-21l-284 -638h-225z" />
    <glyph glyph-name="eight.text" unicode="&#xe008;" 
d="M361 453c5 70 -111 69 -105 -1c0 -31 21 -51 53 -51c31 0 52 21 52 52zM371 225c0 40 -24 69 -64 69c-39 0 -64 -30 -64 -69c0 -36 25 -66 64 -66s64 30 64 66zM494 353l-1 -5c59 -31 87 -89 87 -149c0 -63 -24 -113 -73 -152c-48 -38 -115 -57 -200 -57
c-177 0 -279 83 -279 207c0 60 31 118 84 149l1 4c-40 27 -60 68 -60 123c0 59 24 107 72 144c49 37 109 56 182 56c75 0 135 -18 180 -55s68 -84 68 -142c0 -45 -22 -95 -61 -123z" />
    <glyph glyph-name="nine.text" unicode="&#xe009;" 
d="M496 212l-133 -212h-235l152 228l-1 6c-79 -5 -141 13 -184 52c-43 40 -65 93 -65 158c0 69 25 124 75 166s117 63 200 63c82 0 149 -20 200 -61c51 -40 77 -97 77 -172s-29 -133 -86 -228zM369 436c0 39 -25 66 -64 66s-65 -26 -65 -66c0 -35 28 -65 65 -65s64 32 64 65
z" />
    <glyph glyph-name="numbersign.text" unicode="&#xe00a;" 
d="M192 -1h-119l44 200h-73v100h95l15 68h-81v97h102l36 163h117l-36 -163h61l36 163h114l-35 -163h92v-97h-112l-16 -68h95v-100h-115l-44 -200h-116l43 200h-62zM332 367h-62l-14 -68h62z" />
    <glyph glyph-name="dollar.text" unicode="&#xe00b;" 
d="M368 -116h-111v116c-72 7 -135 24 -188 52v188c23 -19 62 -38 115 -56s96 -27 127 -27c33 0 49 12 49 35c0 75 -288 74 -288 279c0 43 15 83 45 119c31 36 77 59 140 68v125h111v-124c55 -6 107 -19 158 -39v-166c-29 17 -63 31 -101 42c-37 11 -70 16 -99 16
c-33 0 -52 -15 -52 -36c0 -24 46 -48 103 -75c84 -34 191 -93 190 -204c0 -37 -13 -75 -41 -115c-28 -39 -85 -72 -158 -81v-117z" />
    <glyph glyph-name="euro.text" unicode="&#xe00c;" 
d="M471 418v-69h-445v69h46c17 75 53 136 110 183s130 71 220 71c56 0 106 -8 151 -24v-193c-39 17 -78 26 -119 26c-65 0 -109 -21 -132 -63h169zM26 250v69h445v-69h-175c18 -46 61 -69 128 -69c44 0 91 12 141 36l1 -197c-51 -19 -107 -29 -170 -29
c-181 0 -298 100 -326 259h-44z" />
    <glyph glyph-name="florin.text" unicode="&#xe00d;" horiz-adv-x="562" 
d="M152 267h-79v139h92l4 51c11 147 81 221 210 221c47 0 93 -7 138 -20v-175c-21 8 -42 12 -63 12c-40 0 -61 -18 -64 -54l-3 -35h112v-139h-124l-11 -130c-15 -171 -89 -249 -230 -249c-38 0 -82 8 -133 25v176c28 -9 51 -13 70 -13c47 0 66 30 73 107z" />
    <glyph glyph-name="sterling.text" unicode="&#xe00e;" 
d="M544 633v-177c-55 25 -101 38 -138 38c-47 0 -71 -21 -72 -64l-1 -31h119v-123h-126c-4 -54 -12 -93 -24 -118h259v-158h-530v18c45 72 71 158 77 258h-49v123h54l3 40c11 149 104 234 243 234c64 0 126 -13 185 -40z" />
    <glyph glyph-name="cent.text" unicode="&#xe00f;" horiz-adv-x="516" 
d="M348 2h-112v115c-117 21 -187 107 -187 227c0 124 72 210 187 237v115h112v-109c30 -3 59 -9 86 -19v-167c-29 13 -61 20 -96 20c-49 0 -82 -24 -82 -71c0 -48 30 -72 78 -72c39 0 77 9 114 28v-161c-25 -13 -59 -23 -100 -28v-115z" />
    <glyph glyph-name="yen.text" unicode="&#xe010;" 
d="M59 139v67h514v-67h-140v-139h-243v139h-131zM573 308v-69h-514v69h109l-151 351h252l49 -248h4l39 248h251l-156 -351h117z" />
    <glyph glyph-name="zero.taboldstyle" unicode="&#xe024;" 
d="M303 466c87 0 156 -22 205 -67c50 -44 75 -101 75 -171c0 -71 -25 -128 -76 -172c-50 -44 -118 -66 -204 -66s-154 22 -205 65c-51 44 -76 101 -76 171c0 69 25 127 76 172s119 68 205 68zM305 297c-37 0 -62 -29 -62 -65c0 -49 21 -73 62 -73s67 29 67 73
c0 39 -24 65 -67 65z" />
    <glyph glyph-name="one.taboldstyle" unicode="&#xe025;" 
d="M554 0h-452v158h113v94l-111 -19v165l315 74h23v-314h112v-158z" />
    <glyph glyph-name="two.taboldstyle" unicode="&#xe026;" 
d="M550 0h-511l-13 9c8 92 71 159 159 200c89 41 122 62 122 89c0 17 -12 26 -35 26s-42 -15 -42 -42c0 -7 1 -13 3 -19l-177 24c-1 11 -2 18 -2 23c0 37 12 67 36 92c49 51 120 68 205 68c69 0 127 -14 172 -41s68 -64 68 -112c0 -31 -13 -57 -41 -81
c-14 -11 -26 -21 -37 -28s-26 -17 -46 -28l-40 -23h179v-157z" />
    <glyph glyph-name="three.taboldstyle" unicode="&#xe027;" 
d="M251 289h-191v159h477v-22l-139 -209c81 -31 126 -99 126 -176c0 -62 -24 -113 -72 -154s-112 -61 -193 -61c-77 0 -146 14 -208 43v173c41 -36 110 -59 167 -59c63 0 100 37 100 81c0 39 -32 71 -89 71c-19 0 -37 -2 -52 -6l-19 21z" />
    <glyph glyph-name="four.taboldstyle" unicode="&#xe028;" 
d="M324 175l57 93h151v-119h47v-150h-47v-167h-207v167h-321v18l229 430h213l-177 -298h55v26z" />
    <glyph glyph-name="five.taboldstyle" unicode="&#xe029;" 
d="M130 448h385v-159h-240l-6 -36c16 2 32 3 48 3c65 0 120 -18 165 -55c45 -36 67 -87 67 -153c0 -63 -25 -116 -74 -159s-114 -64 -196 -64c-77 0 -149 14 -214 43v180c45 -39 114 -62 173 -62c140 -4 136 152 5 147c-39 0 -83 -8 -133 -25l-20 13z" />
    <glyph glyph-name="six.taboldstyle" unicode="&#xe02a;" 
d="M116 413l126 191h231l-145 -206l1 -5c77 4 136 -12 177 -49c42 -36 63 -84 63 -143c0 -63 -25 -114 -74 -153s-115 -58 -196 -58c-78 0 -142 19 -192 56c-49 37 -74 90 -74 158c0 35 7 67 20 98c14 31 35 68 63 111zM302 268c-35 0 -60 -29 -60 -60c0 -36 24 -61 60 -61
c39 0 64 24 64 61c0 32 -27 60 -64 60z" />
    <glyph glyph-name="seven.taboldstyle" unicode="&#xe02b;" 
d="M561 425l-258 -593h-225l197 457h-231v157h517v-21z" />
    <glyph glyph-name="eight.taboldstyle" unicode="&#xe02c;" 
d="M307 462c-27 0 -48 -20 -48 -47s20 -45 49 -45c63 -5 62 97 -1 92zM365 206c0 35 -23 62 -59 62s-60 -27 -60 -62c0 -31 24 -59 60 -59c35 0 59 28 59 59zM485 324l-1 -5c56 -28 84 -74 84 -137c0 -115 -98 -192 -262 -192c-169 0 -268 75 -268 190c0 56 29 110 81 137
l1 4c-39 25 -58 63 -58 113c0 55 23 99 69 133c47 34 105 51 175 51c72 0 130 -17 173 -51c43 -33 65 -77 65 -130c0 -41 -20 -88 -59 -113z" />
    <glyph glyph-name="nine.taboldstyle" unicode="&#xe02d;" 
d="M486 40l-132 -208h-231l151 223l-1 5c-77 -4 -136 12 -178 48c-41 37 -62 85 -62 144c0 63 25 113 74 152s115 59 196 59c78 0 142 -19 191 -56c50 -37 75 -90 75 -158c0 -35 -7 -67 -21 -98c-13 -31 -34 -68 -62 -111zM300 185c35 0 60 29 60 60c0 36 -24 61 -60 61
c-39 0 -64 -24 -64 -61c0 -32 27 -60 64 -60z" />
    <glyph glyph-name="numbersign.taboldstyle" unicode="&#xe02e;" 
d="M144 156h-59v101h81l12 54h-68v101h90l27 124h112l-27 -124h48l27 124h109l-27 -124h76v-101h-97l-12 -54h81l1 -101h-103l-33 -156h-112l34 156h-47l-33 -156h-114zM338 311h-47l-12 -54h47z" />
    <glyph glyph-name="dollar.taboldstyle" unicode="&#xe02f;" 
d="M360 -119h-107v115c-70 6 -127 20 -172 42v168c20 -17 52 -32 95 -45c44 -13 81 -20 110 -20c35 0 53 8 53 25c0 23 -41 42 -90 62c-71 27 -166 73 -165 172c0 73 54 143 169 160v115h107v-113c57 -5 108 -17 155 -34v-152c-17 11 -43 21 -77 30c-34 10 -63 15 -88 15
c-34 0 -51 -8 -51 -23c0 -17 41 -32 90 -51c71 -25 166 -75 165 -184c0 -37 -16 -73 -47 -107s-80 -54 -147 -61v-114z" />
    <glyph glyph-name="euro.taboldstyle" unicode="&#xe030;" 
d="M458 345v-58h-422v58h43c16 63 51 114 104 153c54 40 124 60 209 60c51 0 99 -7 144 -20v-162c-39 15 -76 22 -113 22c-58 0 -98 -18 -121 -53h156zM36 203v58h422v-58h-163c18 -39 58 -58 119 -58c43 0 88 10 133 30v-166c-50 -16 -104 -24 -161 -24
c-171 0 -281 83 -309 218h-41z" />
    <glyph glyph-name="florin.taboldstyle" unicode="&#xe031;" 
d="M187 216h-76v120h89l4 44c10 127 78 191 203 191c47 0 91 -6 134 -17v-152c-19 7 -40 11 -61 11c-39 0 -59 -16 -62 -47l-3 -30h109v-120h-121l-10 -113c-13 -147 -86 -215 -223 -215c-37 0 -80 7 -129 22v152c25 -7 48 -11 68 -11c45 0 64 25 71 92z" />
    <glyph glyph-name="sterling.taboldstyle" unicode="&#xe032;" 
d="M526 526v-147c-55 21 -99 32 -133 32c-46 0 -69 -18 -70 -54l-1 -25h115v-103h-121c-3 -29 -7 -52 -12 -71h238v-158h-511v15c45 61 69 121 74 214h-47v103h52l3 33c9 124 102 195 234 195c61 0 120 -11 179 -34z" />
    <glyph glyph-name="cent.taboldstyle" unicode="&#xe033;" 
d="M376 -41h-109v105c-115 17 -182 96 -182 203c0 111 70 188 182 212v109h109v-104c30 -3 58 -8 83 -17v-149c-27 12 -58 18 -93 18c-49 0 -80 -23 -80 -64c0 -43 29 -64 76 -64c37 0 74 8 111 25v-144c-23 -12 -56 -21 -97 -26v-104z" />
    <glyph glyph-name="yen.taboldstyle" unicode="&#xe034;" 
d="M55 116v56h494v-56h-134v-116h-234v116h-126zM549 257v-58h-494v58h105l-145 292h242l47 -207h4l38 207h241l-150 -292h112z" />
    <glyph glyph-name="zero.textoldstyle" unicode="&#xe048;" 
d="M303 464c87 0 156 -22 205 -67c50 -44 75 -101 75 -171c0 -71 -25 -128 -76 -171c-50 -43 -118 -65 -204 -65s-154 22 -205 65c-51 44 -76 101 -76 171c0 69 25 126 76 171s119 67 205 67zM305 295c-37 0 -62 -29 -62 -65c0 -47 21 -71 62 -71s67 27 67 71
c0 39 -24 65 -67 65z" />
    <glyph glyph-name="one.textoldstyle" unicode="&#xe049;" horiz-adv-x="544" 
d="M504 0h-452v158h113v93l-111 -24v171l315 84h23v-324h112v-158z" />
    <glyph glyph-name="two.textoldstyle" unicode="&#xe04a;" 
d="M558 0h-510l-13 9c8 92 71 159 159 200c89 41 122 62 122 89c0 17 -12 26 -35 26s-42 -15 -42 -42c0 -7 1 -13 3 -19l-177 24c-1 11 -2 18 -2 23c0 37 12 67 36 92c49 51 120 68 205 68c69 0 127 -14 172 -41s68 -64 68 -112c0 -31 -13 -57 -41 -81
c-14 -11 -26 -21 -37 -28s-26 -17 -46 -28l-40 -23h178v-157z" />
    <glyph glyph-name="three.textoldstyle" unicode="&#xe04b;" horiz-adv-x="550" 
d="M235 289h-191v159h477v-22l-139 -209c81 -31 126 -99 126 -176c0 -62 -24 -113 -72 -154s-112 -61 -193 -61c-77 0 -146 14 -208 43v173c41 -36 110 -59 167 -59c63 0 100 37 100 81c0 39 -32 71 -89 71c-19 0 -37 -2 -52 -6l-19 21z" />
    <glyph glyph-name="four.textoldstyle" unicode="&#xe04c;" 
d="M334 175l57 93h151v-119h47v-150h-47v-167h-207v167h-321v18l229 430h213l-177 -298h55v26z" />
    <glyph glyph-name="five.textoldstyle" unicode="&#xe04d;" horiz-adv-x="562" 
d="M100 448h385v-159h-240l-6 -36c16 2 32 3 48 3c65 0 120 -18 165 -55c45 -36 67 -87 67 -153c0 -63 -25 -116 -74 -159s-114 -64 -196 -64c-77 0 -149 14 -214 43v180c45 -39 114 -62 173 -62c140 -4 136 152 5 147c-39 0 -83 -8 -133 -25l-20 13z" />
    <glyph glyph-name="six.textoldstyle" unicode="&#xe04e;" 
d="M116 413l126 191h231l-145 -206l1 -5c77 4 136 -12 177 -49c42 -36 63 -84 63 -143c0 -63 -25 -114 -74 -153s-115 -58 -196 -58c-78 0 -142 19 -192 56c-49 37 -74 90 -74 158c0 35 7 67 20 98c14 31 35 68 63 111zM302 268c-35 0 -60 -29 -60 -60c0 -36 24 -61 60 -61
c39 0 64 24 64 61c0 32 -27 60 -64 60z" />
    <glyph glyph-name="seven.textoldstyle" unicode="&#xe04f;" horiz-adv-x="538" 
d="M530 425l-255 -593h-225l194 458h-228v156h514v-21z" />
    <glyph glyph-name="eight.textoldstyle" unicode="&#xe050;" 
d="M307 462c-27 0 -48 -20 -48 -47s20 -45 49 -45c63 -5 62 97 -1 92zM365 206c0 35 -23 62 -59 62s-60 -27 -60 -62c0 -31 24 -59 60 -59c35 0 59 28 59 59zM485 324l-1 -5c56 -28 84 -74 84 -137c0 -115 -98 -192 -262 -192c-169 0 -268 75 -268 190c0 56 29 110 81 137
l1 4c-39 25 -58 63 -58 113c0 55 23 99 69 133c47 34 105 51 175 51c72 0 130 -17 173 -51c43 -33 65 -77 65 -130c0 -41 -20 -88 -59 -113z" />
    <glyph glyph-name="nine.textoldstyle" unicode="&#xe051;" 
d="M486 40l-132 -208h-231l151 223l-1 5c-77 -4 -136 12 -178 48c-41 37 -62 85 -62 144c0 63 25 113 74 152s115 59 196 59c78 0 142 -19 191 -56c50 -37 75 -90 75 -158c0 -35 -7 -67 -21 -98c-13 -31 -34 -68 -62 -111zM300 185c35 0 60 29 60 60c0 36 -24 61 -60 61
c-39 0 -64 -24 -64 -61c0 -32 27 -60 64 -60z" />
    <glyph glyph-name="numbersign.textoldstyle" unicode="&#xe052;" horiz-adv-x="555" 
d="M114 156h-59v101h81l12 54h-68v101h90l27 124h112l-27 -124h48l27 124h109l-27 -124h76v-101h-97l-12 -54h81l1 -101h-103l-33 -156h-112l34 156h-47l-33 -156h-114zM308 311h-47l-12 -54h47z" />
    <glyph glyph-name="dollar.textoldstyle" unicode="&#xe053;" horiz-adv-x="573" 
d="M321 -119h-107v115c-70 6 -127 20 -172 42v168c20 -17 52 -32 95 -45c44 -13 81 -20 110 -20c35 0 53 8 53 25c0 23 -41 42 -90 62c-71 27 -166 73 -165 172c0 73 54 143 169 160v115h107v-113c57 -5 108 -17 155 -34v-152c-17 11 -43 21 -77 30c-34 10 -63 15 -88 15
c-34 0 -51 -8 -51 -23c0 -17 41 -32 90 -51c72 -25 165 -75 165 -184c0 -37 -16 -73 -47 -107s-80 -54 -147 -61v-114z" />
    <glyph glyph-name="euro.textoldstyle" unicode="&#xe054;" 
d="M464 345v-58h-422v58h43c16 63 51 114 104 153c54 40 124 60 209 60c51 0 99 -7 144 -20v-162c-39 15 -76 22 -113 22c-58 0 -98 -18 -121 -53h156zM42 203v58h422v-58h-163c18 -39 58 -58 119 -58c43 0 88 10 133 30v-166c-50 -16 -104 -24 -161 -24
c-171 0 -281 83 -309 218h-41z" />
    <glyph glyph-name="florin.textoldstyle" unicode="&#xe055;" horiz-adv-x="555" 
d="M155 216h-76v120h89l4 44c10 127 78 191 203 191c47 0 91 -6 134 -17v-152c-19 7 -40 11 -61 11c-39 0 -59 -16 -62 -47l-3 -30h109v-120h-121l-10 -113c-13 -147 -86 -215 -223 -215c-37 0 -80 7 -129 22v152c25 -7 48 -11 68 -11c45 0 64 25 71 92z" />
    <glyph glyph-name="sterling.textoldstyle" unicode="&#xe056;" horiz-adv-x="573" 
d="M531 526v-147c-55 21 -99 32 -133 32c-46 0 -69 -18 -70 -54l-1 -25h115v-103h-121c-3 -29 -7 -52 -12 -71h238v-158h-511v15c45 61 69 121 74 214h-47v103h52l3 33c9 124 102 195 234 195c61 0 120 -11 179 -34z" />
    <glyph glyph-name="cent.textoldstyle" unicode="&#xe057;" horiz-adv-x="497" 
d="M336 -41h-109v105c-115 17 -182 96 -182 203c0 111 70 188 182 212v109h109v-104c30 -3 58 -8 83 -17v-149c-27 12 -58 18 -93 18c-49 0 -80 -23 -80 -64c0 -43 29 -64 76 -64c37 0 74 8 111 25v-144c-23 -12 -56 -21 -97 -26v-104z" />
    <glyph glyph-name="yen.textoldstyle" unicode="&#xe058;" 
d="M55 116v56h494v-56h-134v-116h-234v116h-126zM549 257v-58h-494v58h105l-145 292h242l47 -207h4l38 207h241l-150 -292h112z" />
    <glyph glyph-name="percent.text" unicode="&#xe059;" horiz-adv-x="764" 
d="M359 459c0 -42 -15 -78 -45 -107c-29 -29 -68 -44 -117 -44c-101 0 -164 63 -164 151c0 85 64 150 164 150s162 -65 162 -150zM197 495c-17 0 -30 -17 -30 -36c0 -25 10 -38 30 -38s33 14 33 38c0 21 -14 36 -33 36zM570 293c101 0 163 -64 163 -149
c0 -43 -15 -79 -45 -108c-29 -29 -69 -44 -118 -44c-101 0 -163 63 -163 152c0 85 63 149 163 149zM540 144c0 -26 10 -39 31 -39c19 0 32 15 32 39c3 46 -67 44 -63 0zM518 602h107l-389 -627h-106z" />
    <glyph glyph-name="perthousand.text" unicode="&#xe05a;" horiz-adv-x="1119" 
d="M359 459c0 -42 -15 -78 -45 -107c-29 -29 -68 -44 -117 -44c-101 0 -164 63 -164 151c0 85 64 150 164 150s162 -65 162 -150zM197 495c-17 0 -30 -17 -30 -36c0 -25 10 -38 30 -38s33 14 33 38c0 21 -14 36 -33 36zM570 293c101 0 163 -64 163 -149
c0 -43 -15 -79 -45 -108c-29 -29 -69 -44 -118 -44c-101 0 -163 63 -163 152c0 85 63 149 163 149zM540 144c0 -26 10 -39 31 -39c19 0 32 15 32 39c3 46 -67 44 -63 0zM518 602h107l-389 -627h-106zM924 293c101 0 163 -64 163 -149c0 -43 -15 -79 -45 -108
c-29 -29 -69 -44 -118 -44c-101 0 -163 63 -163 152c0 85 63 149 163 149zM894 144c0 -26 10 -39 31 -39c19 0 32 15 32 39c3 46 -67 44 -63 0z" />
    <glyph glyph-name="asuperior" unicode="&#xe06c;" horiz-adv-x="377" 
d="M351 300h-141l-7 25c-27 -22 -59 -33 -98 -33c-56 0 -95 33 -95 86c0 55 48 97 148 97h35v7c0 18 -14 27 -41 27c-34 0 -66 -6 -97 -19v97c41 13 86 19 136 19c107 0 160 -47 160 -140v-166zM159 398c0 -9 4 -14 12 -14c16 0 24 10 24 31v5h-9c-18 0 -27 -7 -27 -22z" />
    <glyph glyph-name="bsuperior" unicode="&#xe06d;" horiz-adv-x="418" 
d="M24 765h152v-175c21 11 45 16 70 16c96 0 159 -63 159 -155s-62 -158 -166 -158c-25 0 -69 10 -93 34l-13 -27h-109v465zM220 488c-23 0 -35 -18 -35 -37c0 -27 11 -40 34 -40s35 13 35 40c0 20 -13 37 -34 37z" />
    <glyph glyph-name="dsuperior" unicode="&#xe06f;" horiz-adv-x="420" 
d="M239 593v86c1 39 1 68 1 86h152l1 -465h-118l-17 28c-23 -23 -55 -35 -95 -35c-100 0 -153 62 -153 151c0 49 15 88 45 117c30 30 69 45 116 45c25 0 48 -4 68 -13zM198 489c-19 0 -33 -17 -33 -38c0 -27 11 -40 33 -40c20 0 34 16 34 41c0 20 -13 37 -34 37z" />
    <glyph glyph-name="esuperior" unicode="&#xe070;" horiz-adv-x="362" 
d="M349 450v-9h-185c0 -35 28 -53 60 -53c34 0 70 10 108 30v-92c-41 -23 -85 -34 -130 -34c-131 0 -192 70 -192 159c0 44 15 81 46 111c31 31 72 46 124 46c104 0 169 -55 169 -158zM189 520c-15 0 -26 -16 -29 -32h56c-3 21 -12 32 -27 32z" />
    <glyph glyph-name="egravesuperior" unicode="&#xe071;" horiz-adv-x="371" 
d="M354 450v-9h-185c0 -35 28 -53 60 -53c34 0 70 10 108 30v-92c-41 -23 -85 -34 -130 -34c-131 0 -192 70 -192 159c0 44 15 81 46 111c31 31 72 46 124 46c104 0 169 -55 169 -158zM194 520c-15 0 -26 -16 -29 -32h56c-3 21 -12 32 -27 32zM264 638h-86l-118 105l106 56z
" />
    <glyph glyph-name="hsuperior" unicode="&#xe073;" horiz-adv-x="403" 
d="M24 765h152v-190c24 21 53 32 88 32c72 0 112 -38 112 -109v-198h-157v164c0 16 -6 24 -17 24c-14 0 -21 -12 -21 -36v-152h-157v465z" />
    <glyph glyph-name="isuperior" unicode="&#xe074;" horiz-adv-x="209" 
d="M183 597v-297h-159v297h159zM187 697c0 -43 -34 -78 -82 -78c-47 0 -80 36 -80 77c0 44 37 76 80 76c47 0 82 -34 82 -75z" />
    <glyph glyph-name="lsuperior" unicode="&#xe077;" horiz-adv-x="206" 
d="M182 765v-465h-159v465h159z" />
    <glyph glyph-name="msuperior" unicode="&#xe078;" horiz-adv-x="589" 
d="M25 300v297h126l15 -38c21 31 61 48 96 48c42 0 73 -16 92 -49c23 33 55 49 96 49c69 0 110 -39 110 -108v-199h-158v166c0 15 -4 22 -13 22c-12 0 -18 -12 -18 -35v-153h-157v162c0 17 -5 26 -16 26s-17 -10 -17 -31v-157h-156z" />
    <glyph glyph-name="osuperior" unicode="&#xe079;" horiz-adv-x="398" 
d="M198 607c117 0 187 -65 187 -157c0 -93 -72 -157 -187 -157c-116 0 -188 64 -188 157c0 91 72 157 188 157zM199 488c-19 0 -32 -17 -32 -36c0 -27 11 -41 32 -41c23 0 35 14 35 41c0 24 -12 36 -35 36z" />
    <glyph glyph-name="rsuperior" unicode="&#xe07c;" horiz-adv-x="310" 
d="M24 300v297h115l17 -46c15 36 44 54 86 54c22 0 43 -4 63 -12v-136c-25 13 -49 19 -70 19c-36 0 -54 -19 -54 -58v-118h-157z" />
    <glyph glyph-name="ssuperior" unicode="&#xe07d;" horiz-adv-x="297" 
d="M268 584v-102c-31 17 -62 26 -95 26c-10 0 -15 -1 -15 -4c0 -1 8 -4 24 -10c41 -15 68 -30 81 -45c15 -16 23 -36 23 -60c0 -49 -42 -97 -141 -97c-54 0 -99 9 -135 27v114c15 -12 35 -23 59 -32s43 -14 58 -14c11 0 16 2 16 5c0 1 -10 6 -29 13c-18 7 -33 14 -45 21
c-24 13 -56 46 -56 85c0 49 44 95 136 95c38 0 78 -7 119 -22z" />
    <glyph glyph-name="tsuperior" unicode="&#xe07e;" horiz-adv-x="290" 
d="M281 422v-106c-27 -17 -61 -26 -104 -26c-88 0 -132 41 -132 123v73h-42v83l174 128h25v-100h75v-111h-75v-45c0 -23 10 -35 29 -35c10 0 27 5 50 16z" />
    <glyph glyph-name="i.dot" unicode="&#xe096;" horiz-adv-x="303" 
d="M261 447v-447h-219v447h219zM266 613c0 -63 -47 -114 -112 -114c-67 0 -111 51 -111 112c0 33 11 59 33 80c23 21 49 31 78 31c65 0 112 -49 112 -109z" />
    <glyph glyph-name="a.alt" unicode="&#xe0a8;" horiz-adv-x="612" 
d="M572 -1h-163l-14 45l-5 1c-41 -37 -93 -55 -156 -55c-135 0 -214 87 -214 226c0 70 21 129 62 176c42 47 101 71 178 71c61 0 110 -19 146 -57l22 43h144v-450zM293 294c-35 0 -56 -29 -56 -65c0 -47 19 -70 56 -70c36 0 58 27 58 70c0 39 -22 65 -58 65z" />
    <glyph glyph-name="g.alt" unicode="&#xe0a9;" horiz-adv-x="613" 
d="M283 165c39 0 60 27 60 62c0 43 -19 64 -58 64c-35 0 -57 -25 -57 -64c0 -35 20 -62 55 -62zM359 10v24l-3 1c-28 -24 -66 -36 -113 -36c-140 0 -223 81 -223 221c0 69 21 126 63 172c42 47 100 70 173 70c39 0 101 -14 141 -50h4l14 36h158v-354
c0 -101 -15 -171 -59 -234c-44 -64 -129 -97 -254 -97c-72 0 -157 19 -205 47v180c72 -44 136 -66 192 -66c69 0 112 37 112 86z" />
    <glyph glyph-name="two.alt" unicode="&#xe0aa;" 
d="M407 161l2 -3h171v-158h-557v21l81 66c24 20 51 45 81 74c30 30 55 58 75 84c40 52 72 117 72 172c0 54 -27 81 -82 81c-46 0 -106 -19 -179 -56v167c61 45 138 67 229 67c86 0 150 -20 191 -60c41 -39 62 -90 62 -151c0 -100 -49 -201 -146 -304z" />
    <glyph glyph-name="two_taboldstyle.alt" unicode="&#xe0ab;" 
d="M454 159l1 -2h113v-157h-545v23c188 85 282 163 282 236c0 23 -21 34 -62 34c-27 0 -57 -4 -92 -13s-62 -18 -81 -28v157c68 42 143 63 224 63c193 0 233 -92 233 -167c0 -51 -24 -100 -73 -146z" />
    <glyph glyph-name="two_textoldstyle.alt" unicode="&#xe0ac;" 
d="M454 159l1 -2h113v-157h-545v23c188 85 282 163 282 236c0 23 -21 34 -62 34c-27 0 -57 -4 -92 -13s-62 -18 -81 -28v157c68 42 143 63 224 63c193 0 233 -92 233 -167c0 -51 -24 -100 -73 -146z" />
    <glyph glyph-name="A2.alt" unicode="&#xe0b6;" horiz-adv-x="715" 
d="M710 0h-244l-108 276h-3l-115 -276h-235l345 679h24z" />
    <glyph glyph-name="F.alt" unicode="&#xe0b7;" horiz-adv-x="555" 
d="M293 -219h-243v878h490v-180h-247v-80h201v-172h-201v-446z" />
    <glyph glyph-name="I.alt" unicode="&#xe0b8;" horiz-adv-x="344" 
d="M50 897h244v-897h-244v897z" />
    <glyph glyph-name="L.alt" unicode="&#xe0b9;" horiz-adv-x="552" 
d="M294 897v-716h248v-181h-491v897h243z" />
    <glyph glyph-name="P2.alt" unicode="&#xe0ba;" horiz-adv-x="618" 
d="M608 433c0 -62 -22 -115 -66 -160c-44 -44 -106 -66 -185 -66h-64v-426h-243v878h290c88 0 155 -22 200 -66c45 -43 68 -97 68 -160zM370 430c0 32 -20 55 -59 55h-20v-109h20c41 0 59 26 59 54z" />
    <glyph glyph-name="T.alt" unicode="&#xe0bb;" horiz-adv-x="597" 
d="M587 897v-180h-168v-717h-244v717h-165v180h577z" />
    <glyph glyph-name="Y.alt" unicode="&#xe0bc;" horiz-adv-x="756" 
d="M147 -219l94 245l-237 633h257l64 -208c26 -86 41 -143 45 -172h4c15 60 32 119 51 178l68 202h256l-364 -878h-238z" />
    <glyph glyph-name="Q.alt" unicode="&#xe0bd;" horiz-adv-x="811" 
d="M359 -36l401 -72l-55 -192l-401 71zM404 -14c-110 0 -199 33 -267 98s-102 147 -102 246c0 97 34 179 103 245s159 99 268 99c110 0 199 -33 267 -99c69 -65 103 -147 103 -245s-35 -180 -105 -246c-69 -65 -158 -98 -267 -98zM408 178c79 0 129 63 129 152
c0 85 -48 148 -129 148c-79 0 -131 -64 -131 -148c0 -88 54 -152 131 -152z" />
    <glyph glyph-name="Q2.alt" unicode="&#xe0be;" horiz-adv-x="811" 
d="M512 -1v-218h-219v219c-79 20 -142 60 -189 119c-46 60 -69 130 -69 211c0 97 34 179 103 245s159 99 268 99c110 0 199 -33 267 -99c69 -65 103 -147 103 -245c0 -81 -24 -151 -72 -211s-112 -100 -192 -120zM309 226l14 115h159l15 -126c27 29 40 67 40 115
c0 85 -48 148 -129 148c-79 0 -131 -64 -131 -148c0 -41 11 -76 32 -104z" />
    <glyph glyph-name="uniE0C0" unicode="&#xe0c0;" horiz-adv-x="555" 
d="M293 0h-243v896h490v-180h-247v-716z" />
    <glyph glyph-name="uniE0C4" unicode="&#xe0c4;" horiz-adv-x="953" 
d="M923 312c0 -69 -22 -137 -70 -201c-47 -64 -136 -114 -252 -131v-199h-244v196c-116 17 -205 64 -253 127c-48 64 -70 132 -70 208c0 75 21 139 64 194c85 111 224 162 381 162c79 0 151 -13 217 -40c67 -26 121 -67 163 -122c43 -55 64 -119 64 -194zM357 166v308
c-29 -8 -52 -27 -67 -58s-23 -63 -23 -96c0 -35 7 -68 21 -99s37 -49 69 -55zM601 473v-308c26 5 47 23 62 55c16 32 24 66 24 103c0 34 -7 67 -22 98c-14 31 -35 49 -64 52z" />
    <glyph glyph-name="uniE0C5" unicode="&#xe0c5;" horiz-adv-x="924" 
d="M341 659h244v-474c39 4 60 44 60 81v394h244v-355c0 -89 -26 -162 -77 -221c-51 -58 -126 -90 -227 -97v-205h-244v205c-105 6 -182 37 -232 93c-49 57 -74 129 -74 216v364h245v-387c0 -55 20 -85 61 -89v475z" />
    <glyph glyph-name="Parenleft" unicode="&#xe0d8;" horiz-adv-x="339" 
d="M219 765l118 -49c-76 -129 -114 -259 -114 -391c0 -133 38 -261 115 -383l-119 -58c-57 60 -100 129 -130 208c-29 79 -44 156 -44 231s15 153 45 232c31 80 74 150 129 210z" />
    <glyph glyph-name="Parenright" unicode="&#xe0d9;" horiz-adv-x="339" 
d="M134 -116l-119 58c77 122 115 250 115 383c0 132 -38 262 -114 391l118 49c55 -60 98 -130 128 -210c31 -79 46 -157 46 -232s-15 -152 -45 -231c-29 -79 -72 -148 -129 -208z" />
    <glyph glyph-name="Hyphen" unicode="&#xe0da;" horiz-adv-x="372" 
d="M327 343v-127h-280v127h280z" />
    <glyph glyph-name="Bracketleft" unicode="&#xe0db;" horiz-adv-x="323" 
d="M289 19v-127h-238v860h238v-127h-57v-606h57z" />
    <glyph glyph-name="Bracketright" unicode="&#xe0dc;" horiz-adv-x="323" 
d="M280 752v-860h-238v127h57v606h-57v127h238z" />
    <glyph glyph-name="Braceleft" unicode="&#xe0dd;" horiz-adv-x="412" 
d="M374 13v-121h-88c-112 0 -168 53 -168 158v162c0 67 -21 105 -64 114v22c43 11 64 45 64 102v135c0 109 51 165 168 165h88v-124h-10c-51 0 -64 -26 -64 -67v-126c0 -51 -32 -82 -83 -90v-4c56 -7 83 -46 83 -99v-163c0 -45 11 -64 58 -64h16z" />
    <glyph glyph-name="Braceright" unicode="&#xe0de;" horiz-adv-x="412" 
d="M137 -108h-88v121h16c47 0 58 19 58 64v163c0 53 27 92 83 99v4c-51 8 -83 39 -83 90v126c0 41 -13 67 -64 67h-10v124h88c117 0 168 -56 168 -165v-136c0 -55 21 -88 64 -99v-21c-43 -9 -64 -48 -64 -117v-162c0 -105 -56 -158 -168 -158z" />
    <glyph glyph-name="Endash" unicode="&#xe0df;" horiz-adv-x="638" 
d="M615 215h-591v145h591v-145z" />
    <glyph glyph-name="Emdash" unicode="&#xe0e0;" horiz-adv-x="932" 
d="M840 215h-814v145h814v-145z" />
    <glyph glyph-name="Exclamdown" unicode="&#xe0e1;" horiz-adv-x="362" 
d="M280 397c0 -56 -45 -101 -97 -101c-56 0 -102 45 -102 101c0 26 10 49 30 68c21 19 45 29 72 29c52 0 97 -45 97 -97zM271 256l19 -470h-218l19 470h180z" />
    <glyph glyph-name="Questiondown" unicode="&#xe0e2;" horiz-adv-x="553" 
d="M274 0c0 -25 23 -40 58 -40c28 0 59 6 94 17s62 23 83 36v-185c-71 -29 -144 -43 -217 -43c-89 0 -154 19 -196 56c-41 37 -62 82 -62 135c0 28 10 56 30 83c21 28 43 51 67 69s46 37 66 57c21 21 31 38 31 53c0 6 -1 11 -4 16l164 25c13 -25 20 -48 20 -69
c0 -45 -34 -92 -67 -120s-67 -63 -67 -90zM194 397c0 52 45 96 97 96c63 0 101 -41 101 -96c0 -56 -42 -98 -101 -98c-56 0 -97 42 -97 98z" />
    <glyph glyph-name="Guillemotleft" unicode="&#xe0e3;" horiz-adv-x="569" 
d="M330 448l-133 -201l133 -207h-188l-122 199v10l122 199h188zM559 448l-133 -201l133 -207h-188l-122 199v10l122 199h188z" />
    <glyph glyph-name="Guillemotright" unicode="&#xe0e4;" horiz-adv-x="569" 
d="M198 40h-188l133 207l-133 201h188l122 -199v-10zM427 40h-188l133 207l-133 201h188l122 -199v-10z" />
    <glyph glyph-name="uniE12C" unicode="&#xe12c;" horiz-adv-x="1805" 
d="M1496 0h-239l-20 53h-195l-20 -53h-397l-328 263h-4v-263h-243v679h24l350 -268h4v248h482v-180h-238v-55h200v-172h-200v-71h211l243 478h333c77 0 141 -19 191 -57c51 -37 76 -89 76 -156c0 -65 -27 -120 -80 -167l156 -279h-233l-148 289v17c44 19 66 52 66 101
c0 41 -34 72 -91 72h-136zM1145 293h-4l-46 -100h92z" />
    <glyph glyph-name="uniE16E" unicode="&#xe16e;" horiz-adv-x="1124" 
d="M1050 679h24v-679h-243v275h-4l-365 -295h-22v295h-3l-365 -295h-22v679h244v-270h4l362 290h24v-290h4zM851 693c-59 0 -103 18 -133 54c-29 37 -45 82 -47 136h92c5 -55 36 -82 93 -82c41 0 77 33 85 82h90c-3 -51 -20 -95 -49 -133s-73 -57 -131 -57z" />
    <glyph glyph-name="uniE16F" unicode="&#xe16f;" horiz-adv-x="1112" 
d="M818 247h-134v-247h-244v275h-3l-365 -295h-22v679h244v-270h4l362 290h24v-250h134v230h244v-659h-244v247z" />
    <glyph glyph-name="uniE170" unicode="&#xe170;" horiz-adv-x="1112" 
d="M1038 679h24v-679h-243v275h-4l-365 -295h-22v267h-135v-247h-243v659h243v-230h135v230h244v-270h4z" />
    <glyph glyph-name="uniE171" unicode="&#xe171;" horiz-adv-x="1112" 
d="M1038 679h24v-679h-243v275h-4l-365 -295h-22v497h-135v-477h-243v659h622v-270h4z" />
    <glyph glyph-name="uniE172" unicode="&#xe172;" horiz-adv-x="859" 
d="M785 679h24v-679h-243v275h-4l-365 -295h-22v737h-165v180h577v-180h-168v-328h4z" />
    <glyph glyph-name="uniE173" unicode="&#xe173;" horiz-adv-x="1251" 
d="M1201 0h-244v247h-135v-247h-243v206c-47 -136 -170 -221 -350 -221c-70 0 -133 10 -189 29l1 199c56 -24 109 -36 158 -36c82 0 130 28 144 83h-190v156h176c-15 43 -58 64 -128 64c-54 0 -102 -9 -144 -26v191c59 19 124 28 196 28c176 0 285 -85 326 -216v202h243
v-230h135v230h244v-659z" />
    <glyph glyph-name="uniE174" unicode="&#xe174;" horiz-adv-x="1148" 
d="M1138 433c0 -62 -22 -115 -66 -160c-44 -44 -106 -66 -185 -66h-64v-207h-243v209c-45 -137 -170 -224 -351 -224c-70 0 -133 10 -189 29l1 199c56 -24 109 -36 158 -36c82 0 130 28 144 83h-190v156h176c-15 43 -58 64 -128 64c-54 0 -102 -9 -144 -26v191
c59 19 124 28 196 28c177 0 286 -87 327 -220v206h290c88 0 155 -22 200 -66c45 -43 68 -97 68 -160zM900 430c0 32 -20 55 -59 55h-20v-109h20c41 0 59 26 59 54z" />
    <glyph glyph-name="uniE175" unicode="&#xe175;" horiz-adv-x="956" 
d="M946 433c0 -62 -22 -115 -66 -160c-44 -44 -106 -66 -185 -66h-64v-207h-243v479h-26c-45 0 -69 -31 -69 -72c0 -37 22 -80 74 -101v-17l-121 -289h-243l141 271c-26 19 -46 40 -60 63c-28 45 -30 71 -30 112c0 67 25 119 75 156c51 38 115 57 192 57h357
c88 0 155 -22 200 -66c45 -43 68 -97 68 -160zM708 430c0 32 -20 55 -59 55h-19v-109h19c41 0 59 26 59 54z" />
    <glyph glyph-name="uniE176" unicode="&#xe176;" horiz-adv-x="1208" 
d="M1121 659v-170h-276v-71h72c111 0 180 -32 216 -73c27 -29 37 -52 44 -84s7 -42 7 -61c0 -59 -21 -108 -64 -145s-95 -55 -158 -55h-362v252h-307v-71h249v-181h-492v659h482v-180h-239v-55h307v235h521zM887 261h-42v-90h44c32 0 51 20 51 45c0 27 -21 45 -53 45z" />
    <glyph glyph-name="A.alt" unicode="&#xe188;" horiz-adv-x="715" 
d="M437 90l-418 -130l-15 19l346 700h24l336 -679h-237zM359 287h-4l-48 -98l81 26z" />
    <glyph glyph-name="P.alt" unicode="&#xe189;" horiz-adv-x="618" 
d="M305 485h-14v-141l27 9c33 11 53 38 53 70c0 35 -23 62 -66 62zM608 427c0 -122 -73 -203 -218 -242l-97 -26v-159h-243v659h290c88 0 155 -23 200 -69c45 -45 68 -100 68 -163z" />
    <glyph glyph-name="R.alt" unicode="&#xe18a;" horiz-adv-x="669" 
d="M608 427c0 -75 -27 -133 -82 -176l126 -251h-247l-77 177l-35 -8v-169h-243v659h290c88 0 155 -23 200 -69c45 -45 68 -100 68 -163zM312 485h-21v-131l27 8c35 11 53 34 53 69c0 36 -20 54 -59 54z" />
    <glyph glyph-name="K.alt" unicode="&#xe18b;" horiz-adv-x="724" 
d="M306 253l-12 -4v-249h-244v659h244v-239l14 4c14 4 25 10 32 19c8 9 21 31 38 67l67 149h262l-112 -189c-34 -58 -65 -98 -94 -120v-3c14 -6 28 -17 41 -33c13 -15 24 -29 31 -41s18 -31 32 -58l114 -215h-266l-83 208c-19 47 -36 54 -64 45z" />
    </font>
</defs>
</svg>
