<?xml version="1.0" standalone="no"?>
<!DOCTYPE svg PUBLIC "-//W3C//DTD SVG 1.1//EN" "http://www.w3.org/Graphics/SVG/1.1/DTD/svg11.dtd" >
<svg>
<metadata>
Created by FontForge 20120731 at Wed Dec 20 04:01:25 2017
 By www
Copyright \(c\) 2013 Parachute, www.parachute.gr.  All rights reserved.
</metadata>
<defs>
<font id="PFBagueSansPro-Light" horiz-adv-x="540" >
  <font-face 
    font-family="PF Bague Sans Pro"
    font-weight="300"
    font-stretch="normal"
    units-per-em="1000"
    panose-1="2 0 5 3 0 0 0 2 0 3"
    ascent="800"
    descent="-200"
    x-height="445"
    cap-height="662"
    bbox="-469 -246 1721 902"
    underline-thickness="40"
    underline-position="-60"
    unicode-range="U+0020-FB06"
  />
<missing-glyph horiz-adv-x="445" 
d="M439 0h-434v699h434v-699zM383 33l-161 285l-161 -285h322zM383 665h-322l161 -285zM406 637l-163 -288l163 -287v575zM38 63l163 286l-163 287v-573z" />
    <glyph glyph-name="fj" unicode="fj" horiz-adv-x="457" 
d="M234 -227l-27 52c92 3 124 49 124 145v428h-188v-398h-56v398h-82v37l82 10v100c0 107 50 180 170 180c51 0 94 -10 129 -31v-52c-43 24 -88 36 -133 36c-73 0 -110 -43 -110 -128v-105h244v-476c0 -125 -51 -191 -153 -196z" />
    <glyph glyph-name="ffj" unicode="ffj" horiz-adv-x="712" 
d="M586 398h-188v-398h-56v399h-199v-399h-56v399h-82v36l82 10v81c0 107 50 180 170 180c48 0 90 -10 127 -30c29 33 72 49 129 49c51 0 94 -10 128 -31v-52c-43 24 -87 36 -132 36c-74 0 -111 -43 -111 -128v-105h244v-476c0 -125 -51 -191 -153 -196l-27 52
c92 3 124 49 124 145v428zM342 445v100c0 35 5 65 16 91c-34 15 -69 23 -105 23c-73 0 -110 -43 -110 -128v-86h199z" />
    <glyph glyph-name="f_t" unicode="ft" horiz-adv-x="557" 
d="M320 713v-50c-23 9 -48 14 -77 14c-67 0 -100 -43 -100 -128v-104h194l33 134h24v-134h127v-47h-127v-271c0 -56 15 -83 66 -83c29 0 57 9 84 28v-52c-26 -19 -56 -29 -90 -29c-89 0 -117 48 -117 136v271h-194v-398h-56v398h-82v37l82 10v99c0 120 53 180 160 180
c26 0 50 -4 73 -11z" />
    <glyph glyph-name="ff" unicode="ff" horiz-adv-x="537" 
d="M5 435l82 10v79c0 107 50 180 170 180c49 0 91 -10 128 -31c27 33 68 50 123 50c25 0 49 -4 72 -11v-50c-23 9 -48 14 -76 14c-67 0 -101 -43 -101 -128v-103h137v-46h-137v-399h-56v399h-204v-399h-56v399h-82v36zM347 445v98c0 35 5 65 15 90c-35 16 -72 24 -109 24
c-73 0 -110 -43 -110 -128v-84h204z" />
    <glyph glyph-name="fi" unicode="fi" horiz-adv-x="455" 
d="M387 445v-445h-57v398h-187v-398h-56v398h-82v37l82 10v100c0 107 50 180 170 180c51 0 94 -10 129 -31v-52c-43 24 -88 36 -133 36c-73 0 -110 -43 -110 -128v-105h244z" />
    <glyph glyph-name="fl" unicode="fl" horiz-adv-x="456" 
d="M143 445h123v-47h-123v-398h-56v398h-82v37l82 10v100c0 107 50 180 170 180c51 0 94 -10 129 -31v-694h-57v666c-24 8 -49 12 -76 12c-73 0 -110 -43 -110 -128v-105z" />
    <glyph glyph-name="ffi" unicode="ffi" horiz-adv-x="717" 
d="M398 550v-105h249v-445h-57v398h-192v-398h-56v399h-199v-399h-56v399h-82v36l82 10v81c0 107 50 180 170 180c48 0 90 -10 127 -30c29 33 72 49 129 49c51 0 94 -10 128 -31v-52c-43 24 -87 36 -132 36c-74 0 -111 -43 -111 -128zM342 445v100c0 35 5 65 16 91
c-34 15 -69 23 -105 23c-73 0 -110 -43 -110 -128v-86h199z" />
    <glyph glyph-name="ffl" unicode="ffl" horiz-adv-x="716" 
d="M394 445h123v-47h-123v-398h-56v398h-195v-398h-56v398h-82v37l82 10v81c0 107 50 180 170 180c47 0 89 -10 126 -30c31 33 74 49 131 49c54 0 98 -10 132 -31v-694h-57v666c-24 8 -50 12 -79 12c-77 0 -116 -43 -116 -128v-105zM143 445h195v100c0 37 6 67 18 92
c-33 15 -68 22 -103 22c-73 0 -110 -43 -110 -128v-86z" />
    <glyph glyph-name="longs_t" unicode="&#x17f;t" horiz-adv-x="528" 
d="M143 549v-549h-56v399h-82v36l82 10v99c0 120 54 180 163 180c45 0 85 -10 119 -31v-52c-43 24 -84 36 -123 36c-69 0 -103 -43 -103 -128zM307 445l34 134h23v-134h127v-47h-127v-271c0 -56 15 -83 66 -83c29 0 57 9 84 28v-52c-26 -19 -56 -29 -90 -29
c-89 0 -117 48 -117 136v271h-75v37z" />
    <glyph glyph-name=".notdef" horiz-adv-x="445" 
d="M439 0h-434v699h434v-699zM383 33l-161 285l-161 -285h322zM383 665h-322l161 -285zM406 637l-163 -288l163 -287v575zM38 63l163 286l-163 287v-573z" />
    <glyph glyph-name="NULL" horiz-adv-x="0" 
 />
    <glyph glyph-name="CR" horiz-adv-x="333" 
 />
    <glyph glyph-name="space" unicode=" " horiz-adv-x="240" 
 />
    <glyph glyph-name="exclam" unicode="!" horiz-adv-x="274" 
d="M169 690l-9 -538h-42l-11 538h62zM138 -9c-58 -4 -58 94 0 90c25 0 45 -20 45 -45s-21 -45 -45 -45z" />
    <glyph glyph-name="quotedbl" unicode="&#x22;" horiz-adv-x="282" 
d="M212 682v-209h-49v209h49zM119 682v-209h-49v209h49z" />
    <glyph glyph-name="numbersign" unicode="#" 
d="M379 452l39 176h41c-5 -23 -13 -55 -22 -98l-17 -78h80v-36h-89l-39 -176h89v-36h-97l-44 -204h-41l45 204h-161l-45 -204h-40l13 64l17 75c7 28 12 50 15 65h-84v36h92c4 19 10 49 19 88s15 69 19 88h-93v36h101c9 39 23 97 40 176h40l-39 -176h161zM370 416h-160
l-39 -176h161c19 87 32 145 38 176z" />
    <glyph glyph-name="dollar" unicode="$" 
d="M294 -96h-48v92c-70 3 -129 20 -176 51v57c59 -41 120 -61 183 -61c103 0 160 49 160 124c0 185 -327 148 -327 337c0 96 67 149 160 158v95h48v-94c49 -2 94 -14 137 -36v-60c-47 32 -99 48 -154 48c-91 0 -136 -38 -136 -114c0 -47 52 -82 116 -111
c92 -39 215 -94 213 -211c0 -108 -69 -170 -176 -181v-94z" />
    <glyph glyph-name="percent" unicode="%" horiz-adv-x="713" 
d="M190 359c-95 0 -155 66 -155 155c0 43 15 80 45 110s67 45 110 45c44 0 80 -15 109 -45c29 -29 43 -66 43 -110s-15 -81 -44 -111c-29 -29 -65 -44 -108 -44zM190 625c-61 0 -105 -50 -105 -111c0 -64 40 -112 105 -112c61 0 102 51 102 112s-42 111 -102 111zM530 -6
c-95 0 -154 64 -154 153c0 44 15 81 44 111c30 31 67 46 110 46c44 0 80 -15 109 -45c29 -29 44 -66 44 -110c0 -43 -15 -80 -44 -110s-66 -45 -109 -45zM426 149c0 -64 40 -112 104 -112c94 -6 136 128 74 190c-19 22 -44 33 -74 33c-60 0 -104 -50 -104 -111zM584 681h47
l-506 -700h-47z" />
    <glyph glyph-name="ampersand" unicode="&#x26;" horiz-adv-x="681" 
d="M674 -16l-46 -34c-59 33 -114 69 -166 109c-57 -49 -125 -74 -204 -74c-119 0 -193 63 -193 167c0 39 13 78 38 116c26 38 62 66 107 84c-19 46 -29 88 -29 127c0 50 16 92 48 127c33 35 80 53 143 53c44 0 87 -8 129 -25v-54c-39 19 -82 29 -129 29
c-93 0 -133 -57 -133 -128c0 -108 82 -233 222 -352c44 53 77 130 99 230l47 -23c-25 -101 -60 -180 -107 -238c46 -37 104 -75 174 -114zM264 34c60 0 113 19 158 56c-85 74 -148 146 -189 217c-68 -24 -112 -87 -112 -150c0 -39 14 -69 42 -91c28 -21 62 -32 101 -32z" />
    <glyph glyph-name="quotesingle" unicode="'" horiz-adv-x="199" 
d="M124 682v-209h-49v209h49z" />
    <glyph glyph-name="parenleft" unicode="(" horiz-adv-x="290" 
d="M237 737l33 -12c-93 -133 -139 -272 -139 -418c0 -145 46 -286 137 -423l-34 -13c-49 63 -87 133 -115 210s-42 153 -42 227c0 151 53 294 160 429z" />
    <glyph glyph-name="parenright" unicode=")" horiz-adv-x="290" 
d="M26 725l33 12c107 -135 160 -278 160 -429c0 -74 -14 -150 -42 -227s-66 -147 -115 -210l-34 13c91 137 137 278 137 423c0 146 -46 285 -139 418z" />
    <glyph glyph-name="asterisk" unicode="*" horiz-adv-x="439" 
d="M254 527l110 -49l-30 -52l-98 71l14 -121h-58l13 120l-100 -71l-30 52l111 48l-111 50l29 51l97 -70l-11 119h59l-14 -119l99 70l29 -51z" />
    <glyph glyph-name="plus" unicode="+" 
d="M459 276h-166v-169h-46v169h-167v45h167v167h46v-167h166v-45z" />
    <glyph glyph-name="comma" unicode="," horiz-adv-x="173" 
d="M42 41c0 25 21 47 48 47c25 0 46 -19 46 -46c0 -17 -8 -45 -23 -82c-15 -38 -31 -71 -46 -100l-36 5l40 134c-19 7 -29 21 -29 42z" />
    <glyph glyph-name="hyphen" unicode="-" horiz-adv-x="376" 
d="M315 217h-254v53h254v-53z" />
    <glyph glyph-name="period" unicode="." horiz-adv-x="165" 
d="M128 38c0 -40 -50 -60 -78 -32s-8 78 32 78c27 0 46 -19 46 -46z" />
    <glyph glyph-name="slash" unicode="/" horiz-adv-x="297" 
d="M339 690l-325 -778h-46l324 778h47z" />
    <glyph glyph-name="zero" unicode="0" 
d="M269 672c77 0 137 -35 169 -80c17 -23 30 -50 40 -83c21 -64 25 -117 25 -180c0 -61 -5 -114 -26 -178c-27 -90 -90 -158 -208 -161c-93 0 -159 45 -191 117c-31 72 -42 139 -42 222c0 63 5 116 25 180c29 92 90 160 208 163zM269 624c-72 0 -123 -41 -146 -108
c-23 -65 -29 -120 -29 -187c0 -52 2 -95 17 -151c20 -76 66 -140 158 -140c73 0 124 41 147 105c23 65 30 119 30 186c0 52 -3 95 -18 151c-21 78 -67 144 -159 144z" />
    <glyph glyph-name="one" unicode="1" 
d="M315 666h15v-666h-57v577l-157 -109v61z" />
    <glyph glyph-name="two" unicode="2" 
d="M479 0h-423l-16 9c1 67 16 122 37 161c11 19 26 38 45 57c20 19 39 36 58 49s43 30 74 49c44 27 64 40 100 71c37 32 56 66 56 102c0 83 -60 125 -147 125s-140 -59 -140 -140c0 -15 2 -31 6 -48l-60 9c-3 13 -5 30 -5 51c0 52 20 94 59 127s87 50 142 50
c57 0 106 -15 146 -44s60 -72 60 -128c0 -69 -54 -137 -163 -203c-31 -18 -55 -33 -72 -45s-38 -29 -61 -50c-47 -43 -70 -94 -71 -155h375v-47z" />
    <glyph glyph-name="three" unicode="3" 
d="M152 356l-9 11l205 244l-1 4h-297v46h397v-13l-205 -237c131 0 213 -77 213 -205c0 -65 -23 -117 -69 -156c-45 -39 -101 -59 -166 -59c-80 0 -146 19 -198 58v64c57 -49 124 -73 199 -73c53 0 95 15 127 46c33 31 49 70 49 117c0 108 -72 161 -179 161
c-21 0 -43 -3 -66 -8z" />
    <glyph glyph-name="four" unicode="4" 
d="M366 403l46 69h9v-251h91v-46h-91v-175h-55v175h-357v13l344 474h69l-321 -441h265v182z" />
    <glyph glyph-name="five" unicode="5" 
d="M261 409c63 0 117 -18 160 -54c43 -35 65 -86 65 -151c0 -66 -23 -118 -69 -156c-45 -38 -101 -57 -168 -57c-78 0 -143 19 -195 58v65c41 -43 119 -75 195 -75c53 0 97 15 130 46s50 71 50 118c0 104 -70 158 -177 158c-55 0 -107 -15 -157 -46l-14 5l44 341h337v-45
h-288l-29 -228c33 14 71 21 116 21z" />
    <glyph glyph-name="six" unicode="6" 
d="M105 381l170 280h62l-175 -286l5 -1c24 22 62 33 113 33c62 0 113 -20 153 -59c41 -39 61 -88 61 -149c0 -62 -21 -113 -63 -152s-96 -58 -161 -58c-69 0 -123 19 -164 58s-61 89 -61 152c0 57 20 117 60 182zM272 360c-49 0 -90 -14 -123 -43c-32 -29 -48 -68 -48 -118
c0 -95 64 -163 169 -163c104 0 168 68 168 163c0 93 -65 161 -166 161z" />
    <glyph glyph-name="seven" unicode="7" 
d="M472 647l-289 -647h-56l275 615h-335v46h405v-14z" />
    <glyph glyph-name="eight" unicode="8" 
d="M371 357v-3c81 -31 121 -89 121 -173c0 -58 -21 -104 -63 -139c-41 -35 -94 -52 -158 -52c-66 0 -120 17 -161 51s-62 80 -62 137c0 75 46 141 119 168v4c-62 29 -93 78 -93 148c0 51 19 93 56 125c38 33 85 49 141 49c55 0 102 -16 140 -48s57 -74 57 -126
c0 -64 -38 -120 -97 -141zM271 326c-100 0 -167 -60 -167 -143c0 -85 64 -147 167 -147c100 0 165 63 165 147s-64 143 -165 143zM131 496c0 -72 59 -124 140 -124c80 0 140 52 140 124c0 73 -57 127 -140 127s-140 -54 -140 -127z" />
    <glyph glyph-name="nine" unicode="9" 
d="M433 282l-170 -282h-62l174 285l-4 3c-25 -22 -63 -33 -112 -33c-61 0 -112 19 -152 58s-60 89 -60 149c0 61 21 111 62 150c42 39 95 59 160 59c68 0 122 -19 162 -58c41 -38 61 -88 61 -151c0 -55 -20 -115 -59 -180zM267 303c99 0 169 60 169 159
c0 95 -63 162 -167 162c-103 0 -166 -69 -166 -162s64 -159 164 -159z" />
    <glyph glyph-name="colon" unicode=":" horiz-adv-x="192" 
d="M142 349c0 -24 -21 -44 -46 -44s-45 20 -45 44c0 25 20 46 45 46c27 0 46 -21 46 -46zM127 72c19 -17 19 -47 0 -64c-17 -17 -47 -17 -64 0s-17 47 0 64s47 17 64 0z" />
    <glyph glyph-name="semicolon" unicode=";" horiz-adv-x="204" 
d="M152 349c0 -24 -21 -44 -46 -44s-45 20 -45 44c0 25 20 46 45 46c27 0 46 -21 46 -46zM52 41c0 25 21 47 48 47c25 0 46 -19 46 -46c0 -17 -8 -45 -23 -82c-15 -38 -31 -71 -46 -100l-36 5l40 134c-19 7 -29 21 -29 42z" />
    <glyph glyph-name="less" unicode="&#x3c;" 
d="M167 298l297 -161v-54l-388 210v9l388 209v-55z" />
    <glyph glyph-name="equal" unicode="=" 
d="M465 399v-45h-391v45h391zM465 237v-44h-391v44h391z" />
    <glyph glyph-name="greater" unicode="&#x3e;" 
d="M464 293l-388 -210v54l297 161l-297 158v55l388 -209v-9z" />
    <glyph glyph-name="question" unicode="?" horiz-adv-x="492" 
d="M417 518c0 -60 -33 -117 -76 -157c-63 -59 -140 -111 -140 -165c0 -15 4 -29 13 -42l-56 -16c-10 22 -15 42 -15 59c-1 126 217 180 216 316c0 73 -56 126 -149 126c-46 0 -94 -13 -145 -38v58c48 22 97 33 148 33c56 0 104 -16 144 -47s60 -73 60 -127zM222 67
c17 -16 17 -46 0 -63s-47 -17 -64 0c-16 17 -16 47 0 63c17 17 47 17 64 0z" />
    <glyph glyph-name="at" unicode="@" horiz-adv-x="877" 
d="M532 313v29h-75c-86 0 -129 -25 -129 -76c0 -40 39 -65 91 -65c75 0 113 47 113 112zM276 262c0 81 59 121 177 121h79v17c0 60 -33 90 -99 90c-35 0 -75 -12 -118 -36v49c35 21 75 31 121 31c104 0 147 -49 147 -142v-130c0 -52 9 -71 50 -71c35 0 61 17 80 50
c19 34 28 73 28 116c0 76 -27 140 -81 193c-53 53 -121 79 -204 79c-89 0 -164 -32 -226 -95s-93 -140 -93 -230c0 -87 29 -160 87 -219c59 -59 133 -88 223 -88c88 0 163 28 224 84v-62c-63 -47 -138 -70 -224 -70c-106 0 -193 34 -261 101c-67 68 -101 153 -101 254
c0 103 36 191 108 264s159 109 262 109c99 0 180 -31 243 -94c63 -62 94 -138 94 -229c0 -57 -15 -106 -45 -148s-69 -63 -117 -63c-60 0 -89 32 -96 65l-4 2c-35 -35 -75 -53 -121 -53s-80 11 -101 33c-21 23 -32 47 -32 72z" />
    <glyph glyph-name="A" unicode="A" horiz-adv-x="612" 
d="M597 0h-60l-68 161h-327l-68 -161h-59l285 667h14zM307 543h-4l-140 -333h285z" />
    <glyph glyph-name="B" unicode="B" horiz-adv-x="604" 
d="M491 193c0 83 -66 137 -169 137h-179v-277h190c58 0 99 14 122 42c24 28 36 61 36 98zM326 610h-183v-229h173c50 0 137 21 137 117c0 67 -47 112 -127 112zM421 361v-4c88 -23 128 -92 128 -167c0 -57 -19 -103 -58 -138s-88 -52 -148 -52h-258v662h233
c115 0 193 -54 193 -159c0 -57 -33 -115 -90 -142z" />
    <glyph glyph-name="C" unicode="C" horiz-adv-x="611" 
d="M586 96v-57c-49 -31 -130 -48 -195 -48c-105 0 -188 31 -247 94s-89 144 -89 242c0 99 33 182 98 247c65 66 146 99 242 99c72 0 127 -10 165 -31v-57c-49 24 -103 36 -160 36c-80 0 -147 -27 -202 -80s-82 -125 -82 -214c0 -86 25 -155 74 -207c49 -51 118 -77 207 -77
c64 0 127 18 189 53z" />
    <glyph glyph-name="D" unicode="D" horiz-adv-x="680" 
d="M567 332c0 81 -22 148 -66 200c-43 52 -108 78 -194 78h-164v-557h169c168 0 255 110 255 279zM316 0h-231v662h221c97 0 174 -30 232 -90c58 -59 87 -139 87 -238c0 -100 -28 -181 -83 -242s-131 -92 -226 -92z" />
    <glyph glyph-name="E" unicode="E" horiz-adv-x="556" 
d="M144 53h382v-53h-441v662h414v-52h-355v-234h330v-52h-330v-271z" />
    <glyph glyph-name="F" unicode="F" horiz-adv-x="516" 
d="M143 303v-303h-58v662h416v-52h-358v-255h328v-52h-328z" />
    <glyph glyph-name="G" unicode="G" horiz-adv-x="665" 
d="M55 327c0 99 33 182 99 248s148 99 245 99c75 0 133 -12 174 -35v-59c-51 27 -109 41 -173 41c-80 0 -147 -27 -202 -80s-82 -125 -82 -214c0 -85 24 -153 73 -206c49 -52 118 -78 207 -78c53 0 102 10 147 29v254h57v-293c-57 -28 -130 -42 -218 -42
c-103 0 -183 32 -241 96c-57 65 -86 145 -86 240z" />
    <glyph glyph-name="H" unicode="H" horiz-adv-x="668" 
d="M583 662v-662h-57v324h-383v-324h-58v662h58v-286h383v286h57z" />
    <glyph glyph-name="I" unicode="I" horiz-adv-x="248" 
d="M153 662v-662h-58v662h58z" />
    <glyph glyph-name="J" unicode="J" horiz-adv-x="445" 
d="M144 44c61 0 102 17 124 50c23 34 34 81 34 140v428h58v-418c0 -143 -46 -254 -217 -254c-55 0 -99 10 -133 30v61c33 -23 94 -37 134 -37z" />
    <glyph glyph-name="K" unicode="K" horiz-adv-x="580" 
d="M85 662h58v-314l324 314h72l-323 -318l354 -344h-82l-345 339v-339h-58v662z" />
    <glyph glyph-name="L" unicode="L" horiz-adv-x="512" 
d="M85 0v662h58v-609h359v-53h-417z" />
    <glyph glyph-name="M" unicode="M" horiz-adv-x="815" 
d="M673 519l-259 -366h-14l-258 358l-2 -3v-508h-55v667h15l308 -437l307 437h15v-667h-55l1 517z" />
    <glyph glyph-name="N" unicode="N" horiz-adv-x="721" 
d="M141 542v-542h-56v671h15l476 -546h4v537h56v-669h-15l-477 549h-3z" />
    <glyph glyph-name="O" unicode="O" horiz-adv-x="787" 
d="M395 -10c-105 0 -188 32 -249 96s-91 146 -91 245c0 95 33 176 99 242c67 66 147 99 241 99c97 0 177 -33 241 -99c64 -65 96 -146 96 -242c0 -97 -32 -178 -96 -243c-63 -65 -144 -98 -241 -98zM116 331c0 -84 25 -153 75 -207c51 -54 119 -81 204 -81
c83 0 150 28 201 83c52 56 78 124 78 205s-26 149 -79 204c-52 56 -119 84 -200 84s-148 -28 -201 -83c-52 -55 -78 -124 -78 -205z" />
    <glyph glyph-name="P" unicode="P" horiz-adv-x="563" 
d="M143 0h-59v661h217c73 0 129 -21 170 -62s61 -91 61 -150c0 -67 -23 -120 -68 -159c-45 -38 -101 -57 -166 -57h-155v-233zM280 613h-137v-332h148c59 0 103 16 133 49s45 72 45 118c0 45 -16 84 -48 116c-31 33 -78 49 -141 49z" />
    <glyph glyph-name="Q" unicode="Q" horiz-adv-x="787" 
d="M116 331c0 -84 25 -153 75 -207c51 -54 119 -81 204 -81c83 0 150 28 201 83c52 56 78 124 78 205s-26 149 -79 204c-52 56 -119 84 -200 84s-148 -28 -201 -83c-52 -55 -78 -124 -78 -205zM395 672c97 0 177 -33 241 -99c64 -65 96 -146 96 -242
c0 -76 -22 -144 -65 -205s-97 -101 -164 -120l-2 -4l234 -57l-17 -60l-370 108c-92 9 -164 45 -216 108c-51 63 -77 141 -77 234c0 95 33 174 99 239c67 65 147 98 241 98z" />
    <glyph glyph-name="R" unicode="R" horiz-adv-x="589" 
d="M331 252l236 -252h-80l-250 278v10c77 1 136 18 176 50c41 33 61 71 61 116c0 99 -69 157 -172 157h-159v-611h-59v661h226c59 0 110 -18 155 -55c45 -36 68 -86 68 -150c0 -50 -19 -95 -56 -134s-85 -62 -146 -70z" />
    <glyph glyph-name="S" unicode="S" horiz-adv-x="485" 
d="M35 44v62c60 -42 123 -63 188 -63c101 0 169 40 169 123c0 192 -342 148 -342 340c0 53 19 94 58 123s83 43 133 43c64 0 120 -14 168 -41v-62c-49 33 -102 50 -160 50c-80 0 -139 -33 -139 -110c0 -51 53 -88 120 -116c96 -39 222 -89 220 -217
c0 -123 -88 -186 -219 -186c-76 0 -141 18 -196 54z" />
    <glyph glyph-name="T" unicode="T" horiz-adv-x="523" 
d="M508 662v-52h-216v-610h-59v610h-218v52h493z" />
    <glyph glyph-name="U" unicode="U" horiz-adv-x="676" 
d="M534 246v416h57v-422c0 -74 -23 -134 -68 -181c-45 -46 -106 -69 -185 -69s-141 23 -186 68c-45 46 -67 107 -67 184v420h57v-412c0 -120 65 -206 196 -206c129 0 196 81 196 202z" />
    <glyph glyph-name="V" unicode="V" horiz-adv-x="569" 
d="M559 660l-266 -667h-14l-269 667h59l216 -539h5l213 539h56z" />
    <glyph glyph-name="W" unicode="W" horiz-adv-x="886" 
d="M623 -7l-179 527h-4l-177 -527h-14l-239 667h57l188 -526h5l177 531h12l180 -531h5l185 526h57l-241 -667h-12z" />
    <glyph glyph-name="X" unicode="X" horiz-adv-x="606" 
d="M596 0h-67l-225 329l-231 -329h-63l236 341l-218 320h63l213 -307l211 307h64l-221 -319z" />
    <glyph glyph-name="Y" unicode="Y" 
d="M75 662l204 -311h4l186 311h61l-221 -367v-295h-58v295l-241 367h65z" />
    <glyph glyph-name="Z" unicode="Z" horiz-adv-x="500" 
d="M60 662h417v-9l-364 -601h367v-52h-460v9l368 601h-328v52z" />
    <glyph glyph-name="bracketleft" unicode="[" horiz-adv-x="257" 
d="M227 -120h-152v853h152v-42h-101v-769h101v-42z" />
    <glyph glyph-name="backslash" unicode="\" horiz-adv-x="297" 
d="M15 690l324 -778h-46l-325 778h47z" />
    <glyph glyph-name="bracketright" unicode="]" horiz-adv-x="257" 
d="M30 733h152v-853h-152v42h101v769h-101v42z" />
    <glyph glyph-name="asciicircum" unicode="^" horiz-adv-x="473" 
d="M247 659l201 -310h-55l-156 241l-160 -241h-52l204 310h18z" />
    <glyph glyph-name="underscore" unicode="_" horiz-adv-x="510" 
d="M505 -120h-500v37h500v-37z" />
    <glyph glyph-name="grave" unicode="`" horiz-adv-x="469" 
d="M176 682l104 -151h-47l-120 133z" />
    <glyph glyph-name="a" unicode="a" horiz-adv-x="495" 
d="M376 0l-10 57l-5 1c-40 -45 -92 -68 -155 -68c-57 0 -98 13 -123 40s-37 56 -37 88c0 98 69 147 206 147h112v24c0 79 -43 118 -129 118c-45 0 -94 -14 -145 -43v52c40 24 105 39 148 39c128 0 182 -59 182 -174v-281h-44zM364 188v33h-118c-95 0 -142 -33 -142 -98
c0 -55 50 -85 115 -85c93 0 145 63 145 150z" />
    <glyph glyph-name="b" unicode="b" horiz-adv-x="575" 
d="M126 68l-5 -3l-10 -65h-46v711h57v-336l5 -1c39 52 104 81 171 81c70 0 125 -22 166 -65s61 -98 61 -167c0 -65 -22 -121 -67 -166s-99 -67 -163 -67c-67 0 -134 29 -169 78zM294 39c51 0 92 18 124 53c33 35 49 79 49 131c0 53 -16 97 -47 132s-73 53 -126 53
c-52 0 -94 -18 -126 -54c-31 -36 -47 -80 -47 -131c0 -52 16 -96 48 -131s74 -53 125 -53z" />
    <glyph glyph-name="c" unicode="c" horiz-adv-x="432" 
d="M407 73v-54c-33 -19 -78 -29 -133 -29c-72 0 -127 21 -166 64s-58 97 -58 164s22 123 65 168c43 46 98 69 163 69c45 0 82 -7 111 -20v-54c-28 17 -63 26 -104 26c-50 0 -92 -17 -126 -51s-51 -80 -51 -138c0 -107 68 -179 176 -179c51 0 92 11 123 34z" />
    <glyph glyph-name="d" unicode="d" horiz-adv-x="572" 
d="M448 378l4 2v331h55v-711h-45l-10 71l-4 1c-40 -55 -96 -82 -169 -82c-70 0 -126 22 -167 65s-62 99 -62 168c0 65 22 120 66 165c45 45 99 67 164 67c67 0 133 -29 168 -77zM281 407c-51 0 -92 -18 -125 -54c-32 -35 -48 -79 -48 -130c0 -53 15 -98 46 -133
s74 -52 127 -52c52 0 94 18 125 53c31 36 47 80 47 132c0 51 -16 95 -48 130c-31 36 -73 54 -124 54z" />
    <glyph glyph-name="e" unicode="e" horiz-adv-x="519" 
d="M450 97v-57c-44 -33 -100 -50 -168 -50c-71 0 -128 21 -170 63c-41 43 -62 100 -62 171c0 65 21 120 62 164c41 45 93 67 154 67c63 0 113 -22 149 -65s54 -97 54 -162c0 -9 0 -16 -1 -20h-359c1 -52 18 -93 50 -124c33 -30 73 -45 120 -45c65 0 122 19 171 58zM267 405
c-88 0 -148 -59 -157 -151h305c-9 92 -64 151 -148 151z" />
    <glyph glyph-name="f" unicode="f" horiz-adv-x="295" 
d="M320 713v-50c-23 9 -48 14 -77 14c-67 0 -100 -43 -100 -128v-104h136v-47h-136v-398h-56v398h-82v34l82 13v99c0 120 53 180 160 180c26 0 50 -4 73 -11z" />
    <glyph glyph-name="g" unicode="g" horiz-adv-x="499" 
d="M40 -90c0 45 27 93 70 124l-27 4c-32 5 -48 22 -48 51l83 75c-33 30 -50 71 -50 123c0 47 17 86 50 118c34 33 76 49 126 49c22 0 45 -4 68 -11h147v-35l-88 -10c32 -29 48 -66 48 -112c0 -47 -17 -86 -50 -118s-75 -48 -125 -48c-40 0 -72 8 -95 24l-55 -61l229 -26
c83 -9 124 -44 124 -107c0 -39 -20 -77 -59 -114s-93 -55 -164 -55c-124 0 -184 57 -184 129zM244 165c75 0 122 53 122 121c0 69 -53 122 -122 122s-122 -53 -122 -121c0 -72 46 -122 122 -122zM322 11l-178 20c-31 -33 -47 -69 -47 -110c0 -53 35 -93 126 -93
c57 0 99 13 126 40c27 26 41 54 41 84c0 33 -23 53 -68 59z" />
    <glyph glyph-name="h" unicode="h" horiz-adv-x="525" 
d="M450 266v-266h-57v255c0 93 -41 150 -116 150c-88 0 -153 -60 -153 -175v-230h-59v711h56v-333h3c42 51 94 77 156 77c109 0 170 -69 170 -189z" />
    <glyph glyph-name="i" unicode="i" horiz-adv-x="227" 
d="M114 539c-23 0 -39 15 -39 38c0 33 43 51 66 28c25 -25 5 -66 -27 -66zM141 445v-445h-57v445h57z" />
    <glyph glyph-name="j" unicode="j" horiz-adv-x="210" 
d="M68 577c0 20 18 39 39 39s38 -16 38 -39c5 -50 -81 -49 -77 0zM-20 -227l-27 52c92 3 124 49 124 145v475h57v-476c0 -125 -51 -191 -154 -196z" />
    <glyph glyph-name="k" unicode="k" horiz-adv-x="467" 
d="M363 444h75l-248 -208l272 -236h-84l-258 227v-227h-55v711h55v-471z" />
    <glyph glyph-name="l" unicode="l" horiz-adv-x="203" 
d="M132 711v-711h-57v711h57z" />
    <glyph glyph-name="m" unicode="m" horiz-adv-x="816" 
d="M741 276v-276h-56v272c0 89 -38 134 -114 134c-75 0 -134 -57 -134 -177v-229h-57v272c0 87 -40 134 -108 134c-81 0 -140 -62 -140 -177v-229h-57v444h44l10 -61c1 -1 2 -1 3 -1c35 49 83 73 144 73c69 0 120 -33 144 -89c36 59 96 89 151 89c113 0 170 -67 170 -179z
" />
    <glyph glyph-name="n" unicode="n" horiz-adv-x="535" 
d="M460 266v-266h-57v255c0 93 -41 150 -116 150c-89 0 -155 -60 -155 -175v-230h-57v445h44l9 -67h4c42 51 95 77 158 77c109 0 170 -69 170 -189z" />
    <glyph glyph-name="o" unicode="o" horiz-adv-x="560" 
d="M281 -10c-71 0 -127 22 -169 66c-41 44 -62 100 -62 167c0 65 22 119 67 164s100 68 164 68c66 0 121 -22 164 -67s65 -100 65 -165c0 -66 -22 -121 -66 -166c-43 -45 -98 -67 -163 -67zM281 407c-51 0 -92 -18 -125 -54c-32 -35 -48 -79 -48 -130c0 -53 15 -98 46 -133
s74 -52 127 -52c52 0 94 18 125 53c31 36 47 80 47 132c0 51 -16 95 -48 130c-31 36 -73 54 -124 54z" />
    <glyph glyph-name="p" unicode="p" horiz-adv-x="573" 
d="M125 68l-5 -3v-280h-55v660h45l10 -70l5 -1c39 52 104 81 171 81c70 0 125 -22 166 -65s61 -98 61 -167c0 -65 -22 -121 -67 -166s-99 -67 -163 -67c-67 0 -133 29 -168 78zM292 39c51 0 92 18 124 53c33 35 49 79 49 131c0 53 -16 97 -47 132s-73 53 -126 53
c-52 0 -94 -18 -126 -54c-31 -36 -47 -80 -47 -131c0 -52 16 -96 48 -131s74 -53 125 -53z" />
    <glyph glyph-name="q" unicode="q" horiz-adv-x="575" 
d="M449 378l4 2l10 65h47v-660h-55v287l-4 1c-39 -53 -105 -83 -172 -83c-70 0 -126 22 -167 65s-62 99 -62 168c0 65 22 120 66 165c45 45 99 67 164 67c67 0 134 -29 169 -77zM281 407c-51 0 -92 -18 -125 -54c-32 -35 -48 -79 -48 -130c0 -53 15 -98 46 -133
s74 -52 127 -52c52 0 94 18 125 53c31 36 47 80 47 132c0 51 -16 95 -48 130c-31 36 -73 54 -124 54z" />
    <glyph glyph-name="r" unicode="r" horiz-adv-x="310" 
d="M264 402c-81 0 -132 -78 -132 -183v-219h-57v444h39l10 -79c1 -1 2 -1 3 -1c32 61 81 91 148 91c12 0 22 -1 30 -3v-55c-12 3 -26 5 -41 5z" />
    <glyph glyph-name="s" unicode="s" horiz-adv-x="369" 
d="M25 29v56c45 -32 92 -48 141 -48c75 0 112 26 112 77c0 113 -235 88 -235 221c0 39 14 69 42 89c29 21 63 31 102 31c44 0 86 -10 127 -30v-55c-44 25 -84 38 -120 38c-62 0 -93 -23 -93 -69c0 -88 233 -72 233 -216c0 -84 -67 -132 -162 -132c-55 0 -104 13 -147 38z
" />
    <glyph glyph-name="t" unicode="t" horiz-adv-x="320" 
d="M100 445l34 134h23v-134h127v-47h-127v-271c0 -56 15 -83 66 -83c29 0 57 9 84 28v-52c-26 -19 -56 -29 -90 -29c-89 0 -117 48 -117 136v271h-75v37z" />
    <glyph glyph-name="u" unicode="u" horiz-adv-x="521" 
d="M75 172v273h56v-261c0 -95 37 -143 110 -143c88 0 148 59 148 174v230h57v-445h-44l-10 64c-1 1 -2 1 -3 1c-41 -50 -91 -75 -148 -75c-111 0 -166 61 -166 182z" />
    <glyph glyph-name="v" unicode="v" horiz-adv-x="459" 
d="M444 445l-211 -451h-11l-207 451h62l151 -339h5l151 339h60z" />
    <glyph glyph-name="w" unicode="w" horiz-adv-x="706" 
d="M205 111l146 334h9l148 -334h4l129 334h55l-182 -451h-10l-148 335h-3l-148 -335h-11l-179 451h58l129 -334h3z" />
    <glyph glyph-name="x" unicode="x" horiz-adv-x="452" 
d="M442 0h-65l-150 216l-155 -216h-62l162 228l-152 217h62l145 -205l144 205h62l-154 -216z" />
    <glyph glyph-name="y" unicode="y" horiz-adv-x="442" 
d="M72 445l149 -364h6l149 364h56l-274 -660h-59l95 230l-184 430h62z" />
    <glyph glyph-name="z" unicode="z" horiz-adv-x="408" 
d="M48 445h335v-9l-278 -390h274v-46h-364v9l281 390h-248v46z" />
    <glyph glyph-name="braceleft" unicode="{" horiz-adv-x="288" 
d="M117 337v-5c45 -27 52 -70 52 -159v-178c0 -49 15 -74 45 -74h39v-44h-48c-37 0 -62 14 -74 39c-11 24 -13 45 -13 77v221c0 67 -21 105 -63 114v11c42 9 63 46 63 113v153c0 36 2 54 11 85s34 46 71 46h53v-43h-37c-39 0 -47 -25 -47 -73v-163c0 -65 -17 -105 -52 -120z
" />
    <glyph glyph-name="bar" unicode="|" horiz-adv-x="253" 
d="M152 -138h-50v897h50v-897z" />
    <glyph glyph-name="braceright" unicode="}" horiz-adv-x="288" 
d="M171 332v5c-35 15 -52 55 -52 120v163c0 48 -8 73 -47 73h-37v43h53c37 0 62 -15 71 -46s11 -49 11 -85v-153c0 -67 21 -104 63 -113v-11c-42 -9 -63 -47 -63 -114v-221c0 -32 -2 -53 -14 -77c-11 -25 -36 -39 -73 -39h-48v44h39c30 0 45 25 45 74v178c0 30 1 53 2 69
c3 32 18 71 50 90z" />
    <glyph glyph-name="asciitilde" unicode="~" horiz-adv-x="490" 
d="M436 373l33 -30c-29 -57 -69 -85 -122 -85c-25 0 -62 11 -111 32s-81 32 -96 32c-36 0 -57 -21 -86 -64l-33 30c31 57 72 86 122 86c25 0 61 -11 110 -33c49 -21 82 -32 97 -32c36 0 57 21 86 64z" />
    <glyph glyph-name="uni00A0" unicode="&#xa0;" horiz-adv-x="240" 
 />
    <glyph glyph-name="exclamdown" unicode="&#xa1;" horiz-adv-x="274" 
d="M107 -243l11 538h42l9 -538h-62zM138 456c24 0 45 -20 45 -45s-20 -45 -45 -45c-58 -4 -58 94 0 90z" />
    <glyph glyph-name="cent" unicode="&#xa2;" 
d="M330 -30h-48v105c-124 13 -191 104 -191 227c0 60 18 112 53 155c35 44 81 70 138 79v108h48v-105c39 -1 72 -8 100 -20v-54c-28 17 -63 26 -104 26c-50 0 -92 -17 -126 -51s-51 -80 -51 -138c0 -107 68 -179 176 -179c51 0 92 11 123 34v-54c-29 -17 -68 -26 -118 -29
v-104z" />
    <glyph glyph-name="sterling" unicode="&#xa3;" 
d="M465 649v-50c-33 13 -64 19 -92 19c-83 0 -141 -48 -141 -163v-99h183v-41h-183c-1 -49 -7 -98 -18 -149c-11 -50 -28 -90 -51 -119h307v-47h-390v12c64 70 96 171 96 303h-82v41h82v100c0 183 132 210 195 210c36 0 67 -6 94 -17z" />
    <glyph glyph-name="currency" unicode="&#xa4;" 
d="M81 286c0 39 12 76 36 112l-51 52l42 40l50 -52c36 25 73 38 111 38c41 0 78 -13 113 -39l51 50l40 -39l-52 -53c24 -33 36 -70 36 -109s-12 -75 -36 -110l53 -51l-41 -41l-52 50c-36 -24 -73 -36 -112 -36c-37 0 -75 12 -112 36l-47 -50l-42 41l50 48
c-25 31 -37 69 -37 113zM133 285c0 -37 13 -68 39 -95c27 -27 59 -40 96 -40c38 0 70 13 96 39c26 27 39 59 39 96c0 38 -13 70 -39 97s-58 40 -96 40c-37 0 -69 -13 -96 -40c-26 -27 -39 -59 -39 -97z" />
    <glyph glyph-name="yen" unicode="&#xa5;" 
d="M497 322v-37h-430v37h165l-189 340h65l170 -327h3l176 327h59l-191 -340h172zM67 191v37h430v-37h-189l-1 -191h-57v191h-183z" />
    <glyph glyph-name="brokenbar" unicode="&#xa6;" horiz-adv-x="252" 
d="M151 759v-345h-49v345h49zM102 -138v417h49v-417h-49z" />
    <glyph glyph-name="section" unicode="&#xa7;" horiz-adv-x="553" 
d="M474 298c0 -57 -34 -106 -93 -133c43 -32 65 -68 65 -108c0 -43 -18 -78 -53 -105s-81 -40 -136 -40c-69 0 -126 13 -169 40v63c47 -28 115 -51 167 -51c71 0 128 26 128 85c0 51 -46 92 -105 120c-82 41 -193 91 -191 187c0 55 31 96 92 125c-35 33 -52 67 -52 102
c0 77 64 128 171 128c52 0 95 -9 130 -26v-57c-41 23 -83 34 -128 34c-67 0 -113 -26 -113 -75c0 -45 45 -81 101 -108c82 -39 184 -85 186 -181zM413 292c0 39 -34 75 -65 92c-15 9 -37 22 -68 37c-30 15 -51 27 -63 34c-47 -21 -70 -50 -70 -89c0 -41 29 -76 57 -93
c15 -9 37 -21 66 -37s53 -30 70 -41c49 25 73 58 73 97z" />
    <glyph glyph-name="dieresis" unicode="&#xa8;" horiz-adv-x="469" 
d="M147 549c-23 0 -38 16 -38 37c0 19 18 37 38 37c47 0 47 -74 0 -74zM269 586c0 19 17 37 37 37c32 0 50 -40 26 -64c-22 -22 -63 -5 -63 27z" />
    <glyph glyph-name="copyright" unicode="&#xa9;" horiz-adv-x="838" 
d="M561 173v-42c-33 -19 -76 -29 -129 -29c-151 0 -238 94 -238 237c0 71 23 129 68 176c46 47 103 70 171 70c43 0 79 -7 110 -21v-44c-30 16 -65 24 -105 24c-55 0 -101 -19 -138 -56s-56 -86 -56 -149c0 -57 18 -104 54 -141s82 -56 139 -56c48 0 89 10 124 31zM777 351
c0 -99 -35 -184 -106 -255s-156 -106 -255 -106s-184 35 -255 106s-106 156 -106 255c0 101 35 187 106 256c71 70 158 105 260 105c98 0 182 -36 251 -107c70 -71 105 -155 105 -254zM735 351c0 87 -31 163 -93 226s-136 95 -222 95c-91 0 -167 -31 -230 -94
c-62 -62 -93 -138 -93 -227c0 -88 31 -164 93 -227c63 -63 138 -94 226 -94s163 31 225 94c63 63 94 139 94 227z" />
    <glyph glyph-name="ordfeminine" unicode="&#xaa;" horiz-adv-x="348" 
d="M268 298l-10 39l-2 1c-21 -31 -55 -47 -103 -47c-84 0 -118 44 -118 89c0 67 52 100 155 100h66v13c0 45 -28 68 -83 68c-29 0 -64 -11 -106 -32v45c35 19 71 28 108 28c86 0 129 -39 129 -118v-186h-36zM256 420v21h-64c-71 0 -107 -20 -107 -59c0 -33 25 -50 76 -50
c61 0 95 35 95 88z" />
    <glyph glyph-name="guillemotleft" unicode="&#xab;" horiz-adv-x="411" 
d="M242 381l-137 -180l137 -185h-63l-134 178v9l137 178h60zM375 381l-137 -180l137 -185h-63l-134 178v9l137 178h60z" />
    <glyph glyph-name="logicalnot" unicode="&#xac;" 
d="M80 321h379v-214h-47v169h-332v45z" />
    <glyph glyph-name="sfthyphen" unicode="&#xad;" horiz-adv-x="376" 
d="M315 217h-254v53h254v-53z" />
    <glyph glyph-name="registered" unicode="&#xae;" horiz-adv-x="607" 
d="M332 436l97 -112h-49l-105 128v9c66 1 99 19 99 55c0 39 -23 58 -69 58h-55v-250h-36v283h95c52 0 102 -31 102 -87c0 -40 -30 -73 -79 -84zM303 223c-71 0 -129 23 -173 68c-43 45 -65 102 -65 170c0 65 23 121 70 168s103 71 168 71c68 0 125 -23 170 -70
c46 -47 69 -103 69 -169s-23 -122 -70 -169c-47 -46 -103 -69 -169 -69zM303 665c-57 0 -105 -20 -144 -60c-39 -39 -58 -87 -58 -144s19 -106 57 -145s86 -59 145 -59c56 0 104 20 143 60c40 40 60 88 60 144s-20 104 -60 144c-39 40 -87 60 -143 60z" />
    <glyph glyph-name="overscore" unicode="&#xaf;" horiz-adv-x="469" 
d="M361 552h-264v48h264v-48z" />
    <glyph glyph-name="degree" unicode="&#xb0;" horiz-adv-x="417" 
d="M209 413c-72 0 -118 50 -118 118c0 33 12 62 35 85c23 24 51 36 83 36c71 0 123 -53 123 -121c0 -67 -52 -118 -123 -118zM209 612c-43 0 -75 -38 -75 -81s31 -80 75 -80c49 0 82 37 82 80c0 44 -34 81 -82 81z" />
    <glyph glyph-name="plusminus" unicode="&#xb1;" 
d="M80 0v46h379v-46h-379zM459 264h-166v-161h-46v161h-167v45h167v159h46v-159h166v-45z" />
    <glyph glyph-name="twosuperior" unicode="&#xb2;" horiz-adv-x="340" 
d="M103 630l-51 6c-3 7 -4 19 -4 35c0 63 57 106 126 106c71 0 128 -36 128 -103c0 -41 -33 -81 -100 -120c-45 -27 -75 -48 -89 -63c-17 -19 -26 -40 -28 -63h222v-40h-274c0 35 6 65 17 89c12 25 26 43 41 56s39 29 72 49l40 25c19 12 49 42 49 66c0 41 -32 63 -79 63
c-48 0 -77 -31 -77 -71c0 -6 2 -18 7 -35z" />
    <glyph glyph-name="threesuperior" unicode="&#xb3;" horiz-adv-x="340" 
d="M97 591l-5 8l123 133h-164v40h248v-8l-129 -136c80 0 135 -48 135 -119c0 -38 -14 -69 -43 -92s-63 -34 -104 -34c-49 0 -91 12 -124 36v52c39 -32 81 -48 125 -48c57 0 97 37 97 85c0 60 -44 87 -108 87c-21 0 -38 -1 -51 -4z" />
    <glyph glyph-name="acute" unicode="&#xb4;" horiz-adv-x="469" 
d="M358 664l-120 -133h-47l104 151z" />
    <glyph glyph-name="mu" unicode="&#xb5;" horiz-adv-x="516" 
d="M70 445h56l1 -286c0 -76 40 -118 109 -118c88 0 148 59 148 174v230h57v-445h-44l-10 64c-1 1 -2 1 -3 1c-41 -50 -91 -75 -148 -75c-51 0 -87 12 -109 37v-242h-56c-1 246 -1 466 -1 660z" />
    <glyph glyph-name="mu" unicode="&#x3bc;" horiz-adv-x="516" 
d="M70 445h56l1 -286c0 -76 40 -118 109 -118c88 0 148 59 148 174v230h57v-445h-44l-10 64c-1 1 -2 1 -3 1c-41 -50 -91 -75 -148 -75c-51 0 -87 12 -109 37v-242h-56c-1 246 -1 466 -1 660z" />
    <glyph glyph-name="paragraph" unicode="&#xb6;" horiz-adv-x="528" 
d="M333 690v-363h-79c-53 0 -96 17 -131 52s-52 79 -52 130c0 50 17 93 52 128s79 53 131 53h79zM383 690h60v-664c0 -129 -53 -196 -160 -202l-26 51c53 1 89 19 105 51s21 61 21 108v656z" />
    <glyph glyph-name="middot" unicode="&#xb7;" horiz-adv-x="192" 
d="M142 250c0 -25 -21 -46 -46 -46c-40 0 -62 50 -33 79s79 7 79 -33z" />
    <glyph glyph-name="cedilla" unicode="&#xb8;" horiz-adv-x="427" 
d="M330 -127c0 -51 -48 -89 -116 -89c-26 0 -53 6 -82 17v42c27 -12 54 -18 81 -18c41 0 64 18 64 43c0 29 -29 43 -64 43c-13 0 -23 -1 -31 -4l-19 12l47 101h41l-34 -70c80 -1 113 -36 113 -77z" />
    <glyph glyph-name="onesuperior" unicode="&#xb9;" horiz-adv-x="285" 
d="M186 777h8v-389h-48v316c-10 -7 -27 -16 -50 -28c-23 -11 -39 -20 -50 -26v47z" />
    <glyph glyph-name="ordmasculine" unicode="&#xba;" horiz-adv-x="378" 
d="M190 293c-99 0 -159 65 -159 154c0 43 15 80 46 110s69 45 113 45c45 0 83 -15 113 -45c30 -29 45 -66 45 -110c0 -43 -15 -80 -46 -110c-30 -29 -67 -44 -112 -44zM83 447c0 -65 39 -113 107 -113c67 0 106 49 106 113c0 63 -42 113 -106 113s-107 -49 -107 -113z" />
    <glyph glyph-name="guillemotright" unicode="&#xbb;" horiz-adv-x="411" 
d="M241 16h-63l137 185l-137 180h60l137 -178v-9zM108 16h-63l137 185l-137 180h60l137 -178v-9z" />
    <glyph glyph-name="onequarter" unicode="&#xbc;" horiz-adv-x="750" 
d="M613 681h47l-506 -700h-47zM205 687h8v-389h-48v316c-11 -7 -27 -16 -50 -27s-39 -20 -50 -27v47zM371 104l203 276h53l-188 -251h139v94l33 46h13v-140h58v-39h-58v-92h-46v92h-207v14z" />
    <glyph glyph-name="onehalf" unicode="&#xbd;" horiz-adv-x="750" 
d="M572 681h47l-506 -700h-47zM187 687h8v-389h-48v316c-10 -7 -27 -16 -50 -27s-40 -20 -50 -27v47zM499 240l-51 6c-3 7 -4 19 -4 35c0 63 57 106 126 106c71 0 128 -36 128 -103c0 -41 -33 -81 -100 -120c-45 -27 -75 -48 -89 -63c-17 -19 -26 -40 -28 -63h222v-40h-274
c0 35 6 65 17 89c12 25 26 43 41 56s39 29 72 49l40 25c19 12 49 42 49 66c0 41 -32 63 -79 63c-48 0 -77 -31 -77 -71c0 -6 2 -18 7 -35z" />
    <glyph glyph-name="threequarters" unicode="&#xbe;" horiz-adv-x="750" 
d="M112 501l-5 8l123 133h-164v40h248v-8l-129 -136c80 0 135 -48 135 -119c0 -38 -14 -69 -43 -92s-63 -34 -104 -34c-49 0 -91 12 -124 36v52c39 -32 81 -48 125 -48c57 0 97 37 97 85c0 60 -44 87 -108 87c-21 0 -38 -1 -51 -4zM403 104l203 276h53l-188 -251h139v94
l33 46h13v-140h58v-39h-58v-92h-46v92h-207v14zM648 681h47l-506 -700h-47z" />
    <glyph glyph-name="questiondown" unicode="&#xbf;" horiz-adv-x="492" 
d="M88 -72c0 60 33 117 76 157c63 59 140 111 140 165c0 15 -4 29 -13 42l56 16c10 -22 15 -42 15 -59c1 -126 -217 -180 -216 -316c0 -73 56 -126 149 -126c46 0 94 13 145 38v-58c-48 -22 -97 -33 -148 -33c-56 0 -104 16 -144 47s-60 73 -60 127zM283 378
c-17 17 -17 47 0 64s47 17 63 0c17 -17 17 -47 0 -64c-16 -16 -46 -16 -63 0z" />
    <glyph glyph-name="Agrave" unicode="&#xc0;" horiz-adv-x="612" 
d="M597 0h-60l-68 161h-327l-68 -161h-59l285 667h14zM307 543h-4l-140 -333h285zM227 870l121 -137h-51l-137 119z" />
    <glyph glyph-name="Aacute" unicode="&#xc1;" horiz-adv-x="612" 
d="M597 0h-60l-68 161h-327l-68 -161h-59l285 667h14zM307 543h-4l-140 -333h285zM462 852l-137 -119h-51l121 137z" />
    <glyph glyph-name="Acircumflex" unicode="&#xc2;" horiz-adv-x="612" 
d="M597 0h-60l-68 161h-327l-68 -161h-59l285 667h14zM307 543h-4l-140 -333h285zM317 856l135 -133h-68l-76 71l-80 -71h-67l140 133h16z" />
    <glyph glyph-name="Atilde" unicode="&#xc3;" horiz-adv-x="612" 
d="M597 0h-60l-68 161h-327l-68 -161h-59l285 667h14zM307 543h-4l-140 -333h285zM423 860l28 -31c-17 -47 -44 -70 -80 -70c-16 0 -38 8 -67 24c-28 16 -47 24 -57 24c-19 0 -37 -18 -54 -54l-30 31c16 40 45 71 82 71c16 0 38 -8 67 -24s48 -24 57 -24c19 0 37 18 54 53z
" />
    <glyph glyph-name="Adieresis" unicode="&#xc4;" horiz-adv-x="612" 
d="M597 0h-60l-68 161h-327l-68 -161h-59l285 667h14zM307 543h-4l-140 -333h285zM229 758c-23 0 -38 16 -38 37c0 19 18 37 38 37c47 0 47 -74 0 -74zM425 795c0 -49 -74 -49 -74 0c0 19 17 37 37 37c21 0 37 -16 37 -37z" />
    <glyph glyph-name="Aring" unicode="&#xc5;" horiz-adv-x="612" 
d="M597 0h-60l-68 161h-327l-68 -161h-59l285 667h14zM307 543h-4l-140 -333h285zM306 697c-53 0 -87 36 -87 85s39 88 87 88c51 0 88 -37 88 -88c0 -48 -37 -85 -88 -85zM306 836c-29 0 -51 -25 -51 -54s20 -52 51 -52c32 0 52 24 52 52c0 31 -21 54 -52 54z" />
    <glyph glyph-name="AE" unicode="&#xc6;" horiz-adv-x="955" 
d="M925 53v-53h-439v161h-304l-132 -161h-70l548 662h370v-52h-354v-234h329v-52h-329v-271h381zM486 526h-4l-260 -316h264v316z" />
    <glyph glyph-name="Ccedilla" unicode="&#xc7;" horiz-adv-x="611" 
d="M466 -132c0 -51 -48 -89 -116 -89c-27 0 -54 6 -82 17v42c27 -12 54 -18 81 -18c41 0 64 18 64 43c0 29 -29 43 -64 43c-13 0 -23 -1 -31 -4l-19 12l37 81c-89 11 -158 46 -207 107s-74 136 -74 225c0 99 33 182 98 247c65 66 146 99 242 99c72 0 127 -10 165 -31v-57
c-49 24 -103 36 -160 36c-80 0 -147 -27 -202 -80s-82 -125 -82 -214c0 -86 25 -155 74 -207c49 -51 118 -77 207 -77c64 0 127 18 189 53v-57c-49 -31 -130 -48 -195 -48c-4 0 -13 1 -16 1l-22 -47c80 -1 113 -36 113 -77z" />
    <glyph glyph-name="Egrave" unicode="&#xc8;" horiz-adv-x="556" 
d="M144 53h382v-53h-441v662h414v-52h-355v-234h330v-52h-330v-271zM239 870l121 -137h-51l-137 119z" />
    <glyph glyph-name="Eacute" unicode="&#xc9;" horiz-adv-x="556" 
d="M144 53h382v-53h-441v662h414v-52h-355v-234h330v-52h-330v-271zM421 852l-137 -119h-51l121 137z" />
    <glyph glyph-name="Ecircumflex" unicode="&#xca;" horiz-adv-x="556" 
d="M298 861l135 -133h-68l-76 71l-80 -71h-67l140 133h16zM144 53h382v-53h-441v662h414v-52h-355v-234h330v-52h-330v-271z" />
    <glyph glyph-name="Edieresis" unicode="&#xcb;" horiz-adv-x="556" 
d="M144 53h382v-53h-441v662h414v-52h-355v-234h330v-52h-330v-271zM204 758c-23 0 -38 16 -38 37c0 19 18 37 38 37c47 0 47 -74 0 -74zM400 795c6 -49 -80 -49 -74 0c0 19 17 37 37 37c21 0 37 -16 37 -37z" />
    <glyph glyph-name="Igrave" unicode="&#xcc;" horiz-adv-x="248" 
d="M153 662v-662h-58v662h58zM51 870l121 -137h-51l-137 119z" />
    <glyph glyph-name="Iacute" unicode="&#xcd;" horiz-adv-x="248" 
d="M153 662v-662h-58v662h58zM273 852l-137 -119h-51l121 137z" />
    <glyph glyph-name="Icircumflex" unicode="&#xce;" horiz-adv-x="248" 
d="M133 861l135 -133h-68l-76 71l-80 -71h-67l140 133h16zM153 662v-662h-58v662h58z" />
    <glyph glyph-name="Idieresis" unicode="&#xcf;" horiz-adv-x="248" 
d="M43 758c-23 0 -38 16 -38 37c0 19 18 37 38 37c47 0 47 -74 0 -74zM239 795c0 -49 -74 -49 -74 0c0 19 17 37 37 37c21 0 37 -16 37 -37zM153 662v-662h-58v662h58z" />
    <glyph glyph-name="Eth" unicode="&#xd0;" horiz-adv-x="680" 
d="M316 0h-231v318h-63v51h63v293h221c97 0 174 -30 232 -90c58 -59 87 -139 87 -238c0 -100 -28 -181 -83 -242s-131 -92 -226 -92zM567 332c0 81 -22 148 -66 200c-43 52 -108 78 -194 78h-164v-241h219v-51h-219v-265h169c168 0 255 110 255 279z" />
    <glyph glyph-name="Ntilde" unicode="&#xd1;" horiz-adv-x="721" 
d="M141 542v-542h-56v671h15l476 -546h4v537h56v-669h-15l-477 549h-3zM487 848l28 -31c-17 -47 -44 -70 -80 -70c-16 0 -38 8 -67 24c-28 16 -47 24 -57 24c-19 0 -37 -18 -54 -54l-30 31c16 40 45 71 82 71c16 0 38 -8 67 -24s48 -24 57 -24c19 0 37 18 54 53z" />
    <glyph glyph-name="Ograve" unicode="&#xd2;" horiz-adv-x="787" 
d="M395 -10c-105 0 -188 32 -249 96s-91 146 -91 245c0 95 33 176 99 242c67 66 147 99 241 99c97 0 177 -33 241 -99c64 -65 96 -146 96 -242c0 -97 -32 -178 -96 -243c-63 -65 -144 -98 -241 -98zM116 331c0 -84 25 -153 75 -207c51 -54 119 -81 204 -81
c83 0 150 28 201 83c52 56 78 124 78 205s-26 149 -79 204c-52 56 -119 84 -200 84s-148 -28 -201 -83c-52 -55 -78 -124 -78 -205zM329 870l121 -137h-51l-137 119z" />
    <glyph glyph-name="Oacute" unicode="&#xd3;" horiz-adv-x="787" 
d="M395 -10c-105 0 -188 32 -249 96s-91 146 -91 245c0 95 33 176 99 242c67 66 147 99 241 99c97 0 177 -33 241 -99c64 -65 96 -146 96 -242c0 -97 -32 -178 -96 -243c-63 -65 -144 -98 -241 -98zM116 331c0 -84 25 -153 75 -207c51 -54 119 -81 204 -81
c83 0 150 28 201 83c52 56 78 124 78 205s-26 149 -79 204c-52 56 -119 84 -200 84s-148 -28 -201 -83c-52 -55 -78 -124 -78 -205zM548 852l-137 -119h-51l121 137z" />
    <glyph glyph-name="Ocircumflex" unicode="&#xd4;" horiz-adv-x="787" 
d="M405 861l135 -133h-68l-76 71l-80 -71h-67l140 133h16zM395 -10c-105 0 -188 32 -249 96s-91 146 -91 245c0 95 33 176 99 242c67 66 147 99 241 99c97 0 177 -33 241 -99c64 -65 96 -146 96 -242c0 -97 -32 -178 -96 -243c-63 -65 -144 -98 -241 -98zM116 331
c0 -84 25 -153 75 -207c51 -54 119 -81 204 -81c83 0 150 28 201 83c52 56 78 124 78 205s-26 149 -79 204c-52 56 -119 84 -200 84s-148 -28 -201 -83c-52 -55 -78 -124 -78 -205z" />
    <glyph glyph-name="Otilde" unicode="&#xd5;" horiz-adv-x="787" 
d="M395 -10c-105 0 -188 32 -249 96s-91 146 -91 245c0 95 33 176 99 242c67 66 147 99 241 99c97 0 177 -33 241 -99c64 -65 96 -146 96 -242c0 -97 -32 -178 -96 -243c-63 -65 -144 -98 -241 -98zM116 331c0 -84 25 -153 75 -207c51 -54 119 -81 204 -81
c83 0 150 28 201 83c52 56 78 124 78 205s-26 149 -79 204c-52 56 -119 84 -200 84s-148 -28 -201 -83c-52 -55 -78 -124 -78 -205zM516 861l28 -31c-17 -47 -44 -70 -80 -70c-16 0 -38 8 -67 24c-28 16 -47 24 -57 24c-19 0 -37 -18 -54 -54l-30 31c16 40 45 71 82 71
c16 0 38 -8 67 -24s48 -24 57 -24c19 0 37 18 54 53z" />
    <glyph glyph-name="Odieresis" unicode="&#xd6;" horiz-adv-x="787" 
d="M395 -10c-105 0 -188 32 -249 96s-91 146 -91 245c0 95 33 176 99 242c67 66 147 99 241 99c97 0 177 -33 241 -99c64 -65 96 -146 96 -242c0 -97 -32 -178 -96 -243c-63 -65 -144 -98 -241 -98zM116 331c0 -84 25 -153 75 -207c51 -54 119 -81 204 -81
c83 0 150 28 201 83c52 56 78 124 78 205s-26 149 -79 204c-52 56 -119 84 -200 84s-148 -28 -201 -83c-52 -55 -78 -124 -78 -205zM306 758c-23 0 -38 16 -38 37c0 19 18 37 38 37c47 0 47 -74 0 -74zM502 795c6 -49 -80 -49 -74 0c0 19 17 37 37 37c21 0 37 -16 37 -37z
" />
    <glyph glyph-name="multiply" unicode="&#xd7;" 
d="M389 142l-117 117l-120 -120l-33 33l120 120l-118 118l32 32l118 -118l116 117l33 -34l-116 -116l117 -117z" />
    <glyph glyph-name="Oslash" unicode="&#xd8;" horiz-adv-x="787" 
d="M395 -10c-76 0 -142 18 -198 54l-35 -44h-56l56 70c-71 63 -107 150 -107 261c0 95 33 176 99 242c67 66 147 99 241 99c73 0 139 -20 197 -61l41 51h55l-63 -79c71 -66 107 -150 107 -252c0 -97 -32 -178 -96 -243c-63 -65 -144 -98 -241 -98zM395 619
c-81 0 -148 -28 -201 -83c-52 -55 -78 -124 -78 -205c0 -90 28 -162 83 -215l359 452c-47 34 -101 51 -163 51zM674 331c0 83 -28 152 -83 209l-359 -451c47 -31 101 -46 163 -46c83 0 150 28 201 83c52 56 78 124 78 205z" />
    <glyph glyph-name="Ugrave" unicode="&#xd9;" horiz-adv-x="676" 
d="M534 246v416h57v-422c0 -74 -23 -134 -68 -181c-45 -46 -106 -69 -185 -69s-141 23 -186 68c-45 46 -67 107 -67 184v420h57v-412c0 -120 65 -206 196 -206c129 0 196 81 196 202zM274 870l121 -137h-51l-137 119z" />
    <glyph glyph-name="Uacute" unicode="&#xda;" horiz-adv-x="676" 
d="M534 246v416h57v-422c0 -74 -23 -134 -68 -181c-45 -46 -106 -69 -185 -69s-141 23 -186 68c-45 46 -67 107 -67 184v420h57v-412c0 -120 65 -206 196 -206c129 0 196 81 196 202zM477 852l-137 -119h-51l121 137z" />
    <glyph glyph-name="Ucircumflex" unicode="&#xdb;" horiz-adv-x="676" 
d="M352 861l135 -133h-68l-76 71l-80 -71h-67l140 133h16zM534 246v416h57v-422c0 -74 -23 -134 -68 -181c-45 -46 -106 -69 -185 -69s-141 23 -186 68c-45 46 -67 107 -67 184v420h57v-412c0 -120 65 -206 196 -206c129 0 196 81 196 202z" />
    <glyph glyph-name="Udieresis" unicode="&#xdc;" horiz-adv-x="676" 
d="M259 758c-23 0 -38 16 -38 37c0 19 18 37 38 37c47 0 47 -74 0 -74zM455 795c0 -49 -74 -49 -74 0c0 19 17 37 37 37c21 0 37 -16 37 -37zM534 246v416h57v-422c0 -74 -23 -134 -68 -181c-45 -46 -106 -69 -185 -69s-141 23 -186 68c-45 46 -67 107 -67 184v420h57v-412
c0 -120 65 -206 196 -206c129 0 196 81 196 202z" />
    <glyph glyph-name="Yacute" unicode="&#xdd;" 
d="M75 662l204 -311h4l186 311h61l-221 -367v-295h-58v295l-241 367h65zM417 845l-137 -119h-51l121 137z" />
    <glyph glyph-name="Thorn" unicode="&#xde;" horiz-adv-x="563" 
d="M143 156v-156h-58v662h58v-103h182c61 0 111 -19 150 -57c39 -37 58 -85 58 -142c0 -39 -13 -82 -44 -127c-29 -45 -92 -77 -172 -77h-174zM312 507h-169v-300h170c97 0 162 60 162 149c0 63 -39 151 -163 151z" />
    <glyph glyph-name="germandbls" unicode="&#xdf;" horiz-adv-x="556" 
d="M122 509v-509h-57v508c0 129 78 216 203 216c56 0 101 -16 136 -48c35 -31 53 -72 53 -122c0 -10 -1 -22 -4 -35s-11 -29 -24 -49c-13 -19 -30 -35 -51 -46v-5c77 -24 133 -103 133 -199c0 -62 -20 -116 -61 -162c-41 -45 -94 -68 -160 -68c-19 0 -40 3 -63 8v49
c23 -5 43 -8 60 -8c49 0 89 17 120 50c31 34 47 79 47 134c0 117 -78 171 -182 171v47c44 0 76 12 96 36c21 24 31 50 31 78c0 76 -60 122 -129 122c-127 0 -148 -104 -148 -168z" />
    <glyph glyph-name="agrave" unicode="&#xe0;" horiz-adv-x="495" 
d="M376 0l-10 57l-5 1c-40 -45 -92 -68 -155 -68c-57 0 -98 13 -123 40s-37 56 -37 88c0 98 69 147 206 147h112v24c0 79 -43 118 -129 118c-45 0 -94 -14 -145 -43v52c40 24 105 39 148 39c128 0 182 -59 182 -174v-281h-44zM364 188v33h-118c-95 0 -142 -33 -142 -98
c0 -55 50 -85 115 -85c93 0 145 63 145 150zM192 682l104 -151h-47l-120 133z" />
    <glyph glyph-name="aacute" unicode="&#xe1;" horiz-adv-x="495" 
d="M376 0l-10 57l-5 1c-40 -45 -92 -68 -155 -68c-57 0 -98 13 -123 40s-37 56 -37 88c0 98 69 147 206 147h112v24c0 79 -43 118 -129 118c-45 0 -94 -14 -145 -43v52c40 24 105 39 148 39c128 0 182 -59 182 -174v-281h-44zM364 188v33h-118c-95 0 -142 -33 -142 -98
c0 -55 50 -85 115 -85c93 0 145 63 145 150zM372 664l-120 -133h-47l104 151z" />
    <glyph glyph-name="acircumflex" unicode="&#xe2;" horiz-adv-x="495" 
d="M376 0l-10 57l-5 1c-40 -45 -92 -68 -155 -68c-57 0 -98 13 -123 40s-37 56 -37 88c0 98 69 147 206 147h112v24c0 79 -43 118 -129 118c-45 0 -94 -14 -145 -43v52c40 24 105 39 148 39c128 0 182 -59 182 -174v-281h-44zM364 188v33h-118c-95 0 -142 -33 -142 -98
c0 -55 50 -85 115 -85c93 0 145 63 145 150zM258 672l132 -143h-66l-77 82l-79 -82h-63l137 143h16z" />
    <glyph glyph-name="atilde" unicode="&#xe3;" horiz-adv-x="495" 
d="M376 0l-10 57l-5 1c-40 -45 -92 -68 -155 -68c-57 0 -98 13 -123 40s-37 56 -37 88c0 98 69 147 206 147h112v24c0 79 -43 118 -129 118c-45 0 -94 -14 -145 -43v52c40 24 105 39 148 39c128 0 182 -59 182 -174v-281h-44zM364 188v33h-118c-95 0 -142 -33 -142 -98
c0 -55 50 -85 115 -85c93 0 145 63 145 150zM362 647l28 -31c-17 -47 -44 -70 -80 -70c-16 0 -38 8 -67 24c-28 16 -47 24 -57 24c-19 0 -37 -18 -54 -54l-30 31c16 40 45 71 82 71c16 0 38 -8 67 -24s48 -24 57 -24c19 0 37 18 54 53z" />
    <glyph glyph-name="adieresis" unicode="&#xe4;" horiz-adv-x="495" 
d="M376 0l-10 57l-5 1c-40 -45 -92 -68 -155 -68c-57 0 -98 13 -123 40s-37 56 -37 88c0 98 69 147 206 147h112v24c0 79 -43 118 -129 118c-45 0 -94 -14 -145 -43v52c40 24 105 39 148 39c128 0 182 -59 182 -174v-281h-44zM364 188v33h-118c-95 0 -142 -33 -142 -98
c0 -55 50 -85 115 -85c93 0 145 63 145 150zM169 549c-23 0 -38 16 -38 37c0 19 18 37 38 37c47 0 47 -74 0 -74zM291 586c0 19 17 37 37 37c32 0 50 -40 26 -64c-22 -22 -63 -5 -63 27z" />
    <glyph glyph-name="aring" unicode="&#xe5;" horiz-adv-x="495" 
d="M376 0l-10 57l-5 1c-40 -45 -92 -68 -155 -68c-57 0 -98 13 -123 40s-37 56 -37 88c0 98 69 147 206 147h112v24c0 79 -43 118 -129 118c-45 0 -94 -14 -145 -43v52c40 24 105 39 148 39c128 0 182 -59 182 -174v-281h-44zM364 188v33h-118c-95 0 -142 -33 -142 -98
c0 -55 50 -85 115 -85c93 0 145 63 145 150zM249 524c-53 0 -87 36 -87 85s39 88 87 88c51 0 88 -37 88 -88c0 -48 -37 -85 -88 -85zM249 663c-29 0 -51 -25 -51 -54s20 -52 51 -52c32 0 52 24 52 52c0 31 -21 54 -52 54z" />
    <glyph glyph-name="ae" unicode="&#xe6;" horiz-adv-x="817" 
d="M753 97v-57c-43 -33 -99 -50 -167 -50c-91 0 -167 47 -198 119c-37 -80 -101 -120 -193 -120c-58 0 -100 14 -126 41s-39 57 -39 88c0 98 73 147 219 147h103v25c0 79 -43 118 -128 118c-45 0 -93 -14 -146 -43v52c41 24 106 39 149 39c88 0 144 -30 168 -90
c43 60 101 90 174 90c128 0 203 -89 203 -217v-18h-360c1 -53 18 -97 51 -131s73 -51 120 -51c65 0 121 19 170 58zM352 195v26h-98c-111 0 -166 -33 -166 -98c0 -55 48 -85 119 -85c93 0 145 68 145 157zM570 406c-88 0 -148 -51 -157 -142h305c-8 91 -61 142 -148 142z
" />
    <glyph glyph-name="ccedilla" unicode="&#xe7;" horiz-adv-x="432" 
d="M354 -128c0 -51 -48 -89 -116 -89c-27 0 -54 6 -82 17v42c27 -12 54 -18 81 -18c41 0 64 18 64 43c0 29 -29 43 -64 43c-13 0 -23 -1 -31 -4l-19 12l35 77c-112 20 -172 107 -172 223c0 67 22 123 65 168c43 46 98 69 163 69c45 0 82 -7 111 -20v-54
c-28 17 -63 26 -104 26c-50 0 -92 -17 -126 -51s-51 -80 -51 -138c0 -107 68 -179 176 -179c51 0 92 11 123 34v-54c-33 -19 -78 -29 -133 -29h-13l-20 -41c80 -1 113 -36 113 -77z" />
    <glyph glyph-name="egrave" unicode="&#xe8;" horiz-adv-x="519" 
d="M450 97v-57c-44 -33 -100 -50 -168 -50c-71 0 -128 21 -170 63c-41 43 -62 100 -62 171c0 65 21 120 62 164c41 45 93 67 154 67c63 0 113 -22 149 -65s54 -97 54 -162c0 -9 0 -16 -1 -20h-359c1 -52 18 -93 50 -124c33 -30 73 -45 120 -45c65 0 122 19 171 58zM267 405
c-88 0 -148 -59 -157 -151h305c-9 92 -64 151 -148 151zM209 682l104 -151h-47l-120 133z" />
    <glyph glyph-name="eacute" unicode="&#xe9;" horiz-adv-x="519" 
d="M450 97v-57c-44 -33 -100 -50 -168 -50c-71 0 -128 21 -170 63c-41 43 -62 100 -62 171c0 65 21 120 62 164c41 45 93 67 154 67c63 0 113 -22 149 -65s54 -97 54 -162c0 -9 0 -16 -1 -20h-359c1 -52 18 -93 50 -124c33 -30 73 -45 120 -45c65 0 122 19 171 58zM267 405
c-88 0 -148 -59 -157 -151h305c-9 92 -64 151 -148 151zM385 664l-120 -133h-47l104 151z" />
    <glyph glyph-name="ecircumflex" unicode="&#xea;" horiz-adv-x="519" 
d="M450 97v-57c-44 -33 -100 -50 -168 -50c-71 0 -128 21 -170 63c-41 43 -62 100 -62 171c0 65 21 120 62 164c41 45 93 67 154 67c63 0 113 -22 149 -65s54 -97 54 -162c0 -9 0 -16 -1 -20h-359c1 -52 18 -93 50 -124c33 -30 73 -45 120 -45c65 0 122 19 171 58zM267 405
c-88 0 -148 -59 -157 -151h305c-9 92 -64 151 -148 151zM278 672l132 -143h-66l-77 82l-79 -82h-63l137 143h16z" />
    <glyph glyph-name="edieresis" unicode="&#xeb;" horiz-adv-x="519" 
d="M450 97v-57c-44 -33 -100 -50 -168 -50c-71 0 -128 21 -170 63c-41 43 -62 100 -62 171c0 65 21 120 62 164c41 45 93 67 154 67c63 0 113 -22 149 -65s54 -97 54 -162c0 -9 0 -16 -1 -20h-359c1 -52 18 -93 50 -124c33 -30 73 -45 120 -45c65 0 122 19 171 58zM267 405
c-88 0 -148 -59 -157 -151h305c-9 92 -64 151 -148 151zM186 549c-23 0 -38 16 -38 37c0 19 18 37 38 37c47 0 47 -74 0 -74zM308 586c0 19 17 37 37 37c33 0 49 -40 27 -64c-21 -22 -68 -6 -64 27z" />
    <glyph glyph-name="igrave" unicode="&#xec;" horiz-adv-x="227" 
d="M141 445v-445h-57v445h57zM45 682l104 -151h-47l-120 133z" />
    <glyph glyph-name="iacute" unicode="&#xed;" horiz-adv-x="227" 
d="M141 445v-445h-57v445h57zM245 664l-120 -133h-47l104 151z" />
    <glyph glyph-name="icircumflex" unicode="&#xee;" horiz-adv-x="227" 
d="M123 672l132 -143h-66l-77 82l-79 -82h-63l137 143h16zM141 445v-445h-57v445h57z" />
    <glyph glyph-name="idieresis" unicode="&#xef;" horiz-adv-x="227" 
d="M36 549c-23 0 -38 16 -38 37c0 19 18 37 38 37c47 0 47 -74 0 -74zM158 586c0 19 17 37 37 37c33 0 49 -40 27 -64c-21 -22 -68 -6 -64 27zM141 445v-445h-57v445h57z" />
    <glyph glyph-name="eth" unicode="&#xf0;" horiz-adv-x="550" 
d="M237 494v48l67 46c-37 35 -81 66 -130 93l45 28c48 -26 91 -57 128 -92l103 69v-53l-72 -48c85 -99 127 -208 127 -329c0 -45 -8 -87 -23 -126c-29 -77 -105 -140 -209 -140c-71 0 -126 21 -167 63s-61 96 -61 161c0 64 22 118 65 161c44 43 98 65 162 65
c68 0 135 -31 170 -92l3 1c-15 74 -52 143 -110 208zM273 391c-51 0 -92 -17 -124 -51c-31 -33 -47 -75 -47 -126s15 -93 46 -127c31 -33 72 -50 125 -50s94 18 124 53c30 36 45 78 45 125c0 49 -16 91 -47 125s-72 51 -122 51z" />
    <glyph glyph-name="ntilde" unicode="&#xf1;" horiz-adv-x="535" 
d="M460 266v-266h-57v255c0 93 -41 150 -116 150c-89 0 -155 -60 -155 -175v-230h-57v445h44l9 -67h4c42 51 95 77 158 77c109 0 170 -69 170 -189zM373 645l28 -31c-17 -47 -44 -70 -80 -70c-16 0 -38 8 -67 24c-28 16 -47 24 -57 24c-19 0 -37 -18 -54 -54l-30 31
c16 40 45 71 82 71c16 0 38 -8 67 -24s48 -24 57 -24c19 0 37 18 54 53z" />
    <glyph glyph-name="ograve" unicode="&#xf2;" horiz-adv-x="560" 
d="M281 -10c-71 0 -127 22 -169 66c-41 44 -62 100 -62 167c0 65 22 119 67 164s100 68 164 68c66 0 121 -22 164 -67s65 -100 65 -165c0 -66 -22 -121 -66 -166c-43 -45 -98 -67 -163 -67zM281 407c-51 0 -92 -18 -125 -54c-32 -35 -48 -79 -48 -130c0 -53 15 -98 46 -133
s74 -52 127 -52c52 0 94 18 125 53c31 36 47 80 47 132c0 51 -16 95 -48 130c-31 36 -73 54 -124 54zM223 682l104 -151h-47l-120 133z" />
    <glyph glyph-name="oacute" unicode="&#xf3;" horiz-adv-x="560" 
d="M281 -10c-71 0 -127 22 -169 66c-41 44 -62 100 -62 167c0 65 22 119 67 164s100 68 164 68c66 0 121 -22 164 -67s65 -100 65 -165c0 -66 -22 -121 -66 -166c-43 -45 -98 -67 -163 -67zM281 407c-51 0 -92 -18 -125 -54c-32 -35 -48 -79 -48 -130c0 -53 15 -98 46 -133
s74 -52 127 -52c52 0 94 18 125 53c31 36 47 80 47 132c0 51 -16 95 -48 130c-31 36 -73 54 -124 54zM418 664l-120 -133h-47l104 151z" />
    <glyph glyph-name="ocircumflex" unicode="&#xf4;" horiz-adv-x="560" 
d="M296 672l132 -143h-66l-77 82l-79 -82h-63l137 143h16zM281 -10c-71 0 -127 22 -169 66c-41 44 -62 100 -62 167c0 65 22 119 67 164s100 68 164 68c66 0 121 -22 164 -67s65 -100 65 -165c0 -66 -22 -121 -66 -166c-43 -45 -98 -67 -163 -67zM281 407
c-51 0 -92 -18 -125 -54c-32 -35 -48 -79 -48 -130c0 -53 15 -98 46 -133s74 -52 127 -52c52 0 94 18 125 53c31 36 47 80 47 132c0 51 -16 95 -48 130c-31 36 -73 54 -124 54z" />
    <glyph glyph-name="otilde" unicode="&#xf5;" horiz-adv-x="560" 
d="M281 -10c-71 0 -127 22 -169 66c-41 44 -62 100 -62 167c0 65 22 119 67 164s100 68 164 68c66 0 121 -22 164 -67s65 -100 65 -165c0 -66 -22 -121 -66 -166c-43 -45 -98 -67 -163 -67zM281 407c-51 0 -92 -18 -125 -54c-32 -35 -48 -79 -48 -130c0 -53 15 -98 46 -133
s74 -52 127 -52c52 0 94 18 125 53c31 36 47 80 47 132c0 51 -16 95 -48 130c-31 36 -73 54 -124 54zM399 645l28 -31c-17 -47 -44 -70 -80 -70c-16 0 -38 8 -67 24c-28 16 -47 24 -57 24c-19 0 -37 -18 -54 -54l-30 31c16 40 45 71 82 71c16 0 38 -8 67 -24s48 -24 57 -24
c19 0 37 18 54 53z" />
    <glyph glyph-name="odieresis" unicode="&#xf6;" horiz-adv-x="560" 
d="M281 -10c-71 0 -127 22 -169 66c-41 44 -62 100 -62 167c0 65 22 119 67 164s100 68 164 68c66 0 121 -22 164 -67s65 -100 65 -165c0 -66 -22 -121 -66 -166c-43 -45 -98 -67 -163 -67zM281 407c-51 0 -92 -18 -125 -54c-32 -35 -48 -79 -48 -130c0 -53 15 -98 46 -133
s74 -52 127 -52c52 0 94 18 125 53c31 36 47 80 47 132c0 51 -16 95 -48 130c-31 36 -73 54 -124 54zM198 549c-23 0 -38 16 -38 37c0 19 18 37 38 37c47 0 47 -74 0 -74zM320 586c0 19 17 37 37 37c33 0 49 -40 27 -64c-21 -22 -68 -6 -64 27z" />
    <glyph glyph-name="divide" unicode="&#xf7;" 
d="M271 388c-24 0 -44 20 -44 44s19 43 43 43c25 0 44 -19 44 -43s-20 -44 -43 -44zM458 323v-47h-376v47h376zM271 120c-24 0 -44 21 -44 44c0 24 19 42 43 42c25 0 44 -18 44 -42s-20 -44 -43 -44z" />
    <glyph glyph-name="oslash" unicode="&#xf8;" horiz-adv-x="550" 
d="M276 -10c-55 0 -101 14 -140 41l-28 -31h-54l52 57c-41 43 -61 98 -61 166c0 65 22 119 67 164s100 68 164 68c55 0 103 -16 143 -49l34 38h53l-58 -65c38 -43 57 -95 57 -156c0 -66 -22 -121 -66 -166c-43 -45 -98 -67 -163 -67zM276 407c-51 0 -92 -18 -125 -54
c-32 -35 -48 -79 -48 -130c0 -49 13 -91 39 -125l243 270c-31 26 -68 39 -109 39zM448 223c0 44 -12 83 -36 116l-241 -269c29 -21 64 -32 105 -32c52 0 94 18 125 53c31 36 47 80 47 132z" />
    <glyph glyph-name="ugrave" unicode="&#xf9;" horiz-adv-x="521" 
d="M75 172v273h56v-261c0 -95 37 -143 110 -143c88 0 148 59 148 174v230h57v-445h-44l-10 64c-1 1 -2 1 -3 1c-41 -50 -91 -75 -148 -75c-111 0 -166 61 -166 182zM202 682l104 -151h-47l-120 133z" />
    <glyph glyph-name="uacute" unicode="&#xfa;" horiz-adv-x="521" 
d="M75 172v273h56v-261c0 -95 37 -143 110 -143c88 0 148 59 148 174v230h57v-445h-44l-10 64c-1 1 -2 1 -3 1c-41 -50 -91 -75 -148 -75c-111 0 -166 61 -166 182zM390 664l-120 -133h-47l104 151z" />
    <glyph glyph-name="ucircumflex" unicode="&#xfb;" horiz-adv-x="521" 
d="M274 672l132 -143h-66l-77 82l-79 -82h-63l137 143h16zM75 172v273h56v-261c0 -95 37 -143 110 -143c88 0 148 59 148 174v230h57v-445h-44l-10 64c-1 1 -2 1 -3 1c-41 -50 -91 -75 -148 -75c-111 0 -166 61 -166 182z" />
    <glyph glyph-name="udieresis" unicode="&#xfc;" horiz-adv-x="521" 
d="M75 172v273h56v-261c0 -95 37 -143 110 -143c88 0 148 59 148 174v230h57v-445h-44l-10 64c-1 1 -2 1 -3 1c-41 -50 -91 -75 -148 -75c-111 0 -166 61 -166 182zM180 549c-23 0 -38 16 -38 37c0 19 18 37 38 37c47 0 47 -74 0 -74zM302 586c0 19 17 37 37 37
c33 0 49 -40 27 -64c-21 -22 -68 -6 -64 27z" />
    <glyph glyph-name="yacute" unicode="&#xfd;" horiz-adv-x="442" 
d="M72 445l149 -364h6l149 364h56l-274 -660h-59l95 230l-184 430h62zM359 661l-120 -133h-47l104 151z" />
    <glyph glyph-name="thorn" unicode="&#xfe;" horiz-adv-x="568" 
d="M125 68l-5 -3v-280h-55v926h56v-336l5 -1c39 52 103 81 170 81c70 0 125 -22 166 -65s61 -98 61 -167c0 -65 -22 -121 -67 -166s-99 -67 -163 -67c-67 0 -133 29 -168 78zM292 39c51 0 92 18 124 53c33 35 49 79 49 131c0 53 -16 97 -47 132s-73 53 -126 53
c-52 0 -94 -18 -126 -54c-31 -36 -47 -80 -47 -131c0 -52 16 -96 48 -131s74 -53 125 -53z" />
    <glyph glyph-name="ydieresis" unicode="&#xff;" horiz-adv-x="442" 
d="M72 445l149 -364h6l149 364h56l-274 -660h-59l95 230l-184 430h62zM151 537c-23 0 -38 16 -38 37c0 19 18 37 38 37c47 0 47 -74 0 -74zM273 574c0 19 17 37 37 37c32 0 50 -40 26 -64c-22 -22 -63 -5 -63 27z" />
    <glyph glyph-name="Amacron" unicode="&#x100;" horiz-adv-x="612" 
d="M597 0h-60l-68 161h-327l-68 -161h-59l285 667h14zM307 543h-4l-140 -333h285zM446 762h-279v51h279v-51z" />
    <glyph glyph-name="amacron" unicode="&#x101;" horiz-adv-x="495" 
d="M376 0l-10 57l-5 1c-40 -45 -92 -68 -155 -68c-57 0 -98 13 -123 40s-37 56 -37 88c0 98 69 147 206 147h112v24c0 79 -43 118 -129 118c-45 0 -94 -14 -145 -43v52c40 24 105 39 148 39c128 0 182 -59 182 -174v-281h-44zM364 188v33h-118c-95 0 -142 -33 -142 -98
c0 -55 50 -85 115 -85c93 0 145 63 145 150zM377 552h-264v48h264v-48z" />
    <glyph glyph-name="Abreve" unicode="&#x102;" horiz-adv-x="612" 
d="M597 0h-60l-68 161h-327l-68 -161h-59l285 667h14zM307 543h-4l-140 -333h285zM389 858h47c-3 -75 -49 -135 -129 -135c-76 0 -123 59 -126 135h47c0 -53 30 -95 78 -95c51 0 79 32 83 95z" />
    <glyph glyph-name="abreve" unicode="&#x103;" horiz-adv-x="495" 
d="M376 0l-10 57l-5 1c-40 -45 -92 -68 -155 -68c-57 0 -98 13 -123 40s-37 56 -37 88c0 98 69 147 206 147h112v24c0 79 -43 118 -129 118c-45 0 -94 -14 -145 -43v52c40 24 105 39 148 39c128 0 182 -59 182 -174v-281h-44zM364 188v33h-118c-95 0 -142 -33 -142 -98
c0 -55 50 -85 115 -85c93 0 145 63 145 150zM325 672h47c-3 -75 -49 -135 -129 -135c-76 0 -123 59 -126 135h47c0 -53 30 -95 78 -95c51 0 79 32 83 95z" />
    <glyph glyph-name="Aogonek" unicode="&#x104;" horiz-adv-x="612" 
d="M314 667l283 -667h-56c-52 -41 -82 -92 -82 -128c0 -31 15 -46 46 -46s64 11 99 34l-5 -45c-33 -20 -69 -30 -108 -30c-57 0 -85 25 -85 75c0 12 3 26 8 41c11 31 51 84 114 120l-59 140h-327l-68 -161h-59l285 667h14zM307 543h-4l-140 -333h285z" />
    <glyph glyph-name="aogonek" unicode="&#x105;" horiz-adv-x="495" 
d="M374 12l-8 45l-5 1c-40 -45 -92 -68 -155 -68c-57 0 -98 13 -123 40s-37 56 -37 88c0 98 69 147 206 147h112v24c0 79 -43 118 -129 118c-45 0 -94 -14 -145 -43v52c40 24 105 39 148 39c128 0 182 -59 182 -174v-281h-18c-55 -41 -86 -95 -86 -131c0 -31 15 -46 46 -46
s64 11 99 34l-5 -45c-33 -20 -69 -30 -108 -30c-57 0 -85 25 -85 75c0 39 30 104 111 155zM364 188v33h-118c-95 0 -142 -33 -142 -98c0 -55 50 -85 115 -85c93 0 145 63 145 150z" />
    <glyph glyph-name="Cacute" unicode="&#x106;" horiz-adv-x="611" 
d="M586 96v-57c-49 -31 -130 -48 -195 -48c-105 0 -188 31 -247 94s-89 144 -89 242c0 99 33 182 98 247c65 66 146 99 242 99c72 0 127 -10 165 -31v-57c-49 24 -103 36 -160 36c-80 0 -147 -27 -202 -80s-82 -125 -82 -214c0 -86 25 -155 74 -207c49 -51 118 -77 207 -77
c64 0 127 18 189 53zM502 852l-137 -119h-51l121 137z" />
    <glyph glyph-name="cacute" unicode="&#x107;" horiz-adv-x="432" 
d="M407 73v-54c-33 -19 -78 -29 -133 -29c-72 0 -127 21 -166 64s-58 97 -58 164s22 123 65 168c43 46 98 69 163 69c45 0 82 -7 111 -20v-54c-28 17 -63 26 -104 26c-50 0 -92 -17 -126 -51s-51 -80 -51 -138c0 -107 68 -179 176 -179c51 0 92 11 123 34zM371 664
l-120 -133h-47l104 151z" />
    <glyph glyph-name="Ccircumflex" unicode="&#x108;" horiz-adv-x="611" 
d="M393 861l135 -133h-68l-76 71l-80 -71h-67l140 133h16zM586 96v-57c-49 -31 -130 -48 -195 -48c-105 0 -188 31 -247 94s-89 144 -89 242c0 99 33 182 98 247c65 66 146 99 242 99c72 0 127 -10 165 -31v-57c-49 24 -103 36 -160 36c-80 0 -147 -27 -202 -80
s-82 -125 -82 -214c0 -86 25 -155 74 -207c49 -51 118 -77 207 -77c64 0 127 18 189 53z" />
    <glyph glyph-name="ccircumflex" unicode="&#x109;" horiz-adv-x="432" 
d="M267 672l132 -143h-66l-77 82l-79 -82h-63l137 143h16zM407 73v-54c-33 -19 -78 -29 -133 -29c-72 0 -127 21 -166 64s-58 97 -58 164s22 123 65 168c43 46 98 69 163 69c45 0 82 -7 111 -20v-54c-28 17 -63 26 -104 26c-50 0 -92 -17 -126 -51s-51 -80 -51 -138
c0 -107 68 -179 176 -179c51 0 92 11 123 34z" />
    <glyph glyph-name="Cdotaccent" unicode="&#x10a;" horiz-adv-x="611" 
d="M586 96v-57c-49 -31 -130 -48 -195 -48c-105 0 -188 31 -247 94s-89 144 -89 242c0 99 33 182 98 247c65 66 146 99 242 99c72 0 127 -10 165 -31v-57c-49 24 -103 36 -160 36c-80 0 -147 -27 -202 -80s-82 -125 -82 -214c0 -86 25 -155 74 -207c49 -51 118 -77 207 -77
c64 0 127 18 189 53zM332 799c0 20 18 39 39 39s38 -16 38 -39c5 -50 -81 -50 -77 0z" />
    <glyph glyph-name="cdotaccent" unicode="&#x10b;" horiz-adv-x="432" 
d="M407 73v-54c-33 -19 -78 -29 -133 -29c-72 0 -127 21 -166 64s-58 97 -58 164s22 123 65 168c43 46 98 69 163 69c45 0 82 -7 111 -20v-54c-28 17 -63 26 -104 26c-50 0 -92 -17 -126 -51s-51 -80 -51 -138c0 -107 68 -179 176 -179c51 0 92 11 123 34zM222 589
c0 20 18 39 39 39s38 -16 38 -39c5 -50 -81 -50 -77 0z" />
    <glyph glyph-name="Ccaron" unicode="&#x10c;" horiz-adv-x="611" 
d="M373 783l78 78h66l-135 -133h-16l-140 133h67zM586 96v-57c-49 -31 -130 -48 -195 -48c-105 0 -188 31 -247 94s-89 144 -89 242c0 99 33 182 98 247c65 66 146 99 242 99c72 0 127 -10 165 -31v-57c-49 24 -103 36 -160 36c-80 0 -147 -27 -202 -80s-82 -125 -82 -214
c0 -86 25 -155 74 -207c49 -51 118 -77 207 -77c64 0 127 18 189 53z" />
    <glyph glyph-name="ccaron" unicode="&#x10d;" horiz-adv-x="432" 
d="M262 591l76 81h65l-132 -143h-16l-137 143h63zM407 73v-54c-33 -19 -78 -29 -133 -29c-72 0 -127 21 -166 64s-58 97 -58 164s22 123 65 168c43 46 98 69 163 69c45 0 82 -7 111 -20v-54c-28 17 -63 26 -104 26c-50 0 -92 -17 -126 -51s-51 -80 -51 -138
c0 -107 68 -179 176 -179c51 0 92 11 123 34z" />
    <glyph glyph-name="Dcaron" unicode="&#x10e;" horiz-adv-x="680" 
d="M304 783l78 78h66l-135 -133h-16l-140 133h67zM567 332c0 81 -22 148 -66 200c-43 52 -108 78 -194 78h-164v-557h169c168 0 255 110 255 279zM316 0h-231v662h221c97 0 174 -30 232 -90c58 -59 87 -139 87 -238c0 -100 -28 -181 -83 -242s-131 -92 -226 -92z" />
    <glyph glyph-name="dcaron" unicode="&#x10f;" horiz-adv-x="615" 
d="M448 378l4 2v331h55v-711h-45l-10 71l-4 1c-40 -55 -96 -82 -169 -82c-70 0 -126 22 -167 65s-62 99 -62 168c0 65 22 120 66 165c45 45 99 67 164 67c67 0 133 -29 168 -77zM281 407c-51 0 -92 -18 -125 -54c-32 -35 -48 -79 -48 -130c0 -53 15 -98 46 -133
s74 -52 127 -52c52 0 94 18 125 53c31 36 47 80 47 132c0 51 -16 95 -48 130c-31 36 -73 54 -124 54zM565 680c-3 52 85 54 81 1c0 -33 -20 -85 -59 -155l-31 5l34 113c-17 5 -25 17 -25 36z" />
    <glyph glyph-name="Dcroat" unicode="&#x110;" horiz-adv-x="680" 
d="M316 0h-231v318h-63v51h63v293h221c97 0 174 -30 232 -90c58 -59 87 -139 87 -238c0 -100 -28 -181 -83 -242s-131 -92 -226 -92zM567 332c0 81 -22 148 -66 200c-43 52 -108 78 -194 78h-164v-241h219v-51h-219v-265h169c168 0 255 110 255 279z" />
    <glyph glyph-name="dslash" unicode="&#x111;" horiz-adv-x="572" 
d="M448 378l4 2v183h-200v42h200v106h55v-106h59v-42h-59v-563h-45l-10 71l-4 1c-40 -55 -96 -82 -169 -82c-70 0 -126 22 -167 65s-62 99 -62 168c0 65 22 120 66 165c45 45 99 67 164 67c67 0 133 -29 168 -77zM281 407c-51 0 -92 -18 -125 -54c-32 -35 -48 -79 -48 -130
c0 -53 15 -98 46 -133s74 -52 127 -52c52 0 94 18 125 53c31 36 47 80 47 132c0 51 -16 95 -48 130c-31 36 -73 54 -124 54z" />
    <glyph glyph-name="Emacron" unicode="&#x112;" horiz-adv-x="556" 
d="M144 53h382v-53h-441v662h414v-52h-355v-234h330v-52h-330v-271zM441 767h-279v51h279v-51z" />
    <glyph glyph-name="emacron" unicode="&#x113;" horiz-adv-x="519" 
d="M450 97v-57c-44 -33 -100 -50 -168 -50c-71 0 -128 21 -170 63c-41 43 -62 100 -62 171c0 65 21 120 62 164c41 45 93 67 154 67c63 0 113 -22 149 -65s54 -97 54 -162c0 -9 0 -16 -1 -20h-359c1 -52 18 -93 50 -124c33 -30 73 -45 120 -45c65 0 122 19 171 58zM267 405
c-88 0 -148 -59 -157 -151h305c-9 92 -64 151 -148 151zM402 552h-264v48h264v-48z" />
    <glyph glyph-name="Ebreve" unicode="&#x114;" horiz-adv-x="556" 
d="M144 53h382v-53h-441v662h414v-52h-355v-234h330v-52h-330v-271zM378 858h47c-3 -75 -49 -135 -129 -135c-76 0 -123 59 -126 135h47c0 -53 30 -95 78 -95c51 0 79 32 83 95z" />
    <glyph glyph-name="ebreve" unicode="&#x115;" horiz-adv-x="519" 
d="M450 97v-57c-44 -33 -100 -50 -168 -50c-71 0 -128 21 -170 63c-41 43 -62 100 -62 171c0 65 21 120 62 164c41 45 93 67 154 67c63 0 113 -22 149 -65s54 -97 54 -162c0 -9 0 -16 -1 -20h-359c1 -52 18 -93 50 -124c33 -30 73 -45 120 -45c65 0 122 19 171 58zM267 405
c-88 0 -148 -59 -157 -151h305c-9 92 -64 151 -148 151zM350 672h47c-3 -75 -49 -135 -129 -135c-76 0 -123 59 -126 135h47c0 -53 30 -95 78 -95c51 0 79 32 83 95z" />
    <glyph glyph-name="Edotaccent" unicode="&#x116;" horiz-adv-x="556" 
d="M144 53h382v-53h-441v662h414v-52h-355v-234h330v-52h-330v-271zM260 799c0 20 18 39 39 39s38 -16 38 -39c5 -50 -81 -50 -77 0z" />
    <glyph glyph-name="edotaccent" unicode="&#x117;" horiz-adv-x="519" 
d="M450 97v-57c-44 -33 -100 -50 -168 -50c-71 0 -128 21 -170 63c-41 43 -62 100 -62 171c0 65 21 120 62 164c41 45 93 67 154 67c63 0 113 -22 149 -65s54 -97 54 -162c0 -9 0 -16 -1 -20h-359c1 -52 18 -93 50 -124c33 -30 73 -45 120 -45c65 0 122 19 171 58zM267 405
c-88 0 -148 -59 -157 -151h305c-9 92 -64 151 -148 151zM226 589c0 20 18 39 39 39s38 -16 38 -39c5 -50 -81 -50 -77 0z" />
    <glyph glyph-name="Eogonek" unicode="&#x118;" horiz-adv-x="556" 
d="M144 53h382v-53h-88c-55 -41 -87 -95 -87 -132c0 -31 15 -46 46 -46s64 11 99 34l-5 -45c-33 -20 -69 -30 -108 -30c-57 0 -85 25 -85 75c0 36 25 95 94 144h-307v662h414v-52h-355v-234h330v-52h-330v-271z" />
    <glyph glyph-name="eogonek" unicode="&#x119;" horiz-adv-x="519" 
d="M450 97v-57c-24 -17 -48 -30 -73 -37c-52 -40 -82 -92 -82 -128c0 -31 15 -46 46 -46s64 11 99 34l-5 -45c-33 -20 -69 -30 -108 -30c-57 0 -85 25 -85 75c0 31 21 84 74 129c-15 -1 -26 -2 -34 -2c-71 0 -128 21 -170 63c-41 43 -62 100 -62 171c0 65 21 120 62 164
c41 45 93 67 154 67c63 0 113 -22 149 -65s54 -97 54 -162c0 -9 0 -16 -1 -20h-359c1 -52 18 -93 50 -124c33 -30 73 -45 120 -45c65 0 122 19 171 58zM267 405c-88 0 -148 -59 -157 -151h305c-9 92 -64 151 -148 151z" />
    <glyph glyph-name="Ecaron" unicode="&#x11a;" horiz-adv-x="556" 
d="M297 783l78 78h66l-135 -133h-16l-140 133h67zM144 53h382v-53h-441v662h414v-52h-355v-234h330v-52h-330v-271z" />
    <glyph glyph-name="ecaron" unicode="&#x11b;" horiz-adv-x="519" 
d="M450 97v-57c-44 -33 -100 -50 -168 -50c-71 0 -128 21 -170 63c-41 43 -62 100 -62 171c0 65 21 120 62 164c41 45 93 67 154 67c63 0 113 -22 149 -65s54 -97 54 -162c0 -9 0 -16 -1 -20h-359c1 -52 18 -93 50 -124c33 -30 73 -45 120 -45c65 0 122 19 171 58zM267 405
c-88 0 -148 -59 -157 -151h305c-9 92 -64 151 -148 151zM269 591l76 81h65l-132 -143h-16l-137 143h63z" />
    <glyph glyph-name="Gcircumflex" unicode="&#x11c;" horiz-adv-x="665" 
d="M55 327c0 99 33 182 99 248s148 99 245 99c75 0 133 -12 174 -35v-59c-51 27 -109 41 -173 41c-80 0 -147 -27 -202 -80s-82 -125 -82 -214c0 -85 24 -153 73 -206c49 -52 118 -78 207 -78c53 0 102 10 147 29v254h57v-293c-57 -28 -130 -42 -218 -42
c-103 0 -183 32 -241 96c-57 65 -86 145 -86 240zM402 867l135 -133h-68l-76 71l-80 -71h-67l140 133h16z" />
    <glyph glyph-name="gcircumflex" unicode="&#x11d;" horiz-adv-x="499" 
d="M40 -90c0 45 27 93 70 124l-27 4c-32 5 -48 22 -48 51l83 75c-33 30 -50 71 -50 123c0 47 17 86 50 118c34 33 76 49 126 49c22 0 45 -4 68 -11h147v-35l-88 -10c32 -29 48 -66 48 -112c0 -47 -17 -86 -50 -118s-75 -48 -125 -48c-40 0 -72 8 -95 24l-55 -61l229 -26
c83 -9 124 -44 124 -107c0 -39 -20 -77 -59 -114s-93 -55 -164 -55c-124 0 -184 57 -184 129zM244 165c75 0 122 53 122 121c0 69 -53 122 -122 122s-122 -53 -122 -121c0 -72 46 -122 122 -122zM322 11l-178 20c-31 -33 -47 -69 -47 -110c0 -53 35 -93 126 -93
c57 0 99 13 126 40c27 26 41 54 41 84c0 33 -23 53 -68 59zM267 672l132 -143h-66l-77 82l-79 -82h-63l137 143h16z" />
    <glyph glyph-name="Gbreve" unicode="&#x11e;" horiz-adv-x="665" 
d="M55 327c0 99 33 182 99 248s148 99 245 99c75 0 133 -12 174 -35v-59c-51 27 -109 41 -173 41c-80 0 -147 -27 -202 -80s-82 -125 -82 -214c0 -85 24 -153 73 -206c49 -52 118 -78 207 -78c53 0 102 10 147 29v254h57v-293c-57 -28 -130 -42 -218 -42
c-103 0 -183 32 -241 96c-57 65 -86 145 -86 240zM477 858h47c-3 -75 -49 -135 -129 -135c-76 0 -123 59 -126 135h47c0 -53 30 -95 78 -95c51 0 79 32 83 95z" />
    <glyph glyph-name="gbreve" unicode="&#x11f;" horiz-adv-x="499" 
d="M40 -90c0 45 27 93 70 124l-27 4c-32 5 -48 22 -48 51l83 75c-33 30 -50 71 -50 123c0 47 17 86 50 118c34 33 76 49 126 49c22 0 45 -4 68 -11h147v-35l-88 -10c32 -29 48 -66 48 -112c0 -47 -17 -86 -50 -118s-75 -48 -125 -48c-40 0 -72 8 -95 24l-55 -61l229 -26
c83 -9 124 -44 124 -107c0 -39 -20 -77 -59 -114s-93 -55 -164 -55c-124 0 -184 57 -184 129zM244 165c75 0 122 53 122 121c0 69 -53 122 -122 122s-122 -53 -122 -121c0 -72 46 -122 122 -122zM322 11l-178 20c-31 -33 -47 -69 -47 -110c0 -53 35 -93 126 -93
c57 0 99 13 126 40c27 26 41 54 41 84c0 33 -23 53 -68 59zM340 672h47c-3 -75 -49 -135 -129 -135c-76 0 -123 59 -126 135h47c0 -53 30 -95 78 -95c51 0 79 32 83 95z" />
    <glyph glyph-name="Gdotaccent" unicode="&#x120;" horiz-adv-x="665" 
d="M55 327c0 99 33 182 99 248s148 99 245 99c75 0 133 -12 174 -35v-59c-51 27 -109 41 -173 41c-80 0 -147 -27 -202 -80s-82 -125 -82 -214c0 -85 24 -153 73 -206c49 -52 118 -78 207 -78c53 0 102 10 147 29v254h57v-293c-57 -28 -130 -42 -218 -42
c-103 0 -183 32 -241 96c-57 65 -86 145 -86 240zM354 799c0 20 18 39 39 39s38 -16 38 -39c5 -50 -81 -50 -77 0z" />
    <glyph glyph-name="gdotaccent" unicode="&#x121;" horiz-adv-x="499" 
d="M40 -90c0 45 27 93 70 124l-27 4c-32 5 -48 22 -48 51l83 75c-33 30 -50 71 -50 123c0 47 17 86 50 118c34 33 76 49 126 49c22 0 45 -4 68 -11h147v-35l-88 -10c32 -29 48 -66 48 -112c0 -47 -17 -86 -50 -118s-75 -48 -125 -48c-40 0 -72 8 -95 24l-55 -61l229 -26
c83 -9 124 -44 124 -107c0 -39 -20 -77 -59 -114s-93 -55 -164 -55c-124 0 -184 57 -184 129zM244 165c75 0 122 53 122 121c0 69 -53 122 -122 122s-122 -53 -122 -121c0 -72 46 -122 122 -122zM322 11l-178 20c-31 -33 -47 -69 -47 -110c0 -53 35 -93 126 -93
c57 0 99 13 126 40c27 26 41 54 41 84c0 33 -23 53 -68 59zM212 589c0 20 18 39 39 39s38 -16 38 -39c5 -50 -81 -50 -77 0z" />
    <glyph glyph-name="Gcommaaccent" unicode="&#x122;" horiz-adv-x="665" 
d="M55 327c0 99 33 182 99 248s148 99 245 99c75 0 133 -12 174 -35v-59c-51 27 -109 41 -173 41c-80 0 -147 -27 -202 -80s-82 -125 -82 -214c0 -85 24 -153 73 -206c49 -52 118 -78 207 -78c53 0 102 10 147 29v254h57v-293c-57 -28 -130 -42 -218 -42
c-103 0 -183 32 -241 96c-57 65 -86 145 -86 240zM331 -86c-3 52 85 54 81 1c0 -33 -20 -85 -59 -155l-31 5l34 113c-17 5 -25 17 -25 36z" />
    <glyph glyph-name="gcommaaccent" unicode="&#x123;" horiz-adv-x="499" 
d="M40 -90c0 45 27 93 70 124l-27 4c-32 5 -48 22 -48 51l83 75c-33 30 -50 71 -50 123c0 47 17 86 50 118c34 33 76 49 126 49c22 0 45 -4 68 -11h147v-35l-88 -10c32 -29 48 -66 48 -112c0 -47 -17 -86 -50 -118s-75 -48 -125 -48c-40 0 -72 8 -95 24l-55 -61l229 -26
c83 -9 124 -44 124 -107c0 -39 -20 -77 -59 -114s-93 -55 -164 -55c-124 0 -184 57 -184 129zM244 165c75 0 122 53 122 121c0 69 -53 122 -122 122s-122 -53 -122 -121c0 -72 46 -122 122 -122zM322 11l-178 20c-31 -33 -47 -69 -47 -110c0 -53 35 -93 126 -93
c57 0 99 13 126 40c27 26 41 54 41 84c0 33 -23 53 -68 59zM286 581c3 -52 -85 -54 -81 -1c0 33 20 85 59 155l31 -5l-34 -113c17 -5 25 -17 25 -36z" />
    <glyph glyph-name="Hcircumflex" unicode="&#x124;" horiz-adv-x="668" 
d="M344 861l135 -133h-68l-76 71l-80 -71h-67l140 133h16zM583 662v-662h-57v324h-383v-324h-58v662h58v-286h383v286h57z" />
    <glyph glyph-name="hcircumflex" unicode="&#x125;" horiz-adv-x="525" 
d="M101 868l135 -133h-68l-76 71l-80 -71h-67l140 133h16zM450 266v-266h-57v255c0 93 -41 150 -116 150c-88 0 -153 -60 -153 -175v-230h-59v711h56v-333h3c42 51 94 77 156 77c109 0 170 -69 170 -189z" />
    <glyph glyph-name="Hbar" unicode="&#x126;" horiz-adv-x="668" 
d="M85 522h-51v47h51v93h58v-93h383v93h57v-93h44v-47h-44v-522h-57v324h-383v-324h-58v522zM143 522v-146h383v146h-383z" />
    <glyph glyph-name="hbar" unicode="&#x127;" horiz-adv-x="525" 
d="M65 573h-54v46h54v92h56v-92h181v-46h-181v-195h3c42 51 94 77 156 77c109 0 170 -69 170 -189v-266h-57v255c0 93 -41 150 -116 150c-88 0 -153 -60 -153 -175v-230h-59v573z" />
    <glyph glyph-name="Itilde" unicode="&#x128;" horiz-adv-x="248" 
d="M244 860l28 -31c-17 -47 -44 -70 -80 -70c-16 0 -38 8 -67 24c-28 16 -47 24 -57 24c-19 0 -37 -18 -54 -54l-30 31c16 40 45 71 82 71c16 0 38 -8 67 -24s48 -24 57 -24c19 0 37 18 54 53zM153 662v-662h-58v662h58z" />
    <glyph glyph-name="itilde" unicode="&#x129;" horiz-adv-x="227" 
d="M229 645l28 -31c-17 -47 -44 -70 -80 -70c-16 0 -38 8 -67 24c-28 16 -47 24 -57 24c-19 0 -37 -18 -54 -54l-30 31c16 40 45 71 82 71c16 0 38 -8 67 -24s48 -24 57 -24c19 0 37 18 54 53zM141 445v-445h-57v445h57z" />
    <glyph glyph-name="Imacron" unicode="&#x12a;" horiz-adv-x="248" 
d="M153 662v-662h-58v662h58zM263 762h-279v51h279v-51z" />
    <glyph glyph-name="imacron" unicode="&#x12b;" horiz-adv-x="227" 
d="M243 552h-264v48h264v-48zM141 445v-445h-57v445h57z" />
    <glyph glyph-name="Ibreve" unicode="&#x12c;" horiz-adv-x="248" 
d="M206 858h47c-3 -75 -49 -135 -129 -135c-76 0 -123 59 -126 135h47c0 -53 30 -95 78 -95c51 0 79 32 83 95zM153 662v-662h-58v662h58z" />
    <glyph glyph-name="ibreve" unicode="&#x12d;" horiz-adv-x="227" 
d="M195 676h47c-3 -75 -49 -135 -129 -135c-76 0 -123 59 -126 135h47c0 -53 30 -95 78 -95c51 0 79 32 83 95zM141 445v-445h-57v445h57z" />
    <glyph glyph-name="Iogonek" unicode="&#x12e;" horiz-adv-x="248" 
d="M153 662v-662h-28c-49 -40 -78 -90 -78 -125c0 -31 15 -46 46 -46s64 11 99 34l-5 -45c-33 -20 -69 -30 -108 -30c-57 0 -85 25 -85 75c0 37 26 99 101 148v651h58z" />
    <glyph glyph-name="iogonek" unicode="&#x12f;" horiz-adv-x="227" 
d="M141 445v-445h-27c-49 -40 -78 -90 -78 -125c0 -31 15 -46 46 -46s64 11 99 34l-5 -45c-33 -20 -69 -30 -108 -30c-57 0 -85 25 -85 75c0 37 28 99 101 148v434h57zM114 539c-23 0 -39 15 -39 38c0 33 43 51 66 28c25 -25 5 -66 -27 -66z" />
    <glyph glyph-name="Idot" unicode="&#x130;" horiz-adv-x="248" 
d="M153 662v-662h-58v662h58zM84 799c0 20 18 39 39 39s38 -16 38 -39c5 -50 -81 -50 -77 0z" />
    <glyph glyph-name="dotlessi" unicode="&#x131;" horiz-adv-x="227" 
d="M141 445v-445h-57v445h57z" />
    <glyph glyph-name="IJ" unicode="&#x132;" horiz-adv-x="635" 
d="M334 44c61 0 102 17 124 50c23 34 34 81 34 140v428h58v-418c0 -143 -46 -254 -217 -254c-55 0 -99 10 -133 30v61c33 -23 94 -37 134 -37zM143 662v-662h-58v662h58z" />
    <glyph glyph-name="ij" unicode="&#x133;" horiz-adv-x="392" 
d="M250 577c0 20 18 39 39 39s38 -16 38 -39c5 -50 -81 -49 -77 0zM162 -227l-27 52c92 3 124 49 124 145v475h57v-476c0 -125 -51 -191 -154 -196zM104 539c-23 0 -39 15 -39 38c0 33 43 51 66 28c25 -25 5 -66 -27 -66zM131 445v-445h-57v445h57z" />
    <glyph glyph-name="Jcircumflex" unicode="&#x134;" horiz-adv-x="445" 
d="M341 863l135 -133h-68l-76 71l-80 -71h-67l140 133h16zM144 45c61 0 102 17 124 50c23 34 34 81 34 140v428h58v-418c0 -143 -46 -254 -217 -254c-55 0 -99 10 -133 30v61c33 -23 94 -37 134 -37z" />
    <glyph glyph-name="jcircumflex" unicode="&#x135;" horiz-adv-x="210" 
d="M-20 -227l-25 48c81 3 122 52 122 149v475h55v-476c0 -125 -51 -191 -152 -196zM115 672l132 -143h-66l-77 82l-79 -82h-63l137 143h16z" />
    <glyph glyph-name="Kcommaaccent" unicode="&#x136;" horiz-adv-x="580" 
d="M85 662h58v-314l324 314h72l-323 -318l354 -344h-82l-345 339v-339h-58v662zM226 -63c-3 52 85 54 81 1c0 -33 -20 -85 -59 -155l-31 5l34 113c-17 5 -25 17 -25 36z" />
    <glyph glyph-name="kcommaaccent" unicode="&#x137;" horiz-adv-x="467" 
d="M363 444h75l-248 -208l272 -236h-84l-258 227v-227h-55v711h55v-471zM179 -80c-3 52 85 54 81 1c0 -33 -20 -85 -59 -155l-31 5l34 113c-17 5 -25 17 -25 36z" />
    <glyph glyph-name="kgreenlandic" unicode="&#x138;" horiz-adv-x="467" 
d="M353 444h75l-248 -208l272 -236h-84l-258 227v-227h-55v444h55v-204z" />
    <glyph glyph-name="Lacute" unicode="&#x139;" horiz-adv-x="512" 
d="M85 0v662h58v-609h359v-53h-417zM261 852l-137 -119h-51l121 137z" />
    <glyph glyph-name="lacute" unicode="&#x13a;" horiz-adv-x="207" 
d="M132 711v-711h-57v711h57zM248 879l-137 -119h-51l121 137z" />
    <glyph glyph-name="Lcommaaccent" unicode="&#x13b;" horiz-adv-x="512" 
d="M246 -86c-3 52 85 54 81 1c0 -33 -20 -85 -59 -155l-31 5l34 113c-17 5 -25 17 -25 36zM85 0v662h58v-609h359v-53h-417z" />
    <glyph glyph-name="lcommaaccent" unicode="&#x13c;" horiz-adv-x="207" 
d="M55 -86c-3 52 85 54 81 1c0 -33 -20 -85 -59 -155l-31 5l34 113c-17 5 -25 17 -25 36zM132 711v-711h-57v711h57z" />
    <glyph glyph-name="Lcaron" unicode="&#x13d;" horiz-adv-x="512" 
d="M316 628c-3 52 85 54 81 1c0 -33 -20 -85 -59 -155l-31 5l34 113c-17 5 -25 17 -25 36zM85 0v662h58v-609h359v-53h-417z" />
    <glyph glyph-name="lcaron" unicode="&#x13e;" horiz-adv-x="241" 
d="M190 677c-3 52 85 54 81 1c0 -33 -20 -85 -59 -155l-31 5l34 113c-17 5 -25 17 -25 36zM132 711v-711h-57v711h57z" />
    <glyph glyph-name="Ldot" unicode="&#x13f;" horiz-adv-x="512" 
d="M85 0v662h58v-609h359v-53h-417zM379 316c5 -49 -81 -50 -77 0c0 20 18 39 39 39s38 -16 38 -39z" />
    <glyph glyph-name="ldot" unicode="&#x140;" horiz-adv-x="244" 
d="M132 711v-711h-57v711h57zM254 340c0 -21 -17 -38 -38 -38c-23 0 -39 15 -39 38c0 20 18 39 39 39s38 -16 38 -39z" />
    <glyph glyph-name="Lslash" unicode="&#x141;" horiz-adv-x="512" 
d="M86 230l-85 -47v47l85 49v383h57v-349l171 97v-50l-171 -96v-211h360v-53h-417v230z" />
    <glyph glyph-name="lslash" unicode="&#x142;" horiz-adv-x="207" 
d="M132 296v-296h-57v264l-90 -50v49l90 51v398h57v-365l97 54v-51z" />
    <glyph glyph-name="Nacute" unicode="&#x143;" horiz-adv-x="721" 
d="M141 542v-542h-56v671h15l476 -546h4v537h56v-669h-15l-477 549h-3zM507 847l-137 -119h-51l121 137z" />
    <glyph glyph-name="nacute" unicode="&#x144;" horiz-adv-x="535" 
d="M460 266v-266h-57v255c0 93 -41 150 -116 150c-89 0 -155 -60 -155 -175v-230h-57v445h44l9 -67h4c42 51 95 77 158 77c109 0 170 -69 170 -189zM385 664l-120 -133h-47l104 151z" />
    <glyph glyph-name="Ncommaaccent" unicode="&#x145;" horiz-adv-x="721" 
d="M141 542v-542h-56v671h15l476 -546h4v537h56v-669h-15l-477 549h-3zM319 -65c-3 52 85 54 81 1c0 -33 -20 -85 -59 -155l-31 5l34 113c-17 5 -25 17 -25 36z" />
    <glyph glyph-name="ncommaaccent" unicode="&#x146;" horiz-adv-x="535" 
d="M460 266v-266h-57v255c0 93 -41 150 -116 150c-89 0 -155 -60 -155 -175v-230h-57v445h44l9 -67h4c42 51 95 77 158 77c109 0 170 -69 170 -189zM224 -77c-3 52 85 54 81 1c0 -33 -20 -85 -59 -155l-31 5l34 113c-17 5 -25 17 -25 36z" />
    <glyph glyph-name="Ncaron" unicode="&#x147;" horiz-adv-x="721" 
d="M374 783l78 78h66l-135 -133h-16l-140 133h67zM141 542v-542h-56v671h15l476 -546h4v537h56v-669h-15l-477 549h-3z" />
    <glyph glyph-name="ncaron" unicode="&#x148;" horiz-adv-x="535" 
d="M255 591l76 81h65l-132 -143h-16l-137 143h63zM460 266v-266h-57v255c0 93 -41 150 -116 150c-89 0 -155 -60 -155 -175v-230h-57v445h44l9 -67h4c42 51 95 77 158 77c109 0 170 -69 170 -189z" />
    <glyph glyph-name="napostrophe" unicode="&#x149;" horiz-adv-x="535" 
d="M460 266v-266h-57v255c0 93 -41 150 -116 150c-89 0 -155 -60 -155 -175v-230h-57v445h44l9 -67h4c42 51 95 77 158 77c109 0 170 -69 170 -189zM-3 630c-3 52 85 54 81 1c0 -33 -20 -85 -59 -155l-31 5l34 113c-17 5 -25 17 -25 36z" />
    <glyph glyph-name="Eng" unicode="&#x14a;" horiz-adv-x="721" 
d="M141 547v-547h-56v676h20l471 -555h4v541h56v-698c0 -123 -50 -187 -149 -192l-25 46c81 3 121 52 121 147v63l-439 519h-3z" />
    <glyph glyph-name="eng" unicode="&#x14b;" horiz-adv-x="535" 
d="M460 266v-302c0 -123 -50 -187 -149 -192l-25 46c78 3 117 52 117 147v290c0 93 -41 150 -116 150c-89 0 -155 -60 -155 -175v-230h-57v445h44l10 -67h3c42 51 95 77 158 77c109 0 170 -69 170 -189z" />
    <glyph glyph-name="Omacron" unicode="&#x14c;" horiz-adv-x="787" 
d="M395 -10c-105 0 -188 32 -249 96s-91 146 -91 245c0 95 33 176 99 242c67 66 147 99 241 99c97 0 177 -33 241 -99c64 -65 96 -146 96 -242c0 -97 -32 -178 -96 -243c-63 -65 -144 -98 -241 -98zM116 331c0 -84 25 -153 75 -207c51 -54 119 -81 204 -81
c83 0 150 28 201 83c52 56 78 124 78 205s-26 149 -79 204c-52 56 -119 84 -200 84s-148 -28 -201 -83c-52 -55 -78 -124 -78 -205zM524 769h-279v51h279v-51z" />
    <glyph glyph-name="omacron" unicode="&#x14d;" horiz-adv-x="560" 
d="M281 -10c-71 0 -127 22 -169 66c-41 44 -62 100 -62 167c0 65 22 119 67 164s100 68 164 68c66 0 121 -22 164 -67s65 -100 65 -165c0 -66 -22 -121 -66 -166c-43 -45 -98 -67 -163 -67zM281 407c-51 0 -92 -18 -125 -54c-32 -35 -48 -79 -48 -130c0 -53 15 -98 46 -133
s74 -52 127 -52c52 0 94 18 125 53c31 36 47 80 47 132c0 51 -16 95 -48 130c-31 36 -73 54 -124 54zM412 552h-264v48h264v-48z" />
    <glyph glyph-name="Obreve" unicode="&#x14e;" horiz-adv-x="787" 
d="M395 -10c-105 0 -188 32 -249 96s-91 146 -91 245c0 95 33 176 99 242c67 66 147 99 241 99c97 0 177 -33 241 -99c64 -65 96 -146 96 -242c0 -97 -32 -178 -96 -243c-63 -65 -144 -98 -241 -98zM116 331c0 -84 25 -153 75 -207c51 -54 119 -81 204 -81
c83 0 150 28 201 83c52 56 78 124 78 205s-26 149 -79 204c-52 56 -119 84 -200 84s-148 -28 -201 -83c-52 -55 -78 -124 -78 -205zM475 858h47c-3 -75 -49 -135 -129 -135c-76 0 -123 59 -126 135h47c0 -53 30 -95 78 -95c51 0 79 32 83 95z" />
    <glyph glyph-name="obreve" unicode="&#x14f;" horiz-adv-x="560" 
d="M281 -10c-71 0 -127 22 -169 66c-41 44 -62 100 -62 167c0 65 22 119 67 164s100 68 164 68c66 0 121 -22 164 -67s65 -100 65 -165c0 -66 -22 -121 -66 -166c-43 -45 -98 -67 -163 -67zM281 407c-51 0 -92 -18 -125 -54c-32 -35 -48 -79 -48 -130c0 -53 15 -98 46 -133
s74 -52 127 -52c52 0 94 18 125 53c31 36 47 80 47 132c0 51 -16 95 -48 130c-31 36 -73 54 -124 54zM362 672h47c-3 -75 -49 -135 -129 -135c-76 0 -123 59 -126 135h47c0 -53 30 -95 78 -95c51 0 79 32 83 95z" />
    <glyph glyph-name="Ohungarumlaut" unicode="&#x150;" horiz-adv-x="787" 
d="M395 -10c-105 0 -188 32 -249 96s-91 146 -91 245c0 95 33 176 99 242c67 66 147 99 241 99c97 0 177 -33 241 -99c64 -65 96 -146 96 -242c0 -97 -32 -178 -96 -243c-63 -65 -144 -98 -241 -98zM116 331c0 -84 25 -153 75 -207c51 -54 119 -81 204 -81
c83 0 150 28 201 83c52 56 78 124 78 205s-26 149 -79 204c-52 56 -119 84 -200 84s-148 -28 -201 -83c-52 -55 -78 -124 -78 -205zM484 852l-137 -119h-51l121 137zM604 852l-137 -119h-51l121 137z" />
    <glyph glyph-name="ohungarumlaut" unicode="&#x151;" horiz-adv-x="560" 
d="M281 -10c-71 0 -127 22 -169 66c-41 44 -62 100 -62 167c0 65 22 119 67 164s100 68 164 68c66 0 121 -22 164 -67s65 -100 65 -165c0 -66 -22 -121 -66 -166c-43 -45 -98 -67 -163 -67zM281 407c-51 0 -92 -18 -125 -54c-32 -35 -48 -79 -48 -130c0 -53 15 -98 46 -133
s74 -52 127 -52c52 0 94 18 125 53c31 36 47 80 47 132c0 51 -16 95 -48 130c-31 36 -73 54 -124 54zM354 664l-120 -133h-46l104 151zM456 664l-120 -133h-46l104 151z" />
    <glyph glyph-name="OE" unicode="&#x152;" horiz-adv-x="939" 
d="M527 52h382v-52h-425c-26 -7 -56 -10 -90 -10c-108 0 -192 32 -251 95s-88 146 -88 249c0 97 32 178 96 244s145 99 243 99c39 0 75 -5 108 -15h380v-52h-355v-234h330v-52h-330v-272zM394 42c27 0 52 3 75 8v565c-23 6 -48 9 -75 9c-85 0 -153 -28 -204 -83
s-76 -124 -76 -207c0 -86 25 -156 74 -211c49 -54 118 -81 206 -81z" />
    <glyph glyph-name="oe" unicode="&#x153;" horiz-adv-x="913" 
d="M849 97v-57c-43 -33 -99 -50 -167 -50c-97 0 -171 42 -207 115c-39 -71 -114 -115 -199 -115c-71 0 -127 22 -169 66c-41 44 -62 100 -62 167c0 65 22 119 67 164s100 68 164 68c87 0 161 -45 200 -116c37 71 108 117 189 117c63 0 113 -22 149 -66
c36 -43 54 -97 54 -162v-20h-360c1 -52 18 -93 51 -124c33 -30 73 -45 120 -45c65 0 121 19 170 58zM276 407c-51 0 -92 -18 -125 -54c-32 -35 -48 -79 -48 -130c0 -53 15 -98 46 -133s74 -52 127 -52c52 0 94 18 125 53c31 36 47 80 47 132c0 51 -16 95 -48 130
c-31 36 -73 54 -124 54zM666 406c-87 0 -146 -60 -157 -152h305c-8 92 -63 152 -148 152z" />
    <glyph glyph-name="Racute" unicode="&#x154;" horiz-adv-x="589" 
d="M331 252l236 -252h-80l-250 278v10c77 1 136 18 176 50c41 33 61 71 61 116c0 99 -69 157 -172 157h-159v-611h-59v661h226c59 0 110 -18 155 -55c45 -36 68 -86 68 -150c0 -50 -19 -95 -56 -134s-85 -62 -146 -70zM391 852l-137 -119h-51l121 137z" />
    <glyph glyph-name="racute" unicode="&#x155;" horiz-adv-x="310" 
d="M264 402c-81 0 -132 -78 -132 -183v-219h-57v444h39l10 -79c1 -1 2 -1 3 -1c32 61 81 91 148 91c12 0 22 -1 30 -3v-55c-12 3 -26 5 -41 5zM239 664l-120 -133h-47l104 151z" />
    <glyph glyph-name="Rcommaaccent" unicode="&#x156;" horiz-adv-x="589" 
d="M331 252l236 -252h-80l-250 278v10c77 1 136 18 176 50c41 33 61 71 61 116c0 99 -69 157 -172 157h-159v-611h-59v661h226c59 0 110 -18 155 -55c45 -36 68 -86 68 -150c0 -50 -19 -95 -56 -134s-85 -62 -146 -70zM246 -60c-3 52 85 54 81 1c0 -33 -20 -85 -59 -155
l-31 5l34 113c-17 5 -25 17 -25 36z" />
    <glyph glyph-name="rcommaaccent" unicode="&#x157;" horiz-adv-x="310" 
d="M264 402c-81 0 -132 -78 -132 -183v-219h-57v444h39l10 -79c1 -1 2 -1 3 -1c32 61 81 91 148 91c12 0 22 -1 30 -3v-55c-12 3 -26 5 -41 5zM53 -83c-3 52 85 54 81 1c0 -33 -20 -85 -59 -155l-31 5l34 113c-17 5 -25 17 -25 36z" />
    <glyph glyph-name="Rcaron" unicode="&#x158;" horiz-adv-x="589" 
d="M331 252l236 -252h-80l-250 278v10c77 1 136 18 176 50c41 33 61 71 61 116c0 99 -69 157 -172 157h-159v-611h-59v661h226c59 0 110 -18 155 -55c45 -36 68 -86 68 -150c0 -50 -19 -95 -56 -134s-85 -62 -146 -70zM277 783l78 78h66l-135 -133h-16l-140 133h67z" />
    <glyph glyph-name="rcaron" unicode="&#x159;" horiz-adv-x="310" 
d="M144 591l76 81h65l-132 -143h-16l-137 143h63zM264 402c-81 0 -132 -78 -132 -183v-219h-57v444h39l10 -79c1 -1 2 -1 3 -1c32 61 81 91 148 91c12 0 22 -1 30 -3v-55c-12 3 -26 5 -41 5z" />
    <glyph glyph-name="Sacute" unicode="&#x15a;" horiz-adv-x="485" 
d="M35 44v62c60 -42 123 -63 188 -63c101 0 169 40 169 123c0 192 -342 148 -342 340c0 53 19 94 58 123s83 43 133 43c64 0 120 -14 168 -41v-62c-49 33 -102 50 -160 50c-80 0 -139 -33 -139 -110c0 -51 53 -88 120 -116c96 -39 222 -89 220 -217
c0 -123 -88 -186 -219 -186c-76 0 -141 18 -196 54zM363 852l-137 -119h-51l121 137z" />
    <glyph glyph-name="sacute" unicode="&#x15b;" horiz-adv-x="369" 
d="M25 29v56c45 -32 92 -48 141 -48c75 0 112 26 112 77c0 113 -235 88 -235 221c0 39 14 69 42 89c29 21 63 31 102 31c44 0 86 -10 127 -30v-55c-44 25 -84 38 -120 38c-62 0 -93 -23 -93 -69c0 -88 233 -72 233 -216c0 -84 -67 -132 -162 -132c-55 0 -104 13 -147 38z
M293 664l-120 -133h-47l104 151z" />
    <glyph glyph-name="Scircumflex" unicode="&#x15c;" horiz-adv-x="485" 
d="M35 44v62c60 -42 123 -63 188 -63c101 0 169 40 169 123c0 192 -342 148 -342 340c0 53 19 94 58 123s83 43 133 43c64 0 120 -14 168 -41v-62c-49 33 -102 50 -160 50c-80 0 -139 -33 -139 -110c0 -51 53 -88 120 -116c96 -39 222 -89 220 -217
c0 -123 -88 -186 -219 -186c-76 0 -141 18 -196 54zM256 861l135 -133h-68l-76 71l-80 -71h-67l140 133h16z" />
    <glyph glyph-name="scircumflex" unicode="&#x15d;" horiz-adv-x="369" 
d="M25 29v56c45 -32 92 -48 141 -48c75 0 112 26 112 77c0 113 -235 88 -235 221c0 39 14 69 42 89c29 21 63 31 102 31c44 0 86 -10 127 -30v-55c-44 25 -84 38 -120 38c-62 0 -93 -23 -93 -69c0 -88 233 -72 233 -216c0 -84 -67 -132 -162 -132c-55 0 -104 13 -147 38z
M193 672l132 -143h-66l-77 82l-79 -82h-63l137 143h16z" />
    <glyph glyph-name="Scedilla" unicode="&#x15e;" horiz-adv-x="485" 
d="M348 -132c0 -51 -48 -89 -116 -89c-27 0 -54 6 -82 17v42c27 -12 54 -18 81 -18c41 0 64 18 64 43c0 29 -29 43 -64 43c-13 0 -23 -1 -31 -4l-19 12l35 76c-71 3 -132 21 -181 54v62c60 -42 123 -63 188 -63c101 0 169 40 169 123c0 192 -342 148 -342 340
c0 53 19 94 58 123s83 43 133 43c64 0 120 -14 168 -41v-62c-49 33 -102 50 -160 50c-80 0 -139 -33 -139 -110c0 -51 53 -88 120 -116c96 -39 222 -89 220 -217c0 -115 -77 -177 -193 -185l-22 -46c80 -1 113 -36 113 -77z" />
    <glyph glyph-name="scedilla" unicode="&#x15f;" horiz-adv-x="369" 
d="M275 -127c0 -51 -48 -89 -116 -89c-27 0 -54 6 -82 17v42c27 -12 54 -18 81 -18c41 0 64 18 64 43c0 29 -29 43 -64 43c-13 0 -23 -1 -31 -4l-19 12l34 74c-47 5 -86 17 -117 36v56c45 -32 92 -48 141 -48c75 0 112 26 112 77c0 113 -235 88 -235 221c0 39 14 69 42 89
c29 21 63 31 102 31c44 0 86 -10 127 -30v-55c-44 25 -84 38 -120 38c-62 0 -93 -23 -93 -69c0 -88 233 -72 233 -216c0 -81 -63 -129 -152 -132l-20 -41c80 -1 113 -36 113 -77z" />
    <glyph glyph-name="Scaron" unicode="&#x160;" horiz-adv-x="485" 
d="M35 44v62c60 -42 123 -63 188 -63c101 0 169 40 169 123c0 192 -342 148 -342 340c0 53 19 94 58 123s83 43 133 43c64 0 120 -14 168 -41v-62c-49 33 -102 50 -160 50c-80 0 -139 -33 -139 -110c0 -51 53 -88 120 -116c96 -39 222 -89 220 -217
c0 -123 -88 -186 -219 -186c-76 0 -141 18 -196 54zM242 783l78 78h66l-135 -133h-16l-140 133h67z" />
    <glyph glyph-name="scaron" unicode="&#x161;" horiz-adv-x="369" 
d="M25 29v56c45 -32 92 -48 141 -48c75 0 112 26 112 77c0 113 -235 88 -235 221c0 39 14 69 42 89c29 21 63 31 102 31c44 0 86 -10 127 -30v-55c-44 25 -84 38 -120 38c-62 0 -93 -23 -93 -69c0 -88 233 -72 233 -216c0 -84 -67 -132 -162 -132c-55 0 -104 13 -147 38z
M183 591l76 81h65l-132 -143h-16l-137 143h63z" />
    <glyph glyph-name="Tcommaaccent" unicode="&#x162;" horiz-adv-x="523" 
d="M360 -127c0 -51 -48 -89 -116 -89c-27 0 -54 6 -82 17v42c27 -12 54 -18 81 -18c41 0 64 18 64 43c0 29 -29 43 -64 43c-13 0 -23 -1 -31 -4l-19 12l40 86v605h-218v52h493v-52h-216v-610h-21l-24 -50c80 -1 113 -36 113 -77z" />
    <glyph glyph-name="tcommaaccent" unicode="&#x163;" horiz-adv-x="320" 
d="M261 -127c0 -51 -48 -89 -116 -89c-26 0 -53 6 -82 17v42c27 -12 54 -18 81 -18c41 0 64 18 64 43c0 29 -29 43 -64 43c-13 0 -23 -1 -31 -4l-19 12l44 94c-25 20 -38 58 -38 114v271h-75v37l75 10l34 134h23v-134h127v-47h-127v-271c0 -56 15 -83 66 -83
c29 0 57 9 84 28v-52c-26 -19 -56 -29 -90 -29c-18 0 -34 2 -47 6l-22 -47c80 -1 113 -36 113 -77z" />
    <glyph glyph-name="Tcaron" unicode="&#x164;" horiz-adv-x="523" 
d="M264 783l78 78h66l-135 -133h-16l-140 133h67zM508 662v-52h-216v-610h-59v610h-218v52h493z" />
    <glyph glyph-name="tcaron" unicode="&#x165;" horiz-adv-x="320" 
d="M100 445l34 134h23v-134h127v-47h-127v-271c0 -56 15 -83 66 -83c29 0 57 9 84 28v-52c-26 -19 -56 -29 -90 -29c-89 0 -117 48 -117 136v271h-75v37zM240 669c-3 52 85 54 81 1c0 -33 -20 -85 -59 -155l-31 5l34 113c-17 5 -25 17 -25 36z" />
    <glyph glyph-name="Tbar" unicode="&#x166;" horiz-adv-x="523" 
d="M508 662v-52h-216v-224h164v-49h-164v-337h-59v337h-166v49h166v224h-217v52h492z" />
    <glyph glyph-name="tbar" unicode="&#x167;" horiz-adv-x="324" 
d="M99 445l36 133h22v-133h126v-47h-126v-97h119v-44h-119v-131c0 -56 16 -83 65 -83c27 0 55 9 84 28v-51c-26 -19 -56 -29 -90 -29c-88 0 -117 48 -117 135v131h-70v44h70v97h-74v35z" />
    <glyph glyph-name="Utilde" unicode="&#x168;" horiz-adv-x="676" 
d="M534 246v416h57v-422c0 -74 -23 -134 -68 -181c-45 -46 -106 -69 -185 -69s-141 23 -186 68c-45 46 -67 107 -67 184v420h57v-412c0 -120 65 -206 196 -206c129 0 196 81 196 202zM450 851l28 -31c-17 -47 -44 -70 -80 -70c-16 0 -38 8 -67 24c-28 16 -47 24 -57 24
c-19 0 -37 -18 -54 -54l-30 31c16 40 45 71 82 71c16 0 38 -8 67 -24s48 -24 57 -24c19 0 37 18 54 53z" />
    <glyph glyph-name="utilde" unicode="&#x169;" horiz-adv-x="521" 
d="M75 172v273h56v-261c0 -95 37 -143 110 -143c88 0 148 59 148 174v230h57v-445h-44l-10 64c-1 1 -2 1 -3 1c-41 -50 -91 -75 -148 -75c-111 0 -166 61 -166 182zM381 645l28 -31c-17 -47 -44 -70 -80 -70c-16 0 -38 8 -67 24c-28 16 -47 24 -57 24c-19 0 -37 -18 -54 -54
l-30 31c16 40 45 71 82 71c16 0 38 -8 67 -24s48 -24 57 -24c19 0 37 18 54 53z" />
    <glyph glyph-name="Umacron" unicode="&#x16a;" horiz-adv-x="676" 
d="M534 246v416h57v-422c0 -74 -23 -134 -68 -181c-45 -46 -106 -69 -185 -69s-141 23 -186 68c-45 46 -67 107 -67 184v420h57v-412c0 -120 65 -206 196 -206c129 0 196 81 196 202zM477 759h-279v51h279v-51z" />
    <glyph glyph-name="umacron" unicode="&#x16b;" horiz-adv-x="521" 
d="M75 172v273h56v-261c0 -95 37 -143 110 -143c88 0 148 59 148 174v230h57v-445h-44l-10 64c-1 1 -2 1 -3 1c-41 -50 -91 -75 -148 -75c-111 0 -166 61 -166 182zM387 552h-264v48h264v-48z" />
    <glyph glyph-name="Ubreve" unicode="&#x16c;" horiz-adv-x="676" 
d="M534 246v416h57v-422c0 -74 -23 -134 -68 -181c-45 -46 -106 -69 -185 -69s-141 23 -186 68c-45 46 -67 107 -67 184v420h57v-412c0 -120 65 -206 196 -206c129 0 196 81 196 202zM420 850h47c-3 -75 -49 -135 -129 -135c-76 0 -123 59 -126 135h47c0 -53 30 -95 78 -95
c51 0 79 32 83 95z" />
    <glyph glyph-name="ubreve" unicode="&#x16d;" horiz-adv-x="521" 
d="M75 172v273h56v-261c0 -95 37 -143 110 -143c88 0 148 59 148 174v230h57v-445h-44l-10 64c-1 1 -2 1 -3 1c-41 -50 -91 -75 -148 -75c-111 0 -166 61 -166 182zM340 662h47c-3 -75 -49 -135 -129 -135c-76 0 -123 59 -126 135h47c0 -53 30 -95 78 -95c51 0 79 32 83 95z
" />
    <glyph glyph-name="Uring" unicode="&#x16e;" horiz-adv-x="676" 
d="M343 729c-53 0 -87 36 -87 85s39 88 87 88c51 0 88 -37 88 -88c0 -48 -37 -85 -88 -85zM343 868c-29 0 -51 -25 -51 -54s20 -52 51 -52c32 0 52 24 52 52c0 31 -21 54 -52 54zM534 246v416h57v-422c0 -74 -23 -134 -68 -181c-45 -46 -106 -69 -185 -69s-141 23 -186 68
c-45 46 -67 107 -67 184v420h57v-412c0 -120 65 -206 196 -206c129 0 196 81 196 202z" />
    <glyph glyph-name="uring" unicode="&#x16f;" horiz-adv-x="521" 
d="M75 172v273h56v-261c0 -95 37 -143 110 -143c88 0 148 59 148 174v230h57v-445h-44l-10 64c-1 1 -2 1 -3 1c-41 -50 -91 -75 -148 -75c-111 0 -166 61 -166 182zM267 520c-53 0 -87 36 -87 85s39 88 87 88c51 0 88 -37 88 -88c0 -48 -37 -85 -88 -85zM267 659
c-29 0 -51 -25 -51 -54s20 -52 51 -52c32 0 52 24 52 52c0 31 -21 54 -52 54z" />
    <glyph glyph-name="Uhungarumlaut" unicode="&#x170;" horiz-adv-x="676" 
d="M534 246v416h57v-422c0 -74 -23 -134 -68 -181c-45 -46 -106 -69 -185 -69s-141 23 -186 68c-45 46 -67 107 -67 184v420h57v-412c0 -120 65 -206 196 -206c129 0 196 81 196 202zM407 852l-137 -119h-51l121 137zM527 852l-137 -119h-51l121 137z" />
    <glyph glyph-name="uhungarumlaut" unicode="&#x171;" horiz-adv-x="521" 
d="M75 172v273h56v-261c0 -95 37 -143 110 -143c88 0 148 59 148 174v230h57v-445h-44l-10 64c-1 1 -2 1 -3 1c-41 -50 -91 -75 -148 -75c-111 0 -166 61 -166 182zM327 664l-120 -133h-46l104 151zM429 664l-120 -133h-46l104 151z" />
    <glyph glyph-name="Uogonek" unicode="&#x172;" horiz-adv-x="676" 
d="M534 246v416h57v-422c0 -69 -20 -126 -59 -171s-94 -71 -163 -77c-49 -41 -79 -91 -79 -126c0 -31 15 -46 46 -46s64 11 99 34l-5 -45c-33 -20 -69 -30 -108 -30c-57 0 -85 25 -85 75c0 35 22 89 83 137c-148 7 -235 103 -235 251v420h57v-412c0 -120 65 -206 196 -206
c129 0 196 81 196 202z" />
    <glyph glyph-name="uogonek" unicode="&#x173;" horiz-adv-x="521" 
d="M75 172v273h56v-261c0 -95 37 -143 110 -143c88 0 148 59 148 174v230h57v-445h-25c-49 -40 -78 -90 -78 -125c0 -31 15 -46 46 -46s64 11 99 34l-5 -45c-33 -20 -69 -30 -108 -30c-57 0 -85 25 -85 75c0 39 29 103 109 154l-7 47c-1 1 -2 1 -3 1
c-41 -50 -91 -75 -148 -75c-111 0 -166 61 -166 182z" />
    <glyph glyph-name="Wcircumflex" unicode="&#x174;" horiz-adv-x="886" 
d="M623 -7l-179 527h-4l-177 -527h-14l-239 667h57l188 -526h5l177 531h12l180 -531h5l185 526h57l-241 -667h-12zM455 861l135 -133h-68l-76 71l-80 -71h-67l140 133h16z" />
    <glyph glyph-name="wcircumflex" unicode="&#x175;" horiz-adv-x="706" 
d="M205 111l146 334h9l148 -334h4l129 334h55l-182 -451h-10l-148 335h-3l-148 -335h-11l-179 451h58l129 -334h3zM366 672l132 -143h-66l-77 82l-79 -82h-63l137 143h16z" />
    <glyph glyph-name="Ycircumflex" unicode="&#x176;" 
d="M75 662l204 -311h4l186 311h61l-221 -367v-295h-58v295l-241 367h65zM291 860l135 -133h-68l-76 71l-80 -71h-67l140 133h16z" />
    <glyph glyph-name="ycircumflex" unicode="&#x177;" horiz-adv-x="442" 
d="M72 445l149 -364h6l149 364h56l-274 -660h-59l95 230l-184 430h62zM238 673l132 -143h-66l-77 82l-79 -82h-63l137 143h16z" />
    <glyph glyph-name="Ydieresis" unicode="&#x178;" 
d="M75 662l204 -311h4l186 311h61l-221 -367v-295h-58v295l-241 367h65zM199 742c-23 0 -38 16 -38 37c0 19 18 37 38 37c47 0 47 -74 0 -74zM395 779c0 -49 -74 -49 -74 0c0 19 17 37 37 37c21 0 37 -16 37 -37z" />
    <glyph glyph-name="Zacute" unicode="&#x179;" horiz-adv-x="500" 
d="M60 662h417v-9l-364 -601h367v-52h-460v9l368 601h-328v52zM397 852l-137 -119h-51l121 137z" />
    <glyph glyph-name="zacute" unicode="&#x17a;" horiz-adv-x="408" 
d="M48 445h335v-9l-278 -390h274v-46h-364v9l281 390h-248v46zM331 664l-120 -133h-47l104 151z" />
    <glyph glyph-name="Zdotaccent" unicode="&#x17b;" horiz-adv-x="500" 
d="M60 662h417v-9l-364 -601h367v-52h-460v9l368 601h-328v52zM268 761c-23 0 -39 15 -39 38c0 33 43 51 66 28c25 -25 5 -66 -27 -66z" />
    <glyph glyph-name="zdotaccent" unicode="&#x17c;" horiz-adv-x="408" 
d="M48 445h335v-9l-278 -390h274v-46h-364v9l281 390h-248v46zM212 551c-23 0 -39 15 -39 38c0 33 43 51 66 28c25 -25 5 -66 -27 -66z" />
    <glyph glyph-name="Zcaron" unicode="&#x17d;" horiz-adv-x="500" 
d="M266 783l78 78h66l-135 -133h-16l-140 133h67zM60 662h417v-9l-364 -601h367v-52h-460v9l368 601h-328v52z" />
    <glyph glyph-name="zcaron" unicode="&#x17e;" horiz-adv-x="408" 
d="M209 591l76 81h65l-132 -143h-16l-137 143h63zM48 445h335v-9l-278 -390h274v-46h-364v9l281 390h-248v46z" />
    <glyph glyph-name="longs" unicode="&#x17f;" horiz-adv-x="218" 
d="M320 713v-50c-23 9 -48 14 -77 14c-67 0 -100 -43 -100 -128v-549h-56v398h-82v34l82 13v99c0 120 53 180 160 180c26 0 50 -4 73 -11z" />
    <glyph glyph-name="florin" unicode="&#x192;" 
d="M249 356h-81v43h88l11 95c15 119 61 176 152 176c21 0 44 -4 67 -12v-47c-24 7 -45 10 -62 10c-61 0 -89 -37 -101 -128l-12 -94h97v-43h-102l-24 -187c-13 -98 -30 -165 -52 -201c-21 -37 -55 -55 -102 -55c-25 0 -50 5 -75 15v56c29 -11 52 -17 70 -17
c34 0 57 15 70 45c13 31 25 96 37 196z" />
    <glyph glyph-name="AEacute" unicode="&#x1fc;" horiz-adv-x="955" 
d="M925 53v-53h-439v161h-304l-132 -161h-70l548 662h370v-52h-354v-234h329v-52h-329v-271h381zM486 526h-4l-260 -316h264v316zM733 852l-137 -119h-51l121 137z" />
    <glyph glyph-name="aeacute" unicode="&#x1fd;" horiz-adv-x="817" 
d="M753 97v-57c-43 -33 -99 -50 -167 -50c-91 0 -167 47 -198 119c-37 -80 -101 -120 -193 -120c-58 0 -100 14 -126 41s-39 57 -39 88c0 98 73 147 219 147h103v25c0 79 -43 118 -128 118c-45 0 -93 -14 -146 -43v52c41 24 106 39 149 39c88 0 144 -30 168 -90
c43 60 101 90 174 90c128 0 203 -89 203 -217v-18h-360c1 -53 18 -97 51 -131s73 -51 120 -51c65 0 121 19 170 58zM352 195v26h-98c-111 0 -166 -33 -166 -98c0 -55 48 -85 119 -85c93 0 145 68 145 157zM570 406c-88 0 -148 -51 -157 -142h305c-8 91 -61 142 -148 142z
M549 664l-120 -133h-47l104 151z" />
    <glyph glyph-name="Oslashacute" unicode="&#x1fe;" horiz-adv-x="787" 
d="M395 -10c-76 0 -142 18 -198 54l-35 -44h-56l56 70c-71 63 -107 150 -107 261c0 95 33 176 99 242c67 66 147 99 241 99c73 0 139 -20 197 -61l41 51h55l-63 -79c71 -66 107 -150 107 -252c0 -97 -32 -178 -96 -243c-63 -65 -144 -98 -241 -98zM395 619
c-81 0 -148 -28 -201 -83c-52 -55 -78 -124 -78 -205c0 -90 28 -162 83 -215l359 452c-47 34 -101 51 -163 51zM674 331c0 83 -28 152 -83 209l-359 -451c47 -31 101 -46 163 -46c83 0 150 28 201 83c52 56 78 124 78 205zM557 852l-137 -119h-51l121 137z" />
    <glyph glyph-name="oslashacute" unicode="&#x1ff;" horiz-adv-x="550" 
d="M276 -10c-55 0 -101 14 -140 41l-28 -31h-54l52 57c-41 43 -61 98 -61 166c0 65 22 119 67 164s100 68 164 68c55 0 103 -16 143 -49l34 38h53l-58 -65c38 -43 57 -95 57 -156c0 -66 -22 -121 -66 -166c-43 -45 -98 -67 -163 -67zM276 407c-51 0 -92 -18 -125 -54
c-32 -35 -48 -79 -48 -130c0 -49 13 -91 39 -125l243 270c-31 26 -68 39 -109 39zM448 223c0 44 -12 83 -36 116l-241 -269c29 -21 64 -32 105 -32c52 0 94 18 125 53c31 36 47 80 47 132zM409 664l-120 -133h-47l104 151z" />
    <glyph glyph-name="Scommaaccent" unicode="&#x218;" horiz-adv-x="485" 
d="M35 44v62c60 -42 123 -63 188 -63c101 0 169 40 169 123c0 192 -342 148 -342 340c0 53 19 94 58 123s83 43 133 43c64 0 120 -14 168 -41v-62c-49 33 -102 50 -160 50c-80 0 -139 -33 -139 -110c0 -51 53 -88 120 -116c96 -39 222 -89 220 -217
c0 -123 -88 -186 -219 -186c-76 0 -141 18 -196 54zM193 -86c-3 52 85 54 81 1c0 -33 -20 -85 -59 -155l-31 5l34 113c-17 5 -25 17 -25 36z" />
    <glyph glyph-name="scommaaccent" unicode="&#x219;" horiz-adv-x="369" 
d="M25 29v56c45 -32 92 -48 141 -48c75 0 112 26 112 77c0 113 -235 88 -235 221c0 39 14 69 42 89c29 21 63 31 102 31c44 0 86 -10 127 -30v-55c-44 25 -84 38 -120 38c-62 0 -93 -23 -93 -69c0 -88 233 -72 233 -216c0 -84 -67 -132 -162 -132c-55 0 -104 13 -147 38z
M135 -86c-3 52 85 54 81 1c0 -33 -20 -85 -59 -155l-31 5l34 113c-17 5 -25 17 -25 36z" />
    <glyph glyph-name="uni021A" unicode="&#x21a;" horiz-adv-x="523" 
d="M508 662v-52h-216v-610h-59v610h-218v52h493zM215 -86c-3 52 85 54 81 1c0 -33 -20 -85 -59 -155l-31 5l34 113c-17 5 -25 17 -25 36z" />
    <glyph glyph-name="uni021B" unicode="&#x21b;" horiz-adv-x="320" 
d="M100 445l34 134h23v-134h127v-47h-127v-271c0 -56 15 -83 66 -83c29 0 57 9 84 28v-52c-26 -19 -56 -29 -90 -29c-89 0 -117 48 -117 136v271h-75v37zM98 -86c-3 52 85 54 81 1c0 -33 -20 -85 -59 -155l-31 5l34 113c-17 5 -25 17 -25 36z" />
    <glyph glyph-name="schwa" unicode="&#x259;" horiz-adv-x="525" 
d="M81 350v54c45 34 102 51 171 51c141 0 222 -90 222 -234c0 -65 -21 -120 -62 -165c-41 -44 -93 -66 -154 -66c-63 0 -113 22 -149 65s-54 97 -54 162c0 9 0 16 1 20h359c-3 107 -65 169 -165 169c-61 0 -117 -19 -169 -56zM257 40c88 0 148 59 157 151h-305
c9 -92 64 -151 148 -151z" />
    <glyph glyph-name="primemod" unicode="&#x2b9;" horiz-adv-x="207" 
d="M190 663l-121 -238h-42l105 257z" />
    <glyph glyph-name="circumflex" unicode="&#x2c6;" horiz-adv-x="469" 
d="M236 672l132 -143h-66l-77 82l-79 -82h-63l137 143h16z" />
    <glyph glyph-name="caron" unicode="&#x2c7;" horiz-adv-x="469" 
d="M227 591l76 81h65l-132 -143h-16l-137 143h63z" />
    <glyph glyph-name="breve" unicode="&#x2d8;" horiz-adv-x="469" 
d="M308 672h47c-3 -75 -49 -135 -129 -135c-76 0 -123 59 -126 135h47c0 -53 30 -95 78 -95c51 0 79 32 83 95z" />
    <glyph glyph-name="dotaccent" unicode="&#x2d9;" horiz-adv-x="427" 
d="M256 551c-23 0 -39 15 -39 38c0 33 43 51 66 28c25 -25 5 -66 -27 -66z" />
    <glyph glyph-name="ring" unicode="&#x2da;" horiz-adv-x="469" 
d="M236 530c-53 0 -87 36 -87 85s39 88 87 88c51 0 88 -37 88 -88c0 -48 -37 -85 -88 -85zM236 669c-29 0 -51 -25 -51 -54s20 -52 51 -52c32 0 52 24 52 52c0 31 -21 54 -52 54z" />
    <glyph glyph-name="ogonek" unicode="&#x2db;" horiz-adv-x="523" 
d="M353 37l9 -20c-63 -43 -101 -102 -101 -142c0 -31 15 -46 46 -46s64 11 99 34l-5 -45c-33 -20 -69 -30 -108 -30c-57 0 -85 25 -85 75c0 17 7 42 26 75c19 32 62 71 119 99z" />
    <glyph glyph-name="tilde" unicode="&#x2dc;" horiz-adv-x="469" 
d="M349 645l28 -31c-17 -47 -44 -70 -80 -70c-16 0 -38 8 -67 24c-28 16 -47 24 -57 24c-19 0 -37 -18 -54 -54l-30 31c16 40 45 71 82 71c16 0 38 -8 67 -24s48 -24 57 -24c19 0 37 18 54 53z" />
    <glyph glyph-name="hungarumlaut" unicode="&#x2dd;" horiz-adv-x="469" 
d="M297 664l-120 -133h-46l104 151zM399 664l-120 -133h-46l104 151z" />
    <glyph glyph-name="tonos" unicode="&#x384;" horiz-adv-x="469" 
d="M358 664l-120 -133h-47l104 151z" />
    <glyph glyph-name="dieresistonos" unicode="&#x385;" horiz-adv-x="469" 
d="M142 624c21 0 38 -17 38 -38c0 -20 -17 -38 -38 -38c-20 0 -38 17 -38 38s18 38 38 38zM356 624c21 0 39 -17 39 -38c0 -20 -18 -38 -39 -38c-20 0 -37 17 -37 38s17 38 37 38zM337 653l-120 -133h-47l104 151z" />
    <glyph glyph-name="Alphatonos" unicode="&#x386;" horiz-adv-x="612" 
d="M597 0h-60l-68 161h-327l-68 -161h-59l285 667h14zM307 543h-4l-140 -333h285zM170 663l-120 -133h-47l104 151z" />
    <glyph glyph-name="anoteleia" unicode="&#x387;" horiz-adv-x="192" 
d="M142 350c0 -25 -21 -46 -46 -46c-40 0 -62 50 -33 79s79 7 79 -33z" />
    <glyph glyph-name="Epsilontonos" unicode="&#x388;" horiz-adv-x="556" 
d="M144 53h382v-53h-441v662h414v-52h-355v-234h330v-52h-330v-271zM37 663l-120 -133h-47l104 151z" />
    <glyph glyph-name="Etatonos" unicode="&#x389;" horiz-adv-x="668" 
d="M583 662v-662h-57v324h-383v-324h-58v662h58v-286h383v286h57zM35 662l-120 -133h-47l104 151z" />
    <glyph glyph-name="Iotatonos" unicode="&#x38a;" horiz-adv-x="248" 
d="M153 662v-662h-58v662h58zM54 662l-120 -133h-47l104 151z" />
    <glyph glyph-name="Omicrontonos" unicode="&#x38c;" horiz-adv-x="787" 
d="M395 -10c-105 0 -188 32 -249 96s-91 146 -91 245c0 95 33 176 99 242c67 66 147 99 241 99c97 0 177 -33 241 -99c64 -65 96 -146 96 -242c0 -97 -32 -178 -96 -243c-63 -65 -144 -98 -241 -98zM116 331c0 -84 25 -153 75 -207c51 -54 119 -81 204 -81
c83 0 150 28 201 83c52 56 78 124 78 205s-26 149 -79 204c-52 56 -119 84 -200 84s-148 -28 -201 -83c-52 -55 -78 -124 -78 -205zM78 662l-120 -133h-47l104 151z" />
    <glyph glyph-name="Upsilontonos" unicode="&#x38e;" 
d="M75 662l204 -311h4l186 311h61l-221 -367v-295h-58v295l-241 367h65zM-9 663l-120 -133h-47l104 151z" />
    <glyph glyph-name="Omegatonos" unicode="&#x38f;" horiz-adv-x="779" 
d="M393 621c-83 0 -152 -28 -205 -83s-79 -124 -79 -206c0 -41 6 -81 19 -122c25 -81 91 -165 180 -198v-12h-258v52h119v4c-77 63 -119 162 -119 266c0 100 33 183 98 250c66 67 148 101 245 101c95 0 175 -33 239 -100c64 -66 96 -147 96 -242c0 -105 -40 -208 -119 -275
v-4h120v-52h-257v12c143 52 199 205 199 320c0 77 -25 145 -76 202c-50 58 -117 87 -202 87zM70 661l-120 -133h-47l104 151z" />
    <glyph glyph-name="iotadieresistonos" unicode="&#x390;" horiz-adv-x="217" 
d="M7 624c21 0 38 -17 38 -38c0 -20 -17 -38 -38 -38c-20 0 -38 17 -38 38s18 38 38 38zM221 624c21 0 39 -17 39 -38c0 -20 -18 -38 -39 -38c-20 0 -37 17 -37 38s17 38 37 38zM202 653l-120 -133h-47l104 151zM137 445v-445h-57v445h57z" />
    <glyph glyph-name="Alpha" unicode="&#x391;" horiz-adv-x="612" 
d="M597 0h-60l-68 161h-327l-68 -161h-59l285 667h14zM307 543h-4l-140 -333h285z" />
    <glyph glyph-name="Beta" unicode="&#x392;" horiz-adv-x="604" 
d="M491 193c0 83 -66 137 -169 137h-179v-277h190c58 0 99 14 122 42c24 28 36 61 36 98zM326 610h-183v-229h173c50 0 137 21 137 117c0 67 -47 112 -127 112zM421 361v-4c88 -23 128 -92 128 -167c0 -57 -19 -103 -58 -138s-88 -52 -148 -52h-258v662h233
c115 0 193 -54 193 -159c0 -57 -33 -115 -90 -142z" />
    <glyph glyph-name="Gamma" unicode="&#x393;" horiz-adv-x="516" 
d="M501 610h-358v-610h-58v662h416v-52z" />
    <glyph glyph-name="increment" unicode="&#x394;" horiz-adv-x="638" 
d="M314 669h12l298 -669h-607zM319 554h-1l-220 -503h442z" />
    <glyph glyph-name="increment" unicode="&#x2206;" horiz-adv-x="638" 
d="M314 669h12l298 -669h-607zM319 554h-1l-220 -503h442z" />
    <glyph glyph-name="Epsilon" unicode="&#x395;" horiz-adv-x="556" 
d="M144 53h382v-53h-441v662h414v-52h-355v-234h330v-52h-330v-271z" />
    <glyph glyph-name="Zeta" unicode="&#x396;" horiz-adv-x="500" 
d="M60 662h417v-9l-364 -601h367v-52h-460v9l368 601h-328v52z" />
    <glyph glyph-name="Eta" unicode="&#x397;" horiz-adv-x="668" 
d="M583 662v-662h-57v324h-383v-324h-58v662h58v-286h383v286h57z" />
    <glyph glyph-name="Theta" unicode="&#x398;" horiz-adv-x="787" 
d="M396 -11c-105 0 -188 32 -249 97s-92 147 -92 246c0 95 33 176 99 242c67 67 147 100 242 100c97 0 178 -33 242 -99c64 -65 96 -146 96 -243s-32 -179 -96 -245c-63 -65 -144 -98 -242 -98zM115 332c0 -85 25 -154 76 -209s119 -82 205 -82c83 0 151 28 202 84
c52 56 78 125 78 207c0 81 -26 149 -79 205s-120 84 -201 84s-149 -28 -202 -84c-53 -55 -79 -124 -79 -205zM580 322h-369v52h369v-52z" />
    <glyph glyph-name="Iota" unicode="&#x399;" horiz-adv-x="248" 
d="M153 662v-662h-58v662h58z" />
    <glyph glyph-name="Kappa" unicode="&#x39a;" horiz-adv-x="580" 
d="M85 662h58v-314l324 314h72l-323 -318l354 -344h-82l-345 339v-339h-58v662z" />
    <glyph glyph-name="Lambda" unicode="&#x39b;" horiz-adv-x="612" 
d="M597 0h-60l-230 546h-4l-229 -546h-59l286 669h12z" />
    <glyph glyph-name="Mu" unicode="&#x39c;" horiz-adv-x="815" 
d="M673 519l-259 -366h-14l-258 358l-2 -3v-508h-55v667h15l308 -437l307 437h15v-667h-55l1 517z" />
    <glyph glyph-name="Nu" unicode="&#x39d;" horiz-adv-x="721" 
d="M141 542v-542h-56v671h15l476 -546h4v537h56v-669h-15l-477 549h-3z" />
    <glyph glyph-name="Xi" unicode="&#x39e;" horiz-adv-x="566" 
d="M35 0v56h496v-56h-496zM93 324v54h384v-54h-384zM518 662v-54h-470v54h470z" />
    <glyph glyph-name="Omicron" unicode="&#x39f;" horiz-adv-x="787" 
d="M395 -10c-105 0 -188 32 -249 96s-91 146 -91 245c0 95 33 176 99 242c67 66 147 99 241 99c97 0 177 -33 241 -99c64 -65 96 -146 96 -242c0 -97 -32 -178 -96 -243c-63 -65 -144 -98 -241 -98zM116 331c0 -84 25 -153 75 -207c51 -54 119 -81 204 -81
c83 0 150 28 201 83c52 56 78 124 78 205s-26 149 -79 204c-52 56 -119 84 -200 84s-148 -28 -201 -83c-52 -55 -78 -124 -78 -205z" />
    <glyph glyph-name="Pi" unicode="&#x3a0;" horiz-adv-x="674" 
d="M589 662v-662h-58v610h-388v-610h-58v662h504z" />
    <glyph glyph-name="Rho" unicode="&#x3a1;" horiz-adv-x="563" 
d="M143 0h-59v661h217c73 0 129 -21 170 -62s61 -91 61 -150c0 -67 -23 -120 -68 -159c-45 -38 -101 -57 -166 -57h-155v-233zM280 613h-137v-332h148c59 0 103 16 133 49s45 72 45 118c0 45 -16 84 -48 116c-31 33 -78 49 -141 49z" />
    <glyph glyph-name="Sigma" unicode="&#x3a3;" 
d="M133 610l167 -251l-185 -307h410v-52h-500v9l209 348l-196 296v9h469v-52h-374z" />
    <glyph glyph-name="Tau" unicode="&#x3a4;" horiz-adv-x="523" 
d="M508 662v-52h-216v-610h-59v610h-218v52h493z" />
    <glyph glyph-name="Upsilon" unicode="&#x3a5;" 
d="M75 662l204 -311h4l186 311h61l-221 -367v-295h-58v295l-241 367h65z" />
    <glyph glyph-name="Phi" unicode="&#x3a6;" horiz-adv-x="818" 
d="M438 68v-68h-58v68c-93 3 -171 30 -233 81c-61 51 -92 116 -92 194s32 142 95 193s140 79 230 82v44h58v-44c91 -3 168 -30 231 -81s94 -116 94 -194s-30 -142 -89 -191s-138 -77 -236 -84zM707 344c0 63 -25 115 -76 156c-50 41 -114 63 -193 67v-446
c168 5 269 94 269 223zM380 121v445c-79 -5 -143 -28 -192 -68s-73 -92 -73 -155c0 -128 100 -210 265 -222z" />
    <glyph glyph-name="Chi" unicode="&#x3a7;" horiz-adv-x="606" 
d="M596 0h-67l-225 329l-231 -329h-63l236 341l-218 320h63l213 -307l211 307h64l-221 -319z" />
    <glyph glyph-name="Psi" unicode="&#x3a8;" horiz-adv-x="731" 
d="M393 194v-194h-58v194c-79 3 -142 28 -189 76c-47 49 -71 111 -71 186v206h57v-197c0 -58 18 -108 53 -149c36 -41 86 -63 150 -67v413h58v-413c132 7 205 93 205 213v200h58v-208c0 -73 -24 -134 -71 -182s-111 -74 -192 -78z" />
    <glyph glyph-name="Omega" unicode="&#x3a9;" horiz-adv-x="779" 
d="M393 621c-83 0 -152 -28 -205 -83s-79 -124 -79 -206c0 -41 6 -81 19 -122c25 -81 91 -165 180 -198v-12h-258v52h119v4c-77 63 -119 162 -119 266c0 100 33 183 98 250c66 67 148 101 245 101c95 0 175 -33 239 -100c64 -66 96 -147 96 -242c0 -105 -40 -208 -119 -275
v-4h120v-52h-257v12c143 52 199 205 199 320c0 77 -25 145 -76 202c-50 58 -117 87 -202 87z" />
    <glyph glyph-name="Iotadieresis" unicode="&#x3aa;" horiz-adv-x="248" 
d="M153 662v-662h-58v662h58zM44 758c-23 0 -38 16 -38 37c0 19 18 37 38 37c47 0 47 -74 0 -74zM240 795c6 -49 -80 -49 -74 0c0 19 17 37 37 37c21 0 37 -16 37 -37z" />
    <glyph glyph-name="Upsilondieresis" unicode="&#x3ab;" 
d="M75 662l204 -311h4l186 311h61l-221 -367v-295h-58v295l-241 367h65zM200 735c-23 0 -38 16 -38 37c0 19 18 37 38 37c47 0 47 -74 0 -74zM322 772c0 19 17 37 37 37c33 0 49 -40 27 -64c-21 -22 -68 -6 -64 27z" />
    <glyph glyph-name="alphatonos" unicode="&#x3ac;" horiz-adv-x="579" 
d="M280 453c65 0 131 -29 166 -77l15 68h43v-444h-43l-12 70l-3 1c-40 -54 -96 -81 -167 -81s-127 21 -168 64s-61 99 -61 168c0 65 22 119 67 164s99 67 163 67zM108 222c0 -53 15 -97 46 -132s74 -52 127 -52c51 0 93 18 124 53s47 79 47 131c0 51 -16 94 -48 129
c-31 35 -72 53 -123 53s-92 -18 -125 -53c-32 -35 -48 -78 -48 -129zM410 664l-120 -133h-47l104 151z" />
    <glyph glyph-name="epsilontonos" unicode="&#x3ad;" horiz-adv-x="409" 
d="M233 -10c-121 0 -188 56 -188 132c0 43 27 95 82 116v3c-47 17 -70 46 -70 88c0 73 67 127 170 127c47 0 91 -10 132 -30v-54c-41 24 -86 36 -136 36c-61 0 -108 -29 -108 -78c0 -44 40 -63 84 -63h74v-47h-60c-73 0 -111 -38 -111 -90c0 -53 44 -93 133 -93
c52 0 100 16 144 49v-57c-43 -26 -92 -39 -146 -39zM335 664l-120 -133h-47l104 151z" />
    <glyph glyph-name="etatonos" unicode="&#x3ae;" horiz-adv-x="535" 
d="M460 266v-266h-57v255c0 93 -41 150 -116 150c-89 0 -155 -60 -155 -175v-230h-57v445h44l10 -67h3c42 51 95 77 158 77c109 0 170 -69 170 -189zM365 664l-120 -133h-47l104 151z" />
    <glyph glyph-name="iotatonos" unicode="&#x3af;" horiz-adv-x="217" 
d="M137 445v-445h-57v445h57zM235 664l-120 -133h-47l104 151z" />
    <glyph glyph-name="upsilondieresistonos" unicode="&#x3b0;" horiz-adv-x="518" 
d="M159 624c21 0 38 -17 38 -38c0 -20 -17 -38 -38 -38c-20 0 -38 17 -38 38s18 38 38 38zM373 624c21 0 39 -17 39 -38c0 -20 -18 -38 -39 -38c-20 0 -37 17 -37 38s17 38 37 38zM354 653l-120 -133h-47l104 151zM391 189v256h57v-256c0 -124 -66 -199 -189 -199
c-124 0 -189 73 -189 200v255h55v-253c0 -93 42 -152 134 -152c88 0 132 56 132 149z" />
    <glyph glyph-name="alpha" unicode="&#x3b1;" horiz-adv-x="579" 
d="M280 453c65 0 131 -29 166 -77l15 68h43v-444h-43l-12 70l-3 1c-40 -54 -96 -81 -167 -81s-127 21 -168 64s-61 99 -61 168c0 65 22 119 67 164s99 67 163 67zM108 222c0 -53 15 -97 46 -132s74 -52 127 -52c51 0 93 18 124 53s47 79 47 131c0 51 -16 94 -48 129
c-31 35 -72 53 -123 53s-92 -18 -125 -53c-32 -35 -48 -78 -48 -129z" />
    <glyph glyph-name="beta" unicode="&#x3b2;" horiz-adv-x="557" 
d="M121 71v-286h-56v723c0 64 18 116 55 156s87 60 150 60c55 0 100 -16 135 -48c35 -31 53 -72 53 -121c0 -11 -1 -22 -4 -35c-5 -25 -32 -72 -76 -95v-5c37 -11 69 -36 95 -73s39 -79 39 -126c0 -62 -20 -116 -61 -162s-94 -69 -160 -69c-80 0 -140 34 -167 81h-3zM287 39
c99 0 167 72 167 185c-2 124 -90 173 -177 170h-29v48h32c102 0 120 68 120 114c0 76 -60 121 -128 121c-126 0 -151 -104 -151 -168v-292c0 -48 14 -90 43 -125s70 -53 123 -53z" />
    <glyph glyph-name="gamma" unicode="&#x3b3;" horiz-adv-x="434" 
d="M70 445l143 -339h6l147 339h58l-180 -409v-251h-56v247l-180 413h62z" />
    <glyph glyph-name="delta" unicode="&#x3b4;" horiz-adv-x="554" 
d="M449 222c0 101 -58 169 -173 203c-55 -9 -98 -34 -128 -74c-29 -39 -44 -82 -44 -129c0 -53 15 -98 46 -133s73 -52 127 -52c52 0 94 18 125 53c31 36 47 80 47 132zM285 724c59 0 109 -11 149 -32v-56c-47 27 -94 41 -140 41c-75 0 -124 -31 -124 -91
c0 -68 83 -88 168 -128c29 -15 56 -31 81 -48c49 -35 87 -101 87 -188c0 -66 -22 -121 -65 -166c-43 -44 -98 -66 -164 -66c-71 0 -127 22 -169 65c-41 44 -62 100 -62 167c0 48 15 94 44 138s70 74 123 91v4c-60 24 -99 71 -99 128c0 80 66 141 171 141z" />
    <glyph glyph-name="epsilon" unicode="&#x3b5;" horiz-adv-x="409" 
d="M233 -10c-121 0 -188 56 -188 132c0 43 27 95 82 116v3c-47 17 -70 46 -70 88c0 73 67 127 170 127c47 0 91 -10 132 -30v-54c-41 24 -86 36 -136 36c-61 0 -108 -29 -108 -78c0 -44 40 -63 84 -63h74v-47h-60c-73 0 -111 -38 -111 -90c0 -53 44 -93 133 -93
c52 0 100 16 144 49v-57c-43 -26 -92 -39 -146 -39z" />
    <glyph glyph-name="zeta" unicode="&#x3b6;" horiz-adv-x="386" 
d="M346 661l-2 4h-277v46h391v-10c-107 -91 -193 -180 -259 -267c-65 -87 -98 -160 -98 -217c0 -39 15 -69 44 -90s85 -48 167 -80c75 -29 101 -52 101 -89c0 -28 -39 -84 -84 -127l-42 16c42 55 63 91 63 110c0 16 -23 27 -106 59c-72 27 -123 54 -154 81s-46 67 -46 118
c0 57 29 126 86 209s129 162 216 237z" />
    <glyph glyph-name="eta" unicode="&#x3b7;" horiz-adv-x="535" 
d="M460 266v-266h-57v255c0 93 -41 150 -116 150c-89 0 -155 -60 -155 -175v-230h-57v445h44l10 -67h3c42 51 95 77 158 77c109 0 170 -69 170 -189z" />
    <glyph glyph-name="theta" unicode="&#x3b8;" horiz-adv-x="547" 
d="M497 353c0 -111 -19 -199 -58 -265c-39 -65 -96 -98 -171 -98s-130 33 -165 99c-35 67 -53 155 -53 266c0 109 18 197 54 266c37 69 93 103 168 103c74 0 130 -34 168 -102c38 -67 57 -157 57 -269zM109 394h330c-3 83 -18 150 -47 202c-29 53 -69 79 -120 79
c-50 0 -89 -26 -116 -79c-27 -52 -43 -119 -47 -202zM441 346h-333c3 -172 52 -306 161 -308c119 2 170 138 172 308z" />
    <glyph glyph-name="iota" unicode="&#x3b9;" horiz-adv-x="217" 
d="M137 445v-445h-57v445h57z" />
    <glyph glyph-name="kappa" unicode="&#x3ba;" horiz-adv-x="477" 
d="M373 444h75l-248 -208l272 -236h-84l-258 227v-227h-55v444h55v-204z" />
    <glyph glyph-name="lambda" unicode="&#x3bb;" horiz-adv-x="460" 
d="M390 0l-152 368h-4l-164 -368h-60l198 440l-111 271h58l295 -711h-60z" />
    <glyph glyph-name="nu" unicode="&#x3bd;" horiz-adv-x="459" 
d="M444 445l-211 -451h-11l-207 451h62l151 -339h5l151 339h60z" />
    <glyph glyph-name="xi" unicode="&#x3be;" horiz-adv-x="415" 
d="M263 676c-89 0 -137 -55 -137 -118c0 -85 68 -124 152 -124h98v-47h-104c-53 0 -93 -16 -120 -48s-40 -70 -40 -115c0 -41 15 -72 46 -94c31 -21 83 -44 157 -68c89 -28 115 -54 115 -91c0 -28 -25 -73 -74 -134l-47 14c37 54 55 91 55 111c0 23 -18 34 -85 55
c-81 25 -139 52 -174 82s-52 71 -52 122c0 79 39 152 122 187v5c-72 23 -109 78 -109 146c0 43 16 81 48 114c33 34 82 51 147 51c55 0 105 -13 148 -38v-59c-47 33 -95 49 -146 49z" />
    <glyph glyph-name="omicron" unicode="&#x3bf;" horiz-adv-x="560" 
d="M281 -10c-71 0 -127 22 -169 66c-41 44 -62 100 -62 167c0 65 22 119 67 164s100 68 164 68c66 0 121 -22 164 -67s65 -100 65 -165c0 -66 -22 -121 -66 -166c-43 -45 -98 -67 -163 -67zM281 407c-51 0 -92 -18 -125 -54c-32 -35 -48 -79 -48 -130c0 -53 15 -98 46 -133
s74 -52 127 -52c52 0 94 18 125 53c31 36 47 80 47 132c0 51 -16 95 -48 130c-31 36 -73 54 -124 54z" />
    <glyph glyph-name="pi" unicode="&#x3c0;" horiz-adv-x="536" 
d="M461 445v-445h-58v393h-271v-393h-57v445h386z" />
    <glyph glyph-name="rho" unicode="&#x3c1;" horiz-adv-x="577" 
d="M129 67l-6 -3v-279h-58v427c0 41 8 80 24 116c33 72 109 128 206 128c67 0 123 -23 166 -68c44 -45 66 -100 66 -165c0 -66 -21 -121 -64 -166c-42 -44 -96 -66 -163 -66c-72 0 -129 25 -171 76zM470 223c0 51 -16 94 -48 130c-31 36 -73 54 -126 54
c-52 0 -94 -18 -126 -55c-31 -37 -47 -81 -47 -133c0 -49 16 -92 47 -127s74 -52 127 -52c51 0 92 17 124 50c33 33 49 78 49 133z" />
    <glyph glyph-name="sigma1" unicode="&#x3c2;" horiz-adv-x="403" 
d="M45 227c0 69 21 124 62 166c42 42 96 63 162 63c43 0 79 -7 109 -20v-55c-30 18 -65 27 -105 27c-101 0 -172 -64 -172 -180c0 -77 33 -124 138 -167c68 -27 109 -47 122 -58c11 -9 16 -20 16 -32c0 -20 -21 -62 -73 -111l-46 13c35 43 53 71 53 85c0 7 -5 13 -21 21
l-21 10c-12 5 -46 19 -61 26c-63 27 -106 56 -129 87s-34 73 -34 125z" />
    <glyph glyph-name="sigma" unicode="&#x3c3;" horiz-adv-x="549" 
d="M529 398h-111l-2 -4c52 -37 84 -106 84 -177c0 -64 -22 -118 -65 -162c-43 -43 -96 -65 -160 -65c-69 0 -123 21 -164 64s-61 98 -61 163c0 64 22 118 66 162s97 66 160 66h253v-47zM275 397c-49 0 -90 -17 -121 -52s-47 -77 -47 -128c0 -104 64 -180 168 -180
c51 0 92 17 123 52s46 77 46 128s-15 94 -46 128c-30 35 -71 52 -123 52z" />
    <glyph glyph-name="tau" unicode="&#x3c4;" horiz-adv-x="365" 
d="M15 399v46h327v-46h-152v-272c0 -56 15 -83 66 -83c29 0 57 9 84 28v-52c-26 -19 -56 -29 -90 -29c-89 0 -117 48 -117 136v272h-118z" />
    <glyph glyph-name="upsilon" unicode="&#x3c5;" horiz-adv-x="518" 
d="M391 189v256h57v-256c0 -124 -66 -199 -189 -199c-124 0 -189 73 -189 200v255h55v-253c0 -93 42 -152 134 -152c88 0 132 56 132 149z" />
    <glyph glyph-name="phi" unicode="&#x3c6;" horiz-adv-x="675" 
d="M364 408v-369c63 4 113 23 150 57c37 35 56 77 56 126c0 53 -17 96 -51 131c-33 35 -85 54 -155 55zM310 39v416h57c78 0 140 -21 187 -62s71 -97 71 -166c0 -63 -24 -117 -73 -162s-111 -69 -188 -72v-211h-54v211c-78 1 -141 24 -189 68c-47 44 -71 98 -71 161
c0 112 70 197 179 224l27 -43c-97 -21 -151 -93 -151 -181c0 -50 19 -93 56 -128c38 -35 88 -54 149 -55z" />
    <glyph glyph-name="chi" unicode="&#x3c7;" horiz-adv-x="452" 
d="M442 0h-65l-150 216l-155 -216h-62l162 228l-152 217h62l145 -205l144 205h62l-154 -216z" />
    <glyph glyph-name="psi" unicode="&#x3c8;" horiz-adv-x="625" 
d="M339 -219h-54v209c-67 1 -120 21 -158 62s-57 93 -57 157v236h55v-234c0 -95 56 -166 160 -170v404h54v-404c107 3 160 69 160 174v230h56v-237c0 -125 -80 -213 -216 -218v-209z" />
    <glyph glyph-name="omega" unicode="&#x3c9;" horiz-adv-x="749" 
d="M699 221c0 -61 -16 -114 -48 -161c-31 -46 -78 -69 -139 -69c-64 0 -116 35 -137 82h-5c-37 -55 -85 -82 -145 -82c-115 0 -175 88 -175 224c0 65 17 120 50 166s80 70 139 73l19 -47c-95 -4 -149 -82 -149 -187c0 -108 42 -181 122 -181c76 0 113 60 113 128v140h58
v-144c0 -69 47 -124 112 -124c40 0 71 17 94 52s34 78 34 129c0 104 -57 183 -149 187l18 48c62 -3 109 -27 140 -72c32 -45 48 -99 48 -162z" />
    <glyph glyph-name="iotadieresis" unicode="&#x3ca;" horiz-adv-x="217" 
d="M31 549c-23 0 -38 16 -38 37c0 19 18 37 38 37c47 0 47 -74 0 -74zM153 586c0 19 17 37 37 37c32 0 50 -40 26 -64c-22 -22 -63 -5 -63 27zM137 445v-445h-57v445h57z" />
    <glyph glyph-name="upsilondieresis" unicode="&#x3cb;" horiz-adv-x="518" 
d="M391 189v256h57v-256c0 -124 -66 -199 -189 -199c-124 0 -189 73 -189 200v255h55v-253c0 -93 42 -152 134 -152c88 0 132 56 132 149zM184 549c-23 0 -38 16 -38 37c0 19 18 37 38 37c47 0 47 -74 0 -74zM306 586c0 19 17 37 37 37c33 0 49 -40 27 -64
c-21 -22 -68 -6 -64 27z" />
    <glyph glyph-name="omicrontonos" unicode="&#x3cc;" horiz-adv-x="560" 
d="M281 -10c-71 0 -127 22 -169 66c-41 44 -62 100 -62 167c0 65 22 119 67 164s100 68 164 68c66 0 121 -22 164 -67s65 -100 65 -165c0 -66 -22 -121 -66 -166c-43 -45 -98 -67 -163 -67zM281 407c-51 0 -92 -18 -125 -54c-32 -35 -48 -79 -48 -130c0 -53 15 -98 46 -133
s74 -52 127 -52c52 0 94 18 125 53c31 36 47 80 47 132c0 51 -16 95 -48 130c-31 36 -73 54 -124 54zM413 664l-120 -133h-47l104 151z" />
    <glyph glyph-name="upsilontonos" unicode="&#x3cd;" horiz-adv-x="518" 
d="M391 189v256h57v-256c0 -124 -66 -199 -189 -199c-124 0 -189 73 -189 200v255h55v-253c0 -93 42 -152 134 -152c88 0 132 56 132 149zM379 664l-120 -133h-47l104 151z" />
    <glyph glyph-name="omegatonos" unicode="&#x3ce;" horiz-adv-x="749" 
d="M699 221c0 -61 -16 -114 -48 -161c-31 -46 -78 -69 -139 -69c-64 0 -116 35 -137 82h-5c-37 -55 -85 -82 -145 -82c-115 0 -175 88 -175 224c0 65 17 120 50 166s80 70 139 73l19 -47c-95 -4 -149 -82 -149 -187c0 -108 42 -181 122 -181c76 0 113 60 113 128v140h58
v-144c0 -69 47 -124 112 -124c40 0 71 17 94 52s34 78 34 129c0 104 -57 183 -149 187l18 48c62 -3 109 -27 140 -72c32 -45 48 -99 48 -162zM499 664l-120 -133h-47l104 151z" />
    <glyph glyph-name="afii10023" unicode="&#x401;" horiz-adv-x="556" 
d="M144 53h382v-53h-441v662h414v-52h-355v-234h330v-52h-330v-271zM217 758c-23 0 -38 16 -38 37c0 19 18 37 38 37c47 0 47 -74 0 -74zM413 795c0 -49 -74 -49 -74 0c0 19 17 37 37 37c21 0 37 -16 37 -37z" />
    <glyph glyph-name="afii10051" unicode="&#x402;" horiz-adv-x="780" 
d="M528 662v-52h-236v-232c63 26 124 39 183 39c81 0 144 -24 188 -71s66 -105 66 -173c0 -131 -68 -241 -180 -290l-46 34c111 51 166 136 166 253c0 56 -17 103 -52 140c-35 38 -85 57 -151 57c-57 0 -115 -12 -174 -37v-330h-59v610h-218v52h513z" />
    <glyph glyph-name="afii10052" unicode="&#x403;" horiz-adv-x="516" 
d="M501 610h-358v-610h-58v662h416v-52zM411 852l-137 -119h-51l121 137z" />
    <glyph glyph-name="afii10053" unicode="&#x404;" horiz-adv-x="611" 
d="M586 96v-57c-49 -31 -130 -48 -195 -48c-105 0 -188 31 -247 94s-89 144 -89 242c0 99 33 182 98 247c65 66 146 99 242 99c72 0 127 -10 165 -31v-57c-49 24 -103 36 -160 36c-72 0 -134 -22 -187 -66s-84 -104 -94 -179h358v-52h-361c1 -85 26 -154 75 -205
s118 -76 206 -76c64 0 127 18 189 53z" />
    <glyph glyph-name="afii10054" unicode="&#x405;" horiz-adv-x="485" 
d="M35 44v62c60 -42 123 -63 188 -63c101 0 169 40 169 123c0 192 -342 148 -342 340c0 53 19 94 58 123s83 43 133 43c64 0 120 -14 168 -41v-62c-49 33 -102 50 -160 50c-80 0 -139 -33 -139 -110c0 -51 53 -88 120 -116c96 -39 222 -89 220 -217
c0 -123 -88 -186 -219 -186c-76 0 -141 18 -196 54z" />
    <glyph glyph-name="afii10055" unicode="&#x406;" horiz-adv-x="248" 
d="M153 662v-662h-58v662h58z" />
    <glyph glyph-name="afii10056" unicode="&#x407;" horiz-adv-x="248" 
d="M153 662v-662h-58v662h58zM46 758c-23 0 -38 16 -38 37c0 19 18 37 38 37c47 0 47 -74 0 -74zM242 795c6 -49 -80 -49 -74 0c0 19 17 37 37 37c21 0 37 -16 37 -37z" />
    <glyph glyph-name="afii10057" unicode="&#x408;" horiz-adv-x="445" 
d="M144 44c61 0 102 17 124 50c23 34 34 81 34 140v428h58v-418c0 -143 -46 -254 -217 -254c-55 0 -99 10 -133 30v61c33 -23 94 -37 134 -37z" />
    <glyph glyph-name="afii10058" unicode="&#x409;" horiz-adv-x="1024" 
d="M477 613h-241l-38 -372c-9 -86 -24 -148 -47 -187c-22 -38 -62 -62 -121 -72l-25 46c49 11 82 30 99 56c18 26 30 69 36 128l44 449h354v-259h203c147 0 233 -81 233 -204c0 -62 -21 -111 -62 -146s-93 -52 -154 -52h-281v613zM746 349h-208v-296h222
c91 0 155 49 155 145s-73 151 -169 151z" />
    <glyph glyph-name="afii10059" unicode="&#x40a;" horiz-adv-x="1049" 
d="M783 0h-281v340h-359v-340h-58v662h58v-270h359v270h60v-270h204c147 0 233 -78 233 -199c0 -62 -21 -110 -62 -143s-92 -50 -154 -50zM771 339h-209v-286h223c92 0 155 44 155 140s-72 146 -169 146z" />
    <glyph glyph-name="afii10060" unicode="&#x40b;" horiz-adv-x="777" 
d="M529 662v-52h-237l1 -238c63 23 128 35 195 35c143 0 209 -73 209 -189v-218h-59v203c0 99 -43 154 -167 154c-63 0 -122 -12 -178 -35l-1 -322h-59v610h-218v52h514z" />
    <glyph glyph-name="afii10061" unicode="&#x40c;" horiz-adv-x="580" 
d="M85 662h58v-314l324 314h72l-323 -318l354 -344h-82l-345 339v-339h-58v662zM415 854l-137 -119h-51l121 137z" />
    <glyph glyph-name="afii10062" unicode="&#x40e;" horiz-adv-x="569" 
d="M256 127l7 16l-253 518h62l217 -450h4l207 450h59l-260 -564c-37 -79 -77 -107 -140 -107c-38 0 -74 8 -107 24v58c35 -20 70 -30 103 -30c43 0 76 28 101 85zM379 858h47c-3 -75 -49 -135 -129 -135c-76 0 -123 59 -126 135h47c0 -53 30 -95 78 -95c51 0 79 32 83 95z
" />
    <glyph glyph-name="afii10145" unicode="&#x40f;" horiz-adv-x="677" 
d="M534 52v610h58v-662h-220v-159h-61v159h-226v662h58v-610h391z" />
    <glyph glyph-name="afii10017" unicode="&#x410;" horiz-adv-x="612" 
d="M597 0h-60l-68 161h-327l-68 -161h-59l285 667h14zM307 543h-4l-140 -333h285z" />
    <glyph glyph-name="afii10018" unicode="&#x411;" horiz-adv-x="632" 
d="M366 0h-281v662h416v-51h-356v-209h204c147 0 233 -81 233 -204c0 -62 -21 -111 -62 -146s-93 -52 -154 -52zM354 349h-209v-296h223c91 0 155 49 155 145s-73 151 -169 151z" />
    <glyph glyph-name="afii10019" unicode="&#x412;" horiz-adv-x="604" 
d="M491 193c0 83 -66 137 -169 137h-179v-277h190c58 0 99 14 122 42c24 28 36 61 36 98zM326 610h-183v-229h173c50 0 137 21 137 117c0 67 -47 112 -127 112zM421 361v-4c88 -23 128 -92 128 -167c0 -57 -19 -103 -58 -138s-88 -52 -148 -52h-258v662h233
c115 0 193 -54 193 -159c0 -57 -33 -115 -90 -142z" />
    <glyph glyph-name="afii10020" unicode="&#x413;" horiz-adv-x="516" 
d="M501 610h-358v-610h-58v662h416v-52z" />
    <glyph glyph-name="afii10021" unicode="&#x414;" horiz-adv-x="791" 
d="M248 661h412v-609h91v-211h-61v159h-620v-159h-60v211h83c44 44 71 91 90 174c10 41 17 76 21 103c5 28 11 74 19 137zM600 611h-304l-22 -181c-12 -100 -26 -178 -41 -233s-39 -104 -72 -145h439v559z" />
    <glyph glyph-name="afii10022" unicode="&#x415;" horiz-adv-x="556" 
d="M144 53h382v-53h-441v662h414v-52h-355v-234h330v-52h-330v-271z" />
    <glyph glyph-name="afii10024" unicode="&#x416;" horiz-adv-x="908" 
d="M111 662l314 -314v314h58v-314l314 314h72l-313 -318l344 -344h-82l-335 339v-339h-58v339l-335 -339h-82l344 344l-313 318h72z" />
    <glyph glyph-name="afii10025" unicode="&#x417;" horiz-adv-x="571" 
d="M232 -10c-33 0 -70 4 -111 13c-40 9 -72 21 -96 36v57c62 -35 127 -53 194 -53c157 0 237 62 237 157c0 41 -19 74 -56 97c-37 24 -84 36 -141 36h-79v51h77c113 0 175 52 175 121c0 71 -74 116 -178 116c-27 0 -60 -4 -99 -12c-39 -7 -73 -19 -104 -34v57
c56 25 142 42 206 42c147 0 237 -62 237 -166c0 -60 -41 -123 -114 -143v-5c88 -16 136 -80 136 -160c0 -61 -25 -112 -74 -151s-119 -59 -210 -59z" />
    <glyph glyph-name="afii10026" unicode="&#x418;" horiz-adv-x="721" 
d="M636 668v-668h-56l1 541h-3l-479 -545h-14v666h56v-536h4l478 542h13z" />
    <glyph glyph-name="afii10027" unicode="&#x419;" horiz-adv-x="721" 
d="M636 668v-668h-56l1 541h-3l-479 -545h-14v666h56v-536h4l478 542h13zM444 862h47c-3 -75 -49 -135 -129 -135c-76 0 -123 59 -126 135h47c0 -53 30 -95 78 -95c51 0 79 32 83 95z" />
    <glyph glyph-name="afii10028" unicode="&#x41a;" horiz-adv-x="580" 
d="M85 662h58v-314l324 314h72l-323 -318l354 -344h-82l-345 339v-339h-58v662z" />
    <glyph glyph-name="afii10029" unicode="&#x41b;" horiz-adv-x="633" 
d="M488 0v613h-252l-38 -372c-9 -86 -24 -148 -47 -187c-22 -38 -62 -62 -121 -72l-25 46c49 11 82 30 99 56c18 26 30 69 36 128l44 449h364v-661h-60z" />
    <glyph glyph-name="afii10030" unicode="&#x41c;" horiz-adv-x="815" 
d="M673 519l-259 -366h-14l-258 358l-2 -3v-508h-55v667h15l308 -437l307 437h15v-667h-55l1 517z" />
    <glyph glyph-name="afii10031" unicode="&#x41d;" horiz-adv-x="668" 
d="M583 662v-662h-57v324h-383v-324h-58v662h58v-286h383v286h57z" />
    <glyph glyph-name="afii10032" unicode="&#x41e;" horiz-adv-x="787" 
d="M395 -10c-105 0 -188 32 -249 96s-91 146 -91 245c0 95 33 176 99 242c67 66 147 99 241 99c97 0 177 -33 241 -99c64 -65 96 -146 96 -242c0 -97 -32 -178 -96 -243c-63 -65 -144 -98 -241 -98zM116 331c0 -84 25 -153 75 -207c51 -54 119 -81 204 -81
c83 0 150 28 201 83c52 56 78 124 78 205s-26 149 -79 204c-52 56 -119 84 -200 84s-148 -28 -201 -83c-52 -55 -78 -124 -78 -205z" />
    <glyph glyph-name="afii10033" unicode="&#x41f;" horiz-adv-x="674" 
d="M589 662v-662h-58v610h-388v-610h-58v662h504z" />
    <glyph glyph-name="afii10034" unicode="&#x420;" horiz-adv-x="563" 
d="M143 0h-59v661h217c73 0 129 -21 170 -62s61 -91 61 -150c0 -67 -23 -120 -68 -159c-45 -38 -101 -57 -166 -57h-155v-233zM280 613h-137v-332h148c59 0 103 16 133 49s45 72 45 118c0 45 -16 84 -48 116c-31 33 -78 49 -141 49z" />
    <glyph glyph-name="afii10035" unicode="&#x421;" horiz-adv-x="611" 
d="M586 96v-57c-49 -31 -130 -48 -195 -48c-105 0 -188 31 -247 94s-89 144 -89 242c0 99 33 182 98 247c65 66 146 99 242 99c72 0 127 -10 165 -31v-57c-49 24 -103 36 -160 36c-80 0 -147 -27 -202 -80s-82 -125 -82 -214c0 -86 25 -155 74 -207c49 -51 118 -77 207 -77
c64 0 127 18 189 53z" />
    <glyph glyph-name="afii10036" unicode="&#x422;" horiz-adv-x="523" 
d="M508 662v-52h-216v-610h-59v610h-218v52h493z" />
    <glyph glyph-name="afii10037" unicode="&#x423;" horiz-adv-x="569" 
d="M256 127l7 16l-253 518h62l217 -450h4l207 450h59l-260 -564c-37 -79 -77 -107 -140 -107c-38 0 -74 8 -107 24v58c35 -20 70 -30 103 -30c43 0 76 28 101 85z" />
    <glyph glyph-name="afii10038" unicode="&#x424;" horiz-adv-x="818" 
d="M438 68v-68h-58v68c-93 3 -171 30 -233 81c-61 51 -92 116 -92 194s32 142 95 193s140 79 230 82v44h58v-44c91 -3 168 -30 231 -81s94 -116 94 -194s-30 -142 -89 -191s-138 -77 -236 -84zM707 344c0 63 -25 115 -76 156c-50 41 -114 63 -193 67v-446
c168 5 269 94 269 223zM380 121v445c-79 -5 -143 -28 -192 -68s-73 -92 -73 -155c0 -128 100 -210 265 -222z" />
    <glyph glyph-name="afii10039" unicode="&#x425;" horiz-adv-x="606" 
d="M596 0h-67l-225 329l-231 -329h-63l236 341l-218 320h63l213 -307l211 307h64l-221 -319z" />
    <glyph glyph-name="afii10040" unicode="&#x426;" horiz-adv-x="696" 
d="M592 662v-610h94v-211h-61v159h-540v662h58v-610h391v610h58z" />
    <glyph glyph-name="afii10041" unicode="&#x427;" horiz-adv-x="630" 
d="M545 0h-60v313c-63 -23 -128 -35 -195 -35c-144 0 -220 76 -220 189v195h59v-180c0 -103 59 -154 178 -154c63 0 122 12 178 35v299h60v-662z" />
    <glyph glyph-name="afii10042" unicode="&#x428;" horiz-adv-x="933" 
d="M790 662h58v-662h-763v662h58v-610h292v610h60v-610h295v610z" />
    <glyph glyph-name="afii10043" unicode="&#x429;" horiz-adv-x="952" 
d="M143 52h292v610h60v-610h295v610h58v-610h94v-211h-61v159h-796v662h58v-610z" />
    <glyph glyph-name="afii10044" unicode="&#x42a;" horiz-adv-x="837" 
d="M350 662v-260h204c147 0 233 -81 233 -204c0 -62 -21 -111 -62 -146s-93 -52 -154 -52h-281v611h-280v51h340zM559 349h-209v-296h223c91 0 155 49 155 145s-73 151 -169 151z" />
    <glyph glyph-name="afii10045" unicode="&#x42b;" horiz-adv-x="822" 
d="M366 0h-281v662h60v-260h204c147 0 233 -81 233 -204c0 -62 -21 -111 -62 -146s-93 -52 -154 -52zM354 349h-209v-296h223c91 0 155 49 155 145s-73 151 -169 151zM737 662v-662h-58v662h58z" />
    <glyph glyph-name="afii10046" unicode="&#x42c;" horiz-adv-x="632" 
d="M366 0h-281v662h60v-260h204c147 0 233 -81 233 -204c0 -62 -21 -111 -62 -146s-93 -52 -154 -52zM354 349h-209v-296h223c91 0 155 49 155 145s-73 151 -169 151z" />
    <glyph glyph-name="afii10047" unicode="&#x42d;" horiz-adv-x="611" 
d="M25 39v57c62 -35 125 -53 189 -53c92 0 162 27 209 80c48 54 72 121 72 201h-361v52h358c-15 155 -111 245 -271 245c-64 0 -121 -12 -170 -36v57c38 21 96 31 175 31c106 0 187 -31 244 -93s86 -145 86 -248c0 -87 -29 -168 -82 -233s-145 -108 -254 -108
c-65 0 -146 17 -195 48z" />
    <glyph glyph-name="afii10048" unicode="&#x42e;" horiz-adv-x="1024" 
d="M145 318v-318h-60v661h60v-294h172c8 88 42 161 101 218c60 57 135 86 224 86c97 0 176 -33 236 -98c61 -65 91 -146 91 -243s-30 -177 -91 -242s-139 -97 -236 -97c-94 0 -172 31 -234 94c-61 63 -92 140 -92 233h-171zM642 620c-79 0 -144 -28 -193 -84
s-73 -125 -73 -206s24 -150 73 -206s114 -84 193 -84c81 0 146 28 193 83c47 56 71 125 71 207s-24 151 -71 206c-47 56 -112 84 -193 84z" />
    <glyph glyph-name="afii10049" unicode="&#x42f;" horiz-adv-x="593" 
d="M105 0h-80l236 252c-61 8 -110 31 -147 70s-55 84 -55 134c0 64 22 114 67 150c45 37 97 55 156 55h226v-661h-59v611h-159c-103 0 -172 -58 -172 -157c0 -45 20 -83 60 -116c41 -32 100 -49 177 -50v-12z" />
    <glyph glyph-name="afii10065" unicode="&#x430;" horiz-adv-x="495" 
d="M376 0l-10 57l-5 1c-40 -45 -92 -68 -155 -68c-57 0 -98 13 -123 40s-37 56 -37 88c0 98 69 147 206 147h112v24c0 79 -43 118 -129 118c-45 0 -94 -14 -145 -43v52c40 24 105 39 148 39c128 0 182 -59 182 -174v-281h-44zM364 188v33h-118c-95 0 -142 -33 -142 -98
c0 -55 50 -85 115 -85c93 0 145 63 145 150z" />
    <glyph glyph-name="afii10066" unicode="&#x431;" horiz-adv-x="550" 
d="M105 359h7c35 60 107 94 176 94s123 -23 162 -68c40 -45 60 -100 60 -167c0 -61 -21 -115 -64 -160c-42 -45 -98 -68 -169 -68c-164 0 -229 125 -229 262c0 79 12 153 37 220s66 118 122 153c30 18 48 27 93 44l39 15l52 19l57 21l25 -42c-23 -9 -57 -22 -103 -38
c-45 -16 -81 -30 -107 -43c-95 -47 -147 -141 -158 -242zM282 405c-51 0 -93 -18 -126 -54s-49 -80 -49 -132c0 -49 15 -92 46 -128s73 -54 127 -54c52 0 94 17 125 52s47 79 47 130c0 53 -15 97 -46 132c-30 36 -71 54 -124 54z" />
    <glyph glyph-name="afii10067" unicode="&#x432;" horiz-adv-x="502" 
d="M314 0h-239v445h205c99 0 149 -37 149 -112c0 -35 -25 -73 -70 -92c72 -13 98 -64 98 -113c0 -37 -14 -68 -42 -92s-62 -36 -101 -36zM399 133c0 44 -35 81 -100 81h-169v-168h164c68 0 105 36 105 87zM276 401h-146v-143h162c48 0 79 30 79 70c0 49 -32 73 -95 73z" />
    <glyph glyph-name="afii10068" unicode="&#x433;" horiz-adv-x="419" 
d="M409 400h-277v-400h-57v444h334v-44z" />
    <glyph glyph-name="afii10069" unicode="&#x434;" horiz-adv-x="583" 
d="M181 444h314l-1 -398h79v-169h-55v123h-459v-123h-54v169h65c55 45 78 124 94 256zM437 400h-211l-6 -55c-6 -55 -11 -96 -15 -123c-4 -26 -12 -57 -24 -92c-11 -35 -26 -63 -45 -84h301v354z" />
    <glyph glyph-name="afii10070" unicode="&#x435;" horiz-adv-x="519" 
d="M450 97v-57c-44 -33 -100 -50 -168 -50c-71 0 -128 21 -170 63c-41 43 -62 100 -62 171c0 65 21 120 62 164c41 45 93 67 154 67c63 0 113 -22 149 -65s54 -97 54 -162c0 -9 0 -16 -1 -20h-359c1 -52 18 -93 50 -124c33 -30 73 -45 120 -45c65 0 122 19 171 58zM267 405
c-88 0 -148 -59 -157 -151h305c-9 92 -64 151 -148 151z" />
    <glyph glyph-name="afii10072" unicode="&#x436;" horiz-adv-x="738" 
d="M5 0l267 234l-243 211h74l238 -204v204h56v-204l238 204h74l-243 -211l267 -234h-82l-254 226v-226h-56v226l-254 -226h-82z" />
    <glyph glyph-name="afii10073" unicode="&#x437;" horiz-adv-x="405" 
d="M163 -10c-22 0 -47 3 -74 9c-27 5 -49 12 -64 21v54c31 -21 91 -35 136 -35c103 0 144 43 144 96s-46 83 -122 83h-66v45h61c77 0 116 30 116 73c0 39 -39 69 -116 69c-55 0 -100 -10 -135 -29v52c40 18 87 27 140 27c112 0 168 -42 168 -114c0 -39 -27 -79 -83 -98
c63 -13 94 -56 94 -105c0 -87 -72 -148 -199 -148z" />
    <glyph glyph-name="afii10074" unicode="&#x438;" horiz-adv-x="539" 
d="M134 112l318 339h12l-1 -451h-55v329h-3l-317 -334h-13v450h56v-333h3z" />
    <glyph glyph-name="afii10075" unicode="&#x439;" horiz-adv-x="539" 
d="M134 112l318 339h12l-1 -451h-55v329h-3l-317 -334h-13v450h56v-333h3zM359 662h47c-3 -75 -49 -135 -129 -135c-76 0 -123 59 -126 135h47c0 -53 30 -95 78 -95c51 0 79 32 83 95z" />
    <glyph glyph-name="afii10076" unicode="&#x43a;" horiz-adv-x="477" 
d="M373 444h75l-248 -208l272 -236h-84l-258 227v-227h-55v444h55v-204z" />
    <glyph glyph-name="afii10077" unicode="&#x43b;" horiz-adv-x="487" 
d="M355 400h-173l-19 -182l-7 -58c-1 -13 -4 -29 -7 -48s-7 -33 -11 -42c-7 -17 -20 -45 -37 -57c-17 -11 -41 -23 -73 -28l-23 47c38 7 63 22 75 45c13 23 22 64 28 123l24 244h280v-444h-57v400z" />
    <glyph glyph-name="afii10078" unicode="&#x43c;" horiz-adv-x="655" 
d="M523 321l-182 -229h-15l-195 229v-321h-56v448h13l246 -290l233 290h13v-448h-57v321z" />
    <glyph glyph-name="afii10079" unicode="&#x43d;" horiz-adv-x="534" 
d="M459 445v-445h-56v210h-272v-210h-56v445h56v-192h272v192h56z" />
    <glyph glyph-name="afii10080" unicode="&#x43e;" horiz-adv-x="560" 
d="M281 -10c-71 0 -127 22 -169 66c-41 44 -62 100 -62 167c0 65 22 119 67 164s100 68 164 68c66 0 121 -22 164 -67s65 -100 65 -165c0 -66 -22 -121 -66 -166c-43 -45 -98 -67 -163 -67zM281 407c-51 0 -92 -18 -125 -54c-32 -35 -48 -79 -48 -130c0 -53 15 -98 46 -133
s74 -52 127 -52c52 0 94 18 125 53c31 36 47 80 47 132c0 51 -16 95 -48 130c-31 36 -73 54 -124 54z" />
    <glyph glyph-name="afii10081" unicode="&#x43f;" horiz-adv-x="536" 
d="M461 445v-445h-58v393h-271v-393h-57v445h386z" />
    <glyph glyph-name="afii10082" unicode="&#x440;" horiz-adv-x="573" 
d="M125 68l-5 -3v-280h-55v660h45l10 -70l5 -1c39 52 104 81 171 81c70 0 125 -22 166 -65s61 -98 61 -167c0 -65 -22 -121 -67 -166s-99 -67 -163 -67c-67 0 -133 29 -168 78zM292 39c51 0 92 18 124 53c33 35 49 79 49 131c0 53 -16 97 -47 132s-73 53 -126 53
c-52 0 -94 -18 -126 -54c-31 -36 -47 -80 -47 -131c0 -52 16 -96 48 -131s74 -53 125 -53z" />
    <glyph glyph-name="afii10083" unicode="&#x441;" horiz-adv-x="432" 
d="M407 73v-54c-33 -19 -78 -29 -133 -29c-72 0 -127 21 -166 64s-58 97 -58 164s22 123 65 168c43 46 98 69 163 69c45 0 82 -7 111 -20v-54c-28 17 -63 26 -104 26c-50 0 -92 -17 -126 -51s-51 -80 -51 -138c0 -107 68 -179 176 -179c51 0 92 11 123 34z" />
    <glyph glyph-name="afii10084" unicode="&#x442;" horiz-adv-x="438" 
d="M247 399v-399h-56v399h-181v45h418v-45h-181z" />
    <glyph glyph-name="afii10085" unicode="&#x443;" horiz-adv-x="442" 
d="M72 445l149 -364h6l149 364h56l-274 -660h-59l95 230l-184 430h62z" />
    <glyph glyph-name="afii10086" unicode="&#x444;" horiz-adv-x="670" 
d="M306 454l-1 257h56v-256c164 -8 266 -97 266 -233c0 -67 -25 -123 -75 -167s-114 -67 -191 -68l1 -202h-56v202c-78 2 -142 24 -191 67s-73 99 -73 168c0 67 24 121 71 162c48 42 112 65 193 70zM569 222c0 55 -19 99 -57 133c-38 35 -88 52 -150 53v-375
c61 2 111 21 149 56c39 36 58 80 58 133zM100 222c0 -53 19 -98 56 -133s87 -54 150 -56v375c-59 -1 -108 -19 -147 -54c-39 -34 -59 -78 -59 -132z" />
    <glyph glyph-name="afii10087" unicode="&#x445;" horiz-adv-x="452" 
d="M442 0h-65l-150 216l-155 -216h-62l162 228l-152 217h62l145 -205l144 205h62l-154 -216z" />
    <glyph glyph-name="afii10088" unicode="&#x446;" horiz-adv-x="556" 
d="M403 52v393h58v-393h77v-175h-57v123h-406v445h57v-393h271z" />
    <glyph glyph-name="afii10089" unicode="&#x447;" horiz-adv-x="510" 
d="M435 0h-56v209c-1 1 -1 1 -2 1c-41 -39 -95 -59 -162 -59c-103 0 -155 55 -155 165v129h57v-120c0 -83 39 -124 116 -124c48 0 111 24 146 63v181h56v-445z" />
    <glyph glyph-name="afii10090" unicode="&#x448;" horiz-adv-x="797" 
d="M132 52h234v392h56v-392h242v393h58v-445h-647v445h57v-393z" />
    <glyph glyph-name="afii10091" unicode="&#x449;" horiz-adv-x="814" 
d="M132 52h234v392h56v-392h242v393h58v-393h77v-175h-57v123h-667v445h57v-393z" />
    <glyph glyph-name="afii10092" unicode="&#x44a;" horiz-adv-x="641" 
d="M435 0h-230v400h-205v45h262v-149h164c112 0 170 -64 170 -148c0 -92 -66 -148 -161 -148zM416 250h-154v-204h163c64 0 112 38 112 102s-52 102 -121 102z" />
    <glyph glyph-name="afii10093" unicode="&#x44b;" horiz-adv-x="672" 
d="M75 0v445h57v-149h164c112 0 170 -64 170 -148c0 -92 -66 -148 -161 -148h-230zM286 250h-154v-204h163c64 0 112 38 112 102s-52 102 -121 102zM597 445v-445h-56v445h56z" />
    <glyph glyph-name="afii10094" unicode="&#x44c;" horiz-adv-x="511" 
d="M75 0v445h57v-149h164c112 0 170 -64 170 -148c0 -92 -66 -148 -161 -148h-230zM286 250h-154v-204h163c64 0 112 38 112 102s-52 102 -121 102z" />
    <glyph glyph-name="afii10095" unicode="&#x44d;" horiz-adv-x="432" 
d="M25 19v54c31 -23 75 -34 130 -34c107 0 169 70 169 166h-217v44h216c-3 100 -68 156 -159 156c-46 0 -86 -10 -121 -29v52c41 19 83 28 125 28c62 0 113 -20 153 -61c41 -41 61 -98 61 -171c0 -69 -19 -126 -58 -169s-94 -65 -166 -65c-55 0 -100 10 -133 29z" />
    <glyph glyph-name="afii10096" unicode="&#x44e;" horiz-adv-x="762" 
d="M131 216v-216h-56v444h56v-185h136c9 56 34 102 75 139s91 56 150 56c68 0 122 -22 163 -67s62 -100 62 -166c0 -65 -21 -119 -64 -164c-42 -45 -96 -67 -161 -67c-69 0 -124 21 -166 64c-41 43 -62 97 -62 162h-133zM492 406c-51 0 -92 -18 -123 -54
c-31 -35 -47 -79 -47 -131c0 -53 15 -98 45 -133s72 -52 125 -52c51 0 92 18 122 54c31 36 46 80 46 131c0 52 -15 96 -46 131c-30 36 -71 54 -122 54z" />
    <glyph glyph-name="afii10097" unicode="&#x44f;" horiz-adv-x="465" 
d="M91 0h-71l162 167c-81 15 -130 72 -130 137c0 88 70 141 162 141h176v-445h-55v399h-115c-72 0 -111 -34 -111 -97c0 -55 56 -98 164 -99v-12z" />
    <glyph glyph-name="afii10071" unicode="&#x451;" horiz-adv-x="519" 
d="M450 97v-57c-44 -33 -100 -50 -168 -50c-71 0 -128 21 -170 63c-41 43 -62 100 -62 171c0 65 21 120 62 164c41 45 93 67 154 67c63 0 113 -22 149 -65s54 -97 54 -162c0 -9 0 -16 -1 -20h-359c1 -52 18 -93 50 -124c33 -30 73 -45 120 -45c65 0 122 19 171 58zM267 405
c-88 0 -148 -59 -157 -151h305c-9 92 -64 151 -148 151zM187 556c-23 0 -38 16 -38 37c0 19 18 37 38 37c47 0 47 -74 0 -74zM383 593c0 -49 -74 -49 -74 0c0 19 17 37 37 37c21 0 37 -16 37 -37z" />
    <glyph glyph-name="afii10099" unicode="&#x452;" horiz-adv-x="547" 
d="M65 619v92h56v-92h181v-46h-181v-212l3 -1c37 64 106 94 175 94c119 0 198 -79 198 -243c0 -61 -16 -119 -49 -174s-78 -98 -137 -128l-41 30c67 32 115 81 138 132c24 52 32 95 32 139c0 130 -51 195 -154 195c-44 0 -83 -18 -116 -53s-49 -79 -49 -131v-221h-56v573
h-54v46h54z" />
    <glyph glyph-name="afii10100" unicode="&#x453;" horiz-adv-x="419" 
d="M409 400h-277v-400h-57v444h334v-44zM352 664l-120 -133h-47l104 151z" />
    <glyph glyph-name="afii10101" unicode="&#x454;" horiz-adv-x="432" 
d="M407 73v-54c-33 -19 -78 -29 -133 -29c-72 0 -127 21 -166 64s-58 97 -58 164s22 123 65 168c43 46 98 69 163 69c45 0 82 -7 111 -20v-54c-28 17 -63 26 -104 26c-46 0 -86 -15 -120 -44c-33 -29 -52 -68 -55 -116h215v-44h-217c-1 -47 15 -86 48 -117s76 -47 128 -47
c51 0 92 11 123 34z" />
    <glyph glyph-name="afii10102" unicode="&#x455;" horiz-adv-x="369" 
d="M25 29v56c45 -32 92 -48 141 -48c75 0 112 26 112 77c0 113 -235 88 -235 221c0 39 14 69 42 89c29 21 63 31 102 31c44 0 86 -10 127 -30v-55c-44 25 -84 38 -120 38c-62 0 -93 -23 -93 -69c0 -88 233 -72 233 -216c0 -84 -67 -132 -162 -132c-55 0 -104 13 -147 38z
" />
    <glyph glyph-name="afii10103" unicode="&#x456;" horiz-adv-x="227" 
d="M114 539c-23 0 -39 15 -39 38c0 33 43 51 66 28c25 -25 5 -66 -27 -66zM141 445v-445h-57v445h57z" />
    <glyph glyph-name="afii10104" unicode="&#x457;" horiz-adv-x="227" 
d="M35 549c-23 0 -38 16 -38 37c0 19 18 37 38 37c47 0 47 -74 0 -74zM157 586c0 19 17 37 37 37c32 0 50 -40 26 -64c-22 -22 -63 -5 -63 27zM141 445v-445h-57v445h57z" />
    <glyph glyph-name="afii10105" unicode="&#x458;" horiz-adv-x="210" 
d="M68 577c0 20 18 39 39 39s38 -16 38 -39c5 -50 -81 -49 -77 0zM-20 -227l-27 52c92 3 124 49 124 145v475h57v-476c0 -125 -51 -191 -154 -196z" />
    <glyph glyph-name="afii10106" unicode="&#x459;" horiz-adv-x="785" 
d="M579 0h-230v400h-167l-19 -182l-7 -58c-1 -13 -4 -29 -7 -48s-7 -33 -11 -42c-7 -17 -20 -45 -37 -57c-17 -11 -41 -23 -73 -28l-23 47c39 7 64 23 76 46c13 23 22 64 27 122l24 244h274v-148h164c112 0 170 -64 170 -148c0 -92 -66 -148 -161 -148zM560 250h-154v-204
h163c64 0 112 38 112 102s-52 102 -121 102z" />
    <glyph glyph-name="afii10107" unicode="&#x45a;" horiz-adv-x="798" 
d="M373 227h-242v-227h-56v444h56v-173h242v173h56v-172h154c113 0 170 -53 170 -134c0 -91 -65 -138 -160 -138h-220v227zM573 227h-144v-183h153c75 0 113 31 113 93c0 63 -49 90 -122 90z" />
    <glyph glyph-name="afii10108" unicode="&#x45b;" horiz-adv-x="525" 
d="M65 573h-54v46h54v92h56v-92h181v-46h-181v-195h3c42 51 94 77 156 77c109 0 170 -69 170 -189v-266h-57v255c0 93 -41 150 -116 150c-88 0 -153 -60 -153 -175v-230h-59v573z" />
    <glyph glyph-name="afii10109" unicode="&#x45c;" horiz-adv-x="477" 
d="M373 444h75l-248 -208l272 -236h-84l-258 227v-227h-55v444h55v-204zM351 664l-120 -133h-47l104 151z" />
    <glyph glyph-name="afii10110" unicode="&#x45e;" horiz-adv-x="442" 
d="M72 445l149 -364h6l149 364h56l-274 -660h-59l95 230l-184 430h62zM311 672h47c-3 -75 -49 -135 -129 -135c-76 0 -123 59 -126 135h47c0 -53 30 -95 78 -95c51 0 79 32 83 95z" />
    <glyph glyph-name="afii10193" unicode="&#x45f;" horiz-adv-x="536" 
d="M403 52v393h58v-445h-163v-132h-57v132h-166v445h57v-393h271z" />
    <glyph glyph-name="afii10050" unicode="&#x490;" horiz-adv-x="516" 
d="M501 610h-358v-610h-58v662h365v112h51v-164z" />
    <glyph glyph-name="afii10098" unicode="&#x491;" horiz-adv-x="425" 
d="M410 399h-278v-399h-57v444h287v110h48v-155z" />
    <glyph glyph-name="schwacyrillic" unicode="&#x4d9;" horiz-adv-x="525" 
d="M81 350v54c45 34 102 51 171 51c141 0 222 -90 222 -234c0 -65 -21 -120 -62 -165c-41 -44 -93 -66 -154 -66c-63 0 -113 22 -149 65s-54 97 -54 162c0 9 0 16 1 20h359c-3 107 -65 169 -165 169c-61 0 -117 -19 -169 -56zM257 40c88 0 148 59 157 151h-305
c9 -92 64 -151 148 -151z" />
    <glyph glyph-name="Wgrave" unicode="&#x1e80;" horiz-adv-x="886" 
d="M623 -7l-179 527h-4l-177 -527h-14l-239 667h57l188 -526h5l177 531h12l180 -531h5l185 526h57l-241 -667h-12zM362 870l121 -137h-51l-137 119z" />
    <glyph glyph-name="wgrave" unicode="&#x1e81;" horiz-adv-x="706" 
d="M205 111l146 334h9l148 -334h4l129 334h55l-182 -451h-10l-148 335h-3l-148 -335h-11l-179 451h58l129 -334h3zM289 682l104 -151h-47l-120 133z" />
    <glyph glyph-name="Wacute" unicode="&#x1e82;" horiz-adv-x="886" 
d="M623 -7l-179 527h-4l-177 -527h-14l-239 667h57l188 -526h5l177 531h12l180 -531h5l185 526h57l-241 -667h-12zM591 852l-137 -119h-51l121 137z" />
    <glyph glyph-name="wacute" unicode="&#x1e83;" horiz-adv-x="706" 
d="M205 111l146 334h9l148 -334h4l129 334h55l-182 -451h-10l-148 335h-3l-148 -335h-11l-179 451h58l129 -334h3zM483 664l-120 -133h-47l104 151z" />
    <glyph glyph-name="Wdieresis" unicode="&#x1e84;" horiz-adv-x="886" 
d="M623 -7l-179 527h-4l-177 -527h-14l-239 667h57l188 -526h5l177 531h12l180 -531h5l185 526h57l-241 -667h-12zM363 758c-23 0 -38 16 -38 37c0 19 18 37 38 37c47 0 47 -74 0 -74zM559 795c0 -49 -74 -49 -74 0c0 19 17 37 37 37c21 0 37 -16 37 -37z" />
    <glyph glyph-name="wdieresis" unicode="&#x1e85;" horiz-adv-x="706" 
d="M205 111l146 334h9l148 -334h4l129 334h55l-182 -451h-10l-148 335h-3l-148 -335h-11l-179 451h58l129 -334h3zM274 532c-23 0 -38 16 -38 37c0 19 18 37 38 37c47 0 47 -74 0 -74zM470 569c6 -49 -80 -49 -74 0c0 19 17 37 37 37c21 0 37 -16 37 -37z" />
    <glyph glyph-name="Ygrave" unicode="&#x1ef2;" 
d="M75 662l204 -311h4l186 311h61l-221 -367v-295h-58v295l-241 367h65zM210 870l121 -137h-51l-137 119z" />
    <glyph glyph-name="ygrave" unicode="&#x1ef3;" horiz-adv-x="442" 
d="M72 445l149 -364h6l149 364h56l-274 -660h-59l95 230l-184 430h62zM157 682l104 -151h-47l-120 133z" />
    <glyph glyph-name="endash" unicode="&#x2013;" horiz-adv-x="549" 
d="M516 215h-484v48h484v-48z" />
    <glyph glyph-name="emdash" unicode="&#x2014;" horiz-adv-x="819" 
d="M785 215h-750v48h750v-48z" />
    <glyph glyph-name="afii00208" unicode="&#x2015;" horiz-adv-x="819" 
d="M785 215h-750v48h750v-48z" />
    <glyph glyph-name="quoteleft" unicode="&#x2018;" horiz-adv-x="192" 
d="M141 523c0 -25 -21 -45 -45 -45c-25 0 -44 17 -44 44c0 30 21 84 64 162l34 -5l-36 -117c18 -5 27 -18 27 -39z" />
    <glyph glyph-name="quoteright" unicode="&#x2019;" horiz-adv-x="192" 
d="M58 639c0 25 21 45 45 45c25 0 44 -17 44 -44c0 -30 -21 -84 -64 -162l-34 5l36 117c-18 5 -27 18 -27 39z" />
    <glyph glyph-name="quotesinglbase" unicode="&#x201a;" horiz-adv-x="211" 
d="M69 38c0 24 20 44 44 44s43 -18 43 -43c0 -33 -21 -89 -64 -169l-34 5l38 124c-18 7 -27 20 -27 39z" />
    <glyph glyph-name="quotedblleft" unicode="&#x201c;" horiz-adv-x="304" 
d="M143 523c0 -25 -21 -45 -45 -45c-25 0 -44 17 -44 44c0 30 21 84 64 162l34 -5l-36 -117c18 -5 27 -18 27 -39zM250 523c0 -25 -21 -45 -45 -45c-25 0 -44 17 -44 44c0 30 21 84 64 162l34 -5l-36 -117c18 -5 27 -18 27 -39z" />
    <glyph glyph-name="quotedblright" unicode="&#x201d;" horiz-adv-x="304" 
d="M164 639c0 25 21 45 45 45c25 0 44 -17 44 -44c0 -30 -21 -84 -64 -162l-34 5l36 117c-18 5 -27 18 -27 39zM57 639c0 25 21 45 45 45c25 0 44 -17 44 -44c0 -30 -21 -84 -64 -162l-34 5l36 117c-18 5 -27 18 -27 39z" />
    <glyph glyph-name="quotedblbase" unicode="&#x201e;" horiz-adv-x="313" 
d="M59 38c0 24 20 44 44 44s43 -18 43 -43c0 -33 -21 -89 -64 -169l-34 5l38 124c-18 7 -27 20 -27 39zM170 38c0 24 20 44 44 44s43 -18 43 -43c0 -33 -21 -89 -64 -169l-34 5l38 124c-18 7 -27 20 -27 39z" />
    <glyph glyph-name="dagger" unicode="&#x2020;" horiz-adv-x="510" 
d="M226 446h-166v51h165v191h60v-191h165v-51h-164v-554h-60v554z" />
    <glyph glyph-name="daggerdbl" unicode="&#x2021;" horiz-adv-x="510" 
d="M225 446h-166v51h165v191h60v-191h166v-51h-165v-239h165v-51h-165v-264h-60v264h-166v51h166v239z" />
    <glyph glyph-name="bullet" unicode="&#x2022;" horiz-adv-x="469" 
d="M156 156c-21 21 -32 47 -32 78s11 57 32 78s47 32 78 32s57 -11 78 -32c22 -21 33 -47 33 -78s-11 -57 -33 -78c-21 -21 -47 -32 -78 -32s-57 11 -78 32z" />
    <glyph glyph-name="trianglebullet" unicode="&#x2023;" horiz-adv-x="506" 
d="M86 68v408l390 -199z" />
    <glyph glyph-name="ellipsis" unicode="&#x2026;" horiz-adv-x="599" 
d="M135 69c19 -17 19 -46 0 -65c-17 -17 -46 -17 -65 0c-17 19 -17 48 0 65c19 19 48 19 65 0zM348 37c0 -25 -21 -46 -46 -46c-27 0 -46 21 -46 46s20 46 45 46c27 0 47 -19 47 -46zM546 37c0 -25 -21 -46 -46 -46c-27 0 -46 21 -46 46s20 46 45 46c27 0 47 -19 47 -46z
" />
    <glyph glyph-name="perthousand" unicode="&#x2030;" horiz-adv-x="1068" 
d="M885 -6c-95 0 -154 64 -154 153c0 44 15 81 44 111c30 31 67 46 110 46c44 0 80 -15 109 -45c29 -29 44 -66 44 -110c0 -43 -15 -80 -44 -110s-66 -45 -109 -45zM781 149c0 -64 40 -112 104 -112c94 -6 136 128 74 190c-19 22 -44 33 -74 33c-60 0 -104 -50 -104 -111z
M190 359c-95 0 -155 66 -155 155c0 43 15 80 45 110s67 45 110 45c44 0 80 -15 109 -45c29 -29 43 -66 43 -110s-15 -81 -44 -111c-29 -29 -65 -44 -108 -44zM190 625c-61 0 -105 -50 -105 -111c0 -64 40 -112 105 -112c61 0 102 51 102 112s-42 111 -102 111zM530 -6
c-95 0 -154 64 -154 153c0 44 15 81 44 111c30 31 67 46 110 46c44 0 80 -15 109 -45c29 -29 44 -66 44 -110c0 -43 -15 -80 -44 -110s-66 -45 -109 -45zM426 149c0 -64 40 -112 104 -112c94 -6 136 128 74 190c-19 22 -44 33 -74 33c-60 0 -104 -50 -104 -111zM584 681h47
l-506 -700h-47z" />
    <glyph glyph-name="guilsinglleft" unicode="&#x2039;" horiz-adv-x="282" 
d="M242 381l-137 -180l137 -185h-63l-134 178v9l137 178h60z" />
    <glyph glyph-name="guilsinglright" unicode="&#x203a;" horiz-adv-x="282" 
d="M108 16h-63l137 185l-137 180h60l137 -178v-9z" />
    <glyph glyph-name="fraction" unicode="&#x2044;" horiz-adv-x="107" 
d="M278 681h47l-506 -700h-47z" />
    <glyph glyph-name="fraction" unicode="&#x2215;" horiz-adv-x="107" 
d="M278 681h47l-506 -700h-47z" />
    <glyph glyph-name="zerosuperior" unicode="&#x2070;" horiz-adv-x="340" 
d="M32 579c0 48 7 88 26 129c19 43 58 69 113 69s93 -27 112 -68s25 -82 25 -130c0 -32 -3 -62 -10 -89s-21 -51 -43 -74c-21 -22 -50 -33 -85 -33c-92 0 -138 65 -138 196zM82 579c0 -103 30 -155 89 -155c57 0 86 52 86 155c0 105 -29 157 -86 157c-59 0 -89 -52 -89 -157
z" />
    <glyph glyph-name="foursuperior" unicode="&#x2074;" horiz-adv-x="340" 
d="M14 496l203 276h53l-188 -251h139v92l37 48h9v-140h58v-39h-58v-92h-46v92h-207v14z" />
    <glyph glyph-name="fivesuperior" unicode="&#x2075;" horiz-adv-x="340" 
d="M164 632c79 0 140 -44 140 -123c0 -39 -14 -69 -43 -92s-63 -34 -103 -34c-49 0 -90 12 -122 36v56c29 -29 78 -51 122 -51c56 0 98 37 98 85c0 51 -41 81 -97 81c-35 0 -68 -9 -97 -27l-8 3l24 206h206v-40h-166l-13 -108c17 5 36 8 59 8z" />
    <glyph glyph-name="sixsuperior" unicode="&#x2076;" horiz-adv-x="340" 
d="M311 508c0 -37 -14 -67 -41 -90s-62 -35 -103 -35c-88 0 -139 50 -139 121c0 28 12 62 36 103l104 165h53l-93 -145c10 3 26 5 47 5c39 0 71 -12 97 -36s39 -53 39 -88zM167 591c-51 0 -89 -37 -89 -84c0 -49 34 -83 89 -83s94 34 94 83c0 47 -41 84 -94 84z" />
    <glyph glyph-name="sevensuperior" unicode="&#x2077;" horiz-adv-x="322" 
d="M288 764l-180 -376h-49l165 344h-203v40h267v-8z" />
    <glyph glyph-name="eightsuperior" unicode="&#x2078;" horiz-adv-x="340" 
d="M86 496c0 -40 33 -72 85 -72c49 0 82 32 82 72c0 43 -37 74 -82 74c-47 0 -85 -31 -85 -74zM288 670c0 -31 -15 -57 -45 -79c40 -21 60 -52 60 -93c0 -68 -56 -115 -132 -115c-80 0 -135 45 -135 114c0 33 25 72 57 93c-28 21 -42 48 -42 80c0 63 51 107 120 107
c67 0 117 -44 117 -107zM99 672c0 -35 29 -62 70 -62c40 0 70 27 70 62s-31 63 -70 63c-40 0 -70 -27 -70 -63z" />
    <glyph glyph-name="ninesuperior" unicode="&#x2079;" horiz-adv-x="340" 
d="M28 652c0 73 62 125 146 125c85 0 137 -52 137 -120c0 -31 -12 -65 -37 -104l-102 -165h-54l88 143c-9 -2 -23 -3 -41 -3c-80 0 -137 52 -137 124zM173 569c51 0 88 36 88 84c0 49 -35 83 -88 83c-56 0 -96 -35 -96 -83s37 -84 96 -84z" />
    <glyph glyph-name="plussuperior" unicode="&#x207a;" horiz-adv-x="352" 
d="M161 520h-108v33h108v97h36v-97h107v-33h-107v-100h-36v100z" />
    <glyph glyph-name="hyphensuperior" unicode="&#x207b;" horiz-adv-x="258" 
d="M224 503h-189v37h189v-37z" />
    <glyph glyph-name="equalsuperior" unicode="&#x207c;" horiz-adv-x="352" 
d="M306 563h-260v32h260v-32zM306 480h-260v32h260v-32z" />
    <glyph glyph-name="parenleftsuperior" unicode="&#x207d;" horiz-adv-x="192" 
d="M147 832l28 -9c-19 -23 -37 -56 -55 -100c-18 -43 -27 -93 -27 -148c0 -96 27 -184 82 -263l-28 -10c-69 75 -103 166 -103 273c0 57 11 107 32 150c22 44 46 80 71 107z" />
    <glyph glyph-name="parenrightsuperior" unicode="&#x207e;" horiz-adv-x="192" 
d="M14 822l28 9c25 -27 49 -63 70 -107c22 -43 33 -93 33 -150c0 -107 -34 -198 -103 -273l-28 10c55 79 82 167 82 263c0 55 -9 105 -27 148c-18 44 -36 77 -55 100z" />
    <glyph glyph-name="nsuperior" unicode="&#x207f;" horiz-adv-x="358" 
d="M92 300h-47v295h36l11 -47c24 33 68 52 108 52c75 0 113 -41 113 -123v-177h-46v173c0 56 -27 86 -75 86c-53 0 -100 -43 -100 -123v-136z" />
    <glyph glyph-name="zeroinferior" unicode="&#x2080;" horiz-adv-x="340" 
d="M32 99c0 48 7 88 26 129c19 43 58 69 113 69s93 -27 112 -68s25 -82 25 -130c0 -32 -3 -62 -10 -89s-21 -51 -43 -73c-21 -23 -50 -34 -85 -34c-92 0 -138 65 -138 196zM82 99c0 -103 30 -155 89 -155c57 0 86 52 86 155c0 105 -29 157 -86 157c-59 0 -89 -52 -89 -157z
" />
    <glyph glyph-name="oneinferior" unicode="&#x2081;" horiz-adv-x="285" 
d="M186 297h8v-389h-48v316c-10 -7 -27 -16 -50 -28c-23 -11 -40 -20 -50 -26v47z" />
    <glyph glyph-name="twoinferior" unicode="&#x2082;" horiz-adv-x="340" 
d="M103 150l-51 6c-3 7 -4 19 -4 35c0 63 57 106 126 106c71 0 128 -36 128 -103c0 -41 -33 -81 -100 -120c-45 -27 -75 -48 -89 -63c-17 -19 -26 -40 -28 -63h222v-40h-274c0 35 6 65 17 90c12 24 26 42 41 55s39 29 72 49l40 25c19 12 49 42 49 66c0 41 -32 63 -79 63
c-48 0 -77 -31 -77 -71c0 -6 2 -18 7 -35z" />
    <glyph glyph-name="threeinferior" unicode="&#x2083;" horiz-adv-x="340" 
d="M95 111l-5 8l123 133h-164v40h248v-8l-129 -136c80 0 135 -48 135 -119c0 -38 -14 -68 -43 -91s-63 -35 -104 -35c-49 0 -91 12 -124 36v52c39 -32 81 -48 125 -48c57 0 97 37 97 85c0 60 -44 87 -108 87c-21 0 -38 -1 -51 -4z" />
    <glyph glyph-name="fourinferior" unicode="&#x2084;" horiz-adv-x="340" 
d="M14 14l203 276h53l-188 -251h139v94l33 46h13v-140h58v-39h-58v-92h-46v92h-207v14z" />
    <glyph glyph-name="fiveinferior" unicode="&#x2085;" horiz-adv-x="340" 
d="M164 152c79 0 140 -44 140 -123c0 -39 -14 -69 -43 -92s-63 -34 -103 -34c-49 0 -90 12 -122 36v56c29 -29 78 -51 122 -51c56 0 98 37 98 85c0 51 -41 81 -97 81c-35 0 -68 -9 -97 -27l-8 3l24 206h206v-40h-166l-13 -108c17 5 36 8 59 8z" />
    <glyph glyph-name="sixinferior" unicode="&#x2086;" horiz-adv-x="340" 
d="M311 28c0 -37 -14 -67 -41 -90s-62 -35 -103 -35c-88 0 -139 50 -139 121c0 28 12 62 36 103l104 165h53l-93 -145c10 3 26 5 47 5c39 0 71 -12 97 -36s39 -53 39 -88zM167 111c-51 0 -89 -37 -89 -84c0 -49 34 -83 89 -83s94 34 94 83c0 47 -41 84 -94 84z" />
    <glyph glyph-name="seveninferior" unicode="&#x2087;" horiz-adv-x="322" 
d="M288 284l-180 -376h-49l165 344h-203v40h267v-8z" />
    <glyph glyph-name="eightinferior" unicode="&#x2088;" horiz-adv-x="340" 
d="M86 16c0 -40 33 -72 85 -72c49 0 82 32 82 72c0 43 -37 74 -82 74c-47 0 -85 -31 -85 -74zM288 190c0 -31 -15 -57 -45 -79c40 -21 60 -52 60 -93c0 -68 -56 -115 -132 -115c-80 0 -135 45 -135 114c0 33 25 72 57 93c-28 21 -42 48 -42 80c0 63 51 107 120 107
c67 0 117 -44 117 -107zM99 192c0 -35 29 -62 70 -62c40 0 70 27 70 62s-31 63 -70 63c-40 0 -70 -27 -70 -63z" />
    <glyph glyph-name="nineinferior" unicode="&#x2089;" horiz-adv-x="340" 
d="M28 172c0 73 62 125 146 125c85 0 137 -52 137 -120c0 -31 -12 -65 -37 -104l-102 -165h-54l88 143c-9 -2 -23 -3 -41 -3c-80 0 -137 52 -137 124zM173 89c51 0 88 36 88 84c0 49 -35 83 -88 83c-56 0 -96 -35 -96 -83s37 -84 96 -84z" />
    <glyph glyph-name="plusinferior" unicode="&#x208a;" horiz-adv-x="352" 
d="M161 64h-108v32h108v97h36v-97h107v-32h-107v-100h-36v100z" />
    <glyph glyph-name="hypheninferior" unicode="&#x208b;" horiz-adv-x="258" 
d="M224 46h-189v38h189v-38z" />
    <glyph glyph-name="equalinferior" unicode="&#x208c;" horiz-adv-x="352" 
d="M306 107h-260v32h260v-32zM306 23h-260v33h260v-33z" />
    <glyph glyph-name="parenleftinferior" unicode="&#x208d;" horiz-adv-x="192" 
d="M148 374l28 -9c-19 -23 -37 -56 -55 -100c-18 -43 -27 -93 -27 -148c0 -96 27 -184 82 -263l-28 -10c-69 75 -103 166 -103 273c0 57 11 107 32 150c22 44 46 80 71 107z" />
    <glyph glyph-name="parenrightinferior" unicode="&#x208e;" horiz-adv-x="192" 
d="M15 364l28 9c25 -27 49 -63 70 -107c22 -43 33 -93 33 -150c0 -107 -34 -198 -103 -273l-28 10c55 79 82 167 82 263c0 55 -9 105 -27 148c-18 44 -36 77 -55 100z" />
    <glyph glyph-name="Euro" unicode="&#x20ac;" 
d="M38 272v37h403v-37h-299c2 -70 26 -126 72 -168c47 -41 101 -62 162 -62c45 0 88 9 130 27v-49c-43 -17 -87 -26 -133 -26c-76 0 -142 25 -198 74c-56 50 -86 118 -90 204h-47zM441 403v-37h-403v37h52c9 83 40 147 95 194s119 71 193 71c36 0 73 -6 111 -17v-50
c-41 11 -79 17 -113 17c-60 0 -111 -19 -154 -58c-43 -38 -67 -90 -74 -157h293z" />
    <glyph glyph-name="centigrade" unicode="&#x2103;" horiz-adv-x="876" 
d="M172 443c-72 0 -118 50 -118 118c0 33 12 62 35 85c23 24 51 36 83 36c71 0 123 -53 123 -121c0 -67 -52 -118 -123 -118zM172 642c-43 0 -75 -38 -75 -81s31 -80 75 -80c49 0 82 37 82 80c0 44 -34 81 -82 81zM851 96v-57c-49 -31 -130 -48 -195 -48
c-105 0 -188 31 -247 94s-89 144 -89 242c0 99 33 182 98 247c65 66 146 99 242 99c72 0 127 -10 165 -31v-57c-49 24 -103 36 -160 36c-80 0 -147 -27 -202 -80s-82 -125 -82 -214c0 -86 25 -155 74 -207c49 -51 118 -77 207 -77c64 0 127 18 189 53z" />
    <glyph glyph-name="fahrenheit" unicode="&#x2109;" horiz-adv-x="813" 
d="M167 443c-72 0 -118 50 -118 118c0 33 12 62 35 85c23 24 51 36 83 36c71 0 123 -53 123 -121c0 -67 -52 -118 -123 -118zM167 642c-43 0 -75 -38 -75 -81s31 -80 75 -80c49 0 82 37 82 80c0 44 -34 81 -82 81zM440 303v-303h-58v662h416v-52h-358v-255h328v-52h-328z
" />
    <glyph glyph-name="afii61289" unicode="&#x2113;" horiz-adv-x="508" 
d="M76 180l-20 37l74 56v209c0 147 58 213 146 213c61 0 111 -37 111 -113c0 -101 -69 -211 -207 -331v-81c0 -89 33 -133 100 -133c47 0 96 36 131 104l38 -20c-43 -87 -100 -130 -173 -130c-95 0 -141 60 -144 157c-1 9 -1 33 -1 71c-17 -13 -35 -26 -55 -39zM180 485
l1 -176c106 101 159 191 159 270c0 41 -24 75 -67 75c-49 0 -93 -56 -93 -169z" />
    <glyph glyph-name="afii61352" unicode="&#x2116;" horiz-adv-x="1043" 
d="M989 309v-44h-309v44h309zM141 537v-537h-56v668h20l441 -540h4v534h56v-666h-20l-442 541h-3zM831 364c-99 0 -159 65 -159 154c0 43 15 80 46 110s69 45 113 45c45 0 83 -15 113 -45c30 -29 45 -66 45 -110c0 -43 -15 -80 -46 -110c-30 -29 -67 -44 -112 -44zM724 518
c0 -65 39 -113 107 -113c67 0 106 49 106 113c0 63 -42 113 -106 113s-107 -49 -107 -113z" />
    <glyph glyph-name="published" unicode="&#x2117;" horiz-adv-x="821" 
d="M412 -13c-109 0 -195 34 -260 102c-65 69 -97 157 -97 265c0 105 35 191 104 260s154 104 253 104s182 -35 251 -104s104 -155 104 -260s-35 -192 -104 -262s-153 -105 -251 -105zM99 354c0 -95 28 -172 83 -233s129 -91 220 -91c87 0 162 31 225 94s95 139 95 230
c0 90 -30 166 -90 227c-60 62 -133 93 -220 93s-161 -31 -222 -93c-61 -61 -91 -137 -91 -227zM450 259h-110v-147h-52v461h163c51 0 92 -15 121 -46s44 -67 44 -110c0 -48 -16 -86 -49 -115s-72 -43 -117 -43zM565 417c0 61 -43 115 -126 115h-99v-232h106
c77 0 119 54 119 117z" />
    <glyph glyph-name="trademark" unicode="&#x2122;" horiz-adv-x="735" 
d="M335 671l151 -191h5l149 191h12v-362h-44v248h-4l-111 -141h-10l-111 139c-1 -1 -2 -1 -3 -1v-245h-47v362h13zM293 633h-106v-324h-46v324h-109v38h261v-38z" />
    <glyph glyph-name="Ohm" unicode="&#x2126;" horiz-adv-x="779" 
d="M393 621c-83 0 -152 -28 -205 -83s-79 -124 -79 -206c0 -41 6 -81 19 -122c25 -81 91 -165 180 -198v-12h-258v52h119v4c-77 63 -119 162 -119 266c0 100 33 183 98 250c66 67 148 101 245 101c95 0 175 -33 239 -100c64 -66 96 -147 96 -242c0 -105 -40 -208 -119 -275
v-4h120v-52h-257v12c143 52 199 205 199 320c0 77 -25 145 -76 202c-50 58 -117 87 -202 87z" />
    <glyph glyph-name="angstrom" unicode="&#x212b;" horiz-adv-x="612" 
d="M597 0h-60l-68 161h-327l-68 -161h-59l285 667h14zM307 543h-4l-140 -333h285zM305 677c-53 0 -87 36 -87 85s39 88 87 88c51 0 88 -37 88 -88c0 -48 -37 -85 -88 -85zM305 816c-29 0 -51 -25 -51 -54s20 -52 51 -52c32 0 52 24 52 52c0 31 -21 54 -52 54z" />
    <glyph glyph-name="estimated" unicode="&#x212e;" horiz-adv-x="817" 
d="M760 319h-570v-193c22 -34 53 -62 94 -84s83 -33 126 -33c85 0 172 45 228 113h50c-71 -83 -172 -133 -279 -133c-96 0 -179 33 -248 100s-103 147 -103 240c0 91 34 169 103 234s151 97 248 97c98 0 181 -33 248 -98c68 -65 102 -146 103 -243zM190 337h436v193
c-20 33 -51 60 -92 80c-41 21 -82 31 -124 31c-75 0 -157 -43 -220 -114v-190z" />
    <glyph glyph-name="onethird" unicode="&#x2153;" horiz-adv-x="750" 
d="M561 681h47l-506 -700h-47zM207 687h8v-389h-48v316c-10 -7 -27 -16 -50 -27s-40 -20 -50 -27v47zM493 201l-5 8l123 133h-164v40h248v-8l-129 -136c80 0 135 -48 135 -119c0 -38 -14 -69 -43 -92s-63 -34 -104 -34c-49 0 -91 12 -124 36v52c39 -32 81 -48 125 -48
c57 0 97 37 97 85c0 60 -44 87 -108 87c-21 0 -38 -1 -51 -4z" />
    <glyph glyph-name="twothirds" unicode="&#x2154;" horiz-adv-x="750" 
d="M514 201l-5 8l123 133h-164v40h248v-8l-129 -136c80 0 135 -48 135 -119c0 -38 -14 -69 -43 -92s-63 -34 -104 -34c-49 0 -91 12 -124 36v52c39 -32 81 -48 125 -48c57 0 97 37 97 85c0 60 -44 87 -108 87c-21 0 -38 -1 -51 -4zM95 540l-51 6c-3 7 -4 19 -4 35
c0 63 57 106 126 106c71 0 128 -36 128 -103c0 -41 -33 -81 -100 -120c-45 -27 -75 -48 -89 -63c-17 -19 -26 -40 -28 -63h222v-40h-274c0 35 6 65 17 89c12 25 26 43 41 56s39 29 72 49l40 25c19 12 49 42 49 66c0 41 -32 63 -79 63c-48 0 -77 -31 -77 -71
c0 -6 2 -18 7 -35zM607 681h47l-506 -700h-47z" />
    <glyph glyph-name="onefifth" unicode="&#x2155;" horiz-adv-x="750" 
d="M572 681h47l-506 -700h-47zM203 687h8v-389h-48v316c-11 -7 -27 -16 -50 -27s-39 -20 -50 -27v47zM565 242c79 0 140 -44 140 -123c0 -39 -14 -69 -43 -92s-63 -34 -103 -34c-49 0 -90 12 -122 36v56c29 -29 78 -51 122 -51c56 0 98 37 98 85c0 51 -41 81 -97 81
c-35 0 -68 -9 -97 -27l-8 3l24 206h206v-40h-166l-13 -108c17 5 36 8 59 8z" />
    <glyph glyph-name="twofifths" unicode="&#x2156;" horiz-adv-x="750" 
d="M575 242c79 0 140 -44 140 -123c0 -39 -14 -69 -43 -92s-63 -34 -103 -34c-49 0 -90 12 -122 36v56c29 -29 78 -51 122 -51c56 0 98 37 98 85c0 51 -41 81 -97 81c-35 0 -68 -9 -97 -27l-8 3l24 206h206v-40h-166l-13 -108c17 5 36 8 59 8zM104 540l-51 6
c-3 7 -4 19 -4 35c0 63 57 106 126 106c71 0 128 -36 128 -103c0 -41 -33 -81 -100 -120c-45 -27 -75 -48 -89 -63c-17 -19 -26 -40 -28 -63h222v-40h-274c0 35 6 65 17 89c12 25 26 43 41 56s39 29 72 49l40 25c19 12 49 42 49 66c0 41 -32 63 -79 63
c-48 0 -77 -31 -77 -71c0 -6 2 -18 7 -35zM621 681h47l-506 -700h-47z" />
    <glyph glyph-name="threefifths" unicode="&#x2157;" horiz-adv-x="750" 
d="M572 242c79 0 140 -44 140 -123c0 -39 -14 -69 -43 -92s-63 -34 -103 -34c-49 0 -90 12 -122 36v56c29 -29 78 -51 122 -51c56 0 98 37 98 85c0 51 -41 81 -97 81c-35 0 -68 -9 -97 -27l-8 3l24 206h206v-40h-166l-13 -108c17 5 36 8 59 8zM101 501l-5 8l123 133h-164v40
h248v-8l-129 -136c80 0 135 -48 135 -119c0 -38 -14 -69 -43 -92s-63 -34 -104 -34c-49 0 -91 12 -124 36v52c39 -32 81 -48 125 -48c57 0 97 37 97 85c0 60 -44 87 -108 87c-21 0 -38 -1 -51 -4zM597 681h47l-506 -700h-47z" />
    <glyph glyph-name="fourfifths" unicode="&#x2158;" horiz-adv-x="750" 
d="M592 242c79 0 140 -44 140 -123c0 -39 -14 -69 -43 -92s-63 -34 -103 -34c-49 0 -90 12 -122 36v56c29 -29 78 -51 122 -51c56 0 98 37 98 85c0 51 -41 81 -97 81c-35 0 -68 -9 -97 -27l-8 3l24 206h206v-40h-166l-13 -108c17 5 36 8 59 8zM19 406l203 276h53l-188 -251
h139v92l37 48h9v-140h58v-39h-58v-92h-46v92h-207v14zM611 681h47l-506 -700h-47z" />
    <glyph glyph-name="onesixth" unicode="&#x2159;" horiz-adv-x="750" 
d="M683 118c0 -37 -14 -67 -41 -90s-62 -35 -103 -35c-88 0 -139 50 -139 121c0 28 12 62 36 103l104 165h53l-93 -145c10 3 26 5 47 5c39 0 71 -12 97 -36s39 -53 39 -88zM539 201c-51 0 -89 -37 -89 -84c0 -49 34 -83 89 -83s94 34 94 83c0 47 -41 84 -94 84zM206 687h8
v-389h-48v316c-10 -7 -27 -16 -50 -27s-39 -20 -50 -27v47zM583 681h47l-506 -700h-47z" />
    <glyph glyph-name="fivesixths" unicode="&#x215a;" horiz-adv-x="750" 
d="M163 542c79 0 140 -44 140 -123c0 -39 -14 -69 -43 -92s-63 -34 -103 -34c-49 0 -90 12 -122 36v56c29 -29 78 -51 122 -51c56 0 98 37 98 85c0 51 -41 81 -97 81c-35 0 -68 -9 -97 -27l-8 3l24 206h206v-40h-166l-13 -108c17 5 36 8 59 8zM714 118
c0 -37 -14 -67 -41 -90s-62 -35 -103 -35c-88 0 -139 50 -139 121c0 28 12 62 36 103l104 165h53l-93 -145c10 3 26 5 47 5c39 0 71 -12 97 -36s39 -53 39 -88zM570 201c-51 0 -89 -37 -89 -84c0 -49 34 -83 89 -83s94 34 94 83c0 47 -41 84 -94 84zM610 681h47l-506 -700
h-47z" />
    <glyph glyph-name="oneeighth" unicode="&#x215b;" horiz-adv-x="750" 
d="M564 681h47l-506 -700h-47zM204 687h8v-389h-48v316c-11 -7 -27 -16 -50 -27s-39 -20 -50 -27v47zM468 106c0 -40 33 -72 85 -72c49 0 82 32 82 72c0 43 -37 74 -82 74c-47 0 -85 -31 -85 -74zM670 280c0 -31 -15 -57 -45 -79c40 -21 60 -52 60 -93
c0 -68 -56 -115 -132 -115c-80 0 -135 45 -135 114c0 33 25 72 57 93c-28 21 -42 48 -42 80c0 63 51 107 120 107c67 0 117 -44 117 -107zM481 282c0 -35 29 -62 70 -62c40 0 70 27 70 62s-31 63 -70 63c-40 0 -70 -27 -70 -63z" />
    <glyph glyph-name="threeeighths" unicode="&#x215c;" horiz-adv-x="750" 
d="M487 106c0 -40 33 -72 85 -72c49 0 82 32 82 72c0 43 -37 74 -82 74c-47 0 -85 -31 -85 -74zM689 280c0 -31 -15 -57 -45 -79c40 -21 60 -52 60 -93c0 -68 -56 -115 -132 -115c-80 0 -135 45 -135 114c0 33 25 72 57 93c-28 21 -42 48 -42 80c0 63 51 107 120 107
c67 0 117 -44 117 -107zM500 282c0 -35 29 -62 70 -62c40 0 70 27 70 62s-31 63 -70 63c-40 0 -70 -27 -70 -63zM109 501l-5 8l123 133h-164v40h248v-8l-129 -136c80 0 135 -48 135 -119c0 -38 -14 -69 -43 -92s-63 -34 -104 -34c-49 0 -91 12 -124 36v52
c39 -32 81 -48 125 -48c57 0 97 37 97 85c0 60 -44 87 -108 87c-21 0 -38 -1 -51 -4zM597 681h47l-506 -700h-47z" />
    <glyph glyph-name="fiveeighths" unicode="&#x215d;" horiz-adv-x="750" 
d="M493 106c0 -40 33 -72 85 -72c49 0 82 32 82 72c0 43 -37 74 -82 74c-47 0 -85 -31 -85 -74zM695 280c0 -31 -15 -57 -45 -79c40 -21 60 -52 60 -93c0 -68 -56 -115 -132 -115c-80 0 -135 45 -135 114c0 33 25 72 57 93c-28 21 -42 48 -42 80c0 63 51 107 120 107
c67 0 117 -44 117 -107zM506 282c0 -35 29 -62 70 -62c40 0 70 27 70 62s-31 63 -70 63c-40 0 -70 -27 -70 -63zM168 542c79 0 140 -44 140 -123c0 -39 -14 -69 -43 -92s-63 -34 -103 -34c-49 0 -90 12 -122 36v56c29 -29 78 -51 122 -51c56 0 98 37 98 85
c0 51 -41 81 -97 81c-35 0 -68 -9 -97 -27l-8 3l24 206h206v-40h-166l-13 -108c17 5 36 8 59 8zM599 681h47l-506 -700h-47z" />
    <glyph glyph-name="seveneighths" unicode="&#x215e;" horiz-adv-x="750" 
d="M478 106c0 -40 33 -72 85 -72c49 0 82 32 82 72c0 43 -37 74 -82 74c-47 0 -85 -31 -85 -74zM680 280c0 -31 -15 -57 -45 -79c40 -21 60 -52 60 -93c0 -68 -56 -115 -132 -115c-80 0 -135 45 -135 114c0 33 25 72 57 93c-28 21 -42 48 -42 80c0 63 51 107 120 107
c67 0 117 -44 117 -107zM491 282c0 -35 29 -62 70 -62c40 0 70 27 70 62s-31 63 -70 63c-40 0 -70 -27 -70 -63zM321 674l-180 -376h-49l165 344h-203v40h267v-8zM558 681h47l-506 -700h-47z" />
    <glyph glyph-name="uni215F" unicode="&#x215f;" horiz-adv-x="433" 
d="M591 681h47l-506 -700h-47zM224 687h8v-389h-48v316c-11 -7 -27 -16 -50 -27s-39 -20 -50 -27v47z" />
    <glyph glyph-name="partialdiff" unicode="&#x2202;" horiz-adv-x="532" 
d="M251 -10c-57 0 -104 19 -141 56c-36 38 -54 91 -54 159c0 63 18 114 55 153s84 59 140 59c65 0 120 -23 165 -68c-1 97 -21 174 -60 232c-39 59 -90 88 -154 88c-21 0 -40 -1 -57 -4l14 46c13 3 30 4 50 4c59 0 109 -19 150 -56c83 -75 115 -189 115 -324
c0 -109 -20 -194 -61 -255c-41 -60 -95 -90 -162 -90zM253 39c35 0 65 13 90 39c51 52 71 128 74 211c-47 55 -102 82 -164 82c-45 0 -80 -16 -105 -48s-37 -71 -37 -116c0 -112 59 -168 142 -168z" />
    <glyph glyph-name="gradient" unicode="&#x2207;" horiz-adv-x="637" 
d="M17 662h607l-295 -666h-18zM540 611h-442l220 -500h1z" />
    <glyph glyph-name="product" unicode="&#x220f;" horiz-adv-x="605" 
d="M530 662v-762h-57v710h-340v-710h-58v762h455z" />
    <glyph glyph-name="summation" unicode="&#x2211;" horiz-adv-x="575" 
d="M153 609l171 -300l-187 -356h403v-53h-495v9l211 398l-198 343v12h463v-53h-368z" />
    <glyph glyph-name="minus" unicode="&#x2212;" 
d="M459 321v-45h-379v45h379z" />
    <glyph glyph-name="radical" unicode="&#x221a;" horiz-adv-x="522" 
d="M31 328l97 50l105 -292l1 1c22 77 57 189 106 336s85 262 108 344h51l-256 -796h-16l-130 341l-50 -25z" />
    <glyph glyph-name="infinity" unicode="&#x221e;" horiz-adv-x="750" 
d="M206 440c55 0 114 -37 178 -111c24 25 43 44 57 57c28 25 79 54 127 54c83 0 141 -59 141 -144c0 -43 -15 -79 -44 -108s-64 -43 -106 -43c-56 0 -103 28 -176 108c-21 -22 -40 -40 -55 -53c-29 -27 -80 -55 -128 -55c-39 0 -72 14 -99 43s-41 63 -41 104
c0 42 14 77 41 105c28 29 63 43 105 43zM202 392c-52 0 -91 -47 -91 -100c0 -56 43 -100 96 -100c39 0 88 32 147 97l-47 50c-11 11 -27 23 -47 35s-39 18 -58 18zM563 392c-38 0 -87 -33 -148 -100l41 -44c7 -7 18 -17 31 -28c28 -23 47 -28 74 -28s49 10 67 31
c19 21 28 45 28 72c0 60 -42 97 -93 97z" />
    <glyph glyph-name="logicaland" unicode="&#x2227;" 
d="M270 472l220 -472h-56l-171 368c-19 -46 -46 -109 -81 -188s-61 -139 -78 -180h-55c21 53 56 132 103 237c48 105 82 184 103 235h15z" />
    <glyph glyph-name="logicalor" unicode="&#x2228;" 
d="M263 102l171 368h56l-220 -472h-15c-21 51 -55 129 -103 234c-47 105 -82 185 -103 238h55c17 -41 43 -102 78 -181s62 -141 81 -187z" />
    <glyph glyph-name="intersection" unicode="&#x2229;" 
d="M129 278v-278h-54c0 31 0 77 -1 140v140c0 116 74 193 194 193c61 0 109 -19 144 -57s53 -87 53 -147v-269h-56v271c0 89 -50 152 -142 152c-91 0 -138 -57 -138 -145z" />
    <glyph glyph-name="union" unicode="&#x222a;" 
d="M75 469h54v-277c0 -87 49 -144 138 -144c92 0 142 63 142 152v269h56v-268c0 -59 -18 -108 -53 -146c-35 -37 -83 -56 -144 -56c-120 0 -194 76 -194 192v138c1 62 1 109 1 140z" />
    <glyph glyph-name="integral" unicode="&#x222b;" horiz-adv-x="322" 
d="M151 12c0 67 -5 161 -15 280c-10 120 -15 213 -15 280c0 99 43 160 124 160c25 0 48 -4 67 -11v-42c-20 4 -38 6 -54 6c-59 0 -85 -30 -85 -113c0 -73 5 -169 16 -287s16 -209 16 -273c0 -99 -43 -155 -122 -155c-20 0 -44 4 -71 11v44c25 -7 46 -10 64 -10
c59 0 75 35 75 110z" />
    <glyph glyph-name="approxequal" unicode="&#x2248;" 
d="M428 274l29 -26c-24 -48 -58 -72 -102 -72c-21 0 -52 9 -93 26c-40 18 -66 27 -79 27c-24 0 -48 -18 -73 -54l-28 26c26 49 60 73 102 73c21 0 52 -9 93 -27s67 -27 80 -27c24 0 48 18 71 54zM428 409l29 -26c-25 -49 -59 -73 -102 -73c-21 0 -52 9 -93 26
c-40 18 -66 27 -79 27c-24 0 -48 -18 -73 -54l-28 26c26 49 60 74 102 74c21 0 52 -9 93 -27s67 -27 80 -27c24 0 48 18 71 54z" />
    <glyph glyph-name="notequal" unicode="&#x2260;" 
d="M116 93h-50l93 100h-87v44h129l110 118h-239v44h281l72 77h49l-72 -77h61v-44h-102l-111 -118h213v-44h-254z" />
    <glyph glyph-name="lessequal" unicode="&#x2264;" 
d="M495 164v-53l-451 183v12l451 183v-53l-334 -134zM495 25h-451v48h451v-48z" />
    <glyph glyph-name="greaterequal" unicode="&#x2265;" 
d="M44 73h451v-48h-451v48zM495 306v-12l-451 -183v53l334 138l-334 134v53z" />
    <glyph glyph-name="lozenge" unicode="&#x25ca;" 
d="M284 0h-26l-198 344l198 332h26l196 -332zM271 601l-151 -257l152 -269l147 269z" />
    <glyph glyph-name="zero.text" unicode="&#xe000;" 
d="M269 672c77 0 137 -35 169 -80c17 -23 30 -50 40 -83c21 -64 25 -117 25 -180c0 -61 -5 -114 -26 -178c-27 -90 -90 -158 -208 -161c-93 0 -159 45 -191 117c-31 72 -42 139 -42 222c0 63 5 116 25 180c29 92 90 160 208 163zM269 624c-72 0 -123 -41 -146 -108
c-23 -65 -29 -120 -29 -187c0 -52 2 -95 17 -151c20 -76 66 -140 158 -140c73 0 124 41 147 105c23 65 30 119 30 186c0 52 -3 95 -18 151c-21 78 -67 144 -159 144z" />
    <glyph glyph-name="one.text" unicode="&#xe001;" horiz-adv-x="435" 
d="M265 666h15v-666h-57v577l-157 -109v61z" />
    <glyph glyph-name="two.text" unicode="&#xe002;" 
d="M479 0h-423l-16 9c1 67 16 122 37 161c11 19 26 38 45 57c20 19 39 36 58 49s43 30 74 49c44 27 64 40 100 71c37 32 56 66 56 102c0 83 -60 125 -147 125s-140 -59 -140 -140c0 -15 2 -31 6 -48l-60 9c-3 13 -5 30 -5 51c0 52 20 94 59 127s87 50 142 50
c57 0 106 -15 146 -44s60 -72 60 -128c0 -69 -54 -137 -163 -203c-31 -18 -55 -33 -72 -45s-38 -29 -61 -50c-47 -43 -70 -94 -71 -155h375v-47z" />
    <glyph glyph-name="three.text" unicode="&#xe003;" 
d="M152 356l-9 11l205 244l-1 4h-297v46h397v-13l-205 -237c131 0 213 -77 213 -205c0 -65 -23 -117 -69 -156c-45 -39 -101 -59 -166 -59c-80 0 -146 19 -198 58v64c57 -49 124 -73 199 -73c53 0 95 15 127 46c33 31 49 70 49 117c0 108 -72 161 -179 161
c-21 0 -43 -3 -66 -8z" />
    <glyph glyph-name="four.text" unicode="&#xe004;" 
d="M366 403l46 69h9v-251h91v-46h-91v-175h-55v175h-357v13l344 474h69l-321 -441h265v182z" />
    <glyph glyph-name="five.text" unicode="&#xe005;" 
d="M261 409c63 0 117 -18 160 -54c43 -35 65 -86 65 -151c0 -66 -23 -118 -69 -156c-45 -38 -101 -57 -168 -57c-78 0 -143 19 -195 58v65c41 -43 119 -75 195 -75c53 0 97 15 130 46s50 71 50 118c0 104 -70 158 -177 158c-55 0 -107 -15 -157 -46l-14 5l44 341h337v-45
h-288l-29 -228c33 14 71 21 116 21z" />
    <glyph glyph-name="six.text" unicode="&#xe006;" 
d="M105 381l170 280h62l-175 -286l5 -1c24 22 62 33 113 33c62 0 113 -20 153 -59c41 -39 61 -88 61 -149c0 -62 -21 -113 -63 -152s-96 -58 -161 -58c-69 0 -123 19 -164 58s-61 89 -61 152c0 57 20 117 60 182zM272 360c-49 0 -90 -14 -123 -43c-32 -29 -48 -68 -48 -118
c0 -95 64 -163 169 -163c104 0 168 68 168 163c0 93 -65 161 -166 161z" />
    <glyph glyph-name="seven.text" unicode="&#xe007;" horiz-adv-x="463" 
d="M432 647l-289 -647h-56l275 615h-335v46h405v-14z" />
    <glyph glyph-name="eight.text" unicode="&#xe008;" 
d="M371 357v-3c81 -31 121 -89 121 -173c0 -58 -21 -104 -63 -139c-41 -35 -94 -52 -158 -52c-66 0 -120 17 -161 51s-62 80 -62 137c0 75 46 141 119 168v4c-62 29 -93 78 -93 148c0 51 19 93 56 125c38 33 85 49 141 49c55 0 102 -16 140 -48s57 -74 57 -126
c0 -64 -38 -120 -97 -141zM271 326c-100 0 -167 -60 -167 -143c0 -85 64 -147 167 -147c100 0 165 63 165 147s-64 143 -165 143zM131 496c0 -72 59 -124 140 -124c80 0 140 52 140 124c0 73 -57 127 -140 127s-140 -54 -140 -127z" />
    <glyph glyph-name="nine.text" unicode="&#xe009;" 
d="M433 282l-170 -282h-62l174 285l-4 3c-25 -22 -63 -33 -112 -33c-61 0 -112 19 -152 58s-60 89 -60 149c0 61 21 111 62 150c42 39 95 59 160 59c68 0 122 -19 162 -58c41 -38 61 -88 61 -151c0 -55 -20 -115 -59 -180zM267 303c99 0 169 60 169 159
c0 95 -63 162 -167 162c-103 0 -166 -69 -166 -162s64 -159 164 -159z" />
    <glyph glyph-name="numbersign.text" unicode="&#xe00a;" horiz-adv-x="510" 
d="M364 452l39 176h41c-5 -23 -13 -55 -22 -98l-17 -78h80v-36h-89l-39 -176h89v-36h-97l-44 -204h-41l45 204h-161l-45 -204h-40l45 204h-84v36h92c4 19 10 49 19 88s15 69 19 88h-93v36h101c9 39 23 97 40 176h40l-39 -176h161zM355 416h-160l-39 -176h161
c19 87 32 145 38 176z" />
    <glyph glyph-name="dollar.text" unicode="&#xe00b;" 
d="M294 -96h-48v92c-70 3 -129 20 -176 51v57c59 -41 120 -61 183 -61c103 0 160 49 160 124c0 185 -327 148 -327 337c0 96 67 149 160 158v95h48v-94c49 -2 94 -14 137 -36v-60c-47 32 -99 48 -154 48c-91 0 -136 -38 -136 -114c0 -47 52 -82 116 -111
c92 -39 215 -94 213 -211c0 -108 -69 -170 -176 -181v-94z" />
    <glyph glyph-name="euro.text" unicode="&#xe00c;" 
d="M38 272v37h403v-37h-299c2 -70 26 -126 72 -168c47 -41 101 -62 162 -62c45 0 88 9 130 27v-49c-43 -17 -87 -26 -133 -26c-76 0 -142 25 -198 74c-56 50 -86 118 -90 204h-47zM441 403v-37h-403v37h52c9 83 40 147 95 194s119 71 193 71c36 0 73 -6 111 -17v-50
c-41 11 -79 17 -113 17c-60 0 -111 -19 -154 -58c-43 -38 -67 -90 -74 -157h293z" />
    <glyph glyph-name="florin.text" unicode="&#xe00d;" horiz-adv-x="458" 
d="M199 356h-81v43h88l11 95c15 119 61 176 152 176c21 0 44 -4 67 -12v-47c-24 7 -45 10 -62 10c-61 0 -89 -37 -101 -128l-12 -94h97v-43h-102l-24 -187c-13 -98 -30 -165 -52 -201c-21 -37 -55 -55 -102 -55c-25 0 -50 5 -75 15v56c28 -11 51 -17 70 -17
c34 0 57 15 70 45c13 31 25 96 37 196z" />
    <glyph glyph-name="sterling.text" unicode="&#xe00e;" 
d="M465 649v-50c-33 13 -64 19 -92 19c-83 0 -141 -48 -141 -163v-99h183v-41h-183c-1 -49 -7 -98 -18 -149c-11 -50 -28 -90 -51 -119h307v-47h-390v12c64 70 96 171 96 303h-82v41h82v100c0 183 132 210 195 210c36 0 67 -6 94 -17z" />
    <glyph glyph-name="cent.text" unicode="&#xe00f;" horiz-adv-x="510" 
d="M328 6h-48v105c-124 13 -191 104 -191 227c0 60 18 112 53 155c35 44 81 70 138 79v108h48v-105c39 -1 72 -8 100 -20v-54c-28 17 -63 26 -104 26c-50 0 -92 -17 -126 -51s-51 -80 -51 -138c0 -107 68 -179 176 -179c51 0 92 11 123 34v-54c-29 -17 -68 -26 -118 -29
v-104z" />
    <glyph glyph-name="yen.text" unicode="&#xe010;" 
d="M497 322v-37h-430v37h165l-189 340h65l170 -327h3l176 327h59l-191 -340h172zM67 191v37h430v-37h-189l-1 -191h-57v191h-183z" />
    <glyph glyph-name="zero.taboldstyle" unicode="&#xe024;" horiz-adv-x="510" 
d="M256 -10c-71 0 -127 22 -169 66c-41 44 -62 100 -62 167c0 65 22 119 67 164s100 68 164 68c66 0 121 -22 164 -67s65 -100 65 -165c0 -66 -22 -121 -66 -166c-43 -45 -98 -67 -163 -67zM256 407c-51 0 -92 -18 -125 -54c-32 -35 -48 -79 -48 -130c0 -53 15 -98 46 -133
s74 -52 127 -52c52 0 94 18 125 53c31 36 47 80 47 132c0 51 -16 95 -48 130c-31 36 -73 54 -124 54z" />
    <glyph glyph-name="one.taboldstyle" unicode="&#xe025;" horiz-adv-x="510" 
d="M468 0h-406v45h186v327l-166 -88v55l208 112h12v-406h166v-45z" />
    <glyph glyph-name="two.taboldstyle" unicode="&#xe026;" horiz-adv-x="510" 
d="M130 261l-58 8c-5 14 -7 29 -7 44c0 40 17 74 52 103s83 43 143 43c116 0 189 -53 189 -137c0 -65 -44 -102 -123 -135c-11 -5 -29 -12 -54 -21s-44 -17 -58 -23c-43 -19 -101 -52 -105 -97h354v-46h-417c0 45 11 82 33 110c17 21 43 41 80 60s72 33 105 44s63 25 89 44
s39 40 39 63c0 52 -43 89 -135 89c-91 0 -137 -51 -137 -107c0 -15 3 -29 10 -42z" />
    <glyph glyph-name="three.taboldstyle" unicode="&#xe027;" horiz-adv-x="510" 
d="M127 163l-7 12l200 221h-271v48h366v-13l-199 -218c60 -1 110 -18 149 -52c39 -33 59 -79 59 -137c0 -59 -21 -107 -64 -144c-42 -37 -94 -55 -155 -55c-72 0 -132 18 -180 55v61c55 -45 115 -68 182 -68c97 0 162 61 162 149c0 99 -74 151 -171 151
c-19 0 -43 -3 -71 -10z" />
    <glyph glyph-name="four.taboldstyle" unicode="&#xe028;" horiz-adv-x="510" 
d="M14 13l308 431h61l-285 -399h232v178l45 68h9v-246h99v-45h-99v-171h-54v171h-316v13z" />
    <glyph glyph-name="five.taboldstyle" unicode="&#xe029;" horiz-adv-x="510" 
d="M244 217c59 0 109 -17 150 -51c41 -33 61 -81 61 -142c0 -62 -22 -111 -65 -146s-95 -53 -156 -53c-71 0 -131 18 -180 55v61c39 -40 109 -68 181 -68c97 0 164 60 164 151c0 89 -69 145 -162 145c-49 0 -97 -14 -142 -42l-14 4l40 313h302v-48h-259l-24 -199
c31 13 66 20 104 20z" />
    <glyph glyph-name="six.taboldstyle" unicode="&#xe02a;" horiz-adv-x="510" 
d="M462 188c0 -57 -20 -105 -60 -142s-91 -55 -153 -55c-127 0 -201 78 -201 189c0 50 18 104 55 163l155 266h61l-146 -243c0 -1 0 -1 1 -2c25 11 55 17 90 17c57 0 105 -19 142 -56s56 -82 56 -137zM250 332c-41 0 -76 -14 -104 -42c-27 -28 -41 -62 -41 -103
c0 -89 57 -148 145 -148c92 0 156 60 156 148c0 41 -15 75 -45 103c-29 28 -66 42 -111 42z" />
    <glyph glyph-name="seven.taboldstyle" unicode="&#xe02b;" horiz-adv-x="510" 
d="M438 427l-270 -595h-59l256 564h-319v48h392v-17z" />
    <glyph glyph-name="eight.taboldstyle" unicode="&#xe02c;" horiz-adv-x="510" 
d="M115 165c0 -72 56 -129 141 -129c84 0 140 57 140 129c0 79 -61 132 -140 132c-39 0 -73 -12 -100 -37c-27 -24 -41 -56 -41 -95zM429 453c0 -51 -33 -105 -78 -133c65 -28 102 -87 102 -152c0 -53 -19 -96 -56 -129s-84 -50 -141 -50c-59 0 -107 16 -144 48
s-55 75 -55 129c0 31 10 62 29 91c20 29 44 50 73 62c-47 25 -78 81 -78 134c0 49 16 89 49 119c33 31 75 46 126 46c50 0 91 -15 124 -46s49 -70 49 -119zM134 454c0 -61 51 -111 120 -111s119 48 119 111c0 65 -51 113 -119 113s-120 -48 -120 -113z" />
    <glyph glyph-name="nine.taboldstyle" unicode="&#xe02d;" horiz-adv-x="510" 
d="M48 258c0 57 20 104 60 141s91 56 153 56c127 0 201 -78 201 -189c0 -48 -18 -102 -54 -163l-159 -271h-61l149 248c0 1 0 1 -1 2c-25 -11 -55 -17 -90 -17c-57 0 -105 18 -142 55s-56 83 -56 138zM260 114c41 0 76 14 103 42c28 28 42 62 42 103c0 89 -57 148 -145 148
c-92 0 -156 -60 -156 -148c0 -41 15 -75 44 -103c30 -28 67 -42 112 -42z" />
    <glyph glyph-name="numbersign.taboldstyle" unicode="&#xe02e;" horiz-adv-x="510" 
d="M335 352l31 132h41l-30 -132h68v-40h-77l-28 -120h74v-38h-83l-36 -154h-41l37 154h-119l-37 -154h-41l36 154h-66v38h75l29 120h-75v40h83l30 132h43l-33 -132h119zM327 312h-119l-28 -120h117z" />
    <glyph glyph-name="dollar.taboldstyle" unicode="&#xe02f;" horiz-adv-x="510" 
d="M281 -90h-47v84c-60 3 -112 17 -155 43v57c53 -36 107 -54 162 -54c84 0 139 33 139 100c0 52 -45 91 -101 115c-82 35 -186 71 -186 162c0 80 61 127 142 135v81h45v-81c41 -2 80 -13 119 -32v-57c-41 27 -87 41 -136 41c-76 0 -114 -30 -114 -90c0 -36 45 -65 100 -89
c80 -33 185 -81 184 -175c0 -91 -60 -143 -152 -154v-86z" />
    <glyph glyph-name="euro.taboldstyle" unicode="&#xe030;" horiz-adv-x="510" 
d="M48 213v41h354v-41h-255c15 -111 96 -173 200 -173c39 0 78 8 115 24v-50c-42 -15 -81 -22 -118 -22c-67 0 -125 19 -173 57c-47 39 -74 93 -80 164h-43zM402 346v-42h-354v42h48c24 135 123 208 252 208c35 0 67 -5 97 -14v-52c-35 10 -68 15 -98 15
c-103 0 -168 -52 -194 -157h249z" />
    <glyph glyph-name="florin.taboldstyle" unicode="&#xe031;" horiz-adv-x="510" 
d="M234 290h-75v45h81l10 81c13 109 57 161 142 161c20 0 41 -4 64 -11v-45c-23 5 -42 7 -59 7c-56 0 -88 -37 -95 -111l-11 -82h92v-45h-96l-21 -164c-12 -85 -27 -145 -46 -179s-50 -51 -95 -51c-24 0 -48 5 -71 14v52c27 -10 49 -15 67 -15c30 0 50 13 61 40
s23 85 35 174z" />
    <glyph glyph-name="sterling.taboldstyle" unicode="&#xe032;" horiz-adv-x="510" 
d="M413 541v-51c-29 11 -57 16 -84 16c-71 0 -120 -37 -120 -129v-77h158v-44h-158c-1 -102 -19 -172 -54 -210h262v-46h-344v13c30 17 51 51 64 101s19 97 19 142h-71v44h71v78c1 154 116 177 172 176c33 0 62 -4 85 -13z" />
    <glyph glyph-name="cent.taboldstyle" unicode="&#xe033;" horiz-adv-x="510" 
d="M305 -29h-45v89c-104 9 -162 84 -162 184c0 97 66 175 162 188v87h45v-86c29 -1 55 -6 76 -15v-55c-26 16 -56 24 -89 24c-77 0 -137 -56 -137 -143c0 -81 53 -137 136 -137c38 0 73 11 105 33v-54c-23 -13 -53 -22 -91 -26v-89z" />
    <glyph glyph-name="yen.taboldstyle" unicode="&#xe034;" horiz-adv-x="510" 
d="M454 305v-42h-391v42h136l-148 238h63l152 -253l137 253h56l-133 -238h128zM63 171v41h391v-41h-161v-171h-55v171h-175z" />
    <glyph glyph-name="zero.textoldstyle" unicode="&#xe048;" horiz-adv-x="510" 
d="M256 -10c-71 0 -127 22 -169 66c-41 44 -62 100 -62 167c0 65 22 119 67 164s100 68 164 68c66 0 121 -22 164 -67s65 -100 65 -165c0 -66 -22 -121 -66 -166c-43 -45 -98 -67 -163 -67zM256 407c-51 0 -92 -18 -125 -54c-32 -35 -48 -79 -48 -130c0 -53 15 -98 46 -133
s74 -52 127 -52c52 0 94 18 125 53c31 36 47 80 47 132c0 51 -16 95 -48 130c-31 36 -73 54 -124 54z" />
    <glyph glyph-name="one.textoldstyle" unicode="&#xe049;" horiz-adv-x="461" 
d="M438 0h-406v45h186v324l-166 -83v53l207 110h13v-404h166v-45z" />
    <glyph glyph-name="two.textoldstyle" unicode="&#xe04a;" horiz-adv-x="510" 
d="M130 261l-58 8c-5 14 -7 29 -7 44c0 40 17 74 52 103s83 43 143 43c116 0 189 -53 189 -137c0 -64 -42 -101 -117 -133c-13 -5 -31 -13 -56 -22c-24 -9 -43 -16 -58 -23c-47 -18 -104 -53 -109 -98h354v-46h-417c0 45 11 82 33 110c17 21 43 41 80 60s72 33 105 44
s63 25 89 44s39 40 39 63c0 52 -43 89 -135 89c-91 0 -137 -51 -137 -107c0 -15 3 -29 10 -42z" />
    <glyph glyph-name="three.textoldstyle" unicode="&#xe04b;" horiz-adv-x="484" 
d="M114 163l-7 12l200 221h-271v48h366v-13l-199 -218c60 -1 110 -18 149 -52c39 -33 59 -79 59 -137c0 -59 -21 -107 -64 -144c-42 -37 -94 -55 -155 -55c-72 0 -132 18 -180 55v61c55 -45 115 -68 182 -68c97 0 162 61 162 149c0 99 -74 151 -171 151
c-19 0 -43 -3 -71 -10z" />
    <glyph glyph-name="four.textoldstyle" unicode="&#xe04c;" horiz-adv-x="510" 
d="M14 13l308 431h61l-285 -399h232v178l45 68h9v-246h99v-45h-99v-171h-54v171h-316v13z" />
    <glyph glyph-name="five.textoldstyle" unicode="&#xe04d;" horiz-adv-x="496" 
d="M234 217c59 0 109 -17 150 -51c41 -33 61 -81 61 -142c0 -62 -22 -111 -65 -146s-95 -53 -156 -53c-71 0 -131 18 -180 55v61c39 -40 109 -68 181 -68c97 0 164 60 164 151c0 89 -69 145 -162 145c-50 0 -98 -14 -143 -42l-13 4l40 313h302v-48h-259l-26 -199
c31 13 67 20 106 20z" />
    <glyph glyph-name="six.textoldstyle" unicode="&#xe04e;" horiz-adv-x="510" 
d="M462 188c0 -57 -20 -105 -60 -142s-91 -55 -153 -55c-127 0 -201 78 -201 189c0 50 18 104 55 163l155 266h61l-146 -243c0 -1 0 -1 1 -2c25 11 55 17 90 17c57 0 105 -19 142 -56s56 -82 56 -137zM250 332c-41 0 -76 -14 -104 -42c-27 -28 -41 -62 -41 -103
c0 -89 57 -148 145 -148c92 0 156 60 156 148c0 41 -15 75 -45 103c-29 28 -66 42 -111 42z" />
    <glyph glyph-name="seven.textoldstyle" unicode="&#xe04f;" horiz-adv-x="449" 
d="M408 427l-270 -595h-59l256 564h-319v48h392v-17z" />
    <glyph glyph-name="eight.textoldstyle" unicode="&#xe050;" horiz-adv-x="510" 
d="M115 165c0 -72 56 -129 141 -129c84 0 140 57 140 129c0 79 -61 132 -140 132c-39 0 -73 -12 -100 -37c-27 -24 -41 -56 -41 -95zM429 453c0 -51 -33 -105 -78 -133c65 -28 102 -87 102 -152c0 -53 -19 -96 -56 -129s-84 -50 -141 -50c-59 0 -107 16 -144 48
s-55 75 -55 129c0 31 10 62 29 91c20 29 44 50 73 62c-47 25 -78 81 -78 134c0 49 16 89 49 119c33 31 75 46 126 46c50 0 91 -15 124 -46s49 -70 49 -119zM134 454c0 -61 51 -111 120 -111s119 48 119 111c0 65 -51 113 -119 113s-120 -48 -120 -113z" />
    <glyph glyph-name="nine.textoldstyle" unicode="&#xe051;" horiz-adv-x="510" 
d="M48 258c0 57 20 104 60 141s91 56 153 56c127 0 201 -78 201 -189c0 -50 -18 -104 -55 -163l-158 -271h-61l149 248c0 1 0 1 -1 2c-25 -11 -55 -17 -90 -17c-57 0 -105 18 -142 55s-56 83 -56 138zM260 114c41 0 76 14 103 42c28 28 42 62 42 103c0 89 -57 148 -145 148
c-92 0 -156 -60 -156 -148c0 -41 15 -75 44 -103c30 -28 67 -42 112 -42z" />
    <glyph glyph-name="numbersign.textoldstyle" unicode="&#xe052;" horiz-adv-x="455" 
d="M305 352l31 132h41l-30 -132h68v-40h-77l-28 -120h74v-38h-83l-36 -154h-41l37 154h-119l-37 -154h-41l36 154h-66v38h75l29 120h-75v40h83l30 132h43l-33 -132h119zM297 312h-119l-28 -120h117z" />
    <glyph glyph-name="dollar.textoldstyle" unicode="&#xe053;" horiz-adv-x="444" 
d="M241 -90h-47v84c-60 3 -112 17 -155 43v57c53 -36 107 -54 162 -54c84 0 139 33 139 100c0 52 -45 91 -101 115c-82 35 -186 71 -186 162c0 80 61 127 142 135v81h45v-81c41 -2 80 -13 119 -32v-57c-41 27 -87 41 -136 41c-76 0 -114 -30 -114 -90c0 -36 45 -65 100 -89
c80 -33 185 -81 184 -175c0 -91 -60 -143 -152 -154v-86z" />
    <glyph glyph-name="euro.textoldstyle" unicode="&#xe054;" horiz-adv-x="490" 
d="M38 213v41h355v-41h-256c15 -111 96 -173 200 -173c39 0 78 8 115 24v-50c-42 -15 -81 -22 -118 -22c-67 0 -125 19 -173 57c-47 39 -74 93 -80 164h-43zM393 346v-42h-355v42h48c24 135 123 208 252 208c35 0 67 -5 97 -14v-52c-35 10 -68 15 -98 15
c-103 0 -168 -52 -194 -157h250z" />
    <glyph glyph-name="florin.textoldstyle" unicode="&#xe055;" horiz-adv-x="397" 
d="M174 290h-75v45h81l10 81c13 109 57 161 142 161c20 0 41 -4 64 -11v-45c-23 5 -42 7 -59 7c-56 0 -88 -37 -95 -111l-11 -82h92v-45h-96l-21 -164c-12 -85 -27 -145 -46 -179s-50 -51 -95 -51c-24 0 -48 5 -71 14v52c27 -10 49 -15 67 -15c30 0 50 13 61 40
s23 85 35 174z" />
    <glyph glyph-name="sterling.textoldstyle" unicode="&#xe056;" horiz-adv-x="438" 
d="M383 541v-51c-29 11 -57 16 -84 16c-71 0 -120 -37 -120 -129v-77h158v-44h-158c-1 -102 -19 -172 -54 -210h262v-46h-344v13c30 17 51 51 64 101s19 97 19 142h-71v44h71v78c1 154 116 177 172 176c33 0 62 -4 85 -13z" />
    <glyph glyph-name="cent.textoldstyle" unicode="&#xe057;" horiz-adv-x="432" 
d="M277 -29h-45v89c-104 9 -162 84 -162 184c0 97 66 175 162 188v87h45v-86c29 -1 55 -6 76 -15v-55c-26 16 -56 24 -89 24c-77 0 -137 -56 -137 -143c0 -81 53 -137 136 -137c38 0 73 11 105 33v-54c-23 -13 -53 -22 -91 -26v-89z" />
    <glyph glyph-name="yen.textoldstyle" unicode="&#xe058;" horiz-adv-x="455" 
d="M424 305v-42h-391v42h136l-148 238h63l152 -253l137 253h56l-133 -238h128zM33 171v41h391v-41h-161v-171h-55v171h-175z" />
    <glyph glyph-name="percent.text" unicode="&#xe059;" horiz-adv-x="646" 
d="M181 300c-81 0 -133 56 -133 129c0 37 13 69 38 94c26 26 58 39 95 39c76 0 130 -57 130 -133c0 -36 -13 -67 -38 -92s-55 -37 -92 -37zM181 516c-51 0 -85 -38 -85 -87c0 -48 32 -85 85 -85c49 0 81 38 81 85c0 48 -33 87 -81 87zM481 577h53l-364 -591h-52zM468 -6
c-80 0 -132 56 -132 129c0 37 13 69 38 94c26 25 57 38 94 38c77 0 131 -56 131 -132c0 -37 -13 -67 -38 -92s-56 -37 -93 -37zM468 209c-49 0 -84 -37 -84 -86s32 -84 84 -84c49 0 82 39 82 84c0 48 -34 86 -82 86z" />
    <glyph glyph-name="perthousand.text" unicode="&#xe05a;" horiz-adv-x="944" 
d="M181 300c-81 0 -133 56 -133 129c0 37 13 69 38 94c26 26 58 39 95 39c76 0 130 -57 130 -133c0 -36 -13 -67 -38 -92s-55 -37 -92 -37zM181 516c-51 0 -85 -38 -85 -87c0 -48 32 -85 85 -85c49 0 81 38 81 85c0 48 -33 87 -81 87zM481 577h53l-364 -591h-52zM468 -6
c-80 0 -132 56 -132 129c0 37 13 69 38 94c26 25 57 38 94 38c77 0 131 -56 131 -132c0 -37 -13 -67 -38 -92s-56 -37 -93 -37zM468 209c-49 0 -84 -37 -84 -86s32 -84 84 -84c49 0 82 39 82 84c0 48 -34 86 -82 86zM771 -6c-80 0 -132 56 -132 129c0 37 13 69 38 94
c26 25 57 38 94 38c77 0 131 -56 131 -132c0 -73 -55 -129 -131 -129zM771 209c-49 0 -84 -37 -84 -86s32 -84 84 -84c49 0 82 39 82 84c0 48 -34 86 -82 86z" />
    <glyph glyph-name="asuperior" unicode="&#xe06c;" horiz-adv-x="348" 
d="M268 298l-10 39l-2 1c-21 -31 -55 -47 -103 -47c-84 0 -118 44 -118 89c0 67 52 100 155 100h66v13c0 45 -28 68 -83 68c-29 0 -64 -11 -106 -32v45c35 19 71 28 108 28c86 0 129 -39 129 -118v-186h-36zM256 420v21h-64c-71 0 -107 -20 -107 -59c0 -33 25 -50 76 -50
c61 0 95 35 95 88z" />
    <glyph glyph-name="bsuperior" unicode="&#xe06d;" horiz-adv-x="393" 
d="M84 356l-9 -56h-30v462h45v-217c28 35 67 53 118 53c93 0 155 -64 155 -153c0 -43 -15 -80 -45 -109c-29 -29 -67 -44 -114 -44c-51 0 -99 24 -120 64zM93 445c0 -68 45 -111 110 -111s111 48 111 111c0 64 -46 112 -111 112s-110 -48 -110 -112z" />
    <glyph glyph-name="dsuperior" unicode="&#xe06f;" horiz-adv-x="396" 
d="M187 599c51 0 90 -17 116 -52l-1 215h49v-462h-32l-14 53c-27 -41 -66 -61 -118 -61c-93 0 -157 60 -157 151c0 44 15 81 44 111s67 45 113 45zM190 558c-67 0 -112 -49 -112 -113c0 -65 44 -111 113 -111c64 0 111 48 111 112c0 65 -43 112 -112 112z" />
    <glyph glyph-name="esuperior" unicode="&#xe070;" horiz-adv-x="362" 
d="M312 381v-53c-33 -23 -73 -35 -119 -35c-101 0 -164 61 -164 156c0 43 15 80 44 109c30 30 66 45 109 45c89 0 144 -65 144 -152c0 -7 -1 -13 -2 -18h-243c5 -57 53 -97 110 -97c42 0 82 15 121 45zM182 558c-55 0 -92 -32 -99 -84h193c-8 51 -42 84 -94 84z" />
    <glyph glyph-name="egravesuperior" unicode="&#xe071;" horiz-adv-x="362" 
d="M116 754l111 -114h-44l-107 83zM312 381v-53c-33 -23 -73 -35 -119 -35c-101 0 -164 61 -164 156c0 43 15 80 44 109c30 30 66 45 109 45c89 0 144 -65 144 -152c0 -7 -1 -13 -2 -18h-243c5 -57 53 -97 110 -97c42 0 82 15 121 45zM182 558c-55 0 -92 -32 -99 -84h193
c-8 51 -42 84 -94 84z" />
    <glyph glyph-name="hsuperior" unicode="&#xe073;" horiz-adv-x="359" 
d="M45 763h46v-221c25 37 70 56 109 56c72 0 114 -38 114 -115v-183h-48v177c0 53 -30 80 -74 80c-53 0 -101 -43 -101 -126v-131h-46v463z" />
    <glyph glyph-name="isuperior" unicode="&#xe074;" horiz-adv-x="145" 
d="M48 592h49l-1 -292h-48v292zM72 713c17 0 33 -15 33 -31s-14 -31 -33 -31c-17 0 -32 15 -32 31c0 19 16 31 32 31z" />
    <glyph glyph-name="lsuperior" unicode="&#xe077;" horiz-adv-x="136" 
d="M45 762h46v-462h-46v462z" />
    <glyph glyph-name="msuperior" unicode="&#xe078;" horiz-adv-x="564" 
d="M93 300h-47v292h32l16 -47c24 36 67 54 99 54c51 0 85 -21 101 -63c25 41 75 63 114 63c68 0 111 -44 111 -121v-178h-48v180c0 53 -24 79 -71 79s-94 -35 -94 -100v-159h-47v172c0 58 -24 87 -72 87c-23 0 -45 -10 -65 -30c-19 -20 -29 -47 -29 -82v-147z" />
    <glyph glyph-name="osuperior" unicode="&#xe079;" horiz-adv-x="378" 
d="M190 293c-99 0 -159 65 -159 154c0 43 15 80 46 110s69 45 113 45c45 0 83 -15 113 -45c30 -29 45 -66 45 -110c0 -43 -15 -80 -46 -110c-30 -29 -67 -44 -112 -44zM83 447c0 -65 39 -113 107 -113c67 0 106 49 106 113c0 63 -42 113 -106 113s-107 -49 -107 -113z" />
    <glyph glyph-name="rsuperior" unicode="&#xe07c;" horiz-adv-x="238" 
d="M45 592h31l11 -59c19 47 65 67 108 67c13 0 26 -1 38 -3v-45c-17 4 -32 6 -46 6c-72 0 -95 -55 -95 -159v-99h-47v292z" />
    <glyph glyph-name="ssuperior" unicode="&#xe07d;" horiz-adv-x="255" 
d="M12 322v49c36 -24 70 -36 102 -36c47 0 70 15 70 44c0 27 -24 39 -71 58c-19 7 -33 13 -44 18c-20 11 -44 34 -44 65c0 55 47 83 103 83c33 0 63 -7 92 -22v-49c-35 19 -64 28 -87 28c-38 0 -57 -13 -57 -38c0 -17 19 -27 60 -43c20 -7 36 -14 47 -20
c23 -11 50 -40 50 -75c0 -57 -48 -90 -115 -90c-37 0 -73 9 -106 28z" />
    <glyph glyph-name="tsuperior" unicode="&#xe07e;" horiz-adv-x="221" 
d="M64 595l24 86h25v-85h86v-40h-86v-173c0 -31 13 -47 39 -47c19 0 40 8 63 23v-44c-19 -14 -41 -21 -67 -21c-65 0 -85 33 -85 93v169h-51v30z" />
    <glyph glyph-name="i.dot" unicode="&#xe096;" horiz-adv-x="227" 
d="M114 539c-23 0 -39 15 -39 38c0 33 43 51 66 28c25 -25 5 -66 -27 -66zM141 445v-445h-57v445h57z" />
    <glyph glyph-name="a.alt" unicode="&#xe0a8;" horiz-adv-x="579" 
d="M280 453c65 0 131 -29 166 -77l15 68h43v-444h-43l-12 70l-3 1c-40 -54 -96 -81 -167 -81s-127 21 -168 64s-61 99 -61 168c0 65 22 119 67 164s99 67 163 67zM108 222c0 -53 15 -97 46 -132s74 -52 127 -52c51 0 93 18 124 53s47 79 47 131c0 51 -16 94 -48 129
c-31 35 -72 53 -123 53s-92 -18 -125 -53c-32 -35 -48 -78 -48 -129z" />
    <glyph glyph-name="g.alt" unicode="&#xe0a9;" horiz-adv-x="570" 
d="M68 -183v58c58 -37 118 -56 181 -56c125 0 203 79 203 206v46l-5 1c-39 -53 -103 -82 -170 -82c-71 0 -128 21 -170 63c-41 42 -62 97 -62 166c0 66 22 122 67 167s101 68 166 68c67 0 134 -29 169 -78l5 3l10 66h43v-422c0 -157 -95 -252 -259 -252
c-69 0 -128 15 -178 46zM104 219c0 -107 66 -181 175 -181c52 0 93 18 124 53s47 78 47 128c0 53 -16 97 -47 133c-31 37 -73 55 -124 55s-93 -18 -126 -55c-33 -36 -49 -80 -49 -133z" />
    <glyph glyph-name="two.alt" unicode="&#xe0aa;" horiz-adv-x="490" 
d="M155 51l1 -3h290v-48h-413v13c27 19 52 39 77 58s55 46 90 79c36 33 66 66 91 98c51 64 93 151 93 224c0 89 -57 150 -140 150c-59 0 -117 -24 -174 -71v56c54 43 112 64 174 64c59 0 106 -18 141 -55c35 -36 53 -81 53 -135c0 -88 -45 -188 -109 -264
s-121 -129 -174 -166z" />
    <glyph glyph-name="two_taboldstyle.alt" unicode="&#xe0ab;" horiz-adv-x="510" 
d="M197 50v-5h267v-45h-426v14c51 24 100 49 169 93c35 23 65 45 91 66c52 44 94 101 94 149c0 57 -54 89 -131 89c-63 0 -124 -17 -185 -51v52c64 33 126 49 186 49c119 0 188 -57 188 -134c0 -57 -36 -119 -92 -167c-55 -48 -106 -82 -161 -110z" />
    <glyph glyph-name="two_textoldstyle.alt" unicode="&#xe0ac;" horiz-adv-x="510" 
d="M197 50v-5h267v-45h-426v14c51 24 100 49 169 93c35 23 65 45 91 66c52 44 94 101 94 149c0 57 -54 89 -131 89c-63 0 -124 -17 -185 -51v52c64 33 126 49 186 49c119 0 188 -57 188 -134c0 -57 -36 -119 -92 -167c-55 -48 -106 -82 -161 -110z" />
    <glyph glyph-name="A2.alt" unicode="&#xe0b6;" horiz-adv-x="612" 
d="M597 0h-60l-230 543h-4l-229 -543h-59l285 667h14z" />
    <glyph glyph-name="F.alt" unicode="&#xe0b7;" horiz-adv-x="516" 
d="M143 303v-518h-58v877h416v-52h-358v-255h328v-52h-328z" />
    <glyph glyph-name="I.alt" unicode="&#xe0b8;" horiz-adv-x="248" 
d="M153 802v-802h-58v802h58z" />
    <glyph glyph-name="L.alt" unicode="&#xe0b9;" horiz-adv-x="512" 
d="M85 0v802h58v-749h359v-53h-417z" />
    <glyph glyph-name="P2.alt" unicode="&#xe0ba;" horiz-adv-x="563" 
d="M143 -215h-59v876h217c73 0 129 -21 170 -62s61 -91 61 -150c0 -67 -23 -120 -68 -159c-45 -38 -101 -57 -166 -57h-155v-448zM280 613h-137v-332h148c59 0 103 16 133 49s45 72 45 118c0 45 -16 84 -48 116c-31 33 -78 49 -141 49z" />
    <glyph glyph-name="T.alt" unicode="&#xe0bb;" horiz-adv-x="523" 
d="M508 802v-52h-216v-750h-59v750h-218v52h493z" />
    <glyph glyph-name="Y.alt" unicode="&#xe0bc;" horiz-adv-x="577" 
d="M241 -215h-57l78 203l-259 672h59l227 -596h3l226 596h56z" />
    <glyph glyph-name="Q.alt" unicode="&#xe0bd;" horiz-adv-x="787" 
d="M395 -10c-105 0 -188 32 -249 96s-91 146 -91 245c0 95 33 176 99 242c67 66 147 99 241 99c97 0 177 -33 241 -99c64 -65 96 -146 96 -242c0 -97 -32 -178 -96 -243c-63 -65 -144 -98 -241 -98zM116 331c0 -84 25 -153 75 -207c51 -54 119 -81 204 -81
c83 0 150 28 201 83c52 56 78 124 78 205s-26 149 -79 204c-52 56 -119 84 -200 84s-148 -28 -201 -83c-52 -55 -78 -124 -78 -205zM329 -78l401 -72l-17 -53l-401 71z" />
    <glyph glyph-name="Q2.alt" unicode="&#xe0be;" horiz-adv-x="787" 
d="M428 -8v-206h-56v205c-99 5 -176 39 -233 102c-56 63 -84 143 -84 238s33 176 99 242c67 66 147 99 241 99c97 0 177 -33 241 -99c64 -65 96 -146 96 -242c0 -91 -28 -168 -85 -232s-130 -100 -219 -107zM116 331c0 -80 23 -147 69 -200s108 -82 187 -87v236h56v-236
c74 8 133 39 178 93s68 119 68 194c0 81 -26 149 -79 204c-52 56 -119 84 -200 84s-148 -28 -201 -83c-52 -55 -78 -124 -78 -205z" />
    <glyph glyph-name="uniE0C0" unicode="&#xe0c0;" horiz-adv-x="516" 
d="M501 749h-358v-749h-58v801h416v-52z" />
    <glyph glyph-name="uniE0C4" unicode="&#xe0c4;" horiz-adv-x="787" 
d="M428 -8v-206h-56v205c-99 5 -176 39 -233 102c-56 63 -84 143 -84 238s33 176 99 242c67 66 147 99 241 99c97 0 177 -33 241 -99c64 -65 96 -146 96 -242c0 -91 -28 -168 -85 -232s-130 -100 -219 -107zM116 331c0 -80 23 -147 69 -200s108 -82 187 -87v574
c-75 -6 -137 -36 -185 -90c-47 -54 -71 -120 -71 -197zM674 331c0 75 -23 139 -69 193c-45 54 -104 85 -177 93v-573c74 8 133 39 178 93s68 119 68 194z" />
    <glyph glyph-name="uniE0C5" unicode="&#xe0c5;" horiz-adv-x="731" 
d="M393 -4v-211h-58v211c-79 3 -142 28 -189 76c-47 49 -71 111 -71 186v404h57v-395c0 -58 18 -108 53 -149c36 -41 86 -63 150 -67v611h58v-611c132 7 205 93 205 213v398h58v-406c0 -73 -24 -134 -71 -182s-111 -74 -192 -78z" />
    <glyph glyph-name="Parenleft" unicode="&#xe0d8;" horiz-adv-x="290" 
d="M237 767l33 -12c-93 -133 -139 -272 -139 -418c0 -145 46 -286 137 -423l-34 -13c-49 63 -87 133 -115 210s-42 153 -42 227c0 151 53 294 160 429z" />
    <glyph glyph-name="Parenright" unicode="&#xe0d9;" horiz-adv-x="290" 
d="M26 755l33 12c107 -135 160 -278 160 -429c0 -74 -14 -150 -42 -227s-66 -147 -115 -210l-34 13c91 137 137 278 137 423c0 146 -46 285 -139 418z" />
    <glyph glyph-name="Hyphen" unicode="&#xe0da;" horiz-adv-x="376" 
d="M315 247h-254v53h254v-53z" />
    <glyph glyph-name="Bracketleft" unicode="&#xe0db;" horiz-adv-x="257" 
d="M227 -90h-152v853h152v-42h-101v-769h101v-42z" />
    <glyph glyph-name="Bracketright" unicode="&#xe0dc;" horiz-adv-x="257" 
d="M30 763h152v-853h-152v42h101v769h-101v42z" />
    <glyph glyph-name="Braceleft" unicode="&#xe0dd;" horiz-adv-x="288" 
d="M207 367v-5c45 -27 52 -70 52 -159v-178c0 -49 15 -74 45 -74h39v-44h-48c-37 0 -62 14 -74 39c-11 24 -13 45 -13 77v221c0 67 -21 105 -63 114v11c42 9 63 46 63 113v153c0 36 2 54 11 85s34 46 71 46h53v-43h-37c-39 0 -47 -25 -47 -73v-163c0 -65 -17 -105 -52 -120z
" />
    <glyph glyph-name="Braceright" unicode="&#xe0de;" horiz-adv-x="288" 
d="M171 362v5c-35 15 -52 55 -52 120v163c0 48 -8 73 -47 73h-37v43h53c37 0 62 -15 71 -46s11 -49 11 -85v-153c0 -67 21 -104 63 -113v-11c-42 -9 -63 -47 -63 -114v-221c0 -32 -2 -53 -14 -77c-11 -25 -36 -39 -73 -39h-48v44h39c30 0 45 25 45 74v178c0 30 1 53 2 69
c3 32 18 71 50 90z" />
    <glyph glyph-name="Endash" unicode="&#xe0df;" horiz-adv-x="549" 
d="M516 245h-484v48h484v-48z" />
    <glyph glyph-name="Emdash" unicode="&#xe0e0;" horiz-adv-x="830" 
d="M785 245h-750v48h750v-48z" />
    </font>
</defs>
</svg>
