<svg id="Capa_1" data-name="Capa 1" xmlns="http://www.w3.org/2000/svg" viewBox="0 0 61.431 53.586">
  <defs>
    <style>
      .cls-1 {
        fill: #fff;
      }
    </style>
  </defs>
  <title>AniChico</title>
  <ellipse class="cls-1" cx="24.459" cy="22.484" rx="2.468" ry="2.5"/>
  <ellipse class="cls-1" cx="36.954" cy="22.484" rx="2.487" ry="2.519"/>
  <path class="cls-1" d="M58.881,13.625A37.267,37.267,0,0,0,52.325,5.56c-4.048-3.587-7.425-3.5-9.078-3.127a6.244,6.244,0,0,0-1.893.756A17.266,17.266,0,0,0,30.716,0,17.266,17.266,0,0,0,20.078,3.189a6.244,6.244,0,0,0-1.894-.756c-1.652-.372-5.03-.459-9.078,3.127A37.3,37.3,0,0,0,2.55,13.625C-.1,18.081-.687,21.687.8,24.34a8.113,8.113,0,0,0,6.78,4.273A28.038,28.038,0,0,0,6.7,35.821a17.374,17.374,0,0,0,2.533,9.57,15.364,15.364,0,0,0,6.32,5.457c5.02,2.454,11.061,2.738,15.168,2.738s10.148-.283,15.168-2.738a15.362,15.362,0,0,0,6.32-5.457,17.379,17.379,0,0,0,2.533-9.57,28.033,28.033,0,0,0-.882-7.208,8.114,8.114,0,0,0,6.78-4.273C62.118,21.687,61.528,18.081,58.881,13.625ZM8.744,24.91c-1.964-.052-3.561-.432-4.665-2.405-.749-1.339-.128-3.875,1.7-6.959A33.684,33.684,0,0,1,11.6,8.374c2.614-2.316,4.574-2.444,5.5-2.32C14.352,9.4,12.67,13.745,11.264,17.972c-.582,1.75-1.144,3.244-1.687,4.689C9.286,23.434,9.007,24.178,8.744,24.91ZM28.263,37.238a4.569,4.569,0,0,1-1.482-2.5c0-.452.077-.484.365-.605a11.421,11.421,0,0,1,3.57-.385,11.418,11.418,0,0,1,3.57.385c.288.121.365.153.365.605a4.571,4.571,0,0,1-1.482,2.5,4.619,4.619,0,0,1-2.453,1.472A4.617,4.617,0,0,1,28.263,37.238ZM44.213,47.47c-2.885,1.41-6.392,2.175-11.655,2.327v-7.7a9.013,9.013,0,0,0,3.25-2.2c.777-.776,2.594-2.833,2.594-5.158a4.175,4.175,0,0,0-2.663-4.071,12.92,12.92,0,0,0-5.025-.679,12.934,12.934,0,0,0-5.027.679A4.179,4.179,0,0,0,23.02,34.74c0,2.325,1.827,4.381,2.6,5.158a9.017,9.017,0,0,0,3.251,2.2v7.7c-5.263-.151-8.77-.916-11.656-2.327-4.538-2.218-6.754-6.028-6.754-11.649,0-4.808,1.1-7.757,2.637-11.838.529-1.409,1.127-3.006,1.732-4.824,3.324-9.986,6.838-15.4,15.884-15.4S43.278,9.172,46.6,19.159c.605,1.818,1.2,3.416,1.734,4.824,1.533,4.082,2.632,7.03,2.632,11.838C50.966,41.442,48.751,45.252,44.213,47.47ZM57.352,22.5c-1.1,1.974-2.7,2.354-4.665,2.405-.263-.732-.542-1.476-.833-2.249-.542-1.445-1.1-2.939-1.687-4.689C48.762,13.745,47.08,9.4,44.336,6.054c.922-.124,2.882,0,5.5,2.32a33.641,33.641,0,0,1,5.816,7.171C57.48,18.629,58.1,21.166,57.352,22.5Z"/>
</svg>
