<svg id="Capa_1" data-name="Capa 1" xmlns="http://www.w3.org/2000/svg" viewBox="0 0 49.116 51.693">
  <defs>
    <style>
      .cls-1 {
        fill: #fff;
      }
    </style>
  </defs>
  <title>AVChico</title>
  <polygon class="cls-1" points="21.09 5.128 13.12 6.862 12.964 18.175 20.934 16.441 21.09 5.128"/>
  <path class="cls-1" d="M21.09,5.128"/>
  <polygon class="cls-1" points="34.83 2.138 26.86 3.872 26.704 15.184 34.673 13.451 34.83 2.138"/>
  <path class="cls-1" d="M34.83,2.138"/>
  <polygon class="cls-1" points="44.653 0 40.601 0.882 40.445 12.194 47.795 10.595 44.653 0"/>
  <path class="cls-1" d="M44.653,0"/>
  <polygon class="cls-1" points="7.194 19.431 7.35 8.118 0 9.718 3.141 20.313 7.194 19.431"/>
  <path class="cls-1" d="M7.194,19.431"/>
  <path class="cls-1" d="M3.045,21.078V51.693H49.116V21.078Zm40.662,9.2H8.471V25.953H43.707Z"/>
  <path class="cls-1" d="M43.707,30.282"/>
</svg>
