<?xml version="1.0" encoding="utf-8"?>
<!-- Generator: Adobe Illustrator 21.1.0, SVG Export Plug-In . SVG Version: 6.00 Build 0)  -->
<svg version="1.1" id="Capa_1" xmlns="http://www.w3.org/2000/svg" xmlns:xlink="http://www.w3.org/1999/xlink" x="0px" y="0px"
	 viewBox="0 0 64.8 55" style="enable-background:new 0 0 64.8 55;" xml:space="preserve">
<style type="text/css">
	.st0{fill:#FFFFFF;}
</style>
<g>
	<g>
		<path class="st0" d="M23.7,28.1c-2,5-2,9.9-0.5,15c0.5-5.8,1.7-11.4,5.6-15.8c3.9-4.6,8.8-6.3,14.8-5.8C36.2,16.8,27,20,23.7,28.1
			z"/>
		<path class="st0" d="M37,14.8c-11.2,0-20.1,9.1-20.1,20.1C16.9,45.8,25.7,55,37,55c11.1,0,20.1-9,20.1-20
			C57.2,23.8,48.1,14.8,37,14.8z M41.8,51.7c-1.6,0.5-3.3,0.5-4.9,0.8c-4.3-0.2-8.1-1.7-11.3-4.6c-8-7.2-7.7-19.7,0.6-26.6
			c6.8-5.7,17.1-5.2,23.3,1.3c4.5,4.8,6.2,10.5,4.3,17.1C51.9,46,47.7,49.9,41.8,51.7z"/>
		<path class="st0" d="M63.8,11.7c-0.4-1.5-4.1-1.1-4.4-1.9c-0.1-0.3,0.9-2.4,0.7-2.6c-1.3-1.5-3.9-2.1-6.3-2.3
			c-3.6-0.4-2.5,0.7-4.1,1.9c-2.4-2.6-2.8-4.2-6.5-5.9c-1.6-0.7-7.7-1.3-10-0.6c-4.7,1.5-5.6,8.6-10.8,9.3C19.5,10,12.4,9.5,9.1,10
			c-2,0.3-6,1.9-7.3,3.4c-1.2,1.5-1.6,5.4-1.8,7.3h0v0c0,0.1,0,0.1,0,0.2c0,0,0,0,0,0c0,7.9,0,15.8,0,23.7C0,48.3,1.9,50,5.9,50
			c5.2,0,10.5,0,15.7,0c-3.8-3.9-6.2-9.2-6.1-15.1c0-11.9,9.7-21.5,21.5-21.4c12,0,21.5,9.8,21.5,21.5c0,5.8-2.3,11.1-6.1,15
			c1.3,0,2.6,0,3.9,0c4.3,0,8-1.3,8-5.3C64.3,36.9,65.7,18.3,63.8,11.7z"/>
	</g>
</g>
</svg>
