<?xml version="1.0" encoding="utf-8"?>
<!-- Generator: Adobe Illustrator 22.1.0, SVG Export Plug-In . SVG Version: 6.00 Build 0)  -->
<svg version="1.1" id="Capa_1" xmlns="http://www.w3.org/2000/svg" xmlns:xlink="http://www.w3.org/1999/xlink" x="0px" y="0px"
	 viewBox="0 0 734.4 70" style="enable-background:new 0 0 734.4 70;" xml:space="preserve">
<style type="text/css">
	.st0{fill:#FFFFFF;}
</style>
<g>
	<g>
		<path class="st0" d="M255.6,2.4v65.3H18.2C9.8,67.6,3,60.8,3,52.5V17.5C3,9.2,9.8,2.4,18.2,2.4H255.6 M257,1H18.2
			C9.1,1,1.6,8.4,1.6,17.5v34.9C1.6,61.6,9.1,69,18.2,69H257V1L257,1z"/>
	</g>
	<g>
		<path class="st0" d="M714.4,2.4c8.6,0,15.6,6.8,15.6,15.2v34.9c0,8.4-7,15.2-15.6,15.2h-242V2.4H714.4 M714.4,1H471v68h243.4
			c9.3,0,16.9-7.4,16.9-16.5V17.5C731.4,8.4,723.7,1,714.4,1L714.4,1z"/>
	</g>
	<g>
		<path class="st0" d="M470.7,2.3v65.3H257.3V2.3H470.7 M472,1H256v68h216V1L472,1z"/>
	</g>
</g>
</svg>
