<?xml version="1.0" encoding="utf-8"?>
<!-- Generator: Adobe Illustrator 22.1.0, SVG Export Plug-In . SVG Version: 6.00 Build 0)  -->
<svg version="1.1" id="Capa_1" xmlns="http://www.w3.org/2000/svg" xmlns:xlink="http://www.w3.org/1999/xlink" x="0px" y="0px"
	 viewBox="0 0 140.1 141.6" style="enable-background:new 0 0 140.1 141.6;" xml:space="preserve">
<style type="text/css">
	.st0{fill:#EAEAEA;}
</style>
<g>
	<path class="st0" d="M71.1,0C33,0,2.1,30.9,2.1,69c0,18.9,10,35.8,10,35.8L0,141.6l37.8-12.1c0,0,14,8.5,33.3,8.5
		c38.1,0,69-30.9,69-69C140.1,30.9,109.2,0,71.1,0z M71.1,127c-17.8,0-32-9.6-32-9.6l-21.8,7.1l7.1-21.1c0,0-11.3-15.6-11.3-34.4
		c0-32,26-58,58-58c32,0,58,26,58,58C129.1,101.1,103.1,127,71.1,127z"/>
	<path class="st0" d="M44.8,39c0,0,1.9-1.2,2.8-1.2c1,0,5.4,0,5.4,0s1.5,0.3,2.1,1.8c0.7,1.5,5.3,12.3,5.6,13.1
		c0.3,0.8,1.2,2.9-0.2,4.7c-1.4,1.8-4.4,5.3-4.4,5.3S55,63.8,56,65.5c1,1.7,4.6,7.3,9.3,11.5c4.7,4.2,10.5,7.3,13.4,8.3
		c2.9,0.9,3.5-0.3,4.6-1.7c1.1-1.4,4.5-5.8,4.5-5.8s1.2-1.7,3.5-0.7c2.3,1.1,13.6,6.5,13.6,6.5s1.4,0.2,1.5,1.8
		c0.1,1.5,1,6.1-3.1,10.6c-4.1,4.4-12.8,6.5-16.9,5.3c-4.1-1.2-17.8-4.7-26.7-13s-16.1-17-19.1-23.5c-2.9-6.4-2.8-10.3-2.6-12.1
		C38.3,50.9,39.2,42.6,44.8,39z"/>
</g>
</svg>
