<svg id="Capa_1" data-name="Capa 1" xmlns="http://www.w3.org/2000/svg" viewBox="0 0 326.255 53.616">
  <defs>
    <style>
      .cls-1 {
        fill: #fff;
      }

      .cls-2 {
        fill: #c92011;
      }

      .cls-3 {
        fill: #e11113;
      }

      .cls-4 {
        fill: #e47003;
      }

      .cls-5 {
        fill: #d02b10;
      }

      .cls-6 {
        fill: #f39c00;
      }

      .cls-7 {
        fill: #f8af00;
      }

      .cls-8 {
        fill: #eb6b06;
      }

      .cls-9 {
        fill: #f39900;
      }

      .cls-10 {
        fill: #cc2111;
      }

      .cls-11 {
        fill: #d91b12;
      }

      .cls-12 {
        fill: #df4b11;
      }

      .cls-13 {
        fill: #d64113;
      }

      .cls-14 {
        fill: #e80;
      }

      .cls-15 {
        fill: #b42d11;
      }

      .cls-16 {
        fill: #8e240c;
      }

      .cls-17 {
        fill: #de0713;
      }

      .cls-18 {
        fill: #c20f10;
      }

      .cls-19 {
        fill: #e7580c;
      }

      .cls-20 {
        fill: #e32414;
      }

      .cls-21 {
        fill: #dc0e1a;
      }

      .cls-22 {
        fill: #cf0b2c;
      }

      .cls-23 {
        fill: #de0057;
      }

      .cls-24 {
        fill: #b70055;
      }

      .cls-25 {
        fill: #de0868;
      }

      .cls-26 {
        fill: #dd126b;
      }

      .cls-27 {
        fill: #bb0d39;
      }

      .cls-28 {
        fill: #c60949;
      }

      .cls-29 {
        fill: #bc0c1d;
      }

      .cls-30 {
        fill: #c20d16;
      }

      .cls-31 {
        fill: #d30a15;
      }

      .cls-32 {
        fill: #ac0f0c;
      }

      .cls-33 {
        fill: #8b1006;
      }

      .cls-34 {
        fill: #90121f;
      }

      .cls-35 {
        fill: #621659;
      }

      .cls-36 {
        fill: #3a1a5d;
      }

      .cls-37 {
        fill: #312064;
      }

      .cls-38 {
        fill: #055096;
      }

      .cls-39 {
        fill: #0d5192;
      }

      .cls-40 {
        fill: #11513a;
      }

      .cls-41 {
        fill: #007a37;
      }

      .cls-42 {
        fill: #008538;
      }

      .cls-43 {
        fill: #418037;
      }

      .cls-44 {
        fill: #873b23;
      }

      .cls-45 {
        fill: #d52114;
      }

      .cls-46 {
        fill: #27386f;
      }

      .cls-47 {
        fill: #322e71;
      }

      .cls-48 {
        fill: #2e2f55;
      }

      .cls-49 {
        fill: #2e2f5e;
      }

      .cls-50 {
        fill: #25386e;
      }

      .cls-51 {
        fill: #144674;
      }
    </style>
  </defs>
  <title>LogoFCB</title>
  <polygon class="cls-1" points="0 0.216 0 52.951 9.495 52.951 9.495 31.368 29.706 31.368 29.706 22.379 9.495 22.379 9.495 9.49 32.305 9.49 32.305 0.216 0 0.216"/>
  <path class="cls-1" d="M43.773,8.6a27.26,27.26,0,0,0,.006,37.607,25.01,25.01,0,0,0,18.268,7.848c12.088,0,21.891-7.89,24.964-20.107l.344-1.369H78.009l-.256.749A16.2,16.2,0,0,1,62.047,44.642a16,16,0,0,1-11.621-5.075,17.556,17.556,0,0,1,0-24.322,15.983,15.983,0,0,1,11.621-5.076c7.32,0,12.889,3.891,15.278,10.672l.258.736H87l-.349-1.371C83.653,8.385,74,.749,62.047.749A25.629,25.629,0,0,0,43.773,8.6" transform="translate(-1.372 -0.749)"/>
  <path class="cls-1" d="M124.317,24.576c3.91-3.648,4.916-9.072,2.694-14.551a13.731,13.731,0,0,0-13.295-8.989H91.608V53.7h19.1L118.5,44.42l-17.47,0v-13.9h14.494c4.169,0,6.254,3.247,6.254,6.927v3.074l8.165-9.742.217-.259A16.573,16.573,0,0,0,124.317,24.576Zm-7.085-5.147a4.528,4.528,0,0,1-3.66,1.677H101.028V10.169h12.689c3.3,0,4.781,2.7,4.781,5.38A6.258,6.258,0,0,1,117.232,19.43Z" transform="translate(-1.372 -0.749)"/>
  <g>
    <path class="cls-1" d="M327.628,27.556c0-.232-.011-.462-.017-.693v1.386C327.617,28.018,327.628,27.788,327.628,27.556Z" transform="translate(-1.372 -0.749)"/>
    <polygon class="cls-2" points="187.216 52.959 188.493 52.959 188.493 49.758 187.216 52.959"/>
    <polygon class="cls-3" points="188.493 49.758 188.493 52.959 192.379 52.959 192.379 40.024 188.493 49.758"/>
    <polygon class="cls-4" points="192.379 40.024 192.379 52.959 196.264 52.959 196.264 30.291 192.379 40.024"/>
    <path class="cls-5" d="M197.637,31.039V53.707h.079l.125-.326c.861-2.254,2.054-5.21,3.611-8.949V21.483Z" transform="translate(-1.372 -0.749)"/>
    <path class="cls-6" d="M201.451,21.483V44.432q1.1-2.642,2.447-5.813h1.367V11.927Z" transform="translate(-1.372 -0.749)"/>
    <polygon class="cls-7" points="205.72 29.885 207.708 24.343 207.708 1.622 203.893 11.178 203.893 37.87 207.708 37.87 207.708 29.885 205.72 29.885"/>
    <polygon class="cls-8" points="211.489 13.806 211.523 13.903 211.523 0 208.355 0 207.708 1.622 207.708 24.343 211.489 13.806"/>
    <rect class="cls-8" x="207.708" y="29.885" width="3.815" height="7.985"/>
    <rect class="cls-9" x="211.523" y="29.885" width="3.926" height="7.985"/>
    <polygon class="cls-9" points="215.448 25.1 215.448 2.415 214.484 0 211.523 0 211.523 13.903 215.448 25.1"/>
    <polygon class="cls-3" points="217.126 29.885 215.448 25.1 215.448 29.885 217.126 29.885"/>
    <polygon class="cls-3" points="215.448 2.415 215.448 25.1 217.126 29.885 215.448 29.885 215.448 37.87 219.374 37.87 219.374 12.25 215.448 2.415"/>
    <polygon class="cls-10" points="219.374 12.25 219.374 37.87 220.383 37.87 223.3 44.974 223.3 22.085 219.374 12.25"/>
    <polygon class="cls-11" points="223.3 22.085 223.3 44.974 226.58 52.959 227.024 52.959 227.024 31.413 223.3 22.085"/>
    <polygon class="cls-12" points="227.024 31.413 227.024 52.959 230.97 52.959 230.97 41.299 227.024 31.413"/>
    <polygon class="cls-12" points="227.54 0.733 230.97 6.177 230.97 0.733 227.54 0.733"/>
    <polygon class="cls-13" points="230.97 52.959 234.693 52.959 234.693 50.627 230.97 41.299 230.97 52.959"/>
    <polygon class="cls-13" points="230.97 0.733 230.97 6.177 234.693 12.086 234.693 0.733 230.97 0.733"/>
    <polygon class="cls-14" points="235.624 52.959 234.693 50.627 234.693 52.959 235.624 52.959"/>
    <polygon class="cls-14" points="237.51 0.733 234.693 0.733 234.693 12.086 238.538 18.188 238.538 2.374 237.51 0.733"/>
    <polygon class="cls-15" points="238.538 2.374 238.538 18.188 242.383 24.29 242.383 8.51 238.538 2.374"/>
    <polygon class="cls-16" points="242.383 8.51 242.383 24.29 246.228 30.392 246.228 14.646 242.383 8.51"/>
    <polygon class="cls-17" points="246.228 14.646 246.228 30.392 247.066 31.721 247.066 52.959 250.195 52.959 250.195 20.975 246.228 14.646"/>
    <polygon class="cls-18" points="251.327 22.782 250.195 20.975 250.195 52.959 253.999 52.959 253.999 18.518 251.327 22.782"/>
    <polygon class="cls-19" points="253.999 18.518 253.999 52.959 255.589 52.959 255.589 31.721 257.803 28.22 257.803 12.447 253.999 18.518"/>
    <polygon class="cls-20" points="257.803 12.447 257.803 28.22 261.689 22.078 261.689 6.247 257.803 12.447"/>
    <polygon class="cls-21" points="265.145 0.733 261.689 6.247 261.689 22.078 265.574 15.935 265.574 0.733 265.145 0.733"/>
    <polygon class="cls-22" points="265.574 0.733 265.574 15.935 269.46 9.793 269.46 0.733 265.574 0.733"/>
    <polygon class="cls-23" points="269.46 0.733 269.46 9.793 273.345 3.65 273.345 0.733 269.46 0.733"/>
    <path class="cls-23" d="M274.031,27.556a26.446,26.446,0,0,0,.686,5.959V21.6A26.436,26.436,0,0,0,274.031,27.556Z" transform="translate(-1.372 -0.749)"/>
    <polygon class="cls-24" points="273.345 0.733 273.345 3.65 275.19 0.733 273.345 0.733"/>
    <path class="cls-24" d="M274.717,21.6V33.515a26.9,26.9,0,0,0,3.885,8.94V12.66A26.9,26.9,0,0,0,274.717,21.6Z" transform="translate(-1.372 -0.749)"/>
    <path class="cls-25" d="M281.85,8.663a28.25,28.25,0,0,0-3.247,4V42.454a28.246,28.246,0,0,0,3.247,4c.207.212.423.416.638.62V8.051C282.274,8.253,282.058,8.453,281.85,8.663Z" transform="translate(-1.372 -0.749)"/>
    <path class="cls-26" d="M282.555,27.556a18,18,0,0,1,3.819-11.119V5.018a26.642,26.642,0,0,0-3.885,3.033V47.072a25.886,25.886,0,0,0,3.885,3.053V38.677A18,18,0,0,1,282.555,27.556Z" transform="translate(-1.372 -0.749)"/>
    <path class="cls-27" d="M287.939,14.665a18.12,18.12,0,0,1,2.32-1.98V2.949a27.017,27.017,0,0,0-3.885,2.069V16.437A18.6,18.6,0,0,1,287.939,14.665Z" transform="translate(-1.372 -0.749)"/>
    <path class="cls-27" d="M287.935,40.445a18.575,18.575,0,0,1-1.561-1.768V50.126a26.548,26.548,0,0,0,3.885,2.065V42.428A18.149,18.149,0,0,1,287.935,40.445Z" transform="translate(-1.372 -0.749)"/>
    <path class="cls-28" d="M293.983,10.613V1.655a26.977,26.977,0,0,0-3.724,1.294v9.737A18.337,18.337,0,0,1,293.983,10.613Z" transform="translate(-1.372 -0.749)"/>
    <path class="cls-28" d="M290.259,42.428v9.763a26.826,26.826,0,0,0,3.724,1.282V44.5A18.34,18.34,0,0,1,290.259,42.428Z" transform="translate(-1.372 -0.749)"/>
    <path class="cls-29" d="M293.983,44.5v8.971a26.772,26.772,0,0,0,3.724.7v-8.59A18.113,18.113,0,0,1,293.983,44.5Z" transform="translate(-1.372 -0.749)"/>
    <path class="cls-29" d="M297.706,9.528V.94a26.6,26.6,0,0,0-3.724.715v8.958A18.121,18.121,0,0,1,297.706,9.528Z" transform="translate(-1.372 -0.749)"/>
    <path class="cls-30" d="M300.793,45.867a17.582,17.582,0,0,1-3.087-.28v8.59a26.53,26.53,0,0,0,3.087.188c.247,0,.492-.011.738-.018v-8.5C301.285,45.858,301.039,45.867,300.793,45.867Z" transform="translate(-1.372 -0.749)"/>
    <path class="cls-30" d="M300.793,9.248c.246,0,.492.009.738.019V.767c-.246-.007-.491-.018-.738-.018a26.085,26.085,0,0,0-3.087.191V9.528A17.586,17.586,0,0,1,300.793,9.248Z" transform="translate(-1.372 -0.749)"/>
    <path class="cls-31" d="M301.531,45.848v8.5a27.119,27.119,0,0,0,3.926-.391V45.241A18.061,18.061,0,0,1,301.531,45.848Z" transform="translate(-1.372 -0.749)"/>
    <path class="cls-31" d="M305.457,9.874V1.164a26.748,26.748,0,0,0-3.926-.4v8.5A18.065,18.065,0,0,1,305.457,9.874Z" transform="translate(-1.372 -0.749)"/>
    <path class="cls-32" d="M305.457,45.241v8.715a26.587,26.587,0,0,0,3.764-.941V43.776A18.727,18.727,0,0,1,305.457,45.241Z" transform="translate(-1.372 -0.749)"/>
    <path class="cls-32" d="M309.221,11.338V2.118a26.557,26.557,0,0,0-3.764-.953V9.874A18.723,18.723,0,0,1,309.221,11.338Z" transform="translate(-1.372 -0.749)"/>
    <path class="cls-33" d="M313.066,13.983V3.74a26.691,26.691,0,0,0-3.845-1.622v9.22A18.785,18.785,0,0,1,313.066,13.983Z" transform="translate(-1.372 -0.749)"/>
    <path class="cls-33" d="M309.221,43.776v9.238a26.39,26.39,0,0,0,3.845-1.613V41.132A18.814,18.814,0,0,1,309.221,43.776Z" transform="translate(-1.372 -0.749)"/>
    <path class="cls-34" d="M313.794,14.665a18.612,18.612,0,0,1,3.117,4.21V6.157a27.175,27.175,0,0,0-3.845-2.417V13.983C313.314,14.2,313.557,14.431,313.794,14.665Z" transform="translate(-1.372 -0.749)"/>
    <path class="cls-34" d="M313.8,40.448c-.237.235-.482.462-.73.684V51.4a26.554,26.554,0,0,0,3.845-2.417V36.239A18.617,18.617,0,0,1,313.8,40.448Z" transform="translate(-1.372 -0.749)"/>
    <path class="cls-35" d="M319.81,8.663l-.006-.005a27.953,27.953,0,0,0-2.893-2.5V18.876a18.28,18.28,0,0,1,0,17.363V48.985a27.111,27.111,0,0,0,2.9-2.532c.377-.386.736-.783,1.087-1.186V9.848C320.546,9.446,320.186,9.049,319.81,8.663Z" transform="translate(-1.372 -0.749)"/>
    <path class="cls-36" d="M320.9,9.848V45.266a27.691,27.691,0,0,0,3.987-5.98V15.828A27.7,27.7,0,0,0,320.9,9.848Z" transform="translate(-1.372 -0.749)"/>
    <path class="cls-37" d="M324.884,39.287a26.527,26.527,0,0,0,2.727-11.037V26.863a26.519,26.519,0,0,0-2.727-11.035Z" transform="translate(-1.372 -0.749)"/>
    <polygon class="cls-38" points="154.833 16.424 154.833 31.647 158.139 36.525 158.868 36.525 158.868 22.321 154.833 16.424"/>
    <polygon class="cls-39" points="160.567 24.804 158.868 22.321 158.868 36.525 162.701 36.525 162.701 21.686 160.567 24.804"/>
    <polygon class="cls-40" points="162.701 21.686 162.701 36.525 162.92 36.525 166.533 31.194 166.533 16.085 162.701 21.686"/>
    <polygon class="cls-41" points="166.533 16.085 166.533 31.194 170.365 25.538 170.365 10.485 166.533 16.085"/>
    <polygon class="cls-42" points="170.365 10.485 170.365 25.538 174.198 19.883 174.198 4.884 170.365 10.485"/>
    <polygon class="cls-43" points="177.54 0 174.198 4.884 174.198 19.883 175.805 17.511 175.805 52.897 178.03 52.897 178.03 0 177.54 0"/>
    <rect class="cls-44" x="178.03" width="3.832" height="52.897"/>
    <rect class="cls-45" x="181.862" width="2.414" height="52.897"/>
    <polygon class="cls-46" points="150.899 25.841 150.981 25.962 150.981 25.841 150.899 25.841"/>
    <polygon class="cls-47" points="136.708 21.774 136.708 25.841 136.708 52.897 139.524 52.897 139.524 25.841 139.524 18.423 136.708 21.774"/>
    <polygon class="cls-48" points="139.524 18.423 139.524 25.841 139.524 52.897 143.255 52.897 143.255 25.841 143.255 13.982 139.524 18.423"/>
    <polygon class="cls-49" points="143.255 13.982 143.255 25.841 143.255 52.897 145.254 52.897 145.254 25.841 145.254 17.511 147.128 20.277 147.128 9.373 143.255 13.982"/>
    <polygon class="cls-50" points="150.981 10.794 148.716 7.484 147.128 9.373 147.128 20.277 150.899 25.841 150.981 25.841 150.981 10.794"/>
    <polygon class="cls-51" points="151.937 12.192 150.981 10.794 150.981 25.841 150.981 25.962 154.833 31.647 154.833 16.424 151.937 12.192"/>
  </g>
</svg>
