<?xml version="1.0" encoding="utf-8"?>
<!-- Generator: Adobe Illustrator 22.1.0, SVG Export Plug-In . SVG Version: 6.00 Build 0)  -->
<svg version="1.1" id="Capa_1" xmlns="http://www.w3.org/2000/svg" xmlns:xlink="http://www.w3.org/1999/xlink" x="0px" y="0px"
	 viewBox="0 0 602.2 347.5" style="enable-background:new 0 0 602.2 347.5;" xml:space="preserve">
<style type="text/css">
	.st0{fill:#FFFFFF;}
</style>
<g>
	<g>
		<g>
			<path class="st0" d="M218.3,222.6c6.1,0,11,1.3,14.7,3.9c-0.3,0.2-0.7,0.2-1.1,0.2l-0.1,0.5c0.6,0,2.7,1.6,6.2,4.9
				c1,0,2,0.3,2.9,1h2.9l1.2,0.3l-0.1,0.3c-0.1,0.3-0.3,0.5-0.6,0.5H243c-0.2,0-0.2-0.1-0.2-0.3c-0.3,0.2-0.8,0.3-1.4,0.3l0,0.2
				c3,4.4,4.8,10.2,5.3,17.6l-0.8,0.5h-6.2l-0.1,0.3c2.5,0,4,0.1,4.4,0.2c0.3-0.2,0.8-0.2,1.3-0.2h0.5c0.7,0,0.7,1.6,0,4.9
				c0,0.3,0.1,0.5,0.4,0.5h2.6c0.2,0,0.2,0.1,0.2,0.2l0.6-0.2h0.2c1,0.1,1.5,0.4,1.4,0.7c-1.1,5.7-3.9,11.5-8.3,17.3l-0.6,0.2h-4.9
				l-1.2,0.8h-2.6c-0.4,0.1-0.6,0.2-0.6,0.5c1.9,0,2.8,0.1,2.8,0.3c-5.3,6.6-12.5,11.5-21.5,14.7c-4.3,1-8.1,1.6-11.4,1.6h-2.8
				c-2,0-3.4-0.2-4-0.6c-0.4,0.2-0.7,0.3-0.8,0.3c-7.3-1.3-12.8-3.8-16.3-7.5c-2.8-2.8-4.9-5.6-6.3-8.5c-0.3-0.2-0.6-0.3-1-0.3h-2.3
				l0.1-0.5h2.6c0.1-0.5,0.3-0.8,0.7-0.8h3.3l1.3-0.2c-1.7-5.1-2.2-9.7-1.6-14l0.2-0.8l0.4-0.5c0.2,0,0.2,0.1,0.2,0.3
				c2.6-0.2,4.5-0.3,5.8-0.3h3.9l0.1-0.3c0.1-0.3-0.1-0.5-0.4-0.5h-9.3c-0.2,0-0.5-0.6-0.9-1.8h-4.4c-0.3,0-0.5-0.2-0.4-0.5
				c0.1-0.3,0.8-0.6,2.2-0.8l0.2-1c-0.2,0-0.4-0.1-0.7-0.2c-0.4,0.2-0.6,0.2-0.8,0.2c-0.1-0.3-0.1-0.6-0.1-0.8c1.7-6,5.1-12,10.3-18
				c1.9-2.1,3.5-3.1,4.8-3.1c2.2,0,3.4-0.3,3.5-0.8c-0.5-0.3-1-0.5-1.4-0.5h-0.3l-1.3,0.2l-0.1-0.5l0.3-0.5c-0.7,0-1-0.2-0.9-0.5
				c1.5-1.1,4.2-2.8,8.2-4.9h2.8C202.4,224,209.4,222.6,218.3,222.6z M171.5,268.1h1.6l0,1.3l-0.8,0.5h-0.8c-0.3,0-0.5-0.5-0.5-1.5
				L171.5,268.1z M171.5,260.4h2.8c0.3,0.1,0.5,0.2,0.4,0.5l-0.6,0.3h-2.8L171.5,260.4z M190.4,254.9l-0.1,0.5l1.4,1.1l-0.1,0.5
				c-0.1,0.3-0.3,0.5-0.7,0.5h-1.3l-0.2,0.8h4.6c0.3,0,0.4,0.6,0.4,1.8c3.7,0.2,6.4,0.2,8.2,0.2h2l-0.1,0.5
				c-0.1,0.4-0.3,0.6-0.6,0.6c-0.3-0.2-0.5-0.3-0.7-0.3c-0.2,0-0.3,0.1-0.3,0.3l-1.2-0.3c-0.6,0-3.1,0.1-7.3,0.3l-0.3,1.3
				c0,4.2,1.4,8,4.2,11.4c1.7,1.3,2.5,2.1,2.4,2.3l-0.6,0.2h-3.6l0.1,0.5l-0.1,0.3h-1.5l-0.1,0.5h3.1c2.9,0.9,4.9,1.3,5.9,1.3
				c1,0,2.7-0.3,5.1-0.8c0.1-0.3-0.1-0.5-0.4-0.5h-1.3l0.1-0.5h2.8c0.2,0,1.4-0.3,3.8-0.8h2.6c0.4,0,0.7-0.1,1.1-0.2
				c0.3,0.2,0.6,0.2,0.7,0.2c3.7-1.4,7.3-4.6,10.9-9.6c1.7-3.5,2.6-5.4,2.7-5.9l0.4-2.1c0.1-0.3-0.7-0.5-2.4-0.7l-0.6,0.2h-1.8
				c-0.7,0-0.7-1.7,0-5.2l-1.2-0.3h-8.8l0.1-0.5c2.6-0.2,4.5-0.2,5.7-0.2h3.9l0.1-0.3c-0.7-4.6-2.6-8.1-5.7-10.6
				c-3.4-2.4-6.4-3.6-8.8-3.6c-7.2,0-13.8,3.7-19.8,11.1C191.6,252,190.6,254,190.4,254.9z M202.3,265.3h0.3
				c0.3,0.1,0.5,0.2,0.4,0.5l-0.2,0.8c-0.1,0.3-0.3,0.5-0.6,0.5H202c-0.3,0-0.5-0.2-0.4-0.5l0.2-0.8
				C201.8,265.4,202,265.3,202.3,265.3z M234.8,261.4l-0.3,0.5l0,0.2h0.2c0.1-0.3,0.3-0.5,0.6-0.5l0-0.2H234.8z"/>
			<path class="st0" d="M255.3,222.5h18.4c0.3,0,0.4,1.1,0.1,3.2c0.9,0,1.3,0.2,1.2,0.5l-1.1,5.6l-2.4,1.6h-2.4
				c-0.4,0.1-0.6,0.2-0.7,0.5l-0.1,0.6h2.9c0.3,0.1,0.5,0.2,0.4,0.5l-5.5,27.8l-0.3,0.5c1.2,0.3,1.7,0.5,1.7,0.8l-3.2,16
				c0,0.4,0.1,0.6,0.4,0.6c0.3,0,0.5-0.1,0.6-0.3l2.6,0.3h20.1l0.5,0.3l-0.5,1.3l-1.6,8c-0.1,0.3-0.3,0.5-0.7,0.5l-1.6-0.3
				c-0.3,0.2-0.8,0.3-1.4,0.3l-0.1,0.5c0.1,0,0.7,0.1,1.6,0.2l1.7-0.2l0.2,0.5l-0.5,2.4c-0.1,0.4-0.3,0.6-0.7,0.6h-35.5
				c-1.5,0-3.9-0.1-7.1-0.3l0.5-2.4c0.1-0.3-0.2-0.5-0.6-0.8h-2.4l0.1-0.5h2.4c0.2,0,0.5-0.3,0.9-0.8l5.1-25.6
				c-1.1-0.7-1.6-1.1-1.6-1.3l5.6-28.1c0.1-0.3-1-0.6-3.1-0.8l0.1-0.3c1.7-0.1,3.2-0.6,4.6-1.6c0.5,0,0.8-0.2,0.9-0.5l1-4.8
				c0.2-1-0.3-1.6-1.5-1.6l0.5-2.4C254.8,222.7,255,222.5,255.3,222.5z"/>
			<path class="st0" d="M293.5,277.4l0.2,0.5l-0.5,2.7c-0.1,0.3-0.3,0.5-0.7,0.5l-0.2-0.5l0.5-2.7
				C293,277.6,293.2,277.4,293.5,277.4z M313.1,222.6h37.7c0.4,0.1,0.5,0.2,0.4,0.6l-2.6,13.1l-0.7,0.8l-1.8-0.3
				c-15.5,0.2-23.9,0.3-25.2,0.3l-0.3,1.3c-0.1,0.4-0.3,0.6-0.7,0.6h-4.8c-0.4,0.1-0.6,0.2-0.7,0.5l-0.3,1.6c0,0.4,0.1,0.6,0.4,0.6
				h0.3c0.5,0,0.8-0.1,0.8-0.3c1.9,0.2,3,0.4,3.3,0.8h5.9c0.4,0.1,0.5,0.2,0.4,0.6l-0.1,0.3c-1.7,0.2-3.2,0.2-4.6,0.2h-2.4l-1.6,8.3
				c0,0.4,0.1,0.6,0.4,0.6h27.6c0.3,0.1,0.5,0.2,0.4,0.5l-2.5,12.8c-0.1,0.3-0.4,0.5-1,0.8h-22.2c-0.3,0-0.6,0.3-1,0.8l-1.7,8.8
				l0,1.3h2.7c0.4,0.1,0.5,0.3,0.4,0.6l-0.6,3.2c-0.1,0.3-0.3,0.5-0.7,0.5h-2.7c0,0.2-0.2,0.5-0.4,0.8l-1.2,5.9l0,1.3h7.7
				c0.4,0.1,0.5,0.2,0.4,0.5l0,0.2c-0.1,0.4-0.4,0.6-0.9,0.6c-1.4,0-3.9,0.1-7.5,0.3c0,0.2-0.1,0.3-0.3,0.3l-0.1,1.8l-0.3,1.3
				c-0.1,0.4-0.3,0.6-0.7,0.6h-18.4c-0.3,0-0.5-0.2-0.4-0.6l0.6-3.2c0.1-0.4,0.3-0.5,0.6-0.5h6.2c1-0.2,1.5-0.3,1.7-0.3l0.2-0.8
				l-6.9-0.3h-0.8c-0.3,0-0.5-0.2-0.4-0.5l1.4-7.2c0.1-0.4,0.3-0.5,0.6-0.5h2.7l0.7-3.5c0.1-0.4-0.9-0.6-3-0.8l4.9-24.6
				c-0.4,0-0.5-0.1-0.5-0.2c-0.2,0-0.3,0.1-0.3,0.2l-1.8-0.2h-1.9c-0.3,0-0.5-0.2-0.4-0.6l1.5-7.7c0.1-0.4,0.3-0.6,0.6-0.6
				c3.3-0.2,5.4-0.2,6.5-0.2c0.1-0.4-0.2-0.6-0.7-0.6c-2.5,0-5.1-0.3-7.6-0.8H295l0.4-2.2c0.1-0.3,0.3-0.5,0.7-0.5h1.6
				c0.2,0,0.3,0.1,0.2,0.2c0.3-0.1,1.4-0.3,3.3-0.5l3-15.3l0.4-0.5C308.4,222.7,311.3,222.6,313.1,222.6z M295.3,277.4h0.5
				c0.3,0.1,0.5,0.2,0.4,0.5l-0.2,1.1c0,0.2-0.1,0.3-0.3,0.3l0.1,0.5l-0.2,0.8c-0.1,0.3-0.3,0.5-0.6,0.5h-0.5
				c-0.3,0-0.5-0.2-0.4-0.5l0.5-2.7C294.8,277.6,295.1,277.4,295.3,277.4z"/>
			<path class="st0" d="M362.5,222.5c0.9,0.2,1.8,0.3,2.6,0.3c0.8,0,1.7-0.1,2.7-0.3c0.4,0,0.7,0.1,1,0.3c3.8-0.2,6.8-0.3,9.1-0.3
				h10.7c8.7,0,14.5,2,17.2,6.1l-0.6,0.3h-1.8l-0.1,0.5c0,0.4,0.1,0.5,0.4,0.5h3.2c1.9,2.1,3,6,3.3,11.8h2.9
				c0.3,0.1,0.5,0.2,0.4,0.5c-0.6,0.4-1.2,0.5-1.7,0.5l-0.5-0.3c-1.1,0.2-1.7,0.4-1.7,0.5c0.1,0.3,0.2,0.6,0.1,0.8l-0.9,0.6h-1.9
				l-0.5,2.4c-0.4,1.9-1.9,4.9-4.7,9c-0.4,0.1-0.6,0.3-0.7,0.6h6.7l-0.2,0.8h-4.8c-0.4,0-0.8,0.1-1.2,0.3c-0.3-0.2-0.6-0.3-1-0.3
				c-0.6,0.5-1.7,0.9-3.1,1.1c-1.1,0.8-1.6,1.5-1.7,1.9c0.3,0.1,0.5,0.2,0.4,0.5c-3.2,2.6-7.4,4.3-12.5,5.1h-3.2
				c-2.3,0-4.7,0.1-7.2,0.2c-1-0.2-1.7-0.2-2.1-0.2c-1.2,0.2-2.2,0.2-3,0.2l-0.5-0.2c-0.3,0.2-0.7,0.2-1.1,0.2l-0.3,1.3
				c0,0.2-0.1,0.3-0.3,0.3c-0.2,1.3,0.5,1.9,2.3,1.9l-4.5,22.7c-0.2,0.9,0.1,1.3,0.8,1.3l-0.2,0.8c-0.1,0.3-0.3,0.5-0.6,0.5h-11.5
				c-1.5,0-3.7-0.1-6.6-0.2c0,0.2-0.1,0.2-0.3,0.2c0.1-0.6-0.3-1.2-1.2-1.8l4.7-23.8l-1.3-0.3h-1.1l1.6-8l-1.7-1.1l0.3-1.3l2.7-1.3
				c3.3-0.2,5.4-0.2,6.2-0.2l0.1-0.3c-0.5,0-1.1-0.1-1.8-0.3l-0.6,0.3c-0.9-0.2-1.7-0.3-2.3-0.3h-1.3c-0.3,0-0.5-0.2-0.4-0.6
				l2.3-11.4h1.1c1,0,1.7-0.5,1.9-1.6c0.8,0,1.4-0.1,1.7-0.3c0.3,0.2,0.6,0.3,1,0.3c0.4,0,0.6-0.2,0.7-0.5c0.1-0.3-0.1-0.5-0.4-0.5
				H355c-0.3,0-0.5-0.3-0.3-0.8c0.4-2.2,0.9-4.2,1.5-6.1c0.1-1.4,0.3-2.9,0.7-4.5l-0.5-0.3h-2.7c-0.3,0-0.5-0.2-0.4-0.5
				c0.1-0.3,0.3-0.5,0.6-0.5h2.7c0.4,0,0.8-0.4,1.1-1.3l0-1.3c0.6-2.3,1.1-3.5,1.5-3.5h1.1C361,222.8,361.9,222.7,362.5,222.5z
				 M350.9,228.9h0.5c0.4,0.1,0.5,0.2,0.5,0.5l-0.1,0.5h-1.1c-0.4,0-0.5-0.2-0.4-0.5C350.4,229.1,350.6,228.9,350.9,228.9z
				 M375,236.7l-0.9,4.5c0,0.4,0.1,0.5,0.4,0.5h2.4c0.3,0.1,0.5,0.2,0.4,0.5c-0.1,0.4-0.3,0.5-0.6,0.5c-0.4,0-0.7-0.1-1-0.3
				c-0.3,0.2-0.7,0.3-1.1,0.3l-0.5-0.3c-0.5,1.3-0.9,1.9-1.2,1.9H371c-0.2,1-0.4,1.6-0.6,1.8c0,1-0.1,1.8-0.2,2.4l-0.1,0.5
				c-0.1,0.4-0.2,0.7-0.5,1.1c0.1,0.3,0.1,0.7,0.1,1.1l-0.2,1.1h9.6c3.7,0,6.7-2,8.9-5.9c0.2-1.1,0.6-1.9,1-2.4l1.3,0.3h0.3
				c0.3,0,0.6-0.5,0.8-1.6h2.7c0-0.2,0.2-0.5,0.4-0.8l-0.5-0.2h-2.9c-1.1-3.4-3.7-5.1-7.8-5.1H375z M387,242h2.9l-0.1,0.6h-1.6
				l-1.3-0.3L387,242z"/>
			<path class="st0" d="M435.1,222.6h15.7c0.3,0.1,1,3.8,2.1,11.2l0.7,0.5h2.7c0.4,0.4,1.4,6.1,3,17.1l0.8,5.3l-0.6,0.3h-6.1
				l-0.1,0.3c-0.2,0.9,0.2,1.5,1.3,1.6l1.7-0.2h0.2c0.7,0.4,1.8,7.1,3.5,20.2l-0.6,0.3c-0.6-0.2-0.9-0.3-1-0.3
				c-0.2,0-0.3,0.1-0.3,0.3l-1.8-0.3h-1.3c-0.4,0.1-0.6,0.2-0.6,0.5c0.4,2.8,0.7,4.2,1,4.2h5.3c0.3,0.1,0.5,0.2,0.4,0.5l0,0.2
				c-0.1,0.4-0.3,0.5-0.6,0.5h-5.9c-0.4,0-0.8-0.1-1-0.3c-0.4,0.2-0.7,0.3-1.2,0.3h-5.6l-1.8-0.3l-0.4,0.6c0,0.3,0.1,0.5,0.4,0.5h16
				c0.5,0,1.1,2.9,1.7,8.8l-0.1,0.3h-20c-0.3,0-0.8-3-1.4-9.1h-14.1c-0.4,0-0.7-0.1-1-0.2c-0.3,0.2-0.7,0.2-1.1,0.2
				c-0.4,0-0.5-0.2-0.4-0.5c0.2,0,0.3-0.1,0.3-0.3c3.3-0.2,5.7-0.3,7.3-0.3h8.5c0.3,0,0.5-0.2,0.6-0.5l-0.7-0.5h-5.3
				c-0.2,0-0.6-0.8-1.1-2.4h-2.1l-0.1,0.3c0,0.2-0.1,0.9-0.2,2.1h-2.4c-0.2,0-0.6-0.8-1.4-2.4h-15.5c-1,0-1.8,0.7-2.3,2.1l0.5,0.3
				h4.5c0.4,0.1,0.5,0.2,0.4,0.5l0,0.2l-5.5,10.4h-20.3l0.1-0.3l5.8-10.7l-7.9-0.3c-0.4,0-0.5-0.2-0.5-0.5c1.5-2.9,2.4-4.3,2.7-4.3
				h7.2c1.3,0,2.5-1.5,3.5-4.5c0.3,0,1.6-2.2,4-6.6l4.6-8.5l0.1-0.3h-2.7c0-1.7,0-2.2,0.1-1.7c-0.2-0.3,2.2-0.4,7.2-0.4
				c0.3-0.1,2.4-3.7,6.4-10.9l5.9-10.9l0.1-0.3h-1.3l0.1-0.3c2.2-4.5,4.4-8.3,6.6-11.4L435.1,222.6z M439.1,245.7
				c-3.4,7.4-5.5,11.2-6.2,11.2h-6.1c-0.3,0-0.7,0.5-1.1,1.6h1.6c1,0.1,1.5,0.4,1.4,0.8c-2.9,5.5-4.3,8.3-4.4,8.5l1.3,0.2l1.9-0.2
				c0.3,0.2,0.6,0.2,0.7,0.2l1.7-0.2c0.2,0,0.2,0.1,0.2,0.2l1.4-0.2h4.5c0.2,0,0.3,0.1,0.2,0.2c1.8-0.2,2.8-0.4,2.8-0.8l0.1-0.3
				c-0.4-1.2-0.8-3.5-1-6.9c0.2-0.9-0.5-1.4-2.1-1.6c0.1-0.4,0-0.9-0.3-1.3c0.2-0.4,0.4-0.5,0.7-0.5h4.5c-0.2-3.2-0.7-6.9-1.3-10.9
				H439.1z"/>
			<path class="st0" d="M495,222.5c0.2,0,0.3,0.1,0.2,0.3l1.1-0.3c8.3,0,15.1,2,20.2,6c6.2,0,9.2,0.7,8.9,2.1
				c3.3,3.1,5.6,6.5,7.1,10.1l-0.3,1.6l-10.6,4.9c-2,1-3.4,1.6-4.2,1.6h-2.6c-2.8-5.5-5.8-8.6-8.8-9.4c-1-0.5-2.5-1.1-4.6-1.8
				c-3.1,0-6.8,1-11.3,3.1L490,241c1.9,0,2.8,0.2,2.8,0.5c-5.5,4.2-8.5,7.5-9,9.9c-0.7,0.7-1.5,2.4-2.6,5.2H476
				c-0.4,0.1-0.6,0.2-0.6,0.5c0,0.2,0.2,0.5,0.6,0.7h4.4c0.3,0,0.3,2.2,0,6.5c0.2,3.5,1.4,6.6,3.6,9.4l-0.6,0.2h-2.9l-0.1,0.6
				c1.9,2.3,5.3,4,10.4,5.2c2,0,5-0.8,9.1-2.4c3.5,0,6.4-1.1,8.7-3.4h0.2l0.1-0.5h-2.6l0-0.2c0.9-1.2,2.3-2.7,4.3-4.7h3.1
				c0.4,0,3.1,1.6,8.2,4.7c3.6,0,6,0.8,7.1,2.3l-0.1,0.3c-0.9,0.8-1.3,1.2-1.3,1.3l-1.8-0.3c-1.1,0-3,1.7-5.7,5.2
				c-0.8,0.4-2.3,0.5-4.3,0.5h-0.5c-0.3,0-0.6,0.3-0.9,0.7h3.4l-0.2,0.8c-6.5,5.1-11.8,8-15.7,8.6c-3,1.4-6.3,2-9.8,2h-5.5
				c-9.5,0-17.2-3.4-23.2-10.1c-0.6-0.9-1.8-1.3-3.6-1.3c-0.6,0.2-1,0.3-1.1,0.3c-0.7-0.3-1-0.5-0.9-0.8c0.1-0.3,0.3-0.5,0.7-0.5
				c0.2,0,0.4,0.1,0.7,0.3l1.6-0.3h0.5l0.1-0.3c-2.3-4.3-3.3-6.9-3.1-7.8l0.1-0.3h2.6l1.3-0.2c-1.1-4.6-1.3-9.3-0.6-14h-3.3l0.2-0.8
				h2.8c0.3,0,0.5-0.2,0.6-0.5c0.1-0.4-0.1-0.5-0.4-0.5H457c-0.3,0-0.5-0.2-0.4-0.5l0.2-0.8c0.8,0,1.3-0.1,1.6-0.2l0.5,0.2
				c2.6,0,4-0.3,4.1-1c1.3-4.9,3.6-9.5,6.9-13.8l0-0.2c0.1-0.3-0.1-0.5-0.4-0.5h-2.6l-0.5-0.3c4.2-5.5,8.5-9.3,12.9-11.4
				c0.1-0.3-0.1-0.5-0.4-0.5h-5.2l0.1-0.3c2.4-1.8,6.3-3.5,11.9-5c2.9-0.5,5.5-0.7,7.7-0.7h0.5C494.3,222.8,494.7,222.7,495,222.5z
				 M470.9,258.9l-0.2,0.8h0.8c0.3,0,0.5-0.2,0.6-0.6l-0.5-0.2H470.9z M495.6,273.5h2.4c0.3,0.1,0.5,0.2,0.4,0.5
				c-2.6,1.9-4.3,2.9-5.2,2.9H491l0.1-0.5C491.7,276.4,493.2,275.4,495.6,273.5z"/>
			<path class="st0" d="M555.7,222.5c1.9,0.2,2.8,0.4,2.8,0.8l-3.1,15.4h2.9c0.3,0.1,0.5,0.2,0.4,0.5l-1,5l0,1.3
				c2.3,0,3.6-0.9,4-2.7c-0.1-0.3-0.2-0.6-0.1-0.8l0.4-0.5c-0.1-0.3-0.1-0.7-0.1-1.1c1.2-0.5,1.8-1.1,2-1.9h-2.4
				c-0.4,0-0.5-0.2-0.4-0.5c0.3,0,6.2-5.1,17.7-15.4c14.5,0,21.9,0,22.3,0h1.1l-0.1,0.3c-2.8,2.5-8.7,7.7-17.7,15.4l0,0.2h2.7
				l-0.1,0.5c0,0.2-2.6,2.4-7.6,6.4h-3.2l-1.4,0.3l0.1-0.3l-0.6,0.3h-2.1l-0.1,0.5h5.6c0.4,0.1,0.5,0.2,0.4,0.5
				c-0.2,0-3.2,2.6-9,7.7l-0.1,0.3c1.6,2.6,4.6,7.1,9,13.5c-0.5,0.4-0.9,0.5-1.2,0.5c-0.2,0.8,0.7,1.4,2.6,1.6l0.6,1.1l-0.1,0.6
				h-2.4l-0.2,0.8c0.9,0,1.3,0.1,1.3,0.3l1.4-0.3h2.9c1.4,0,2.1,0.4,2.2,1.1l-0.4,0.6l-1.2-0.3c-0.7,0-1.5,0.1-2.5,0.3
				c-0.3-0.2-0.5-0.3-0.7-0.3l-0.6,0.3c-0.3-0.2-0.5-0.3-0.7-0.3l-0.4,0.5c1.9,2.4,4.7,6.7,8.4,12.8c0.4,0,1.4,1.4,3.1,4.2l-0.1,0.3
				l-0.3,0.5c0.1,0.3,0.1,0.6,0.1,0.8h1.3c0.3,0,0.5,0.3,0.7,0.8c-0.1,0.3-0.3,0.5-0.7,0.5h-15.9c-1.8,0-4.4-0.1-7.9-0.2
				c-0.3-0.9-1-1.3-2.1-1.3l0.1-0.5c0.4-0.4,0.7-0.7,0.7-0.8l0.1-0.3c-0.4,0-2.4-3.2-6.1-9.6l-4.4-7.2c0.1-0.3,0.3-0.5,0.6-0.5
				l1,0.3c0.4-0.2,0.7-0.3,0.8-0.3l-0.1,0.3l0.6-0.3h3c0.3,0,0.5-0.2,0.6-0.6c-0.4-0.3-0.7-0.5-1-0.5c-1.1,0-3.4-0.1-6.9-0.3
				l-0.4-0.8c0.2,0,0.3-0.1,0.3-0.3c0.3,0.2,0.5,0.3,0.7,0.3l0.6-0.3c0.3,0.2,0.6,0.3,1,0.3h0.6l0.1-0.3c0.1-0.3-0.3-0.9-1-1.6
				l-0.6,0.2c-0.8-0.2-1.2-0.5-1.2-0.8l0.1-0.3l2.4-1.6c0.3-0.3,0.4-0.6,0.4-0.8c-0.2-0.8-0.5-1.2-0.8-1.3h-0.3
				c-0.2,0-1.5,1.1-3.8,3.2c-0.7,0-1.1,0.2-1.2,0.5l-0.1,0.3l1.4,1.1c0.1,0.3,0.2,0.6,0.1,0.8c-0.5,0.4-0.8,0.6-0.9,0.6h-2.4
				c-0.4,0.1-0.6,0.2-0.7,0.5l-4.3,21.5c-0.1,0.3-0.3,0.5-0.6,0.5h-10.6c-1.8,0-4.4-0.1-7.9-0.2l-0.2-0.5l4.2-21.3
				c0.1-0.3,0.3-0.5,0.7-0.5h2.9l0.5-1.3l0.1-0.3c-1.3,0-1.8-0.3-1.7-0.8l0.1-0.3c0.1-0.5,0.8-0.8,2-0.8l0.3-1.3
				c0-0.2,0.1-0.3,0.3-0.3l-0.1-0.5l3.8-19.4c0.1-0.4-0.2-0.5-0.7-0.5c-3.5-0.2-5.4-0.3-5.8-0.3l-0.2-0.5l0.6-0.3
				c3.2-0.2,5.4-0.3,6.4-0.3l1.1-5.3l0-1.3h-2.9c-0.4,0-0.5-0.2-0.4-0.5l2.9-14.9c0.1-0.3,0.3-0.5,0.7-0.5h1.1
				C550.4,222.8,555.3,222.7,555.7,222.5z M529.8,268.8h0.5c0.3,0.1,0.5,0.2,0.4,0.6l-0.1,0.5c-0.1,0.3-0.4,0.5-0.9,0.8
				c-0.3,0-0.5-0.3-0.6-0.8l0.1-0.5C529.3,269,529.5,268.8,529.8,268.8z M550.8,245.9l-0.1,0.5h1.3l0-0.2l-0.2-0.5
				C551.6,245.8,551.2,245.9,550.8,245.9z M557.2,247.3c0,0.3,0.1,0.5,0.5,0.5l0.4-0.5l0.1-0.5h-0.3
				C557.5,246.8,557.2,246.9,557.2,247.3z M558.6,292.4h2.1c0.3,0,0.6,0.4,0.9,1.1h-2.9c-0.3,0-0.5-0.3-0.7-0.8L558.6,292.4z"/>
		</g>
		<g>
			<path class="st0" d="M55.4,233.9l1.1-0.2c0.8,0.1,1.1,0.8,1.1,2c0,0.5-0.3,0.7-0.8,0.8l-0.7,0.1c-0.5,0.1-1-0.7-1.5-2.2
				L55.4,233.9z M56.5,218.8l26.5-4.4c0.7-0.1,1.6,2.8,2.7,8.8c0.4,3.5,1.5,5,3.2,4.8c1-0.2,1.4,0.8,1.4,3c-0.4,0.3-1.1,0.6-2.2,0.7
				l5,20.8c0.7,3.9,1.8,5.7,3.2,5.5l-0.1,2.1c0,0.5-0.3,0.8-0.8,0.9l-2.6,0.4l0.3,2.4l4-0.7c0.5-0.1,0.8-0.4,0.8-0.8
				c-0.2-0.4-0.4-0.8-0.3-1.4l0.8-0.5l3.3-0.5c0-0.2,0.3-1.2,0.8-3l0-0.4c-0.3,0-0.6,0-1.1-0.2c4-12.6,6.5-21.2,7.6-25.7
				c0.7-2,1.3-3,1.9-3.2l0.8,0.2c0.9-0.1,1.5-1.2,1.9-3.1c-0.6-0.4-1.4-0.5-2.6-0.3l0-0.4c2.9-9.3,4.4-14.2,4.4-14.9l25.7-4.3
				c0.7-0.1,1.7,3.5,3,10.8c0.6,2.3,1.8,3.3,3.6,3c0.5-0.1,0.7,0.5,0.7,1.7l0,0.7c0,0.5-0.6,0.8-1.9,1l0,0.7
				c1.1,5.3,3.4,13.7,7.1,25.1c1,0.2,1.4,1.1,1.4,3l-0.8,0.5l-2.6,0.4l0,0.7c0.5,0.5,0.7,1,0.7,1.6l2.6-0.4l1.9-0.6l-0.3-1.7l0-0.4
				l2.2-0.4c1.4-0.2,2.2-1.3,2.2-3.2c-0.5-0.5-0.7-0.8-0.7-0.9l5.6-19.4l6.4-23.1l0.4-0.1c-0.2-0.4-0.4-0.7-0.4-1
				c0.7-2.2,1.2-3.4,1.5-3.5l1.5-0.2c0.5,0,0.8,0.2,0.7,0.6c0.8-0.6,1.5-0.9,2.2-1l22.8-3.8c0,1.6-0.3,2.5-0.8,2.6
				c0,0.2,0.1,0.3,0.4,0.3l-13.2,44.4c0.5,0,0.7,0.2,0.7,0.6l0,1.8c-0.3,0.7-1,1.2-2.2,1.4l-1.8-0.1c-0.6,2-1.1,3-1.5,3.1l-5.2,0.9
				c-0.5,0.2-0.8,0.4-0.8,0.9c0,0.5,1.3,0.6,4.1,0.4l0,0.7l-0.4,0.7l0.8,0.2l4.8-0.8l1.8-0.7l0.4,0.7l0,0.7c0,0.5-1,1-3,1.6
				c0,0.5-0.6,2.6-1.6,6.3l2.2,0.3c-0.5,1.1-2.9,9.2-7.2,24.2l-1.2,0.9c-0.5-0.2-0.8-0.2-1.1-0.2c0,0.2-0.1,0.4-0.4,0.4l0.4,0.6
				c-1.1,5.4-1.9,8.1-2.4,8.2l-1.5,0.6l-0.7-0.3l-2.2,0.7l-0.7,0.1c-0.3,0-0.4-0.1-0.4-0.3l-0.8,0.5l-16.2,2.7
				c-2.1,0.4-3.7,0.4-4.8,0.1c-0.4,0.3-0.9,0.5-1.5,0.6l-0.8,0.1c-0.7,0.1-1.6-2.4-2.7-7.7l-1.1,0.2l0-0.7l2.2-0.4
				c0-1.1-1.7-8.7-5.3-22.8l-1.8,0.3c-0.7,0.1-1.4-1.9-2.1-6l0.8-0.5l0.7,0.3l0.4-0.8l0-0.4c0-0.5-1.3-0.7-4-0.4
				c-1.3,0.5-2.5,0.8-3.7,1c-0.3-1.6-1.1-2.3-2.5-2.1l-0.8,0.5c-0.4-0.2-1-0.2-1.8-0.1l0-0.7c0.1-0.5,0.3-0.8,0.8-0.9l4-0.7l0.8-0.4
				l-0.3-1.7l0-0.4l3.3-0.6c0-1.6-0.3-2.9-1-3.7c0.5-0.7,0.7-1.2,0.7-1.6l-0.4-0.6c1.1-2.5,1.6-4.2,1.6-5.2
				c-1.1-4.5-1.9-6.8-2.4-6.7c-2.2,7.1-3.5,12.2-4.1,15.6c0.5,0,0.8,0.2,0.7,0.6c0,1.9-1.7,3.1-4.9,3.6c0,1.4-0.3,2.1-0.8,2.2
				l-5.1,0.9c-0.5,0.2-0.8,0.4-0.8,0.9l0,0.7l3.3-0.6c0.5,0,0.8,0.2,0.7,0.6l0,0.7l-0.4,0.7l7-1.2c0.5,0,0.8,0.2,0.7,0.6l0,0.3
				c0,0.5-1.1,1-3.3,1.7c0,1.4-0.4,3.5-1.2,6.2l1.8,0.4l-8.9,32.3c0,1.2-0.5,1.9-1.5,2l-1.8-0.1c-0.3,0-0.6,0.2-1.2,0.6
				c-2.4,0.2-4.3,0.3-5.5,0.5l-3.3,0.9c-0.5-0.2-0.8-0.2-1.1-0.2c-1,0.4-1.9,0.7-2.6,0.8c-0.5,0.1-0.7,0-0.7-0.3l-2.2,0.7
				c-1.7,0.3-5.3,0.8-10.6,1.4l-4.7-16.5c0.3-0.5,0.4-0.9,0.4-1.2c-1.2-1.7-2.6-6.2-4-13.5l-2.2,0.4c-0.3,0-1-2-2.1-6
				c1.5-0.6,2.2-1.1,2.3-1.5c0-0.7-2.5-0.6-7.7,0.2c-0.5-1.4-1.1-2-1.8-1.8c-1.3,0.5-2.1,0.7-2.2,0.7c-0.4-0.2-0.9-0.2-1.5-0.1
				l0-0.7c0.1-0.5,0.3-0.8,0.8-0.9l4-0.7c0.5-0.1,0.8-0.4,0.8-0.8l0-0.7l-0.4-0.6l0.8-0.5l2.6-0.4l0-1.4c0-0.8-0.7-1.7-2.2-2.5
				l-6.3-24.8c0.1-0.5,0.3-0.8,0.7-0.9c0.5,0.2,0.8,0.2,1.1,0.2l0.3-0.8c0-0.4-0.3-1.3-1-2.7l-1.9,0.3c-0.9-0.5-2.2-5-4-13.5
				L56.5,218.8z M57,269.8l0.4,0.7l0,0.7l-1.1,0.2l0-0.7C56.4,270.1,56.6,269.8,57,269.8z M87.2,265.1c0.2,0.4,0.4,0.7,0.4,1
				l4.4-0.7l0-0.7c0-0.5-0.2-0.7-0.7-0.6l-3.3,0.6L87.2,265.1z M92.4,265.3l0,1.5c0.1,0.4,0.3,0.6,0.7,0.6l2.2-0.4l1.9-0.7l0-0.3
				c0-0.7-0.9-1.1-2.9-1l-0.7,0.5C93,265.3,92.6,265.2,92.4,265.3z M100.4,266.4c0,0.7-0.7,1.5-1.9,2.4c0.8,3.9,1.7,5.8,2.5,5.7
				l0.7-0.1l2-7.1c1-0.2,1.5-0.5,1.5-1l0-0.7L100.4,266.4z M102.4,274.6c0.2,0.3,0.4,1,0.3,2.1c0.7-0.4,1.1-1.1,1.1-2.3l0-0.3
				l-0.8,0.1L102.4,274.6z M131.7,248.4l0,0.7l0.4-0.1l0-0.7L131.7,248.4z M132.4,247.6l0,0.7l0.4-0.1l0-0.7L132.4,247.6z
				 M146.2,255.6c0.1,0.4,0.3,0.6,0.7,0.6l4.1-0.7l0-1.4l-4.1,0.7C146.4,254.9,146.2,255.2,146.2,255.6z M152,255.3l-0.4,0.8l0,0.7
				c0.1,0.4,0.3,0.6,0.7,0.6l2.9-0.5c0.4-0.1,0.7-0.5,1.1-1.2C155.4,255.1,154,255,152,255.3z M157.8,258.3c0.6,4.4,1.5,6.5,2.8,6.3
				c1.4-4.3,2.4-6.7,2.8-7.2c0.5-0.1,0.7-0.4,0.7-0.9l0-0.7l-3.6,0.6C159.8,257.5,158.9,258.1,157.8,258.3z M161.7,265.1
				c0.1,0.5,0.3,0.7,0.7,0.6l0.4-0.1c0-0.3,0.1-0.7,0.4-1.2l-0.8-0.2C161.9,264.4,161.7,264.7,161.7,265.1z"/>
		</g>
		<path class="st0" d="M225.3,133c0,0-7.8,48.5,48.6,33.1C273.9,166.1,242.8,140.7,225.3,133z"/>
	</g>
	<g>
		<path class="st0" d="M69.9,328.4c-8.2-11.9-15.4-27.4-21.4-46c-9.7-30.3-13-59.4-13.3-62.2l-26,15.8l0-0.3
			c3-23.5,9.7-44.2,20.1-61.5c8.3-13.8,18.9-25.5,31.6-34.7c15.5-11.3,30.4-16.1,37.5-17.9l-47.8,7.2l0.1-0.2
			c6.1-11,16.7-21.1,31.3-29.9c11.7-7.1,26-13.3,42.5-18.7c27.3-8.8,51.9-12.2,53.5-12.4c0.3-0.9,3-8.8,9.2-19.1
			c6-10.1,16.7-24.7,33.3-36.9l0.2-0.1l0.1,0.2c0.2,0.6,16.4,58.2,17.3,83.5l51.1,48.2l0,0.1c0,0.1-2.1,7.7-0.4,16.4
			c1.6,8,6.8,18.7,22.9,23.7c14,4.4,27.2,9.3,37.5,13.3c-1.9-1.2-3.8-2.4-5.7-3.6c-4.2-2.7-8.4-5.4-12.7-7.8
			c-2.1-1.2-4.2-2.3-6.4-3.3c-0.5-0.2-4.1-2.1-1.7-0.8c2.3,1.3-1.6-0.6-1.9-0.7c-2.1-0.8-4-1.8-5.6-3c-0.7-0.2-1.4-0.5-2.1-0.7
			c-23.3-7.3-18.2-28.7-17.5-31.1l1.2-4.4l-52.1-49.1c-1.9-27.2-16.7-79.7-17.4-82L224.3,0l-8.6,6.4c-26.7,19.7-39.2,45-43.3,55.1
			c-20.4,3.2-102.8,18.6-128.1,63.9l-7.4,13.3l16.6-2.5C33,152.1,8.6,181.7,1.9,235L0,250.2l29.3-17.8c4.4,29.3,16.1,94.9,58.6,115
			C81.5,342.8,75.4,336.4,69.9,328.4z"/>
	</g>
</g>
</svg>
