<svg id="Capa_1" data-name="Capa 1" xmlns="http://www.w3.org/2000/svg" viewBox="0 0 230.23 51.046">
  <defs>
    <style>
      .cls-1 {
        fill: #fff;
        fill-rule: evenodd;
      }
    </style>
  </defs>
  <title>LogoSaga</title>
  <g>
    <path class="cls-1" d="M116.673,22.975a6.12,6.12,0,0,0-4.908-2.5c-4.529-.108-9.138,4.02-10.3,9.217s1.57,9.492,6.093,9.6a9.573,9.573,0,0,0,6.547-2.743l1.255,2.143h1.751l4.007-17.769h-3.981Zm-1.216,7.077c-1.117,4.059-4.222,7.353-6.939,7.353s-4.024-3.295-2.911-7.353,4.222-7.353,6.939-7.353S116.571,25.994,115.458,30.052Z" transform="translate(0 -0.496)"/>
    <path class="cls-1" d="M147.092,20.926l-.466,2.049a6.122,6.122,0,0,0-4.908-2.5c-4.525-.108-9.138,4.02-10.3,9.217s1.57,9.492,6.1,9.6a9.571,9.571,0,0,0,6.543-2.743l1.255,2.143h1.751l4.01-17.769Zm-1.682,9.126c-1.113,4.059-4.223,7.353-6.939,7.353s-4.024-3.295-2.911-7.353S139.782,22.7,142.5,22.7,146.522,25.994,145.41,30.052Z" transform="translate(0 -0.496)"/>
    <path class="cls-1" d="M127.029,36.991c-.953-.113-1.272-1.238-.819-3.247l5.982-26.425h-3.985L122.06,34.468c-.91,4.037,4.1,4.713,6.448,4.244l.389-1.769A8.014,8.014,0,0,1,127.029,36.991Z" transform="translate(0 -0.496)"/>
    <path class="cls-1" d="M164.046,20.478a9.981,9.981,0,0,0-6.038,2.493l3.541-15.651h-3.981q-3.551,15.688-7.125,31.376h1.751l2.226-2.143a5.9,5.9,0,0,0,5.305,2.743c4.571-.108,9.25-4.408,10.441-9.6S168.617,20.369,164.046,20.478Zm1.906,9.652c-.815,4.016-3.679,7.276-6.4,7.276s-4.265-3.26-3.45-7.276,3.674-7.276,6.4-7.276S166.762,26.111,165.952,30.129Z" transform="translate(0 -0.496)"/>
    <path class="cls-1" d="M183.449,20.478c-4.891-.1-9.67,4.024-10.665,9.217s2.161,9.492,7.051,9.6a10.219,10.219,0,0,0,6.927-2.739L185.3,35.184a6.061,6.061,0,0,1-4.1,1.837c-2.946,0-4.934-2.82-4.731-6.469H190.4c.039-.156.073-.315.1-.475C191.5,24.885,188.339,20.586,183.449,20.478Zm3.338,7.711h-9.781c1.147-3.3,3.709-5.8,6.137-5.8S187.054,24.889,186.787,28.189Z" transform="translate(0 -0.496)"/>
    <path class="cls-1" d="M197.531,36.991c-.958-.113-1.277-1.238-.819-3.247l5.977-26.425H198.7l-6.141,27.149c-.914,4.037,4.093,4.713,6.448,4.244l.388-1.769A8.009,8.009,0,0,1,197.531,36.991Z" transform="translate(0 -0.496)"/>
    <path class="cls-1" d="M207.1,36.991c-.954-.113-1.273-1.238-.82-3.247l5.979-26.425h-3.981l-6.145,27.149c-.914,4.037,4.1,4.713,6.448,4.244l.388-1.769A8,8,0,0,1,207.1,36.991Z" transform="translate(0 -0.496)"/>
    <path class="cls-1" d="M226.245,20.926l-.461,2.049a6.124,6.124,0,0,0-4.909-2.5c-4.528-.108-9.138,4.02-10.3,9.217s1.57,9.492,6.094,9.6a9.573,9.573,0,0,0,6.546-2.743l1.255,2.143h1.747l4.011-17.769Zm-1.683,9.126c-1.113,4.059-4.218,7.353-6.939,7.353s-4.02-3.295-2.907-7.353,4.222-7.353,6.939-7.353S225.676,25.994,224.563,30.052Z" transform="translate(0 -0.496)"/>
    <path class="cls-1" d="M30.879,22.975a6.12,6.12,0,0,0-4.908-2.5c-4.529-.108-9.138,4.02-10.3,9.217s1.57,9.492,6.093,9.6a9.582,9.582,0,0,0,6.547-2.743l1.251,2.143h1.751l4.011-17.769H31.345Zm-1.22,7.077c-1.113,4.059-4.219,7.353-6.939,7.353s-4.02-3.295-2.907-7.353S24.035,22.7,26.752,22.7,30.772,25.994,29.659,30.052Z" transform="translate(0 -0.496)"/>
    <path class="cls-1" d="M71.881,22.975a6.123,6.123,0,0,0-4.908-2.5c-4.529-.108-9.14,4.02-10.3,9.217s1.569,9.492,6.093,9.6a9.574,9.574,0,0,0,6.547-2.743l1.255,2.143h1.747l4.01-17.769h-3.98Zm-1.22,7.077c-1.113,4.059-4.219,7.353-6.94,7.353s-4.019-3.295-2.906-7.353S65.037,22.7,67.754,22.7,71.773,25.994,70.661,30.052Z" transform="translate(0 -0.496)"/>
    <path class="cls-1" d="M51.985,23.22a5.7,5.7,0,0,0-5.157-2.743c-4.443.108-8.971,4.407-10.114,9.6s1.531,9.325,5.974,9.217a9.511,9.511,0,0,0,5.86-2.5c-.6,2.592-1.867,7.147-5.9,7.875a4.267,4.267,0,0,1-4.127-1.479l-1.043.375c1.242,2.541,4.96,3.7,8.47,2.264,3.95-1.622,5.679-5.443,6.361-8.574l3.529-16.181h-1.7Zm-1.53,6.5c-.694,4.059-3.4,7.353-6.038,7.353S40.2,33.778,40.894,29.72s3.394-7.353,6.037-7.353S51.15,25.661,50.455,29.72Z" transform="translate(0 -0.496)"/>
    <path class="cls-1" d="M10.527,21.706a3.117,3.117,0,0,1,2.165.764h2.061l-.07-.074A5.964,5.964,0,0,0,10,20.443a7.98,7.98,0,0,0-4.792,1.8A5.357,5.357,0,0,0,3.04,26.7c.169,1.932,1.726,3.1,2.993,4.29C7.146,32.041,8.3,33.149,8.469,34.46a2.68,2.68,0,0,1-1.233,2.67A4.821,4.821,0,0,1,1.707,36.9H.021L0,36.914a5.2,5.2,0,0,0,4.42,2.38,10.206,10.206,0,0,0,6.621-2.7,5.031,5.031,0,0,0,1.876-4.02c-.169-1.859-1.726-2.975-2.993-4.127-1.065-.962-2.342-1.876-2.584-3.394a2.729,2.729,0,0,1,.686-2.312A3.486,3.486,0,0,1,10.527,21.706Z" transform="translate(0 -0.496)"/>
    <path class="cls-1" d="M102.687,21.008H95.873L98.965,7.319a6.256,6.256,0,0,1,6.78-5.274l.168-1.493A10.022,10.022,0,0,0,94.777,8.229L91.888,21.008H85.074l-.353,2.083h6.7L86.9,43.059c-.672,2.963-2.242,7.19-6.249,7.095l-.306,1.315c7.163.764,9.678-4.545,10.989-10.355L95.4,23.091h6.935Z" transform="translate(0 -0.496)"/>
  </g>
</svg>
