<svg id="Capa_1" data-name="Capa 1" xmlns="http://www.w3.org/2000/svg" viewBox="0 0 206.942 57.08">
  <defs>
    <style>
      .cls-1 {
        fill: #fff;
      }
    </style>
  </defs>
  <title>LogoTelefonica</title>
  <g>
    <path class="cls-1" d="M206.942,55.737c0-.832-52.134-1.462-103.47-1.462S0,54.905,0,55.737c0,.711,52.134,1.343,103.472,1.343s103.47-.632,103.47-1.343"/>
    <path class="cls-1" d="M20.52,17.341l.29-.211a7.716,7.716,0,0,1-.626-2.933c.21-6.782,7.284-10.551,18.378-10.551h5.986c-3.513,1.972-6.4,4.817-8.79,10.05-.922,2.182-5.606,14.237-7.454,19.644-2.382,6.488-3.979,9.411-5.819,10.463l.292.63c5.316.33,8.42-2.381,10.467-7.41,2.013-4.815,4.481-12.354,5.738-15.788C43.127,10.428,44.89,5.827,48.115,3.646c4.56-.126,8.921-.126,8.921-.126,4.849-.084,6.818-1.335,8.37-3.1L65.109,0C63.853.631,61.26.841,59,.841H37.1c-12.356,0-19.891,3.94-21.147,10.01a5.192,5.192,0,0,0,4.566,6.49"/>
    <path class="cls-1" d="M75.037,17.129c2.6-2.8,6.659-5.237,9.968-5.107,2.382,0,3.52.922,3.52,2.8-.09,2.013-1.217,3.975-2.974,5.867a34.833,34.833,0,0,1-10.3,7.108,12.586,12.586,0,0,0-.506,3.444c0,1.8.715,2.714,2.6,2.714,3.225,0,7.79-2.8,12.23-8.75,1.462-4.095,3.013-8.08,3.725-9.962a10.037,10.037,0,0,0-3.1.421l-.21-.5a8.047,8.047,0,0,1,4.275-2.222C99.618,1.889,107.2.506,113.434.506c4.857,0,7.871,1.466,7.871,3.979,0,1.673-2.094,4.06-5.066,5.442l-.421-.329a4.961,4.961,0,0,0,1.637-4.4c-.211-1.968-2.469-3.225-5.777-3.1-5.532.211-9.257,4.356-11.85,10.765h10.087c1.138-.13,3.4-.13,4.446-.34l-.632,1.592a5.606,5.606,0,0,0-1.045.29c-4.57,1.471-9.211,11.093-9.211,16.84,0,1.673.421,2.844,1.968,2.844,3.724,0,9.337-9.841,9-18.092,0-.54.544-.751,2.006-.961,2.265-.5,4.442-1.052,6.533-1.673,1.428-.29,2.89-.711,4.023-.84,1.552,0,2.3.55,2.3,1.882,0,1.381-1.05,4.316-2.393,7.539,3.524-5.448,7.55-9.5,11.685-9.5,2.3.081,3.225,1.252,3.353,2.513.211,2.725-2.593,7.62-4.144,10.964-1.051,2.224-3.555,7.75-3.555,10.893a6.943,6.943,0,0,0,.411,2.515l-.5.29a5.545,5.545,0,0,1-4.568-5.658c-.078-4.686,6.029-14.318,6.328-16.83.211-.632,0-1.052-.63-1.052-1.972,0-6.618,6.078-8.712,9.764-1.754,3.092-3.1,6.155-5.278,10.763h-5.066c0-.211,4.565-11.105,7.248-18.5.416-1.261.711-2.853-.715-2.643-.756.12-2.172.419-3.769.62a25.214,25.214,0,0,1-2.179,7.969c-2.046,5.1-7.448,12.847-13.981,12.847-3.31,0-4.987-1.764-5.2-4.477-.5-5.946,4.275-15.076,9.971-17.59a58.194,58.194,0,0,1-8.8.421c-1.677,4.316-3.85,10.594-6.45,17.8s-4.855,11.595-11.182,11.3l-.21-.421c2.182-1.682,3.184-4.527,4.571-7.961.5-1.171,1.211-3.344,2.178-5.858-3.776,3.976-8,6.7-12.776,6.78-4.351.209-6.113-2.593-6.113-5.858.085-4.774,2.809-10.131,6.2-13.907m.631,8.79c4.981-3.013,8.916-7.119,8.916-10.252,0-.712-.292-1.262-1.005-1.262-3.139,0-6.66,6.5-7.911,11.514"/>
    <path class="cls-1" d="M61.68,23c3.1-7.12,5.482-12.443,7.871-17.589A2.373,2.373,0,0,1,71.1,4.151L76,3.23c-2.1,5.447-6.743,14.87-9.967,23.032-1.678,4.273-2.893,7.619-3.013,10.551a7.543,7.543,0,0,0,.2,2.593l-.625.211a5.735,5.735,0,0,1-4.356-5.948,10.209,10.209,0,0,1,.546-3.054c-2.387,2.633-6.948,6.2-11.52,6.279-4.349.209-5.9-2.515-5.9-5.858.08-4.774,2.758-10.131,6.187-13.907,2.6-2.8,6.664-5.237,10.058-5.107,2.3,0,3.434.922,3.434,2.8-.09,2.013-1.257,3.975-3.02,5.867A34.59,34.59,0,0,1,47.773,27.8a16.966,16.966,0,0,0-.5,3.444c0,1.884.711,2.714,2.262,2.714,3.726,0,8-4.054,11.1-8.66A16.33,16.33,0,0,0,61.68,23M48.194,25.92c4.986-3.013,8.921-7.119,8.921-10.252,0-.712-.29-1.262-1.047-1.262-3.1,0-6.617,6.5-7.874,11.514"/>
    <path class="cls-1" d="M154.257,8.756A3.61,3.61,0,0,0,157.4,5.822a2.168,2.168,0,0,0-1.96-2.8,3.6,3.6,0,0,0-3.225,2.933,2.153,2.153,0,0,0,2.041,2.8"/>
    <path class="cls-1" d="M141.531,27.722c1.424-3.685,3.8-8.581,5.777-12.766a2.318,2.318,0,0,1,1.592-1.382c.632-.21,5.278-.921,5.278-.921-3.013,6.358-5.487,11.724-7.239,15.99a16.611,16.611,0,0,0-1.053,3.985,1.11,1.11,0,0,0,1.262,1.122c1.331,0,3.3-1.462,5.067-3.555a24.748,24.748,0,0,1,6.2-12.935,14.37,14.37,0,0,1,10.093-5.027c2.253,0,4.855.421,4.855,2.723,0,1.964-2.471,3.845-5.076,4.816l-.539-.421a5.207,5.207,0,0,0,1.882-3.565c0-.96-.5-1.462-1.542-1.462-3.945.09-9.843,10.133-9.843,16.832,0,1.761.711,2.724,2.175,2.724,2.341,0,4.734-2.224,6.407-3.767.29-.34,1.05-1.171,1.682-1.97a37.072,37.072,0,0,1,2.384-4.938c4.644-8.25,10.963-10.973,17.41-10.682a7.85,7.85,0,0,1,4.446,1.171,149.814,149.814,0,0,0-6.409,16.291c-.539,1.8-1.761,7.239-.839,9.42l-.632.211A4.973,4.973,0,0,1,180.6,34.38c.131-1.041.421-2.723.623-3.643h-.081c-2.8,3.983-6.319,6.286-9.342,6.286-2.795,0-4.135-1.882-4.135-4.394v-.76c-2.393,2.724-6.027,5.026-9.632,5.155-3.646.2-5.316-1.59-5.817-4.1-2.3,2.3-5.2,4.1-8,4.1-2.686.081-4.147-1.25-4.147-3.562a17.15,17.15,0,0,1,1.461-5.738m31.83,4.486c0,1.041.62,1.462,1.673,1.131,3.094-.711,6.317-5.827,8.579-10.973,1.343-3.225,3.144-6.908,3.515-7.62a5.6,5.6,0,0,0-3.714.5c-4.986,2.3-9.931,12.475-10.052,16.961"/>
  </g>
</svg>
