<svg id="Capa_1" data-name="Capa 1" xmlns="http://www.w3.org/2000/svg" viewBox="0 0 223.558 32.795">
  <defs>
    <style>
      .cls-1 {
        fill: #e30000;
      }
    </style>
  </defs>
  <title>LogoSPStudios</title>
  <g>
    <path class="cls-1" d="M7.82,16.988Q5.728,14.74,5.728,13.516V11.464q0-2.6,1.539-2.6.552,0,.889.809a3.793,3.793,0,0,1,.3,1.638q-.119,2.25-.079,3.157,0,.592.513.592a36.893,36.893,0,0,0,4.3,0c.289-.025.434-.236.434-.631V10.517A7.577,7.577,0,0,0,12.042,5.5,5.529,5.529,0,0,0,7.5,3.531,6.506,6.506,0,0,0,2.216,5.938a8.929,8.929,0,0,0-1.7,5.723v3.354a7.2,7.2,0,0,0,2.092,4.459q.354.435,3.867,3.907Q8.57,25.434,8.531,26.42l-.079,2.21q-.081,1.934-1.3,1.934-1.54,0-1.539-2.841V25.789q0-1.027-.395-1.026t-2.229.079q-1.835.079-2.229.079t-.435.828Q.284,27.17.283,27.8A8.4,8.4,0,0,0,2.3,33.839,6.217,6.217,0,0,0,7.07,36.01,6.331,6.331,0,0,0,12.082,34a8,8,0,0,0,1.776-5.485V25.789a7.8,7.8,0,0,0-2.092-4.617Z" transform="translate(-0.28 -3.531)"/>
    <path class="cls-1" d="M28.913,3.85q-.494-.041-4.4-.042-.552,0-.513.789V27.328q0,3.078-1.421,3.078-1.619,0-1.618-3.078,0,.275.04-10.655V4.4q0-.592-.671-.592H16.107a.421.421,0,0,0-.375.229,1.06,1.06,0,0,0-.138.561V28.324q0,4.059.946,5.478,1.381,2.209,6,2.208,4.1,0,5.8-3a7.994,7.994,0,0,0,.986-4.021l.079-24.4Q29.406,3.892,28.913,3.85Z" transform="translate(-0.28 -3.531)"/>
    <path class="cls-1" d="M45.231,19.475q-3.71-.038-5.8-.039a.523.523,0,0,0-.592.592v3.828a.314.314,0,0,0,.355.354h.947c.21-.025.315.132.315.474V26.7q0,4.263-1.578,4.262-.633,0-1.105-1.063a3.713,3.713,0,0,1-.395-1.5V11.813q0-3.111,1.46-3.112,1.184,0,1.46,3.143.079,2.278.158,4.6.04.589.513.589,2.921.079,4.3.039.513,0,.513-.669.04-1.652-.078-5.154-.041-3.738-1.224-5.313-1.579-2.2-5.959-2.2-3.671,0-5.091,1.532-1.579,1.727-1.618,6.6L31.734,27.88q-.04,4.163,1.421,5.969,1.658,2.043,5.723,2.043,3.749,0,4.42-1.855.354.851.513,1.354c.1.334.276.5.513.5h1.105q.394,0,.395-1.063V20.144Q45.823,19.476,45.231,19.475Z" transform="translate(-0.28 -3.531)"/>
    <path class="cls-1" d="M58.174,3.808a38.315,38.315,0,0,0-4.263,0q-.513.04-3.156,15.626-1.343,8.111-2.684,16.181c-.079.315.092.475.513.475h4.854q.2,0,.354-.359.592-3.158.947-5.557a.342.342,0,0,1,.355-.28h1.539c.263,0,.407.093.434.276q.2,1.383.592,3.315.552,2.565.908,2.564,1.1,0,2.6.04h2.052q.394,0,.355-.237-1.223-8.208-2.486-16.416Q58.646,3.847,58.174,3.808ZM56.319,25.118a3.032,3.032,0,0,1-.77-.021c-.275-.039-.4-.1-.374-.177q.157-1.3.315-2.565.275-1.934.474-1.934a25.466,25.466,0,0,1,.75,4.5C56.714,25.026,56.582,25.092,56.319,25.118Z" transform="translate(-0.28 -3.531)"/>
    <path class="cls-1" d="M78.3,29.467q0-6.227-1.855-7.844a4.431,4.431,0,0,0-1.578-.985c-.211-.078-.315-.144-.315-.2,0-.078.1-.157.315-.236a4.044,4.044,0,0,0,1.775-1.34,5.02,5.02,0,0,0,1.145-3.311l.04-7.765a3.442,3.442,0,0,0-1.867-3.035,7.957,7.957,0,0,0-4.169-1.025q-3.773.04-5.957.04a.629.629,0,0,0-.714.709v30.35q0,1.1.474,1.144a21.3,21.3,0,0,0,4.064-.079q.434-.04.434-1.065.04-4.7.04-10.893c0-.5.092-.789.276-.868a.734.734,0,0,1,.473,0q2.092,0,2.092,5.959,0,3.277.2,5.959.079,1.066.514,1.065,3.867.119,4.617.04.592-.04.395-.906A28.838,28.838,0,0,1,78.3,29.467ZM72.539,16.555a1.178,1.178,0,0,1-1.185.868,1.418,1.418,0,0,1-.474,0q-.552-.04-.552-1.14V9.369q0-.668.354-.668a3.238,3.238,0,0,0,.593-.079q1.736-.119,1.736,2.486A19.311,19.311,0,0,1,72.539,16.555Z" transform="translate(-0.28 -3.531)"/>
    <path class="cls-1" d="M97.716,5.268a7.179,7.179,0,0,0-4.263-1.381q-3.631-.119-5.248-.039c-.448.026-.671.184-.671.473L87.614,35.5q0,.473.513.513a27.14,27.14,0,0,0,4.183,0q.435-.04.435-.671.079-7.182.079-10.773,0-.552.513-.553a7.454,7.454,0,0,0,3.986-1.145,4.98,4.98,0,0,0,2.525-4.459V8.938A4.329,4.329,0,0,0,97.716,5.268ZM94.638,17.9a1.411,1.411,0,0,1-1.224.592.715.715,0,0,1-.513.039.535.535,0,0,1-.395-.513q-.041-5.6-.04-8.563a.62.62,0,0,1,.079-.435c.079-.131.171-.184.276-.157a3.973,3.973,0,0,0,.592.078q.394.041.829.079.434.2.671,1.105a17.606,17.606,0,0,1,.236,3.828A10.591,10.591,0,0,1,94.638,17.9Z" transform="translate(-0.28 -3.531)"/>
    <path class="cls-1" d="M105.647,3.966q-2.6-.079-4.3-.079-.316,0-.435.474a2.93,2.93,0,0,0-.079.71q.04,16.339-.039,29.677,0,1.184.789,1.263a14.517,14.517,0,0,0,4.144,0q.631-.158.632-1.105V5.07Q106.318,4.045,105.647,3.966Z" transform="translate(-0.28 -3.531)"/>
    <path class="cls-1" d="M118.552,30.209h-4.341c-.474-.052-.711-.248-.711-.586a51.513,51.513,0,0,1,.079-6.208c.053-.391.21-.586.474-.586H117.6c.289,0,.434-.184.434-.553q0-.394.079-2.644.079-1.934.04-2.645a.477.477,0,0,0-.548-.474,27.8,27.8,0,0,1-3.64-.039.486.486,0,0,1-.47-.513q-.04-1.1,0-3.315.04-2.6.04-2.8c0-.289.2-.435.587-.435h4.507q.431,0,.431-.493T119.1,6.57V4.439c0-.316-.21-.474-.631-.474q-6.788-.079-9.826-.04a.384.384,0,0,0-.435.435v30.82q0,.71.437.75a77.186,77.186,0,0,0,9.94.079c.422-.026.634-.2.634-.513q-.04-1.579-.04-4.775C119.183,30.38,118.972,30.209,118.552,30.209Z" transform="translate(-0.28 -3.531)"/>
    <path class="cls-1" d="M135.125,16.988q-2.092-2.249-2.092-3.473V11.464q0-2.6,1.539-2.6.552,0,.889.809a3.793,3.793,0,0,1,.3,1.638q-.119,2.25-.079,3.157,0,.592.513.592a36.893,36.893,0,0,0,4.3,0c.289-.025.434-.236.434-.631V10.517A7.577,7.577,0,0,0,139.348,5.5a5.529,5.529,0,0,0-4.538-1.974,6.506,6.506,0,0,0-5.288,2.407,8.929,8.929,0,0,0-1.7,5.723v3.354a7.2,7.2,0,0,0,2.092,4.459q.354.435,3.867,3.907,2.092,2.052,2.053,3.038l-.079,2.21q-.081,1.934-1.3,1.934-1.54,0-1.539-2.841V25.789q0-1.027-.395-1.026t-2.229.079q-1.835.079-2.229.079t-.435.828q-.038,1.421-.039,2.053a8.4,8.4,0,0,0,2.013,6.037,6.217,6.217,0,0,0,4.774,2.171A6.331,6.331,0,0,0,139.387,34a8,8,0,0,0,1.776-5.485V25.789a7.8,7.8,0,0,0-2.092-4.617Z" transform="translate(-0.28 -3.531)"/>
    <path class="cls-1" d="M155.686,3.848q-7.3-.04-12.194,0-.554,0-.711,1.025a8.368,8.368,0,0,0-.078,2.092,12.719,12.719,0,0,0,.078,1.618q0,.513.632.553h2.92c.316,0,.474.184.474.553l.04,25.491q0,.633.513.672a23.393,23.393,0,0,0,4.5.04q.434-.04.434-.673l-.078-25.491q0-.592.828-.592h1.422q.905.04,1.184.039.671,0,.67-.553.041-1.617-.039-4.064Q156.239,3.847,155.686,3.848Z" transform="translate(-0.28 -3.531)"/>
    <path class="cls-1" d="M171.687,3.85q-.492-.041-4.4-.042c-.367,0-.539.264-.512.789V27.328q0,3.078-1.422,3.078-1.617,0-1.617-3.078,0,.275.039-10.655V4.4q0-.592-.67-.592h-4.223a.421.421,0,0,0-.375.229,1.052,1.052,0,0,0-.139.561V28.324q0,4.059.947,5.478,1.38,2.209,6,2.208,4.1,0,5.8-3a7.984,7.984,0,0,0,.986-4.021l.08-24.4Q172.182,3.892,171.687,3.85Z" transform="translate(-0.28 -3.531)"/>
    <path class="cls-1" d="M180.922,3.65q-4.6-.04-5.9.039c-.314.026-.473.236-.473.631V35.339q0,.671.553.671h5.287q7.025,0,7.025-11.089V14.187a16.6,16.6,0,0,0-1.3-7.1A5.418,5.418,0,0,0,180.922,3.65Zm1.441,19.771a12.5,12.5,0,0,1-.928,4.913q-.929,2.19-1.875,2.15-.275,0-.275-.592V9.49q0-.552.311-.553,1.014,0,1.891,1.48a6.061,6.061,0,0,1,.877,3.137Z" transform="translate(-0.28 -3.531)"/>
    <path class="cls-1" d="M193.648,3.966q-2.6-.079-4.3-.079c-.211,0-.355.158-.436.474a2.932,2.932,0,0,0-.078.71q.038,16.339-.039,29.677c0,.789.262,1.21.789,1.263a14.51,14.51,0,0,0,4.143,0q.633-.158.633-1.105V5.07Q194.318,4.045,193.648,3.966Z" transform="translate(-0.28 -3.531)"/>
    <path class="cls-1" d="M202.133,3.808a5.659,5.659,0,0,0-4.3,1.5q-1.737,1.815-1.736,6.116V29.7q0,3.434,1.342,4.973,1.421,1.657,4.7,1.657,6.313,0,6.314-6.63V10.95q0-4.182-1.814-5.84A6.52,6.52,0,0,0,202.133,3.808Zm1.3,24.112q0,2.013-1.105,2.013a1.165,1.165,0,0,1-.947-.336,3.014,3.014,0,0,1-.275-1.638V11.977q0-2.367,1.223-2.368,1.1,0,1.105,2.329Z" transform="translate(-0.28 -3.531)"/>
    <path class="cls-1" d="M221.746,21.172,217.8,16.988q-2.092-2.249-2.092-3.473V11.464q0-2.6,1.539-2.6c.369,0,.664.27.889.809a3.794,3.794,0,0,1,.3,1.638q-.12,2.25-.08,3.157c0,.395.172.592.514.592a36.878,36.878,0,0,0,4.3,0c.289-.025.434-.236.434-.631V10.517A7.572,7.572,0,0,0,222.021,5.5a5.526,5.526,0,0,0-4.537-1.974A6.508,6.508,0,0,0,212.2,5.938a8.935,8.935,0,0,0-1.7,5.723v3.354a7.2,7.2,0,0,0,2.092,4.459q.354.435,3.867,3.907,2.092,2.052,2.053,3.038l-.078,2.21q-.082,1.934-1.3,1.934-1.541,0-1.539-2.841V25.789c0-.685-.133-1.026-.395-1.026s-1.006.026-2.23.079-1.967.079-2.229.079-.408.276-.436.828q-.038,1.421-.039,2.053a8.4,8.4,0,0,0,2.014,6.037,6.217,6.217,0,0,0,4.773,2.171A6.33,6.33,0,0,0,222.061,34a7.991,7.991,0,0,0,1.777-5.485V25.789A7.8,7.8,0,0,0,221.746,21.172Z" transform="translate(-0.28 -3.531)"/>
  </g>
</svg>
