<svg id="Capa_1" data-name="Capa 1" xmlns="http://www.w3.org/2000/svg" viewBox="0 0 265 55.773">
  <defs>
    <style>
      .cls-1 {
        fill: #fff;
      }

      .cls-2 {
        fill: #1276ba;
      }

      .cls-3 {
        fill: #91943d;
      }

      .cls-4 {
        fill: #f9af43;
      }

      .cls-5 {
        fill: #8bc340;
      }

      .cls-6 {
        fill: #4c614f;
      }

      .cls-7 {
        fill: #fafafa;
      }

      .cls-8 {
        fill: #237145;
      }
    </style>
  </defs>
  <title>LogoMiraflo</title>
  <path class="cls-1" d="M41.733,40.005c0,2.606-.083,5.216.032,7.818.067,1.517-.245,2.133-1.958,2.126-4.3-.018-5.243-.819-5.26-5.13-.016-4,.024-7.993-.014-11.989-.033-3.424-1.7-5.13-4.849-5.081-3.023.047-4.67,1.747-4.7,5-.041,5.039-.072,10.079.026,15.116.031,1.573-.355,2.074-2,2.08-5.247.02-5.247.1-5.247-5.057,0-4.083.035-8.167-.012-12.25-.037-3.222-1.731-4.906-4.777-4.892-3.02.014-4.627,1.709-4.646,5.013-.03,5.039-.073,10.079.029,15.116.032,1.587-.373,2.063-2.01,2.07C1,49.968,1,50.042,1,44.725c0-3.388-.011-6.777,0-10.165.039-10.334,9.581-16.082,18.8-11.241a3.324,3.324,0,0,0,3.46.022,14.791,14.791,0,0,1,14.883,1.077c2.386,1.538,3.245,4.068,3.406,6.733.178,2.942.041,5.9.041,8.854Z" transform="translate(-1)"/>
  <path class="cls-1" d="M174.365,37.634c-2.435,0-4.871.05-7.3-.021-1.2-.035-1.462.381-1.32,1.529.518,4.2,5.535,6.6,8.618,3.717,2.285-2.136,4.662-1.826,7.207-1.942,1.612-.074,1.442.685,1,1.747a11.411,11.411,0,0,1-3.342,4.586,12.683,12.683,0,0,1-20.691-7.808,24.511,24.511,0,0,1-.179-6.242c.931-9.555,8.985-14.418,17.916-10.8,4.864,1.972,8.644,9.513,7.26,14.357-.278.973-.917.87-1.6.871Q178.148,37.639,174.365,37.634ZM170.9,32.946a31.213,31.213,0,0,1,3.365.022c1.8.2,1.79-.741,1.427-2.01a4.55,4.55,0,0,0-4.572-3.51,4.824,4.824,0,0,0-5,2.971c-.753,1.694-.688,2.826,1.671,2.546A26.5,26.5,0,0,1,170.9,32.946Z" transform="translate(-1)"/>
  <path class="cls-1" d="M187.981,40.326c1.387-.184,2.845-.2,3.792,2.105.966,2.351,6.541,2.78,8.436.957,1.23-1.183,1-2.315-.391-3.207a9.945,9.945,0,0,0-3.431-1.163,34.412,34.412,0,0,1-7.215-2.154c-2.531-1.148-4.327-2.869-4.551-5.823-.251-3.313.83-6.154,3.734-7.773,5-2.785,10.157-2.553,15.185.1a5.99,5.99,0,0,1,1.891,1.757c1.128,1.529,2.293,3.217,1.543,5.179-.35.916-5.842.052-6.732-1.128-1.687-2.235-3.939-2.279-6.339-1.957a2.134,2.134,0,0,0-2.049,1.7c-.242,1.209.565,1.788,1.5,2.107,1.635.559,3.314.99,4.974,1.48s3.349.908,4.977,1.494c2.814,1.013,4.775,2.773,4.941,6.02.179,3.487-.812,6.534-4.041,8.122a18.342,18.342,0,0,1-16.1.215,6.879,6.879,0,0,1-3.351-3.524C183.083,41.293,183.682,40.326,187.981,40.326Z" transform="translate(-1)"/>
  <path class="cls-1" d="M128.981,21.41c6.3,0,10.352,3.019,12,9.069a19.5,19.5,0,0,1-.045,10.547c-1.711,6.092-6.373,9.341-12.664,8.924-6.576-.436-10.454-3.9-11.546-10.257a22.74,22.74,0,0,1-.032-8.018C117.924,24.932,122.089,21.415,128.981,21.41Zm-5.52,14.039a15.779,15.779,0,0,0,.508,4.368c.784,2.777,2.349,4.133,4.878,4.209,2.685.08,4.2-1.542,4.988-3.786a13.691,13.691,0,0,0,.17-8.68c-.8-2.6-2.782-4.158-5.082-4.042a5.147,5.147,0,0,0-5.05,4.082A13.779,13.779,0,0,0,123.46,35.449Z" transform="translate(-1)"/>
  <path class="cls-1" d="M91.743,35.033c0,1.825.064,3.653-.015,5.475a9.69,9.69,0,0,1-2.9,6.775c-3.775,3.681-13.049,4.185-17.407,1.27-3.44-2.3-4.359-11.456.991-13.883,2.674-1.213,5.491-1.54,8.293-2.089,1.73-.339,4.24-.32,4.085-2.694-.168-2.58-2.775-2.079-4.588-2.207a3.567,3.567,0,0,0-2.483.506c-2.133,2.142-4.74,1.075-7.143,1.319-1.1.112-1.311-.387-.969-1.421A8.532,8.532,0,0,1,76.626,22.2a20.029,20.029,0,0,1,9.553.42c3.809,1.137,5.537,3.463,5.613,7.459.031,1.651.005,3.3.005,4.955Zm-6.962,1.454c-2.342.608-4.7,1.145-7,1.838-1.981.6-2.644,2.1-2.3,4.064.336,1.942,1.8,2.387,3.467,2.419C83.333,44.893,85.472,41.866,84.781,36.487Z" transform="translate(-1)"/>
  <path class="cls-1" d="M94.207,33.775c0-4.344-.107-8.692.027-13.032a7.713,7.713,0,0,1,10.728-6.7c1.215.493.655,1.446.731,2.21.2,2.039.429,4.053-2.78,3.691-1.515-.171-1.649,1.139-1.73,2.355-.1,1.551.939,1.237,1.866,1.4s2.5-.892,2.639,1.053c.122,1.708-.57,3.471-2.253,3.658-2.485.276-2.26,1.7-2.247,3.382.04,5.213-.045,10.428.05,15.639.029,1.6-.433,2.062-2.045,2.071-5.022.027-5.022.1-5.022-4.787q0-5.474,0-10.948Z" transform="translate(-1)"/>
  <path class="cls-1" d="M107.64,31.417c0-4.781-.083-9.564.064-14.341.032-1.046-1.215-2.955,1.385-3.112,3.6-.217,5.378.614,5.761,2.978a9.825,9.825,0,0,1,.075,1.56c0,9.562-.043,19.124.045,28.685.017,1.812-.452,2.359-2.3,2.328-5.026-.084-5.028.006-5.028-5.06Q107.641,37.936,107.64,31.417Z" transform="translate(-1)"/>
  <path class="cls-1" d="M142.543,41.048c.128-2.77.059-5.566.423-8.3a12.579,12.579,0,0,1,14.021-10.725c.516.069,1.137,0,1.149.72.035,1.993.1,3.994-.034,5.979-.066.994-1.071.625-1.7.659-5.106.279-6.41,1.611-6.434,6.681-.017,3.73-.071,7.462.029,11.189.043,1.611-.283,2.28-2.111,2.271-5.229-.025-5.229.066-5.231-5.082q0-1.692,0-3.383Z" transform="translate(-1)"/>
  <path class="cls-1" d="M53.033,40.839c.088-2.693-.234-5.833.511-8.925,1.445-5.994,7.89-10.357,13.869-9.413.727.115,1.122.312,1.119,1.077-.007,1.739-.01,3.479,0,5.218.008,1.236-.882,1.011-1.64,1.057-5.35.323-6.551,1.571-6.565,6.838-.01,3.739-.086,7.482.037,11.217.054,1.645-.481,2.03-2.061,2.034-5.272.015-5.272.081-5.272-5.283Z" transform="translate(-1)"/>
  <path class="cls-1" d="M44.261,36.114c0-3.477-.07-6.956.041-10.429.034-1.051-.811-2.819.8-3.052,1.949-.281,4.239-.761,5.751,1.346a3.626,3.626,0,0,1,.668,2.2c-.014,7.388-.024,14.776.009,22.164,0,1.06-.226,1.69-1.422,1.557a3.691,3.691,0,0,0-.521,0c-5.328.166-5.328.166-5.328-5.179Q44.261,40.417,44.261,36.114Z" transform="translate(-1)"/>
  <path class="cls-1" d="M47.907,20.161c-3.677,0-4.507-1.077-3.635-4.751a1.464,1.464,0,0,1,.441-.842c1.671-1.121,5.791.249,6.558,2.147C52.344,19.373,51.575,20.16,47.907,20.161Z" transform="translate(-1)"/>
  <path class="cls-2" d="M222.794,55.52c-2.711.713-3.974-1.217-5.122-3.012-2.33-3.643-3.345-7.791-3.98-12-1.647-10.919-1.582-21.766,1.752-32.422a17.255,17.255,0,0,1,3.041-5.992c2.316-2.791,4.892-2.8,7.159.044,2.388,2.994,3.338,6.619,4.226,10.251.246,1.008.476,2.02.712,3.03q-.078.331-.155.664a22.667,22.667,0,0,0-9.66,11.238c-2.3,5.548.26,9.5,6.314,10.345a4.545,4.545,0,0,1-.975,2.332,43.306,43.306,0,0,0-4.483,9.8A5.561,5.561,0,0,0,222.794,55.52Z" transform="translate(-1)"/>
  <path class="cls-3" d="M264.969,9.517c1.375,1.5.927,3.365,1.031,5.12l-.265,1.044-.272,1.063-.225.5-.275.762-.153.064.059.14a3.862,3.862,0,0,0-.356.165c-3.781,4.87-7.923,9.378-13.335,12.478-6.257,3.584-12.652,6.845-20.149,6.786l.068-4.119.388-1.559a9.746,9.746,0,0,0,1.6-1.289,88.123,88.123,0,0,1,15.352-14.706c4.765-3.59,9.622-7.213,16.087-7.01l-.029-.021Z" transform="translate(-1)"/>
  <path class="cls-4" d="M231.028,37.636c7.5.059,13.892-3.2,20.149-6.786,5.412-3.1,9.554-7.608,13.335-12.478-.158,1.907-1.291,3.4-2.236,4.925a88.825,88.825,0,0,1-29.152,29.644c-2.848,1.749-5.85,3.468-9.483,2.6,2.556-1.762,3.735-4.438,4.818-7.192C229.817,44.9,230.149,41.2,231.028,37.636Z" transform="translate(-1)"/>
  <path class="cls-5" d="M264.521,8.953c-6.465-.2-11.322,3.42-16.087,7.01a88.123,88.123,0,0,0-15.352,14.706,9.743,9.743,0,0,1-1.6,1.289,74.493,74.493,0,0,0-1.058-15.879q.077-.332.155-.663c6.347-4.326,13.014-7.958,20.7-9.278a20.515,20.515,0,0,1,9.276.145C262.131,6.737,263.7,7.325,264.521,8.953Z" transform="translate(-1)"/>
  <path class="cls-6" d="M231.028,37.636c-.879,3.565-1.212,7.26-2.57,10.713-1.083,2.754-2.262,5.43-4.818,7.192l-.847-.021a5.561,5.561,0,0,1-1.171-5.725,43.306,43.306,0,0,1,4.483-9.8,4.526,4.526,0,0,0,.973-2.331c1.923-.815,2.18-3.247,4.018-4.146Z" transform="translate(-1)"/>
  <path class="cls-7" d="M265.735,15.681,266,14.638Z" transform="translate(-1)"/>
  <path class="cls-5" d="M264.969,9.517l-.477-.585Z" transform="translate(-1)"/>
  <path class="cls-7" d="M265.238,17.241l.225-.5Z" transform="translate(-1)"/>
  <polygon class="cls-7" points="263.868 18.206 263.809 18.067 263.963 18.003 263.868 18.206"/>
  <path class="cls-8" d="M231.1,33.517c-1.839.9-2.1,3.331-4.018,4.146-6.052-.847-8.607-4.8-6.312-10.345a22.667,22.667,0,0,1,9.66-11.238,74.5,74.5,0,0,1,1.058,15.878Q231.29,32.738,231.1,33.517Z" transform="translate(-1)"/>
</svg>
