<svg id="Capa_1" data-name="Capa 1" xmlns="http://www.w3.org/2000/svg" viewBox="0 0 150.433 44.864">
  <defs>
    <style>
      .cls-1 {
        fill: #fff;
        fill-rule: evenodd;
      }
    </style>
  </defs>
  <title>LogoCOSAS</title>
  <g>
    <path class="cls-1" d="M19.144,29.77a30.68,30.68,0,0,1-.252,5.647c-.22,1.035-1.822,1.416-2.847,1.416a2.351,2.351,0,0,1-2.5-2.238s-.006-19.812-.006-20.179a2.582,2.582,0,0,1,4.042-1.787c1.812,1.154,1.405,4.595,1.486,7.172H29.236c.073-4.088.318-9.088-1.535-11.781C23.7,2.21,16.365.85,9.9,2.77,5.609,4.05,1.573,8.113,1.573,12.63L1.567,33.065c0,5.123,2.377,10.3,7.244,12.416a19.489,19.489,0,0,0,16.455-1.664c4.545-3.2,4.3-8.924,4.168-14.046Z" transform="translate(-1.567 -1.954)"/>
    <path class="cls-1" d="M90.388,29.984c-.884-9.483-10.756-7.234-14.6-13.7a3.258,3.258,0,0,1-.129-3.074A2.4,2.4,0,0,1,78.6,11.99c1.986.9,2.049,3.14,2.115,5.059H90.58a15.523,15.523,0,0,0-2.626-9.667c-1.857-2.819-4.867-4.228-7.811-5.06-5.189-.769-10.5.126-14.151,3.969-2.944,3.2-2.881,8.388-1.857,12.486,1.664,6.983,9.476,7.43,14.151,11.528a4.754,4.754,0,0,1,.576,4.864A2.322,2.322,0,0,1,76.3,36.26c-2.689-.961-2.113-4.035-2.175-6.468H63.492c-.51,5.637.322,10.822,4.613,14.343,4.612,3.4,12.451,3.549,17.224.577C89.852,41.893,90.905,35.544,90.388,29.984Z" transform="translate(-1.567 -1.954)"/>
    <path class="cls-1" d="M58.883,7.06c-4.161-5.378-11.591-5.826-17.8-4.29-4.228,1.025-8,5.29-8,9.542V35.491a11.61,11.61,0,0,0,2.3,6.787c4.228,5.123,11.962,5.14,17.868,3.65,3.99-1.007,7.465-5.672,7.493-9.861l0-23.63A9.255,9.255,0,0,0,58.883,7.06ZM47.155,36.047c-1.688.042-2.542-.748-2.574-2.22L44.6,14.69a2.19,2.19,0,0,1,2.3-2.259,2.408,2.408,0,0,1,2.633,2.346c0,.029,0,19.2,0,19.2C49.575,35.222,48.757,36.058,47.155,36.047Z" transform="translate(-1.567 -1.954)"/>
    <path class="cls-1" d="M100.7,3.217,90.133,45.673h9.986l1.668-6.339h11.077l1.535,6.339,10.039-.007L113.951,3.217Zm3.4,27.089,3.2-13.833,3.265,13.833Z" transform="translate(-1.567 -1.954)"/>
    <path class="cls-1" d="M139.987,11.99c1.986.9,2.049,3.14,2.116,5.059h9.86a15.528,15.528,0,0,0-2.625-9.667c-1.857-2.819-4.868-4.228-7.812-5.06-5.189-.769-10.5.126-14.151,3.969-2.944,3.2-2.88,8.388-1.857,12.486,1.665,6.983,9.476,7.43,14.151,11.528a4.743,4.743,0,0,1,.573,4.864,2.314,2.314,0,0,1-2.559,1.09c-2.689-.961-2.112-4.035-2.175-6.468H124.875c-.51,5.637.322,10.822,4.613,14.343,4.608,3.4,12.451,3.549,17.224.577,4.525-2.819,5.577-9.168,5.059-14.728-.884-9.483-10.759-7.234-14.6-13.7a3.266,3.266,0,0,1-.126-3.074A2.394,2.394,0,0,1,139.987,11.99Z" transform="translate(-1.567 -1.954)"/>
  </g>
</svg>
