<svg id="Capa_1" data-name="Capa 1" xmlns="http://www.w3.org/2000/svg" viewBox="0 0 241.156 40.683">
  <defs>
    <style>
      .cls-1 {
        fill: #fff;
      }

      .cls-2 {
        fill: #aa1b48;
      }
    </style>
  </defs>
  <title>LogoHaS</title>
  <path class="cls-1" d="M19.558,40.38H16.173V17.08H3.384v23.3H0V4.114H3.384V13.57H16.173V4.114h3.385Z"/>
  <path class="cls-1" d="M47.261,40.38a13.408,13.408,0,0,1-2.068-5.07,15.706,15.706,0,0,1-1.669,1.755,16.57,16.57,0,0,1-1.857,1.463,14.014,14.014,0,0,1-3.2,1.365,12.171,12.171,0,0,1-3.385.488,13,13,0,0,1-4.983-.926A12.49,12.49,0,0,1,25.87,36.48a13.5,13.5,0,0,1-3.761-9.506A13.18,13.18,0,0,1,25.87,17.47a12.606,12.606,0,0,1,9.215-3.9,12.151,12.151,0,0,1,9.074,3.9h-.047a13.117,13.117,0,0,1,3.855,9.505q0,8.239,3.009,13.405ZM44.629,26.975A9.694,9.694,0,0,0,41.808,20a9.221,9.221,0,0,0-6.723-2.924A8.88,8.88,0,0,0,28.314,20a9.59,9.59,0,0,0-2.821,6.97,9.754,9.754,0,0,0,2.821,7.02,9.3,9.3,0,0,0,13.493-.049A9.693,9.693,0,0,0,44.629,26.975Z"/>
  <path class="cls-1" d="M66.145,17.811a5.835,5.835,0,0,0-3.291-1.267,4.435,4.435,0,0,0-3.291,1.463A4.679,4.679,0,0,0,58.2,21.369V40.38H54.814V21.369a8.462,8.462,0,0,1,2.351-5.849,7.615,7.615,0,0,1,5.689-2.437,8.883,8.883,0,0,1,5.078,1.852Z"/>
  <path class="cls-1" d="M92.653,26.975a13.2,13.2,0,0,1-3.808,9.506,12.617,12.617,0,0,1-18.242,0,13.508,13.508,0,0,1-3.761-9.506A13.1,13.1,0,0,1,70.65,17.47H70.6a12.256,12.256,0,0,1,9.168-3.9,11.852,11.852,0,0,1,9.544,4.387V4.114h3.338Zm-3.338,0A9.587,9.587,0,0,0,86.494,20a8.923,8.923,0,0,0-6.723-2.924A9.17,9.17,0,0,0,73,20a9.673,9.673,0,0,0-2.774,6.97,9.752,9.752,0,0,0,2.821,7.02,9.3,9.3,0,0,0,13.446,0A9.752,9.752,0,0,0,89.315,26.975Z"/>
  <path class="cls-1" d="M188.211,27.636q0,.354-.025.733c-.016.253-.041.5-.073.733a11.25,11.25,0,0,1-.293,1.846q-.2.733-.292.733a12.315,12.315,0,0,1-3.415,5.36,13.873,13.873,0,0,1-9.511,3.591q-5.512,0-10.1-4.6l2.488-2.579q3.608,3.591,7.608,3.59a10.39,10.39,0,0,0,7.122-2.629,8.664,8.664,0,0,0,3.024-6.776,10.352,10.352,0,0,0-.975-4.678A9.481,9.481,0,0,0,180.9,19.6q-.732-.353-1.463-.733a15.532,15.532,0,0,0-1.513-.683l-2.975-1.517q-.488-.253-1-.48t-.9-.43q-4.682-2.325-4.683-6.524a6.454,6.454,0,0,1,1.951-4.7A6.017,6.017,0,0,1,174.846,2.5a6.79,6.79,0,0,1,5.415,2.984l-2.634,2.377a3.924,3.924,0,0,0-2.781-1.77,2.948,2.948,0,0,0-2.194.961,3,3,0,0,0-.781,2.174,2.633,2.633,0,0,0,.976,1.846,9.773,9.773,0,0,0,2.78,1.745q2.974,1.316,5.1,2.453a23.263,23.263,0,0,1,2.9,1.745Q188.21,20.809,188.211,27.636Z"/>
  <path class="cls-1" d="M216.951,26.473A13.7,13.7,0,0,1,213,36.334a12.657,12.657,0,0,1-9.463,4.046,13.3,13.3,0,0,1-5.146-.961,13.04,13.04,0,0,1-4.366-3.085,13.8,13.8,0,0,1-3.951-9.861,13.586,13.586,0,0,1,3.951-9.861,13.147,13.147,0,0,1,18.974,0h-.049A13.609,13.609,0,0,1,216.951,26.473Zm-3.512,0a10.037,10.037,0,0,0-2.878-7.231,9.622,9.622,0,0,0-7.024-3.034,9.413,9.413,0,0,0-7.024,3.034,9.947,9.947,0,0,0-2.926,7.231,10.119,10.119,0,0,0,2.926,7.282,9.76,9.76,0,0,0,14.047,0A10.441,10.441,0,0,0,213.439,26.473Z"/>
  <path class="cls-1" d="M229.783,4.728a16.605,16.605,0,0,0-4.292,5.411h.049a15.539,15.539,0,0,0-1.415,5.967v.505h3.8v3.641h-3.8V40.38h-3.511V16.106a17.019,17.019,0,0,1,.414-3.692,19.492,19.492,0,0,1,1.341-3.894v.051A17.541,17.541,0,0,1,227.588,1.9Z"/>
  <path class="cls-1" d="M241.156,40.683a8.977,8.977,0,0,1-6.78-2.579,8.47,8.47,0,0,1-2.39-6.118V7.155H235.5v5.411h5.17v3.641H235.5V31.985a5.036,5.036,0,0,0,1.415,3.641v-.05a5.636,5.636,0,0,0,4.243,1.466Z"/>
  <g>
    <path class="cls-2" d="M125.911,19.172c-2.291-3.106-5.169-6.273-5.169-10.475,0-.291.015-.575.039-.854a19.058,19.058,0,0,0-4.039,6.6c-1.88.076-5.246-1.416-6.854-.793-2.844,1.1-4.863,6.292-5.3,10.993a7.717,7.717,0,0,0-.816-.046,8,8,0,0,0-.031,15.994v0h14.994a11.958,11.958,0,0,1-3.1-8.513C115.632,25.87,121.212,21.79,125.911,19.172Z"/>
    <path class="cls-2" d="M127.908,21.668c-3.994,2.253-8.576,5.542-8.576,10.779a8.507,8.507,0,0,0,6.213,8.147h5.723a14,14,0,0,0,7.095-5.772Z"/>
    <path class="cls-2" d="M135.6,8.7a5.58,5.58,0,1,0-11.16,0c0,3.045,2.878,6.455,4.7,8.77C132.079,15.578,135.6,12.9,135.6,8.7Z"/>
    <path class="cls-2" d="M137.877,40.595h5.07l-2.293-2.91A19.023,19.023,0,0,1,137.877,40.595Z"/>
    <path class="cls-2" d="M162.809,27.259l-.934-1.151c-.107-.132-.057-.446.024-.875.016-.085.033-.17.047-.255a3.533,3.533,0,0,0-.664-3.211l-3.2-3.94a4.014,4.014,0,0,0-3.24-1.53l-.214,0c-.478.009-.72,0-.8-.106L141.541,1.052A4.354,4.354,0,0,0,137.887.08c-2.115.494-1.574,1.949-1,2.511A8.539,8.539,0,0,1,139.3,8.7c0,5.42-4.053,8.526-8.223,11.266l9.163,11.449c1-2.131,1.233-4.019,1.233-7.308h3.7a23.962,23.962,0,0,1-2.467,10.414l4.85,6.076h2.78l12.727-9.937C163.915,30,163.8,28.48,162.809,27.259Zm-1.178,1.628-10.2,7.859c-.538.415-.34.078-.34.078l6.872-8.907a2.008,2.008,0,0,0-.358-2.26L138.927,2.635c-.166-.2.1-.367.1-.367l.615-.474c.167-.128.472-.034.667.206L152.6,17.142a3.039,3.039,0,0,0,2.747,1.166l.2,0c.927-.007,1.218.352,1.314.47l3.041,3.747a1.7,1.7,0,0,1,.182,1.442c-.013.076-.028.153-.042.229a3.129,3.129,0,0,0,.609,2.863l.934,1.151C161.773,28.448,161.8,28.759,161.631,28.887Z"/>
  </g>
</svg>
