<svg id="Capa_1" data-name="Capa 1" xmlns="http://www.w3.org/2000/svg" viewBox="0 0 206.769 90.084">
  <defs>
    <style>
      .cls-1 {
        fill: #fff;
      }
    </style>
  </defs>
  <title>LogoFundacion</title>
  <g>
    <path class="cls-1" d="M206.769,55.69c0-.831-52.091-1.46-103.383-1.46S0,54.859,0,55.69c0,.71,52.091,1.342,103.386,1.342S206.769,56.4,206.769,55.69"/>
    <path class="cls-1" d="M20.5,17.326l.29-.211a7.71,7.71,0,0,1-.626-2.93c.21-6.777,7.278-10.542,18.363-10.542h5.981C41,5.613,38.115,8.456,35.728,13.684c-.921,2.18-5.6,14.225-7.447,19.627-2.38,6.482-3.976,9.4-5.814,10.455l.292.629c5.312.33,8.413-2.379,10.458-7.4,2.011-4.811,4.477-12.344,5.733-15.775,4.141-10.8,5.9-15.395,9.124-17.574,4.557-.126,8.914-.126,8.914-.126,4.845-.084,6.812-1.334,8.363-3.1l-.3-.42c-1.255.63-3.847.841-6.1.841H37.07c-12.346,0-19.874,3.937-21.129,10A5.187,5.187,0,0,0,20.5,17.326"/>
    <path class="cls-1" d="M74.974,17.115c2.6-2.8,6.653-5.232,9.96-5.1,2.38,0,3.517.922,3.517,2.8-.09,2.011-1.216,3.971-2.971,5.862a34.8,34.8,0,0,1-10.294,7.1,12.576,12.576,0,0,0-.506,3.441c0,1.8.715,2.712,2.6,2.712,3.222,0,7.784-2.8,12.22-8.743,1.46-4.091,3.011-8.073,3.722-9.954a10.029,10.029,0,0,0-3.1.42l-.21-.5a8.04,8.04,0,0,1,4.272-2.22C99.534,1.888,107.109.506,113.339.506c4.853,0,7.864,1.465,7.864,3.976,0,1.672-2.092,4.057-5.062,5.437l-.42-.329a4.957,4.957,0,0,0,1.636-4.4c-.211-1.966-2.467-3.222-5.772-3.1-5.528.211-9.25,4.353-11.84,10.756h10.079c1.137-.13,3.393-.13,4.442-.34l-.632,1.591a5.6,5.6,0,0,0-1.045.29c-4.566,1.47-9.2,11.084-9.2,16.826,0,1.672.42,2.842,1.966,2.842,3.721,0,9.329-9.832,8.994-18.077,0-.54.544-.75,2-.96,2.263-.5,4.438-1.051,6.527-1.672,1.427-.29,2.887-.71,4.02-.839,1.551,0,2.3.55,2.3,1.88,0,1.38-1.049,4.312-2.391,7.533,3.521-5.443,7.544-9.494,11.675-9.494,2.3.081,3.222,1.251,3.35,2.511.211,2.722-2.59,7.614-4.141,10.955-1.05,2.222-3.552,7.743-3.552,10.884a6.938,6.938,0,0,0,.411,2.512l-.5.29a5.54,5.54,0,0,1-4.564-5.654c-.078-4.682,6.024-14.306,6.323-16.816.211-.632,0-1.051-.629-1.051-1.971,0-6.613,6.073-8.7,9.755-1.752,3.089-3.094,6.15-5.274,10.754h-5.062c0-.211,4.561-11.1,7.242-18.489.416-1.26.71-2.851-.715-2.64-.755.12-2.17.419-3.766.62a25.193,25.193,0,0,1-2.177,7.963c-2.044,5.093-7.441,12.836-13.969,12.836-3.307,0-4.983-1.762-5.193-4.474-.5-5.941,4.272-15.063,9.963-17.576a58.146,58.146,0,0,1-8.788.42c-1.675,4.312-3.847,10.585-6.444,17.787s-4.851,11.585-11.173,11.3l-.21-.42c2.18-1.681,3.182-4.523,4.567-7.954.5-1.17,1.21-3.341,2.176-5.853-3.773,3.972-8,6.693-12.765,6.774-4.348.209-6.108-2.591-6.108-5.853.085-4.77,2.807-10.122,6.192-13.9M75.6,25.9c4.977-3.011,8.909-7.113,8.909-10.243,0-.711-.292-1.261-1-1.261-3.137,0-6.654,6.494-7.9,11.5"/>
    <path class="cls-1" d="M61.629,22.978c3.1-7.114,5.478-12.433,7.864-17.574a2.371,2.371,0,0,1,1.551-1.256l4.9-.92c-2.1,5.442-6.738,14.858-9.958,23.013C64.3,30.509,63.09,33.853,62.97,36.782a7.536,7.536,0,0,0,.2,2.591l-.624.211A5.73,5.73,0,0,1,58.2,33.641a10.2,10.2,0,0,1,.545-3.051c-2.385,2.631-6.942,6.192-11.51,6.273-4.345.209-5.891-2.512-5.891-5.853.08-4.77,2.756-10.122,6.182-13.9,2.6-2.8,6.658-5.232,10.05-5.1,2.295,0,3.431.922,3.431,2.8-.09,2.011-1.256,3.971-3.018,5.862a34.561,34.561,0,0,1-10.253,7.1,16.952,16.952,0,0,0-.5,3.441c0,1.883.71,2.712,2.261,2.712,3.723,0,7.99-4.051,11.091-8.653a16.317,16.317,0,0,0,1.045-2.3M48.154,25.9c4.982-3.011,8.914-7.113,8.914-10.243,0-.711-.29-1.261-1.046-1.261-3.1,0-6.612,6.494-7.868,11.5"/>
    <path class="cls-1" d="M154.128,8.749a3.607,3.607,0,0,0,3.141-2.931,2.166,2.166,0,0,0-1.959-2.8,3.593,3.593,0,0,0-3.222,2.93,2.151,2.151,0,0,0,2.039,2.8"/>
    <path class="cls-1" d="M141.412,27.7c1.422-3.682,3.8-8.574,5.772-12.756a2.316,2.316,0,0,1,1.591-1.381c.631-.21,5.274-.92,5.274-.92-3.011,6.353-5.483,11.714-7.233,15.976a16.6,16.6,0,0,0-1.052,3.982,1.109,1.109,0,0,0,1.261,1.121c1.33,0,3.3-1.46,5.062-3.552a24.728,24.728,0,0,1,6.192-12.924,14.358,14.358,0,0,1,10.084-5.023c2.251,0,4.851.42,4.851,2.721,0,1.962-2.469,3.842-5.072,4.812l-.539-.42a5.2,5.2,0,0,0,1.88-3.562c0-.959-.5-1.46-1.541-1.46-3.942.09-9.835,10.125-9.835,16.818,0,1.76.71,2.721,2.173,2.721,2.339,0,4.73-2.223,6.4-3.764.29-.339,1.049-1.17,1.681-1.968a37.041,37.041,0,0,1,2.382-4.934c4.64-8.243,10.953-10.964,17.4-10.673a7.843,7.843,0,0,1,4.442,1.17,149.689,149.689,0,0,0-6.4,16.277c-.539,1.8-1.76,7.233-.838,9.412l-.631.211a4.969,4.969,0,0,1-4.262-5.233c.131-1.04.42-2.721.622-3.64h-.081c-2.8,3.98-6.314,6.28-9.334,6.28-2.792,0-4.131-1.881-4.131-4.39v-.76c-2.391,2.721-6.022,5.022-9.624,5.15-3.643.2-5.312-1.588-5.813-4.1-2.3,2.3-5.193,4.1-7.992,4.1-2.683.081-4.143-1.249-4.143-3.559a17.135,17.135,0,0,1,1.46-5.733m31.8,4.482c0,1.04.62,1.46,1.672,1.13,3.092-.71,6.311-5.822,8.572-10.964,1.342-3.222,3.141-6.9,3.512-7.614a5.592,5.592,0,0,0-3.711.5c-4.982,2.3-9.923,12.465-10.044,16.947"/>
    <polygon class="cls-1" points="29.621 89.664 27.235 89.664 27.235 71.046 37.569 71.046 37.4 72.927 29.621 72.927 29.621 79.33 35.814 79.33 35.814 81.211 29.621 81.211 29.621 89.664"/>
    <path class="cls-1" d="M44.933,82.842c0,2.009.335,3.139,1.175,3.98a4.274,4.274,0,0,0,3.3,1.171,3.976,3.976,0,0,0,3.1-1.171,5.342,5.342,0,0,0,1.255-3.98v-11.8h2.176V82.97c0,2.512-.626,4.272-1.756,5.433a7.124,7.124,0,0,1-4.9,1.681,7.047,7.047,0,0,1-4.853-1.591c-1.334-1.13-1.964-2.93-1.964-5.523V71.046h2.466v11.8"/>
    <polygon class="cls-1" points="62.465 71.046 64.101 71.046 74.178 85.482 74.178 71.046 76.355 71.046 76.355 89.664 74.47 89.664 64.515 75.439 64.515 89.664 62.465 89.664 62.465 71.046"/>
    <path class="cls-1" d="M82.882,89.664V71.046h4.647c3.432,0,5.6.75,7.024,2.3,1.38,1.472,2.009,3.683,2.009,6.9,0,3.431-.754,5.862-2.174,7.4-1.381,1.38-3.426,2.011-6.357,2.011H82.882m2.466-2.011H88.03c2.091,0,3.345-.411,4.264-1.33,1.257-1.18,1.757-3.272,1.757-6.074,0-2.51-.42-4.272-1.337-5.521-.919-1.171-2.51-1.8-5.276-1.8H85.348Z"/>
    <path class="cls-1" d="M111.164,84.723h-6.943l-1.55,4.941H100.29l5.9-18.618h2.681l6.437,18.618H112.8Zm-.627-1.961-3.011-9.2-2.805,9.2Z"/>
    <path class="cls-1" d="M131.25,89.453a17.617,17.617,0,0,1-4.022.631c-5.6,0-8.32-3.272-8.32-9.624,0-3.431.836-6.074,2.386-7.743a7.81,7.81,0,0,1,5.6-1.961,13.9,13.9,0,0,1,4.353.62l-.42,1.892a13.159,13.159,0,0,0-3.6-.551,5.789,5.789,0,0,0-4.179,1.46c-1.13,1.261-1.631,3.351-1.631,6.2,0,2.88.5,4.891,1.752,6.143.924,1.049,2.469,1.47,4.649,1.47a19.474,19.474,0,0,0,3.22-.34l.212,1.8"/>
    <rect class="cls-1" x="136.721" y="71.046" width="2.391" height="18.618"/>
    <path class="cls-1" d="M152.378,90.084c-5.483,0-7.373-4.312-7.373-9.7,0-5.442,1.89-9.624,7.373-9.624,5.523,0,7.363,4.181,7.363,9.624,0,5.392-1.84,9.7-7.363,9.7m0-17.236c-3.811,0-4.851,3.011-4.851,7.532,0,4.561,1.04,7.484,4.851,7.484,3.851,0,4.891-2.923,4.891-7.484,0-4.521-1.04-7.532-4.891-7.532m-2.97-5.022,4.72-4.184,1.261,1.672L150.2,69.075Z"/>
    <polygon class="cls-1" points="165.644 71.046 167.313 71.046 177.357 85.482 177.357 71.046 179.53 71.046 179.53 89.664 177.687 89.664 167.724 75.439 167.724 89.664 165.644 89.664 165.644 71.046"/>
  </g>
</svg>
