<svg id="Capa_1" data-name="Capa 1" xmlns="http://www.w3.org/2000/svg" viewBox="0 0 188.115 53.754">
  <defs>
    <style>
      .cls-1 {
        fill: #fff;
      }

      .cls-2 {
        fill: #60bed4;
      }

      .cls-3, .cls-4, .cls-5 {
        fill: none;
        stroke-miterlimit: 10;
        stroke-width: 0.451px;
      }

      .cls-3 {
        stroke: #00577b;
      }

      .cls-4 {
        stroke: #60bed4;
      }

      .cls-5 {
        stroke: #b7bc00;
      }

      .cls-6 {
        fill: #b7bc00;
      }

      .cls-7 {
        fill: #00577b;
      }
    </style>
  </defs>
  <title>LogoConcy</title>
  <g>
    <path class="cls-1" d="M60.626,32.623H53.194a5.353,5.353,0,0,1-3.882-1.553A5.014,5.014,0,0,1,47.871,27.3a5.477,5.477,0,0,1,1.442-3.771,5.353,5.353,0,0,1,3.882-1.553h7.431c1,0,1.442-.665,1.442-1.775,0-1.22-.555-1.775-1.553-1.775H53.084a8.55,8.55,0,0,0-8.873,8.984h0a9.062,9.062,0,0,0,2.44,6.433,8.688,8.688,0,0,0,6.433,2.551h7.431c1,0,1.553-.555,1.553-1.775,0-1.442-.444-2.107-1.442-2" transform="translate(-2.943 -0.894)"/>
    <path class="cls-1" d="M117.967,32.623h-7.431a5.353,5.353,0,0,1-3.882-1.553,5.014,5.014,0,0,1-1.442-3.771,5.477,5.477,0,0,1,1.442-3.771,5.353,5.353,0,0,1,3.882-1.553h7.431c1,0,1.442-.665,1.442-1.775,0-1.22-.555-1.775-1.553-1.775h-7.431a8.55,8.55,0,0,0-8.873,8.984h0a9.062,9.062,0,0,0,2.44,6.433,8.688,8.688,0,0,0,6.433,2.551h7.431c1,0,1.553-.555,1.553-1.775,0-1.442-.444-2.107-1.442-2" transform="translate(-2.943 -0.894)"/>
    <path class="cls-2" d="M189.616,32.623h-7.431A5.353,5.353,0,0,1,178.3,31.07a5.014,5.014,0,0,1-1.442-3.771,5.477,5.477,0,0,1,1.442-3.771,5.353,5.353,0,0,1,3.882-1.553h7.431c1,0,1.442-.665,1.442-1.775,0-1.22-.555-1.775-1.553-1.775h-7.431A8.55,8.55,0,0,0,173.2,27.41h0a9.062,9.062,0,0,0,2.44,6.433,8.688,8.688,0,0,0,6.433,2.551H189.5c1,0,1.553-.555,1.553-1.775,0-1.442-.444-2.107-1.442-2" transform="translate(-2.943 -0.894)"/>
    <path class="cls-1" d="M71.828,17.983a8.752,8.752,0,0,1,9.206,9.206,9.21,9.21,0,1,1-18.411,0,9.029,9.029,0,0,1,2.551-6.655,8.615,8.615,0,0,1,6.655-2.551m0,3.66a5.319,5.319,0,0,0-5.546,5.546,4.981,4.981,0,0,0,2.884,4.88,5.906,5.906,0,0,0,2.662.665A5.27,5.27,0,0,0,76.6,30.183a5.494,5.494,0,0,0,.776-2.995,5.189,5.189,0,0,0-1.664-4.1,5.633,5.633,0,0,0-3.882-1.442" transform="translate(-2.943 -0.894)"/>
    <path class="cls-2" d="M164.55,28.963h-5.767v2.218c0,.887.333,1.331,1,1.22h11.646c1,0,1.553.665,1.553,1.775,0,1.22-.555,1.775-1.664,1.775H157.008c-1.331,0-1.885-.665-1.885-2.107V20.423c0-1.331.665-2.107,1.885-2.107h14.418c1,0,1.553.555,1.553,1.775s-.555,1.775-1.553,1.775H159.67c-.665,0-1,.444-1,1.22v2.329h5.878a1.583,1.583,0,0,1,1.775,1.775c.111,1.22-.555,1.775-1.775,1.775" transform="translate(-2.943 -0.894)"/>
    <path class="cls-1" d="M95.784,34.4,91.9,30.516l-2-2.107-2.884-3.327c-.665-.555-1.109-.222-1.109.555v3.882h0v4.658a1.583,1.583,0,0,1-1.775,1.775c-1.22,0-1.775-.444-1.775-1.775V19.424a1.291,1.291,0,0,1,1.22-1.442h.887a2.33,2.33,0,0,1,1.553.776l6.322,6.877,3.106,3.216c.665.555,1.22.222,1.22-.555v-8.54c-.111-1.22.555-1.775,1.775-1.775s1.775.333,1.775,1.775V34.4c0,1.109-.444,1.553-1.664,1.553h-.444a1.952,1.952,0,0,1-1.442-.665Z" transform="translate(-2.943 -0.894)"/>
    <path class="cls-1" d="M131.276,25.968l4.658-6.433a4.026,4.026,0,0,0,.333-.776c0-.111-.111-.333-.887-.333h-1.553a2,2,0,0,0-1.775,1l-3.216,4.215v.111a1.531,1.531,0,0,1-.444.333h0c-.222,0-.333-.222-.444-.333l-.111-.111-3.106-4.1a2,2,0,0,0-1.775-1h-1.775c-.776,0-.887.222-.887.333a1.474,1.474,0,0,0,.333.776l4.769,6.433a11.785,11.785,0,0,1,1,1.22l.111.111v6.877a1.221,1.221,0,0,0,1.442,1.442h.776a1.992,1.992,0,0,0,1.22-.333,1.472,1.472,0,0,0,.333-1.109V27.3l.111-.111a6.585,6.585,0,0,1,.887-1.22" transform="translate(-2.943 -0.894)"/>
    <path class="cls-2" d="M153.791,19.979c0-1.22-.555-1.775-1.553-1.775H138.929c-1,0-1.553.555-1.553,1.775h0v.333h0v.555c0,.111.111.111.111.222h0a1.136,1.136,0,0,0,.665.555,2.462,2.462,0,0,0,1,.111h3.66c.776,0,.887.555.887,1.331V34.4a1.54,1.54,0,0,0,1.775,1.775c1.22,0,1.885-.555,1.775-1.664V23.2c0-.776.111-1.331.887-1.331h3.66a3.071,3.071,0,0,0,1-.111c.333-.111.555-.222.665-.555h0c0-.111.111-.111.111-.222v-.222a.407.407,0,0,1,.111-.333h0c.111-.111.111-.222.111-.444h0" transform="translate(-2.943 -0.894)"/>
    <polyline class="cls-3" points="19.505 30.421 34.042 20.153 38.617 38.96 24.283 51.77"/>
    <polyline class="cls-4" points="34.042 20.153 43.801 8.666 26.214 5.311"/>
    <polygon class="cls-5" points="26.214 5.311 3.036 20.153 34.042 20.153 26.214 5.311"/>
    <polygon class="cls-4" points="24.283 51.77 10.05 40.485 3.036 20.153 19.403 30.421 24.283 51.77"/>
    <path class="cls-6" d="M34.138,8.238A5.141,5.141,0,1,1,31.6,1.326a5.167,5.167,0,0,1,2.541,6.913" transform="translate(-2.943 -0.894)"/>
    <path class="cls-6" d="M3.132,20.234A3.279,3.279,0,1,1,5.165,24.4a3.252,3.252,0,0,1-2.033-4.168" transform="translate(-2.943 -0.894)"/>
    <path class="cls-2" d="M27.53,33.653A5.648,5.648,0,0,1,20.007,36.4a5.565,5.565,0,0,1-2.745-7.421,5.648,5.648,0,0,1,7.523-2.745,5.5,5.5,0,0,1,2.745,7.421" transform="translate(-2.943 -0.894)"/>
    <path class="cls-2" d="M48.98,10.882a3.366,3.366,0,1,1-6.1-2.846,3.271,3.271,0,0,1,4.371-1.627,3.43,3.43,0,0,1,1.728,4.473" transform="translate(-2.943 -0.894)"/>
    <path class="cls-7" d="M39.323,22.369A2.844,2.844,0,1,1,37.9,18.608a2.739,2.739,0,0,1,1.423,3.761" transform="translate(-2.943 -0.894)"/>
    <path class="cls-7" d="M15.229,42.5a2.457,2.457,0,1,1-1.22-3.253,2.387,2.387,0,0,1,1.22,3.253" transform="translate(-2.943 -0.894)"/>
    <path class="cls-7" d="M44.914,41.888A4.072,4.072,0,1,1,42.881,36.5a4.012,4.012,0,0,1,2.033,5.388" transform="translate(-2.943 -0.894)"/>
    <path class="cls-6" d="M29.462,53.172a2.592,2.592,0,1,1-1.22-3.456,2.65,2.65,0,0,1,1.22,3.456" transform="translate(-2.943 -0.894)"/>
  </g>
</svg>
