<svg id="Capa_1" data-name="Capa 1" xmlns="http://www.w3.org/2000/svg" viewBox="0 0 212.315 46.08">
  <defs>
    <style>
      .cls-1 {
        fill: #fff;
      }

      .cls-2 {
        fill: #c5c6c8;
      }

      .cls-3 {
        fill: #e1001a;
      }
    </style>
  </defs>
  <title>LogoJockeySalud</title>
  <g>
    <g>
      <g>
        <path class="cls-1" d="M143.915,31.072c.2,2.938,2.62,4.638,5.78,4.638,2.276,0,5.548-.611,5.548-3.362,0-2.7-3-3.093-5.989-3.653-3.033-.56-6.032-1.264-6.032-4.514,0-3.162,3.378-4.083,6.338-4.083,3.708,0,6.469,1.458,6.469,5.071h-1.306c-.021-2.875-2.237-4.057-5.163-4.057-2.387,0-5.043.805-5.043,3.069,0,2.531,3,2.936,5.826,3.5,3.466.585,6.191,1.331,6.191,4.672,0,3.427-3.777,4.388-6.84,4.388-3.983,0-6.977-1.952-7.088-5.664Z" transform="translate(-2.666 -1.157)"/>
        <path class="cls-1" d="M149.7,36.848c-4.334,0-7.093-2.212-7.2-5.773l0-.116h1.528l.007.1c.193,2.754,2.418,4.534,5.668,4.534,1.277,0,5.437-.235,5.437-3.249,0-2.455-2.627-2.939-5.407-3.452l-.491-.091c-3.352-.619-6.125-1.394-6.125-4.625,0-3.892,4.936-4.2,6.451-4.2,4.245,0,6.583,1.841,6.583,5.185v.113h-1.532V25.17c-.025-3.432-3.175-3.945-5.051-3.945-2.384,0-4.93.777-4.93,2.956,0,2.272,2.512,2.76,5.172,3.275l.56.109c3.437.58,6.286,1.34,6.286,4.783C156.65,36.523,151.328,36.848,149.7,36.848Zm-6.971-5.663c.161,3.357,2.819,5.438,6.971,5.438,1.578,0,6.728-.308,6.728-4.275,0-3.273-2.645-3.979-6.1-4.561l-.563-.11c-2.63-.511-5.356-1.04-5.356-3.5,0-2.345,2.664-3.182,5.155-3.182,3.287,0,5.2,1.476,5.275,4.057h1.08c-.069-4.213-4-4.845-6.356-4.845-1.461,0-6.225.286-6.225,3.97,0,3.057,2.69,3.8,5.939,4.4l.491.091c2.877.531,5.593,1.032,5.593,3.675,0,3.225-4.333,3.475-5.663,3.475-3.337,0-5.636-1.817-5.886-4.638Z" transform="translate(-2.666 -1.157)"/>
      </g>
      <g>
        <path class="cls-1" d="M172.558,33.428c0,.926,0,1.916,1.161,1.916a6.6,6.6,0,0,0,.954-.092v.981a5.59,5.59,0,0,1-1.06.13c-2.039,0-2.349-1.019-2.349-2.317v-.842H171.2c-.81,1.893-3.164,3.531-6.505,3.531-3.3,0-5.844-1.146-5.844-4.49,0-3.7,3.538-4.478,6.43-4.694,5.793-.369,6.022-.714,6.022-3.309,0-.711-.886-3.131-4.868-3.131-3.129,0-5.211,1.493-5.376,4.246h-1.292c.173-3.5,2.548-5.261,6.668-5.261,3.063,0,6.121.87,6.121,4.146Zm-1.293-6.093c-1.015,1.058-3.807.926-6.328,1.234-3.059.315-4.791,1.305-4.791,3.676,0,1.923,1.526,3.464,4.591,3.464,5.89,0,6.529-4.568,6.529-5.407Z" transform="translate(-2.666 -1.157)"/>
        <path class="cls-1" d="M164.7,36.848c-3.9,0-5.956-1.592-5.956-4.6,0-3.871,3.728-4.6,6.532-4.807,5.918-.376,5.918-.752,5.918-3.2,0-.638-.808-3.018-4.755-3.018-3.186,0-5.106,1.509-5.264,4.14l-.005.106h-1.52l.005-.119c.176-3.511,2.52-5.368,6.783-5.368,2.843,0,6.234.739,6.234,4.259v9.185c0,.927,0,1.8,1.049,1.8a6.55,6.55,0,0,0,.938-.09l.129-.019v1.205l-.091.018a5.8,5.8,0,0,1-1.081.132c-2.161,0-2.462-1.168-2.462-2.43v-.477C170.318,35.148,168.2,36.848,164.7,36.848ZM166.437,21c4.137,0,4.981,2.56,4.981,3.245,0,2.69-.342,3.053-6.128,3.422-2.714.2-6.324.9-6.324,4.581,0,2.9,1.927,4.377,5.732,4.377,3.633,0,5.717-1.865,6.4-3.462l.031-.069h.252v.955c0,1.361.373,2.2,2.235,2.2a5.063,5.063,0,0,0,.945-.11v-.757a6.01,6.01,0,0,1-.84.073c-1.274,0-1.274-1.125-1.274-2.028V24.243c0-3.332-3.268-4.033-6.008-4.033-4.074,0-6.336,1.74-6.549,5.034h1.069C161.167,22.584,163.207,21,166.437,21Zm-1.7,14.824c-2.859,0-4.705-1.4-4.705-3.577,0-2.272,1.51-3.44,4.894-3.789.653-.079,1.326-.13,1.978-.18,1.831-.137,3.558-.268,4.28-1.021l.2-.2V30.3C171.38,31.838,170.186,35.823,164.737,35.823Zm6.416-8.236c-.856.662-2.5.786-4.232.916-.65.05-1.322.1-1.972.179-3.246.335-4.692,1.432-4.692,3.564,0,2.067,1.716,3.351,4.48,3.351,6.343,0,6.416-5.241,6.416-5.295Z" transform="translate(-2.666 -1.157)"/>
      </g>
      <g>
        <path class="cls-1" d="M178.277,14.283V36.364h-1.289V14.283Z" transform="translate(-2.666 -1.157)"/>
        <path class="cls-1" d="M178.39,36.477h-1.515V14.17h1.515Zm-1.289-.226h1.065V14.4H177.1Z" transform="translate(-2.666 -1.157)"/>
      </g>
      <g>
        <path class="cls-1" d="M196.248,36.364h-1.294v-3.4h-.063c-.886,2.384-3.539,3.775-6.27,3.775-6.149,0-6.218-4.49-6.218-6.434V20.463h1.285V30.512c0,1.643.209,5.2,4.976,5.2,3.915,0,6.291-2.749,6.291-6.637v-8.61h1.294Z" transform="translate(-2.666 -1.157)"/>
        <path class="cls-1" d="M188.62,36.848c-6.329,0-6.329-4.755-6.329-6.546V20.35h1.51V30.512c0,1.257,0,5.085,4.861,5.085,3.753,0,6.175-2.561,6.175-6.524V20.35h1.525V36.477h-1.525v-3.1A6.723,6.723,0,0,1,188.62,36.848Zm-6.1-16.273V30.3c0,1.891,0,6.32,6.1,6.32,2.863,0,5.341-1.489,6.164-3.7l.026-.074h.254v3.4h1.072V20.576h-1.072v8.5c0,4.1-2.511,6.75-6.4,6.75-5.088,0-5.088-4-5.088-5.311V20.576Z" transform="translate(-2.666 -1.157)"/>
      </g>
      <g>
        <path class="cls-1" d="M213.565,32.961H213.5a7.088,7.088,0,0,1-6.7,3.775c-5.282,0-7.555-3.9-7.555-8.283,0-4.713,2.508-8.356,7.794-8.356,2.854,0,5.551,1.415,6.464,3.919h.061V14.283h1.3V36.364h-1.3Zm-.026-4.507c0-3.719-2.009-7.342-6.5-7.342-4.631,0-6.5,3.506-6.5,7.342,0,3.731,2.043,7.256,6.529,7.256C211.5,35.71,213.539,32.09,213.539,28.453Z" transform="translate(-2.666 -1.157)"/>
        <path class="cls-1" d="M206.8,36.848c-5.655,0-7.669-4.336-7.669-8.395,0-5.223,3.03-8.469,7.908-8.469a6.812,6.812,0,0,1,6.412,3.607V14.17h1.528V36.477h-1.528v-3.2A7.206,7.206,0,0,1,206.8,36.848Zm.239-16.638c-4.811,0-7.682,3.083-7.682,8.243,0,3.949,1.955,8.169,7.443,8.169a7.014,7.014,0,0,0,6.605-3.718l.033-.057h.24v3.4h1.075V14.4h-1.075V24.13h-.253l-.029-.074C212.545,21.72,210.049,20.21,207.04,20.21Zm.026,15.612c-4.589,0-6.64-3.7-6.64-7.37,0-3.6,1.737-7.455,6.613-7.455,4.567,0,6.613,3.744,6.613,7.455C213.652,32.122,211.614,35.823,207.066,35.823Zm-.026-14.6c-4,0-6.389,2.7-6.389,7.229,0,3.295,1.679,7.144,6.415,7.144,4.392,0,6.36-3.588,6.36-7.144C213.426,25.119,211.753,21.225,207.04,21.225Z" transform="translate(-2.666 -1.157)"/>
      </g>
    </g>
    <g>
      <circle class="cls-1" cx="53.526" cy="13.973" r="2.771"/>
      <path class="cls-1" d="M56.191,18.016a2.886,2.886,0,1,1,2.885-2.887A2.887,2.887,0,0,1,56.191,18.016Zm0-5.546a2.66,2.66,0,1,0,2.66,2.659A2.66,2.66,0,0,0,56.191,12.471Z" transform="translate(-2.666 -1.157)"/>
    </g>
    <g>
      <path class="cls-1" d="M54.6,20.106h3.354V36.66c0,3.046-1.211,4.754-4.35,4.754a10.232,10.232,0,0,1-1.491-.113V38.642a10.5,10.5,0,0,0,1.145.115c1.232,0,1.342-.736,1.342-2.243Z" transform="translate(-2.666 -1.157)"/>
      <path class="cls-1" d="M53.605,41.527a10.152,10.152,0,0,1-1.474-.111L52,41.4V38.515l.427.053a6.694,6.694,0,0,0,.831.076c1.119,0,1.23-.616,1.23-2.13V19.993h3.579V36.66C58.067,39.98,56.65,41.527,53.605,41.527ZM52.228,41.2a9.5,9.5,0,0,0,1.377.1c2.89,0,4.236-1.475,4.236-4.64V20.219H54.715V36.514c0,1.466-.1,2.357-1.456,2.357a6.8,6.8,0,0,1-.86-.078l-.171-.021Z" transform="translate(-2.666 -1.157)"/>
    </g>
    <g>
      <path class="cls-1" d="M60.888,27.718c0-4.663,2.779-8.026,7.653-8.026s7.649,3.363,7.649,8.026c0,4.692-2.786,8.057-7.649,8.057S60.888,32.41,60.888,27.718Zm11.963,0c0-2.633-1.318-5.369-4.31-5.369s-4.313,2.736-4.313,5.369c0,2.655,1.315,5.4,4.313,5.4S72.851,30.373,72.851,27.718Z" transform="translate(-2.666 -1.157)"/>
      <path class="cls-1" d="M68.541,35.889c-4.717,0-7.766-3.207-7.766-8.171,0-4.945,3.048-8.139,7.766-8.139S76.3,22.773,76.3,27.718C76.3,32.682,73.257,35.889,68.541,35.889Zm0-16.084c-4.58,0-7.54,3.107-7.54,7.913,0,4.826,2.959,7.944,7.54,7.944s7.536-3.118,7.536-7.944C76.077,22.912,73.119,19.8,68.541,19.8Zm0,13.425c-3.058,0-4.426-2.769-4.426-5.512s1.368-5.482,4.426-5.482,4.422,2.753,4.422,5.482S71.595,33.23,68.541,33.23Zm0-10.767c-2.9,0-4.2,2.64-4.2,5.255,0,2.631,1.3,5.285,4.2,5.285s4.2-2.654,4.2-5.285C72.736,25.1,71.439,22.463,68.541,22.463Z" transform="translate(-2.666 -1.157)"/>
    </g>
    <g>
      <path class="cls-1" d="M89.223,25.205a3.217,3.217,0,0,0-3.467-2.856c-1.73,0-4.158.913-4.158,5.545,0,2.537,1.108,5.222,4.017,5.222,1.934,0,3.279-1.3,3.608-3.476h3.337c-.614,3.946-3.046,6.135-6.944,6.135-4.757,0-7.37-3.4-7.37-7.88,0-4.608,2.5-8.2,7.484-8.2,3.516,0,6.51,1.769,6.831,5.513Z" transform="translate(-2.666 -1.157)"/>
      <path class="cls-1" d="M85.615,35.889c-4.546,0-7.484-3.138-7.484-7.994,0-5.129,2.911-8.316,7.6-8.316,3.986,0,6.647,2.152,6.943,5.616l.011.123H89.125l-.013-.1a3.119,3.119,0,0,0-3.355-2.759c-1.51,0-4.046.706-4.046,5.432,0,2.357,1.023,5.108,3.906,5.108,1.87,0,3.177-1.263,3.5-3.379l.014-.1h3.566l-.02.13C92.045,33.676,89.541,35.889,85.615,35.889ZM85.729,19.8c-4.546,0-7.371,3.1-7.371,8.09,0,4.718,2.849,7.767,7.257,7.767,3.758,0,6.172-2.1,6.812-5.908H89.319c-.363,2.179-1.741,3.476-3.7,3.476-3.049,0-4.132-2.874-4.132-5.335,0-4.923,2.677-5.658,4.272-5.658a3.326,3.326,0,0,1,3.564,2.856h3.115C92.036,21.2,88.721,19.8,85.729,19.8Z" transform="translate(-2.666 -1.157)"/>
    </g>
    <g>
      <path class="cls-1" d="M95.379,14.283h3.339V26.274l6.047-6.168h4.108l-5.815,5.613,6.369,9.64h-4.078l-4.633-7.408-2,1.951v5.457H95.379Z" transform="translate(-2.666 -1.157)"/>
      <path class="cls-1" d="M109.638,35.472h-4.353l-.033-.053-4.558-7.288L98.83,29.95v5.522H95.266V14.17H98.83V26l5.888-6h4.435l-5.948,5.742Zm-4.227-.225h3.806l-6.3-9.543,5.68-5.484h-3.78l-6.208,6.331V14.4H95.493v20.85h3.113V29.855l2.131-2.083Z" transform="translate(-2.666 -1.157)"/>
    </g>
    <g>
      <path class="cls-1" d="M113.65,28.6c0,2.391,1.3,4.512,4.073,4.512a3.508,3.508,0,0,0,3.7-2.536h3.171a6.649,6.649,0,0,1-6.867,5.195c-4.745,0-7.412-3.333-7.412-8.025,0-4.344,2.806-8.058,7.329-8.058,4.78,0,7.716,4.337,7.157,8.912Zm7.8-2.208a3.9,3.9,0,1,0-7.8,0Z" transform="translate(-2.666 -1.157)"/>
      <path class="cls-1" d="M117.723,35.889c-4.572,0-7.526-3.194-7.526-8.139,0-4.735,3.13-8.171,7.443-8.171a7.009,7.009,0,0,1,5.327,2.365,8.475,8.475,0,0,1,1.942,6.673l-.013.1H113.765c.036,2,1.089,4.287,3.958,4.287a3.39,3.39,0,0,0,3.59-2.46l.024-.075h3.394l-.031.137A6.785,6.785,0,0,1,117.723,35.889ZM117.64,19.8c-4.738,0-7.217,4-7.217,7.945,0,4.881,2.8,7.912,7.3,7.912a6.575,6.575,0,0,0,6.726-4.968H121.5a3.622,3.622,0,0,1-3.776,2.536c-3.091,0-4.186-2.492-4.186-4.626v-.113h11.157a8.242,8.242,0,0,0-1.9-6.4A6.788,6.788,0,0,0,117.64,19.8Zm3.933,6.7h-8.04l0-.117a4.017,4.017,0,1,1,8.03,0Zm-7.8-.225h7.562a3.781,3.781,0,1,0-7.562,0Z" transform="translate(-2.666 -1.157)"/>
    </g>
    <g>
      <path class="cls-1" d="M125.677,20.106h3.666L133.3,31.492h.059l3.843-11.386h3.489L134.8,36.188c-1.086,2.748-1.879,5.225-5.371,5.225a14.575,14.575,0,0,1-2.317-.177V38.405a10.177,10.177,0,0,0,1.586.2c1.55,0,1.93-.821,2.346-2.12l.381-1.182Z" transform="translate(-2.666 -1.157)"/>
      <path class="cls-1" d="M129.43,41.527a14.684,14.684,0,0,1-2.334-.179l-.1-.015V38.274l.13.019.344.058a7.357,7.357,0,0,0,1.225.14c1.477,0,1.832-.771,2.238-2.04l.37-1.146-5.8-15.312h3.911l3.906,11.236,3.8-11.236h3.73l-6.1,16.634C133.72,39.256,132.83,41.527,129.43,41.527Zm-2.2-.387a14.547,14.547,0,0,0,2.2.161c3.244,0,4.108-2.2,5.109-4.755l.158-.4,5.833-15.927h-3.242l-3.846,11.386h-.221l-3.959-11.386H125.84L131.546,35.3l-.391,1.22c-.427,1.328-.827,2.2-2.455,2.2a7.535,7.535,0,0,1-1.263-.143l-.209-.035Z" transform="translate(-2.666 -1.157)"/>
    </g>
    <path class="cls-2" d="M25.71,47.237A23.04,23.04,0,1,1,48.752,24.2,23.067,23.067,0,0,1,25.71,47.237Z" transform="translate(-2.666 -1.157)"/>
    <path class="cls-1" d="M25.71,2.644A21.553,21.553,0,1,0,47.264,24.2,21.579,21.579,0,0,0,25.71,2.644Z" transform="translate(-2.666 -1.157)"/>
    <polygon class="cls-3" points="35.923 18.653 27.068 18.653 27.068 10.164 19.159 10.164 19.159 18.653 10.162 18.653 10.162 26.771 19.159 26.771 19.159 35.916 27.068 35.916 27.068 26.771 35.923 26.771 35.923 18.653"/>
  </g>
</svg>
