<svg id="Capa_1" data-name="Capa 1" xmlns="http://www.w3.org/2000/svg" viewBox="0 0 290.708 52.021">
  <defs>
    <style>
      .cls-1 {
        fill: #fff;
      }

      .cls-2 {
        fill: #e20613;
        fill-rule: evenodd;
      }
    </style>
  </defs>
  <title>LogoBN</title>
  <path class="cls-1" d="M73.823,9.408h3.033A7.132,7.132,0,0,1,81.729,10.9a5.132,5.132,0,0,1,1.688,4.068,4.657,4.657,0,0,1-2.856,4.324q4.277,1.564,4.276,5.869a5.445,5.445,0,0,1-2.072,4.426,8.224,8.224,0,0,1-5.389,1.7h-6.43L73.823,9.408Zm2.4,2.507-.814,6.249h1.481a3.931,3.931,0,0,0,2.719-.9,3.006,3.006,0,0,0,1.011-2.368q0-3.023-3.538-3.026a8.376,8.376,0,0,0-.859.048Zm-1.152,8.692-1.082,8.237h3.124a5.873,5.873,0,0,0,3.66-.989,3.347,3.347,0,0,0,1.274-2.817,4.036,4.036,0,0,0-1.466-3.148,5.14,5.14,0,0,0-3.5-1.283Z"/>
  <path class="cls-1" d="M98.749,16.88,96.838,31.286H94.26l.253-1.662-.061-.075a5.014,5.014,0,0,1-3.67,2.021A3.928,3.928,0,0,1,87.6,29.9a6.329,6.329,0,0,1-1.309-4.036A9.639,9.639,0,0,1,88.73,19.1a8.757,8.757,0,0,1,6.8-2.662,10.964,10.964,0,0,1,3.215.438ZM94.811,27.122,95.933,18.8c-.278-.021-.541-.032-.8-.032a5.506,5.506,0,0,0-4.62,2.042,7.275,7.275,0,0,0-1.587,4.565,4.912,4.912,0,0,0,.763,2.844,2.278,2.278,0,0,0,1.936,1.106,3.241,3.241,0,0,0,2.042-.978c.738-.652,1.122-1.064,1.142-1.229Z"/>
  <path class="cls-1" d="M104.86,16.88l-.339,2.534.061.064q2.176-2.822,4.514-2.817a2.844,2.844,0,0,1,2.462,1.229,5.351,5.351,0,0,1,.869,3.17,7.558,7.558,0,0,1-.086,1.144l-1.3,9.082H108.49l1.243-9.178a5.784,5.784,0,0,0,.076-.893,2.83,2.83,0,0,0-.445-1.721,1.344,1.344,0,0,0-1.112-.593,2.174,2.174,0,0,0-.864.2,4.641,4.641,0,0,0-1.031.625A13,13,0,0,0,105,21.012a4.029,4.029,0,0,0-.849,1.1l-1.243,9.178h-2.548l1.911-14.406Z"/>
  <path class="cls-1" d="M124.513,28.073l-.3,2.635a7.4,7.4,0,0,1-3.791,1.032,5.628,5.628,0,0,1-4.377-1.807,6.927,6.927,0,0,1-1.633-4.832,8.423,8.423,0,0,1,2.477-6.158,8.559,8.559,0,0,1,6.349-2.5,12.889,12.889,0,0,1,2.34.251l-.344,2.411a8.088,8.088,0,0,0-1.966-.235,5.954,5.954,0,0,0-4.453,1.818,5.891,5.891,0,0,0-1.769,4.244,4.771,4.771,0,0,0,1,3.2,3.416,3.416,0,0,0,2.73,1.165,6.846,6.846,0,0,0,3.736-1.224Z"/>
  <path class="cls-1" d="M132.97,16.442a4.5,4.5,0,0,1,3.68,1.711,7.045,7.045,0,0,1,1.385,4.565A10.651,10.651,0,0,1,136.17,29.2a5.535,5.535,0,0,1-4.595,2.539,4.548,4.548,0,0,1-3.761-1.705,7.445,7.445,0,0,1-1.36-4.747,10.315,10.315,0,0,1,1.88-6.313,5.6,5.6,0,0,1,4.635-2.534Zm0,2.143q-1.585,0-2.735,2.074a10.017,10.017,0,0,0-1.147,4.912,4.978,4.978,0,0,0,.692,2.753,1.994,1.994,0,0,0,1.709,1.064,3.265,3.265,0,0,0,2.76-1.94,9.444,9.444,0,0,0,1.148-4.886,5.485,5.485,0,0,0-.667-2.9,2,2,0,0,0-1.759-1.08Z"/>
  <path class="cls-1" d="M161.874,9.408l-2.917,21.879a11.94,11.94,0,0,1-3.478.454A7.48,7.48,0,0,1,150.167,30a6.432,6.432,0,0,1-1.855-4.934,8.777,8.777,0,0,1,2.411-5.88,8.261,8.261,0,0,1,6.546-2.747h1.082l.945-7.035Zm-5.212,20.013,1.39-10.712h-.667a6.131,6.131,0,0,0-4.655,1.86,6.207,6.207,0,0,0-1.769,4.437,4.483,4.483,0,0,0,1.168,3.314,4.556,4.556,0,0,0,3.351,1.165,8.1,8.1,0,0,0,1.183-.064Z"/>
  <path class="cls-1" d="M173.379,27.528l-.369,2.6a7.253,7.253,0,0,1-4.549,1.614,5.091,5.091,0,0,1-4.135-1.9,7.733,7.733,0,0,1-1.562-5.067,9.358,9.358,0,0,1,1.87-5.928,5.634,5.634,0,0,1,4.585-2.4,4.273,4.273,0,0,1,3.448,1.684,6.634,6.634,0,0,1,1.38,4.346,10.3,10.3,0,0,1-.091,1.347h-8.5a8.222,8.222,0,0,0-.121,1.374,4.547,4.547,0,0,0,1.031,3.143,3.329,3.329,0,0,0,2.583,1.149,7.694,7.694,0,0,0,4.428-1.956Zm-7.522-5.607h5.7a3.918,3.918,0,0,0-.647-2.373,2.126,2.126,0,0,0-1.815-.866q-2.222,0-3.24,3.239Z"/>
  <polygon class="cls-1" points="189.509 9.408 186.588 31.286 184.015 31.286 186.931 9.408 189.509 9.408 189.509 9.408"/>
  <path class="cls-1" d="M202.541,16.88,200.63,31.286h-2.578l.253-1.662-.061-.075a5.014,5.014,0,0,1-3.67,2.021,3.929,3.929,0,0,1-3.179-1.668,6.329,6.329,0,0,1-1.309-4.036,9.639,9.639,0,0,1,2.436-6.762,8.757,8.757,0,0,1,6.8-2.662,10.964,10.964,0,0,1,3.215.438ZM198.6,27.122l1.122-8.317c-.278-.021-.541-.032-.8-.032a5.506,5.506,0,0,0-4.62,2.042,7.275,7.275,0,0,0-1.587,4.565,4.912,4.912,0,0,0,.763,2.844,2.278,2.278,0,0,0,1.936,1.106,3.24,3.24,0,0,0,2.042-.978c.738-.652,1.122-1.064,1.142-1.229Z"/>
  <polygon class="cls-1" points="232.243 9.408 229.327 31.286 227.846 31.286 217.554 15.314 215.436 31.286 212.858 31.286 215.764 9.408 217.169 9.408 227.507 25.508 229.655 9.408 232.243 9.408 232.243 9.408"/>
  <path class="cls-1" d="M246.063,16.88l-1.911,14.406h-2.578l.253-1.662-.061-.075a5.014,5.014,0,0,1-3.67,2.021,3.928,3.928,0,0,1-3.179-1.668,6.329,6.329,0,0,1-1.309-4.036,9.639,9.639,0,0,1,2.436-6.762,8.757,8.757,0,0,1,6.8-2.662,10.964,10.964,0,0,1,3.215.438Zm-3.938,10.242,1.122-8.317c-.278-.021-.541-.032-.8-.032a5.506,5.506,0,0,0-4.62,2.042,7.275,7.275,0,0,0-1.587,4.565A4.912,4.912,0,0,0,237,28.223a2.279,2.279,0,0,0,1.936,1.106,3.241,3.241,0,0,0,2.042-.978c.738-.652,1.122-1.064,1.142-1.229Z"/>
  <path class="cls-1" d="M257.6,28.073l-.3,2.635a7.4,7.4,0,0,1-3.791,1.032,5.628,5.628,0,0,1-4.377-1.807A6.927,6.927,0,0,1,247.5,25.1a8.423,8.423,0,0,1,2.477-6.158,8.559,8.559,0,0,1,6.349-2.5,12.89,12.89,0,0,1,2.34.251l-.344,2.411a8.088,8.088,0,0,0-1.966-.235,5.954,5.954,0,0,0-4.453,1.818,5.892,5.892,0,0,0-1.769,4.244,4.771,4.771,0,0,0,1,3.2,3.416,3.416,0,0,0,2.73,1.165,6.846,6.846,0,0,0,3.736-1.224Z"/>
  <path class="cls-1" d="M261.329,12.369a1.575,1.575,0,0,1,.44-1.123,1.387,1.387,0,0,1,1.041-.46,1.406,1.406,0,0,1,1.046.46,1.592,1.592,0,0,1,.435,1.123,1.551,1.551,0,0,1-.435,1.1,1.392,1.392,0,0,1-1.046.465,1.373,1.373,0,0,1-1.041-.465,1.534,1.534,0,0,1-.44-1.1Zm2.295,4.511-1.911,14.406H259.14l1.911-14.406Z"/>
  <path class="cls-1" d="M271.757,16.442a4.5,4.5,0,0,1,3.68,1.711,7.045,7.045,0,0,1,1.385,4.565,10.651,10.651,0,0,1-1.865,6.484,5.535,5.535,0,0,1-4.595,2.539,4.548,4.548,0,0,1-3.761-1.705,7.445,7.445,0,0,1-1.36-4.747,10.315,10.315,0,0,1,1.88-6.313,5.6,5.6,0,0,1,4.635-2.534Zm0,2.143q-1.585,0-2.735,2.074a10.017,10.017,0,0,0-1.147,4.912,4.977,4.977,0,0,0,.692,2.753,1.994,1.994,0,0,0,1.709,1.064,3.265,3.265,0,0,0,2.76-1.94,9.444,9.444,0,0,0,1.147-4.886,5.485,5.485,0,0,0-.667-2.9,2,2,0,0,0-1.759-1.08Zm.991-8.788h3.068l-3.437,4.683h-1.688L272.748,9.8Z"/>
  <path class="cls-1" d="M283.141,16.88l-.339,2.534.061.064q2.176-2.822,4.514-2.817a2.844,2.844,0,0,1,2.462,1.229,5.351,5.351,0,0,1,.869,3.17,7.555,7.555,0,0,1-.086,1.144l-1.3,9.082H286.77l1.243-9.178a5.784,5.784,0,0,0,.076-.893,2.83,2.83,0,0,0-.445-1.721,1.344,1.344,0,0,0-1.112-.593,2.174,2.174,0,0,0-.864.2,4.641,4.641,0,0,0-1.031.625,13,13,0,0,0-1.355,1.283,4.029,4.029,0,0,0-.849,1.1l-1.243,9.178h-2.548l1.911-14.406Z"/>
  <path class="cls-2" d="M9.469,2.818C20.969-2.81,35.01.564,36.585,7.887,38.448,16.545,26.469,29.076,0,36.8c7.154-4.157,12.137-7.991,15.553-11.473,8.4-8.566,13.249-22.78-6.084-22.51Z"/>
  <path class="cls-2" d="M32.668,18.038c11.5-5.628,25.541-2.254,27.116,5.069C61.647,31.764,49.668,44.3,23.2,52.021c7.154-4.157,12.137-7.991,15.553-11.473,8.4-8.566,13.249-22.78-6.084-22.51Z"/>
</svg>
