<?xml version="1.0" encoding="utf-8"?>
<!-- Generator: Adobe Illustrator 22.1.0, SVG Export Plug-In . SVG Version: 6.00 Build 0)  -->
<svg version="1.1" id="Capa_1" xmlns="http://www.w3.org/2000/svg" xmlns:xlink="http://www.w3.org/1999/xlink" x="0px" y="0px"
	 viewBox="0 0 176.5 47.7" style="enable-background:new 0 0 176.5 47.7;" xml:space="preserve">
<style type="text/css">
	.st0{fill:#FFFFFF;}
</style>
<g>
	<path class="st0" d="M5.7,10.3v4.2H4.6v-4.2H0.4V9.2h4.1V5h1.1v4.1h4.1v1.1H5.7z"/>
	<path class="st0" d="M22.3,8.3c1.1,0.9,1.6,2.1,1.6,3.8c0,1.6-0.6,2.9-1.7,3.9c-1.1,0.9-2.5,1.4-4.2,1.4c-1.9,0-3.6-0.5-4.8-1.4
		v-1.6c1,1.1,3,1.9,4.8,1.9c1.3,0,2.4-0.4,3.2-1.1c0.8-0.8,1.2-1.8,1.2-2.9c0-2.6-1.7-3.9-4.4-3.9c-1.4,0-2.7,0.4-3.9,1.1l-0.3-0.1
		l1.1-8.5h8.4v1.1h-7.2l-0.7,5.7C16.3,7.2,17.2,7,18.3,7C19.9,7,21.2,7.5,22.3,8.3z"/>
	<path class="st0" d="M33.5,0.6v16.5H32V2.8l-3.9,2.7V4l4.9-3.4H33.5z"/>
	<path class="st0" d="M51.2,17.2h-1.5l4.3-7.1L53.8,10c-0.6,0.5-1.6,0.8-2.8,0.8c-1.5,0-2.8-0.5-3.8-1.4c-1-1-1.5-2.2-1.5-3.7
		c0-1.5,0.5-2.8,1.5-3.7c1-1,2.4-1.5,4-1.5c1.7,0,3,0.5,4,1.4c1,0.9,1.5,2.2,1.5,3.8c0,1.4-0.5,2.9-1.5,4.5L51.2,17.2z M55.5,5.7
		c0-2.4-1.6-4-4.1-4c-2.6,0-4.1,1.7-4.1,4c0,2.3,1.6,3.9,4.1,3.9C53.7,9.6,55.5,8.1,55.5,5.7z"/>
	<path class="st0" d="M64.6,17.2H63l4.3-7.1L67.3,10c-0.6,0.5-1.6,0.8-2.8,0.8c-1.5,0-2.8-0.5-3.8-1.4c-1-1-1.5-2.2-1.5-3.7
		c0-1.5,0.5-2.8,1.5-3.7c1-1,2.4-1.5,4-1.5c1.7,0,3,0.5,4,1.4c1,0.9,1.5,2.2,1.5,3.8c0,1.4-0.5,2.9-1.5,4.5L64.6,17.2z M68.9,5.7
		c0-2.4-1.6-4-4.1-4c-2.6,0-4.1,1.7-4.1,4c0,2.3,1.6,3.9,4.1,3.9C67.1,9.6,68.9,8.1,68.9,5.7z"/>
	<path class="st0" d="M82.3,2.5c0.4,0.6,0.7,1.2,1,2.1C83.9,6.1,84,7.4,84,9c0,1.5-0.1,2.8-0.6,4.4c-0.7,2.2-2.2,3.9-5.2,4
		c-2.3,0-3.9-1.1-4.7-2.9c-0.8-1.8-1-3.5-1-5.5c0-1.6,0.1-2.9,0.6-4.5c0.7-2.3,2.2-4,5.2-4C80.1,0.5,81.5,1.3,82.3,2.5z M74.5,4.3
		c-0.6,1.6-0.7,3-0.7,4.6c0,1.3,0,2.4,0.4,3.7c0.5,1.9,1.6,3.5,3.9,3.5c1.8,0,3.1-1,3.7-2.6c0.6-1.6,0.7-3,0.7-4.6
		c0-1.3-0.1-2.4-0.4-3.8c-0.5-1.9-1.7-3.6-3.9-3.6C76.4,1.7,75.1,2.7,74.5,4.3z"/>
	<path class="st0" d="M97.4,17.2h-1.5l4.3-7.1L100,10c-0.6,0.5-1.6,0.8-2.8,0.8c-1.5,0-2.8-0.5-3.8-1.4c-1-1-1.5-2.2-1.5-3.7
		c0-1.5,0.5-2.8,1.5-3.7c1-1,2.4-1.5,4-1.5c1.7,0,3,0.5,4,1.4c1,0.9,1.5,2.2,1.5,3.8c0,1.4-0.5,2.9-1.5,4.5L97.4,17.2z M101.7,5.7
		c0-2.4-1.6-4-4.1-4c-2.6,0-4.1,1.7-4.1,4c0,2.3,1.6,3.9,4.1,3.9C99.9,9.6,101.7,8.1,101.7,5.7z"/>
	<path class="st0" d="M115.1,2.5c0.4,0.6,0.7,1.2,1,2.1c0.5,1.6,0.6,2.9,0.6,4.5c0,1.5-0.1,2.8-0.6,4.4c-0.7,2.2-2.2,3.9-5.2,4
		c-2.3,0-3.9-1.1-4.7-2.9c-0.8-1.8-1-3.5-1-5.5c0-1.6,0.1-2.9,0.6-4.5c0.7-2.3,2.2-4,5.2-4C112.8,0.5,114.3,1.3,115.1,2.5z
		 M107.3,4.3c-0.6,1.6-0.7,3-0.7,4.6c0,1.3,0,2.4,0.4,3.7c0.5,1.9,1.6,3.5,3.9,3.5c1.8,0,3.1-1,3.7-2.6c0.6-1.6,0.7-3,0.7-4.6
		c0-1.3-0.1-2.4-0.4-3.8c-0.5-1.9-1.7-3.6-3.9-3.6C109.1,1.7,107.9,2.7,107.3,4.3z"/>
	<path class="st0" d="M119.1,17.2l-0.4-0.2c0-1.7,0.4-3,0.9-4c0.3-0.5,0.6-0.9,1.1-1.4c0.5-0.5,1-0.9,1.4-1.2
		c0.5-0.3,1.1-0.7,1.8-1.2c1.1-0.7,1.6-1,2.5-1.8c0.9-0.8,1.4-1.6,1.4-2.5c0-2.1-1.5-3.1-3.7-3.1c-2.2,0-3.5,1.5-3.5,3.5
		c0,0.4,0,0.8,0.1,1.2l-1.5-0.2c-0.1-0.3-0.1-0.7-0.1-1.3c0-1.3,0.5-2.3,1.5-3.2c1-0.8,2.2-1.2,3.5-1.2c1.4,0,2.6,0.4,3.6,1.1
		c1,0.7,1.5,1.8,1.5,3.2c0,1.7-1.3,3.4-4,5c-0.8,0.4-1.4,0.8-1.8,1.1c-0.4,0.3-0.9,0.7-1.5,1.2c-1.2,1.1-1.7,2.3-1.8,3.8h9.3v1.2
		H119.1z"/>
	<path class="st0" d="M147.9,2.5c0.4,0.6,0.7,1.2,1,2.1c0.5,1.6,0.6,2.9,0.6,4.5c0,1.5-0.1,2.8-0.6,4.4c-0.7,2.2-2.2,3.9-5.2,4
		c-2.3,0-3.9-1.1-4.7-2.9c-0.8-1.8-1-3.5-1-5.5c0-1.6,0.1-2.9,0.6-4.5c0.7-2.3,2.2-4,5.2-4C145.6,0.5,147.1,1.3,147.9,2.5z
		 M140.1,4.3c-0.6,1.6-0.7,3-0.7,4.6c0,1.3,0,2.4,0.4,3.7c0.5,1.9,1.6,3.5,3.9,3.5c1.8,0,3.1-1,3.7-2.6c0.6-1.6,0.7-3,0.7-4.6
		c0-1.3-0.1-2.4-0.4-3.8c-0.5-1.9-1.7-3.6-3.9-3.6C141.9,1.7,140.7,2.7,140.1,4.3z"/>
	<path class="st0" d="M157,17.2h-1.5l4.3-7.1l-0.1-0.1c-0.6,0.5-1.6,0.8-2.8,0.8c-1.5,0-2.8-0.5-3.8-1.4c-1-1-1.5-2.2-1.5-3.7
		c0-1.5,0.5-2.8,1.5-3.7c1-1,2.4-1.5,4-1.5c1.7,0,3,0.5,4,1.4c1,0.9,1.5,2.2,1.5,3.8c0,1.4-0.5,2.9-1.5,4.5L157,17.2z M161.3,5.7
		c0-2.4-1.6-4-4.1-4c-2.6,0-4.1,1.7-4.1,4c0,2.3,1.6,3.9,4.1,3.9C159.5,9.6,161.3,8.1,161.3,5.7z"/>
	<path class="st0" d="M172.1,0.6v16.5h-1.4V2.8l-3.9,2.7V4l4.9-3.4H172.1z"/>
</g>
<g>
	<path class="st0" d="M5.7,40.1v4.2H4.6v-4.2H0.4V39h4.1v-4.1h1.1V39h4.1v1.1H5.7z"/>
	<path class="st0" d="M22.3,38.2c1.1,0.9,1.6,2.1,1.6,3.8c0,1.6-0.6,2.9-1.7,3.9c-1.1,0.9-2.5,1.4-4.2,1.4c-1.9,0-3.6-0.5-4.8-1.4
		v-1.6c1,1.1,3,1.9,4.8,1.9c1.3,0,2.4-0.4,3.2-1.1c0.8-0.8,1.2-1.8,1.2-2.9c0-2.6-1.7-3.9-4.4-3.9c-1.4,0-2.7,0.4-3.9,1.1L13.9,39
		l1.1-8.5h8.4v1.1h-7.2l-0.7,5.7c0.8-0.3,1.8-0.5,2.9-0.5C19.9,36.8,21.2,37.3,22.3,38.2z"/>
	<path class="st0" d="M33.5,30.4V47H32V32.7l-3.9,2.7v-1.5l4.9-3.4H33.5z"/>
	<path class="st0" d="M51.2,47h-1.5l4.3-7.1l-0.1-0.1c-0.6,0.5-1.6,0.8-2.8,0.8c-1.5,0-2.8-0.5-3.8-1.4c-1-1-1.5-2.2-1.5-3.7
		c0-1.5,0.5-2.8,1.5-3.7c1-1,2.4-1.5,4-1.5c1.7,0,3,0.5,4,1.4c1,0.9,1.5,2.2,1.5,3.8c0,1.4-0.5,2.9-1.5,4.5L51.2,47z M55.5,35.5
		c0-2.4-1.6-4-4.1-4c-2.6,0-4.1,1.7-4.1,4c0,2.3,1.6,3.9,4.1,3.9C53.7,39.5,55.5,38,55.5,35.5z"/>
	<path class="st0" d="M64.6,47H63l4.3-7.1l-0.1-0.1c-0.6,0.5-1.6,0.8-2.8,0.8c-1.5,0-2.8-0.5-3.8-1.4c-1-1-1.5-2.2-1.5-3.7
		c0-1.5,0.5-2.8,1.5-3.7c1-1,2.4-1.5,4-1.5c1.7,0,3,0.5,4,1.4c1,0.9,1.5,2.2,1.5,3.8c0,1.4-0.5,2.9-1.5,4.5L64.6,47z M68.9,35.5
		c0-2.4-1.6-4-4.1-4c-2.6,0-4.1,1.7-4.1,4c0,2.3,1.6,3.9,4.1,3.9C67.1,39.5,68.9,38,68.9,35.5z"/>
	<path class="st0" d="M78,47h-1.5l4.3-7.1l-0.1-0.1c-0.6,0.5-1.6,0.8-2.8,0.8c-1.5,0-2.8-0.5-3.8-1.4c-1-1-1.5-2.2-1.5-3.7
		c0-1.5,0.5-2.8,1.5-3.7c1-1,2.4-1.5,4-1.5c1.7,0,3,0.5,4,1.4c1,0.9,1.5,2.2,1.5,3.8c0,1.4-0.5,2.9-1.5,4.5L78,47z M82.3,35.5
		c0-2.4-1.6-4-4.1-4c-2.6,0-4.1,1.7-4.1,4c0,2.3,1.6,3.9,4.1,3.9C80.5,39.5,82.3,38,82.3,35.5z"/>
	<path class="st0" d="M95.4,47H94l6.8-15.3h-8.3v-1.1h10.1v0.3L95.4,47z"/>
	<path class="st0" d="M115.1,32.3c0.4,0.6,0.7,1.2,1,2.1c0.5,1.6,0.6,2.9,0.6,4.5c0,1.5-0.1,2.8-0.6,4.4c-0.7,2.2-2.2,3.9-5.2,4
		c-2.3,0-3.9-1.1-4.7-2.9c-0.8-1.8-1-3.5-1-5.5c0-1.6,0.1-2.9,0.6-4.5c0.7-2.3,2.2-4,5.2-4C112.8,30.3,114.3,31.2,115.1,32.3z
		 M107.3,34.2c-0.6,1.6-0.7,3-0.7,4.6c0,1.3,0,2.4,0.4,3.7c0.5,1.9,1.6,3.5,3.9,3.5c1.8,0,3.1-1,3.7-2.6c0.6-1.6,0.7-3,0.7-4.6
		c0-1.3-0.1-2.4-0.4-3.8c-0.5-1.9-1.7-3.6-3.9-3.6C109.1,31.5,107.9,32.5,107.3,34.2z"/>
	<path class="st0" d="M124.5,30.6h1.5l-4.3,7.1l0.1,0c0.6-0.5,1.5-0.8,2.8-0.8c1.5,0,2.8,0.5,3.8,1.5c1,1,1.5,2.2,1.5,3.7
		c0,1.5-0.5,2.8-1.6,3.8c-1,1-2.4,1.4-4,1.4c-1.7,0-3.1-0.5-4.1-1.4c-1-1-1.5-2.2-1.5-3.8c0-1.4,0.5-2.9,1.5-4.5L124.5,30.6z
		 M121.4,39.1c-0.8,0.7-1.2,1.7-1.2,2.9c0,2.4,1.6,4,4.2,4c2.6,0,4.2-1.7,4.2-4c0-2.3-1.6-4-4.1-4C123.2,38,122.2,38.4,121.4,39.1z"
		/>
	<path class="st0" d="M141.6,47h-1.4l6.8-15.3h-8.3v-1.1h10.1v0.3L141.6,47z"/>
	<path class="st0" d="M161.3,32.3c0.4,0.6,0.7,1.2,1,2.1c0.5,1.6,0.6,2.9,0.6,4.5c0,1.5-0.1,2.8-0.6,4.4c-0.7,2.2-2.2,3.9-5.2,4
		c-2.3,0-3.9-1.1-4.7-2.9c-0.8-1.8-1-3.5-1-5.5c0-1.6,0.1-2.9,0.6-4.5c0.7-2.3,2.2-4,5.2-4C159,30.3,160.5,31.2,161.3,32.3z
		 M153.5,34.2c-0.6,1.6-0.7,3-0.7,4.6c0,1.3,0.1,2.4,0.4,3.7c0.5,1.9,1.6,3.5,3.9,3.5c1.8,0,3.1-1,3.7-2.6c0.6-1.6,0.7-3,0.7-4.6
		c0-1.3-0.1-2.4-0.4-3.8c-0.5-1.9-1.7-3.6-3.9-3.6C155.3,31.5,154.1,32.5,153.5,34.2z"/>
	<path class="st0" d="M173.1,38.2c2,0.8,3,2.2,3,4.3c0,1.4-0.5,2.6-1.6,3.5c-1,0.9-2.3,1.3-3.9,1.3c-1.6,0-3-0.4-4-1.3
		c-1-0.8-1.5-2-1.5-3.4c0-1.9,1.1-3.5,3-4.2v-0.1c-1.5-0.7-2.3-1.9-2.3-3.7c0-1.3,0.5-2.3,1.4-3.1c0.9-0.8,2.1-1.2,3.5-1.2
		c1.4,0,2.5,0.4,3.5,1.2c0.9,0.8,1.4,1.8,1.4,3.1C175.5,36.2,174.5,37.6,173.1,38.2L173.1,38.2z M166.4,42.4c0,2.1,1.6,3.7,4.1,3.7
		c2.5,0,4.1-1.6,4.1-3.7s-1.6-3.6-4.1-3.6C168.1,38.9,166.4,40.4,166.4,42.4z M170.6,37.7c2,0,3.5-1.3,3.5-3.1
		c0-1.8-1.4-3.2-3.5-3.2c-2.1,0-3.5,1.3-3.5,3.2C167.1,36.5,168.6,37.7,170.6,37.7z"/>
</g>
</svg>
