<svg id="Capa_1" data-name="Capa 1" xmlns="http://www.w3.org/2000/svg" viewBox="0 0 455 98.884">
  <defs>
    <style>
      .cls-1 {
        fill: #fff;
      }
    </style>
  </defs>
  <title>Paralisis</title>
  <g>
    <path class="cls-1" d="M418.643,25.1q-.179,15.547-.309,31.1c-.041,5.275-.007,10.551-.007,16.836-.728-1.97-1.267-3.081-1.552-4.254-2.206-9.057-4.175-18.177-6.6-27.172a137.644,137.644,0,0,0-5.8-16.689c-.442-1.067-2.971-1.749-4.511-1.706-.95.027-2.556,1.7-2.657,2.745-.565,5.85-1,11.734-1.035,17.609q-.148,25.7.146,51.4a4.543,4.543,0,0,0,2.32,3.46c2.125.746,3.513-.509,3.546-2.932.024-1.727.193-3.452.2-5.178q.056-22.249.08-44.5c0-1.126.107-2.252.164-3.379,4.641,16.319,8.559,32.674,12.411,49.044,1.337,5.681,1.263,5.71,7.125,4.894a15.776,15.776,0,0,0,2.047-.514V20.631C419.013,19.552,418.705,19.768,418.643,25.1Z" transform="translate(0)"/>
    <path class="cls-1" d="M454.963,29.29c-.061-7.132-2.943-10.276-9.57-10.96-10.271-1.06-14.643,1.99-15.827,9.7a36.325,36.325,0,0,0-.419,5.158c-.106,11.214-.136,22.429-.246,33.644-.067,6.75-.338,13.5-.316,20.25.012,3.663.692,7.173,4.211,9.4,9.408,5.947,21.115.306,21.478-10.673.347-10.481.075-20.982.075-31.475h.632C454.98,45.983,455.034,37.636,454.963,29.29Zm-7.39,57.851c-1.076,4.034-3.955,4.8-7.68,4.345s-4.206-3.1-4.233-5.93c-.084-8.91-.031-17.822-.031-26.733h-.746c0-9.059-.123-18.121.06-27.177.074-3.633.387-7.168,5.919-6.909,5.293.247,7.031.738,7.172,6.072.449,17.094.506,34.2.612,51.3A19.858,19.858,0,0,1,447.573,87.141Z" transform="translate(0)"/>
    <path class="cls-1" d="M364.043,20.518c0,8.978.244,17.855-.059,26.713-.423,12.355-1.029,24.713-2.019,37.033-.427,5.315-2.5,6.4-7.366,6.276s-5.453-3.13-5.374-6.97c.411-19.836.719-39.673,1.2-59.507.066-2.7-.66-3.97-3.425-4.2-2.883-.239-2.91,1.642-3.02,3.567-.492,8.612-1.193,17.22-1.4,25.839-.267,11.079.044,22.171-.222,33.249-.32,13.335,1.3,15.163,14.483,14.988,8.537-.114,10.479-1.511,10.946-10.236,1.092-20.393,1.654-40.813,2.661-61.212C370.671,21.675,368.651,20.559,364.043,20.518Z" transform="translate(0)"/>
    <path class="cls-1" d="M76.751,88.978c-1.491-.319-3.536-1.563-3.95-2.839C69.48,75.9,66.488,65.549,63.271,54.819,74.546,51.631,77.109,42.95,77.033,32.672c-.074-10.023-1.677-11.7-11.779-12.235q-1.727-.092-3.456-.152c-10.146-.357-10.318-.231-10.313,9.928Q51.5,59.6,51.6,89c0,1.835,0,3.669,0,5.554,5.038,1.119,6.764-.435,6.584-4.716-.338-8.061-.421-16.133-.571-24.2-.027-1.43.138-2.863.215-4.3,3.481,9.29,5.884,18.621,8.635,27.849,1.841,6.173,3.473,7.167,9.765,6.444A4.757,4.757,0,0,0,79.445,92.9C80.091,90.959,79.22,89.507,76.751,88.978ZM58.376,48.067c0-6.366.435-12.535-.131-18.61-.5-5.336,3.2-4.517,5.972-4.848,2.994-.356,6,.184,6.127,4.17a93.594,93.594,0,0,1-.209,10.3C69.539,46.772,66.743,48.947,58.376,48.067Z" transform="translate(0)"/>
    <path class="cls-1" d="M45.38,25.552c-1.623-5.223-5.663-7.473-11.489-6.758-4.594.563-6.61,2.51-6.82,8.339-.353,9.774-.219,19.569-.167,29.355.061,11.352.238,22.7.41,34.054.022,1.481.309,2.958.5,4.7l5.439-.55V55.3h8.08c0,12.357,0,24.3,0,36.239,0,1.816-.088,3.541,2.61,3.365,2.253-.148,3.3-.908,3.283-3.413-.16-19.3-.141-38.611-.34-57.916A28.592,28.592,0,0,0,45.38,25.552Zm-6.82,23.381a44.708,44.708,0,0,1-6.519.092c0-7.9-.133-15.343.137-22.775.042-1.175,2.091-3.345,2.881-3.2,1.686.3,4.385,1.685,4.511,2.857.752,6.991.951,14.047,1.131,21.085C40.719,47.649,39.393,48.8,38.561,48.933Z" transform="translate(0)"/>
    <path class="cls-1" d="M100.8,23.71c-1.817-4.267-6.384-5.856-11.783-4.835-4.439.839-5.752,3.911-5.752,7.843q0,16.368.178,32.737c.057,5.892.286,11.781.349,17.672.063,5.847.014,11.694.014,17.886l5.61-.332v-39.5h7.343c.1,1.246.225,2.222.242,3.2.192,10.944.294,21.89.647,32.828.039,1.214,1.282,3.147,2.309,3.409,1.919.49,3.429-.365,3.4-3.046-.181-19.719-.139-39.44-.409-59.157A23.83,23.83,0,0,0,100.8,23.71Zm-5.91,25.055a48.58,48.58,0,0,1-6.788.1c0-7.726-.154-15.046.14-22.347.054-1.333,2.218-3.811,2.909-3.648,1.779.42,4.535,1.885,4.68,3.179.764,6.843.906,13.762,1.064,20.659C96.912,47.41,95.679,48.643,94.892,48.765Z" transform="translate(0)"/>
    <path class="cls-1" d="M256.015,21.427a56.785,56.785,0,0,0-6.043.056c-6.6.334-6.376.354-6.373,6.979.008,19.561-.176,39.122-.28,58.683-.014,2.69,0,5.379,0,7.965.9.291,1.311.571,1.685.525,3.424-.42,6.836-.931,10.26-1.351,7.8-.956,10.589-2.85,11.1-10.559.939-14.185,1.05-28.43,1.3-42.653a49.849,49.849,0,0,0-1.051-10.711C265.451,24.618,261.864,21.758,256.015,21.427ZM261.9,77.654c-.326,8.256-2.872,10.562-12.373,11.1,0-6.731-.013-13.435,0-20.14.03-12.793.206-25.588.049-38.379-.056-4.539,3.376-3.718,5.663-4.041,3.108-.438,5.8.791,6.032,4.518.448,7.167.987,14.34,1.069,21.515C262.436,60.7,262.231,69.186,261.9,77.654Z" transform="translate(0)"/>
    <path class="cls-1" d="M213.986,50.068c-2.694-.481-5.377-1.08-8.092-1.378-3.286-.362-4.383-2.211-4.295-5.274.107-3.744.075-7.492.1-11.239.025-3.9,1.957-5.928,5.889-5.734,3.41.168,6.811.521,10.656.828l.806-8.406c-5.07,0-9.5-.122-13.92.034s-7.406,2.324-8.03,6.909c-.854,6.273-1.9,12.55-2.223,18.858-.39,7.71,1.671,9.726,9.245,10.565,1.718.19,3.431.511,5.153.574,3.2.118,4.642,1.732,4.764,4.876.3,7.772.672,15.541,1.048,23.31.179,3.685-1.47,5.909-5.193,5.907-4.256,0-8.512-.407-13.4-.671.558,2.491-3,6.358,1.935,6.927a69.658,69.658,0,0,0,16.2-.341c3.8-.459,5.962-3.437,5.991-7.389.077-10.352.112-20.706-.019-31.057C220.546,53.194,218.068,50.8,213.986,50.068Z" transform="translate(0)"/>
    <path class="cls-1" d="M325.034,49.053c-4.1-.691-6.226-2.284-5.768-6.758.321-3.138.047-6.334.109-9.5.1-4.914,1.616-6.458,6.579-6.334,3.235.081,6.462.511,9.987.809l.8-8.349c-5.191,0-9.905-.161-14.6.056-3.211.148-6.258,1.559-6.772,5-1.186,7.941-2.216,15.936-2.654,23.945-.218,3.994,2.478,6.6,6.76,7.019,2.579.254,5.143.666,7.724.894,2.7.239,4.267,1.518,4.406,4.318.408,8.2.854,16.39,1.212,24.587a4.4,4.4,0,0,1-4.253,5.015,39.16,39.16,0,0,1-7.289.253,57.888,57.888,0,0,1-6.985-1.379l-.727,6.907c6.439,1.785,12.437,2.365,18.6.5,3.8-1.148,5.963-3.493,6.07-7.408.222-8.186.732-16.4.286-24.558C337.82,51.254,337.545,51.161,325.034,49.053Z" transform="translate(0)"/>
    <path class="cls-1" d="M165.748,50.176c-4.181-1.088-9.988-1.185-11.992-3.954-2.153-2.975-.815-8.552-.81-12.994.006-5.613,1.62-7.076,7.405-6.791,2.945.145,5.877.558,9.19.887.161-2.993.293-5.455.45-8.39-5.206,0-9.791-.122-14.367.039-3.493.123-6.448,1.853-6.946,5.385-1.122,7.951-1.95,15.964-2.411,23.979-.2,3.519,2.213,5.846,5.826,6.424,2.7.432,5.42.806,8.145.984,3.343.219,4.905,1.879,5.03,5.191.283,7.484.52,14.973,1.035,22.442q.459,6.653-5.865,6.6c-4.094-.028-8.184-.522-12.562-.832.07,2.491-2.865,6.314,1.58,6.905,5.56.74,11.371.179,17-.446,3.058-.34,5.077-2.874,5.11-6.144.111-10.918.157-21.838.025-32.755C171.552,53.092,169.23,51.082,165.748,50.176Z" transform="translate(0)"/>
    <path class="cls-1" d="M17.012,22.339a124.424,124.424,0,0,0-12.7-.823C1.076,21.391-.063,22.924,0,26.306.248,38.966.175,51.634.214,64.3.245,74.37.31,84.441.262,94.512c-.012,2.611.673,4,3.644,3.911,3.068-.1,3.008-2.028,2.958-4.122-.048-2.013-.2-4.025-.2-6.038C6.639,77.78,6.65,67.3,6.65,56.1c2.42,0,4.562.162,6.672-.034,4.111-.382,8.152-1.908,8.869-6.229A132.051,132.051,0,0,0,23.623,30.2C23.683,26.059,21.309,22.948,17.012,22.339ZM16.682,45.7c-.367,3.429-5.285,5.7-8.4,4.187-.62-.3-1-1.193-1.361-1.883a3.026,3.026,0,0,1-.056-1.275c0-6.418,0-12.837,0-19.535,7.418-1.162,9.13-.069,9.825,6.956A56.7,56.7,0,0,1,16.682,45.7Z" transform="translate(0)"/>
    <path class="cls-1" d="M276.026,20.6c-2.729.087-3.75,1.188-3.76,3.938q-.115,33.475-.433,66.948c-.027,2.968,1.263,3.71,3.985,3.405,3.715-.416,7.487-.38,11.174-.941a4.08,4.08,0,0,0,2.733-2.646c.3-1.821-.141-3.749-2.978-3.531-2.67.205-5.368.044-9.319.044,0-8.086-.087-15.971.023-23.852.126-9.048.214-8.993,8.857-10.922.93-.207,2.409-1.732,2.259-2.229a4.292,4.292,0,0,0-2.427-2.667c-1.761-.458-3.745.005-5.57-.3-.873-.147-2.269-1.154-2.286-1.8-.17-6.572-.1-13.149-.1-20.107,2.806,0,5.218-.085,7.621.017,5.29.226,5.288.264,5.081-6.211C285.726,20.052,280.88,20.443,276.026,20.6Z" transform="translate(0)"/>
    <path class="cls-1" d="M390.608,19.987c-4.307-.006-8.612.494-12.922.7-2.383.115-3.125,1.24-3.129,3.565q-.052,33.444-.3,66.888c-.025,3.035.95,4.152,4.01,3.771,3.562-.443,7.161-.619,10.748-.83,1.92-.114,3.343-.413,3.194-2.927s-1.02-3.607-3.7-3.321c-2.4.256-4.84.054-8.669.054,0-8.5-.066-16.686.018-24.866.087-8.441.164-8.372,8.446-9.962,1.045-.2,1.864-1.577,2.787-2.408-.873-.885-1.606-2.26-2.646-2.556-2.5-.713-6.264-.049-7.43-1.557-1.352-1.747-.473-5.222-.556-7.947-.026-.863-.027-1.727-.043-2.589-.178-9.88-.178-9.88,9.626-9.923.143,0,.364.084.419.019a16.661,16.661,0,0,0,2.919-3.767C393.528,21.977,391.588,19.989,390.608,19.987Z" transform="translate(0)"/>
    <path class="cls-1" d="M185.69,25.809a4.636,4.636,0,0,0,1.517-.5c1.149-.881,2.831-1.7,3.171-2.874.743-2.566-1.448-3.07-3.371-3.227-2.864-.233-5.745-.395-8.616-.367-2.628.025-4.387,3.023-2.818,5.028.8,1.025,2.633,1.245,4.258,1.94.042.488.151,1.185.156,1.884.152,18.986.268,37.973.465,56.958.032,3.073-.062,5.736-3.985,6.37-.629.1-1.275,1.648-1.422,2.6-.09.583.74,1.877,1.181,1.889,5.226.134,10.456.087,15.513.087V89.819l-4.334-.287C186.826,68.039,186.26,46.985,185.69,25.809Z" transform="translate(0)"/>
    <path class="cls-1" d="M136.884,25.8a5.848,5.848,0,0,1,1.18-.427c1.847-.258,3.712-.162,3.692-3.019-.021-3.105-2.233-2.946-4.124-3.184a39.222,39.222,0,0,0-6.463-.293c-1.906.077-4.99-1.043-4.55,2.582.2,1.624,1.82,3.076,2.8,4.605l2.19-.324c0,20.419.056,40.837-.139,61.254-.012,1.238-2.041,2.446-3.108,3.688a9.092,9.092,0,0,0-2.074,2.716c-.171.544.847,2.105,1.363,2.122,5.095.163,10.2.1,15.17.1v-5.7l-4.206-.53C138.029,67.968,137.458,46.91,136.884,25.8Z" transform="translate(0)"/>
    <path class="cls-1" d="M114.482,90.6V20.642c-2.892.835-6.546-1.9-6.534,3.534.047,20.977-.092,41.955-.158,62.932-.01,3.124,0,6.247,0,9.82h16.776L123.9,90.6Z" transform="translate(0)"/>
    <path class="cls-1" d="M404.123,16.015l-.926-9,1.844-.438a44.8,44.8,0,0,1,1.643,5.227c1.012,5.335,1.349,5.629,6.852,4.784,1.563-.24,3.286-.169,4.637-.841,1.247-.62,2.853-1.964,2.977-3.13a109.371,109.371,0,0,0,.141-11.333L415.105,2c.173,2.1.6,3.713.338,5.2-.232,1.3-1.246,2.47-1.914,3.7a25.534,25.534,0,0,1-3.306-2.8,5.527,5.527,0,0,1-.634-2.48c-.465-2.529-1.08-5.076-4.4-4.723-3.073.327-5.661,1.77-5.947,5.208-.269,3.234-.058,6.507-.058,9.907Z" transform="translate(0)"/>
    <path class="cls-1" d="M94.979,1.035c-2.015,4.051-3.756,8.238-5.589,12.38l.838,1.178c1.7-.5,3.928-.484,5.014-1.589,3.094-3.146,5.724-6.747,9.031-10.772A54.547,54.547,0,0,0,97.809.038,3.233,3.233,0,0,0,94.979,1.035Z" transform="translate(0)"/>
  </g>
</svg>
