<?xml version="1.0" encoding="utf-8"?>
<!-- Generator: Adobe Illustrator 22.1.0, SVG Export Plug-In . SVG Version: 6.00 Build 0)  -->
<svg version="1.1" id="Capa_1" xmlns="http://www.w3.org/2000/svg" xmlns:xlink="http://www.w3.org/1999/xlink" x="0px" y="0px"
	 viewBox="0 0 88.8 90.9" style="enable-background:new 0 0 88.8 90.9;" xml:space="preserve">
<style type="text/css">
	.st0{fill:#DD4131;}
</style>
<g>
	<path class="st0" d="M86,0.2H2.8c-1.5,0-2.7,1.2-2.7,2.7V60c0,1.5,1.2,2.7,2.7,2.7h45.9l-0.9-1.4c-0.3-0.5-0.5-1.1-0.5-1.7V43.6
		c0-4.5,2.9-8.5,7.2-9.9l0.1,0l2.6-0.8c0.3-0.1,0.6-0.1,0.9-0.1c0.8,0,1.6,0.3,2.1,0.8l0.5-0.6c-4.1-1.8-7-5.8-7-10.6
		c0-6.3,5.2-11.5,11.5-11.5c6.3,0,11.5,5.2,11.5,11.5c0,4.7-2.9,8.8-7,10.6c0.2,0.2,0.4,0.4,0.5,0.6c0.8-0.7,2-1,3.1-0.7l2.7,0.8
		c4.3,1.4,7.1,5.4,7.1,9.9v16c0,0.6-0.2,1.2-0.5,1.7l-0.9,1.4H86c1.5,0,2.7-1.2,2.7-2.7V2.8C88.7,1.4,87.5,0.2,86,0.2L86,0.2z
		 M47.1,28.8c0,1.5-1.2,2.7-2.7,2.7c-1.5,0-2.7-1.2-2.7-2.7v-3.9L30.6,36.1c-1,1-2.7,1-3.8,0l-3.3-3.3L15,41.3
		c-0.5,0.5-1.2,0.8-1.9,0.8c-0.7,0-1.4-0.3-1.9-0.8c-1-1-1-2.7,0-3.8l10.4-10.4c1-1,2.7-1,3.8,0l3.3,3.3l9.3-9.3H34
		c-1.5,0-2.7-1.2-2.7-2.7c0-1.5,1.2-2.7,2.7-2.7h10.4c1.5,0,2.7,1.2,2.7,2.7V28.8z M47.1,28.8"/>
	<path class="st0" d="M73.6,22.4c0-4.6-3.7-8.3-8.3-8.3c-4.6,0-8.3,3.7-8.3,8.3c0,4.6,3.7,8.3,8.3,8.3C69.8,30.7,73.6,27,73.6,22.4
		L73.6,22.4z M73.6,22.4"/>
	<path class="st0" d="M75,36.7L75,36.7l-2.6-0.8l-5.5,15.1c-0.3,0.7-0.9,1.1-1.6,1.2c-0.8,0-1.5-0.5-1.7-1.2l-5.5-15l-2.6,0.8
		c-3,1-5,3.8-5,6.9v15.9l5.9,8.9V90c0,0.4,0.3,0.7,0.7,0.7h16.4c0.4,0,0.7-0.3,0.7-0.7V68.4l5.8-8.9l0-16C80,40.4,78,37.7,75,36.7
		L75,36.7z M75,36.7"/>
	<path class="st0" d="M64.3,39.5l-0.6,5.3l1.2,3.3c0.1,0.3,0.6,0.3,0.7,0l1.2-3.3l-0.6-5.3l1.3-2c0.3-0.4,0.2-1-0.2-1.4
		c-0.2-0.2-0.6-0.4-0.9-0.4H64c-0.3,0-0.7,0.1-0.9,0.4c-0.4,0.4-0.4,0.9-0.2,1.4L64.3,39.5z M64.3,39.5"/>
</g>
</svg>
