<svg id="Capa_1" data-name="Capa 1" xmlns="http://www.w3.org/2000/svg" viewBox="0 0 1855.268 881.98">
  <defs>
    <style>
      .cls-1 {
        fill: #fff;
      }
    </style>
  </defs>
  <title>WolfpackDarkLogoClean</title>
  <path class="cls-1" d="M581.823,433.4S562.274,555.337,703.981,516.54C703.981,516.54,625.8,452.8,581.823,433.4Z" transform="translate(-15.366 -99.01)"/>
  <path class="cls-1" d="M191.082,924.646c-20.662-29.882-38.755-68.815-53.776-115.717-24.437-76.3-32.729-149.359-33.483-156.349L38.344,692.192l.089-.705c7.458-59.211,24.475-111.265,50.58-154.718a295.057,295.057,0,0,1,79.415-87.294C207.5,421.036,244.836,409.05,262.8,404.55L142.672,422.717l.342-.612c15.428-27.662,41.882-52.936,78.625-75.121C251.015,329.247,287,313.432,328.6,299.978a841.146,841.146,0,0,1,134.6-31.171c.744-2.229,7.552-22.01,23.1-48.035,15.167-25.384,42-62.077,83.669-92.735l.4-.294.136.477c.414,1.456,41.356,146.306,43.566,209.912L742.612,459.219l-.057.2a98.856,98.856,0,0,0-1.077,41.242c3.961,20.183,17.147,46.91,57.472,59.616,35.266,11.113,68.507,23.3,94.335,33.317q-7.124-4.579-14.283-9.106c-10.579-6.667-21.095-13.512-32.03-19.586q-7.9-4.389-16.075-8.26c-1.249-.59-10.266-5.319-4.387-2.057,5.741,3.185-4.131-1.508-4.671-1.711a60.932,60.932,0,0,1-14.144-7.51c-1.786-.571-3.6-1.162-5.363-1.719-58.473-18.439-45.7-72.135-44.083-78.1l3.108-10.94L630.4,331.152c-4.821-68.454-42.072-200.366-43.717-206.164L579.316,99.01l-21.744,16.011c-67.2,49.479-98.45,113.1-108.929,138.638-51.36,7.988-258.508,46.791-321.98,160.675l-18.581,33.338,41.69-6.308C98.365,481.347,37.038,556.012,20.2,689.813l-4.832,38.4,73.726-44.634c11.145,73.569,40.4,238.733,147.32,289.143Q212.078,954.956,191.082,924.646Z" transform="translate(-15.366 -99.01)"/>
  <g>
    <path class="cls-1" d="M400.891,896.038,379.8,766.22l-21.5,129.818H252.412l-42.191-259.23h86.816l21.5,145.64,21.1-145.64h83.976L444.3,782.447l21.5-145.64h81.543l-42.191,259.23Z" transform="translate(-15.366 -99.01)"/>
    <path class="cls-1" d="M600.475,896.038c-27.992,0-42.191-10.548-42.191-32.049V669.668c0-21.908,14.2-32.861,42.191-32.861H705.547c27.992,0,42.191,10.953,42.191,32.861v194.32c0,21.5-14.2,32.049-42.191,32.049Zm62.88-193.51a.873.873,0,0,0-.812-.812H643.478a.873.873,0,0,0-.812.812v128.2a.872.872,0,0,0,.812.81h19.066a.872.872,0,0,0,.812-.81Z" transform="translate(-15.366 -99.01)"/>
    <path class="cls-1" d="M768.018,976.769V636.807H852.4V912.265H957.47v64.5Zm105.071-80.731V669.668c0-21.5,14.2-32.861,42.191-32.861H1031.3v64.909H958.282a.873.873,0,0,0-.812.812v15.01h73.022v64.909H957.47V896.038Z" transform="translate(-15.366 -99.01)"/>
    <path class="cls-1" d="M1047.928,896.038V636.807h147.262c27.992,0,42.191,10.953,42.191,32.861V766.22c0,21.906-14.2,32.86-42.191,32.86h-62.88v96.958ZM1153,702.528a.874.874,0,0,0-.812-.812h-19.878v36.106h19.878a.874.874,0,0,0,.812-.812Z" transform="translate(-15.366 -99.01)"/>
    <path class="cls-1" d="M1400.864,976.769c-27.992,0-42.192-10.548-42.192-32.049V799.08h-20.69v96.958H1253.6V669.668c0-21.908,14.2-32.861,42.191-32.861h105.072c27.991,0,42.189,10.953,42.189,32.861V911.453a.873.873,0,0,0,.812.812h208.52v64.5Zm-42.192-274.241a.873.873,0,0,0-.81-.812h-19.067a.874.874,0,0,0-.812.812v31.643h20.69Zm146.451,193.51c-27.992,0-42.191-10.548-42.191-32.049V669.668c0-21.908,14.2-32.861,42.191-32.861h105.071c27.992,0,42.191,10.953,42.191,32.861v76.674H1568V702.528a.873.873,0,0,0-.812-.812h-19.066a.873.873,0,0,0-.812.812v128.2a.872.872,0,0,0,.812.81h19.066a.872.872,0,0,0,.812-.81V770.277h84.382v93.711c0,21.5-14.2,32.049-42.191,32.049Z" transform="translate(-15.366 -99.01)"/>
    <path class="cls-1" d="M1781.79,896.038,1754.2,826.667v69.371h-81.541V636.807H1754.2v66.127l25.152-66.127H1868.2l-58.013,124.95,60.447,134.28Z" transform="translate(-15.366 -99.01)"/>
  </g>
  <g>
    <path class="cls-1" d="M1003.47,980.99c-7.253,0-10.933-2.733-10.933-8.3V960.069H1014.4v4a.227.227,0,0,0,.211.21h4.941a.227.227,0,0,0,.211-.21v-7.991a.227.227,0,0,0-.211-.21H1003.47c-7.253,0-10.933-2.839-10.933-8.516V922.328c0-5.677,3.68-8.516,10.933-8.516H1030.7c7.253,0,10.933,2.839,10.933,8.516v12.4h-21.866v-3.889a.228.228,0,0,0-.211-.211h-4.941a.228.228,0,0,0-.211.211v7.989a.227.227,0,0,0,.211.211H1030.7c7.253,0,10.933,2.733,10.933,8.3v25.336c0,5.572-3.68,8.3-10.933,8.3Z" transform="translate(-15.366 -99.01)"/>
    <path class="cls-1" d="M1061.081,980.99c-7.253,0-10.933-2.733-10.933-8.3V934.733h-5.361v-16.61h5.361v-4.311h21.867v4.311h27.227v16.61h-27.227v29.331a.225.225,0,0,0,.21.21h5.047a.225.225,0,0,0,.21-.21V939.044h21.761v33.641c0,5.572-3.678,8.3-10.933,8.3Z" transform="translate(-15.366 -99.01)"/>
    <path class="cls-1" d="M1115.433,980.99c-7.253,0-10.933-2.733-10.933-8.3V913.813h21.867v50.252a.225.225,0,0,0,.21.21h4.941a.226.226,0,0,0,.211-.21V913.813h21.866v58.872c0,5.572-3.678,8.3-10.933,8.3Z" transform="translate(-15.366 -99.01)"/>
    <path class="cls-1" d="M1158.958,980.99V913.813h38.161c7.255,0,10.934,2.839,10.934,8.516v50.357c0,5.572-3.68,8.3-10.934,8.3Zm27.228-50.146a.227.227,0,0,0-.21-.211h-5.152v33.641h5.152a.225.225,0,0,0,.21-.21Z" transform="translate(-15.366 -99.01)"/>
    <path class="cls-1" d="M1213.31,980.99V913.813h21.867V980.99Z" transform="translate(-15.366 -99.01)"/>
    <path class="cls-1" d="M1251.368,980.99c-7.253,0-10.933-2.733-10.933-8.3V922.328c0-5.677,3.68-8.516,10.933-8.516H1278.6c7.253,0,10.933,2.839,10.933,8.516v50.357c0,5.572-3.68,8.3-10.933,8.3Zm16.3-50.146a.228.228,0,0,0-.211-.211h-4.941a.228.228,0,0,0-.211.211v33.221a.227.227,0,0,0,.211.21h4.941a.227.227,0,0,0,.211-.21Z" transform="translate(-15.366 -99.01)"/>
    <path class="cls-1" d="M1305.51,980.99c-7.253,0-10.933-2.733-10.933-8.3V960.069h21.866v4a.227.227,0,0,0,.211.21h4.941a.227.227,0,0,0,.211-.21v-7.991a.227.227,0,0,0-.211-.21H1305.51c-7.253,0-10.933-2.839-10.933-8.516V922.328c0-5.677,3.68-8.516,10.933-8.516h27.228c7.253,0,10.933,2.839,10.933,8.516v12.4h-21.866v-3.889a.228.228,0,0,0-.211-.211h-4.941a.228.228,0,0,0-.211.211v7.989a.227.227,0,0,0,.211.211h16.085c7.253,0,10.933,2.733,10.933,8.3v25.336c0,5.572-3.68,8.3-10.933,8.3Z" transform="translate(-15.366 -99.01)"/>
  </g>
</svg>
