<svg id="Capa_1" data-name="Capa 1" xmlns="http://www.w3.org/2000/svg" viewBox="0 0 1864.594 882.628">
  <defs>
    <style>
      .cls-1 {
        fill: #fff;
      }
    </style>
  </defs>
  <title>WolfpackDarkLogoClean</title>
  <path class="cls-1" d="M585.216,427.856s-19.648,122.549,122.772,83.557C707.988,511.413,629.411,447.353,585.216,427.856Z" transform="translate(-15.91 -91.784)"/>
  <path class="cls-1" d="M192.509,921.571c-20.766-30.033-38.95-69.161-54.047-116.3-24.559-76.681-32.894-150.11-33.651-157.136L39,687.948l.089-.709c7.5-59.509,24.6-111.825,50.834-155.5a296.541,296.541,0,0,1,79.814-87.733c39.264-28.582,76.792-40.628,94.85-45.151L143.856,417.119l.344-.615c15.506-27.8,42.092-53.2,79.021-75.5,29.524-17.825,65.69-33.72,107.494-47.242a845.376,845.376,0,0,1,135.279-31.328c.748-2.24,7.59-22.121,23.219-48.276,15.243-25.511,42.206-62.39,84.089-93.2l.4-.3.136.48c.416,1.463,41.564,147.042,43.785,210.968L746.813,453.8l-.057.2a99.354,99.354,0,0,0-1.082,41.449c3.981,20.285,17.233,47.146,57.761,59.916,35.443,11.169,68.852,23.419,94.809,33.485q-7.16-4.6-14.355-9.152c-10.632-6.7-21.2-13.58-32.192-19.685q-7.94-4.411-16.155-8.3c-1.255-.593-10.318-5.346-4.409-2.067,5.77,3.2-4.151-1.515-4.695-1.72a61.238,61.238,0,0,1-14.215-7.548c-1.795-.574-3.615-1.168-5.39-1.728-58.767-18.531-45.934-72.5-44.3-78.49l3.124-10.995L634.039,325.092c-4.845-68.8-42.283-201.373-43.937-207.2L582.7,91.784l-21.853,16.091C493.305,157.6,461.9,221.539,451.367,247.21c-51.618,8.028-259.808,47.026-323.6,161.483L109.093,442.2l41.9-6.34c-51.666,40.184-113.3,115.224-130.226,249.7l-4.856,38.59,74.1-44.858c11.2,73.939,40.608,239.933,148.061,290.6Q213.611,952.034,192.509,921.571Z" transform="translate(-15.91 -91.784)"/>
  <path class="cls-1" d="M403.37,892.824l-21.2-130.469L360.56,892.824H254.146l-42.4-260.529h87.251L320.6,778.664l21.2-146.369h84.4L447,778.664,468.6,632.295h81.951l-42.4,260.529Z" transform="translate(-15.91 -91.784)"/>
  <path class="cls-1" d="M603.96,892.824c-28.132,0-42.4-10.6-42.4-32.209v-195.3c0-22.017,14.27-33.024,42.4-33.024h105.6c28.132,0,42.4,11.008,42.4,33.024v195.3c0,21.608-14.27,32.209-42.4,32.209Zm63.2-194.48a.876.876,0,0,0-.815-.814H647.178a.876.876,0,0,0-.815.814V827.182a.877.877,0,0,0,.815.816h19.163a.877.877,0,0,0,.815-.816Z" transform="translate(-15.91 -91.784)"/>
  <path class="cls-1" d="M772.346,973.959V632.295h84.8V909.133h105.6v64.826Zm105.6-81.135v-227.5c0-21.608,14.27-33.024,42.4-33.024h116.607v65.234H963.564a.877.877,0,0,0-.816.814V713.43h73.389v65.234H962.748v114.16Z" transform="translate(-15.91 -91.784)"/>
  <path class="cls-1" d="M1053.663,892.824V632.295h148c28.132,0,42.4,11.008,42.4,33.024v97.036c0,22.017-14.271,33.025-42.4,33.025h-63.2v97.443Zm105.6-194.48a.877.877,0,0,0-.816-.814h-19.978v36.286h19.978a.877.877,0,0,0,.816-.815Z" transform="translate(-15.91 -91.784)"/>
  <path class="cls-1" d="M1408.372,973.959c-28.132,0-42.4-10.6-42.4-32.209V795.381h-20.794v97.443h-84.8v-227.5c0-22.017,14.271-33.024,42.4-33.024h105.6c28.132,0,42.4,11.008,42.4,33.024v243a.877.877,0,0,0,.815.815h209.565v64.826Zm-42.4-275.615a.876.876,0,0,0-.815-.814h-19.162a.877.877,0,0,0-.816.814v31.8h20.794Zm147.185,194.48c-28.132,0-42.4-10.6-42.4-32.209v-195.3c0-22.017,14.271-33.024,42.4-33.024h105.6c28.132,0,42.4,11.008,42.4,33.024v77.058h-84.8V698.344a.876.876,0,0,0-.815-.814h-19.162a.877.877,0,0,0-.816.814V827.182a.878.878,0,0,0,.816.816h19.162a.877.877,0,0,0,.815-.816V766.433h84.8v94.183c0,21.608-14.271,32.209-42.4,32.209Z" transform="translate(-15.91 -91.784)"/>
  <path class="cls-1" d="M1791.215,892.824l-27.725-69.719v69.719h-81.951V632.295h81.951v66.457l25.277-66.457h89.29l-58.3,125.576,60.75,134.953Z" transform="translate(-15.91 -91.784)"/>
  <path class="cls-1" d="M998.6,974.411c-7.291,0-10.989-2.747-10.989-8.348v-12.68h21.979V957.4a.228.228,0,0,0,.212.212h4.966a.228.228,0,0,0,.211-.212v-8.03a.228.228,0,0,0-.211-.212H998.6c-7.291,0-10.989-2.853-10.989-8.559V915.449c0-5.706,3.7-8.56,10.989-8.56h27.368c7.291,0,10.989,2.854,10.989,8.56v12.469H1014.98v-3.91a.227.227,0,0,0-.211-.211H1009.8a.227.227,0,0,0-.212.211v8.031a.227.227,0,0,0,.212.211h16.167c7.291,0,10.989,2.747,10.989,8.348v25.466c0,5.6-3.7,8.348-10.989,8.348Z" transform="translate(-15.91 -91.784)"/>
  <path class="cls-1" d="M1056.5,974.411c-7.291,0-10.989-2.747-10.989-8.348V927.918h-5.39v-16.7h5.39V906.89h21.979v4.333h27.367v16.7h-27.367V957.4a.228.228,0,0,0,.211.212h5.072a.228.228,0,0,0,.211-.212V932.25h21.873v33.813c0,5.6-3.7,8.348-10.989,8.348Z" transform="translate(-15.91 -91.784)"/>
  <path class="cls-1" d="M1111.13,974.411c-7.291,0-10.989-2.747-10.989-8.348V906.89h21.979V957.4a.229.229,0,0,0,.212.212h4.966a.229.229,0,0,0,.212-.212V906.89h21.979v59.174c0,5.6-3.7,8.348-10.989,8.348Z" transform="translate(-15.91 -91.784)"/>
  <path class="cls-1" d="M1154.872,974.411V906.89h38.357c7.291,0,10.989,2.854,10.989,8.56v50.614c0,5.6-3.7,8.348-10.989,8.348Zm27.368-50.4a.227.227,0,0,0-.212-.211h-5.177V957.61h5.177a.228.228,0,0,0,.212-.212Z" transform="translate(-15.91 -91.784)"/>
  <path class="cls-1" d="M1209.5,974.411V906.89h21.979v67.521Z" transform="translate(-15.91 -91.784)"/>
  <path class="cls-1" d="M1247.747,974.411c-7.291,0-10.989-2.747-10.989-8.348V915.449c0-5.706,3.7-8.56,10.989-8.56h27.368c7.291,0,10.989,2.854,10.989,8.56v50.614c0,5.6-3.7,8.348-10.989,8.348Zm16.378-50.4a.227.227,0,0,0-.211-.211h-4.966a.227.227,0,0,0-.212.211V957.4a.228.228,0,0,0,.212.212h4.966a.228.228,0,0,0,.211-.212Z" transform="translate(-15.91 -91.784)"/>
  <path class="cls-1" d="M1302.162,974.411c-7.291,0-10.989-2.747-10.989-8.348v-12.68h21.979V957.4a.228.228,0,0,0,.212.212h4.966a.228.228,0,0,0,.211-.212v-8.03a.228.228,0,0,0-.211-.212h-16.167c-7.291,0-10.989-2.853-10.989-8.559V915.449c0-5.706,3.7-8.56,10.989-8.56h27.368c7.291,0,10.989,2.854,10.989,8.56v12.469H1318.54v-3.91a.227.227,0,0,0-.211-.211h-4.966a.227.227,0,0,0-.212.211v8.031a.227.227,0,0,0,.212.211h16.167c7.291,0,10.989,2.747,10.989,8.348v25.466c0,5.6-3.7,8.348-10.989,8.348Z" transform="translate(-15.91 -91.784)"/>
</svg>
