<?xml version="1.0" encoding="utf-8"?>
<!-- Generator: Adobe Illustrator 25.3.1, SVG Export Plug-In . SVG Version: 6.00 Build 0)  -->
<svg version="1.1" id="Capa_1" xmlns="http://www.w3.org/2000/svg" xmlns:xlink="http://www.w3.org/1999/xlink" x="0px" y="0px"
	 viewBox="0 0 1886 1080" style="enable-background:new 0 0 1886 1080;" xml:space="preserve">
<style type="text/css">
	.st0{fill:#FFFFFF;}
</style>
<g>
	<g>
		<g>
			<g>
				<path class="st0" d="M687.89,689.77c18.7,0,33.73,3.98,45.08,11.92c-1.05,0.48-2.15,0.72-3.27,0.72l-0.31,1.57
					c1.93,0,8.28,5.02,19.06,15.05c3.13,0,6.09,1.05,8.89,3.13h8.79l3.68,0.84l-0.17,0.84c-0.21,1.04-0.83,1.56-1.88,1.56h-3.97
					c-0.48,0-0.66-0.28-0.55-0.84c-1,0.56-2.38,0.84-4.14,0.84l-0.14,0.72c9.32,13.32,14.72,31.27,16.19,53.83l-2.59,1.56h-19.03
					l-0.16,0.84c7.79,0,12.23,0.24,13.34,0.72c0.98-0.49,2.35-0.72,4.12-0.72h1.57c2.08,0,2.13,5.02,0.15,15.05
					c-0.05,1.05,0.37,1.57,1.26,1.57h7.95c0.48,0,0.68,0.24,0.58,0.72l1.83-0.72h0.72c3.15,0.32,4.6,1.08,4.36,2.29
					c-3.48,17.58-12,35.28-25.56,53.1l-1.71,0.72h-15.05l-3.73,2.4h-7.83c-1.08,0.16-1.7,0.68-1.87,1.56c5.78,0,8.61,0.28,8.5,0.84
					c-16.28,20.23-38.24,35.24-65.86,45.03c-13.16,3.21-24.84,4.82-35.03,4.82h-8.67c-6.18,0-10.29-0.56-12.31-1.69
					c-1.16,0.56-2.01,0.84-2.57,0.84c-22.42-3.93-39.09-11.6-49.99-23c-8.5-8.58-14.97-17.25-19.42-26.01
					c-0.77-0.56-1.76-0.84-2.96-0.84h-7.1l0.31-1.56h7.83c0.32-1.6,1.04-2.4,2.16-2.4h10.24l4.12-0.72
					c-5.11-15.58-6.79-29.82-5.03-42.75l0.48-2.4l1.15-1.57c0.48,0,0.67,0.28,0.56,0.84c8.06-0.56,13.93-0.84,17.62-0.84h11.8
					l0.17-0.84c0.21-1.04-0.21-1.56-1.26-1.56H559.8c-0.65,0-1.6-1.84-2.88-5.53h-13.48c-1.04,0-1.46-0.52-1.25-1.57
					c0.21-1.04,2.49-1.84,6.86-2.41l0.62-3.13c-0.56,0-1.32-0.24-2.27-0.72c-1.14,0.48-1.99,0.72-2.55,0.72
					c-0.28-1.04-0.36-1.84-0.25-2.41c5.15-18.3,15.62-36.73,31.41-55.27c5.91-6.34,10.79-9.51,14.65-9.51
					c6.82,0,10.4-0.8,10.71-2.41c-1.56-1.04-3.03-1.56-4.39-1.56h-0.84l-4.11,0.72l-0.41-1.56l1.03-1.56
					c-2.09,0-3.03-0.52-2.82-1.56c4.62-3.45,12.99-8.47,25.14-15.05h8.67C639.42,693.99,660.84,689.77,687.89,689.77z
					 M544.75,828.96h4.81l-0.06,3.97l-2.6,1.57h-2.4c-1.05,0-1.54-1.57-1.48-4.7L544.75,828.96z M544.75,805.24h8.67
					c1.01,0.16,1.43,0.68,1.26,1.56l-1.73,0.84h-8.67L544.75,805.24z M602.58,788.63l-0.31,1.56l4.17,3.25l-0.31,1.57
					c-0.21,1.05-0.87,1.56-1.99,1.56h-3.85l-0.48,2.41h14.21c0.88,0,1.32,1.84,1.31,5.54c11.22,0.48,19.6,0.72,25.14,0.72h6.26
					l-0.31,1.56c-0.22,1.13-0.86,1.69-1.9,1.69c-0.85-0.56-1.56-0.84-2.12-0.84c-0.56,0-0.9,0.28-1.01,0.84l-3.81-0.84
					c-1.93,0-9.37,0.28-22.32,0.84l-0.77,3.85c0.01,12.92,4.29,24.56,12.84,34.92c5.06,4.02,7.53,6.38,7.39,7.11l-1.71,0.72h-11.08
					l0.42,1.56l-0.17,0.84h-4.7l-0.31,1.56h9.51c8.87,2.65,14.91,3.97,18.12,3.97c3.05,0,8.22-0.8,15.53-2.4
					c0.21-1.05-0.21-1.57-1.26-1.57h-3.97l0.31-1.56h8.67c0.56,0,4.42-0.8,11.56-2.4h7.95c1.2,0,2.29-0.24,3.27-0.72
					c0.94,0.48,1.7,0.72,2.26,0.72c11.23-4.42,22.39-14.17,33.48-29.26c5.23-10.6,8-16.66,8.3-18.18l1.26-6.38
					c0.17-0.88-2.29-1.64-7.37-2.29l-1.71,0.72h-5.54c-2.17,0-2.21-5.26-0.13-15.78l-3.69-0.84h-26.97l0.31-1.57
					c8.04-0.48,13.91-0.72,17.6-0.72h11.8l0.16-0.84c-2.19-14.05-7.96-24.84-17.31-32.39c-10.5-7.39-19.52-11.08-27.06-11.08
					c-22.08,0-42.26,11.32-60.54,33.96C606.19,779.76,603.14,785.82,602.58,788.63z M639.06,820.29h0.85
					c1.01,0.16,1.43,0.68,1.25,1.56l-0.48,2.41c-0.21,1.05-0.83,1.56-1.87,1.56h-0.84c-1.05,0-1.46-0.52-1.25-1.56l0.47-2.41
					C637.55,820.82,638.18,820.29,639.06,820.29z M738.69,808.49l-1.03,1.56l-0.14,0.72h0.72c0.21-1.04,0.83-1.56,1.87-1.56
					l0.14-0.72H738.69z"/>
				<path class="st0" d="M801.27,689.41h56.47c1.04,0,1.19,3.29,0.45,9.87c2.73,0,3.99,0.52,3.78,1.56l-3.41,17.22l-7.48,4.94h-7.35
					c-1.16,0.16-1.82,0.68-1.99,1.56l-0.33,1.69h9.03c1.01,0.16,1.43,0.68,1.25,1.56l-16.85,85.13l-1.03,1.56
					c3.61,0.8,5.33,1.65,5.16,2.53l-9.7,49.01c-0.06,1.13,0.39,1.69,1.35,1.69c1.05,0,1.63-0.28,1.74-0.84l8.02,0.84h61.41l1.4,0.84
					l-1.54,4.1l-4.86,24.56c-0.21,1.05-0.87,1.57-1.99,1.57l-4.77-0.84c-1,0.56-2.41,0.84-4.26,0.84l-0.33,1.68
					c0.4,0,2,0.24,4.79,0.72l5.08-0.72l0.54,1.56l-1.45,7.35c-0.22,1.12-0.9,1.69-2.02,1.69H783.52c-4.57,0-11.86-0.28-21.86-0.84
					l1.45-7.35c0.16-0.8-0.49-1.61-1.93-2.41h-7.35l0.33-1.68h7.35c0.72,0,1.68-0.81,2.88-2.41l15.54-78.51
					c-3.36-2.08-4.98-3.45-4.85-4.09l17.01-85.97c0.21-1.05-2.92-1.84-9.4-2.41l0.17-0.84c5.09-0.16,9.79-1.81,14.1-4.94
					c1.61,0,2.51-0.52,2.72-1.56l2.93-14.81c0.64-3.21-0.93-4.81-4.71-4.81l1.45-7.35C799.75,689.97,800.38,689.41,801.27,689.41z"
					/>
				<path class="st0" d="M918.27,857.5l0.51,1.68l-1.62,8.19c-0.21,1.05-0.87,1.56-2,1.56l-0.53-1.56l1.62-8.19
					C916.63,858.06,917.31,857.5,918.27,857.5z M978.43,689.77h115.35c1.09,0.16,1.54,0.72,1.35,1.69l-7.93,40.1l-2.16,2.4
					l-5.49-0.84c-47.39,0.56-73.1,0.84-77.11,0.84l-0.81,4.09c-0.22,1.13-0.9,1.69-2.02,1.69h-14.69c-1.16,0.16-1.82,0.68-2,1.56
					l-0.98,4.94c-0.06,1.12,0.39,1.68,1.35,1.68h0.84c1.61,0,2.46-0.28,2.57-0.84c5.91,0.57,9.28,1.37,10.12,2.41h18.06
					c1.09,0.16,1.54,0.72,1.35,1.69l-0.17,0.84c-5.07,0.48-9.77,0.72-14.11,0.72h-7.35l-5.03,25.4c-0.06,1.13,0.35,1.69,1.23,1.69
					h84.41c1.01,0.16,1.43,0.68,1.26,1.56l-7.77,39.26c-0.16,0.8-1.13,1.64-2.91,2.53h-67.9c-0.81,0-1.81,0.8-3.01,2.41l-5.34,26.97
					l0.03,4.09h8.19c1.07,0.24,1.52,0.8,1.35,1.69l-1.96,9.87c-0.21,1.05-0.87,1.56-1.99,1.56H987c-0.11,0.56-0.56,1.41-1.34,2.53
					l-3.55,17.94l0.03,4.1h23.72c1.09,0.16,1.54,0.72,1.35,1.68l-0.14,0.72c-0.22,1.12-1.18,1.69-2.86,1.69
					c-4.26,0-11.94,0.28-23.05,0.84c-0.11,0.56-0.45,0.84-1.01,0.84l-0.28,5.66l-0.81,4.09c-0.22,1.12-0.89,1.69-2.02,1.69h-56.47
					c-1.05,0-1.45-0.56-1.23-1.69l1.93-9.75c0.38-1.12,1.01-1.68,1.9-1.68h18.9c2.92-0.56,4.62-0.84,5.11-0.84l0.47-2.4l-21.14-0.84
					h-2.53c-1.05,0-1.46-0.52-1.26-1.57l4.39-22.16c0.38-1.12,1.01-1.68,1.9-1.68h8.19l2.1-10.59c0.22-1.12-2.87-1.93-9.28-2.41
					l14.92-75.37c-1.13,0-1.64-0.24-1.54-0.72c-0.56,0-0.89,0.24-0.98,0.72l-5.52-0.72h-5.78c-1.04,0-1.45-0.56-1.23-1.69
					l4.69-23.72c0.38-1.12,1.02-1.69,1.9-1.69c10.05-0.48,16.64-0.72,19.77-0.72c0.22-1.13-0.47-1.69-2.08-1.69
					c-7.79,0-15.54-0.8-23.24-2.41h-8.19l1.31-6.62c0.37-1.04,1.03-1.56,2-1.56h4.82c0.56,0,0.79,0.24,0.7,0.72
					c1.04-0.4,4.44-0.93,10.18-1.57l9.25-46.72l1.15-1.56C963.97,690.05,972.74,689.77,978.43,689.77z M923.93,857.5h1.68
					c1.01,0.16,1.42,0.72,1.24,1.68l-0.64,3.25c-0.11,0.56-0.41,0.84-0.89,0.84l0.42,1.56l-0.5,2.53c-0.21,1.05-0.84,1.56-1.88,1.56
					h-1.68c-1.05,0-1.46-0.52-1.25-1.56l1.62-8.19C922.41,858.06,923.04,857.5,923.93,857.5z"/>
				<path class="st0" d="M1129.72,689.41c2.78,0.56,5.45,0.84,8.02,0.84c2.57,0,5.36-0.28,8.36-0.84c1.2,0,2.23,0.28,3.08,0.84
					c11.51-0.56,20.84-0.84,27.99-0.84h32.63c26.73,0,44.31,6.26,52.75,18.78l-1.85,0.84h-5.66l-0.31,1.56
					c-0.06,1.12,0.35,1.68,1.23,1.68h9.87c5.97,6.34,9.29,18.34,9.98,36h9.03c1.01,0.16,1.43,0.68,1.25,1.56
					c-1.99,1.12-3.71,1.68-5.15,1.68l-1.52-0.84c-3.41,0.56-5.16,1.12-5.27,1.68c0.35,1.05,0.48,1.85,0.37,2.41l-2.74,1.69h-5.78
					l-1.45,7.35c-1.14,5.78-5.94,15.01-14.39,27.69c-1.17,0.24-1.84,0.8-2.02,1.69h20.47l-0.48,2.41h-14.69
					c-1.28,0-2.46,0.28-3.54,0.84c-0.77-0.56-1.8-0.84-3.08-0.84c-1.94,1.68-5.12,2.77-9.55,3.25c-3.24,2.57-4.98,4.49-5.24,5.78
					c1.01,0.16,1.42,0.72,1.23,1.68c-9.87,8.11-22.62,13.29-38.23,15.54h-9.75c-7.07,0-14.46,0.24-22.18,0.72
					c-2.96-0.49-5.12-0.72-6.48-0.72c-3.79,0.48-6.8,0.72-9.05,0.72l-1.54-0.72c-1.06,0.48-2.19,0.72-3.4,0.72l-0.81,4.09
					c-0.11,0.57-0.45,0.85-1.01,0.85c-0.76,3.85,1.59,5.78,7.04,5.78l-13.72,69.36c-0.54,2.73,0.27,4.09,2.44,4.09l-0.5,2.53
					c-0.21,1.04-0.83,1.56-1.87,1.56h-35.16c-4.66,0-11.43-0.24-20.32-0.72c-0.1,0.49-0.43,0.72-0.99,0.72
					c0.19-1.77-1.04-3.65-3.7-5.66l14.39-72.73l-3.93-0.84h-3.25l4.86-24.56l-5.13-3.25l0.81-4.09l8.15-4.1
					c10.13-0.48,16.44-0.72,18.93-0.72l0.16-0.84c-1.61,0-3.44-0.28-5.49-0.84l-1.85,0.84c-2.86-0.56-5.25-0.84-7.18-0.84h-4.1
					c-1.04,0-1.45-0.56-1.23-1.69l6.93-35.04h3.25c3.21,0,5.14-1.65,5.79-4.94c2.49,0,4.19-0.28,5.11-0.84
					c0.85,0.56,1.88,0.84,3.08,0.84c1.12,0,1.8-0.56,2.02-1.68c0.21-1.04-0.25-1.56-1.38-1.56h-7.35c-1.04,0-1.4-0.84-1.07-2.53
					c1.33-6.74,2.82-13,4.44-18.78c0.35-4.17,1.01-8.79,2.02-13.85l-1.52-0.84h-8.19c-1.04,0-1.45-0.56-1.23-1.68
					c0.37-1.05,0.99-1.56,1.87-1.56h8.19c1.28,0,2.36-1.37,3.22-4.1l0.09-4.09c1.8-7.06,3.3-10.6,4.5-10.6h3.25
					C1125.1,690.25,1127.6,689.97,1129.72,689.41z M1094.04,709.03h1.56c1.1,0.16,1.56,0.68,1.38,1.56l-0.33,1.68h-3.25
					c-1.12,0-1.57-0.56-1.35-1.68C1092.42,709.55,1093.08,709.03,1094.04,709.03z M1167.74,732.76L1165,746.6
					c-0.06,1.12,0.39,1.68,1.35,1.68h7.35c1.01,0.16,1.43,0.68,1.25,1.56c-0.22,1.12-0.86,1.68-1.9,1.68c-1.2,0-2.23-0.28-3.08-0.84
					c-1.07,0.56-2.22,0.84-3.42,0.84l-1.51-0.84c-1.49,3.85-2.67,5.78-3.55,5.78h-5.78c-0.61,3.05-1.26,4.94-1.96,5.66
					c-0.03,2.97-0.23,5.41-0.61,7.34l-0.33,1.68c-0.24,1.21-0.74,2.29-1.49,3.25c0.37,0.96,0.44,2.05,0.2,3.25l-0.64,3.25h29.38
					c11.32,0,20.41-5.98,27.27-17.94c0.68-3.45,1.73-5.9,3.14-7.35l3.93,0.84h0.84c1.04,0,1.89-1.65,2.54-4.94h8.19
					c0.11-0.56,0.56-1.4,1.34-2.53l-1.54-0.72h-8.91c-3.25-10.35-11.22-15.53-23.9-15.53H1167.74z M1204.62,749.01h8.91l-0.33,1.69
					h-4.82l-3.93-0.84L1204.62,749.01z"/>
				<path class="st0" d="M1351.97,689.53h48.05c0.93,0.16,3.05,11.55,6.35,34.19l2.1,1.56h8.19c1.22,1.13,4.28,18.55,9.16,52.26
					l2.57,16.26l-1.86,0.84h-18.78l-0.16,0.84c-0.57,2.89,0.76,4.5,3.98,4.82l5.08-0.72h0.72c2.09,1.2,5.63,21.83,10.63,61.89
					l-1.85,0.84c-1.74-0.56-2.77-0.84-3.09-0.84c-0.48,0-0.78,0.28-0.89,0.84l-5.62-0.84h-4.09c-1.08,0.16-1.71,0.72-1.9,1.68
					c1.17,8.67,2.2,13,3.08,13h16.38c1.01,0.16,1.42,0.72,1.23,1.68l-0.14,0.72c-0.22,1.12-0.86,1.68-1.9,1.68h-17.94
					c-1.28,0-2.31-0.28-3.08-0.84c-1.07,0.56-2.26,0.84-3.54,0.84h-17.1l-5.49-0.84l-1.17,1.69c-0.05,1.04,0.41,1.56,1.37,1.56
					h48.89c1.61,0,3.35,8.99,5.25,26.97l-0.17,0.84h-61.16c-0.89,0-2.3-9.28-4.25-27.82h-43.23c-1.2,0-2.24-0.24-3.11-0.72
					c-1.06,0.48-2.19,0.72-3.4,0.72c-1.12,0-1.58-0.52-1.37-1.56c0.56,0,0.9-0.28,1.01-0.84c10.14-0.56,17.54-0.84,22.2-0.84h26.13
					c1.04,0,1.67-0.52,1.87-1.56l-2.07-1.68h-16.38c-0.64,0-1.76-2.45-3.36-7.35h-6.51l-0.16,0.84c-0.1,0.48-0.28,2.65-0.56,6.5
					h-7.35c-0.56,0-1.96-2.45-4.21-7.35h-47.32c-3.13,0-5.45,2.17-6.95,6.5l1.4,0.84h13.85c1.09,0.16,1.54,0.72,1.35,1.68
					l-0.14,0.72l-16.91,31.91h-62.01l0.17-0.84l17.9-32.63l-24.28-0.84c-1.12,0-1.59-0.52-1.38-1.56
					c4.46-8.75,7.25-13.12,8.38-13.12h22.03c3.94,0,7.54-4.62,10.81-13.85c0.98-0.08,5.05-6.86,12.21-20.35l14.21-26.13l0.16-0.84
					h-8.19c-0.12-5.06,0.02-6.82,0.45-5.3c-0.57-0.8,6.78-1.21,22.03-1.21c0.84-0.16,7.37-11.28,19.6-33.36l18.06-33.47l0.17-0.84
					h-4.09l0.16-0.84c6.84-13.88,13.53-25.56,20.06-35.04L1351.97,689.53z M1364.06,760.45c-10.37,22.8-16.72,34.2-19.05,34.2
					h-18.78c-1.04,0-2.17,1.65-3.38,4.94h4.94c3.15,0.32,4.59,1.12,4.34,2.41c-8.78,16.78-13.23,25.49-13.36,26.13l3.95,0.72
					l5.93-0.72c0.95,0.48,1.7,0.72,2.27,0.72l5.08-0.72c0.48,0,0.67,0.24,0.58,0.72l4.23-0.72h13.85c0.56,0,0.8,0.24,0.7,0.72
					c5.55-0.48,8.44-1.28,8.66-2.4l0.17-0.84c-1.3-3.61-2.34-10.68-3.15-21.2c0.55-2.8-1.58-4.41-6.39-4.81
					c0.27-1.36-0.02-2.73-0.87-4.1c0.46-1.12,1.13-1.68,2.02-1.68h13.85c-0.76-9.95-2.09-21.07-3.99-33.36H1364.06z"/>
				<path class="st0" d="M1535.26,689.41c0.56,0,0.79,0.28,0.68,0.84l3.29-0.84c25.53,0,46.12,6.1,61.76,18.3
					c19.11,0,28.24,2.13,27.39,6.38c10.05,9.63,17.28,19.99,21.67,31.07l-0.95,4.82l-32.48,15.05c-6.09,3.21-10.39,4.82-12.88,4.82
					h-7.95c-8.66-16.7-17.64-26.25-26.96-28.66c-2.91-1.53-7.6-3.37-14.08-5.54c-9.39,0-20.9,3.17-34.51,9.52l-0.16,0.84
					c5.86,0,8.69,0.52,8.48,1.56c-16.93,12.92-26.1,23-27.53,30.22c-2.08,2-4.7,7.3-7.84,15.89h-16.02
					c-1.07,0.16-1.71,0.72-1.9,1.68c-0.14,0.72,0.51,1.49,1.96,2.29h13.48c0.8,0,0.81,6.67,0.02,19.99
					c0.6,10.76,4.29,20.31,11.06,28.66l-1.7,0.72h-8.79l-0.33,1.69c5.7,6.9,16.33,12.2,31.89,15.89c6.02,0,15.28-2.41,27.8-7.23
					c10.67,0,19.59-3.45,26.73-10.36h0.72l0.31-1.56h-7.95l0.14-0.72c2.72-3.61,7.11-8.39,13.19-14.33h9.51
					c1.12,0,9.49,4.78,25.1,14.33c11.15,0,18.39,2.37,21.71,7.11l-0.16,0.84c-2.63,2.33-3.97,3.66-4.04,3.97l-5.37-0.84
					c-3.45,0-9.28,5.3-17.47,15.89c-2.55,1.12-6.92,1.68-13.1,1.68h-1.56c-0.8,0-1.76,0.77-2.86,2.29h10.36l-0.48,2.41
					c-20.05,15.73-36.12,24.52-48.2,26.37c-9.26,4.17-19.22,6.26-29.9,6.26h-16.74c-28.98,0-52.7-10.32-71.18-30.95
					c-1.71-2.73-5.41-4.09-11.11-4.09c-1.96,0.56-3.06,0.84-3.29,0.84c-2.01-0.8-2.94-1.61-2.78-2.41c0.37-1.04,1.04-1.57,2-1.57
					c0.56,0,1.26,0.28,2.12,0.84l4.99-0.84h1.56l0.16-0.84c-6.96-13.09-10.17-21.03-9.61-23.84l0.17-0.84h7.95l4.11-0.72
					c-3.38-14.12-4-28.46-1.84-42.98h-10.24l0.47-2.41h8.67c1.05,0,1.67-0.52,1.88-1.57c0.22-1.12-0.19-1.68-1.23-1.68h-14.33
					c-1.04,0-1.46-0.52-1.26-1.56l0.48-2.41c2.41,0,4.06-0.24,4.96-0.72l1.42,0.72c7.95,0,12.13-1.04,12.54-3.13
					c4.01-15.01,11.06-29.1,21.13-42.27l0.14-0.72c0.21-1.05-0.21-1.56-1.25-1.56h-7.95l-1.52-0.84
					c12.89-16.86,26.08-28.54,39.56-35.04c0.21-1.05-0.21-1.56-1.25-1.56h-15.89l0.16-0.84c7.28-5.54,19.43-10.59,36.48-15.17
					c8.89-1.52,16.75-2.29,23.57-2.29h1.56C1533.16,690.25,1534.26,689.97,1535.26,689.41z M1461.41,800.91l-0.47,2.41h2.41
					c1.04,0,1.67-0.56,1.89-1.69l-1.42-0.72H1461.41z M1537,845.46h7.23c1.01,0.16,1.43,0.68,1.26,1.56
					c-7.82,5.86-13.18,8.79-16.07,8.79h-6.38l0.31-1.56C1525.35,854.25,1529.9,851.32,1537,845.46z"/>
				<path class="st0" d="M1721.17,689.41c5.83,0.56,8.64,1.37,8.43,2.41l-9.34,47.2h9.03c1.01,0.16,1.42,0.72,1.23,1.68l-3.05,15.42
					l0.03,4.1c7.07,0,11.14-2.73,12.22-8.19c-0.35-1.05-0.47-1.84-0.36-2.41l1.15-1.56c-0.37-0.97-0.43-2.05-0.2-3.25
					c3.59-1.52,5.62-3.45,6.08-5.78h-7.35c-1.13,0-1.58-0.52-1.38-1.56c0.96,0,19.01-15.73,54.13-47.2c44.39,0,67.19,0,68.39,0h3.25
					l-0.16,0.84c-8.45,7.79-26.49,23.52-54.14,47.2l-0.14,0.72h8.19l-0.33,1.68c-0.14,0.72-7.93,7.23-23.37,19.51h-9.87l-4.14,0.84
					l0.16-0.84l-1.85,0.84h-6.5l-0.31,1.56h17.1c1.09,0.16,1.54,0.72,1.35,1.68c-0.5,0.08-9.68,7.95-27.55,23.6l-0.16,0.84
					c4.85,7.95,14.08,21.76,27.69,41.42c-1.59,1.12-2.78,1.68-3.58,1.68c-0.51,2.57,2.14,4.18,7.95,4.82l1.76,3.25l-0.33,1.69h-7.34
					l-0.48,2.41c2.73,0,4.04,0.28,3.93,0.84l4.26-0.84h8.91c4.17,0,6.41,1.08,6.7,3.25l-1.18,1.69l-3.81-0.84
					c-2.01,0-4.51,0.28-7.51,0.84c-0.93-0.56-1.68-0.84-2.24-0.84l-1.85,0.84c-0.93-0.56-1.68-0.84-2.24-0.84l-1.15,1.56
					c5.91,7.46,14.44,20.51,25.61,39.14c1.12,0,4.32,4.33,9.59,13l-0.16,0.84l-1.04,1.56c0.28,1.04,0.35,1.88,0.23,2.53h4.09
					c0.8,0,1.48,0.8,2.05,2.41c-0.21,1.04-0.87,1.56-1.99,1.56h-48.77c-5.46,0-13.56-0.24-24.3-0.72c-0.99-2.73-3.17-4.09-6.54-4.09
					l0.33-1.68c1.31-1.37,1.99-2.17,2.04-2.41l0.17-0.84c-1.21,0-7.38-9.75-18.53-29.26l-13.58-22.04c0.37-1.04,0.99-1.56,1.87-1.56
					l3.21,0.84c1.15-0.56,2.01-0.84,2.57-0.84l-0.16,0.84l1.73-0.84h9.03c1.04,0,1.68-0.56,1.9-1.69c-1.08-1.04-2.06-1.56-2.94-1.56
					c-3.45,0-10.46-0.28-21.03-0.84l-1.09-2.41c0.56,0,0.9-0.28,1.01-0.84c0.93,0.56,1.68,0.84,2.24,0.84l1.73-0.84
					c0.85,0.56,1.88,0.84,3.08,0.84h1.69l0.17-0.84c0.21-1.04-0.84-2.65-3.14-4.81l-1.71,0.72c-2.6-0.64-3.8-1.45-3.61-2.41
					l0.17-0.84l7.45-4.82c0.77-1.04,1.22-1.88,1.35-2.53c-0.57-2.4-1.39-3.73-2.47-3.97h-0.84c-0.72,0-4.62,3.25-11.69,9.75
					c-2.17,0-3.36,0.53-3.56,1.57l-0.17,0.84l4.17,3.25c0.35,1.05,0.48,1.85,0.37,2.41c-1.59,1.13-2.5,1.69-2.74,1.69h-7.35
					c-1.16,0.16-1.82,0.68-1.99,1.56l-13.06,65.99c-0.21,1.04-0.83,1.56-1.87,1.56h-32.51c-5.46,0-13.56-0.24-24.3-0.72l-0.51-1.68
					l12.89-65.14c0.36-1.04,1.03-1.56,1.99-1.56h8.91l1.66-4.1l0.16-0.84c-3.85,0-5.62-0.8-5.3-2.41l0.17-0.84
					c0.32-1.61,2.4-2.41,6.25-2.41l0.81-4.09c0.11-0.56,0.41-0.84,0.89-0.84l-0.41-1.56l11.75-59.37c0.22-1.12-0.51-1.68-2.19-1.68
					c-10.73-0.56-16.61-0.84-17.65-0.84l-0.54-1.56l1.85-0.84c9.91-0.56,16.46-0.84,19.67-0.84l3.22-16.26l-0.04-4.09h-8.91
					c-1.12,0-1.58-0.52-1.37-1.56l9.03-45.63c0.36-1.04,1.03-1.57,2-1.57h3.25C1704.87,690.25,1720.1,689.97,1721.17,689.41z
					 M1641.85,831.01h1.68c1.01,0.16,1.42,0.72,1.23,1.69l-0.31,1.56c-0.16,0.8-1.12,1.61-2.88,2.41c-0.81,0-1.45-0.8-1.93-2.41
					l0.31-1.56C1640.33,831.57,1640.96,831.01,1641.85,831.01z M1706.15,761.05l-0.31,1.56h4.09l0.14-0.72l-0.51-1.68
					C1708.57,760.77,1707.43,761.05,1706.15,761.05z M1725.68,765.14c-0.05,1.04,0.42,1.56,1.38,1.56l1.15-1.56l0.33-1.68h-0.84
					C1726.55,763.62,1725.88,764.18,1725.68,765.14z M1730.09,903.5h6.51c0.88,0,1.75,1.08,2.61,3.25h-8.91
					c-0.8,0-1.48-0.84-2.03-2.53L1730.09,903.5z"/>
			</g>
			<g>
				<path class="st0" d="M189.18,724.21l3.33-0.56c2.31,0.36,3.42,2.37,3.33,6.02c-0.04,1.4-0.83,2.22-2.38,2.48l-2.16,0.36
					c-1.55,0.26-3.05-2-4.48-6.79L189.18,724.21z M192.67,678.09l81.1-13.55c2-0.33,4.76,8.62,8.28,26.84
					c1.28,10.58,4.53,15.44,9.75,14.57c3-0.5,4.42,2.52,4.25,9.07c-1.13,0.94-3.42,1.7-6.86,2.27l15.31,63.67
					c2.24,11.92,5.47,17.53,9.69,16.82l-0.16,6.44c-0.04,1.5-0.84,2.38-2.39,2.64l-7.83,1.3l0.98,7.37l12.32-2.06
					c1.55-0.26,2.35-1.09,2.38-2.48c-0.75-1.16-1.1-2.54-1.05-4.15l2.36-1.52l9.99-1.67c0.02-0.64,0.87-3.67,2.55-9.08l0.03-1.13
					c-0.78,0.13-1.88-0.06-3.3-0.57c12.14-38.69,19.87-64.94,23.21-78.75c2.03-6.11,3.99-9.33,5.88-9.65l2.3,0.74
					c2.66-0.44,4.62-3.66,5.88-9.64c-1.74-1.21-4.38-1.52-7.93-0.92l0.03-1.13c9.01-28.44,13.53-43.63,13.58-45.56l78.77-13.16
					c2-0.33,5.09,10.7,9.28,33.09c1.82,6.97,5.49,9.98,11.05,9.06c1.55-0.26,2.29,1.44,2.19,5.08l-0.05,2.1
					c-0.04,1.5-1.95,2.57-5.72,3.2l-0.05,2.1c3.35,16.33,10.56,41.91,21.62,76.72c2.97,0.47,4.39,3.49,4.25,9.07l-2.36,1.51
					l-7.83,1.31l-0.06,2.26c1.51,1.46,2.24,3.1,2.2,4.92l7.83-1.31l5.69-1.91l-1.03-5.28l0.03-1.13l6.83-1.14
					c4.44-0.74,6.74-4.01,6.88-9.8c-1.4-1.58-2.09-2.54-2.08-2.86l17.25-59.32l19.69-70.64l1.16-0.19c-0.74-1.26-1.1-2.27-1.08-3.02
					c2.16-6.88,3.74-10.41,4.74-10.57l4.5-0.75c1.55-0.05,2.31,0.52,2.28,1.7c2.48-1.8,4.71-2.87,6.72-3.2l69.94-11.69
					c-0.13,5.05-0.97,7.7-2.52,7.96c-0.02,0.75,0.36,1.06,1.14,0.93l-40.4,135.83c1.44-0.02,2.14,0.61,2.11,1.89l-0.14,5.47
					c-0.84,2.28-3.08,3.72-6.74,4.34l-5.63-0.18c-1.93,6.09-3.5,9.24-4.71,9.45l-15.82,2.64c-1.56,0.48-2.36,1.36-2.39,2.65
					c-0.04,1.4,4.1,1.77,12.41,1.13l-0.06,2.26l-1.21,2.29l2.31,0.73l14.65-2.45l5.53-2.04l1.11,2.05l-0.05,2.1
					c-0.04,1.5-3.06,3.13-9.08,4.88c-0.03,1.4-1.69,7.82-4.96,19.27l6.77,0.95c-1.63,3.37-9,28.12-22.09,74.25l-3.56,2.84
					c-1.42-0.51-2.52-0.7-3.3-0.57c-0.02,0.75-0.42,1.19-1.19,1.32l1.11,1.9c-3.51,16.51-5.93,24.88-7.27,25.1l-4.69,1.91
					l-2.14-0.77l-6.86,2.27l-2.17,0.36c-0.78,0.13-1.15-0.18-1.14-0.93l-2.36,1.52l-49.46,8.26c-6.44,1.07-11.3,1.19-14.6,0.35
					c-1.35,0.87-2.86,1.44-4.52,1.72l-2.33,0.39c-2.22,0.37-5.01-7.45-8.36-23.46l-3.33,0.56l0.06-2.25l6.66-1.11
					c0.09-3.44-5.29-26.75-16.15-69.94l-5.66,0.94c-2.22,0.37-4.33-5.79-6.33-18.5l2.36-1.52l2.14,0.77l1.22-2.45l0.03-1.13
					c0.04-1.61-4.04-2-12.24-1.16c-4.02,1.42-7.8,2.42-11.36,3.02c-0.87-4.99-3.41-7.13-7.63-6.42l-2.36,1.52
					c-1.2-0.55-3.08-0.61-5.63-0.19l0.05-2.09c0.26-1.54,1.06-2.42,2.39-2.64l12.32-2.06l2.36-1.36l-1.03-5.27l0.03-1.13l10.16-1.7
					c0.13-5.05-0.89-8.83-3.03-11.36c1.49-2.07,2.24-3.69,2.27-4.87l-1.11-1.9c3.29-7.6,4.97-12.96,5.05-16.07
					c-3.3-13.88-5.78-20.68-7.44-20.41c-6.63,21.63-10.79,37.51-12.48,47.63c1.55-0.04,2.31,0.58,2.27,1.87
					c-0.14,5.79-5.11,9.51-14.87,11.14c-0.11,4.3-0.94,6.57-2.49,6.83l-15.65,2.61c-1.56,0.48-2.36,1.36-2.39,2.65l-0.05,2.09
					l10.15-1.7c1.55,0.07,2.31,0.69,2.28,1.87l-0.06,2.26l-1.22,2.29l21.32-3.56c1.54-0.05,2.31,0.57,2.27,1.86l-0.02,0.97
					c-0.04,1.4-3.45,3.09-10.24,5.08c-0.11,4.3-1.37,10.65-3.8,19.08l5.61,1.14l-27.2,98.99c-0.09,3.65-1.64,5.73-4.64,6.23
					l-5.63-0.18c-0.78,0.13-1.96,0.7-3.52,1.71c-7.42,0.49-13.02,1.05-16.8,1.68l-10.19,2.82c-1.42-0.51-2.52-0.7-3.3-0.57
					c-3.01,1.25-5.69,2.08-8.03,2.47c-1.44,0.24-2.15-0.02-2.13-0.77l-6.86,2.26c-5.22,0.87-16.09,2.31-32.61,4.32l-14.48-50.66
					c0.82-1.63,1.24-2.82,1.25-3.57c-3.74-5.25-7.87-18.99-12.4-41.23l-6.83,1.14c-0.89,0.15-3-6.02-6.33-18.5
					c4.57-1.73,6.88-3.23,6.91-4.52c0.05-2.15-7.8-1.9-23.56,0.73c-1.45-4.14-3.28-6.03-5.5-5.66c-4.02,1.42-6.3,2.17-6.86,2.27
					c-1.2-0.55-2.69-0.68-4.47-0.38l0.05-2.09c0.26-1.54,1.06-2.42,2.39-2.64l12.32-2.06c1.55-0.26,2.35-1.09,2.38-2.48l0.06-2.26
					l-1.11-1.9l2.36-1.52l7.82-1.3l0.11-4.35c0.07-2.58-2.13-5.09-6.6-7.56l-19.31-75.99c0.26-1.54,1-2.41,2.22-2.62
					c1.42,0.51,2.58,0.69,3.47,0.54l1.06-2.42c0.03-1.29-1-4-3.11-8.14l-5.67,0.95c-2.61-1.59-6.74-15.39-12.39-41.39L192.67,678.09
					z M194.21,834.01l1.11,2.06l-0.05,2.09l-3.33,0.56l0.05-2.09C192.26,835.09,193,834.21,194.21,834.01z M286.61,819.7
					c0.74,1.27,1.1,2.28,1.08,3.03l13.49-2.25l0.05-2.09c0.04-1.5-0.67-2.14-2.11-1.89l-10.16,1.7L286.61,819.7z M302.35,820.28
					l-0.12,4.51c0.19,1.36,0.95,1.93,2.28,1.7l6.66-1.11l5.69-2.07l0.02-0.97c0.06-2.26-2.9-3.26-8.88-3.01l-2.19,1.49
					C304.28,820.33,303.13,820.15,302.35,820.28z M326.97,823.86c-0.05,2.15-2,4.62-5.83,7.39c2.58,11.97,5.09,17.75,7.53,17.34
					l2.16-0.36l6.18-21.72c3-0.5,4.52-1.5,4.55-3l0.05-2.1L326.97,823.86z M333.14,848.81c0.75,0.95,1.09,3.08,1,6.41
					c2.23-1.12,3.4-3.51,3.49-7.16l0.02-0.97l-2.33,0.39L333.14,848.81z M422.72,768.75l-0.06,2.25l1.17-0.19l0.06-2.25
					L422.72,768.75z M424.93,766.29l-0.05,2.09l1.17-0.19l0.05-2.09L424.93,766.29z M467.1,790.68c0.19,1.36,0.89,1.93,2.11,1.73
					l12.49-2.09l0.11-4.35l-12.49,2.09C467.87,788.52,467.14,789.39,467.1,790.68z M485.03,789.77l-1.22,2.45l-0.06,2.26
					c0.19,1.36,0.95,1.93,2.28,1.7l8.99-1.5c1.11-0.19,2.25-1.44,3.41-3.78C495.5,789.14,491.03,788.77,485.03,789.77z
					 M502.71,798.84c1.87,13.48,4.69,19.9,8.47,19.27c4.42-13.03,7.25-20.4,8.51-22.11c1.44-0.24,2.18-1.11,2.22-2.61l0.05-2.1
					l-11.15,1.86C508.75,796.39,506.05,798.28,502.71,798.84z M514.63,819.62c0.18,1.47,0.89,2.1,2.1,1.89l1.17-0.19
					c0.02-0.86,0.44-2.05,1.25-3.58l-2.31-0.58C515.4,817.62,514.66,818.44,514.63,819.62z"/>
			</g>
			<path class="st0" d="M709.38,415.22c0,0-23.81,148.49,148.76,101.25C858.15,516.47,762.94,438.84,709.38,415.22z"/>
		</g>
		<g>
			<path class="st0" d="M233.54,1013.46c-25.16-36.39-47.2-83.8-65.49-140.92c-29.76-92.91-39.86-181.89-40.78-190.4l-79.74,48.24
				l0.11-0.86c9.08-72.11,29.81-135.5,61.6-188.42c25.44-42.34,57.98-78.11,96.71-106.31c47.58-34.63,93.05-49.23,114.93-54.71
				l-146.3,22.12l0.42-0.75c18.79-33.69,51-64.47,95.75-91.48c35.77-21.6,79.6-40.86,130.25-57.24
				c83.7-27.07,158.88-37.29,163.92-37.96c0.91-2.71,9.2-26.8,28.13-58.5c18.47-30.91,51.14-75.6,101.89-112.93l0.49-0.36l0.17,0.58
				c0.5,1.77,50.36,178.17,53.05,255.63l156.54,147.46l-0.07,0.24c-0.07,0.23-6.55,23.55-1.31,50.22
				c4.82,24.58,20.88,57.13,69.99,72.6c42.95,13.53,83.43,28.38,114.88,40.57c-5.78-3.72-11.58-7.42-17.39-11.09
				c-12.88-8.12-25.69-16.45-39.01-23.85c-6.41-3.56-12.94-6.93-19.58-10.06c-1.52-0.72-12.5-6.48-5.34-2.51
				c6.99,3.88-5.03-1.84-5.69-2.08c-6.35-2.39-12.13-5.48-17.22-9.15c-2.17-0.7-4.38-1.42-6.53-2.09
				c-71.21-22.45-55.66-87.85-53.68-95.11l3.79-13.32L768.54,290.7c-5.87-83.36-51.23-244-53.24-251.07L706.33,8l-26.48,19.5
				C598.02,87.75,559.96,165.23,547.2,196.33c-62.55,9.73-314.81,56.98-392.11,195.67l-22.63,40.6l50.77-7.68
				c-62.6,48.69-137.29,139.62-157.8,302.56l-5.88,46.76l89.78-54.35c13.57,89.59,49.2,290.73,179.41,352.12
				C268.99,1057.58,250.53,1038.03,233.54,1013.46z"/>
		</g>
	</g>
	<path class="st0" d="M672.35,78.57c0,0-51.35,105.05-51.52,119.54l38.12-4.61l-1.57,7.96c0,0-48.47,8.73-49.38,5.2
		C595.17,189.56,672.35,78.57,672.35,78.57z"/>
</g>
</svg>
